G04*
G04 #@! TF.GenerationSoftware,Altium Limited,Altium Designer,26.1.1 (7)*
G04*
G04 Layer_Physical_Order=2*
G04 Layer_Color=36540*
%FSLAX25Y25*%
%MOIN*%
G70*
G04*
G04 #@! TF.SameCoordinates,3E101659-1531-44DD-BC6F-E1116C570119*
G04*
G04*
G04 #@! TF.FilePolarity,Positive*
G04*
G01*
G75*
G04:AMPARAMS|DCode=117|XSize=39.37mil|YSize=70.87mil|CornerRadius=19.68mil|HoleSize=0mil|Usage=FLASHONLY|Rotation=270.000|XOffset=0mil|YOffset=0mil|HoleType=Round|Shape=RoundedRectangle|*
%AMROUNDEDRECTD117*
21,1,0.03937,0.03150,0,0,270.0*
21,1,0.00000,0.07087,0,0,270.0*
1,1,0.03937,-0.01575,0.00000*
1,1,0.03937,-0.01575,0.00000*
1,1,0.03937,0.01575,0.00000*
1,1,0.03937,0.01575,0.00000*
%
%ADD117ROUNDEDRECTD117*%
G04:AMPARAMS|DCode=118|XSize=39.37mil|YSize=86.61mil|CornerRadius=19.68mil|HoleSize=0mil|Usage=FLASHONLY|Rotation=270.000|XOffset=0mil|YOffset=0mil|HoleType=Round|Shape=RoundedRectangle|*
%AMROUNDEDRECTD118*
21,1,0.03937,0.04724,0,0,270.0*
21,1,0.00000,0.08661,0,0,270.0*
1,1,0.03937,-0.02362,0.00000*
1,1,0.03937,-0.02362,0.00000*
1,1,0.03937,0.02362,0.00000*
1,1,0.03937,0.02362,0.00000*
%
%ADD118ROUNDEDRECTD118*%
%ADD124C,0.05000*%
%ADD126C,0.10000*%
%ADD127C,0.03000*%
%ADD128C,0.04000*%
%ADD132C,0.10630*%
%ADD133C,0.04331*%
%ADD134C,0.06496*%
%ADD136C,0.06000*%
%ADD139C,0.09449*%
%ADD140C,0.08858*%
%ADD141C,0.23622*%
%ADD143C,0.04000*%
%ADD144R,0.04000X0.04000*%
%ADD145C,0.05937*%
%ADD147C,0.01575*%
%ADD148R,0.04000X0.04000*%
%ADD149C,0.02400*%
G36*
X810000Y175000D02*
X65000D01*
Y775000D01*
X810000D01*
Y175000D01*
D02*
G37*
%LPC*%
G36*
X794417Y765165D02*
X793583D01*
X792778Y764950D01*
X792056Y764533D01*
X791467Y763944D01*
X791050Y763222D01*
X790835Y762417D01*
Y761583D01*
X791050Y760778D01*
X791467Y760056D01*
X792056Y759467D01*
X792778Y759050D01*
X793583Y758835D01*
X794417D01*
X795222Y759050D01*
X795944Y759467D01*
X796533Y760056D01*
X796950Y760778D01*
X797165Y761583D01*
Y762417D01*
X796950Y763222D01*
X796533Y763944D01*
X795944Y764533D01*
X795222Y764950D01*
X794417Y765165D01*
D02*
G37*
G36*
X784559Y766248D02*
X783441D01*
X782360Y765958D01*
X781392Y765399D01*
X780601Y764608D01*
X780042Y763640D01*
X779752Y762559D01*
Y761441D01*
X780042Y760360D01*
X780601Y759392D01*
X781392Y758601D01*
X782360Y758041D01*
X783441Y757752D01*
X784559D01*
X785640Y758041D01*
X786608Y758601D01*
X787399Y759392D01*
X787958Y760360D01*
X788248Y761441D01*
Y762559D01*
X787958Y763640D01*
X787399Y764608D01*
X786608Y765399D01*
X785640Y765958D01*
X784559Y766248D01*
D02*
G37*
G36*
X355527Y764000D02*
X354473D01*
X353456Y763727D01*
X352544Y763201D01*
X351799Y762456D01*
X351273Y761544D01*
X351000Y760527D01*
Y759473D01*
X351273Y758456D01*
X351799Y757544D01*
X352544Y756799D01*
X353456Y756273D01*
X354473Y756000D01*
X355527D01*
X356544Y756273D01*
X357456Y756799D01*
X358201Y757544D01*
X358727Y758456D01*
X359000Y759473D01*
Y760527D01*
X358727Y761544D01*
X358201Y762456D01*
X357456Y763201D01*
X356544Y763727D01*
X355527Y764000D01*
D02*
G37*
G36*
X345527D02*
X344473D01*
X343456Y763727D01*
X342544Y763201D01*
X341799Y762456D01*
X341273Y761544D01*
X341000Y760527D01*
Y759473D01*
X341273Y758456D01*
X341799Y757544D01*
X342544Y756799D01*
X343456Y756273D01*
X344473Y756000D01*
X345527D01*
X346544Y756273D01*
X347456Y756799D01*
X348201Y757544D01*
X348727Y758456D01*
X349000Y759473D01*
Y760527D01*
X348727Y761544D01*
X348201Y762456D01*
X347456Y763201D01*
X346544Y763727D01*
X345527Y764000D01*
D02*
G37*
G36*
X280622Y765291D02*
X279378D01*
X278158Y765049D01*
X277009Y764573D01*
X275974Y763881D01*
X275095Y763002D01*
X274404Y761968D01*
X273928Y760818D01*
X273685Y759598D01*
Y758354D01*
X273928Y757134D01*
X274404Y755985D01*
X275095Y754951D01*
X275974Y754071D01*
X277009Y753380D01*
X278158Y752904D01*
X279378Y752661D01*
X280622D01*
X281842Y752904D01*
X282991Y753380D01*
X284026Y754071D01*
X284905Y754951D01*
X285596Y755985D01*
X286072Y757134D01*
X286315Y758354D01*
Y759598D01*
X286072Y760818D01*
X285596Y761968D01*
X284905Y763002D01*
X284026Y763881D01*
X282991Y764573D01*
X281842Y765049D01*
X280622Y765291D01*
D02*
G37*
G36*
X150701D02*
X149457D01*
X148237Y765049D01*
X147088Y764573D01*
X146053Y763881D01*
X145174Y763002D01*
X144483Y761968D01*
X144007Y760818D01*
X143764Y759598D01*
Y758354D01*
X144007Y757134D01*
X144483Y755985D01*
X145174Y754951D01*
X146053Y754071D01*
X147088Y753380D01*
X148237Y752904D01*
X149457Y752661D01*
X150701D01*
X151921Y752904D01*
X153070Y753380D01*
X154104Y754071D01*
X154984Y754951D01*
X155675Y755985D01*
X156151Y757134D01*
X156394Y758354D01*
Y759598D01*
X156151Y760818D01*
X155675Y761968D01*
X154984Y763002D01*
X154104Y763881D01*
X153070Y764573D01*
X151921Y765049D01*
X150701Y765291D01*
D02*
G37*
G36*
X794417Y755165D02*
X793583D01*
X792778Y754950D01*
X792056Y754533D01*
X791467Y753944D01*
X791050Y753222D01*
X790835Y752417D01*
Y751583D01*
X791050Y750778D01*
X791467Y750056D01*
X792056Y749467D01*
X792778Y749050D01*
X793583Y748835D01*
X794417D01*
X795222Y749050D01*
X795944Y749467D01*
X796533Y750056D01*
X796950Y750778D01*
X797165Y751583D01*
Y752417D01*
X796950Y753222D01*
X796533Y753944D01*
X795944Y754533D01*
X795222Y754950D01*
X794417Y755165D01*
D02*
G37*
G36*
X754215Y757429D02*
X752785D01*
X751404Y757059D01*
X750166Y756344D01*
X749156Y755334D01*
X748441Y754096D01*
X748071Y752715D01*
Y751285D01*
X748441Y749904D01*
X749156Y748666D01*
X750166Y747656D01*
X751404Y746941D01*
X752785Y746571D01*
X754215D01*
X755596Y746941D01*
X756834Y747656D01*
X757844Y748666D01*
X758559Y749904D01*
X758929Y751285D01*
Y752715D01*
X758559Y754096D01*
X757844Y755334D01*
X756834Y756344D01*
X755596Y757059D01*
X754215Y757429D01*
D02*
G37*
G36*
X665238D02*
X663809D01*
X662428Y757059D01*
X661190Y756344D01*
X660179Y755334D01*
X659465Y754096D01*
X659094Y752715D01*
Y751285D01*
X659465Y749904D01*
X660179Y748666D01*
X661190Y747656D01*
X662428Y746941D01*
X663809Y746571D01*
X665238D01*
X666619Y746941D01*
X667857Y747656D01*
X668868Y748666D01*
X669583Y749904D01*
X669953Y751285D01*
Y752715D01*
X669583Y754096D01*
X668868Y755334D01*
X667857Y756344D01*
X666619Y757059D01*
X665238Y757429D01*
D02*
G37*
G36*
X355527Y754000D02*
X354473D01*
X353456Y753727D01*
X352544Y753201D01*
X351799Y752456D01*
X351273Y751544D01*
X351000Y750527D01*
Y749473D01*
X351273Y748456D01*
X351799Y747544D01*
X352544Y746799D01*
X353456Y746273D01*
X354473Y746000D01*
X355527D01*
X356544Y746273D01*
X357456Y746799D01*
X358201Y747544D01*
X358727Y748456D01*
X359000Y749473D01*
Y750527D01*
X358727Y751544D01*
X358201Y752456D01*
X357456Y753201D01*
X356544Y753727D01*
X355527Y754000D01*
D02*
G37*
G36*
X345527D02*
X344473D01*
X343456Y753727D01*
X342544Y753201D01*
X341799Y752456D01*
X341273Y751544D01*
X341000Y750527D01*
Y749473D01*
X341273Y748456D01*
X341799Y747544D01*
X342544Y746799D01*
X343456Y746273D01*
X344473Y746000D01*
X345527D01*
X346544Y746273D01*
X347456Y746799D01*
X348201Y747544D01*
X348727Y748456D01*
X349000Y749473D01*
Y750527D01*
X348727Y751544D01*
X348201Y752456D01*
X347456Y753201D01*
X346544Y753727D01*
X345527Y754000D01*
D02*
G37*
G36*
X313000Y741020D02*
X300525D01*
X300492Y741013D01*
X300458Y741017D01*
X300298Y740974D01*
X300135Y740942D01*
X300107Y740923D01*
X300074Y740914D01*
X299942Y740813D01*
X299804Y740721D01*
X299786Y740693D01*
X299759Y740672D01*
X299537Y740419D01*
X299462Y740288D01*
X299374Y740166D01*
X299038Y739419D01*
X299034Y739403D01*
X299025Y739390D01*
X298989Y739210D01*
X298948Y739031D01*
X298951Y739016D01*
X298948Y739000D01*
X298983Y738820D01*
X299013Y738639D01*
X299022Y738625D01*
X299025Y738610D01*
X299180Y738235D01*
Y737765D01*
X299001Y737331D01*
X298669Y736999D01*
X298235Y736820D01*
X297765D01*
X297331Y736999D01*
X296999Y737331D01*
X296820Y737765D01*
Y738235D01*
X296975Y738610D01*
X296978Y738625D01*
X296987Y738639D01*
X297017Y738820D01*
X297053Y739000D01*
X297049Y739016D01*
X297052Y739031D01*
X297011Y739210D01*
X296975Y739390D01*
X296966Y739403D01*
X296962Y739419D01*
X296626Y740166D01*
X296538Y740288D01*
X296463Y740419D01*
X296241Y740672D01*
X296214Y740693D01*
X296196Y740721D01*
X296058Y740813D01*
X295926Y740914D01*
X295893Y740923D01*
X295865Y740942D01*
X295702Y740974D01*
X295542Y741017D01*
X295508Y741013D01*
X295475Y741020D01*
X279500D01*
X279110Y740942D01*
X278779Y740721D01*
X251579Y713521D01*
X251358Y713190D01*
X251280Y712800D01*
Y700000D01*
X251358Y699610D01*
X251579Y699279D01*
X251910Y699058D01*
X252300Y698980D01*
X266500D01*
X266890Y699058D01*
X267221Y699279D01*
X289422Y721480D01*
X292004D01*
X292500Y720738D01*
Y719862D01*
X292835Y719054D01*
X293454Y718435D01*
X294262Y718100D01*
X295138D01*
X295946Y718435D01*
X296565Y719054D01*
X296865Y719779D01*
X297275Y719973D01*
X297900Y720158D01*
X306689Y711369D01*
X306836Y711271D01*
X306978Y711166D01*
X307001Y711161D01*
X307020Y711148D01*
X307127Y711127D01*
X307148Y711020D01*
X307161Y711001D01*
X307166Y710978D01*
X307271Y710836D01*
X307369Y710689D01*
X311980Y706078D01*
Y644000D01*
X312058Y643610D01*
X312279Y643279D01*
X329779Y625779D01*
X330110Y625558D01*
X330500Y625480D01*
X348500D01*
X348890Y625558D01*
X349221Y625779D01*
X349442Y626110D01*
X349520Y626500D01*
Y644000D01*
X349442Y644390D01*
X349221Y644721D01*
X347420Y646522D01*
X347456Y646799D01*
X348201Y647544D01*
X348727Y648456D01*
X349000Y649473D01*
Y650527D01*
X348727Y651544D01*
X348201Y652456D01*
X347456Y653201D01*
X346544Y653727D01*
X345527Y654000D01*
X344473D01*
X343456Y653727D01*
X342544Y653201D01*
X341799Y652456D01*
X341522Y652420D01*
X337520Y656422D01*
Y716500D01*
X337442Y716890D01*
X337221Y717221D01*
X313721Y740721D01*
X313390Y740942D01*
X313000Y741020D01*
D02*
G37*
G36*
X355527Y744000D02*
X354473D01*
X353456Y743727D01*
X352544Y743201D01*
X351799Y742456D01*
X351273Y741544D01*
X351000Y740527D01*
Y739473D01*
X351273Y738456D01*
X351799Y737544D01*
X352544Y736799D01*
X353456Y736273D01*
X354473Y736000D01*
X355527D01*
X356544Y736273D01*
X357456Y736799D01*
X358201Y737544D01*
X358727Y738456D01*
X359000Y739473D01*
Y740527D01*
X358727Y741544D01*
X358201Y742456D01*
X357456Y743201D01*
X356544Y743727D01*
X355527Y744000D01*
D02*
G37*
G36*
X345527D02*
X344473D01*
X343456Y743727D01*
X342544Y743201D01*
X341799Y742456D01*
X341273Y741544D01*
X341000Y740527D01*
Y739473D01*
X341273Y738456D01*
X341799Y737544D01*
X342544Y736799D01*
X343456Y736273D01*
X344473Y736000D01*
X345527D01*
X346544Y736273D01*
X347456Y736799D01*
X348201Y737544D01*
X348727Y738456D01*
X349000Y739473D01*
Y740527D01*
X348727Y741544D01*
X348201Y742456D01*
X347456Y743201D01*
X346544Y743727D01*
X345527Y744000D01*
D02*
G37*
G36*
X355527Y734000D02*
X354473D01*
X353456Y733727D01*
X352544Y733201D01*
X351799Y732456D01*
X351273Y731544D01*
X351000Y730527D01*
Y729473D01*
X351273Y728456D01*
X351799Y727544D01*
X352544Y726799D01*
X353456Y726273D01*
X354473Y726000D01*
X355527D01*
X356544Y726273D01*
X357456Y726799D01*
X358201Y727544D01*
X358727Y728456D01*
X359000Y729473D01*
Y730527D01*
X358727Y731544D01*
X358201Y732456D01*
X357456Y733201D01*
X356544Y733727D01*
X355527Y734000D01*
D02*
G37*
G36*
X345527D02*
X344473D01*
X343456Y733727D01*
X342544Y733201D01*
X341799Y732456D01*
X341273Y731544D01*
X341000Y730527D01*
Y729473D01*
X341273Y728456D01*
X341799Y727544D01*
X342544Y726799D01*
X343456Y726273D01*
X344473Y726000D01*
X345527D01*
X346544Y726273D01*
X347456Y726799D01*
X348201Y727544D01*
X348727Y728456D01*
X349000Y729473D01*
Y730527D01*
X348727Y731544D01*
X348201Y732456D01*
X347456Y733201D01*
X346544Y733727D01*
X345527Y734000D01*
D02*
G37*
G36*
X355527Y724000D02*
X354473D01*
X353456Y723727D01*
X352544Y723201D01*
X351799Y722456D01*
X351273Y721544D01*
X351000Y720527D01*
Y719473D01*
X351273Y718456D01*
X351799Y717544D01*
X352544Y716799D01*
X353456Y716273D01*
X354473Y716000D01*
X355527D01*
X356544Y716273D01*
X357456Y716799D01*
X358201Y717544D01*
X358727Y718456D01*
X359000Y719473D01*
Y720527D01*
X358727Y721544D01*
X358201Y722456D01*
X357456Y723201D01*
X356544Y723727D01*
X355527Y724000D01*
D02*
G37*
G36*
X345527D02*
X344473D01*
X343456Y723727D01*
X342544Y723201D01*
X341799Y722456D01*
X341273Y721544D01*
X341000Y720527D01*
Y719473D01*
X341273Y718456D01*
X341799Y717544D01*
X342544Y716799D01*
X343456Y716273D01*
X344473Y716000D01*
X345527D01*
X346544Y716273D01*
X347456Y716799D01*
X348201Y717544D01*
X348727Y718456D01*
X349000Y719473D01*
Y720527D01*
X348727Y721544D01*
X348201Y722456D01*
X347456Y723201D01*
X346544Y723727D01*
X345527Y724000D01*
D02*
G37*
G36*
X794417Y717165D02*
X793583D01*
X792778Y716950D01*
X792056Y716533D01*
X791467Y715944D01*
X791050Y715222D01*
X790835Y714417D01*
Y713583D01*
X791050Y712778D01*
X791467Y712056D01*
X792056Y711467D01*
X792778Y711050D01*
X793583Y710835D01*
X794417D01*
X795222Y711050D01*
X795944Y711467D01*
X796533Y712056D01*
X796950Y712778D01*
X797165Y713583D01*
Y714417D01*
X796950Y715222D01*
X796533Y715944D01*
X795944Y716533D01*
X795222Y716950D01*
X794417Y717165D01*
D02*
G37*
G36*
X784559Y718248D02*
X783441D01*
X782360Y717958D01*
X781392Y717399D01*
X780601Y716608D01*
X780042Y715640D01*
X779752Y714559D01*
Y713441D01*
X780042Y712360D01*
X780601Y711392D01*
X781392Y710601D01*
X782360Y710042D01*
X783441Y709752D01*
X784559D01*
X785640Y710042D01*
X786608Y710601D01*
X787399Y711392D01*
X787958Y712360D01*
X788248Y713441D01*
Y714559D01*
X787958Y715640D01*
X787399Y716608D01*
X786608Y717399D01*
X785640Y717958D01*
X784559Y718248D01*
D02*
G37*
G36*
X293938Y715200D02*
X293062D01*
X292254Y714865D01*
X291635Y714246D01*
X291300Y713438D01*
Y712562D01*
X291635Y711754D01*
X292039Y711350D01*
X291735Y711046D01*
X291400Y710238D01*
Y709362D01*
X291553Y708992D01*
X291539Y708899D01*
X290968Y708028D01*
X290956Y708020D01*
X287037D01*
X286399Y709020D01*
X286500Y709262D01*
Y710138D01*
X286165Y710946D01*
X285546Y711565D01*
X284738Y711900D01*
X283862D01*
X283054Y711565D01*
X282435Y710946D01*
X282100Y710138D01*
Y709262D01*
X282201Y709020D01*
X281563Y708020D01*
X279000D01*
X278610Y707942D01*
X278279Y707721D01*
X278058Y707390D01*
X277980Y707000D01*
X277980Y696333D01*
X277984Y696315D01*
X277981Y696297D01*
X278023Y696121D01*
X278058Y695943D01*
X278068Y695927D01*
X278072Y695910D01*
X278178Y695763D01*
X278279Y695612D01*
X278294Y695602D01*
X278305Y695587D01*
X279305Y694654D01*
X279459Y694559D01*
X279610Y694458D01*
X279627Y694454D01*
X279643Y694445D01*
X279702Y694435D01*
X280269Y694201D01*
X280744Y693725D01*
X280876Y693637D01*
X281001Y693538D01*
X281041Y693527D01*
X281075Y693504D01*
X281231Y693473D01*
X281384Y693430D01*
X282328Y693354D01*
X282368Y693359D01*
X282409Y693351D01*
X282565Y693382D01*
X282723Y693401D01*
X282759Y693421D01*
X282799Y693429D01*
X283165Y693580D01*
X283635D01*
X284069Y693401D01*
X284401Y693069D01*
X284580Y692635D01*
Y692165D01*
X284401Y691731D01*
X283925Y691256D01*
X283847Y691139D01*
X283756Y691032D01*
X283737Y690975D01*
X283704Y690925D01*
X283677Y690787D01*
X283633Y690653D01*
X283638Y690593D01*
X283627Y690535D01*
X283654Y690397D01*
X283665Y690257D01*
X283693Y690203D01*
X283704Y690145D01*
X283783Y690028D01*
X283847Y689902D01*
X284111Y689568D01*
X284157Y689529D01*
X284190Y689479D01*
X284301Y689369D01*
X284480Y688935D01*
Y688465D01*
X284301Y688031D01*
X283969Y687699D01*
X283535Y687520D01*
X283065D01*
X282631Y687699D01*
X282563Y687768D01*
X282469Y687831D01*
X282386Y687909D01*
X282305Y687940D01*
X282232Y687989D01*
X282121Y688011D01*
X282015Y688052D01*
X281449Y688149D01*
X281406Y688148D01*
X281366Y688160D01*
X281209Y688142D01*
X281051Y688138D01*
X281012Y688121D01*
X280971Y688117D01*
X280360Y687925D01*
X280241Y687860D01*
X280115Y687810D01*
X280068Y687765D01*
X280011Y687734D01*
X279926Y687628D01*
X279828Y687534D01*
X279802Y687475D01*
X279762Y687424D01*
X279724Y687294D01*
X279669Y687169D01*
X279469Y686251D01*
X279467Y686142D01*
X279446Y686034D01*
X279464Y685945D01*
X279462Y685854D01*
X279502Y685752D01*
X279524Y685644D01*
X279574Y685568D01*
X279608Y685483D01*
X279684Y685404D01*
X279745Y685313D01*
X284980Y680078D01*
Y670167D01*
X283980Y669968D01*
X283865Y670246D01*
X283246Y670865D01*
X282438Y671200D01*
X281562D01*
X280754Y670865D01*
X280135Y670246D01*
X279800Y669438D01*
Y668562D01*
X280135Y667754D01*
X280754Y667135D01*
X281562Y666800D01*
X282438D01*
X283246Y667135D01*
X283865Y667754D01*
X283980Y668032D01*
X284980Y667833D01*
Y658167D01*
X283980Y657968D01*
X283865Y658246D01*
X283246Y658865D01*
X282438Y659200D01*
X281562D01*
X280754Y658865D01*
X280135Y658246D01*
X279800Y657438D01*
Y656562D01*
X280135Y655754D01*
X280754Y655135D01*
X281562Y654800D01*
X282438D01*
X283246Y655135D01*
X283865Y655754D01*
X283980Y656032D01*
X284980Y655833D01*
Y655611D01*
X285058Y655221D01*
X285158Y655071D01*
X285380Y654535D01*
Y654065D01*
X285158Y653529D01*
X285058Y653379D01*
X284980Y652989D01*
Y646167D01*
X283980Y645968D01*
X283865Y646246D01*
X283246Y646865D01*
X282438Y647200D01*
X281562D01*
X280754Y646865D01*
X280135Y646246D01*
X279800Y645438D01*
Y644562D01*
X280135Y643754D01*
X280754Y643135D01*
X281562Y642800D01*
X282438D01*
X283246Y643135D01*
X283865Y643754D01*
X283980Y644032D01*
X284980Y643833D01*
Y613922D01*
X278078Y607020D01*
X247576D01*
X247477Y607000D01*
X247377D01*
X247284Y606962D01*
X247186Y606942D01*
X247102Y606886D01*
X247009Y606848D01*
X246938Y606777D01*
X246855Y606721D01*
X246799Y606637D01*
X246728Y606566D01*
X246352Y606004D01*
X246314Y605911D01*
X246258Y605828D01*
X246238Y605729D01*
X246200Y605637D01*
Y605536D01*
X246180Y605438D01*
Y604765D01*
X246001Y604331D01*
X245669Y603999D01*
X245235Y603820D01*
X244765D01*
X244331Y603999D01*
X243999Y604331D01*
X243820Y604765D01*
Y605438D01*
X243800Y605536D01*
Y605637D01*
X243762Y605729D01*
X243742Y605828D01*
X243686Y605911D01*
X243648Y606004D01*
X243272Y606566D01*
X243201Y606637D01*
X243145Y606721D01*
X243062Y606777D01*
X242991Y606848D01*
X242898Y606886D01*
X242814Y606942D01*
X242716Y606962D01*
X242623Y607000D01*
X242523D01*
X242424Y607020D01*
X157500D01*
X157110Y606942D01*
X156779Y606721D01*
X125133Y575074D01*
X124912Y574744D01*
X124834Y574354D01*
X123980Y574000D01*
X120000D01*
Y569020D01*
X119888Y568997D01*
X119775Y568994D01*
X119695Y568959D01*
X119610Y568942D01*
X119515Y568879D01*
X119411Y568832D01*
X119351Y568769D01*
X119279Y568721D01*
X119216Y568626D01*
X119138Y568544D01*
X118638Y567751D01*
X118606Y567670D01*
X118558Y567597D01*
X118536Y567486D01*
X118495Y567380D01*
X118497Y567292D01*
X118480Y567207D01*
Y562000D01*
X118558Y561610D01*
X118779Y561279D01*
X119110Y561058D01*
X119500Y560980D01*
X139000D01*
X139390Y561058D01*
X139721Y561279D01*
X144484Y566042D01*
X145174Y565974D01*
X146053Y565095D01*
X147088Y564404D01*
X148237Y563928D01*
X149457Y563685D01*
X150701D01*
X151921Y563928D01*
X153070Y564404D01*
X154104Y565095D01*
X154984Y565974D01*
X155675Y567009D01*
X156151Y568158D01*
X156394Y569378D01*
Y570622D01*
X156151Y571842D01*
X155675Y572991D01*
X154984Y574026D01*
X154433Y574577D01*
X154276Y575834D01*
X162422Y583980D01*
X242800D01*
X243190Y584058D01*
X243521Y584279D01*
X243742Y584610D01*
X243820Y585000D01*
Y585235D01*
X243999Y585669D01*
X244331Y586001D01*
X244765Y586180D01*
X245235D01*
X245669Y586001D01*
X246001Y585669D01*
X246180Y585235D01*
Y585000D01*
X246258Y584610D01*
X246479Y584279D01*
X246810Y584058D01*
X247200Y583980D01*
X309219D01*
X312850Y580350D01*
X317980Y575219D01*
Y557000D01*
X318058Y556610D01*
X318279Y556279D01*
X328279Y546279D01*
X328610Y546058D01*
X329000Y545980D01*
X354000D01*
X354390Y546058D01*
X354721Y546279D01*
X354942Y546610D01*
X355020Y547000D01*
Y551000D01*
X360000D01*
Y557000D01*
X355020D01*
Y557500D01*
X354942Y557890D01*
X354721Y558221D01*
X352823Y560118D01*
X350020Y562922D01*
Y566993D01*
X350002Y567084D01*
X350003Y567177D01*
X349963Y567277D01*
X349942Y567383D01*
X349890Y567460D01*
X349856Y567547D01*
X349781Y567624D01*
X349721Y567714D01*
X349644Y567765D01*
X349579Y567832D01*
X349415Y567945D01*
X349262Y568011D01*
X349115Y568086D01*
X348278Y568324D01*
X348138Y568335D01*
X348000Y568363D01*
X347941Y568351D01*
X347882Y568356D01*
X347748Y568313D01*
X347610Y568285D01*
X347560Y568252D01*
X347503Y568234D01*
X347396Y568142D01*
X347279Y568064D01*
X346830Y567615D01*
X346150Y567223D01*
X345392Y567020D01*
X344608D01*
X343850Y567223D01*
X343170Y567615D01*
X342615Y568170D01*
X342223Y568850D01*
X342020Y569608D01*
Y570392D01*
X342223Y571150D01*
X342615Y571830D01*
X343170Y572385D01*
X343850Y572777D01*
X344608Y572980D01*
X345392D01*
X346150Y572777D01*
X346830Y572385D01*
X347279Y571936D01*
X347396Y571858D01*
X347503Y571766D01*
X347560Y571748D01*
X347610Y571715D01*
X347748Y571687D01*
X347882Y571644D01*
X347941Y571649D01*
X348000Y571637D01*
X348138Y571665D01*
X348278Y571676D01*
X349115Y571913D01*
X349262Y571989D01*
X349415Y572055D01*
X349579Y572168D01*
X349644Y572235D01*
X349721Y572286D01*
X349781Y572376D01*
X349856Y572453D01*
X349890Y572540D01*
X349942Y572617D01*
X349963Y572723D01*
X350003Y572823D01*
X350002Y572916D01*
X350020Y573007D01*
Y579426D01*
X351000Y579473D01*
X351273Y578456D01*
X351799Y577544D01*
X352544Y576799D01*
X353456Y576273D01*
X354473Y576000D01*
X355527D01*
X356544Y576273D01*
X357456Y576799D01*
X358201Y577544D01*
X358727Y578456D01*
X359000Y579473D01*
Y580527D01*
X358727Y581544D01*
X358201Y582456D01*
X357456Y583201D01*
X356544Y583727D01*
X355527Y584000D01*
X354473D01*
X353456Y583727D01*
X352544Y583201D01*
X351799Y582456D01*
X351273Y581544D01*
X351000Y580527D01*
X350020Y580574D01*
Y589426D01*
X351000Y589473D01*
X351273Y588456D01*
X351799Y587544D01*
X352544Y586799D01*
X353456Y586273D01*
X354473Y586000D01*
X355527D01*
X356544Y586273D01*
X357456Y586799D01*
X358201Y587544D01*
X358727Y588456D01*
X359000Y589473D01*
Y590527D01*
X358727Y591544D01*
X358201Y592456D01*
X357456Y593201D01*
X356544Y593727D01*
X355527Y594000D01*
X354473D01*
X353456Y593727D01*
X352544Y593201D01*
X351799Y592456D01*
X351273Y591544D01*
X351000Y590527D01*
X350020Y590574D01*
Y592500D01*
X349942Y592890D01*
X349721Y593221D01*
X347204Y595738D01*
X347335Y596729D01*
X347456Y596799D01*
X348201Y597544D01*
X348727Y598456D01*
X349000Y599473D01*
Y600527D01*
X348727Y601544D01*
X348201Y602456D01*
X347456Y603201D01*
X346544Y603727D01*
X345527Y604000D01*
X344473D01*
X343456Y603727D01*
X342544Y603201D01*
X341799Y602456D01*
X341729Y602335D01*
X340738Y602204D01*
X308020Y634922D01*
Y700500D01*
X307942Y700890D01*
X307721Y701221D01*
X301221Y707721D01*
X300890Y707942D01*
X300500Y708020D01*
X296244D01*
X296232Y708028D01*
X295661Y708899D01*
X295647Y708992D01*
X295800Y709362D01*
Y710238D01*
X295465Y711046D01*
X295061Y711450D01*
X295365Y711754D01*
X295700Y712562D01*
Y713438D01*
X295365Y714246D01*
X294746Y714865D01*
X293938Y715200D01*
D02*
G37*
G36*
X355527Y714000D02*
X354473D01*
X353456Y713727D01*
X352544Y713201D01*
X351799Y712456D01*
X351273Y711544D01*
X351000Y710527D01*
Y709473D01*
X351273Y708456D01*
X351799Y707544D01*
X352544Y706799D01*
X353456Y706273D01*
X354473Y706000D01*
X355527D01*
X356544Y706273D01*
X357456Y706799D01*
X358201Y707544D01*
X358727Y708456D01*
X359000Y709473D01*
Y710527D01*
X358727Y711544D01*
X358201Y712456D01*
X357456Y713201D01*
X356544Y713727D01*
X355527Y714000D01*
D02*
G37*
G36*
X345527D02*
X344473D01*
X343456Y713727D01*
X342544Y713201D01*
X341799Y712456D01*
X341273Y711544D01*
X341000Y710527D01*
Y709473D01*
X341273Y708456D01*
X341799Y707544D01*
X342544Y706799D01*
X343456Y706273D01*
X344473Y706000D01*
X345527D01*
X346544Y706273D01*
X347456Y706799D01*
X348201Y707544D01*
X348727Y708456D01*
X349000Y709473D01*
Y710527D01*
X348727Y711544D01*
X348201Y712456D01*
X347456Y713201D01*
X346544Y713727D01*
X345527Y714000D01*
D02*
G37*
G36*
X794417Y707165D02*
X793583D01*
X792778Y706950D01*
X792056Y706533D01*
X791467Y705944D01*
X791050Y705222D01*
X790835Y704417D01*
Y703583D01*
X791050Y702778D01*
X791467Y702056D01*
X792056Y701467D01*
X792778Y701050D01*
X793583Y700835D01*
X794417D01*
X795222Y701050D01*
X795944Y701467D01*
X796533Y702056D01*
X796950Y702778D01*
X797165Y703583D01*
Y704417D01*
X796950Y705222D01*
X796533Y705944D01*
X795944Y706533D01*
X795222Y706950D01*
X794417Y707165D01*
D02*
G37*
G36*
X753715Y708929D02*
X752285D01*
X750904Y708559D01*
X749666Y707844D01*
X748656Y706834D01*
X747941Y705596D01*
X747571Y704215D01*
Y702785D01*
X747941Y701404D01*
X748656Y700166D01*
X749666Y699156D01*
X750904Y698441D01*
X752285Y698071D01*
X753715D01*
X755096Y698441D01*
X756334Y699156D01*
X757344Y700166D01*
X758059Y701404D01*
X758429Y702785D01*
Y704215D01*
X758059Y705596D01*
X757344Y706834D01*
X756334Y707844D01*
X755096Y708559D01*
X753715Y708929D01*
D02*
G37*
G36*
X664738D02*
X663309D01*
X661928Y708559D01*
X660690Y707844D01*
X659679Y706834D01*
X658964Y705596D01*
X658595Y704215D01*
Y702785D01*
X658964Y701404D01*
X659679Y700166D01*
X660690Y699156D01*
X661928Y698441D01*
X663309Y698071D01*
X664738D01*
X666119Y698441D01*
X667357Y699156D01*
X668368Y700166D01*
X669083Y701404D01*
X669453Y702785D01*
Y704215D01*
X669083Y705596D01*
X668368Y706834D01*
X667357Y707844D01*
X666119Y708559D01*
X664738Y708929D01*
D02*
G37*
G36*
X355527Y704000D02*
X354473D01*
X353456Y703727D01*
X352544Y703201D01*
X351799Y702456D01*
X351273Y701544D01*
X351000Y700527D01*
Y699473D01*
X351273Y698456D01*
X351799Y697544D01*
X352544Y696799D01*
X353456Y696273D01*
X354473Y696000D01*
X355527D01*
X356544Y696273D01*
X357456Y696799D01*
X358201Y697544D01*
X358727Y698456D01*
X359000Y699473D01*
Y700527D01*
X358727Y701544D01*
X358201Y702456D01*
X357456Y703201D01*
X356544Y703727D01*
X355527Y704000D01*
D02*
G37*
G36*
X345527D02*
X344473D01*
X343456Y703727D01*
X342544Y703201D01*
X341799Y702456D01*
X341273Y701544D01*
X341000Y700527D01*
Y699473D01*
X341273Y698456D01*
X341799Y697544D01*
X342544Y696799D01*
X343456Y696273D01*
X344473Y696000D01*
X345527D01*
X346544Y696273D01*
X347456Y696799D01*
X348201Y697544D01*
X348727Y698456D01*
X349000Y699473D01*
Y700527D01*
X348727Y701544D01*
X348201Y702456D01*
X347456Y703201D01*
X346544Y703727D01*
X345527Y704000D01*
D02*
G37*
G36*
X270938Y699200D02*
X270062D01*
X269254Y698865D01*
X268635Y698246D01*
X268300Y697438D01*
Y696562D01*
X268635Y695754D01*
X268989Y695400D01*
X268635Y695046D01*
X268300Y694238D01*
Y693362D01*
X268635Y692554D01*
X269254Y691935D01*
X270062Y691600D01*
X270938D01*
X271746Y691935D01*
X272365Y692554D01*
X272700Y693362D01*
Y694238D01*
X272365Y695046D01*
X272011Y695400D01*
X272365Y695754D01*
X272700Y696562D01*
Y697438D01*
X272365Y698246D01*
X271746Y698865D01*
X270938Y699200D01*
D02*
G37*
G36*
X355527Y694000D02*
X354473D01*
X353456Y693727D01*
X352544Y693201D01*
X351799Y692456D01*
X351273Y691544D01*
X351000Y690527D01*
Y689473D01*
X351273Y688456D01*
X351799Y687544D01*
X352544Y686799D01*
X353456Y686273D01*
X354473Y686000D01*
X355527D01*
X356544Y686273D01*
X357456Y686799D01*
X358201Y687544D01*
X358727Y688456D01*
X359000Y689473D01*
Y690527D01*
X358727Y691544D01*
X358201Y692456D01*
X357456Y693201D01*
X356544Y693727D01*
X355527Y694000D01*
D02*
G37*
G36*
X345527D02*
X344473D01*
X343456Y693727D01*
X342544Y693201D01*
X341799Y692456D01*
X341273Y691544D01*
X341000Y690527D01*
Y689473D01*
X341273Y688456D01*
X341799Y687544D01*
X342544Y686799D01*
X343456Y686273D01*
X344473Y686000D01*
X345527D01*
X346544Y686273D01*
X347456Y686799D01*
X348201Y687544D01*
X348727Y688456D01*
X349000Y689473D01*
Y690527D01*
X348727Y691544D01*
X348201Y692456D01*
X347456Y693201D01*
X346544Y693727D01*
X345527Y694000D01*
D02*
G37*
G36*
X355527Y684000D02*
X354473D01*
X353456Y683727D01*
X352544Y683201D01*
X351799Y682456D01*
X351273Y681544D01*
X351000Y680527D01*
Y679473D01*
X351273Y678456D01*
X351799Y677544D01*
X352544Y676799D01*
X353456Y676273D01*
X354473Y676000D01*
X355527D01*
X356544Y676273D01*
X357456Y676799D01*
X358201Y677544D01*
X358727Y678456D01*
X359000Y679473D01*
Y680527D01*
X358727Y681544D01*
X358201Y682456D01*
X357456Y683201D01*
X356544Y683727D01*
X355527Y684000D01*
D02*
G37*
G36*
X345527D02*
X344473D01*
X343456Y683727D01*
X342544Y683201D01*
X341799Y682456D01*
X341273Y681544D01*
X341000Y680527D01*
Y679473D01*
X341273Y678456D01*
X341799Y677544D01*
X342544Y676799D01*
X343456Y676273D01*
X344473Y676000D01*
X345527D01*
X346544Y676273D01*
X347456Y676799D01*
X348201Y677544D01*
X348727Y678456D01*
X349000Y679473D01*
Y680527D01*
X348727Y681544D01*
X348201Y682456D01*
X347456Y683201D01*
X346544Y683727D01*
X345527Y684000D01*
D02*
G37*
G36*
X267638Y688600D02*
X266762D01*
X265954Y688265D01*
X265335Y687646D01*
X265000Y686838D01*
Y685962D01*
X265335Y685154D01*
X265739Y684750D01*
X265135Y684146D01*
X264800Y683338D01*
Y682462D01*
X265135Y681654D01*
X265335Y681453D01*
X265739Y681004D01*
X265335Y680147D01*
X265335Y680146D01*
X265000Y679338D01*
Y678462D01*
X265335Y677654D01*
X265954Y677035D01*
X265661Y676572D01*
X265535Y676446D01*
X265200Y675638D01*
Y674762D01*
X265535Y673954D01*
X266154Y673335D01*
X266962Y673000D01*
X267838D01*
X268646Y673335D01*
X269265Y673954D01*
X269600Y674762D01*
Y675638D01*
X269265Y676446D01*
X268646Y677065D01*
X268939Y677528D01*
X269065Y677654D01*
X269400Y678462D01*
Y679338D01*
X269065Y680146D01*
X268865Y680347D01*
X268461Y680796D01*
X268865Y681653D01*
X268865Y681654D01*
X269200Y682462D01*
Y683338D01*
X268865Y684146D01*
X268461Y684550D01*
X269065Y685154D01*
X269400Y685962D01*
Y686838D01*
X269065Y687646D01*
X268446Y688265D01*
X267638Y688600D01*
D02*
G37*
G36*
X677879Y675030D02*
X677798Y675020D01*
X659676D01*
X659285Y674942D01*
X658954Y674721D01*
X658734Y674390D01*
X658319Y673390D01*
X658242Y673000D01*
X658319Y672610D01*
X658540Y672279D01*
X658651Y672169D01*
X658830Y671735D01*
Y671265D01*
X658651Y670831D01*
X658319Y670499D01*
X657738Y670259D01*
X657654Y670203D01*
X657618Y670188D01*
X657567Y670219D01*
X657419Y670318D01*
X656981Y670499D01*
X656649Y670831D01*
X656470Y671265D01*
Y671735D01*
X656649Y672169D01*
X656760Y672279D01*
X656981Y672610D01*
X657058Y673000D01*
X656981Y673390D01*
X656981Y673390D01*
X656566Y674390D01*
X656346Y674721D01*
X656015Y674942D01*
X655624Y675020D01*
X634000D01*
X634000Y675020D01*
X598684Y675020D01*
X573100D01*
X573002Y675000D01*
X572901Y675000D01*
X572809Y674981D01*
X572716Y674943D01*
X572710Y674942D01*
X572705Y674939D01*
X572544Y674872D01*
X572539Y674871D01*
X572534Y674868D01*
X572441Y674829D01*
X572363Y674777D01*
X572292Y674706D01*
X572208Y674650D01*
X406778Y509220D01*
X332800Y509220D01*
X269875D01*
X269777Y509200D01*
X269676D01*
X269584Y509162D01*
X269485Y509142D01*
X269402Y509086D01*
X269309Y509048D01*
X269238Y508977D01*
X269154Y508921D01*
X269099Y508838D01*
X269028Y508767D01*
X268852Y508504D01*
X268814Y508411D01*
X268758Y508328D01*
X268738Y508229D01*
X268700Y508137D01*
Y508036D01*
X268680Y507938D01*
Y507265D01*
X268501Y506831D01*
X268169Y506499D01*
X267735Y506320D01*
X267265D01*
X266831Y506499D01*
X266499Y506831D01*
X266320Y507265D01*
Y507938D01*
X266300Y508036D01*
Y508137D01*
X266262Y508229D01*
X266242Y508328D01*
X266186Y508411D01*
X266148Y508504D01*
X265972Y508766D01*
X265901Y508838D01*
X265846Y508921D01*
X265762Y508977D01*
X265691Y509048D01*
X265598Y509086D01*
X265515Y509142D01*
X265416Y509162D01*
X265324Y509200D01*
X265223D01*
X265125Y509220D01*
X247730D01*
X247632Y509200D01*
X247531D01*
X247439Y509162D01*
X247340Y509142D01*
X247256Y509086D01*
X247164Y509048D01*
X247093Y508977D01*
X247009Y508921D01*
X246954Y508838D01*
X246882Y508767D01*
X246368Y507996D01*
X246329Y507903D01*
X246273Y507820D01*
X246254Y507721D01*
X246215Y507628D01*
Y507528D01*
X246196Y507429D01*
Y506757D01*
X246016Y506323D01*
X245684Y505991D01*
X245250Y505811D01*
X244780D01*
X244347Y505991D01*
X244015Y506323D01*
X243835Y506757D01*
Y507429D01*
X243815Y507528D01*
Y507628D01*
X243777Y507721D01*
X243757Y507820D01*
X243701Y507903D01*
X243663Y507996D01*
X243148Y508766D01*
X243077Y508837D01*
X243021Y508921D01*
X242938Y508977D01*
X242867Y509048D01*
X242774Y509086D01*
X242690Y509142D01*
X242592Y509162D01*
X242499Y509200D01*
X242399D01*
X242300Y509220D01*
X240700D01*
X240602Y509200D01*
X240501D01*
X240418Y509183D01*
X240325Y509145D01*
X240310Y509142D01*
X240298Y509134D01*
X240050Y509031D01*
X239769Y508750D01*
X239666Y508502D01*
X239658Y508490D01*
X239655Y508475D01*
X239617Y508382D01*
X239600Y508298D01*
Y508198D01*
X239580Y508100D01*
Y490994D01*
X239600Y490896D01*
Y490796D01*
X239617Y490712D01*
X239655Y490619D01*
X239658Y490604D01*
X239666Y490592D01*
X239769Y490344D01*
X240050Y490063D01*
X240298Y489960D01*
X240310Y489952D01*
X240325Y489949D01*
X240418Y489911D01*
X240501Y489894D01*
X240602D01*
X240700Y489874D01*
X242463D01*
X242807Y489732D01*
X243721Y489612D01*
X244634Y489732D01*
X244978Y489874D01*
X363664D01*
X363665Y489874D01*
X363665Y489874D01*
X376205Y477349D01*
X376206Y477349D01*
X390188Y463384D01*
Y381630D01*
X364578Y356020D01*
X335500Y356020D01*
X306422D01*
X289792Y372650D01*
X289708Y372706D01*
X289637Y372777D01*
X289559Y372829D01*
X289559Y372829D01*
X289466Y372868D01*
X289461Y372871D01*
X289456Y372872D01*
X289295Y372939D01*
X289290Y372942D01*
X289284Y372943D01*
X289191Y372982D01*
X289099Y373000D01*
X288998D01*
X288900Y373020D01*
X276844D01*
X276745Y373000D01*
X276645D01*
X276552Y372962D01*
X276453Y372942D01*
X276370Y372886D01*
X276277Y372848D01*
X276206Y372777D01*
X276123Y372721D01*
X276067Y372638D01*
X275996Y372566D01*
X275383Y371650D01*
X275383Y371650D01*
X275383Y371650D01*
X275328Y371566D01*
X275291Y371478D01*
X275291Y371478D01*
X275291Y371478D01*
X275291Y371477D01*
X275289Y371474D01*
X275269Y371444D01*
X275234Y371391D01*
X275234Y371391D01*
X275233Y371390D01*
X275214Y371292D01*
X275175Y371199D01*
X275175Y371099D01*
X275156Y371000D01*
X275156Y371000D01*
X275156Y371000D01*
Y371000D01*
X275157Y370995D01*
Y370325D01*
X274977Y369891D01*
X274645Y369559D01*
X274211Y369379D01*
X273742D01*
X273308Y369559D01*
X272976Y369891D01*
X272796Y370325D01*
Y370993D01*
X272797Y370998D01*
X272797Y370999D01*
X272797Y371000D01*
Y371000D01*
X272777Y371098D01*
Y371199D01*
X272739Y371291D01*
X272720Y371389D01*
X272720Y371389D01*
X272719Y371390D01*
X272664Y371474D01*
X272625Y371566D01*
X272570Y371650D01*
X272569Y371650D01*
X271957Y372566D01*
X271886Y372637D01*
X271830Y372721D01*
X271747Y372777D01*
X271676Y372848D01*
X271583Y372886D01*
X271499Y372942D01*
X271401Y372962D01*
X271308Y373000D01*
X271208D01*
X271109Y373020D01*
X263891D01*
X263792Y373000D01*
X263692D01*
X263599Y372962D01*
X263501Y372942D01*
X263417Y372886D01*
X263324Y372848D01*
X263253Y372777D01*
X263170Y372721D01*
X263114Y372638D01*
X263043Y372566D01*
X262431Y371650D01*
X262431Y371650D01*
X262431Y371650D01*
X262375Y371566D01*
X262338Y371478D01*
X262338Y371478D01*
X262338Y371478D01*
X262338Y371477D01*
X262336Y371474D01*
X262317Y371444D01*
X262281Y371391D01*
X262281Y371391D01*
X262281Y371390D01*
X262261Y371292D01*
X262223Y371199D01*
X262223Y371099D01*
X262203Y371000D01*
X262203Y371000D01*
X262203Y371000D01*
Y371000D01*
X262204Y370995D01*
Y370325D01*
X262024Y369891D01*
X261692Y369559D01*
X261258Y369379D01*
X260789D01*
X260355Y369559D01*
X260023Y369891D01*
X259843Y370325D01*
Y370993D01*
X259844Y370998D01*
X259844Y370999D01*
X259844Y371000D01*
Y371000D01*
X259825Y371098D01*
Y371199D01*
X259786Y371291D01*
X259767Y371389D01*
X259767Y371389D01*
X259767Y371390D01*
X259711Y371474D01*
X259672Y371566D01*
X259617Y371650D01*
X259617Y371650D01*
X259004Y372566D01*
X258933Y372637D01*
X258877Y372721D01*
X258794Y372777D01*
X258723Y372848D01*
X258630Y372886D01*
X258547Y372942D01*
X258448Y372962D01*
X258355Y373000D01*
X258255D01*
X258156Y373020D01*
X241844D01*
X241745Y373000D01*
X241645D01*
X241552Y372962D01*
X241453Y372942D01*
X241370Y372886D01*
X241277Y372848D01*
X241206Y372777D01*
X241123Y372721D01*
X241067Y372638D01*
X240996Y372566D01*
X240383Y371650D01*
X240383Y371650D01*
X240383Y371650D01*
X240328Y371566D01*
X240291Y371478D01*
X240291Y371478D01*
X240291Y371478D01*
X240291Y371477D01*
X240289Y371474D01*
X240269Y371444D01*
X240234Y371391D01*
X240234Y371391D01*
X240233Y371390D01*
X240214Y371292D01*
X240175Y371199D01*
X240175Y371099D01*
X240156Y371000D01*
X240156Y371000D01*
X240156Y371000D01*
Y371000D01*
X240157Y370995D01*
Y370325D01*
X239977Y369891D01*
X239645Y369559D01*
X239211Y369379D01*
X238742D01*
X238308Y369559D01*
X237976Y369891D01*
X237796Y370325D01*
Y370993D01*
X237797Y370998D01*
X237797Y370999D01*
X237797Y371000D01*
Y371000D01*
X237777Y371098D01*
Y371199D01*
X237739Y371291D01*
X237720Y371389D01*
X237719Y371389D01*
X237719Y371390D01*
X237664Y371474D01*
X237625Y371566D01*
X237570Y371650D01*
X237569Y371650D01*
X236957Y372566D01*
X236886Y372637D01*
X236830Y372721D01*
X236747Y372777D01*
X236676Y372848D01*
X236583Y372886D01*
X236499Y372942D01*
X236401Y372962D01*
X236308Y373000D01*
X236208D01*
X236109Y373020D01*
X228891D01*
X228792Y373000D01*
X228692D01*
X228599Y372962D01*
X228501Y372942D01*
X228417Y372886D01*
X228324Y372848D01*
X228253Y372777D01*
X228170Y372721D01*
X228114Y372638D01*
X228043Y372566D01*
X227431Y371650D01*
X227431Y371650D01*
X227431Y371650D01*
X227375Y371566D01*
X227338Y371478D01*
X227338Y371478D01*
X227338Y371478D01*
X227338Y371477D01*
X227336Y371474D01*
X227317Y371444D01*
X227281Y371391D01*
X227281Y371391D01*
X227281Y371390D01*
X227261Y371292D01*
X227223Y371199D01*
X227223Y371099D01*
X227203Y371000D01*
X227203Y371000D01*
X227203Y371000D01*
Y371000D01*
X227204Y370995D01*
Y370325D01*
X227024Y369891D01*
X226692Y369559D01*
X226258Y369379D01*
X225789D01*
X225355Y369559D01*
X225023Y369891D01*
X224843Y370325D01*
Y370993D01*
X224844Y370998D01*
X224844Y370999D01*
X224844Y371000D01*
Y371000D01*
X224825Y371098D01*
Y371199D01*
X224786Y371291D01*
X224767Y371389D01*
X224767Y371389D01*
X224767Y371390D01*
X224711Y371474D01*
X224672Y371566D01*
X224617Y371650D01*
X224617Y371650D01*
X224004Y372566D01*
X223933Y372637D01*
X223877Y372721D01*
X223794Y372777D01*
X223723Y372848D01*
X223630Y372886D01*
X223547Y372942D01*
X223448Y372962D01*
X223355Y373000D01*
X223255D01*
X223156Y373020D01*
X207054D01*
X207020Y373062D01*
Y406000D01*
Y413900D01*
X207000Y413998D01*
Y414099D01*
X206983Y414182D01*
X206945Y414275D01*
X206942Y414290D01*
X206934Y414302D01*
X206831Y414550D01*
X206550Y414831D01*
X206302Y414934D01*
X206290Y414942D01*
X206275Y414945D01*
X206182Y414983D01*
X206099Y415000D01*
X205998D01*
X205900Y415020D01*
X187100D01*
X187002Y415000D01*
X186901D01*
X186818Y414983D01*
X186725Y414945D01*
X186710Y414942D01*
X186698Y414934D01*
X186450Y414831D01*
X186169Y414550D01*
X186066Y414302D01*
X186058Y414290D01*
X186055Y414275D01*
X186017Y414182D01*
X186000Y414099D01*
Y413998D01*
X185980Y413900D01*
Y361100D01*
X186000Y361002D01*
X186000Y360901D01*
X186019Y360809D01*
X186057Y360716D01*
X186058Y360710D01*
X186061Y360705D01*
X186128Y360544D01*
X186129Y360539D01*
X186132Y360534D01*
X186171Y360441D01*
X186223Y360363D01*
X186294Y360292D01*
X186350Y360208D01*
X202558Y344000D01*
X168850Y310292D01*
X168794Y310209D01*
X168723Y310137D01*
X168671Y310059D01*
X168671Y310059D01*
X168632Y309966D01*
X168629Y309961D01*
X168628Y309956D01*
X168561Y309795D01*
X168558Y309790D01*
X168557Y309784D01*
X168518Y309691D01*
X168500Y309598D01*
Y309498D01*
X168480Y309400D01*
Y278100D01*
X168500Y278002D01*
Y277902D01*
X168517Y277818D01*
X168555Y277725D01*
X168558Y277710D01*
X168566Y277698D01*
X168669Y277450D01*
X168950Y277169D01*
X169198Y277066D01*
X169210Y277058D01*
X169225Y277055D01*
X169318Y277017D01*
X169402Y277000D01*
X169502D01*
X169600Y276980D01*
X176900D01*
X176998Y277000D01*
X177099D01*
X177182Y277017D01*
X177275Y277055D01*
X177290Y277058D01*
X177302Y277066D01*
X177550Y277169D01*
X177831Y277450D01*
X177934Y277698D01*
X177942Y277710D01*
X177945Y277725D01*
X177983Y277818D01*
X178000Y277902D01*
Y278002D01*
X178020Y278100D01*
Y287980D01*
X276900D01*
X276998Y288000D01*
X277098D01*
X277182Y288017D01*
X277275Y288055D01*
X277290Y288058D01*
X277302Y288066D01*
X277550Y288169D01*
X277831Y288450D01*
X277934Y288698D01*
X277942Y288710D01*
X277945Y288725D01*
X277983Y288818D01*
X278000Y288901D01*
Y289002D01*
X278020Y289100D01*
Y297900D01*
X278000Y297998D01*
Y298098D01*
X277983Y298182D01*
X277945Y298275D01*
X277942Y298290D01*
X277934Y298302D01*
X277831Y298550D01*
X277550Y298831D01*
X277302Y298934D01*
X277290Y298942D01*
X277275Y298945D01*
X277182Y298983D01*
X277098Y299000D01*
X276998D01*
X276900Y299020D01*
X182020D01*
Y305578D01*
X217422Y340980D01*
X400218D01*
X400317Y341000D01*
X400417Y341000D01*
X400510Y341019D01*
X400603Y341057D01*
X400608Y341058D01*
X400613Y341061D01*
X400774Y341128D01*
X400780Y341129D01*
X400785Y341132D01*
X400877Y341171D01*
X400956Y341223D01*
X401027Y341294D01*
X401111Y341350D01*
X407921Y348161D01*
X412402Y352641D01*
X412458Y352725D01*
X412529Y352796D01*
X412581Y352874D01*
X412619Y352967D01*
X412623Y352972D01*
X412624Y352978D01*
X412656Y353057D01*
X412690Y353137D01*
X412693Y353141D01*
X412694Y353147D01*
X412733Y353240D01*
X412752Y353333D01*
X412752Y353433D01*
X412772Y353532D01*
X413038Y481096D01*
X570825Y638883D01*
X672980D01*
Y630507D01*
X673058Y630117D01*
X673279Y629786D01*
X673610Y629565D01*
X673682Y629551D01*
X674269Y629308D01*
X674601Y628976D01*
X674780Y628542D01*
Y628072D01*
X674601Y627638D01*
X674269Y627306D01*
X673682Y627064D01*
X673610Y627049D01*
X673279Y626828D01*
X673058Y626497D01*
X672980Y626107D01*
Y607520D01*
X659418D01*
X659028Y607442D01*
X658698Y607221D01*
X658476Y606890D01*
X658408Y606724D01*
X658076Y606392D01*
X657642Y606213D01*
X657172D01*
X656738Y606392D01*
X656406Y606724D01*
X656338Y606890D01*
X656117Y607221D01*
X655786Y607442D01*
X655396Y607520D01*
X649045D01*
X648631Y608520D01*
X648865Y608754D01*
X649200Y609562D01*
Y610438D01*
X648865Y611246D01*
X648246Y611865D01*
X647438Y612200D01*
X646562D01*
X645754Y611865D01*
X645135Y611246D01*
X644800Y610438D01*
Y609562D01*
X645135Y608754D01*
X645369Y608520D01*
X644955Y607520D01*
X634000D01*
X633610Y607442D01*
X633279Y607221D01*
X633058Y606890D01*
X632980Y606500D01*
Y588000D01*
X633058Y587610D01*
X633279Y587279D01*
X633610Y587058D01*
X634000Y586980D01*
X655780D01*
X656171Y587058D01*
X656501Y587279D01*
X656722Y587610D01*
X656800Y588000D01*
Y588594D01*
X656980Y589028D01*
X657420Y589468D01*
X657452Y589516D01*
X657859Y589583D01*
X658423Y589547D01*
X658556Y589505D01*
X658660Y589349D01*
X658981Y589028D01*
X659161Y588594D01*
Y588000D01*
X659238Y587610D01*
X659459Y587279D01*
X659790Y587058D01*
X660180Y586980D01*
X672980D01*
Y571981D01*
X673058Y571591D01*
X673279Y571260D01*
X673610Y571039D01*
X674169Y570808D01*
X674501Y570476D01*
X674680Y570042D01*
Y569572D01*
X674501Y569138D01*
X674169Y568806D01*
X673610Y568575D01*
X673279Y568354D01*
X673058Y568023D01*
X672980Y567633D01*
Y498922D01*
X659779Y485721D01*
X659558Y485390D01*
X659480Y485000D01*
Y481500D01*
X659558Y481110D01*
X659779Y480779D01*
X660110Y480558D01*
X660500Y480480D01*
X674480D01*
Y464611D01*
X674558Y464221D01*
X674779Y463890D01*
X674901Y463769D01*
X675080Y463335D01*
Y462865D01*
X674901Y462431D01*
X674779Y462310D01*
X674558Y461979D01*
X674480Y461589D01*
Y441520D01*
X659194D01*
X659194Y441520D01*
X659194Y441520D01*
X658982Y441477D01*
X658804Y441442D01*
X658804Y441442D01*
X658804Y441442D01*
X658638Y441331D01*
X658473Y441221D01*
X658473Y441221D01*
X658473Y441221D01*
X658410Y441127D01*
X657976Y440692D01*
X657542Y440513D01*
X657072D01*
X656638Y440692D01*
X656204Y441127D01*
X656141Y441221D01*
X656141Y441221D01*
X656141Y441221D01*
X655976Y441331D01*
X655810Y441442D01*
X655810Y441442D01*
X655810Y441442D01*
X655632Y441477D01*
X655420Y441520D01*
X655420Y441520D01*
X655420Y441520D01*
X651655D01*
Y442256D01*
X651320Y443065D01*
X650701Y443684D01*
X649893Y444019D01*
X649017D01*
X648209Y443684D01*
X647590Y443065D01*
X647255Y442256D01*
Y441520D01*
X634000D01*
X633610Y441442D01*
X633279Y441221D01*
X633058Y440890D01*
X632980Y440500D01*
Y422000D01*
X633058Y421610D01*
X633279Y421279D01*
X633610Y421058D01*
X634000Y420980D01*
X655599D01*
X655698Y421000D01*
X655798D01*
X655891Y421038D01*
X655989Y421058D01*
X656073Y421114D01*
X656166Y421152D01*
X656237Y421223D01*
X656320Y421279D01*
X656376Y421362D01*
X656447Y421433D01*
X656528Y421555D01*
X656566Y421648D01*
X656622Y421731D01*
X656642Y421830D01*
X656680Y421922D01*
Y422023D01*
X656700Y422121D01*
Y422794D01*
X656814Y423070D01*
X657521Y423776D01*
X658243Y423773D01*
X658949Y423065D01*
X659061Y422794D01*
Y422121D01*
X659080Y422023D01*
Y421922D01*
X659119Y421830D01*
X659138Y421731D01*
X659194Y421648D01*
X659233Y421555D01*
X659314Y421433D01*
X659385Y421362D01*
X659441Y421279D01*
X659524Y421223D01*
X659595Y421152D01*
X659688Y421114D01*
X659771Y421058D01*
X659870Y421038D01*
X659963Y421000D01*
X660063D01*
X660161Y420980D01*
X674480D01*
Y405918D01*
X674558Y405528D01*
X674658Y405378D01*
X674880Y404842D01*
Y404372D01*
X674658Y403836D01*
X674558Y403686D01*
X674480Y403296D01*
Y329922D01*
X662779Y318221D01*
X662558Y317890D01*
X662480Y317500D01*
Y313000D01*
X662558Y312610D01*
X662779Y312279D01*
X663110Y312058D01*
X663500Y311980D01*
X674480D01*
Y296111D01*
X674558Y295721D01*
X674779Y295390D01*
X675001Y295169D01*
X675180Y294735D01*
Y294265D01*
X675001Y293831D01*
X674779Y293610D01*
X674558Y293279D01*
X674480Y292889D01*
Y274520D01*
X659194D01*
X659194Y274520D01*
X659194Y274520D01*
X658982Y274478D01*
X658804Y274442D01*
X658804Y274442D01*
X658804Y274442D01*
X658638Y274331D01*
X658473Y274221D01*
X658473Y274221D01*
X658473Y274221D01*
X658410Y274127D01*
X657976Y273692D01*
X657542Y273513D01*
X657072D01*
X656638Y273692D01*
X656204Y274127D01*
X656141Y274221D01*
X656141Y274221D01*
X656141Y274221D01*
X655976Y274331D01*
X655810Y274442D01*
X655810Y274442D01*
X655810Y274442D01*
X655632Y274478D01*
X655420Y274520D01*
X655420Y274520D01*
X655420Y274520D01*
X651851D01*
X651182Y275520D01*
X651200Y275562D01*
Y276438D01*
X650865Y277246D01*
X650246Y277865D01*
X649438Y278200D01*
X648562D01*
X647754Y277865D01*
X647135Y277246D01*
X646800Y276438D01*
Y275562D01*
X646818Y275520D01*
X646149Y274520D01*
X634000D01*
X633610Y274442D01*
X633279Y274221D01*
X633058Y273890D01*
X632980Y273500D01*
Y254000D01*
X633058Y253610D01*
X633279Y253279D01*
X633610Y253058D01*
X634000Y252980D01*
X655258D01*
X655356Y253000D01*
X655457D01*
X655549Y253038D01*
X655648Y253058D01*
X655731Y253114D01*
X655824Y253152D01*
X655895Y253223D01*
X655979Y253279D01*
X656034Y253362D01*
X656105Y253434D01*
X656774Y254434D01*
X656812Y254526D01*
X656868Y254610D01*
X656887Y254708D01*
X656926Y254801D01*
Y254902D01*
X656945Y255000D01*
X656926Y255099D01*
Y255199D01*
X656920Y255214D01*
Y255735D01*
X657099Y256169D01*
X657510Y256579D01*
X657576Y256678D01*
X658072Y256744D01*
X658414Y256725D01*
X658672Y256656D01*
X658790Y256479D01*
X659101Y256169D01*
X659280Y255735D01*
Y255214D01*
X659274Y255199D01*
Y255099D01*
X659255Y255000D01*
X659274Y254902D01*
Y254801D01*
X659313Y254708D01*
X659332Y254610D01*
X659388Y254526D01*
X659426Y254434D01*
X660095Y253434D01*
X660166Y253362D01*
X660221Y253279D01*
X660305Y253223D01*
X660376Y253152D01*
X660469Y253114D01*
X660552Y253058D01*
X660651Y253038D01*
X660743Y253000D01*
X660844D01*
X660942Y252980D01*
X682500D01*
X682890Y253058D01*
X683221Y253279D01*
X683442Y253610D01*
X683520Y254000D01*
Y674000D01*
X683442Y674390D01*
X683221Y674721D01*
X682890Y674942D01*
X682500Y675020D01*
X677959D01*
X677879Y675030D01*
D02*
G37*
G36*
X355527Y674000D02*
X354473D01*
X353456Y673727D01*
X352544Y673201D01*
X351799Y672456D01*
X351273Y671544D01*
X351000Y670527D01*
Y669473D01*
X351273Y668456D01*
X351799Y667544D01*
X352544Y666799D01*
X353456Y666273D01*
X354473Y666000D01*
X355527D01*
X356544Y666273D01*
X357456Y666799D01*
X358201Y667544D01*
X358727Y668456D01*
X359000Y669473D01*
Y670527D01*
X358727Y671544D01*
X358201Y672456D01*
X357456Y673201D01*
X356544Y673727D01*
X355527Y674000D01*
D02*
G37*
G36*
X345527D02*
X344473D01*
X343456Y673727D01*
X342544Y673201D01*
X341799Y672456D01*
X341273Y671544D01*
X341000Y670527D01*
Y669473D01*
X341273Y668456D01*
X341799Y667544D01*
X342544Y666799D01*
X343456Y666273D01*
X344473Y666000D01*
X345527D01*
X346544Y666273D01*
X347456Y666799D01*
X348201Y667544D01*
X348727Y668456D01*
X349000Y669473D01*
Y670527D01*
X348727Y671544D01*
X348201Y672456D01*
X347456Y673201D01*
X346544Y673727D01*
X345527Y674000D01*
D02*
G37*
G36*
X271107Y667869D02*
X270232D01*
X269423Y667534D01*
X268804Y666916D01*
X268469Y666107D01*
Y665232D01*
X268804Y664423D01*
X269423Y663804D01*
X270232Y663469D01*
X271107D01*
X271916Y663804D01*
X272534Y664423D01*
X272869Y665232D01*
Y666107D01*
X272534Y666916D01*
X271916Y667534D01*
X271107Y667869D01*
D02*
G37*
G36*
X742438Y663200D02*
X741562D01*
X740754Y662865D01*
X740653Y662765D01*
X740000Y662335D01*
X739347Y662765D01*
X739246Y662865D01*
X738438Y663200D01*
X737562D01*
X736754Y662865D01*
X736653Y662765D01*
X736000Y662335D01*
X735347Y662765D01*
X735246Y662865D01*
X734438Y663200D01*
X733562D01*
X732754Y662865D01*
X732653Y662765D01*
X732000Y662335D01*
X731347Y662765D01*
X731246Y662865D01*
X730438Y663200D01*
X729562D01*
X728754Y662865D01*
X728135Y662246D01*
X727800Y661438D01*
Y660562D01*
X728135Y659754D01*
X728754Y659135D01*
X729562Y658800D01*
X730438D01*
X731246Y659135D01*
X731347Y659235D01*
X732000Y659665D01*
X732653Y659235D01*
X732754Y659135D01*
X733562Y658800D01*
X734438D01*
X735246Y659135D01*
X735347Y659235D01*
X736000Y659665D01*
X736653Y659235D01*
X736754Y659135D01*
X737562Y658800D01*
X738438D01*
X739246Y659135D01*
X739347Y659235D01*
X740000Y659665D01*
X740653Y659235D01*
X740754Y659135D01*
X741562Y658800D01*
X742438D01*
X743246Y659135D01*
X743865Y659754D01*
X744200Y660562D01*
Y661438D01*
X743865Y662246D01*
X743246Y662865D01*
X742438Y663200D01*
D02*
G37*
G36*
X272338Y661800D02*
X271462D01*
X270654Y661465D01*
X270200Y661011D01*
X269746Y661465D01*
X268938Y661800D01*
X268062D01*
X267254Y661465D01*
X266635Y660846D01*
X266300Y660038D01*
Y659162D01*
X266635Y658354D01*
X267254Y657735D01*
X267505Y657631D01*
X268300Y656938D01*
Y656062D01*
X268635Y655254D01*
X269254Y654635D01*
X269134Y653602D01*
X268900Y653038D01*
Y652162D01*
X269235Y651354D01*
X269361Y651228D01*
X269654Y650765D01*
X269035Y650146D01*
X268700Y649338D01*
Y648462D01*
X269035Y647654D01*
X269654Y647035D01*
X270462Y646700D01*
X271338D01*
X272146Y647035D01*
X272765Y647654D01*
X273100Y648462D01*
Y649338D01*
X272765Y650146D01*
X272639Y650272D01*
X272346Y650735D01*
X272965Y651354D01*
X273300Y652162D01*
Y653038D01*
X272965Y653846D01*
X272346Y654465D01*
X272466Y655498D01*
X272700Y656062D01*
Y656938D01*
X272483Y657460D01*
X273146Y657735D01*
X273765Y658354D01*
X274100Y659162D01*
Y660038D01*
X273765Y660846D01*
X273146Y661465D01*
X272338Y661800D01*
D02*
G37*
G36*
X355527Y664000D02*
X354473D01*
X353456Y663727D01*
X352544Y663201D01*
X351799Y662456D01*
X351273Y661544D01*
X351000Y660527D01*
Y659473D01*
X351273Y658456D01*
X351799Y657544D01*
X352544Y656799D01*
X353456Y656273D01*
X354473Y656000D01*
X355527D01*
X356544Y656273D01*
X357456Y656799D01*
X358201Y657544D01*
X358727Y658456D01*
X359000Y659473D01*
Y660527D01*
X358727Y661544D01*
X358201Y662456D01*
X357456Y663201D01*
X356544Y663727D01*
X355527Y664000D01*
D02*
G37*
G36*
X345527D02*
X344473D01*
X343456Y663727D01*
X342544Y663201D01*
X341799Y662456D01*
X341273Y661544D01*
X341000Y660527D01*
Y659473D01*
X341273Y658456D01*
X341799Y657544D01*
X342544Y656799D01*
X343456Y656273D01*
X344473Y656000D01*
X345527D01*
X346544Y656273D01*
X347456Y656799D01*
X348201Y657544D01*
X348727Y658456D01*
X349000Y659473D01*
Y660527D01*
X348727Y661544D01*
X348201Y662456D01*
X347456Y663201D01*
X346544Y663727D01*
X345527Y664000D01*
D02*
G37*
G36*
X742438Y655200D02*
X741562D01*
X740754Y654865D01*
X740653Y654765D01*
X740000Y654335D01*
X739347Y654765D01*
X739246Y654865D01*
X738438Y655200D01*
X737562D01*
X736754Y654865D01*
X736653Y654765D01*
X736000Y654335D01*
X735347Y654765D01*
X735246Y654865D01*
X734438Y655200D01*
X733562D01*
X732754Y654865D01*
X732653Y654765D01*
X732000Y654335D01*
X731347Y654765D01*
X731246Y654865D01*
X730438Y655200D01*
X729562D01*
X728754Y654865D01*
X728135Y654246D01*
X727800Y653438D01*
Y652562D01*
X728135Y651754D01*
X728754Y651135D01*
X729562Y650800D01*
X730438D01*
X731246Y651135D01*
X731347Y651235D01*
X732000Y651665D01*
X732653Y651235D01*
X732754Y651135D01*
X733562Y650800D01*
X734438D01*
X735246Y651135D01*
X735347Y651235D01*
X736000Y651665D01*
X736653Y651235D01*
X736754Y651135D01*
X737562Y650800D01*
X738438D01*
X739246Y651135D01*
X739347Y651235D01*
X740000Y651665D01*
X740653Y651235D01*
X740754Y651135D01*
X741562Y650800D01*
X742438D01*
X743246Y651135D01*
X743865Y651754D01*
X744200Y652562D01*
Y653438D01*
X743865Y654246D01*
X743246Y654865D01*
X742438Y655200D01*
D02*
G37*
G36*
X259538Y652200D02*
X258662D01*
X257854Y651865D01*
X257235Y651246D01*
X257120Y650970D01*
X256038D01*
X255965Y651146D01*
X255346Y651765D01*
X254538Y652100D01*
X253662D01*
X252854Y651765D01*
X252235Y651146D01*
X251900Y650338D01*
Y649462D01*
X252235Y648654D01*
X252854Y648035D01*
X253662Y647700D01*
X254538D01*
X255346Y648035D01*
X255965Y648654D01*
X256080Y648930D01*
X257162D01*
X257235Y648754D01*
X257854Y648135D01*
X258662Y647800D01*
X259538D01*
X260346Y648135D01*
X260965Y648754D01*
X261300Y649562D01*
Y650438D01*
X260965Y651246D01*
X260346Y651865D01*
X259538Y652200D01*
D02*
G37*
G36*
X742438Y647200D02*
X741562D01*
X740754Y646865D01*
X740653Y646765D01*
X740000Y646335D01*
X739347Y646765D01*
X739246Y646865D01*
X738438Y647200D01*
X737562D01*
X736754Y646865D01*
X736653Y646765D01*
X736000Y646335D01*
X735347Y646765D01*
X735246Y646865D01*
X734438Y647200D01*
X733562D01*
X732754Y646865D01*
X732653Y646765D01*
X732000Y646335D01*
X731347Y646765D01*
X731246Y646865D01*
X730438Y647200D01*
X729562D01*
X728754Y646865D01*
X728135Y646246D01*
X727800Y645438D01*
Y644562D01*
X728135Y643754D01*
X728754Y643135D01*
X729562Y642800D01*
X730438D01*
X731246Y643135D01*
X731347Y643235D01*
X732000Y643665D01*
X732653Y643235D01*
X732754Y643135D01*
X733562Y642800D01*
X734438D01*
X735246Y643135D01*
X735347Y643235D01*
X736000Y643665D01*
X736653Y643235D01*
X736754Y643135D01*
X737562Y642800D01*
X738438D01*
X739246Y643135D01*
X739347Y643235D01*
X740000Y643665D01*
X740653Y643235D01*
X740754Y643135D01*
X741562Y642800D01*
X742438D01*
X743246Y643135D01*
X743865Y643754D01*
X744200Y644562D01*
Y645438D01*
X743865Y646246D01*
X743246Y646865D01*
X742438Y647200D01*
D02*
G37*
G36*
X355527Y654000D02*
X354473D01*
X353456Y653727D01*
X352544Y653201D01*
X351799Y652456D01*
X351273Y651544D01*
X351000Y650527D01*
Y649473D01*
X351273Y648456D01*
X351799Y647544D01*
X352544Y646799D01*
X353456Y646273D01*
X354473Y646000D01*
X355527D01*
X356544Y646273D01*
X357456Y646799D01*
X358201Y647544D01*
X358727Y648456D01*
X359000Y649473D01*
Y650527D01*
X358727Y651544D01*
X358201Y652456D01*
X357456Y653201D01*
X356544Y653727D01*
X355527Y654000D01*
D02*
G37*
G36*
X707367Y646700D02*
X706491D01*
X705683Y646365D01*
X705468Y646150D01*
X704814Y645858D01*
X704161Y646150D01*
X703946Y646365D01*
X703138Y646700D01*
X702262D01*
X701454Y646365D01*
X701453Y646365D01*
X700800Y645778D01*
X700147Y646365D01*
X700146Y646365D01*
X699338Y646700D01*
X698462D01*
X697654Y646365D01*
X697653Y646365D01*
X697000Y645778D01*
X696347Y646365D01*
X696346Y646365D01*
X695538Y646700D01*
X694662D01*
X693854Y646365D01*
X693235Y645746D01*
X692900Y644938D01*
Y644062D01*
X693235Y643254D01*
X693854Y642635D01*
X694662Y642300D01*
X695538D01*
X696346Y642635D01*
X696347Y642635D01*
X697000Y643222D01*
X697653Y642635D01*
X697654Y642635D01*
X698462Y642300D01*
X699338D01*
X700146Y642635D01*
X700147Y642635D01*
X700800Y643222D01*
X701453Y642635D01*
X701454Y642635D01*
X702262Y642300D01*
X703138D01*
X703946Y642635D01*
X704161Y642850D01*
X704814Y643142D01*
X705468Y642850D01*
X705683Y642635D01*
X706491Y642300D01*
X707367D01*
X708175Y642635D01*
X708794Y643254D01*
X709129Y644062D01*
Y644938D01*
X708794Y645746D01*
X708175Y646365D01*
X707367Y646700D01*
D02*
G37*
G36*
X102938Y648000D02*
X102062D01*
X101254Y647665D01*
X100635Y647046D01*
X100300Y646238D01*
Y645362D01*
X100635Y644554D01*
X101254Y643935D01*
X102062Y643600D01*
X102938D01*
X103746Y643935D01*
X104365Y644554D01*
X104700Y645362D01*
Y646238D01*
X104365Y647046D01*
X103746Y647665D01*
X102938Y648000D01*
D02*
G37*
G36*
X742438Y639200D02*
X741562D01*
X740754Y638865D01*
X740653Y638765D01*
X740000Y638335D01*
X739347Y638765D01*
X739246Y638865D01*
X738438Y639200D01*
X737562D01*
X736754Y638865D01*
X736653Y638765D01*
X736000Y638335D01*
X735347Y638765D01*
X735246Y638865D01*
X734438Y639200D01*
X733562D01*
X732754Y638865D01*
X732653Y638765D01*
X732000Y638335D01*
X731347Y638765D01*
X731246Y638865D01*
X730438Y639200D01*
X729562D01*
X728754Y638865D01*
X728135Y638246D01*
X727800Y637438D01*
Y636562D01*
X728135Y635754D01*
X728754Y635135D01*
X729562Y634800D01*
X730438D01*
X731246Y635135D01*
X731347Y635235D01*
X732000Y635665D01*
X732653Y635235D01*
X732754Y635135D01*
X733562Y634800D01*
X734438D01*
X735246Y635135D01*
X735347Y635235D01*
X736000Y635665D01*
X736653Y635235D01*
X736754Y635135D01*
X737562Y634800D01*
X738438D01*
X739246Y635135D01*
X739347Y635235D01*
X740000Y635665D01*
X740653Y635235D01*
X740754Y635135D01*
X741562Y634800D01*
X742438D01*
X743246Y635135D01*
X743865Y635754D01*
X744200Y636562D01*
Y637438D01*
X743865Y638246D01*
X743246Y638865D01*
X742438Y639200D01*
D02*
G37*
G36*
X355527Y644000D02*
X354473D01*
X353456Y643727D01*
X352544Y643201D01*
X351799Y642456D01*
X351273Y641544D01*
X351000Y640527D01*
Y639473D01*
X351273Y638456D01*
X351799Y637544D01*
X352544Y636799D01*
X353456Y636273D01*
X354473Y636000D01*
X355527D01*
X356544Y636273D01*
X357456Y636799D01*
X358201Y637544D01*
X358727Y638456D01*
X359000Y639473D01*
Y640527D01*
X358727Y641544D01*
X358201Y642456D01*
X357456Y643201D01*
X356544Y643727D01*
X355527Y644000D01*
D02*
G37*
G36*
X102938Y636200D02*
X102062D01*
X101254Y635865D01*
X100635Y635246D01*
X100300Y634438D01*
Y633562D01*
X100635Y632754D01*
X101254Y632135D01*
X102062Y631800D01*
X102938D01*
X103746Y632135D01*
X104365Y632754D01*
X104700Y633562D01*
Y634438D01*
X104365Y635246D01*
X103746Y635865D01*
X102938Y636200D01*
D02*
G37*
G36*
X742438Y631200D02*
X741562D01*
X740754Y630865D01*
X740653Y630765D01*
X740000Y630335D01*
X739347Y630765D01*
X739246Y630865D01*
X738438Y631200D01*
X737562D01*
X736754Y630865D01*
X736653Y630765D01*
X736000Y630335D01*
X735347Y630765D01*
X735246Y630865D01*
X734438Y631200D01*
X733562D01*
X732754Y630865D01*
X732653Y630765D01*
X732000Y630335D01*
X731347Y630765D01*
X731246Y630865D01*
X730438Y631200D01*
X729562D01*
X728754Y630865D01*
X728135Y630246D01*
X727800Y629438D01*
Y628562D01*
X728135Y627754D01*
X728754Y627135D01*
X729562Y626800D01*
X730438D01*
X731246Y627135D01*
X731347Y627235D01*
X732000Y627665D01*
X732653Y627235D01*
X732754Y627135D01*
X733562Y626800D01*
X734438D01*
X735246Y627135D01*
X735347Y627235D01*
X736000Y627665D01*
X736653Y627235D01*
X736754Y627135D01*
X737562Y626800D01*
X738438D01*
X739246Y627135D01*
X739347Y627235D01*
X740000Y627665D01*
X740653Y627235D01*
X740754Y627135D01*
X741562Y626800D01*
X742438D01*
X743246Y627135D01*
X743865Y627754D01*
X744200Y628562D01*
Y629438D01*
X743865Y630246D01*
X743246Y630865D01*
X742438Y631200D01*
D02*
G37*
G36*
X355527Y634000D02*
X354473D01*
X353456Y633727D01*
X352544Y633201D01*
X351799Y632456D01*
X351273Y631544D01*
X351000Y630527D01*
Y629473D01*
X351273Y628456D01*
X351799Y627544D01*
X352544Y626799D01*
X353456Y626273D01*
X354473Y626000D01*
X355527D01*
X356544Y626273D01*
X357456Y626799D01*
X358201Y627544D01*
X358727Y628456D01*
X359000Y629473D01*
Y630527D01*
X358727Y631544D01*
X358201Y632456D01*
X357456Y633201D01*
X356544Y633727D01*
X355527Y634000D01*
D02*
G37*
G36*
X162438Y630121D02*
X161562D01*
X160754Y629786D01*
X160135Y629168D01*
X159800Y628359D01*
Y627484D01*
X160135Y626675D01*
X160754Y626056D01*
X161562Y625721D01*
X162438D01*
X163246Y626056D01*
X163865Y626675D01*
X164200Y627484D01*
Y628359D01*
X163865Y629168D01*
X163246Y629786D01*
X162438Y630121D01*
D02*
G37*
G36*
X778254Y635224D02*
X776746D01*
X775290Y634834D01*
X773985Y634081D01*
X772919Y633015D01*
X772166Y631709D01*
X771776Y630254D01*
Y628746D01*
X772166Y627290D01*
X772919Y625985D01*
X773985Y624919D01*
X775290Y624166D01*
X776746Y623776D01*
X778254D01*
X779709Y624166D01*
X781015Y624919D01*
X782081Y625985D01*
X782834Y627290D01*
X783224Y628746D01*
Y630254D01*
X782834Y631709D01*
X782081Y633015D01*
X781015Y634081D01*
X779709Y634834D01*
X778254Y635224D01*
D02*
G37*
G36*
X355527Y624000D02*
X354473D01*
X353456Y623727D01*
X352544Y623201D01*
X351799Y622456D01*
X351273Y621544D01*
X351000Y620527D01*
Y619473D01*
X351273Y618456D01*
X351799Y617544D01*
X352544Y616799D01*
X353456Y616273D01*
X354473Y616000D01*
X355527D01*
X356544Y616273D01*
X357456Y616799D01*
X358201Y617544D01*
X358727Y618456D01*
X359000Y619473D01*
Y620527D01*
X358727Y621544D01*
X358201Y622456D01*
X357456Y623201D01*
X356544Y623727D01*
X355527Y624000D01*
D02*
G37*
G36*
X345527D02*
X344473D01*
X343456Y623727D01*
X342544Y623201D01*
X341799Y622456D01*
X341273Y621544D01*
X341000Y620527D01*
Y619473D01*
X341273Y618456D01*
X341799Y617544D01*
X342544Y616799D01*
X343456Y616273D01*
X344473Y616000D01*
X345527D01*
X346544Y616273D01*
X347456Y616799D01*
X348201Y617544D01*
X348727Y618456D01*
X349000Y619473D01*
Y620527D01*
X348727Y621544D01*
X348201Y622456D01*
X347456Y623201D01*
X346544Y623727D01*
X345527Y624000D01*
D02*
G37*
G36*
X752438Y620200D02*
X751562D01*
X750754Y619865D01*
X750135Y619246D01*
X749800Y618438D01*
Y617562D01*
X750135Y616754D01*
X750235Y616653D01*
X750665Y616000D01*
X750235Y615347D01*
X750135Y615246D01*
X749800Y614438D01*
Y613562D01*
X750135Y612754D01*
X750754Y612135D01*
X751562Y611800D01*
X752438D01*
X753246Y612135D01*
X753865Y612754D01*
X754200Y613562D01*
Y614438D01*
X753865Y615246D01*
X753765Y615347D01*
X753335Y616000D01*
X753765Y616653D01*
X753865Y616754D01*
X754200Y617562D01*
Y618438D01*
X753865Y619246D01*
X753246Y619865D01*
X752438Y620200D01*
D02*
G37*
G36*
X742438Y622200D02*
X741562D01*
X740754Y621865D01*
X740135Y621246D01*
X739800Y620438D01*
Y619562D01*
X740135Y618754D01*
X740235Y618653D01*
X740665Y618000D01*
X740235Y617347D01*
X740135Y617246D01*
X739800Y616438D01*
Y615562D01*
X740135Y614754D01*
X740235Y614653D01*
X740665Y614000D01*
X740235Y613347D01*
X740135Y613246D01*
X739800Y612438D01*
Y611562D01*
X740135Y610754D01*
X740754Y610135D01*
X741562Y609800D01*
X742438D01*
X743246Y610135D01*
X743865Y610754D01*
X744130Y611393D01*
X744307Y611604D01*
X745200Y611950D01*
X745562Y611800D01*
X746438D01*
X747246Y612135D01*
X747865Y612754D01*
X748200Y613562D01*
Y614438D01*
X747865Y615246D01*
X747765Y615347D01*
X747335Y616000D01*
X747765Y616653D01*
X747865Y616754D01*
X748200Y617562D01*
Y618438D01*
X747865Y619246D01*
X747246Y619865D01*
X746438Y620200D01*
X745562D01*
X745200Y620050D01*
X744307Y620396D01*
X744130Y620607D01*
X743865Y621246D01*
X743246Y621865D01*
X742438Y622200D01*
D02*
G37*
G36*
X736438D02*
X735562D01*
X734754Y621865D01*
X734135Y621246D01*
X733800Y620438D01*
Y619562D01*
X734135Y618754D01*
X734235Y618653D01*
X734665Y618000D01*
X734235Y617347D01*
X734135Y617246D01*
X733800Y616438D01*
Y615562D01*
X734135Y614754D01*
X734235Y614653D01*
X734665Y614000D01*
X734235Y613347D01*
X734135Y613246D01*
X733800Y612438D01*
Y611562D01*
X734135Y610754D01*
X734754Y610135D01*
X735562Y609800D01*
X736438D01*
X737246Y610135D01*
X737865Y610754D01*
X738200Y611562D01*
Y612438D01*
X737865Y613246D01*
X737765Y613347D01*
X737335Y614000D01*
X737765Y614653D01*
X737865Y614754D01*
X738200Y615562D01*
Y616438D01*
X737865Y617246D01*
X737765Y617347D01*
X737335Y618000D01*
X737765Y618653D01*
X737865Y618754D01*
X738200Y619562D01*
Y620438D01*
X737865Y621246D01*
X737246Y621865D01*
X736438Y622200D01*
D02*
G37*
G36*
X730438D02*
X729562D01*
X728754Y621865D01*
X728135Y621246D01*
X727800Y620438D01*
Y619562D01*
X728135Y618754D01*
X728235Y618653D01*
X728665Y618000D01*
X728235Y617347D01*
X728135Y617246D01*
X727800Y616438D01*
Y615562D01*
X728135Y614754D01*
X728235Y614653D01*
X728665Y614000D01*
X728235Y613347D01*
X728135Y613246D01*
X727800Y612438D01*
Y611562D01*
X728135Y610754D01*
X728754Y610135D01*
X729562Y609800D01*
X730438D01*
X731246Y610135D01*
X731865Y610754D01*
X732200Y611562D01*
Y612438D01*
X731865Y613246D01*
X731765Y613347D01*
X731335Y614000D01*
X731765Y614653D01*
X731865Y614754D01*
X732200Y615562D01*
Y616438D01*
X731865Y617246D01*
X731765Y617347D01*
X731335Y618000D01*
X731765Y618653D01*
X731865Y618754D01*
X732200Y619562D01*
Y620438D01*
X731865Y621246D01*
X731246Y621865D01*
X730438Y622200D01*
D02*
G37*
G36*
X724438D02*
X723562D01*
X722754Y621865D01*
X722135Y621246D01*
X721800Y620438D01*
Y619562D01*
X722135Y618754D01*
X722235Y618653D01*
X722665Y618000D01*
X722235Y617347D01*
X722135Y617246D01*
X721800Y616438D01*
Y615562D01*
X722135Y614754D01*
X722235Y614653D01*
X722665Y614000D01*
X722235Y613347D01*
X722135Y613246D01*
X721800Y612438D01*
Y611562D01*
X722135Y610754D01*
X722754Y610135D01*
X723562Y609800D01*
X724438D01*
X725246Y610135D01*
X725865Y610754D01*
X726200Y611562D01*
Y612438D01*
X725865Y613246D01*
X725765Y613347D01*
X725335Y614000D01*
X725765Y614653D01*
X725865Y614754D01*
X726200Y615562D01*
Y616438D01*
X725865Y617246D01*
X725765Y617347D01*
X725335Y618000D01*
X725765Y618653D01*
X725865Y618754D01*
X726200Y619562D01*
Y620438D01*
X725865Y621246D01*
X725246Y621865D01*
X724438Y622200D01*
D02*
G37*
G36*
X355527Y614000D02*
X354473D01*
X353456Y613727D01*
X352544Y613201D01*
X351799Y612456D01*
X351273Y611544D01*
X351000Y610527D01*
Y609473D01*
X351273Y608456D01*
X351799Y607544D01*
X352544Y606799D01*
X353456Y606273D01*
X354473Y606000D01*
X355527D01*
X356544Y606273D01*
X357456Y606799D01*
X358201Y607544D01*
X358727Y608456D01*
X359000Y609473D01*
Y610527D01*
X358727Y611544D01*
X358201Y612456D01*
X357456Y613201D01*
X356544Y613727D01*
X355527Y614000D01*
D02*
G37*
G36*
X345527D02*
X344473D01*
X343456Y613727D01*
X342544Y613201D01*
X341799Y612456D01*
X341273Y611544D01*
X341000Y610527D01*
Y609473D01*
X341273Y608456D01*
X341799Y607544D01*
X342544Y606799D01*
X343456Y606273D01*
X344473Y606000D01*
X345527D01*
X346544Y606273D01*
X347456Y606799D01*
X348201Y607544D01*
X348727Y608456D01*
X349000Y609473D01*
Y610527D01*
X348727Y611544D01*
X348201Y612456D01*
X347456Y613201D01*
X346544Y613727D01*
X345527Y614000D01*
D02*
G37*
G36*
X742438Y604200D02*
X741562D01*
X740754Y603865D01*
X740653Y603765D01*
X740000Y603335D01*
X739347Y603765D01*
X739246Y603865D01*
X738438Y604200D01*
X737562D01*
X736754Y603865D01*
X736653Y603765D01*
X736000Y603335D01*
X735347Y603765D01*
X735246Y603865D01*
X734438Y604200D01*
X733562D01*
X732754Y603865D01*
X732653Y603765D01*
X732000Y603335D01*
X731347Y603765D01*
X731246Y603865D01*
X730438Y604200D01*
X729562D01*
X728754Y603865D01*
X728135Y603246D01*
X727800Y602438D01*
Y601562D01*
X728135Y600754D01*
X728754Y600135D01*
X729562Y599800D01*
X730438D01*
X731246Y600135D01*
X731347Y600235D01*
X732000Y600665D01*
X732653Y600235D01*
X732754Y600135D01*
X733562Y599800D01*
X734438D01*
X735246Y600135D01*
X735347Y600235D01*
X736000Y600665D01*
X736653Y600235D01*
X736754Y600135D01*
X737562Y599800D01*
X738438D01*
X739246Y600135D01*
X739347Y600235D01*
X740000Y600665D01*
X740653Y600235D01*
X740754Y600135D01*
X741562Y599800D01*
X742438D01*
X743246Y600135D01*
X743865Y600754D01*
X744200Y601562D01*
Y602438D01*
X743865Y603246D01*
X743246Y603865D01*
X742438Y604200D01*
D02*
G37*
G36*
X355527Y604000D02*
X354473D01*
X353456Y603727D01*
X352544Y603201D01*
X351799Y602456D01*
X351273Y601544D01*
X351000Y600527D01*
Y599473D01*
X351273Y598456D01*
X351799Y597544D01*
X352544Y596799D01*
X353456Y596273D01*
X354473Y596000D01*
X355527D01*
X356544Y596273D01*
X357456Y596799D01*
X358201Y597544D01*
X358727Y598456D01*
X359000Y599473D01*
Y600527D01*
X358727Y601544D01*
X358201Y602456D01*
X357456Y603201D01*
X356544Y603727D01*
X355527Y604000D01*
D02*
G37*
G36*
X742438Y596200D02*
X741562D01*
X740754Y595865D01*
X740653Y595765D01*
X740000Y595335D01*
X739347Y595765D01*
X739246Y595865D01*
X738438Y596200D01*
X737562D01*
X736754Y595865D01*
X736653Y595765D01*
X736000Y595335D01*
X735347Y595765D01*
X735246Y595865D01*
X734438Y596200D01*
X733562D01*
X732754Y595865D01*
X732653Y595765D01*
X732000Y595335D01*
X731347Y595765D01*
X731246Y595865D01*
X730438Y596200D01*
X729562D01*
X728754Y595865D01*
X728135Y595246D01*
X727800Y594438D01*
Y593562D01*
X728135Y592754D01*
X728754Y592135D01*
X729562Y591800D01*
X730438D01*
X731246Y592135D01*
X731347Y592235D01*
X732000Y592665D01*
X732653Y592235D01*
X732754Y592135D01*
X733562Y591800D01*
X734438D01*
X735246Y592135D01*
X735347Y592235D01*
X736000Y592665D01*
X736653Y592235D01*
X736754Y592135D01*
X737562Y591800D01*
X738438D01*
X739246Y592135D01*
X739347Y592235D01*
X740000Y592665D01*
X740653Y592235D01*
X740754Y592135D01*
X741562Y591800D01*
X742438D01*
X743246Y592135D01*
X743865Y592754D01*
X744200Y593562D01*
Y594438D01*
X743865Y595246D01*
X743246Y595865D01*
X742438Y596200D01*
D02*
G37*
G36*
X778254Y605224D02*
X776746D01*
X775290Y604834D01*
X773985Y604081D01*
X772919Y603015D01*
X772166Y601710D01*
X771776Y600254D01*
Y598746D01*
X772166Y597291D01*
X772919Y595985D01*
X773985Y594919D01*
X775290Y594166D01*
X776746Y593776D01*
X778254D01*
X779709Y594166D01*
X781015Y594919D01*
X782081Y595985D01*
X782834Y597291D01*
X783224Y598746D01*
Y600254D01*
X782834Y601710D01*
X782081Y603015D01*
X781015Y604081D01*
X779709Y604834D01*
X778254Y605224D01*
D02*
G37*
G36*
X742438Y588200D02*
X741562D01*
X740754Y587865D01*
X740653Y587765D01*
X740000Y587335D01*
X739347Y587765D01*
X739246Y587865D01*
X738438Y588200D01*
X737562D01*
X736754Y587865D01*
X736653Y587765D01*
X736000Y587335D01*
X735347Y587765D01*
X735246Y587865D01*
X734438Y588200D01*
X733562D01*
X732754Y587865D01*
X732653Y587765D01*
X732000Y587335D01*
X731347Y587765D01*
X731246Y587865D01*
X730438Y588200D01*
X729562D01*
X728754Y587865D01*
X728135Y587246D01*
X727800Y586438D01*
Y585562D01*
X728135Y584754D01*
X728754Y584135D01*
X729562Y583800D01*
X730438D01*
X731246Y584135D01*
X731347Y584235D01*
X732000Y584665D01*
X732653Y584235D01*
X732754Y584135D01*
X733562Y583800D01*
X734438D01*
X735246Y584135D01*
X735347Y584235D01*
X736000Y584665D01*
X736653Y584235D01*
X736754Y584135D01*
X737562Y583800D01*
X738438D01*
X739246Y584135D01*
X739347Y584235D01*
X740000Y584665D01*
X740653Y584235D01*
X740754Y584135D01*
X741562Y583800D01*
X742438D01*
X743246Y584135D01*
X743865Y584754D01*
X744200Y585562D01*
Y586438D01*
X743865Y587246D01*
X743246Y587865D01*
X742438Y588200D01*
D02*
G37*
G36*
Y580200D02*
X741562D01*
X740754Y579865D01*
X740653Y579765D01*
X740000Y579335D01*
X739347Y579765D01*
X739246Y579865D01*
X738438Y580200D01*
X737562D01*
X736754Y579865D01*
X736653Y579765D01*
X736000Y579335D01*
X735347Y579765D01*
X735246Y579865D01*
X734438Y580200D01*
X733562D01*
X732754Y579865D01*
X732653Y579765D01*
X732000Y579335D01*
X731347Y579765D01*
X731246Y579865D01*
X730438Y580200D01*
X729562D01*
X728754Y579865D01*
X728135Y579246D01*
X727800Y578438D01*
Y577562D01*
X728135Y576754D01*
X728754Y576135D01*
X729562Y575800D01*
X730438D01*
X731246Y576135D01*
X731347Y576235D01*
X732000Y576665D01*
X732653Y576235D01*
X732754Y576135D01*
X733562Y575800D01*
X734438D01*
X735246Y576135D01*
X735347Y576235D01*
X736000Y576665D01*
X736653Y576235D01*
X736754Y576135D01*
X737562Y575800D01*
X738438D01*
X739246Y576135D01*
X739347Y576235D01*
X740000Y576665D01*
X740653Y576235D01*
X740754Y576135D01*
X741562Y575800D01*
X742438D01*
X743246Y576135D01*
X743865Y576754D01*
X744200Y577562D01*
Y578438D01*
X743865Y579246D01*
X743246Y579865D01*
X742438Y580200D01*
D02*
G37*
G36*
X648438Y578200D02*
X647562D01*
X646754Y577865D01*
X646135Y577246D01*
X645800Y576438D01*
Y575562D01*
X646135Y574754D01*
X646754Y574135D01*
X647562Y573800D01*
X648438D01*
X649246Y574135D01*
X649865Y574754D01*
X650200Y575562D01*
Y576438D01*
X649865Y577246D01*
X649246Y577865D01*
X648438Y578200D01*
D02*
G37*
G36*
X742438Y572200D02*
X741562D01*
X740754Y571865D01*
X740653Y571765D01*
X740000Y571335D01*
X739347Y571765D01*
X739246Y571865D01*
X738438Y572200D01*
X737562D01*
X736754Y571865D01*
X736653Y571765D01*
X736000Y571335D01*
X735347Y571765D01*
X735246Y571865D01*
X734438Y572200D01*
X733562D01*
X732754Y571865D01*
X732653Y571765D01*
X732000Y571335D01*
X731347Y571765D01*
X731246Y571865D01*
X730438Y572200D01*
X729562D01*
X728754Y571865D01*
X728135Y571246D01*
X727800Y570438D01*
Y569562D01*
X728135Y568754D01*
X728754Y568135D01*
X729562Y567800D01*
X730438D01*
X731246Y568135D01*
X731347Y568235D01*
X732000Y568665D01*
X732653Y568235D01*
X732754Y568135D01*
X733562Y567800D01*
X734438D01*
X735246Y568135D01*
X735347Y568235D01*
X736000Y568665D01*
X736653Y568235D01*
X736754Y568135D01*
X737562Y567800D01*
X738438D01*
X739246Y568135D01*
X739347Y568235D01*
X740000Y568665D01*
X740653Y568235D01*
X740754Y568135D01*
X741562Y567800D01*
X742438D01*
X743246Y568135D01*
X743865Y568754D01*
X744200Y569562D01*
Y570438D01*
X743865Y571246D01*
X743246Y571865D01*
X742438Y572200D01*
D02*
G37*
G36*
X280622Y576315D02*
X279378D01*
X278158Y576072D01*
X277009Y575596D01*
X275974Y574905D01*
X275095Y574026D01*
X274404Y572991D01*
X273928Y571842D01*
X273685Y570622D01*
Y569378D01*
X273928Y568158D01*
X274404Y567009D01*
X275095Y565974D01*
X275974Y565095D01*
X277009Y564404D01*
X278158Y563928D01*
X279378Y563685D01*
X280622D01*
X281842Y563928D01*
X282991Y564404D01*
X284026Y565095D01*
X284905Y565974D01*
X285596Y567009D01*
X286072Y568158D01*
X286315Y569378D01*
Y570622D01*
X286072Y571842D01*
X285596Y572991D01*
X284905Y574026D01*
X284026Y574905D01*
X282991Y575596D01*
X281842Y576072D01*
X280622Y576315D01*
D02*
G37*
G36*
X162438Y555200D02*
X161562D01*
X160754Y554865D01*
X160135Y554246D01*
X159800Y553438D01*
Y552562D01*
X160135Y551754D01*
X160754Y551135D01*
X161562Y550800D01*
X162438D01*
X163246Y551135D01*
X163865Y551754D01*
X164200Y552562D01*
Y553438D01*
X163865Y554246D01*
X163246Y554865D01*
X162438Y555200D01*
D02*
G37*
G36*
X699438Y543200D02*
X698562D01*
X697754Y542865D01*
X697653Y542765D01*
X697000Y542335D01*
X696347Y542765D01*
X696246Y542865D01*
X695438Y543200D01*
X694562D01*
X693754Y542865D01*
X693653Y542765D01*
X693000Y542335D01*
X692347Y542765D01*
X692246Y542865D01*
X691438Y543200D01*
X690562D01*
X689754Y542865D01*
X689653Y542765D01*
X689000Y542335D01*
X688347Y542765D01*
X688246Y542865D01*
X687438Y543200D01*
X686562D01*
X685754Y542865D01*
X685135Y542246D01*
X684800Y541438D01*
Y540562D01*
X685135Y539754D01*
X685754Y539135D01*
X686562Y538800D01*
X687438D01*
X688246Y539135D01*
X688347Y539235D01*
X689000Y539665D01*
X689653Y539235D01*
X689754Y539135D01*
X690562Y538800D01*
X691438D01*
X692246Y539135D01*
X692347Y539235D01*
X693000Y539665D01*
X693653Y539235D01*
X693754Y539135D01*
X694562Y538800D01*
X695438D01*
X696246Y539135D01*
X696347Y539235D01*
X697000Y539665D01*
X697653Y539235D01*
X697754Y539135D01*
X698562Y538800D01*
X699438D01*
X700246Y539135D01*
X700865Y539754D01*
X701200Y540562D01*
Y541438D01*
X700865Y542246D01*
X700246Y542865D01*
X699438Y543200D01*
D02*
G37*
G36*
X154395Y548000D02*
X153605D01*
X152842Y547796D01*
X152158Y547401D01*
X151599Y546842D01*
X151204Y546158D01*
X151000Y545395D01*
Y544605D01*
X151204Y543842D01*
X151599Y543158D01*
X152158Y542599D01*
X152842Y542204D01*
X153605Y542000D01*
X154395D01*
X155158Y542204D01*
X155842Y542599D01*
X156401Y543158D01*
X156796Y543842D01*
X157000Y544605D01*
Y545395D01*
X156796Y546158D01*
X156401Y546842D01*
X155842Y547401D01*
X155158Y547796D01*
X154395Y548000D01*
D02*
G37*
G36*
X699438Y537200D02*
X698562D01*
X697754Y536865D01*
X697653Y536765D01*
X697000Y536335D01*
X696347Y536765D01*
X696246Y536865D01*
X695438Y537200D01*
X694562D01*
X693754Y536865D01*
X693653Y536765D01*
X693000Y536335D01*
X692347Y536765D01*
X692246Y536865D01*
X691438Y537200D01*
X690562D01*
X689754Y536865D01*
X689653Y536765D01*
X689000Y536335D01*
X688347Y536765D01*
X688246Y536865D01*
X687438Y537200D01*
X686562D01*
X685754Y536865D01*
X685135Y536246D01*
X684800Y535438D01*
Y534562D01*
X685135Y533754D01*
X685754Y533135D01*
X686562Y532800D01*
X687438D01*
X688246Y533135D01*
X688347Y533235D01*
X689000Y533665D01*
X689653Y533235D01*
X689754Y533135D01*
X690562Y532800D01*
X691438D01*
X692246Y533135D01*
X692347Y533235D01*
X693000Y533665D01*
X693653Y533235D01*
X693754Y533135D01*
X694562Y532800D01*
X695438D01*
X696246Y533135D01*
X696347Y533235D01*
X697000Y533665D01*
X697653Y533235D01*
X697754Y533135D01*
X698562Y532800D01*
X699438D01*
X700246Y533135D01*
X700865Y533754D01*
X701200Y534562D01*
Y535438D01*
X700865Y536246D01*
X700246Y536865D01*
X699438Y537200D01*
D02*
G37*
G36*
X714527Y542000D02*
X713473D01*
X712456Y541727D01*
X711544Y541201D01*
X710799Y540456D01*
X710273Y539544D01*
X710000Y538527D01*
Y537473D01*
X710273Y536456D01*
X710799Y535544D01*
X711544Y534799D01*
X712456Y534273D01*
X713473Y534000D01*
X714527D01*
X715544Y534273D01*
X716456Y534799D01*
X717201Y535544D01*
X717727Y536456D01*
X718000Y537473D01*
Y538527D01*
X717727Y539544D01*
X717201Y540456D01*
X716456Y541201D01*
X715544Y541727D01*
X714527Y542000D01*
D02*
G37*
G36*
X699438Y531200D02*
X698562D01*
X697754Y530865D01*
X697653Y530765D01*
X697000Y530335D01*
X696347Y530765D01*
X696246Y530865D01*
X695438Y531200D01*
X694562D01*
X693754Y530865D01*
X693653Y530765D01*
X693000Y530335D01*
X692347Y530765D01*
X692246Y530865D01*
X691438Y531200D01*
X690562D01*
X689754Y530865D01*
X689653Y530765D01*
X689000Y530335D01*
X688347Y530765D01*
X688246Y530865D01*
X687438Y531200D01*
X686562D01*
X685754Y530865D01*
X685135Y530246D01*
X684800Y529438D01*
Y528562D01*
X685135Y527754D01*
X685754Y527135D01*
X686562Y526800D01*
X687438D01*
X688246Y527135D01*
X688347Y527235D01*
X689000Y527665D01*
X689653Y527235D01*
X689754Y527135D01*
X690562Y526800D01*
X691438D01*
X692246Y527135D01*
X692347Y527235D01*
X693000Y527665D01*
X693653Y527235D01*
X693754Y527135D01*
X694562Y526800D01*
X695438D01*
X696246Y527135D01*
X696347Y527235D01*
X697000Y527665D01*
X697653Y527235D01*
X697754Y527135D01*
X698562Y526800D01*
X699438D01*
X700246Y527135D01*
X700865Y527754D01*
X701200Y528562D01*
Y529438D01*
X700865Y530246D01*
X700246Y530865D01*
X699438Y531200D01*
D02*
G37*
G36*
Y525200D02*
X698562D01*
X697754Y524865D01*
X697653Y524765D01*
X697000Y524335D01*
X696347Y524765D01*
X696246Y524865D01*
X695438Y525200D01*
X694562D01*
X693754Y524865D01*
X693653Y524765D01*
X693000Y524335D01*
X692347Y524765D01*
X692246Y524865D01*
X691438Y525200D01*
X690562D01*
X689754Y524865D01*
X689653Y524765D01*
X689000Y524335D01*
X688347Y524765D01*
X688246Y524865D01*
X687438Y525200D01*
X686562D01*
X685754Y524865D01*
X685135Y524246D01*
X684800Y523438D01*
Y522562D01*
X685135Y521754D01*
X685754Y521135D01*
X686562Y520800D01*
X687438D01*
X688246Y521135D01*
X688347Y521235D01*
X689000Y521665D01*
X689653Y521235D01*
X689754Y521135D01*
X690562Y520800D01*
X691438D01*
X692246Y521135D01*
X692347Y521235D01*
X693000Y521665D01*
X693653Y521235D01*
X693754Y521135D01*
X694562Y520800D01*
X695438D01*
X696246Y521135D01*
X696347Y521235D01*
X697000Y521665D01*
X697653Y521235D01*
X697754Y521135D01*
X698562Y520800D01*
X699438D01*
X700246Y521135D01*
X700865Y521754D01*
X701200Y522562D01*
Y523438D01*
X700865Y524246D01*
X700246Y524865D01*
X699438Y525200D01*
D02*
G37*
G36*
X605000Y525020D02*
X559500D01*
X559110Y524942D01*
X558779Y524721D01*
X558558Y524390D01*
X558480Y524000D01*
Y508000D01*
X558558Y507610D01*
X558779Y507279D01*
X559110Y507058D01*
X559500Y506980D01*
X605000D01*
X605390Y507058D01*
X605721Y507279D01*
X605942Y507610D01*
X606020Y508000D01*
Y524000D01*
X605942Y524390D01*
X605721Y524721D01*
X605390Y524942D01*
X605000Y525020D01*
D02*
G37*
G36*
X214438Y505700D02*
X213562D01*
X212754Y505365D01*
X212135Y504746D01*
X211800Y503938D01*
Y503062D01*
X212135Y502254D01*
X212754Y501635D01*
X213562Y501300D01*
X214438D01*
X215246Y501635D01*
X215865Y502254D01*
X216200Y503062D01*
Y503938D01*
X215865Y504746D01*
X215246Y505365D01*
X214438Y505700D01*
D02*
G37*
G36*
X742438Y498200D02*
X741562D01*
X740754Y497865D01*
X740653Y497765D01*
X740000Y497335D01*
X739347Y497765D01*
X739246Y497865D01*
X738438Y498200D01*
X737562D01*
X736754Y497865D01*
X736653Y497765D01*
X736000Y497335D01*
X735347Y497765D01*
X735246Y497865D01*
X734438Y498200D01*
X733562D01*
X732754Y497865D01*
X732653Y497765D01*
X732000Y497335D01*
X731347Y497765D01*
X731246Y497865D01*
X730438Y498200D01*
X729562D01*
X728754Y497865D01*
X728135Y497246D01*
X727800Y496438D01*
Y495562D01*
X728135Y494754D01*
X728754Y494135D01*
X729562Y493800D01*
X730438D01*
X731246Y494135D01*
X731347Y494235D01*
X732000Y494665D01*
X732653Y494235D01*
X732754Y494135D01*
X733562Y493800D01*
X734438D01*
X735246Y494135D01*
X735347Y494235D01*
X736000Y494665D01*
X736653Y494235D01*
X736754Y494135D01*
X737562Y493800D01*
X738438D01*
X739246Y494135D01*
X739347Y494235D01*
X740000Y494665D01*
X740653Y494235D01*
X740754Y494135D01*
X741562Y493800D01*
X742438D01*
X743246Y494135D01*
X743865Y494754D01*
X744200Y495562D01*
Y496438D01*
X743865Y497246D01*
X743246Y497865D01*
X742438Y498200D01*
D02*
G37*
G36*
X189938Y497700D02*
X189062D01*
X188254Y497365D01*
X187635Y496746D01*
X187300Y495938D01*
Y495062D01*
X187635Y494254D01*
X188254Y493635D01*
X189062Y493300D01*
X189938D01*
X190746Y493635D01*
X191365Y494254D01*
X191700Y495062D01*
Y495938D01*
X191365Y496746D01*
X190746Y497365D01*
X189938Y497700D01*
D02*
G37*
G36*
X649245Y500000D02*
X648370D01*
X647561Y499665D01*
X646942Y499046D01*
X646607Y498238D01*
Y497362D01*
X646942Y496554D01*
X647421Y496075D01*
X647500Y495493D01*
X647421Y494911D01*
X646942Y494432D01*
X646607Y493623D01*
Y492748D01*
X646942Y491940D01*
X647561Y491321D01*
X648370Y490986D01*
X649245D01*
X650053Y491321D01*
X650672Y491940D01*
X651007Y492748D01*
Y493623D01*
X650672Y494432D01*
X650194Y494911D01*
X650114Y495493D01*
X650194Y496075D01*
X650672Y496554D01*
X651007Y497362D01*
Y498238D01*
X650672Y499046D01*
X650053Y499665D01*
X649245Y500000D01*
D02*
G37*
G36*
X778754Y501724D02*
X777246D01*
X775791Y501334D01*
X774485Y500581D01*
X773419Y499515D01*
X772666Y498209D01*
X772276Y496754D01*
Y495246D01*
X772666Y493790D01*
X773419Y492485D01*
X774485Y491419D01*
X775791Y490666D01*
X777246Y490276D01*
X778754D01*
X780209Y490666D01*
X781515Y491419D01*
X782581Y492485D01*
X783334Y493790D01*
X783724Y495246D01*
Y496754D01*
X783334Y498209D01*
X782581Y499515D01*
X781515Y500581D01*
X780209Y501334D01*
X778754Y501724D01*
D02*
G37*
G36*
X742438Y490200D02*
X741562D01*
X740754Y489865D01*
X740653Y489765D01*
X740000Y489335D01*
X739347Y489765D01*
X739246Y489865D01*
X738438Y490200D01*
X737562D01*
X736754Y489865D01*
X736653Y489765D01*
X736000Y489335D01*
X735347Y489765D01*
X735246Y489865D01*
X734438Y490200D01*
X733562D01*
X732754Y489865D01*
X732653Y489765D01*
X732000Y489335D01*
X731347Y489765D01*
X731246Y489865D01*
X730438Y490200D01*
X729562D01*
X728754Y489865D01*
X728135Y489246D01*
X727800Y488438D01*
Y487562D01*
X728135Y486754D01*
X728754Y486135D01*
X729562Y485800D01*
X730438D01*
X731246Y486135D01*
X731347Y486235D01*
X732000Y486665D01*
X732653Y486235D01*
X732754Y486135D01*
X733562Y485800D01*
X734438D01*
X735246Y486135D01*
X735347Y486235D01*
X736000Y486665D01*
X736653Y486235D01*
X736754Y486135D01*
X737562Y485800D01*
X738438D01*
X739246Y486135D01*
X739347Y486235D01*
X740000Y486665D01*
X740653Y486235D01*
X740754Y486135D01*
X741562Y485800D01*
X742438D01*
X743246Y486135D01*
X743865Y486754D01*
X744200Y487562D01*
Y488438D01*
X743865Y489246D01*
X743246Y489865D01*
X742438Y490200D01*
D02*
G37*
G36*
Y482200D02*
X741562D01*
X740754Y481865D01*
X740653Y481765D01*
X740000Y481335D01*
X739347Y481765D01*
X739246Y481865D01*
X738438Y482200D01*
X737562D01*
X736754Y481865D01*
X736653Y481765D01*
X736000Y481335D01*
X735347Y481765D01*
X735246Y481865D01*
X734438Y482200D01*
X733562D01*
X732754Y481865D01*
X732653Y481765D01*
X732000Y481335D01*
X731347Y481765D01*
X731246Y481865D01*
X730438Y482200D01*
X729562D01*
X728754Y481865D01*
X728135Y481246D01*
X727800Y480438D01*
Y479562D01*
X728135Y478754D01*
X728754Y478135D01*
X729562Y477800D01*
X730438D01*
X731246Y478135D01*
X731347Y478235D01*
X732000Y478665D01*
X732653Y478235D01*
X732754Y478135D01*
X733562Y477800D01*
X734438D01*
X735246Y478135D01*
X735347Y478235D01*
X736000Y478665D01*
X736653Y478235D01*
X736754Y478135D01*
X737562Y477800D01*
X738438D01*
X739246Y478135D01*
X739347Y478235D01*
X740000Y478665D01*
X740653Y478235D01*
X740754Y478135D01*
X741562Y477800D01*
X742438D01*
X743246Y478135D01*
X743865Y478754D01*
X744200Y479562D01*
Y480438D01*
X743865Y481246D01*
X743246Y481865D01*
X742438Y482200D01*
D02*
G37*
G36*
X214438Y481700D02*
X213562D01*
X212754Y481365D01*
X212135Y480746D01*
X212041Y480520D01*
X210959D01*
X210865Y480746D01*
X210246Y481365D01*
X209438Y481700D01*
X208562D01*
X207754Y481365D01*
X207135Y480746D01*
X206800Y479938D01*
Y479062D01*
X207135Y478254D01*
X207754Y477635D01*
X208562Y477300D01*
X209438D01*
X210246Y477635D01*
X210865Y478254D01*
X210959Y478480D01*
X212041D01*
X212135Y478254D01*
X212754Y477635D01*
X213562Y477300D01*
X214438D01*
X215246Y477635D01*
X215865Y478254D01*
X216200Y479062D01*
Y479938D01*
X215865Y480746D01*
X215246Y481365D01*
X214438Y481700D01*
D02*
G37*
G36*
X537050Y515580D02*
X536590Y515520D01*
X531300D01*
X530910Y515442D01*
X530579Y515221D01*
X530358Y514890D01*
X530280Y514500D01*
Y494800D01*
X530358Y494410D01*
X530579Y494079D01*
X530579Y494079D01*
X548879Y475779D01*
X549210Y475558D01*
X549600Y475480D01*
X567000D01*
X567390Y475558D01*
X567721Y475779D01*
X567942Y476110D01*
X568020Y476500D01*
Y492000D01*
X567942Y492390D01*
X567721Y492721D01*
X567390Y492942D01*
X567000Y493020D01*
X548422D01*
X542520Y498922D01*
Y514500D01*
X542442Y514890D01*
X542221Y515221D01*
X541890Y515442D01*
X541500Y515520D01*
X537510D01*
X537050Y515580D01*
D02*
G37*
G36*
X742438Y474200D02*
X741562D01*
X740754Y473865D01*
X740653Y473765D01*
X740000Y473335D01*
X739347Y473765D01*
X739246Y473865D01*
X738438Y474200D01*
X737562D01*
X736754Y473865D01*
X736653Y473765D01*
X736000Y473335D01*
X735347Y473765D01*
X735246Y473865D01*
X734438Y474200D01*
X733562D01*
X732754Y473865D01*
X732653Y473765D01*
X732000Y473335D01*
X731347Y473765D01*
X731246Y473865D01*
X730438Y474200D01*
X729562D01*
X728754Y473865D01*
X728135Y473246D01*
X727800Y472438D01*
Y471562D01*
X728135Y470754D01*
X728754Y470135D01*
X729562Y469800D01*
X730438D01*
X731246Y470135D01*
X731347Y470235D01*
X732000Y470665D01*
X732653Y470235D01*
X732754Y470135D01*
X733562Y469800D01*
X734438D01*
X735246Y470135D01*
X735347Y470235D01*
X736000Y470665D01*
X736653Y470235D01*
X736754Y470135D01*
X737562Y469800D01*
X738438D01*
X739246Y470135D01*
X739347Y470235D01*
X740000Y470665D01*
X740653Y470235D01*
X740754Y470135D01*
X741562Y469800D01*
X742438D01*
X743246Y470135D01*
X743865Y470754D01*
X744200Y471562D01*
Y472438D01*
X743865Y473246D01*
X743246Y473865D01*
X742438Y474200D01*
D02*
G37*
G36*
X138438Y473200D02*
X137562D01*
X136754Y472865D01*
X136135Y472246D01*
X135800Y471438D01*
Y470562D01*
X136135Y469754D01*
X136754Y469135D01*
X137562Y468800D01*
X138438D01*
X139246Y469135D01*
X139865Y469754D01*
X140200Y470562D01*
Y471438D01*
X139865Y472246D01*
X139246Y472865D01*
X138438Y473200D01*
D02*
G37*
G36*
X293395Y478000D02*
X292605D01*
X291842Y477796D01*
X291158Y477401D01*
X290599Y476842D01*
X290204Y476158D01*
X290000Y475395D01*
Y474605D01*
X290162Y474000D01*
X290000Y473000D01*
X290000D01*
Y467000D01*
X296000D01*
Y473000D01*
X296000Y473000D01*
X295838Y474000D01*
X296000Y474605D01*
Y475395D01*
X295796Y476158D01*
X295401Y476842D01*
X294842Y477401D01*
X294158Y477796D01*
X293395Y478000D01*
D02*
G37*
G36*
X323456Y474811D02*
X322411D01*
X321401Y474541D01*
X320496Y474018D01*
X319758Y473279D01*
X319235Y472374D01*
X318965Y471365D01*
Y470320D01*
X319235Y469311D01*
X319758Y468406D01*
X320496Y467667D01*
X321401Y467144D01*
X322411Y466874D01*
X323456D01*
X324465Y467144D01*
X325370Y467667D01*
X326109Y468406D01*
X326631Y469311D01*
X326902Y470320D01*
Y471365D01*
X326631Y472374D01*
X326109Y473279D01*
X325370Y474018D01*
X324465Y474541D01*
X323456Y474811D01*
D02*
G37*
G36*
X160938Y470200D02*
X160062D01*
X159254Y469865D01*
X158635Y469246D01*
X158300Y468438D01*
Y467562D01*
X158635Y466754D01*
X159254Y466135D01*
X160062Y465800D01*
X160938D01*
X161746Y466135D01*
X162365Y466754D01*
X162700Y467562D01*
Y468438D01*
X162365Y469246D01*
X161746Y469865D01*
X160938Y470200D01*
D02*
G37*
G36*
X742438Y466200D02*
X741562D01*
X740754Y465865D01*
X740653Y465765D01*
X740000Y465335D01*
X739347Y465765D01*
X739246Y465865D01*
X738438Y466200D01*
X737562D01*
X736754Y465865D01*
X736653Y465765D01*
X736000Y465335D01*
X735347Y465765D01*
X735246Y465865D01*
X734438Y466200D01*
X733562D01*
X732754Y465865D01*
X732653Y465765D01*
X732000Y465335D01*
X731347Y465765D01*
X731246Y465865D01*
X730438Y466200D01*
X729562D01*
X728754Y465865D01*
X728135Y465246D01*
X727800Y464438D01*
Y463562D01*
X728135Y462754D01*
X728754Y462135D01*
X729562Y461800D01*
X730438D01*
X731246Y462135D01*
X731347Y462235D01*
X732000Y462665D01*
X732653Y462235D01*
X732754Y462135D01*
X733562Y461800D01*
X734438D01*
X735246Y462135D01*
X735347Y462235D01*
X736000Y462665D01*
X736653Y462235D01*
X736754Y462135D01*
X737562Y461800D01*
X738438D01*
X739246Y462135D01*
X739347Y462235D01*
X740000Y462665D01*
X740653Y462235D01*
X740754Y462135D01*
X741562Y461800D01*
X742438D01*
X743246Y462135D01*
X743865Y462754D01*
X744200Y463562D01*
Y464438D01*
X743865Y465246D01*
X743246Y465865D01*
X742438Y466200D01*
D02*
G37*
G36*
X168738Y467300D02*
X167862D01*
X167054Y466965D01*
X166435Y466346D01*
X166100Y465538D01*
Y464662D01*
X166435Y463854D01*
X167054Y463235D01*
X167862Y462900D01*
X168738D01*
X169546Y463235D01*
X170165Y463854D01*
X170500Y464662D01*
Y465538D01*
X170165Y466346D01*
X169546Y466965D01*
X168738Y467300D01*
D02*
G37*
G36*
X97438Y462200D02*
X96562D01*
X95754Y461865D01*
X95753Y461865D01*
X95100Y461278D01*
X94447Y461865D01*
X94446Y461865D01*
X93638Y462200D01*
X92762D01*
X91954Y461865D01*
X91335Y461246D01*
X91000Y460438D01*
Y459562D01*
X91335Y458754D01*
X91954Y458135D01*
X92762Y457800D01*
X93638D01*
X94446Y458135D01*
X94447Y458135D01*
X95100Y458722D01*
X95753Y458135D01*
X95754Y458135D01*
X96562Y457800D01*
X97438D01*
X98246Y458135D01*
X98865Y458754D01*
X99200Y459562D01*
Y460438D01*
X98865Y461246D01*
X98246Y461865D01*
X97438Y462200D01*
D02*
G37*
G36*
X778754Y471724D02*
X777246D01*
X775791Y471334D01*
X774485Y470581D01*
X773419Y469515D01*
X772666Y468210D01*
X772276Y466754D01*
Y465246D01*
X772666Y463791D01*
X773419Y462485D01*
X774485Y461419D01*
X775791Y460666D01*
X777246Y460276D01*
X778754D01*
X780209Y460666D01*
X781515Y461419D01*
X782581Y462485D01*
X783334Y463791D01*
X783724Y465246D01*
Y466754D01*
X783334Y468210D01*
X782581Y469515D01*
X781515Y470581D01*
X780209Y471334D01*
X778754Y471724D01*
D02*
G37*
G36*
X163138Y463800D02*
X162262D01*
X161454Y463465D01*
X160835Y462846D01*
X160500Y462038D01*
Y461162D01*
X160835Y460354D01*
X161454Y459735D01*
X162262Y459400D01*
X163138D01*
X163946Y459735D01*
X164565Y460354D01*
X164900Y461162D01*
Y462038D01*
X164565Y462846D01*
X163946Y463465D01*
X163138Y463800D01*
D02*
G37*
G36*
X323456Y464968D02*
X322411D01*
X321401Y464698D01*
X320496Y464176D01*
X319758Y463437D01*
X319235Y462532D01*
X318965Y461522D01*
Y460477D01*
X319235Y459468D01*
X319758Y458563D01*
X320496Y457824D01*
X321401Y457302D01*
X322411Y457031D01*
X323456D01*
X324465Y457302D01*
X325370Y457824D01*
X326109Y458563D01*
X326631Y459468D01*
X326902Y460477D01*
Y461522D01*
X326631Y462532D01*
X326109Y463437D01*
X325370Y464176D01*
X324465Y464698D01*
X323456Y464968D01*
D02*
G37*
G36*
X110438Y463200D02*
X109562D01*
X108754Y462865D01*
X108135Y462246D01*
X107800Y461438D01*
Y460562D01*
X108135Y459754D01*
X108235Y459653D01*
X108665Y459000D01*
X108235Y458347D01*
X108135Y458246D01*
X107800Y457438D01*
Y456562D01*
X108135Y455754D01*
X108754Y455135D01*
X109562Y454800D01*
X110438D01*
X111246Y455135D01*
X111865Y455754D01*
X112200Y456562D01*
Y457438D01*
X111865Y458246D01*
X111765Y458347D01*
X111335Y459000D01*
X111765Y459653D01*
X111865Y459754D01*
X112200Y460562D01*
Y461438D01*
X111865Y462246D01*
X111246Y462865D01*
X110438Y463200D01*
D02*
G37*
G36*
X267123Y462094D02*
X266247D01*
X265439Y461759D01*
X264820Y461140D01*
X264485Y460331D01*
Y459456D01*
X264820Y458647D01*
X265439Y458029D01*
X265590Y457966D01*
Y456884D01*
X265545Y456865D01*
X264926Y456246D01*
X264591Y455438D01*
Y454562D01*
X264926Y453754D01*
X265545Y453135D01*
X266354Y452800D01*
X267229D01*
X268038Y453135D01*
X268656Y453754D01*
X268991Y454562D01*
Y455438D01*
X268656Y456246D01*
X268038Y456865D01*
X267886Y456928D01*
Y458010D01*
X267931Y458029D01*
X268550Y458647D01*
X268885Y459456D01*
Y460331D01*
X268550Y461140D01*
X267931Y461759D01*
X267123Y462094D01*
D02*
G37*
G36*
X151000Y477020D02*
X147000D01*
X146610Y476942D01*
X146279Y476721D01*
X146058Y476390D01*
X145980Y476000D01*
Y464922D01*
X137779Y456721D01*
X120000D01*
X119610Y456643D01*
X119279Y456422D01*
X119058Y456091D01*
X118980Y455701D01*
Y454148D01*
X118951Y454000D01*
X118980Y453852D01*
Y452000D01*
X119058Y451610D01*
X119279Y451279D01*
X119610Y451058D01*
X120000Y450980D01*
X140000D01*
X140390Y451058D01*
X140721Y451279D01*
X151721Y462279D01*
X151942Y462610D01*
X152020Y463000D01*
Y476000D01*
X151942Y476390D01*
X151721Y476721D01*
X151390Y476942D01*
X151000Y477020D01*
D02*
G37*
G36*
X289938Y452400D02*
X289062D01*
X288254Y452065D01*
X287635Y451446D01*
X287300Y450638D01*
Y449762D01*
X287635Y448954D01*
X288254Y448335D01*
X289062Y448000D01*
X289938D01*
X290746Y448335D01*
X291365Y448954D01*
X291700Y449762D01*
Y450638D01*
X291365Y451446D01*
X290746Y452065D01*
X289938Y452400D01*
D02*
G37*
G36*
X323456Y455126D02*
X322411D01*
X321401Y454855D01*
X320496Y454333D01*
X319758Y453594D01*
X319235Y452689D01*
X318965Y451680D01*
Y450635D01*
X319235Y449626D01*
X319758Y448721D01*
X320496Y447982D01*
X321401Y447459D01*
X322411Y447189D01*
X323456D01*
X324465Y447459D01*
X325370Y447982D01*
X326109Y448721D01*
X326631Y449626D01*
X326902Y450635D01*
Y451680D01*
X326631Y452689D01*
X326109Y453594D01*
X325370Y454333D01*
X324465Y454855D01*
X323456Y455126D01*
D02*
G37*
G36*
X752438Y454200D02*
X751562D01*
X750754Y453865D01*
X750135Y453246D01*
X749800Y452438D01*
Y451562D01*
X750135Y450754D01*
X750235Y450653D01*
X750665Y450000D01*
X750235Y449347D01*
X750135Y449246D01*
X749800Y448438D01*
Y447562D01*
X750135Y446754D01*
X750754Y446135D01*
X751562Y445800D01*
X752438D01*
X753246Y446135D01*
X753865Y446754D01*
X754200Y447562D01*
Y448438D01*
X753865Y449246D01*
X753765Y449347D01*
X753335Y450000D01*
X753765Y450653D01*
X753865Y450754D01*
X754200Y451562D01*
Y452438D01*
X753865Y453246D01*
X753246Y453865D01*
X752438Y454200D01*
D02*
G37*
G36*
X742438Y456200D02*
X741562D01*
X740754Y455865D01*
X740135Y455246D01*
X739800Y454438D01*
Y453562D01*
X740135Y452754D01*
X740235Y452653D01*
X740665Y452000D01*
X740235Y451347D01*
X740135Y451246D01*
X739800Y450438D01*
Y449562D01*
X740135Y448754D01*
X740235Y448653D01*
X740665Y448000D01*
X740235Y447347D01*
X740135Y447246D01*
X739800Y446438D01*
Y445562D01*
X740135Y444754D01*
X740754Y444135D01*
X741562Y443800D01*
X742438D01*
X743246Y444135D01*
X743865Y444754D01*
X744130Y445393D01*
X744307Y445604D01*
X745200Y445950D01*
X745562Y445800D01*
X746438D01*
X747246Y446135D01*
X747865Y446754D01*
X748200Y447562D01*
Y448438D01*
X747865Y449246D01*
X747765Y449347D01*
X747335Y450000D01*
X747765Y450653D01*
X747865Y450754D01*
X748200Y451562D01*
Y452438D01*
X747865Y453246D01*
X747246Y453865D01*
X746438Y454200D01*
X745562D01*
X745200Y454050D01*
X744307Y454396D01*
X744130Y454607D01*
X743865Y455246D01*
X743246Y455865D01*
X742438Y456200D01*
D02*
G37*
G36*
X736438D02*
X735562D01*
X734754Y455865D01*
X734135Y455246D01*
X733800Y454438D01*
Y453562D01*
X734135Y452754D01*
X734235Y452653D01*
X734665Y452000D01*
X734235Y451347D01*
X734135Y451246D01*
X733800Y450438D01*
Y449562D01*
X734135Y448754D01*
X734235Y448653D01*
X734665Y448000D01*
X734235Y447347D01*
X734135Y447246D01*
X733800Y446438D01*
Y445562D01*
X734135Y444754D01*
X734754Y444135D01*
X735562Y443800D01*
X736438D01*
X737246Y444135D01*
X737865Y444754D01*
X738200Y445562D01*
Y446438D01*
X737865Y447246D01*
X737765Y447347D01*
X737335Y448000D01*
X737765Y448653D01*
X737865Y448754D01*
X738200Y449562D01*
Y450438D01*
X737865Y451246D01*
X737765Y451347D01*
X737335Y452000D01*
X737765Y452653D01*
X737865Y452754D01*
X738200Y453562D01*
Y454438D01*
X737865Y455246D01*
X737246Y455865D01*
X736438Y456200D01*
D02*
G37*
G36*
X730438D02*
X729562D01*
X728754Y455865D01*
X728135Y455246D01*
X727800Y454438D01*
Y453562D01*
X728135Y452754D01*
X728235Y452653D01*
X728665Y452000D01*
X728235Y451347D01*
X728135Y451246D01*
X727800Y450438D01*
Y449562D01*
X728135Y448754D01*
X728235Y448653D01*
X728665Y448000D01*
X728235Y447347D01*
X728135Y447246D01*
X727800Y446438D01*
Y445562D01*
X728135Y444754D01*
X728754Y444135D01*
X729562Y443800D01*
X730438D01*
X731246Y444135D01*
X731865Y444754D01*
X732200Y445562D01*
Y446438D01*
X731865Y447246D01*
X731765Y447347D01*
X731335Y448000D01*
X731765Y448653D01*
X731865Y448754D01*
X732200Y449562D01*
Y450438D01*
X731865Y451246D01*
X731765Y451347D01*
X731335Y452000D01*
X731765Y452653D01*
X731865Y452754D01*
X732200Y453562D01*
Y454438D01*
X731865Y455246D01*
X731246Y455865D01*
X730438Y456200D01*
D02*
G37*
G36*
X724438D02*
X723562D01*
X722754Y455865D01*
X722135Y455246D01*
X721800Y454438D01*
Y453562D01*
X722135Y452754D01*
X722235Y452653D01*
X722665Y452000D01*
X722235Y451347D01*
X722135Y451246D01*
X721800Y450438D01*
Y449562D01*
X722135Y448754D01*
X722235Y448653D01*
X722665Y448000D01*
X722235Y447347D01*
X722135Y447246D01*
X721800Y446438D01*
Y445562D01*
X722135Y444754D01*
X722754Y444135D01*
X723562Y443800D01*
X724438D01*
X725246Y444135D01*
X725865Y444754D01*
X726200Y445562D01*
Y446438D01*
X725865Y447246D01*
X725765Y447347D01*
X725335Y448000D01*
X725765Y448653D01*
X725865Y448754D01*
X726200Y449562D01*
Y450438D01*
X725865Y451246D01*
X725765Y451347D01*
X725335Y452000D01*
X725765Y452653D01*
X725865Y452754D01*
X726200Y453562D01*
Y454438D01*
X725865Y455246D01*
X725246Y455865D01*
X724438Y456200D01*
D02*
G37*
G36*
X290138Y447000D02*
X289262D01*
X288454Y446665D01*
X287835Y446046D01*
X287500Y445238D01*
Y444362D01*
X287835Y443554D01*
X288454Y442935D01*
X289262Y442600D01*
X290138D01*
X290946Y442935D01*
X291565Y443554D01*
X291900Y444362D01*
Y445238D01*
X291565Y446046D01*
X290946Y446665D01*
X290138Y447000D01*
D02*
G37*
G36*
X741938Y439700D02*
X741062D01*
X740254Y439365D01*
X740153Y439265D01*
X739500Y438835D01*
X738847Y439265D01*
X738746Y439365D01*
X737938Y439700D01*
X737062D01*
X736254Y439365D01*
X736153Y439265D01*
X735500Y438835D01*
X734847Y439265D01*
X734746Y439365D01*
X733938Y439700D01*
X733062D01*
X732254Y439365D01*
X732153Y439265D01*
X731500Y438835D01*
X730847Y439265D01*
X730746Y439365D01*
X729938Y439700D01*
X729062D01*
X728254Y439365D01*
X727635Y438746D01*
X727300Y437938D01*
Y437062D01*
X727635Y436254D01*
X728254Y435635D01*
X729062Y435300D01*
X729938D01*
X730746Y435635D01*
X730847Y435735D01*
X731500Y436165D01*
X732153Y435735D01*
X732254Y435635D01*
X733062Y435300D01*
X733938D01*
X734746Y435635D01*
X734847Y435735D01*
X735500Y436165D01*
X736153Y435735D01*
X736254Y435635D01*
X737062Y435300D01*
X737938D01*
X738746Y435635D01*
X738847Y435735D01*
X739500Y436165D01*
X740153Y435735D01*
X740254Y435635D01*
X741062Y435300D01*
X741938D01*
X742746Y435635D01*
X743365Y436254D01*
X743700Y437062D01*
Y437938D01*
X743365Y438746D01*
X742746Y439365D01*
X741938Y439700D01*
D02*
G37*
G36*
X323456Y445284D02*
X322411D01*
X321401Y445013D01*
X320496Y444490D01*
X319758Y443752D01*
X319235Y442847D01*
X318965Y441837D01*
Y440793D01*
X319235Y439783D01*
X319758Y438878D01*
X320496Y438139D01*
X321401Y437617D01*
X322411Y437347D01*
X323456D01*
X324465Y437617D01*
X325370Y438139D01*
X326109Y438878D01*
X326631Y439783D01*
X326902Y440793D01*
Y441837D01*
X326631Y442847D01*
X326109Y443752D01*
X325370Y444490D01*
X324465Y445013D01*
X323456Y445284D01*
D02*
G37*
G36*
X168938Y439200D02*
X168062D01*
X167254Y438865D01*
X166635Y438246D01*
X166300Y437438D01*
Y436562D01*
X166635Y435754D01*
X167254Y435135D01*
X168062Y434800D01*
X168938D01*
X169746Y435135D01*
X170365Y435754D01*
X170700Y436562D01*
Y437438D01*
X170365Y438246D01*
X169746Y438865D01*
X168938Y439200D01*
D02*
G37*
G36*
X160938Y438700D02*
X160062D01*
X159254Y438365D01*
X158635Y437746D01*
X158300Y436938D01*
Y436062D01*
X158635Y435254D01*
X159254Y434635D01*
X160062Y434300D01*
X160938D01*
X161746Y434635D01*
X162365Y435254D01*
X162700Y436062D01*
Y436938D01*
X162365Y437746D01*
X161746Y438365D01*
X160938Y438700D01*
D02*
G37*
G36*
X280938Y437200D02*
X280062D01*
X279254Y436865D01*
X278635Y436246D01*
X278300Y435438D01*
Y434562D01*
X278635Y433754D01*
X279254Y433135D01*
X280062Y432800D01*
X280938D01*
X281746Y433135D01*
X282365Y433754D01*
X282700Y434562D01*
Y435438D01*
X282365Y436246D01*
X281746Y436865D01*
X280938Y437200D01*
D02*
G37*
G36*
X741938Y431700D02*
X741062D01*
X740254Y431365D01*
X740153Y431265D01*
X739500Y430835D01*
X738847Y431265D01*
X738746Y431365D01*
X737938Y431700D01*
X737062D01*
X736254Y431365D01*
X736153Y431265D01*
X735500Y430835D01*
X734847Y431265D01*
X734746Y431365D01*
X733938Y431700D01*
X733062D01*
X732254Y431365D01*
X732153Y431265D01*
X731500Y430835D01*
X730847Y431265D01*
X730746Y431365D01*
X729938Y431700D01*
X729062D01*
X728254Y431365D01*
X727635Y430746D01*
X727300Y429938D01*
Y429062D01*
X727635Y428254D01*
X728254Y427635D01*
X729062Y427300D01*
X729938D01*
X730746Y427635D01*
X730847Y427735D01*
X731500Y428165D01*
X732153Y427735D01*
X732254Y427635D01*
X733062Y427300D01*
X733938D01*
X734746Y427635D01*
X734847Y427735D01*
X735500Y428165D01*
X736153Y427735D01*
X736254Y427635D01*
X737062Y427300D01*
X737938D01*
X738746Y427635D01*
X738847Y427735D01*
X739500Y428165D01*
X740153Y427735D01*
X740254Y427635D01*
X741062Y427300D01*
X741938D01*
X742746Y427635D01*
X743365Y428254D01*
X743700Y429062D01*
Y429938D01*
X743365Y430746D01*
X742746Y431365D01*
X741938Y431700D01*
D02*
G37*
G36*
X778754Y435724D02*
X777246D01*
X775791Y435334D01*
X774485Y434581D01*
X773419Y433515D01*
X772666Y432209D01*
X772276Y430754D01*
Y429246D01*
X772666Y427790D01*
X773419Y426485D01*
X774485Y425419D01*
X775791Y424666D01*
X777246Y424276D01*
X778754D01*
X780209Y424666D01*
X781515Y425419D01*
X782581Y426485D01*
X783334Y427790D01*
X783724Y429246D01*
Y430754D01*
X783334Y432209D01*
X782581Y433515D01*
X781515Y434581D01*
X780209Y435334D01*
X778754Y435724D01*
D02*
G37*
G36*
X741938Y423700D02*
X741062D01*
X740254Y423365D01*
X740153Y423265D01*
X739500Y422835D01*
X738847Y423265D01*
X738746Y423365D01*
X737938Y423700D01*
X737062D01*
X736254Y423365D01*
X736153Y423265D01*
X735500Y422835D01*
X734847Y423265D01*
X734746Y423365D01*
X733938Y423700D01*
X733062D01*
X732254Y423365D01*
X732153Y423265D01*
X731500Y422835D01*
X730847Y423265D01*
X730746Y423365D01*
X729938Y423700D01*
X729062D01*
X728254Y423365D01*
X727635Y422746D01*
X727300Y421938D01*
Y421062D01*
X727635Y420254D01*
X728254Y419635D01*
X729062Y419300D01*
X729938D01*
X730746Y419635D01*
X730847Y419735D01*
X731500Y420165D01*
X732153Y419735D01*
X732254Y419635D01*
X733062Y419300D01*
X733938D01*
X734746Y419635D01*
X734847Y419735D01*
X735500Y420165D01*
X736153Y419735D01*
X736254Y419635D01*
X737062Y419300D01*
X737938D01*
X738746Y419635D01*
X738847Y419735D01*
X739500Y420165D01*
X740153Y419735D01*
X740254Y419635D01*
X741062Y419300D01*
X741938D01*
X742746Y419635D01*
X743365Y420254D01*
X743700Y421062D01*
Y421938D01*
X743365Y422746D01*
X742746Y423365D01*
X741938Y423700D01*
D02*
G37*
G36*
Y415700D02*
X741062D01*
X740254Y415365D01*
X740153Y415265D01*
X739500Y414835D01*
X738847Y415265D01*
X738746Y415365D01*
X737938Y415700D01*
X737062D01*
X736254Y415365D01*
X736153Y415265D01*
X735500Y414835D01*
X734847Y415265D01*
X734746Y415365D01*
X733938Y415700D01*
X733062D01*
X732254Y415365D01*
X732153Y415265D01*
X731500Y414835D01*
X730847Y415265D01*
X730746Y415365D01*
X729938Y415700D01*
X729062D01*
X728254Y415365D01*
X727635Y414746D01*
X727300Y413938D01*
Y413062D01*
X727635Y412254D01*
X728254Y411635D01*
X729062Y411300D01*
X729938D01*
X730746Y411635D01*
X730847Y411735D01*
X731500Y412165D01*
X732153Y411735D01*
X732254Y411635D01*
X733062Y411300D01*
X733938D01*
X734746Y411635D01*
X734847Y411735D01*
X735500Y412165D01*
X736153Y411735D01*
X736254Y411635D01*
X737062Y411300D01*
X737938D01*
X738746Y411635D01*
X738847Y411735D01*
X739500Y412165D01*
X740153Y411735D01*
X740254Y411635D01*
X741062Y411300D01*
X741938D01*
X742746Y411635D01*
X743365Y412254D01*
X743700Y413062D01*
Y413938D01*
X743365Y414746D01*
X742746Y415365D01*
X741938Y415700D01*
D02*
G37*
G36*
X650552Y414314D02*
X649677D01*
X648868Y413979D01*
X648249Y413360D01*
X647914Y412552D01*
Y411677D01*
X648249Y410868D01*
X648868Y410249D01*
X649677Y409914D01*
X650552D01*
X651360Y410249D01*
X651979Y410868D01*
X652314Y411677D01*
Y412552D01*
X651979Y413360D01*
X651360Y413979D01*
X650552Y414314D01*
D02*
G37*
G36*
X741938Y407700D02*
X741062D01*
X740254Y407365D01*
X740153Y407265D01*
X739500Y406835D01*
X738847Y407265D01*
X738746Y407365D01*
X737938Y407700D01*
X737062D01*
X736254Y407365D01*
X736153Y407265D01*
X735500Y406835D01*
X734847Y407265D01*
X734746Y407365D01*
X733938Y407700D01*
X733062D01*
X732254Y407365D01*
X732153Y407265D01*
X731500Y406835D01*
X730847Y407265D01*
X730746Y407365D01*
X729938Y407700D01*
X729062D01*
X728254Y407365D01*
X727635Y406746D01*
X727300Y405938D01*
Y405062D01*
X727635Y404254D01*
X728254Y403635D01*
X729062Y403300D01*
X729938D01*
X730746Y403635D01*
X730847Y403735D01*
X731500Y404165D01*
X732153Y403735D01*
X732254Y403635D01*
X733062Y403300D01*
X733938D01*
X734746Y403635D01*
X734847Y403735D01*
X735500Y404165D01*
X736153Y403735D01*
X736254Y403635D01*
X737062Y403300D01*
X737938D01*
X738746Y403635D01*
X738847Y403735D01*
X739500Y404165D01*
X740153Y403735D01*
X740254Y403635D01*
X741062Y403300D01*
X741938D01*
X742746Y403635D01*
X743365Y404254D01*
X743700Y405062D01*
Y405938D01*
X743365Y406746D01*
X742746Y407365D01*
X741938Y407700D01*
D02*
G37*
G36*
X234696Y413543D02*
X233821D01*
X233012Y413208D01*
X232393Y412589D01*
X232058Y411781D01*
Y410905D01*
X232393Y410097D01*
X232644Y409846D01*
X232879Y409159D01*
X232627Y408556D01*
X232349Y408279D01*
X232014Y407470D01*
Y406595D01*
X232349Y405786D01*
X232968Y405167D01*
X233776Y404832D01*
X234652D01*
X235460Y405167D01*
X236079Y405786D01*
X236414Y406595D01*
Y407470D01*
X236079Y408279D01*
X235828Y408530D01*
X235594Y409216D01*
X235845Y409819D01*
X236123Y410097D01*
X236458Y410905D01*
Y411781D01*
X236123Y412589D01*
X235504Y413208D01*
X234696Y413543D01*
D02*
G37*
G36*
X283438Y405700D02*
X282562D01*
X281754Y405365D01*
X281135Y404746D01*
X280800Y403938D01*
Y403062D01*
X281135Y402254D01*
X281754Y401635D01*
X282562Y401300D01*
X283438D01*
X284246Y401635D01*
X284865Y402254D01*
X285200Y403062D01*
Y403938D01*
X284865Y404746D01*
X284246Y405365D01*
X283438Y405700D01*
D02*
G37*
G36*
X323456Y404811D02*
X322411D01*
X321401Y404541D01*
X320496Y404018D01*
X319758Y403279D01*
X319235Y402374D01*
X318965Y401365D01*
Y400320D01*
X319235Y399311D01*
X319758Y398406D01*
X320496Y397667D01*
X321401Y397145D01*
X322411Y396874D01*
X323456D01*
X324465Y397145D01*
X325370Y397667D01*
X326109Y398406D01*
X326631Y399311D01*
X326902Y400320D01*
Y401365D01*
X326631Y402374D01*
X326109Y403279D01*
X325370Y404018D01*
X324465Y404541D01*
X323456Y404811D01*
D02*
G37*
G36*
X778754Y405724D02*
X777246D01*
X775791Y405334D01*
X774485Y404581D01*
X773419Y403515D01*
X772666Y402210D01*
X772276Y400754D01*
Y399246D01*
X772666Y397791D01*
X773419Y396485D01*
X774485Y395419D01*
X775791Y394666D01*
X777246Y394276D01*
X778754D01*
X780209Y394666D01*
X781515Y395419D01*
X782581Y396485D01*
X783334Y397791D01*
X783724Y399246D01*
Y400754D01*
X783334Y402210D01*
X782581Y403515D01*
X781515Y404581D01*
X780209Y405334D01*
X778754Y405724D01*
D02*
G37*
G36*
X323456Y394969D02*
X322411D01*
X321401Y394698D01*
X320496Y394176D01*
X319758Y393437D01*
X319235Y392532D01*
X318965Y391523D01*
Y390477D01*
X319235Y389468D01*
X319758Y388563D01*
X320496Y387824D01*
X321401Y387302D01*
X322411Y387032D01*
X323456D01*
X324465Y387302D01*
X325370Y387824D01*
X326109Y388563D01*
X326631Y389468D01*
X326902Y390477D01*
Y391523D01*
X326631Y392532D01*
X326109Y393437D01*
X325370Y394176D01*
X324465Y394698D01*
X323456Y394969D01*
D02*
G37*
G36*
X248438Y383700D02*
X247562D01*
X246754Y383365D01*
X246653Y383265D01*
X246000Y382835D01*
X245347Y383265D01*
X245246Y383365D01*
X244438Y383700D01*
X243562D01*
X242754Y383365D01*
X242135Y382746D01*
X241800Y381938D01*
Y381062D01*
X242135Y380254D01*
X242754Y379635D01*
X243562Y379300D01*
X244438D01*
X245246Y379635D01*
X245347Y379735D01*
X246000Y380165D01*
X246653Y379735D01*
X246754Y379635D01*
X247562Y379300D01*
X248438D01*
X249246Y379635D01*
X249865Y380254D01*
X250200Y381062D01*
Y381938D01*
X249865Y382746D01*
X249246Y383365D01*
X248438Y383700D01*
D02*
G37*
G36*
X283438D02*
X282562D01*
X281754Y383365D01*
X281653Y383265D01*
X281096Y382772D01*
X280347Y383265D01*
X280341Y383271D01*
X279532Y383606D01*
X278657D01*
X277848Y383271D01*
X277229Y382652D01*
X276894Y381843D01*
Y380968D01*
X277229Y380159D01*
X277848Y379540D01*
X278657Y379205D01*
X279532D01*
X280341Y379540D01*
X280441Y379641D01*
X280999Y380134D01*
X281748Y379641D01*
X281754Y379635D01*
X282562Y379300D01*
X283438D01*
X284246Y379635D01*
X284865Y380254D01*
X285200Y381062D01*
Y381938D01*
X284865Y382746D01*
X284246Y383365D01*
X283438Y383700D01*
D02*
G37*
G36*
X323456Y385126D02*
X322411D01*
X321401Y384856D01*
X320496Y384333D01*
X319758Y383594D01*
X319235Y382689D01*
X318965Y381680D01*
Y380635D01*
X319235Y379626D01*
X319758Y378721D01*
X320496Y377982D01*
X321401Y377459D01*
X322411Y377189D01*
X323456D01*
X324465Y377459D01*
X325370Y377982D01*
X326109Y378721D01*
X326631Y379626D01*
X326902Y380635D01*
Y381680D01*
X326631Y382689D01*
X326109Y383594D01*
X325370Y384333D01*
X324465Y384856D01*
X323456Y385126D01*
D02*
G37*
G36*
X702438Y375200D02*
X701562D01*
X700754Y374865D01*
X700653Y374765D01*
X700000Y374335D01*
X699347Y374765D01*
X699246Y374865D01*
X698438Y375200D01*
X697562D01*
X696754Y374865D01*
X696653Y374765D01*
X696000Y374335D01*
X695347Y374765D01*
X695246Y374865D01*
X694438Y375200D01*
X693562D01*
X692754Y374865D01*
X692653Y374765D01*
X692000Y374335D01*
X691347Y374765D01*
X691246Y374865D01*
X690438Y375200D01*
X689562D01*
X688754Y374865D01*
X688135Y374246D01*
X687800Y373438D01*
Y372562D01*
X688135Y371754D01*
X688754Y371135D01*
X689562Y370800D01*
X690438D01*
X691246Y371135D01*
X691347Y371235D01*
X692000Y371665D01*
X692653Y371235D01*
X692754Y371135D01*
X693562Y370800D01*
X694438D01*
X695246Y371135D01*
X695347Y371235D01*
X696000Y371665D01*
X696653Y371235D01*
X696754Y371135D01*
X697562Y370800D01*
X698438D01*
X699246Y371135D01*
X699347Y371235D01*
X700000Y371665D01*
X700653Y371235D01*
X700754Y371135D01*
X701562Y370800D01*
X702438D01*
X703246Y371135D01*
X703865Y371754D01*
X704200Y372562D01*
Y373438D01*
X703865Y374246D01*
X703246Y374865D01*
X702438Y375200D01*
D02*
G37*
G36*
X715027Y377300D02*
X713973D01*
X712956Y377027D01*
X712044Y376501D01*
X711299Y375756D01*
X710773Y374844D01*
X710500Y373827D01*
Y372773D01*
X710773Y371756D01*
X711299Y370844D01*
X712044Y370099D01*
X712956Y369573D01*
X713973Y369300D01*
X715027D01*
X716044Y369573D01*
X716956Y370099D01*
X717701Y370844D01*
X718227Y371756D01*
X718500Y372773D01*
Y373827D01*
X718227Y374844D01*
X717701Y375756D01*
X716956Y376501D01*
X716044Y377027D01*
X715027Y377300D01*
D02*
G37*
G36*
X702438Y369200D02*
X701562D01*
X700754Y368865D01*
X700653Y368765D01*
X700000Y368335D01*
X699347Y368765D01*
X699246Y368865D01*
X698438Y369200D01*
X697562D01*
X696754Y368865D01*
X696653Y368765D01*
X696000Y368335D01*
X695347Y368765D01*
X695246Y368865D01*
X694438Y369200D01*
X693562D01*
X692754Y368865D01*
X692653Y368765D01*
X692000Y368335D01*
X691347Y368765D01*
X691246Y368865D01*
X690438Y369200D01*
X689562D01*
X688754Y368865D01*
X688135Y368246D01*
X687800Y367438D01*
Y366562D01*
X688135Y365754D01*
X688754Y365135D01*
X689562Y364800D01*
X690438D01*
X691246Y365135D01*
X691347Y365235D01*
X692000Y365665D01*
X692653Y365235D01*
X692754Y365135D01*
X693562Y364800D01*
X694438D01*
X695246Y365135D01*
X695347Y365235D01*
X696000Y365665D01*
X696653Y365235D01*
X696754Y365135D01*
X697562Y364800D01*
X698438D01*
X699246Y365135D01*
X699347Y365235D01*
X700000Y365665D01*
X700653Y365235D01*
X700754Y365135D01*
X701562Y364800D01*
X702438D01*
X703246Y365135D01*
X703865Y365754D01*
X704200Y366562D01*
Y367438D01*
X703865Y368246D01*
X703246Y368865D01*
X702438Y369200D01*
D02*
G37*
G36*
X323456Y375284D02*
X322411D01*
X321401Y375013D01*
X320496Y374490D01*
X319758Y373752D01*
X319235Y372847D01*
X318965Y371837D01*
Y370793D01*
X319235Y369783D01*
X319758Y368878D01*
X320496Y368139D01*
X321401Y367617D01*
X322411Y367347D01*
X323456D01*
X324465Y367617D01*
X325370Y368139D01*
X326109Y368878D01*
X326631Y369783D01*
X326902Y370793D01*
Y371837D01*
X326631Y372847D01*
X326109Y373752D01*
X325370Y374490D01*
X324465Y375013D01*
X323456Y375284D01*
D02*
G37*
G36*
X702438Y363200D02*
X701562D01*
X700754Y362865D01*
X700653Y362765D01*
X700000Y362335D01*
X699347Y362765D01*
X699246Y362865D01*
X698438Y363200D01*
X697562D01*
X696754Y362865D01*
X696653Y362765D01*
X696000Y362335D01*
X695347Y362765D01*
X695246Y362865D01*
X694438Y363200D01*
X693562D01*
X692754Y362865D01*
X692653Y362765D01*
X692000Y362335D01*
X691347Y362765D01*
X691246Y362865D01*
X690438Y363200D01*
X689562D01*
X688754Y362865D01*
X688135Y362246D01*
X687800Y361438D01*
Y360562D01*
X688135Y359754D01*
X688754Y359135D01*
X689562Y358800D01*
X690438D01*
X691246Y359135D01*
X691347Y359235D01*
X692000Y359665D01*
X692653Y359235D01*
X692754Y359135D01*
X693562Y358800D01*
X694438D01*
X695246Y359135D01*
X695347Y359235D01*
X696000Y359665D01*
X696653Y359235D01*
X696754Y359135D01*
X697562Y358800D01*
X698438D01*
X699246Y359135D01*
X699347Y359235D01*
X700000Y359665D01*
X700653Y359235D01*
X700754Y359135D01*
X701562Y358800D01*
X702438D01*
X703246Y359135D01*
X703865Y359754D01*
X704200Y360562D01*
Y361438D01*
X703865Y362246D01*
X703246Y362865D01*
X702438Y363200D01*
D02*
G37*
G36*
Y357200D02*
X701562D01*
X700754Y356865D01*
X700653Y356765D01*
X700000Y356335D01*
X699347Y356765D01*
X699246Y356865D01*
X698438Y357200D01*
X697562D01*
X696754Y356865D01*
X696653Y356765D01*
X696000Y356335D01*
X695347Y356765D01*
X695246Y356865D01*
X694438Y357200D01*
X693562D01*
X692754Y356865D01*
X692653Y356765D01*
X692000Y356335D01*
X691347Y356765D01*
X691246Y356865D01*
X690438Y357200D01*
X689562D01*
X688754Y356865D01*
X688135Y356246D01*
X687800Y355438D01*
Y354562D01*
X688135Y353754D01*
X688754Y353135D01*
X689562Y352800D01*
X690438D01*
X691246Y353135D01*
X691347Y353235D01*
X692000Y353665D01*
X692653Y353235D01*
X692754Y353135D01*
X693562Y352800D01*
X694438D01*
X695246Y353135D01*
X695347Y353235D01*
X696000Y353665D01*
X696653Y353235D01*
X696754Y353135D01*
X697562Y352800D01*
X698438D01*
X699246Y353135D01*
X699347Y353235D01*
X700000Y353665D01*
X700653Y353235D01*
X700754Y353135D01*
X701562Y352800D01*
X702438D01*
X703246Y353135D01*
X703865Y353754D01*
X704200Y354562D01*
Y355438D01*
X703865Y356246D01*
X703246Y356865D01*
X702438Y357200D01*
D02*
G37*
G36*
X466500Y374520D02*
X445500D01*
X445110Y374442D01*
X444779Y374221D01*
X407578Y337020D01*
X221000D01*
X220610Y336942D01*
X220279Y336721D01*
X220058Y336390D01*
X219980Y336000D01*
Y308500D01*
X220058Y308110D01*
X220279Y307779D01*
X220610Y307558D01*
X221000Y307480D01*
X232158D01*
X232256Y307500D01*
X232357D01*
X232449Y307538D01*
X232548Y307558D01*
X232631Y307614D01*
X232724Y307652D01*
X232795Y307723D01*
X232879Y307779D01*
X232934Y307862D01*
X233005Y307934D01*
X233674Y308934D01*
X233712Y309026D01*
X233768Y309110D01*
X233787Y309208D01*
X233826Y309301D01*
Y309401D01*
X233845Y309500D01*
X233826Y309598D01*
Y309699D01*
X233820Y309714D01*
Y310235D01*
X233999Y310669D01*
X234331Y311001D01*
X234765Y311180D01*
X235235D01*
X235669Y311001D01*
X236001Y310669D01*
X236180Y310235D01*
Y309714D01*
X236174Y309699D01*
Y309598D01*
X236155Y309500D01*
X236174Y309401D01*
Y309301D01*
X236213Y309208D01*
X236232Y309110D01*
X236288Y309026D01*
X236326Y308934D01*
X236995Y307934D01*
X237066Y307862D01*
X237121Y307779D01*
X237205Y307723D01*
X237276Y307652D01*
X237369Y307614D01*
X237452Y307558D01*
X237551Y307538D01*
X237643Y307500D01*
X237744D01*
X237842Y307480D01*
X372158D01*
X372256Y307500D01*
X372357D01*
X372449Y307538D01*
X372548Y307558D01*
X372631Y307614D01*
X372724Y307652D01*
X372795Y307723D01*
X372879Y307779D01*
X372934Y307862D01*
X373005Y307934D01*
X373674Y308934D01*
X373712Y309026D01*
X373768Y309110D01*
X373787Y309208D01*
X373826Y309301D01*
Y309401D01*
X373845Y309500D01*
X373826Y309598D01*
Y309699D01*
X373820Y309714D01*
Y310235D01*
X373999Y310669D01*
X374331Y311001D01*
X374765Y311180D01*
X375235D01*
X375669Y311001D01*
X376001Y310669D01*
X376180Y310235D01*
Y309714D01*
X376174Y309699D01*
Y309598D01*
X376155Y309500D01*
X376174Y309401D01*
Y309301D01*
X376213Y309208D01*
X376232Y309110D01*
X376288Y309026D01*
X376326Y308934D01*
X376995Y307934D01*
X377066Y307862D01*
X377121Y307779D01*
X377205Y307723D01*
X377276Y307652D01*
X377369Y307614D01*
X377452Y307558D01*
X377551Y307538D01*
X377643Y307500D01*
X377744D01*
X377842Y307480D01*
X411889D01*
X412279Y307558D01*
X412610Y307779D01*
X412831Y308001D01*
X413265Y308180D01*
X413735D01*
X414169Y308001D01*
X414390Y307779D01*
X414721Y307558D01*
X415111Y307480D01*
X418889D01*
X419279Y307558D01*
X419610Y307779D01*
X419831Y308001D01*
X420265Y308180D01*
X420700D01*
X421090Y308258D01*
X421421Y308479D01*
X422136Y309195D01*
X422166Y309239D01*
X422207Y309272D01*
X422276Y309403D01*
X422358Y309525D01*
X422368Y309577D01*
X422393Y309624D01*
X422406Y309771D01*
X422435Y309916D01*
X422425Y309967D01*
X422430Y310020D01*
X422386Y310161D01*
X422358Y310306D01*
X422328Y310350D01*
X422313Y310400D01*
X422255Y310507D01*
X422993Y311245D01*
X423100Y311187D01*
X423150Y311172D01*
X423194Y311142D01*
X423339Y311114D01*
X423480Y311070D01*
X423532Y311075D01*
X423584Y311065D01*
X423729Y311094D01*
X423876Y311107D01*
X423923Y311132D01*
X423975Y311142D01*
X424097Y311224D01*
X424228Y311293D01*
X424261Y311334D01*
X424305Y311364D01*
X426277Y313335D01*
X426498Y313666D01*
X426499Y313669D01*
X426831Y314001D01*
X426834Y314002D01*
X427165Y314223D01*
X460000Y347058D01*
X461000Y346644D01*
Y346605D01*
X461204Y345842D01*
X461599Y345158D01*
X462158Y344599D01*
X462842Y344204D01*
X463605Y344000D01*
X464395D01*
X465158Y344204D01*
X465842Y344599D01*
X466401Y345158D01*
X466796Y345842D01*
X467000Y346605D01*
Y347395D01*
X466796Y348158D01*
X466401Y348842D01*
X465915Y349500D01*
X466401Y350158D01*
X466796Y350842D01*
X467000Y351605D01*
Y352395D01*
X466838Y353000D01*
X467000Y354000D01*
D01*
X467262Y354438D01*
X467442Y354738D01*
X467447Y354763D01*
X467460Y354786D01*
X467464Y354808D01*
X467486Y354958D01*
X467520Y355128D01*
Y373500D01*
X467442Y373890D01*
X467221Y374221D01*
X466890Y374442D01*
X466500Y374520D01*
D02*
G37*
G36*
X604500Y350020D02*
X559000D01*
X558610Y349942D01*
X558279Y349721D01*
X558058Y349390D01*
X557980Y349000D01*
Y333000D01*
X558058Y332610D01*
X558279Y332279D01*
X558610Y332058D01*
X559000Y331980D01*
X604500D01*
X604890Y332058D01*
X605221Y332279D01*
X605442Y332610D01*
X605520Y333000D01*
Y349000D01*
X605442Y349390D01*
X605221Y349721D01*
X604890Y349942D01*
X604500Y350020D01*
D02*
G37*
G36*
X742438Y329200D02*
X741562D01*
X740754Y328865D01*
X740653Y328765D01*
X740000Y328335D01*
X739347Y328765D01*
X739246Y328865D01*
X738438Y329200D01*
X737562D01*
X736754Y328865D01*
X736653Y328765D01*
X736000Y328335D01*
X735347Y328765D01*
X735246Y328865D01*
X734438Y329200D01*
X733562D01*
X732754Y328865D01*
X732653Y328765D01*
X732000Y328335D01*
X731347Y328765D01*
X731246Y328865D01*
X730438Y329200D01*
X729562D01*
X728754Y328865D01*
X728135Y328246D01*
X727800Y327438D01*
Y326562D01*
X728135Y325754D01*
X728754Y325135D01*
X729562Y324800D01*
X730438D01*
X731246Y325135D01*
X731347Y325235D01*
X732000Y325665D01*
X732653Y325235D01*
X732754Y325135D01*
X733562Y324800D01*
X734438D01*
X735246Y325135D01*
X735347Y325235D01*
X736000Y325665D01*
X736653Y325235D01*
X736754Y325135D01*
X737562Y324800D01*
X738438D01*
X739246Y325135D01*
X739347Y325235D01*
X740000Y325665D01*
X740653Y325235D01*
X740754Y325135D01*
X741562Y324800D01*
X742438D01*
X743246Y325135D01*
X743865Y325754D01*
X744200Y326562D01*
Y327438D01*
X743865Y328246D01*
X743246Y328865D01*
X742438Y329200D01*
D02*
G37*
G36*
X649745Y331507D02*
X648870D01*
X648061Y331172D01*
X647442Y330553D01*
X647107Y329745D01*
Y328870D01*
X647442Y328061D01*
X648003Y327500D01*
X647442Y326939D01*
X647107Y326131D01*
Y325255D01*
X647442Y324447D01*
X648061Y323828D01*
X648870Y323493D01*
X649745D01*
X650553Y323828D01*
X651172Y324447D01*
X651507Y325255D01*
Y326131D01*
X651172Y326939D01*
X650611Y327500D01*
X651172Y328061D01*
X651507Y328870D01*
Y329745D01*
X651172Y330553D01*
X650553Y331172D01*
X649745Y331507D01*
D02*
G37*
G36*
X778254Y333224D02*
X776746D01*
X775290Y332834D01*
X773985Y332081D01*
X772919Y331015D01*
X772166Y329710D01*
X771776Y328254D01*
Y326746D01*
X772166Y325290D01*
X772919Y323985D01*
X773985Y322919D01*
X775290Y322166D01*
X776746Y321776D01*
X778254D01*
X779709Y322166D01*
X781015Y322919D01*
X782081Y323985D01*
X782834Y325290D01*
X783224Y326746D01*
Y328254D01*
X782834Y329710D01*
X782081Y331015D01*
X781015Y332081D01*
X779709Y332834D01*
X778254Y333224D01*
D02*
G37*
G36*
X742438Y321200D02*
X741562D01*
X740754Y320865D01*
X740653Y320765D01*
X740000Y320335D01*
X739347Y320765D01*
X739246Y320865D01*
X738438Y321200D01*
X737562D01*
X736754Y320865D01*
X736653Y320765D01*
X736000Y320335D01*
X735347Y320765D01*
X735246Y320865D01*
X734438Y321200D01*
X733562D01*
X732754Y320865D01*
X732653Y320765D01*
X732000Y320335D01*
X731347Y320765D01*
X731246Y320865D01*
X730438Y321200D01*
X729562D01*
X728754Y320865D01*
X728135Y320246D01*
X727800Y319438D01*
Y318562D01*
X728135Y317754D01*
X728754Y317135D01*
X729562Y316800D01*
X730438D01*
X731246Y317135D01*
X731347Y317235D01*
X732000Y317665D01*
X732653Y317235D01*
X732754Y317135D01*
X733562Y316800D01*
X734438D01*
X735246Y317135D01*
X735347Y317235D01*
X736000Y317665D01*
X736653Y317235D01*
X736754Y317135D01*
X737562Y316800D01*
X738438D01*
X739246Y317135D01*
X739347Y317235D01*
X740000Y317665D01*
X740653Y317235D01*
X740754Y317135D01*
X741562Y316800D01*
X742438D01*
X743246Y317135D01*
X743865Y317754D01*
X744200Y318562D01*
Y319438D01*
X743865Y320246D01*
X743246Y320865D01*
X742438Y321200D01*
D02*
G37*
G36*
Y313200D02*
X741562D01*
X740754Y312865D01*
X740653Y312765D01*
X740000Y312335D01*
X739347Y312765D01*
X739246Y312865D01*
X738438Y313200D01*
X737562D01*
X736754Y312865D01*
X736653Y312765D01*
X736000Y312335D01*
X735347Y312765D01*
X735246Y312865D01*
X734438Y313200D01*
X733562D01*
X732754Y312865D01*
X732653Y312765D01*
X732000Y312335D01*
X731347Y312765D01*
X731246Y312865D01*
X730438Y313200D01*
X729562D01*
X728754Y312865D01*
X728135Y312246D01*
X727800Y311438D01*
Y310562D01*
X728135Y309754D01*
X728754Y309135D01*
X729562Y308800D01*
X730438D01*
X731246Y309135D01*
X731347Y309235D01*
X732000Y309665D01*
X732653Y309235D01*
X732754Y309135D01*
X733562Y308800D01*
X734438D01*
X735246Y309135D01*
X735347Y309235D01*
X736000Y309665D01*
X736653Y309235D01*
X736754Y309135D01*
X737562Y308800D01*
X738438D01*
X739246Y309135D01*
X739347Y309235D01*
X740000Y309665D01*
X740653Y309235D01*
X740754Y309135D01*
X741562Y308800D01*
X742438D01*
X743246Y309135D01*
X743865Y309754D01*
X744200Y310562D01*
Y311438D01*
X743865Y312246D01*
X743246Y312865D01*
X742438Y313200D01*
D02*
G37*
G36*
Y305200D02*
X741562D01*
X740754Y304865D01*
X740653Y304765D01*
X740000Y304335D01*
X739347Y304765D01*
X739246Y304865D01*
X738438Y305200D01*
X737562D01*
X736754Y304865D01*
X736653Y304765D01*
X736000Y304335D01*
X735347Y304765D01*
X735246Y304865D01*
X734438Y305200D01*
X733562D01*
X732754Y304865D01*
X732653Y304765D01*
X732000Y304335D01*
X731347Y304765D01*
X731246Y304865D01*
X730438Y305200D01*
X729562D01*
X728754Y304865D01*
X728135Y304246D01*
X727800Y303438D01*
Y302562D01*
X728135Y301754D01*
X728754Y301135D01*
X729562Y300800D01*
X730438D01*
X731246Y301135D01*
X731347Y301235D01*
X732000Y301665D01*
X732653Y301235D01*
X732754Y301135D01*
X733562Y300800D01*
X734438D01*
X735246Y301135D01*
X735347Y301235D01*
X736000Y301665D01*
X736653Y301235D01*
X736754Y301135D01*
X737562Y300800D01*
X738438D01*
X739246Y301135D01*
X739347Y301235D01*
X740000Y301665D01*
X740653Y301235D01*
X740754Y301135D01*
X741562Y300800D01*
X742438D01*
X743246Y301135D01*
X743865Y301754D01*
X744200Y302562D01*
Y303438D01*
X743865Y304246D01*
X743246Y304865D01*
X742438Y305200D01*
D02*
G37*
G36*
X543100Y342020D02*
X532900D01*
X532510Y341942D01*
X532179Y341721D01*
X531958Y341390D01*
X531880Y341000D01*
Y324200D01*
X531958Y323810D01*
X532179Y323479D01*
X551379Y304279D01*
X551710Y304058D01*
X552100Y303980D01*
X568000D01*
X568390Y304058D01*
X568721Y304279D01*
X568942Y304610D01*
X569020Y305000D01*
Y317500D01*
X568942Y317890D01*
X568721Y318221D01*
X568390Y318442D01*
X568000Y318520D01*
X554922D01*
X544120Y329322D01*
Y341000D01*
X544042Y341390D01*
X543821Y341721D01*
X543490Y341942D01*
X543100Y342020D01*
D02*
G37*
G36*
X742438Y297200D02*
X741562D01*
X740754Y296865D01*
X740653Y296765D01*
X740000Y296335D01*
X739347Y296765D01*
X739246Y296865D01*
X738438Y297200D01*
X737562D01*
X736754Y296865D01*
X736653Y296765D01*
X736000Y296335D01*
X735347Y296765D01*
X735246Y296865D01*
X734438Y297200D01*
X733562D01*
X732754Y296865D01*
X732653Y296765D01*
X732000Y296335D01*
X731347Y296765D01*
X731246Y296865D01*
X730438Y297200D01*
X729562D01*
X728754Y296865D01*
X728135Y296246D01*
X727800Y295438D01*
Y294562D01*
X728135Y293754D01*
X728754Y293135D01*
X729562Y292800D01*
X730438D01*
X731246Y293135D01*
X731347Y293235D01*
X732000Y293665D01*
X732653Y293235D01*
X732754Y293135D01*
X733562Y292800D01*
X734438D01*
X735246Y293135D01*
X735347Y293235D01*
X736000Y293665D01*
X736653Y293235D01*
X736754Y293135D01*
X737562Y292800D01*
X738438D01*
X739246Y293135D01*
X739347Y293235D01*
X740000Y293665D01*
X740653Y293235D01*
X740754Y293135D01*
X741562Y292800D01*
X742438D01*
X743246Y293135D01*
X743865Y293754D01*
X744200Y294562D01*
Y295438D01*
X743865Y296246D01*
X743246Y296865D01*
X742438Y297200D01*
D02*
G37*
G36*
X778254Y303224D02*
X776746D01*
X775290Y302834D01*
X773985Y302081D01*
X772919Y301015D01*
X772166Y299710D01*
X771776Y298254D01*
Y296746D01*
X772166Y295290D01*
X772919Y293985D01*
X773985Y292919D01*
X775290Y292166D01*
X776746Y291776D01*
X778254D01*
X779709Y292166D01*
X781015Y292919D01*
X782081Y293985D01*
X782834Y295290D01*
X783224Y296746D01*
Y298254D01*
X782834Y299710D01*
X782081Y301015D01*
X781015Y302081D01*
X779709Y302834D01*
X778254Y303224D01*
D02*
G37*
G36*
X284195Y287833D02*
X283319D01*
X282511Y287498D01*
X281892Y286879D01*
X281557Y286071D01*
Y285195D01*
X281892Y284387D01*
X282511Y283768D01*
X283319Y283433D01*
X284195D01*
X285003Y283768D01*
X285622Y284387D01*
X285957Y285195D01*
Y286071D01*
X285622Y286879D01*
X285003Y287498D01*
X284195Y287833D01*
D02*
G37*
G36*
X752438Y286200D02*
X751562D01*
X750754Y285865D01*
X750135Y285246D01*
X749800Y284438D01*
Y283562D01*
X750135Y282754D01*
X750235Y282653D01*
X750665Y282000D01*
X750235Y281347D01*
X750135Y281246D01*
X749800Y280438D01*
Y279562D01*
X750135Y278754D01*
X750754Y278135D01*
X751562Y277800D01*
X752438D01*
X753246Y278135D01*
X753865Y278754D01*
X754200Y279562D01*
Y280438D01*
X753865Y281246D01*
X753765Y281347D01*
X753335Y282000D01*
X753765Y282653D01*
X753865Y282754D01*
X754200Y283562D01*
Y284438D01*
X753865Y285246D01*
X753246Y285865D01*
X752438Y286200D01*
D02*
G37*
G36*
X742438Y288200D02*
X741562D01*
X740754Y287865D01*
X740135Y287246D01*
X739800Y286438D01*
Y285562D01*
X740135Y284754D01*
X740235Y284653D01*
X740665Y284000D01*
X740235Y283347D01*
X740135Y283246D01*
X739800Y282438D01*
Y281562D01*
X740135Y280754D01*
X740235Y280653D01*
X740665Y280000D01*
X740235Y279347D01*
X740135Y279246D01*
X739800Y278438D01*
Y277562D01*
X740135Y276754D01*
X740754Y276135D01*
X741562Y275800D01*
X742438D01*
X743246Y276135D01*
X743865Y276754D01*
X744130Y277393D01*
X744307Y277604D01*
X745200Y277950D01*
X745562Y277800D01*
X746438D01*
X747246Y278135D01*
X747865Y278754D01*
X748200Y279562D01*
Y280438D01*
X747865Y281246D01*
X747765Y281347D01*
X747335Y282000D01*
X747765Y282653D01*
X747865Y282754D01*
X748200Y283562D01*
Y284438D01*
X747865Y285246D01*
X747246Y285865D01*
X746438Y286200D01*
X745562D01*
X745200Y286050D01*
X744307Y286396D01*
X744130Y286607D01*
X743865Y287246D01*
X743246Y287865D01*
X742438Y288200D01*
D02*
G37*
G36*
X736438D02*
X735562D01*
X734754Y287865D01*
X734135Y287246D01*
X733800Y286438D01*
Y285562D01*
X734135Y284754D01*
X734235Y284653D01*
X734665Y284000D01*
X734235Y283347D01*
X734135Y283246D01*
X733800Y282438D01*
Y281562D01*
X734135Y280754D01*
X734235Y280653D01*
X734665Y280000D01*
X734235Y279347D01*
X734135Y279246D01*
X733800Y278438D01*
Y277562D01*
X734135Y276754D01*
X734754Y276135D01*
X735562Y275800D01*
X736438D01*
X737246Y276135D01*
X737865Y276754D01*
X738200Y277562D01*
Y278438D01*
X737865Y279246D01*
X737765Y279347D01*
X737335Y280000D01*
X737765Y280653D01*
X737865Y280754D01*
X738200Y281562D01*
Y282438D01*
X737865Y283246D01*
X737765Y283347D01*
X737335Y284000D01*
X737765Y284653D01*
X737865Y284754D01*
X738200Y285562D01*
Y286438D01*
X737865Y287246D01*
X737246Y287865D01*
X736438Y288200D01*
D02*
G37*
G36*
X730438D02*
X729562D01*
X728754Y287865D01*
X728135Y287246D01*
X727800Y286438D01*
Y285562D01*
X728135Y284754D01*
X728235Y284653D01*
X728665Y284000D01*
X728235Y283347D01*
X728135Y283246D01*
X727800Y282438D01*
Y281562D01*
X728135Y280754D01*
X728235Y280653D01*
X728665Y280000D01*
X728235Y279347D01*
X728135Y279246D01*
X727800Y278438D01*
Y277562D01*
X728135Y276754D01*
X728754Y276135D01*
X729562Y275800D01*
X730438D01*
X731246Y276135D01*
X731865Y276754D01*
X732200Y277562D01*
Y278438D01*
X731865Y279246D01*
X731765Y279347D01*
X731335Y280000D01*
X731765Y280653D01*
X731865Y280754D01*
X732200Y281562D01*
Y282438D01*
X731865Y283246D01*
X731765Y283347D01*
X731335Y284000D01*
X731765Y284653D01*
X731865Y284754D01*
X732200Y285562D01*
Y286438D01*
X731865Y287246D01*
X731246Y287865D01*
X730438Y288200D01*
D02*
G37*
G36*
X724438D02*
X723562D01*
X722754Y287865D01*
X722135Y287246D01*
X721800Y286438D01*
Y285562D01*
X722135Y284754D01*
X722235Y284653D01*
X722665Y284000D01*
X722235Y283347D01*
X722135Y283246D01*
X721800Y282438D01*
Y281562D01*
X722135Y280754D01*
X722235Y280653D01*
X722665Y280000D01*
X722235Y279347D01*
X722135Y279246D01*
X721800Y278438D01*
Y277562D01*
X722135Y276754D01*
X722754Y276135D01*
X723562Y275800D01*
X724438D01*
X725246Y276135D01*
X725865Y276754D01*
X726200Y277562D01*
Y278438D01*
X725865Y279246D01*
X725765Y279347D01*
X725335Y280000D01*
X725765Y280653D01*
X725865Y280754D01*
X726200Y281562D01*
Y282438D01*
X725865Y283246D01*
X725765Y283347D01*
X725335Y284000D01*
X725765Y284653D01*
X725865Y284754D01*
X726200Y285562D01*
Y286438D01*
X725865Y287246D01*
X725246Y287865D01*
X724438Y288200D01*
D02*
G37*
G36*
X299649Y280011D02*
X298773D01*
X297965Y279676D01*
X297346Y279057D01*
X297011Y278249D01*
Y277373D01*
X297346Y276565D01*
X297965Y275946D01*
X298773Y275611D01*
X299649D01*
X300457Y275946D01*
X301076Y276565D01*
X301411Y277373D01*
Y278249D01*
X301076Y279057D01*
X300457Y279676D01*
X299649Y280011D01*
D02*
G37*
G36*
X284249D02*
X283373D01*
X282565Y279676D01*
X281946Y279057D01*
X281611Y278249D01*
Y277373D01*
X281946Y276565D01*
X282565Y275946D01*
X283373Y275611D01*
X284249D01*
X285057Y275946D01*
X285676Y276565D01*
X286011Y277373D01*
Y278249D01*
X285676Y279057D01*
X285057Y279676D01*
X284249Y280011D01*
D02*
G37*
G36*
X742438Y270700D02*
X741562D01*
X740754Y270365D01*
X740653Y270265D01*
X740000Y269835D01*
X739347Y270265D01*
X739246Y270365D01*
X738438Y270700D01*
X737562D01*
X736754Y270365D01*
X736653Y270265D01*
X736000Y269835D01*
X735347Y270265D01*
X735246Y270365D01*
X734438Y270700D01*
X733562D01*
X732754Y270365D01*
X732653Y270265D01*
X732000Y269835D01*
X731347Y270265D01*
X731246Y270365D01*
X730438Y270700D01*
X729562D01*
X728754Y270365D01*
X728135Y269746D01*
X727800Y268938D01*
Y268062D01*
X728135Y267254D01*
X728754Y266635D01*
X729562Y266300D01*
X730438D01*
X731246Y266635D01*
X731347Y266735D01*
X732000Y267165D01*
X732653Y266735D01*
X732754Y266635D01*
X733562Y266300D01*
X734438D01*
X735246Y266635D01*
X735347Y266735D01*
X736000Y267165D01*
X736653Y266735D01*
X736754Y266635D01*
X737562Y266300D01*
X738438D01*
X739246Y266635D01*
X739347Y266735D01*
X740000Y267165D01*
X740653Y266735D01*
X740754Y266635D01*
X741562Y266300D01*
X742438D01*
X743246Y266635D01*
X743865Y267254D01*
X744200Y268062D01*
Y268938D01*
X743865Y269746D01*
X743246Y270365D01*
X742438Y270700D01*
D02*
G37*
G36*
X284438Y272200D02*
X283562D01*
X282754Y271865D01*
X282135Y271246D01*
X281800Y270438D01*
Y269562D01*
X282135Y268754D01*
X282754Y268135D01*
X283562Y267800D01*
X284438D01*
X285246Y268135D01*
X285865Y268754D01*
X286200Y269562D01*
Y270438D01*
X285865Y271246D01*
X285246Y271865D01*
X284438Y272200D01*
D02*
G37*
G36*
X214438D02*
X213562D01*
X212754Y271865D01*
X212135Y271246D01*
X211800Y270438D01*
Y269562D01*
X212135Y268754D01*
X212754Y268135D01*
X213562Y267800D01*
X214438D01*
X215246Y268135D01*
X215865Y268754D01*
X216200Y269562D01*
Y270438D01*
X215865Y271246D01*
X215246Y271865D01*
X214438Y272200D01*
D02*
G37*
G36*
X742438Y262700D02*
X741562D01*
X740754Y262365D01*
X740653Y262265D01*
X740000Y261835D01*
X739347Y262265D01*
X739246Y262365D01*
X738438Y262700D01*
X737562D01*
X736754Y262365D01*
X736653Y262265D01*
X736000Y261835D01*
X735347Y262265D01*
X735246Y262365D01*
X734438Y262700D01*
X733562D01*
X732754Y262365D01*
X732653Y262265D01*
X732000Y261835D01*
X731347Y262265D01*
X731246Y262365D01*
X730438Y262700D01*
X729562D01*
X728754Y262365D01*
X728135Y261746D01*
X727800Y260938D01*
Y260062D01*
X728135Y259254D01*
X728754Y258635D01*
X729562Y258300D01*
X730438D01*
X731246Y258635D01*
X731347Y258735D01*
X732000Y259165D01*
X732653Y258735D01*
X732754Y258635D01*
X733562Y258300D01*
X734438D01*
X735246Y258635D01*
X735347Y258735D01*
X736000Y259165D01*
X736653Y258735D01*
X736754Y258635D01*
X737562Y258300D01*
X738438D01*
X739246Y258635D01*
X739347Y258735D01*
X740000Y259165D01*
X740653Y258735D01*
X740754Y258635D01*
X741562Y258300D01*
X742438D01*
X743246Y258635D01*
X743865Y259254D01*
X744200Y260062D01*
Y260938D01*
X743865Y261746D01*
X743246Y262365D01*
X742438Y262700D01*
D02*
G37*
G36*
X284249Y264263D02*
X283373D01*
X282565Y263928D01*
X281946Y263309D01*
X281611Y262501D01*
Y261625D01*
X281946Y260817D01*
X282565Y260198D01*
X283373Y259863D01*
X284249D01*
X285057Y260198D01*
X285676Y260817D01*
X286011Y261625D01*
Y262501D01*
X285676Y263309D01*
X285057Y263928D01*
X284249Y264263D01*
D02*
G37*
G36*
X219438Y264200D02*
X218562D01*
X217754Y263865D01*
X217135Y263246D01*
X216800Y262438D01*
Y261562D01*
X217135Y260754D01*
X217754Y260135D01*
X218562Y259800D01*
X219438D01*
X220246Y260135D01*
X220865Y260754D01*
X221200Y261562D01*
Y262438D01*
X220865Y263246D01*
X220246Y263865D01*
X219438Y264200D01*
D02*
G37*
G36*
X778754Y267724D02*
X777246D01*
X775791Y267334D01*
X774485Y266581D01*
X773419Y265515D01*
X772666Y264210D01*
X772276Y262754D01*
Y261246D01*
X772666Y259790D01*
X773419Y258485D01*
X774485Y257419D01*
X775791Y256666D01*
X777246Y256276D01*
X778754D01*
X780209Y256666D01*
X781515Y257419D01*
X782581Y258485D01*
X783334Y259790D01*
X783724Y261246D01*
Y262754D01*
X783334Y264210D01*
X782581Y265515D01*
X781515Y266581D01*
X780209Y267334D01*
X778754Y267724D01*
D02*
G37*
G36*
X742438Y254700D02*
X741562D01*
X740754Y254365D01*
X740653Y254265D01*
X740000Y253835D01*
X739347Y254265D01*
X739246Y254365D01*
X738438Y254700D01*
X737562D01*
X736754Y254365D01*
X736653Y254265D01*
X736000Y253835D01*
X735347Y254265D01*
X735246Y254365D01*
X734438Y254700D01*
X733562D01*
X732754Y254365D01*
X732653Y254265D01*
X732000Y253835D01*
X731347Y254265D01*
X731246Y254365D01*
X730438Y254700D01*
X729562D01*
X728754Y254365D01*
X728135Y253746D01*
X727800Y252938D01*
Y252062D01*
X728135Y251254D01*
X728754Y250635D01*
X729562Y250300D01*
X730438D01*
X731246Y250635D01*
X731347Y250735D01*
X732000Y251165D01*
X732653Y250735D01*
X732754Y250635D01*
X733562Y250300D01*
X734438D01*
X735246Y250635D01*
X735347Y250735D01*
X736000Y251165D01*
X736653Y250735D01*
X736754Y250635D01*
X737562Y250300D01*
X738438D01*
X739246Y250635D01*
X739347Y250735D01*
X740000Y251165D01*
X740653Y250735D01*
X740754Y250635D01*
X741562Y250300D01*
X742438D01*
X743246Y250635D01*
X743865Y251254D01*
X744200Y252062D01*
Y252938D01*
X743865Y253746D01*
X743246Y254365D01*
X742438Y254700D01*
D02*
G37*
G36*
Y246700D02*
X741562D01*
X740754Y246365D01*
X740653Y246265D01*
X740000Y245835D01*
X739347Y246265D01*
X739246Y246365D01*
X738438Y246700D01*
X737562D01*
X736754Y246365D01*
X736653Y246265D01*
X736000Y245835D01*
X735347Y246265D01*
X735246Y246365D01*
X734438Y246700D01*
X733562D01*
X732754Y246365D01*
X732653Y246265D01*
X732000Y245835D01*
X731347Y246265D01*
X731246Y246365D01*
X730438Y246700D01*
X729562D01*
X728754Y246365D01*
X728135Y245746D01*
X727800Y244938D01*
Y244062D01*
X728135Y243254D01*
X728754Y242635D01*
X729562Y242300D01*
X730438D01*
X731246Y242635D01*
X731347Y242735D01*
X732000Y243165D01*
X732653Y242735D01*
X732754Y242635D01*
X733562Y242300D01*
X734438D01*
X735246Y242635D01*
X735347Y242735D01*
X736000Y243165D01*
X736653Y242735D01*
X736754Y242635D01*
X737562Y242300D01*
X738438D01*
X739246Y242635D01*
X739347Y242735D01*
X740000Y243165D01*
X740653Y242735D01*
X740754Y242635D01*
X741562Y242300D01*
X742438D01*
X743246Y242635D01*
X743865Y243254D01*
X744200Y244062D01*
Y244938D01*
X743865Y245746D01*
X743246Y246365D01*
X742438Y246700D01*
D02*
G37*
G36*
X648438Y246200D02*
X647562D01*
X646754Y245865D01*
X646135Y245246D01*
X645800Y244438D01*
Y243562D01*
X646135Y242754D01*
X646754Y242135D01*
X647562Y241800D01*
X648438D01*
X649246Y242135D01*
X649865Y242754D01*
X650200Y243562D01*
Y244438D01*
X649865Y245246D01*
X649246Y245865D01*
X648438Y246200D01*
D02*
G37*
G36*
X742438Y238700D02*
X741562D01*
X740754Y238365D01*
X740653Y238265D01*
X740000Y237835D01*
X739347Y238265D01*
X739246Y238365D01*
X738438Y238700D01*
X737562D01*
X736754Y238365D01*
X736653Y238265D01*
X736000Y237835D01*
X735347Y238265D01*
X735246Y238365D01*
X734438Y238700D01*
X733562D01*
X732754Y238365D01*
X732653Y238265D01*
X732000Y237835D01*
X731347Y238265D01*
X731246Y238365D01*
X730438Y238700D01*
X729562D01*
X728754Y238365D01*
X728135Y237746D01*
X727800Y236938D01*
Y236062D01*
X728135Y235254D01*
X728754Y234635D01*
X729562Y234300D01*
X730438D01*
X731246Y234635D01*
X731347Y234735D01*
X732000Y235165D01*
X732653Y234735D01*
X732754Y234635D01*
X733562Y234300D01*
X734438D01*
X735246Y234635D01*
X735347Y234735D01*
X736000Y235165D01*
X736653Y234735D01*
X736754Y234635D01*
X737562Y234300D01*
X738438D01*
X739246Y234635D01*
X739347Y234735D01*
X740000Y235165D01*
X740653Y234735D01*
X740754Y234635D01*
X741562Y234300D01*
X742438D01*
X743246Y234635D01*
X743865Y235254D01*
X744200Y236062D01*
Y236938D01*
X743865Y237746D01*
X743246Y238365D01*
X742438Y238700D01*
D02*
G37*
G36*
X638938Y232200D02*
X638062D01*
X637254Y231865D01*
X636635Y231246D01*
X636300Y230438D01*
Y229562D01*
X636635Y228754D01*
X637254Y228135D01*
X638062Y227800D01*
X638938D01*
X639746Y228135D01*
X640365Y228754D01*
X640700Y229562D01*
Y230438D01*
X640365Y231246D01*
X639746Y231865D01*
X638938Y232200D01*
D02*
G37*
G36*
X631438D02*
X630562D01*
X629754Y231865D01*
X629135Y231246D01*
X628800Y230438D01*
Y229562D01*
X629135Y228754D01*
X629754Y228135D01*
X630562Y227800D01*
X631438D01*
X632246Y228135D01*
X632865Y228754D01*
X633200Y229562D01*
Y230438D01*
X632865Y231246D01*
X632246Y231865D01*
X631438Y232200D01*
D02*
G37*
G36*
X623938D02*
X623062D01*
X622254Y231865D01*
X621635Y231246D01*
X621300Y230438D01*
Y229562D01*
X621635Y228754D01*
X622254Y228135D01*
X623062Y227800D01*
X623938D01*
X624746Y228135D01*
X625365Y228754D01*
X625700Y229562D01*
Y230438D01*
X625365Y231246D01*
X624746Y231865D01*
X623938Y232200D01*
D02*
G37*
G36*
X778754Y237724D02*
X777246D01*
X775791Y237334D01*
X774485Y236581D01*
X773419Y235515D01*
X772666Y234209D01*
X772276Y232754D01*
Y231246D01*
X772666Y229790D01*
X773419Y228485D01*
X774485Y227419D01*
X775791Y226666D01*
X777246Y226276D01*
X778754D01*
X780209Y226666D01*
X781515Y227419D01*
X782581Y228485D01*
X783334Y229790D01*
X783724Y231246D01*
Y232754D01*
X783334Y234209D01*
X782581Y235515D01*
X781515Y236581D01*
X780209Y237334D01*
X778754Y237724D01*
D02*
G37*
G36*
X638938Y226700D02*
X638062D01*
X637254Y226365D01*
X636635Y225746D01*
X636300Y224938D01*
Y224062D01*
X636635Y223254D01*
X637254Y222635D01*
X638062Y222300D01*
X638938D01*
X639746Y222635D01*
X640365Y223254D01*
X640700Y224062D01*
Y224938D01*
X640365Y225746D01*
X639746Y226365D01*
X638938Y226700D01*
D02*
G37*
G36*
X631438D02*
X630562D01*
X629754Y226365D01*
X629135Y225746D01*
X628800Y224938D01*
Y224062D01*
X629135Y223254D01*
X629754Y222635D01*
X630562Y222300D01*
X631438D01*
X632246Y222635D01*
X632865Y223254D01*
X633200Y224062D01*
Y224938D01*
X632865Y225746D01*
X632246Y226365D01*
X631438Y226700D01*
D02*
G37*
G36*
X623938D02*
X623062D01*
X622254Y226365D01*
X621635Y225746D01*
X621300Y224938D01*
Y224062D01*
X621635Y223254D01*
X622254Y222635D01*
X623062Y222300D01*
X623938D01*
X624746Y222635D01*
X625365Y223254D01*
X625700Y224062D01*
Y224938D01*
X625365Y225746D01*
X624746Y226365D01*
X623938Y226700D01*
D02*
G37*
G36*
X638938Y221200D02*
X638062D01*
X637254Y220865D01*
X636635Y220246D01*
X636300Y219438D01*
Y218562D01*
X636635Y217754D01*
X637254Y217135D01*
X638062Y216800D01*
X638938D01*
X639746Y217135D01*
X640365Y217754D01*
X640700Y218562D01*
Y219438D01*
X640365Y220246D01*
X639746Y220865D01*
X638938Y221200D01*
D02*
G37*
G36*
X631438D02*
X630562D01*
X629754Y220865D01*
X629135Y220246D01*
X628800Y219438D01*
Y218562D01*
X629135Y217754D01*
X629754Y217135D01*
X630562Y216800D01*
X631438D01*
X632246Y217135D01*
X632865Y217754D01*
X633200Y218562D01*
Y219438D01*
X632865Y220246D01*
X632246Y220865D01*
X631438Y221200D01*
D02*
G37*
G36*
X623938D02*
X623062D01*
X622254Y220865D01*
X621635Y220246D01*
X621300Y219438D01*
Y218562D01*
X621635Y217754D01*
X622254Y217135D01*
X623062Y216800D01*
X623938D01*
X624746Y217135D01*
X625365Y217754D01*
X625700Y218562D01*
Y219438D01*
X625365Y220246D01*
X624746Y220865D01*
X623938Y221200D01*
D02*
G37*
G36*
X638938Y215700D02*
X638062D01*
X637254Y215365D01*
X636635Y214746D01*
X636300Y213938D01*
Y213062D01*
X636635Y212254D01*
X637254Y211635D01*
X638062Y211300D01*
X638938D01*
X639746Y211635D01*
X640365Y212254D01*
X640700Y213062D01*
Y213938D01*
X640365Y214746D01*
X639746Y215365D01*
X638938Y215700D01*
D02*
G37*
G36*
X631438D02*
X630562D01*
X629754Y215365D01*
X629135Y214746D01*
X628800Y213938D01*
Y213062D01*
X629135Y212254D01*
X629754Y211635D01*
X630562Y211300D01*
X631438D01*
X632246Y211635D01*
X632865Y212254D01*
X633200Y213062D01*
Y213938D01*
X632865Y214746D01*
X632246Y215365D01*
X631438Y215700D01*
D02*
G37*
G36*
X623839Y215102D02*
X622964D01*
X622155Y214767D01*
X621536Y214148D01*
X621202Y213339D01*
Y212464D01*
X621536Y211655D01*
X622155Y211036D01*
X622964Y210702D01*
X623839D01*
X624648Y211036D01*
X625267Y211655D01*
X625602Y212464D01*
Y213339D01*
X625267Y214148D01*
X624648Y214767D01*
X623839Y215102D01*
D02*
G37*
G36*
X709438Y212200D02*
X708562D01*
X707754Y211865D01*
X707135Y211246D01*
X706800Y210438D01*
Y209562D01*
X707135Y208754D01*
X707754Y208135D01*
X707980Y208041D01*
Y206959D01*
X707754Y206865D01*
X707135Y206246D01*
X706800Y205438D01*
Y204562D01*
X707135Y203754D01*
X707754Y203135D01*
X707980Y203041D01*
Y201959D01*
X707754Y201865D01*
X707135Y201246D01*
X706800Y200438D01*
Y199562D01*
X707135Y198754D01*
X707754Y198135D01*
X708562Y197800D01*
X709438D01*
X710246Y198135D01*
X710865Y198754D01*
X711200Y199562D01*
Y200438D01*
X711843Y201207D01*
X711946Y201249D01*
X712771Y200773D01*
X713788Y200500D01*
X714842D01*
X715859Y200773D01*
X716771Y201299D01*
X717516Y202044D01*
X718042Y202956D01*
X718315Y203973D01*
Y205027D01*
X718042Y206044D01*
X717516Y206956D01*
X716771Y207701D01*
X715859Y208227D01*
X714842Y208500D01*
X713788D01*
X712771Y208227D01*
X711859Y207701D01*
X711342Y207184D01*
X711020Y207090D01*
X710728Y207310D01*
X710706Y207346D01*
X710695Y208584D01*
X710865Y208754D01*
X711200Y209562D01*
Y210438D01*
X710865Y211246D01*
X710246Y211865D01*
X709438Y212200D01*
D02*
G37*
G36*
X701938D02*
X701062D01*
X700254Y211865D01*
X699635Y211246D01*
X699300Y210438D01*
Y209562D01*
X699635Y208754D01*
X700254Y208135D01*
X700480Y208041D01*
Y206959D01*
X700254Y206865D01*
X699635Y206246D01*
X699300Y205438D01*
Y204562D01*
X699635Y203754D01*
X700254Y203135D01*
X700480Y203041D01*
Y201959D01*
X700254Y201865D01*
X699635Y201246D01*
X699300Y200438D01*
Y199562D01*
X699635Y198754D01*
X700254Y198135D01*
X701062Y197800D01*
X701938D01*
X702746Y198135D01*
X703365Y198754D01*
X703700Y199562D01*
Y200438D01*
X703365Y201246D01*
X702746Y201865D01*
X702520Y201959D01*
Y203041D01*
X702746Y203135D01*
X703365Y203754D01*
X703700Y204562D01*
Y205438D01*
X703365Y206246D01*
X702746Y206865D01*
X702520Y206959D01*
Y208041D01*
X702746Y208135D01*
X703365Y208754D01*
X703700Y209562D01*
Y210438D01*
X703365Y211246D01*
X702746Y211865D01*
X701938Y212200D01*
D02*
G37*
G36*
X694438D02*
X693562D01*
X692754Y211865D01*
X692135Y211246D01*
X691800Y210438D01*
Y209562D01*
X692135Y208754D01*
X692754Y208135D01*
X692980Y208041D01*
Y206959D01*
X692754Y206865D01*
X692135Y206246D01*
X691800Y205438D01*
Y204562D01*
X692135Y203754D01*
X692754Y203135D01*
X692980Y203041D01*
Y201959D01*
X692754Y201865D01*
X692135Y201246D01*
X691800Y200438D01*
Y199562D01*
X692135Y198754D01*
X692754Y198135D01*
X693562Y197800D01*
X694438D01*
X695246Y198135D01*
X695865Y198754D01*
X696200Y199562D01*
Y200438D01*
X695865Y201246D01*
X695246Y201865D01*
X695020Y201959D01*
Y203041D01*
X695246Y203135D01*
X695865Y203754D01*
X696200Y204562D01*
Y205438D01*
X695865Y206246D01*
X695246Y206865D01*
X695020Y206959D01*
Y208041D01*
X695246Y208135D01*
X695865Y208754D01*
X696200Y209562D01*
Y210438D01*
X695865Y211246D01*
X695246Y211865D01*
X694438Y212200D01*
D02*
G37*
G36*
X687438D02*
X686562D01*
X685754Y211865D01*
X685135Y211246D01*
X684800Y210438D01*
Y209562D01*
X685135Y208754D01*
X685754Y208135D01*
X685980Y208041D01*
Y206959D01*
X685754Y206865D01*
X685135Y206246D01*
X684800Y205438D01*
Y204562D01*
X685135Y203754D01*
X685754Y203135D01*
X685980Y203041D01*
Y201959D01*
X685754Y201865D01*
X685135Y201246D01*
X684800Y200438D01*
Y199562D01*
X685135Y198754D01*
X685754Y198135D01*
X686562Y197800D01*
X687438D01*
X688246Y198135D01*
X688865Y198754D01*
X689200Y199562D01*
Y200438D01*
X688865Y201246D01*
X688246Y201865D01*
X688020Y201959D01*
Y203041D01*
X688246Y203135D01*
X688865Y203754D01*
X689200Y204562D01*
Y205438D01*
X688865Y206246D01*
X688246Y206865D01*
X688020Y206959D01*
Y208041D01*
X688246Y208135D01*
X688865Y208754D01*
X689200Y209562D01*
Y210438D01*
X688865Y211246D01*
X688246Y211865D01*
X687438Y212200D01*
D02*
G37*
G36*
X679938D02*
X679062D01*
X678254Y211865D01*
X677635Y211246D01*
X677300Y210438D01*
Y209562D01*
X677635Y208754D01*
X678254Y208135D01*
X678480Y208041D01*
Y206959D01*
X678254Y206865D01*
X677635Y206246D01*
X677300Y205438D01*
Y204562D01*
X677635Y203754D01*
X678254Y203135D01*
X678480Y203041D01*
Y201959D01*
X678254Y201865D01*
X677635Y201246D01*
X677300Y200438D01*
Y199562D01*
X677635Y198754D01*
X678254Y198135D01*
X679062Y197800D01*
X679938D01*
X680746Y198135D01*
X681365Y198754D01*
X681700Y199562D01*
Y200438D01*
X681365Y201246D01*
X680746Y201865D01*
X680520Y201959D01*
Y203041D01*
X680746Y203135D01*
X681365Y203754D01*
X681700Y204562D01*
Y205438D01*
X681365Y206246D01*
X680746Y206865D01*
X680520Y206959D01*
Y208041D01*
X680746Y208135D01*
X681365Y208754D01*
X681700Y209562D01*
Y210438D01*
X681365Y211246D01*
X680746Y211865D01*
X679938Y212200D01*
D02*
G37*
G36*
X672438D02*
X671562D01*
X670754Y211865D01*
X670135Y211246D01*
X669800Y210438D01*
Y209562D01*
X670135Y208754D01*
X670754Y208135D01*
X670980Y208041D01*
Y206959D01*
X670754Y206865D01*
X670135Y206246D01*
X669800Y205438D01*
Y204562D01*
X670135Y203754D01*
X670754Y203135D01*
X670980Y203041D01*
Y201959D01*
X670754Y201865D01*
X670135Y201246D01*
X669800Y200438D01*
Y199562D01*
X670135Y198754D01*
X670754Y198135D01*
X671562Y197800D01*
X672438D01*
X673246Y198135D01*
X673865Y198754D01*
X674200Y199562D01*
Y200438D01*
X673865Y201246D01*
X673246Y201865D01*
X673020Y201959D01*
Y203041D01*
X673246Y203135D01*
X673865Y203754D01*
X674200Y204562D01*
Y205438D01*
X673865Y206246D01*
X673246Y206865D01*
X673020Y206959D01*
Y208041D01*
X673246Y208135D01*
X673865Y208754D01*
X674200Y209562D01*
Y210438D01*
X673865Y211246D01*
X673246Y211865D01*
X672438Y212200D01*
D02*
G37*
G36*
X664438D02*
X663562D01*
X662754Y211865D01*
X662135Y211246D01*
X661800Y210438D01*
Y209562D01*
X662135Y208754D01*
X662754Y208135D01*
X662980Y208041D01*
Y206959D01*
X662754Y206865D01*
X662135Y206246D01*
X661800Y205438D01*
Y204562D01*
X662135Y203754D01*
X662754Y203135D01*
X662980Y203041D01*
Y201959D01*
X662754Y201865D01*
X662135Y201246D01*
X661800Y200438D01*
Y199562D01*
X662135Y198754D01*
X662754Y198135D01*
X663562Y197800D01*
X664438D01*
X665246Y198135D01*
X665865Y198754D01*
X666200Y199562D01*
Y200438D01*
X665865Y201246D01*
X665246Y201865D01*
X665020Y201959D01*
Y203041D01*
X665246Y203135D01*
X665865Y203754D01*
X666200Y204562D01*
Y205438D01*
X665865Y206246D01*
X665246Y206865D01*
X665020Y206959D01*
Y208041D01*
X665246Y208135D01*
X665865Y208754D01*
X666200Y209562D01*
Y210438D01*
X665865Y211246D01*
X665246Y211865D01*
X664438Y212200D01*
D02*
G37*
G36*
X656938D02*
X656062D01*
X655254Y211865D01*
X654635Y211246D01*
X654300Y210438D01*
Y209562D01*
X654635Y208754D01*
X655254Y208135D01*
X655480Y208041D01*
Y206959D01*
X655254Y206865D01*
X654635Y206246D01*
X654300Y205438D01*
Y204562D01*
X654635Y203754D01*
X655254Y203135D01*
X655480Y203041D01*
Y201959D01*
X655254Y201865D01*
X654635Y201246D01*
X654300Y200438D01*
Y199562D01*
X654635Y198754D01*
X655254Y198135D01*
X656062Y197800D01*
X656938D01*
X657746Y198135D01*
X658365Y198754D01*
X658700Y199562D01*
Y200438D01*
X658365Y201246D01*
X657746Y201865D01*
X657520Y201959D01*
Y203041D01*
X657746Y203135D01*
X658365Y203754D01*
X658700Y204562D01*
Y205438D01*
X658365Y206246D01*
X657746Y206865D01*
X657520Y206959D01*
Y208041D01*
X657746Y208135D01*
X658365Y208754D01*
X658700Y209562D01*
Y210438D01*
X658365Y211246D01*
X657746Y211865D01*
X656938Y212200D01*
D02*
G37*
G36*
X649438D02*
X648562D01*
X647754Y211865D01*
X647135Y211246D01*
X646800Y210438D01*
Y209562D01*
X647135Y208754D01*
X647754Y208135D01*
X647980Y208041D01*
Y206959D01*
X647754Y206865D01*
X647135Y206246D01*
X646800Y205438D01*
Y204562D01*
X647135Y203754D01*
X647754Y203135D01*
X647980Y203041D01*
Y201959D01*
X647754Y201865D01*
X647135Y201246D01*
X646800Y200438D01*
Y199562D01*
X647135Y198754D01*
X647754Y198135D01*
X648562Y197800D01*
X649438D01*
X650246Y198135D01*
X650865Y198754D01*
X651200Y199562D01*
Y200438D01*
X650865Y201246D01*
X650246Y201865D01*
X650020Y201959D01*
Y203041D01*
X650246Y203135D01*
X650865Y203754D01*
X651200Y204562D01*
Y205438D01*
X650865Y206246D01*
X650246Y206865D01*
X650020Y206959D01*
Y208041D01*
X650246Y208135D01*
X650865Y208754D01*
X651200Y209562D01*
Y210438D01*
X650865Y211246D01*
X650246Y211865D01*
X649438Y212200D01*
D02*
G37*
G36*
X538181Y205811D02*
X536165D01*
X534173Y205496D01*
X532256Y204872D01*
X530459Y203957D01*
X528827Y202772D01*
X527401Y201346D01*
X526216Y199714D01*
X525301Y197918D01*
X524678Y196000D01*
X524362Y194008D01*
Y191992D01*
X524678Y190000D01*
X525301Y188082D01*
X526216Y186286D01*
X527401Y184654D01*
X528827Y183228D01*
X530459Y182043D01*
X532256Y181128D01*
X534173Y180504D01*
X536165Y180189D01*
X538181D01*
X540173Y180504D01*
X542091Y181128D01*
X543888Y182043D01*
X545519Y183228D01*
X546945Y184654D01*
X548130Y186286D01*
X549046Y188082D01*
X549669Y190000D01*
X549984Y191992D01*
Y194008D01*
X549669Y196000D01*
X549046Y197918D01*
X548130Y199714D01*
X546945Y201346D01*
X545519Y202772D01*
X543888Y203957D01*
X542091Y204872D01*
X540173Y205496D01*
X538181Y205811D01*
D02*
G37*
%LPD*%
G36*
X336500Y716500D02*
Y656000D01*
X341206Y651294D01*
X341000Y650527D01*
Y649473D01*
X341273Y648456D01*
X341799Y647544D01*
X342544Y646799D01*
X343456Y646273D01*
X344473Y646000D01*
X345527D01*
X346294Y646206D01*
X348500Y644000D01*
Y626500D01*
X330500D01*
X313000Y644000D01*
Y706500D01*
X308090Y711410D01*
X308754Y712135D01*
X308847Y712096D01*
X309562Y711800D01*
X310438D01*
X311246Y712135D01*
X311865Y712754D01*
X312200Y713562D01*
Y714438D01*
X311865Y715246D01*
X311246Y715865D01*
X310438Y716200D01*
X309562D01*
X308754Y715865D01*
X308135Y715246D01*
X307800Y714438D01*
Y713562D01*
X308096Y712847D01*
X308135Y712754D01*
X307410Y712090D01*
X297000Y722500D01*
X289000D01*
X266500Y700000D01*
X252300D01*
Y712800D01*
X279500Y740000D01*
X295475D01*
X295696Y739747D01*
X296033Y739000D01*
X295800Y738438D01*
Y737562D01*
X296135Y736754D01*
X296754Y736135D01*
X297562Y735800D01*
X298438D01*
X299246Y736135D01*
X299865Y736754D01*
X300200Y737562D01*
Y738438D01*
X299967Y739000D01*
X300304Y739747D01*
X300525Y740000D01*
X313000D01*
X336500Y716500D01*
D02*
G37*
%LPC*%
G36*
X311938Y735900D02*
X311062D01*
X310254Y735565D01*
X309635Y734946D01*
X309300Y734138D01*
Y733262D01*
X309635Y732454D01*
X310254Y731835D01*
X311062Y731500D01*
X311938D01*
X312746Y731835D01*
X313365Y732454D01*
X313700Y733262D01*
Y734138D01*
X313365Y734946D01*
X312746Y735565D01*
X311938Y735900D01*
D02*
G37*
G36*
X270438Y716200D02*
X269562D01*
X268754Y715865D01*
X268135Y715246D01*
X267800Y714438D01*
Y713562D01*
X268135Y712754D01*
X268754Y712135D01*
X269562Y711800D01*
X270438D01*
X271246Y712135D01*
X271865Y712754D01*
X272200Y713562D01*
Y714438D01*
X271865Y715246D01*
X271246Y715865D01*
X270438Y716200D01*
D02*
G37*
G36*
X265238Y711900D02*
X264362D01*
X263554Y711565D01*
X262935Y710946D01*
X262600Y710138D01*
Y709262D01*
X262935Y708454D01*
X263554Y707835D01*
X264362Y707500D01*
X265238D01*
X266046Y707835D01*
X266665Y708454D01*
X267000Y709262D01*
Y710138D01*
X266665Y710946D01*
X266046Y711565D01*
X265238Y711900D01*
D02*
G37*
G36*
X257438Y708200D02*
X256562D01*
X255754Y707865D01*
X255135Y707246D01*
X254800Y706438D01*
Y705562D01*
X255135Y704754D01*
X255754Y704135D01*
X256562Y703800D01*
X257438D01*
X258246Y704135D01*
X258865Y704754D01*
X259200Y705562D01*
Y706438D01*
X258865Y707246D01*
X258246Y707865D01*
X257438Y708200D01*
D02*
G37*
G36*
X332088Y683558D02*
X331213D01*
X330404Y683223D01*
X329785Y682604D01*
X329450Y681796D01*
Y680921D01*
X329785Y680112D01*
X330404Y679493D01*
X331213Y679158D01*
X332088D01*
X332897Y679493D01*
X333516Y680112D01*
X333851Y680921D01*
Y681796D01*
X333516Y682604D01*
X332897Y683223D01*
X332088Y683558D01*
D02*
G37*
G36*
X324976Y648387D02*
X324101D01*
X323292Y648052D01*
X322673Y647433D01*
X322338Y646625D01*
Y645750D01*
X322673Y644941D01*
X323292Y644322D01*
X324101Y643987D01*
X324976D01*
X325785Y644322D01*
X326403Y644941D01*
X326738Y645750D01*
Y646625D01*
X326403Y647433D01*
X325785Y648052D01*
X324976Y648387D01*
D02*
G37*
G36*
X319038Y645400D02*
X318162D01*
X317354Y645065D01*
X316735Y644446D01*
X316400Y643638D01*
Y642762D01*
X316735Y641954D01*
X317354Y641335D01*
X318162Y641000D01*
X319038D01*
X319846Y641335D01*
X320465Y641954D01*
X320800Y642762D01*
Y643638D01*
X320465Y644446D01*
X319846Y645065D01*
X319038Y645400D01*
D02*
G37*
%LPD*%
G36*
X307000Y700500D02*
Y634500D01*
X341000Y600500D01*
Y599473D01*
X341273Y598456D01*
X341799Y597544D01*
X342544Y596799D01*
X343456Y596273D01*
X344473Y596000D01*
X345500D01*
X349000Y592500D01*
Y573007D01*
X348836Y572894D01*
X348000Y572657D01*
X347456Y573201D01*
X346544Y573727D01*
X345527Y574000D01*
X344473D01*
X343456Y573727D01*
X342544Y573201D01*
X341799Y572456D01*
X341273Y571544D01*
X341000Y570527D01*
Y569473D01*
X341273Y568456D01*
X341799Y567544D01*
X342544Y566799D01*
X343456Y566273D01*
X344473Y566000D01*
X345527D01*
X346544Y566273D01*
X347456Y566799D01*
X348000Y567343D01*
X348836Y567106D01*
X349000Y566993D01*
Y562500D01*
X352102Y559398D01*
X354000Y557500D01*
Y551000D01*
Y547000D01*
X329000D01*
X319000Y557000D01*
Y575641D01*
X313571Y581071D01*
X309641Y585000D01*
X247200D01*
Y585438D01*
X246865Y586246D01*
X246246Y586865D01*
X245438Y587200D01*
X244562D01*
X243754Y586865D01*
X243135Y586246D01*
X242800Y585438D01*
Y585000D01*
X162000D01*
X152735Y575735D01*
X151921Y576072D01*
X150701Y576315D01*
X149457D01*
X148237Y576072D01*
X147088Y575596D01*
X146053Y574905D01*
X145174Y574026D01*
X144483Y572991D01*
X144007Y571842D01*
X143764Y570622D01*
Y569378D01*
X144007Y568158D01*
X144344Y567344D01*
X139000Y562000D01*
X119500D01*
Y567207D01*
X120000Y568000D01*
X126000D01*
Y574000D01*
X126000D01*
X125854Y574354D01*
X157500Y606000D01*
X242424D01*
X242800Y605438D01*
Y604562D01*
X243135Y603754D01*
X243754Y603135D01*
X244562Y602800D01*
X245438D01*
X246246Y603135D01*
X246865Y603754D01*
X247200Y604562D01*
Y605438D01*
X247576Y606000D01*
X278500D01*
X286000Y613500D01*
Y652989D01*
X286065Y653054D01*
X286400Y653862D01*
Y654738D01*
X286065Y655546D01*
X286000Y655611D01*
Y680500D01*
X280466Y686034D01*
X280666Y686952D01*
X281276Y687144D01*
X281842Y687047D01*
X282054Y686835D01*
X282862Y686500D01*
X283738D01*
X284546Y686835D01*
X285165Y687454D01*
X285500Y688262D01*
Y689138D01*
X285165Y689946D01*
X284911Y690200D01*
X284646Y690535D01*
X285265Y691154D01*
X285600Y691962D01*
Y692838D01*
X285265Y693646D01*
X284646Y694265D01*
X283838Y694600D01*
X282962D01*
X282409Y694371D01*
X281465Y694446D01*
X280846Y695065D01*
X280038Y695400D01*
X280000D01*
X279000Y696333D01*
X279000Y707000D01*
X291400D01*
Y706162D01*
X291735Y705354D01*
X292089Y705000D01*
X291735Y704646D01*
X291400Y703838D01*
Y702962D01*
X291735Y702154D01*
X292354Y701535D01*
X293162Y701200D01*
X294038D01*
X294846Y701535D01*
X295465Y702154D01*
X295800Y702962D01*
Y703838D01*
X295465Y704646D01*
X295111Y705000D01*
X295465Y705354D01*
X295800Y706162D01*
Y707000D01*
X300500D01*
X307000Y700500D01*
D02*
G37*
%LPC*%
G36*
X267938Y602200D02*
X267062D01*
X266254Y601865D01*
X265635Y601246D01*
X265300Y600438D01*
Y599562D01*
X265635Y598754D01*
X266254Y598135D01*
X267062Y597800D01*
X267938D01*
X268746Y598135D01*
X269365Y598754D01*
X269700Y599562D01*
Y600438D01*
X269365Y601246D01*
X268746Y601865D01*
X267938Y602200D01*
D02*
G37*
G36*
X245438Y597200D02*
X244562D01*
X243754Y596865D01*
X243135Y596246D01*
X242800Y595438D01*
Y594562D01*
X243135Y593754D01*
X243754Y593135D01*
X244562Y592800D01*
X245438D01*
X246246Y593135D01*
X246865Y593754D01*
X247200Y594562D01*
Y595438D01*
X246865Y596246D01*
X246246Y596865D01*
X245438Y597200D01*
D02*
G37*
%LPD*%
G36*
X682500Y254000D02*
X660942D01*
X660274Y255000D01*
X660300Y255062D01*
Y255938D01*
X659965Y256746D01*
X659511Y257200D01*
X660065Y257754D01*
X660400Y258562D01*
Y259438D01*
X660065Y260246D01*
X659446Y260865D01*
X658638Y261200D01*
X657762D01*
X656954Y260865D01*
X656335Y260246D01*
X656000Y259438D01*
Y258562D01*
X656335Y257754D01*
X656789Y257300D01*
X656235Y256746D01*
X655900Y255938D01*
Y255062D01*
X655926Y255000D01*
X655258Y254000D01*
X634000D01*
Y273500D01*
X655420D01*
X655442Y273447D01*
X656061Y272828D01*
X656870Y272493D01*
X657745D01*
X658553Y272828D01*
X659172Y273447D01*
X659194Y273500D01*
X675500D01*
Y292889D01*
X675865Y293254D01*
X676200Y294062D01*
Y294938D01*
X675865Y295746D01*
X675500Y296111D01*
Y313000D01*
X663500D01*
Y317500D01*
X675500Y329500D01*
Y403296D01*
X675565Y403361D01*
X675900Y404170D01*
Y405045D01*
X675565Y405853D01*
X675500Y405918D01*
Y422000D01*
X660161D01*
X660080Y422121D01*
Y422997D01*
X659745Y423805D01*
X659281Y424270D01*
X659765Y424754D01*
X660100Y425562D01*
Y426438D01*
X659765Y427246D01*
X659146Y427865D01*
X658338Y428200D01*
X657462D01*
X656654Y427865D01*
X656035Y427246D01*
X655700Y426438D01*
Y425562D01*
X656035Y424754D01*
X656499Y424289D01*
X656015Y423805D01*
X655680Y422997D01*
Y422121D01*
X655599Y422000D01*
X634000D01*
Y440500D01*
X647662D01*
X648209Y439953D01*
X649017Y439618D01*
X649893D01*
X650701Y439953D01*
X651248Y440500D01*
X655420D01*
X655442Y440447D01*
X656061Y439828D01*
X656870Y439493D01*
X657745D01*
X658553Y439828D01*
X659172Y440447D01*
X659194Y440500D01*
X675500D01*
Y461589D01*
X675765Y461854D01*
X676100Y462662D01*
Y463538D01*
X675765Y464346D01*
X675500Y464611D01*
Y481500D01*
X660500D01*
Y485000D01*
X674000Y498500D01*
Y567633D01*
X674746Y567942D01*
X675365Y568561D01*
X675700Y569370D01*
Y570245D01*
X675365Y571053D01*
X674746Y571672D01*
X674000Y571981D01*
Y588000D01*
X660180D01*
Y588797D01*
X659845Y589605D01*
X659381Y590070D01*
X659965Y590654D01*
X660300Y591462D01*
Y592338D01*
X659965Y593146D01*
X659346Y593765D01*
X658538Y594100D01*
X657662D01*
X656854Y593765D01*
X656235Y593146D01*
X655900Y592338D01*
Y591462D01*
X656235Y590654D01*
X656699Y590189D01*
X656115Y589605D01*
X655780Y588797D01*
Y588000D01*
X634000D01*
Y606500D01*
X655396D01*
X655542Y606147D01*
X656161Y605528D01*
X656969Y605193D01*
X657845D01*
X658653Y605528D01*
X659272Y606147D01*
X659418Y606500D01*
X674000D01*
Y626107D01*
X674038D01*
X674846Y626442D01*
X675465Y627061D01*
X675800Y627870D01*
Y628745D01*
X675465Y629553D01*
X674846Y630172D01*
X674038Y630507D01*
X674000D01*
Y640000D01*
X673903Y639903D01*
X570403D01*
X570104Y639604D01*
X412317Y481817D01*
X412019Y481519D01*
X412018Y481098D01*
X411752Y353534D01*
X411733Y353441D01*
X411681Y353362D01*
X407200Y348881D01*
X400389Y342071D01*
X400311Y342019D01*
X400218Y342000D01*
X217000D01*
X216701Y341701D01*
X181299Y306299D01*
X181000Y306000D01*
Y299020D01*
Y298000D01*
X276900D01*
X276983Y297983D01*
X277000Y297900D01*
Y289100D01*
X276983Y289017D01*
X276900Y289000D01*
X177000D01*
Y287980D01*
Y278100D01*
X176983Y278017D01*
X176900Y278000D01*
X169600D01*
X169517Y278017D01*
X169500Y278100D01*
Y309400D01*
X169518Y309492D01*
X169571Y309571D01*
X204000Y344000D01*
X187071Y360929D01*
X187019Y361008D01*
X187000Y361100D01*
Y413900D01*
X187017Y413983D01*
X187100Y414000D01*
X205900D01*
X205983Y413983D01*
X206000Y413900D01*
Y406000D01*
Y373062D01*
X205718Y372831D01*
X205000Y372517D01*
X204414Y372760D01*
X203539D01*
X202730Y372425D01*
X202111Y371806D01*
X201776Y370998D01*
Y370122D01*
X202111Y369314D01*
X202730Y368695D01*
X203539Y368360D01*
X204414D01*
X205223Y368695D01*
X205841Y369314D01*
X206176Y370122D01*
Y370998D01*
X206175Y371000D01*
X206843Y372000D01*
X223156D01*
X223769Y371083D01*
X223769Y371083D01*
X223825Y371000D01*
Y371000D01*
X223824Y370998D01*
Y370122D01*
X224159Y369314D01*
X224777Y368695D01*
X225399Y368438D01*
X225399Y368437D01*
X225586Y368360D01*
X226461D01*
X227270Y368695D01*
X227889Y369314D01*
X228146Y369935D01*
X228146Y369935D01*
X228224Y370122D01*
Y370998D01*
X228223Y371000D01*
Y371000D01*
X228278Y371083D01*
X228278Y371083D01*
X228891Y372000D01*
X236109D01*
X236722Y371083D01*
X236722Y371083D01*
X236777Y371000D01*
Y371000D01*
X236776Y370998D01*
Y370122D01*
X237111Y369314D01*
X237730Y368695D01*
X238351Y368438D01*
X238351Y368437D01*
X238539Y368360D01*
X239414D01*
X240223Y368695D01*
X240841Y369314D01*
X241099Y369935D01*
X241099Y369935D01*
X241176Y370122D01*
Y370998D01*
X241175Y371000D01*
Y371000D01*
X241231Y371083D01*
X241231Y371083D01*
X241844Y372000D01*
X258156D01*
X258769Y371083D01*
X258769Y371083D01*
X258825Y371000D01*
Y371000D01*
X258824Y370998D01*
Y370122D01*
X259159Y369314D01*
X259777Y368695D01*
X260399Y368438D01*
X260399Y368437D01*
X260586Y368360D01*
X261461D01*
X262270Y368695D01*
X262889Y369314D01*
X263146Y369935D01*
X263146Y369935D01*
X263224Y370122D01*
Y370998D01*
X263223Y371000D01*
Y371000D01*
X263278Y371083D01*
X263278Y371083D01*
X263891Y372000D01*
X271109D01*
X271722Y371083D01*
X271722Y371083D01*
X271777Y371000D01*
Y371000D01*
X271776Y370998D01*
Y370122D01*
X272111Y369314D01*
X272730Y368695D01*
X273351Y368438D01*
X273351Y368437D01*
X273539Y368360D01*
X274414D01*
X275223Y368695D01*
X275841Y369314D01*
X276099Y369935D01*
X276099Y369935D01*
X276176Y370122D01*
Y370998D01*
X276175Y371000D01*
Y371000D01*
X276231Y371083D01*
X276231Y371083D01*
X276844Y372000D01*
X288900D01*
X288992Y371982D01*
X289071Y371929D01*
X305701Y355299D01*
X306000Y355000D01*
X335500D01*
X364578Y355000D01*
X365000D01*
X391208Y381208D01*
Y463806D01*
X390909Y464105D01*
X376926Y478070D01*
X364385Y490595D01*
X364086Y490894D01*
X240700D01*
X240617Y490911D01*
X240600Y490994D01*
Y508100D01*
X240617Y508183D01*
X240700Y508200D01*
X242300D01*
X242815Y507429D01*
Y506554D01*
X243150Y505746D01*
X243769Y505127D01*
X244578Y504792D01*
X245453D01*
X246261Y505127D01*
X246880Y505746D01*
X247215Y506554D01*
Y507429D01*
X247730Y508200D01*
X265125D01*
X265300Y507938D01*
Y507062D01*
X265635Y506254D01*
X266254Y505635D01*
X267062Y505300D01*
X267938D01*
X268746Y505635D01*
X269365Y506254D01*
X269700Y507062D01*
Y507938D01*
X269875Y508200D01*
X332800D01*
X406778Y508200D01*
X407200D01*
X407499Y508499D01*
X572929Y673929D01*
X573008Y673982D01*
X573100Y674000D01*
X598684D01*
X634000Y674000D01*
Y674000D01*
X655624D01*
X656039Y673000D01*
X655785Y672746D01*
X655450Y671938D01*
Y671062D01*
X655785Y670254D01*
X656404Y669635D01*
X657029Y669376D01*
X657061Y668589D01*
X657029Y668379D01*
X657029Y668376D01*
X656261Y668058D01*
X655642Y667439D01*
X655307Y666631D01*
Y665755D01*
X655642Y664947D01*
X656261Y664328D01*
X657069Y663993D01*
X657945D01*
X658753Y664328D01*
X659372Y664947D01*
X659707Y665755D01*
Y666631D01*
X659372Y667439D01*
X658753Y668058D01*
X658128Y668317D01*
X658096Y669103D01*
X658128Y669314D01*
X658128Y669317D01*
X658896Y669635D01*
X659515Y670254D01*
X659850Y671062D01*
Y671938D01*
X659515Y672746D01*
X659261Y673000D01*
X659676Y674000D01*
X682500D01*
Y254000D01*
D02*
G37*
%LPC*%
G36*
X658856Y657160D02*
X657981D01*
X657173Y656825D01*
X656554Y656206D01*
X656219Y655398D01*
Y654935D01*
X655420Y654274D01*
X655295Y654235D01*
X655138Y654300D01*
X654262D01*
X653454Y653965D01*
X652835Y653346D01*
X652500Y652538D01*
Y651662D01*
X652835Y650854D01*
X653454Y650235D01*
X654262Y649900D01*
X655138D01*
X655946Y650235D01*
X656565Y650854D01*
X656900Y651662D01*
Y652125D01*
X657699Y652786D01*
X657824Y652825D01*
X657981Y652760D01*
X658856D01*
X659665Y653095D01*
X660284Y653714D01*
X660619Y654522D01*
Y655398D01*
X660284Y656206D01*
X659665Y656825D01*
X658856Y657160D01*
D02*
G37*
G36*
X646938Y668200D02*
X646062D01*
X645254Y667865D01*
X644635Y667246D01*
X644300Y666438D01*
Y665562D01*
X644635Y664754D01*
X645254Y664135D01*
X645970Y663838D01*
X646807Y663245D01*
Y662369D01*
X647142Y661561D01*
X647550Y661153D01*
X647678Y660550D01*
X647550Y659947D01*
X647142Y659539D01*
X646807Y658731D01*
Y657855D01*
X646100Y657233D01*
X646006Y657177D01*
X645254Y656865D01*
X644635Y656246D01*
X644300Y655438D01*
Y654562D01*
X644635Y653754D01*
X645254Y653135D01*
X646062Y652800D01*
X646938D01*
X647746Y653135D01*
X648365Y653754D01*
X648700Y654562D01*
Y655438D01*
X649408Y656060D01*
X649501Y656116D01*
X650253Y656428D01*
X650872Y657047D01*
X651207Y657855D01*
Y658731D01*
X650872Y659539D01*
X650464Y659947D01*
X650336Y660550D01*
X650464Y661153D01*
X650872Y661561D01*
X651207Y662369D01*
Y663245D01*
X650872Y664053D01*
X650253Y664672D01*
X649537Y664969D01*
X648700Y665562D01*
Y666438D01*
X648365Y667246D01*
X647746Y667865D01*
X646938Y668200D01*
D02*
G37*
G36*
X313938Y505700D02*
X313062D01*
X312254Y505365D01*
X311635Y504746D01*
X311300Y503938D01*
Y503062D01*
X311635Y502254D01*
X312254Y501635D01*
X313062Y501300D01*
X313938D01*
X314746Y501635D01*
X315365Y502254D01*
X315700Y503062D01*
Y503938D01*
X315365Y504746D01*
X314746Y505365D01*
X313938Y505700D01*
D02*
G37*
G36*
X285438Y497200D02*
X284562D01*
X283754Y496865D01*
X283135Y496246D01*
X282800Y495438D01*
Y494562D01*
X283135Y493754D01*
X283754Y493135D01*
X284562Y492800D01*
X285438D01*
X286246Y493135D01*
X286865Y493754D01*
X287200Y494562D01*
Y495438D01*
X286865Y496246D01*
X286246Y496865D01*
X285438Y497200D01*
D02*
G37*
G36*
X269438D02*
X268562D01*
X267754Y496865D01*
X267135Y496246D01*
X266800Y495438D01*
Y494562D01*
X267135Y493754D01*
X267754Y493135D01*
X268562Y492800D01*
X269438D01*
X270246Y493135D01*
X270865Y493754D01*
X271200Y494562D01*
Y495438D01*
X270865Y496246D01*
X270246Y496865D01*
X269438Y497200D01*
D02*
G37*
G36*
X388238Y487900D02*
X387362D01*
X386554Y487565D01*
X385935Y486946D01*
X385600Y486138D01*
Y485262D01*
X385935Y484454D01*
X386554Y483835D01*
X387362Y483500D01*
X388238D01*
X389046Y483835D01*
X389665Y484454D01*
X390000Y485262D01*
Y486138D01*
X389665Y486946D01*
X389046Y487565D01*
X388238Y487900D01*
D02*
G37*
G36*
X386838Y363400D02*
X385962D01*
X385154Y363065D01*
X384535Y362446D01*
X384200Y361638D01*
Y360762D01*
X384535Y359954D01*
X385154Y359335D01*
X385962Y359000D01*
X386838D01*
X387646Y359335D01*
X388265Y359954D01*
X388600Y360762D01*
Y361638D01*
X388265Y362446D01*
X387646Y363065D01*
X386838Y363400D01*
D02*
G37*
G36*
X312438Y352200D02*
X311562D01*
X310754Y351865D01*
X310135Y351246D01*
X309800Y350438D01*
Y349562D01*
X310135Y348754D01*
X310754Y348135D01*
X311562Y347800D01*
X312438D01*
X313246Y348135D01*
X313865Y348754D01*
X314200Y349562D01*
Y350438D01*
X313865Y351246D01*
X313246Y351865D01*
X312438Y352200D01*
D02*
G37*
%LPD*%
G36*
X605000Y508000D02*
X559500D01*
Y524000D01*
X605000D01*
Y508000D01*
D02*
G37*
G36*
X541500Y498500D02*
X548000Y492000D01*
X567000D01*
Y476500D01*
X549600D01*
X531300Y494800D01*
Y514500D01*
X541500D01*
Y498500D01*
D02*
G37*
G36*
X151000Y463000D02*
X140000Y452000D01*
X120000D01*
Y455701D01*
X138201D01*
X147000Y464500D01*
Y476000D01*
X151000D01*
Y463000D01*
D02*
G37*
G36*
X466500Y355128D02*
X466309Y354917D01*
X465719Y354472D01*
X465158Y354796D01*
X464395Y355000D01*
X463605D01*
X462842Y354796D01*
X462158Y354401D01*
X461599Y353842D01*
X461204Y353158D01*
X461000Y352395D01*
Y351605D01*
X461204Y350842D01*
X461599Y350158D01*
X461629Y350129D01*
X426444Y314944D01*
X426254Y314865D01*
X425635Y314246D01*
X425556Y314056D01*
X423584Y312084D01*
X422844Y312485D01*
X422700Y312614D01*
Y313438D01*
X422365Y314246D01*
X421746Y314865D01*
X420938Y315200D01*
X420062D01*
X419254Y314865D01*
X418635Y314246D01*
X418300Y313438D01*
Y312562D01*
X418635Y311754D01*
X419254Y311135D01*
X420062Y310800D01*
X420886D01*
X421015Y310656D01*
X421416Y309916D01*
X420700Y309200D01*
X420062D01*
X419254Y308865D01*
X418889Y308500D01*
X415111D01*
X414746Y308865D01*
X413938Y309200D01*
X413062D01*
X412254Y308865D01*
X411889Y308500D01*
X377842D01*
X377174Y309500D01*
X377200Y309562D01*
Y310438D01*
X376865Y311246D01*
X376246Y311865D01*
X375438Y312200D01*
X374562D01*
X373754Y311865D01*
X373135Y311246D01*
X372800Y310438D01*
Y309562D01*
X372826Y309500D01*
X372158Y308500D01*
X237842D01*
X237174Y309500D01*
X237200Y309562D01*
Y310438D01*
X236865Y311246D01*
X236246Y311865D01*
X235438Y312200D01*
X234562D01*
X233754Y311865D01*
X233135Y311246D01*
X232800Y310438D01*
Y309562D01*
X232826Y309500D01*
X232158Y308500D01*
X221000D01*
Y336000D01*
X408000D01*
X445500Y373500D01*
X466500D01*
Y355128D01*
D02*
G37*
%LPC*%
G36*
X420938Y320600D02*
X420062D01*
X419254Y320265D01*
X418635Y319646D01*
X418300Y318838D01*
Y317962D01*
X418635Y317154D01*
X419254Y316535D01*
X420062Y316200D01*
X420938D01*
X421746Y316535D01*
X422365Y317154D01*
X422700Y317962D01*
Y318838D01*
X422365Y319646D01*
X421746Y320265D01*
X420938Y320600D01*
D02*
G37*
G36*
X315438Y317200D02*
X314562D01*
X313754Y316865D01*
X313135Y316246D01*
X312800Y315438D01*
Y314562D01*
X313135Y313754D01*
X313754Y313135D01*
X314562Y312800D01*
X315438D01*
X316246Y313135D01*
X316865Y313754D01*
X317200Y314562D01*
Y315438D01*
X316865Y316246D01*
X316246Y316865D01*
X315438Y317200D01*
D02*
G37*
G36*
X413938Y315200D02*
X413062D01*
X412254Y314865D01*
X411635Y314246D01*
X411300Y313438D01*
Y312562D01*
X411635Y311754D01*
X412254Y311135D01*
X413062Y310800D01*
X413938D01*
X414746Y311135D01*
X415365Y311754D01*
X415700Y312562D01*
Y313438D01*
X415365Y314246D01*
X414746Y314865D01*
X413938Y315200D01*
D02*
G37*
%LPD*%
G36*
X604500Y333000D02*
X559000D01*
Y349000D01*
X604500D01*
Y333000D01*
D02*
G37*
G36*
X543100Y328900D02*
X554500Y317500D01*
X568000D01*
Y305000D01*
X552100D01*
X532900Y324200D01*
Y341000D01*
X543100D01*
Y328900D01*
D02*
G37*
D117*
X83220Y442992D02*
D03*
Y477008D02*
D03*
Y622992D02*
D03*
Y657008D02*
D03*
D118*
X67472Y442992D02*
D03*
Y477008D02*
D03*
Y622992D02*
D03*
Y657008D02*
D03*
D124*
X394060Y495940D02*
X405500Y484500D01*
X333560Y495940D02*
X394060D01*
X405500Y362000D02*
Y485500D01*
X296900Y501500D02*
X302461Y495939D01*
X333439D01*
X252079Y501500D02*
X296900D01*
X243721Y493142D02*
X252079Y501500D01*
X677879Y663357D02*
Y671500D01*
X409412Y332512D02*
X433900Y357000D01*
X224186Y332512D02*
X409412D01*
X284200Y701800D02*
X296500Y689500D01*
X566000Y646000D02*
X660521D01*
X664021Y649500D01*
X405500Y485500D02*
X566000Y646000D01*
X664021Y649500D02*
X677879Y663357D01*
X546500Y489000D02*
X564000D01*
X537050Y498450D02*
X546500Y489000D01*
X537050Y498450D02*
Y512050D01*
X284200Y701800D02*
Y701919D01*
X296500Y638500D02*
X345000Y590000D01*
X154000D02*
X345000D01*
X130000Y566000D02*
X154000Y590000D01*
X296500Y638500D02*
Y689500D01*
X332500Y558500D02*
X337000Y554000D01*
X337500Y580000D02*
X345000D01*
Y590000D01*
X332500Y575000D02*
X337500Y580000D01*
X332500Y558500D02*
Y575000D01*
X538500Y328500D02*
X552500Y314500D01*
X565000D01*
X538500Y328500D02*
Y338000D01*
D126*
X565000Y516000D02*
X594000D01*
X565000Y341000D02*
X592000D01*
D127*
X677729Y613100D02*
Y665929D01*
X677700Y506929D02*
Y607300D01*
X174000Y293100D02*
Y302200D01*
X215800Y344000D01*
X190500Y369300D02*
X215800Y344000D01*
X190500Y369300D02*
Y409928D01*
X215800Y344000D02*
X238700D01*
X277000D01*
X217000Y365700D02*
X238700Y344000D01*
X174000Y293100D02*
X174685Y292415D01*
X274978D01*
X174000Y284000D02*
Y293100D01*
X149000Y464000D02*
Y474000D01*
X139000Y454000D02*
X149000Y464000D01*
X121500Y454000D02*
X139000D01*
X677900Y441800D02*
Y446929D01*
Y447071D02*
Y501500D01*
X677829Y447000D02*
X677900Y447071D01*
X665900Y316000D02*
X677900Y328000D01*
Y280071D02*
Y328000D01*
Y332400D01*
Y338492D01*
X663928Y591000D02*
X665964Y593036D01*
X677729Y604800D01*
X646400Y603600D02*
X655400D01*
X665964Y593036D01*
X677729Y665929D02*
X677800Y666000D01*
X651860Y270940D02*
X665300Y257500D01*
X646260Y270940D02*
X651860D01*
X677860Y274240D02*
X677900Y274200D01*
X677860Y274240D02*
Y280031D01*
X651628Y437600D02*
X664028Y425200D01*
X646300Y437600D02*
X651628D01*
X677900Y439072D02*
Y441800D01*
Y338492D02*
Y439072D01*
X677829Y501500D02*
Y506800D01*
X677700Y506929D02*
X677829Y506800D01*
X677729Y607300D02*
Y613100D01*
X324000Y661000D02*
Y708000D01*
Y661000D02*
X345000Y640000D01*
X307000Y725000D02*
X324000Y708000D01*
X287500Y725000D02*
X307000D01*
X268500Y706000D02*
X287500Y725000D01*
X345000Y630000D02*
Y640000D01*
X264500Y702000D02*
X268500Y706000D01*
X287000Y369000D02*
X312000Y344000D01*
X333500D01*
X277000D02*
X312000D01*
X252000Y369000D02*
X277000Y344000D01*
X646371Y603629D02*
X646400Y603600D01*
X637400Y603629D02*
X646371D01*
X664028Y484300D02*
X677829Y498100D01*
X637000Y437600D02*
X646300D01*
X646148Y270829D02*
X646260Y270940D01*
X637000Y270829D02*
X646148D01*
X677900Y270100D02*
Y274200D01*
X665300Y257500D02*
X677900Y270100D01*
X664028Y425200D02*
X677900Y439072D01*
X195500Y409928D02*
X202349D01*
X203420Y411000D01*
X190500Y409928D02*
X195500D01*
X333500Y344000D02*
X399500D01*
X405500Y350000D01*
D128*
X433900Y357000D02*
X464000D01*
X123000Y566000D02*
X130000D01*
X337000Y554000D02*
X352000D01*
D132*
X280000Y570000D02*
D03*
Y758976D02*
D03*
X150079Y570000D02*
D03*
Y758976D02*
D03*
D133*
X794000Y762000D02*
D03*
Y752000D02*
D03*
Y714000D02*
D03*
Y704000D02*
D03*
D134*
X784000Y762000D02*
D03*
Y752000D02*
D03*
Y714000D02*
D03*
Y704000D02*
D03*
D136*
X714500Y373300D02*
D03*
X714000Y538000D02*
D03*
X714315Y204500D02*
D03*
X355000Y570000D02*
D03*
X345000D02*
D03*
X355000Y580000D02*
D03*
X345000D02*
D03*
X355000Y590000D02*
D03*
X345000D02*
D03*
X355000Y600000D02*
D03*
X345000D02*
D03*
X355000Y610000D02*
D03*
X345000D02*
D03*
X355000Y620000D02*
D03*
X345000D02*
D03*
X355000Y630000D02*
D03*
X345000D02*
D03*
X355000Y640000D02*
D03*
X345000D02*
D03*
X355000Y650000D02*
D03*
X345000D02*
D03*
X355000Y660000D02*
D03*
X345000D02*
D03*
X355000Y670000D02*
D03*
X345000D02*
D03*
X355000Y680000D02*
D03*
X345000D02*
D03*
X355000Y690000D02*
D03*
X345000D02*
D03*
X355000Y700000D02*
D03*
X345000D02*
D03*
X355000Y710000D02*
D03*
X345000D02*
D03*
X355000Y720000D02*
D03*
X345000D02*
D03*
X355000Y730000D02*
D03*
X345000D02*
D03*
X355000Y740000D02*
D03*
X345000D02*
D03*
X355000Y750000D02*
D03*
X345000D02*
D03*
X355000Y760000D02*
D03*
X345000D02*
D03*
X734185Y373300D02*
D03*
X733685Y538000D02*
D03*
X734000Y204500D02*
D03*
D139*
X778000Y232000D02*
D03*
Y262000D02*
D03*
Y400000D02*
D03*
Y430000D02*
D03*
X777500Y599500D02*
D03*
Y629500D02*
D03*
Y297500D02*
D03*
Y327500D02*
D03*
X778000Y466000D02*
D03*
Y496000D02*
D03*
D140*
X664024Y703500D02*
D03*
X753000D02*
D03*
X664524Y752000D02*
D03*
X753500D02*
D03*
D141*
X508827Y193000D02*
D03*
X537173D02*
D03*
D143*
X464000Y347000D02*
D03*
Y352000D02*
D03*
X293000Y475000D02*
D03*
X154000Y545000D02*
D03*
X123000Y566000D02*
D03*
X352000Y554000D02*
D03*
D144*
X464000Y357000D02*
D03*
X293000Y470000D02*
D03*
X123000Y571000D02*
D03*
D145*
X322933Y391000D02*
D03*
Y400843D02*
D03*
Y381157D02*
D03*
Y371315D02*
D03*
Y410685D02*
D03*
Y480685D02*
D03*
Y441315D02*
D03*
Y451158D02*
D03*
Y470843D02*
D03*
Y461000D02*
D03*
D147*
X231756Y446488D02*
D03*
Y440976D02*
D03*
Y452000D02*
D03*
X237268Y440976D02*
D03*
Y446488D02*
D03*
Y452000D02*
D03*
X229000Y443732D02*
D03*
Y449244D02*
D03*
X234512Y443732D02*
D03*
Y449244D02*
D03*
X240024Y443732D02*
D03*
Y449244D02*
D03*
D148*
X149000Y545000D02*
D03*
X357000Y554000D02*
D03*
D149*
X267500Y507500D02*
D03*
Y517500D02*
D03*
Y527500D02*
D03*
Y550000D02*
D03*
Y560000D02*
D03*
Y572500D02*
D03*
Y582500D02*
D03*
Y600000D02*
D03*
Y610000D02*
D03*
Y620000D02*
D03*
Y630000D02*
D03*
X244747Y517371D02*
D03*
X244838Y532546D02*
D03*
X244929Y547720D02*
D03*
X244838Y562531D02*
D03*
X244993Y647550D02*
D03*
X260000Y670000D02*
D03*
X250000Y660000D02*
D03*
X245129Y641467D02*
D03*
X245000Y635000D02*
D03*
Y625000D02*
D03*
X245015Y506992D02*
D03*
X245000Y525000D02*
D03*
Y540000D02*
D03*
Y555000D02*
D03*
Y570000D02*
D03*
Y585000D02*
D03*
Y595000D02*
D03*
Y605000D02*
D03*
Y615000D02*
D03*
X631000Y213500D02*
D03*
X623402Y212902D02*
D03*
X631000Y219000D02*
D03*
X623500D02*
D03*
Y224500D02*
D03*
X631000D02*
D03*
X638500D02*
D03*
Y219000D02*
D03*
Y213500D02*
D03*
Y230000D02*
D03*
X623500D02*
D03*
X631000D02*
D03*
X724000Y278000D02*
D03*
X730000D02*
D03*
X736000D02*
D03*
X742000D02*
D03*
Y282000D02*
D03*
X736000D02*
D03*
X730000D02*
D03*
X724000D02*
D03*
Y286000D02*
D03*
X730000D02*
D03*
X736000D02*
D03*
X742000D02*
D03*
Y454000D02*
D03*
X736000D02*
D03*
X730000D02*
D03*
X724000D02*
D03*
Y450000D02*
D03*
X730000D02*
D03*
X736000D02*
D03*
X742000D02*
D03*
Y446000D02*
D03*
X736000D02*
D03*
X730000D02*
D03*
X724000D02*
D03*
X742000Y620000D02*
D03*
X736000D02*
D03*
X730000D02*
D03*
X724000D02*
D03*
Y616000D02*
D03*
X730000D02*
D03*
X736000D02*
D03*
X742000D02*
D03*
Y612000D02*
D03*
X736000D02*
D03*
X730000D02*
D03*
X724000D02*
D03*
X752000Y614000D02*
D03*
X746000D02*
D03*
Y618000D02*
D03*
X752000D02*
D03*
Y448000D02*
D03*
X746000D02*
D03*
Y452000D02*
D03*
X752000D02*
D03*
Y280000D02*
D03*
X746000D02*
D03*
Y284000D02*
D03*
X752000D02*
D03*
X656500Y205000D02*
D03*
X649000D02*
D03*
X664000D02*
D03*
X679500D02*
D03*
X672000D02*
D03*
X687000D02*
D03*
X701500D02*
D03*
X709000D02*
D03*
X694000D02*
D03*
X656500Y210000D02*
D03*
X664000D02*
D03*
X649000D02*
D03*
X679500D02*
D03*
X687000D02*
D03*
X672000D02*
D03*
X679500Y200000D02*
D03*
X687000D02*
D03*
X672000D02*
D03*
X656500D02*
D03*
X664000D02*
D03*
X649000D02*
D03*
X701500Y210000D02*
D03*
X709000D02*
D03*
X694000D02*
D03*
X701500Y200000D02*
D03*
X709000D02*
D03*
X694000D02*
D03*
X690000Y373000D02*
D03*
Y367000D02*
D03*
Y361000D02*
D03*
Y355000D02*
D03*
X694000D02*
D03*
Y361000D02*
D03*
Y367000D02*
D03*
Y373000D02*
D03*
X698000D02*
D03*
Y367000D02*
D03*
Y361000D02*
D03*
Y355000D02*
D03*
X687000Y541000D02*
D03*
Y535000D02*
D03*
Y529000D02*
D03*
Y523000D02*
D03*
X691000D02*
D03*
Y529000D02*
D03*
Y535000D02*
D03*
Y541000D02*
D03*
X695000D02*
D03*
Y535000D02*
D03*
Y529000D02*
D03*
Y523000D02*
D03*
X699000D02*
D03*
Y529000D02*
D03*
Y535000D02*
D03*
Y541000D02*
D03*
X702000Y355000D02*
D03*
Y361000D02*
D03*
Y367000D02*
D03*
Y373000D02*
D03*
X289500Y450200D02*
D03*
X289700Y444800D02*
D03*
X349999Y717884D02*
D03*
X349950Y707718D02*
D03*
X331650Y681358D02*
D03*
X445000Y245000D02*
D03*
X435000Y190000D02*
D03*
X85000Y210000D02*
D03*
X80000Y380000D02*
D03*
Y320000D02*
D03*
X85000Y260000D02*
D03*
X437416Y396070D02*
D03*
X512047Y386260D02*
D03*
X543653Y397682D02*
D03*
X485000Y540000D02*
D03*
X210000Y640000D02*
D03*
X170000Y660000D02*
D03*
X250000Y430000D02*
D03*
X155000Y360000D02*
D03*
X80000Y535000D02*
D03*
X215000Y525000D02*
D03*
X190000Y515000D02*
D03*
X425000Y480000D02*
D03*
X360000Y185000D02*
D03*
X370000Y235000D02*
D03*
X315000Y315000D02*
D03*
X320000Y250000D02*
D03*
X240000Y270000D02*
D03*
X235000Y310000D02*
D03*
X160000Y315000D02*
D03*
X155000Y260000D02*
D03*
X325000Y285000D02*
D03*
X219000Y262000D02*
D03*
X646500Y655000D02*
D03*
X243721Y493142D02*
D03*
X268779Y689971D02*
D03*
X266315Y302976D02*
D03*
X275777Y238396D02*
D03*
X206081Y301209D02*
D03*
X196000Y268000D02*
D03*
X189887Y264112D02*
D03*
X182347Y263669D02*
D03*
X214000Y270000D02*
D03*
Y503500D02*
D03*
Y479500D02*
D03*
X313500Y503500D02*
D03*
X299211Y277811D02*
D03*
X217000Y365700D02*
D03*
X225500Y382200D02*
D03*
X226024Y370560D02*
D03*
X283811Y262063D02*
D03*
X283757Y285633D02*
D03*
X266685Y459894D02*
D03*
X274978Y292415D02*
D03*
X283811Y277811D02*
D03*
X284000Y270000D02*
D03*
X174000Y284000D02*
D03*
Y280000D02*
D03*
X259100Y650000D02*
D03*
X234214Y407032D02*
D03*
X266791Y455000D02*
D03*
X266653Y695376D02*
D03*
X159000Y525000D02*
D03*
X110000Y457000D02*
D03*
Y461000D02*
D03*
X279600Y693200D02*
D03*
X283300Y688700D02*
D03*
X279500Y689100D02*
D03*
X279600Y635700D02*
D03*
X280000Y640600D02*
D03*
X283700Y666300D02*
D03*
X279800Y666100D02*
D03*
X283700Y662300D02*
D03*
X279700Y662400D02*
D03*
X270500Y656500D02*
D03*
X270900Y648900D02*
D03*
X271100Y652600D02*
D03*
X267400Y675200D02*
D03*
X267200Y678900D02*
D03*
X267000Y682900D02*
D03*
X267200Y686400D02*
D03*
X150000Y639000D02*
D03*
X146500D02*
D03*
X495000Y690000D02*
D03*
X507900Y750200D02*
D03*
X432500Y764800D02*
D03*
X540000Y600000D02*
D03*
X530000Y665000D02*
D03*
X490000Y625000D02*
D03*
X425000Y675000D02*
D03*
X445000Y730000D02*
D03*
X430000Y625000D02*
D03*
X564400Y766600D02*
D03*
X560000Y735000D02*
D03*
X381000Y750800D02*
D03*
X332200Y766000D02*
D03*
X302100D02*
D03*
X311500Y733700D02*
D03*
X330100Y750200D02*
D03*
X324538Y646187D02*
D03*
X318600Y643200D02*
D03*
X316900Y633300D02*
D03*
X377900Y681000D02*
D03*
X368100Y631100D02*
D03*
X411500Y543800D02*
D03*
X619300Y557700D02*
D03*
X584300Y557400D02*
D03*
X584100Y585500D02*
D03*
X584400Y608600D02*
D03*
X680100Y693500D02*
D03*
X680300Y718300D02*
D03*
X680700Y741000D02*
D03*
X681000Y766300D02*
D03*
X650700Y770400D02*
D03*
X618400Y753300D02*
D03*
X601300Y734700D02*
D03*
X583600Y706400D02*
D03*
X584500Y677500D02*
D03*
X650100Y685300D02*
D03*
X324000Y425800D02*
D03*
X284700Y462400D02*
D03*
X288000Y415100D02*
D03*
X255100Y388500D02*
D03*
X264200Y398600D02*
D03*
X584400Y364700D02*
D03*
X584700Y419900D02*
D03*
X584200Y396400D02*
D03*
X584600Y386000D02*
D03*
X584800Y376500D02*
D03*
X556700Y246800D02*
D03*
X542500Y233500D02*
D03*
X525600Y216900D02*
D03*
X511400Y213900D02*
D03*
X486600Y181600D02*
D03*
X507200Y230200D02*
D03*
X416900Y271300D02*
D03*
X450700Y300200D02*
D03*
X481800Y361500D02*
D03*
X386400Y361200D02*
D03*
X358000D02*
D03*
X351700Y460600D02*
D03*
X284400Y517300D02*
D03*
X320600Y531800D02*
D03*
X363800Y518400D02*
D03*
X387800Y485700D02*
D03*
X367400Y422600D02*
D03*
X543000Y424400D02*
D03*
X430200Y417900D02*
D03*
X477000Y423000D02*
D03*
X451600Y459200D02*
D03*
X474500Y481400D02*
D03*
X672200Y352000D02*
D03*
X665300Y417300D02*
D03*
X663100Y475600D02*
D03*
X628900Y506800D02*
D03*
X639800Y464500D02*
D03*
X626700Y440300D02*
D03*
X628300Y411400D02*
D03*
X645600Y392000D02*
D03*
X665700Y378900D02*
D03*
X629700Y371600D02*
D03*
X649100Y350700D02*
D03*
X625000Y325200D02*
D03*
X625200Y301300D02*
D03*
X624400Y276300D02*
D03*
X626400Y240300D02*
D03*
X639500Y180600D02*
D03*
X639600Y176900D02*
D03*
X623500Y191300D02*
D03*
X785700Y203500D02*
D03*
X802800Y339000D02*
D03*
X799700Y226900D02*
D03*
X765500Y228100D02*
D03*
X758900Y279700D02*
D03*
X774400Y311300D02*
D03*
X733800Y341200D02*
D03*
X783200Y350000D02*
D03*
X749900Y355700D02*
D03*
X783200Y374000D02*
D03*
X797000Y520000D02*
D03*
X770700Y557100D02*
D03*
X762500Y614500D02*
D03*
X801000Y394100D02*
D03*
X766600Y397800D02*
D03*
X758300Y448200D02*
D03*
X775100Y481000D02*
D03*
X775000Y530000D02*
D03*
X795000Y545000D02*
D03*
Y575000D02*
D03*
Y610000D02*
D03*
Y650000D02*
D03*
X770000Y690000D02*
D03*
Y735000D02*
D03*
X715000Y730000D02*
D03*
Y755000D02*
D03*
Y700000D02*
D03*
Y675000D02*
D03*
X625000Y595000D02*
D03*
X660000Y525000D02*
D03*
X635000Y530000D02*
D03*
X655000Y550000D02*
D03*
X630000Y560000D02*
D03*
X629121Y622527D02*
D03*
X510000Y570000D02*
D03*
X575000Y595000D02*
D03*
X555000Y555000D02*
D03*
X440000Y570000D02*
D03*
X390000Y715000D02*
D03*
X375000Y595000D02*
D03*
X280000Y615000D02*
D03*
X240000Y665000D02*
D03*
X270000Y740000D02*
D03*
X240000Y760000D02*
D03*
X220000Y715000D02*
D03*
X175000D02*
D03*
X180000Y755000D02*
D03*
X105000D02*
D03*
X80000Y680000D02*
D03*
X120000Y685000D02*
D03*
X195000D02*
D03*
X240000Y575000D02*
D03*
X235000Y540000D02*
D03*
X205000Y560000D02*
D03*
X240000Y630000D02*
D03*
X200000Y610000D02*
D03*
X150000D02*
D03*
X115000Y595000D02*
D03*
X95000Y555000D02*
D03*
X130000Y540000D02*
D03*
X95000Y510000D02*
D03*
X135000Y500000D02*
D03*
X190000Y475000D02*
D03*
Y445000D02*
D03*
X235000Y395000D02*
D03*
X285000Y495000D02*
D03*
X260000Y465000D02*
D03*
X235000D02*
D03*
X170000Y415000D02*
D03*
X145000Y420000D02*
D03*
X95000Y405000D02*
D03*
X375000Y310000D02*
D03*
X470000Y320000D02*
D03*
X465000Y275000D02*
D03*
X470000Y210000D02*
D03*
X410000Y225000D02*
D03*
X365000Y270000D02*
D03*
X325000Y220000D02*
D03*
X250000Y205000D02*
D03*
X175000Y210000D02*
D03*
X120000Y235000D02*
D03*
X115000Y305000D02*
D03*
X112067Y355192D02*
D03*
X78500Y627500D02*
D03*
X92902Y652598D02*
D03*
X270500Y697000D02*
D03*
Y693800D02*
D03*
X695100Y644500D02*
D03*
X698900D02*
D03*
X702700D02*
D03*
X706929D02*
D03*
X149000Y474000D02*
D03*
X121500Y454000D02*
D03*
X677829Y447000D02*
D03*
X677900Y332400D02*
D03*
Y338492D02*
D03*
X594000Y520000D02*
D03*
Y516000D02*
D03*
Y512000D02*
D03*
X598500D02*
D03*
Y516000D02*
D03*
Y520000D02*
D03*
X603000D02*
D03*
Y516000D02*
D03*
Y512000D02*
D03*
X635000Y177000D02*
D03*
X601000Y337000D02*
D03*
Y341000D02*
D03*
Y345000D02*
D03*
X596500D02*
D03*
Y341000D02*
D03*
Y337000D02*
D03*
X592000D02*
D03*
Y341000D02*
D03*
Y345000D02*
D03*
X270000Y714000D02*
D03*
X264500Y702000D02*
D03*
X261110Y701890D02*
D03*
X108200Y452600D02*
D03*
X107800Y465578D02*
D03*
X99300Y454600D02*
D03*
X99200Y467500D02*
D03*
X93200Y460000D02*
D03*
X97000D02*
D03*
X93000Y640000D02*
D03*
X103000Y650000D02*
D03*
Y629000D02*
D03*
X90600Y617500D02*
D03*
Y611500D02*
D03*
X91413Y605500D02*
D03*
X81000Y724743D02*
D03*
X278031Y542103D02*
D03*
X291024Y542560D02*
D03*
X268976D02*
D03*
X152976Y517799D02*
D03*
Y486500D02*
D03*
X204118Y492150D02*
D03*
X261213Y375410D02*
D03*
X290905Y380717D02*
D03*
X296024Y370560D02*
D03*
X273976D02*
D03*
X261024D02*
D03*
X238976D02*
D03*
X203976D02*
D03*
X152835Y399850D02*
D03*
Y431150D02*
D03*
X312000Y350000D02*
D03*
X132000Y458000D02*
D03*
X136000D02*
D03*
Y462000D02*
D03*
X132000D02*
D03*
X165107Y387893D02*
D03*
X195500Y424700D02*
D03*
X190500Y424600D02*
D03*
X136500Y435500D02*
D03*
X91900Y441400D02*
D03*
X757000Y344800D02*
D03*
Y340600D02*
D03*
X747900Y344700D02*
D03*
Y340400D02*
D03*
X747800Y546800D02*
D03*
Y542800D02*
D03*
X751800D02*
D03*
X755800D02*
D03*
Y546800D02*
D03*
X755900Y538100D02*
D03*
X748500Y213200D02*
D03*
Y209200D02*
D03*
X752500D02*
D03*
X756500D02*
D03*
Y213200D02*
D03*
X756600Y204500D02*
D03*
X756100Y373300D02*
D03*
X756000Y382000D02*
D03*
Y378000D02*
D03*
X752000D02*
D03*
X748000D02*
D03*
Y382000D02*
D03*
X756500Y513400D02*
D03*
Y509200D02*
D03*
X747400Y513300D02*
D03*
Y509000D02*
D03*
X747200Y674100D02*
D03*
Y678400D02*
D03*
X756300Y674300D02*
D03*
Y678500D02*
D03*
X751700D02*
D03*
Y674125D02*
D03*
X752500Y344800D02*
D03*
Y340425D02*
D03*
X752000Y508925D02*
D03*
Y513300D02*
D03*
X748000Y538200D02*
D03*
X751700Y547500D02*
D03*
X752000Y538200D02*
D03*
X751700Y551300D02*
D03*
X752000Y373300D02*
D03*
X748000D02*
D03*
X752000Y382300D02*
D03*
Y386100D02*
D03*
X752500Y217600D02*
D03*
X748800Y204500D02*
D03*
X752800D02*
D03*
X752500Y213800D02*
D03*
X734000Y244500D02*
D03*
X738000Y260500D02*
D03*
X730000Y268500D02*
D03*
X738000Y252500D02*
D03*
X730000Y260500D02*
D03*
X738000Y236500D02*
D03*
X730000Y252500D02*
D03*
X738000Y244500D02*
D03*
X742000Y252500D02*
D03*
X730000Y236500D02*
D03*
X734000Y268500D02*
D03*
X742000Y260500D02*
D03*
X734000Y236500D02*
D03*
X738000Y268500D02*
D03*
X742000D02*
D03*
X734000Y252500D02*
D03*
X742000Y244500D02*
D03*
X730000D02*
D03*
X734000Y260500D02*
D03*
X742000Y236500D02*
D03*
X738000Y295000D02*
D03*
X742000D02*
D03*
X734000Y311000D02*
D03*
X730000Y327000D02*
D03*
X734000Y303000D02*
D03*
X730000Y319000D02*
D03*
X738000D02*
D03*
X734000Y327000D02*
D03*
X738000D02*
D03*
X730000Y295000D02*
D03*
X738000Y311000D02*
D03*
X734000Y295000D02*
D03*
Y319000D02*
D03*
X738000Y303000D02*
D03*
X730000D02*
D03*
X742000Y327000D02*
D03*
Y303000D02*
D03*
X730000Y311000D02*
D03*
X742000Y319000D02*
D03*
Y311000D02*
D03*
X729500Y437500D02*
D03*
X737500Y421500D02*
D03*
X733500Y437500D02*
D03*
X741500Y413500D02*
D03*
X733500D02*
D03*
X737500D02*
D03*
X729500Y405500D02*
D03*
X733500D02*
D03*
X741500D02*
D03*
X729500Y429500D02*
D03*
X741500Y437500D02*
D03*
Y429500D02*
D03*
Y421500D02*
D03*
X737500Y405500D02*
D03*
X729500Y413500D02*
D03*
X737500Y429500D02*
D03*
Y437500D02*
D03*
X729500Y421500D02*
D03*
X733500Y429500D02*
D03*
Y421500D02*
D03*
X734000Y464000D02*
D03*
X738000Y480000D02*
D03*
X730000Y488000D02*
D03*
X742000Y496000D02*
D03*
X734000Y472000D02*
D03*
X738000Y464000D02*
D03*
X742000Y472000D02*
D03*
Y488000D02*
D03*
X734000Y480000D02*
D03*
X730000Y472000D02*
D03*
Y496000D02*
D03*
X738000Y488000D02*
D03*
X742000Y464000D02*
D03*
X738000Y496000D02*
D03*
Y472000D02*
D03*
X730000Y464000D02*
D03*
X734000Y496000D02*
D03*
X730000Y480000D02*
D03*
X742000D02*
D03*
X734000Y488000D02*
D03*
X730000Y578000D02*
D03*
X738000Y602000D02*
D03*
X734000Y578000D02*
D03*
X738000Y594000D02*
D03*
X730000Y570000D02*
D03*
X738000Y586000D02*
D03*
Y570000D02*
D03*
X730000Y602000D02*
D03*
X734000Y570000D02*
D03*
X742000Y578000D02*
D03*
X730000Y586000D02*
D03*
X734000Y594000D02*
D03*
X742000Y602000D02*
D03*
X734000Y586000D02*
D03*
X742000Y570000D02*
D03*
Y594000D02*
D03*
Y586000D02*
D03*
X734000Y602000D02*
D03*
X730000Y594000D02*
D03*
X738000Y578000D02*
D03*
X742000Y645000D02*
D03*
X734000Y629000D02*
D03*
X742000D02*
D03*
X738000Y661000D02*
D03*
X730000Y645000D02*
D03*
X738000D02*
D03*
X730000Y629000D02*
D03*
X742000Y661000D02*
D03*
X734000Y637000D02*
D03*
X730000D02*
D03*
X742000Y653000D02*
D03*
X734000Y645000D02*
D03*
X730000Y661000D02*
D03*
X738000Y629000D02*
D03*
X734000Y661000D02*
D03*
X730000Y653000D02*
D03*
X738000Y637000D02*
D03*
X734000Y653000D02*
D03*
X742000Y637000D02*
D03*
X738000Y653000D02*
D03*
X80300Y447400D02*
D03*
X231900Y332500D02*
D03*
X228000D02*
D03*
X224186Y332512D02*
D03*
X648000Y240500D02*
D03*
X645500Y276000D02*
D03*
X646500Y327500D02*
D03*
X652000Y409500D02*
D03*
X647000Y444000D02*
D03*
X649000Y489000D02*
D03*
Y502000D02*
D03*
X648000Y571500D02*
D03*
X642500Y610000D02*
D03*
X646500Y666000D02*
D03*
X649007Y662807D02*
D03*
Y658293D02*
D03*
X647000Y610000D02*
D03*
X648000Y576000D02*
D03*
X648807Y497800D02*
D03*
Y493186D02*
D03*
X649307Y329307D02*
D03*
Y325693D02*
D03*
X649000Y276000D02*
D03*
X648000Y244000D02*
D03*
X649455Y441819D02*
D03*
X650114Y412114D02*
D03*
X657507Y666193D02*
D03*
X654700Y652100D02*
D03*
X673600Y628307D02*
D03*
X657407Y607393D02*
D03*
X656507Y582400D02*
D03*
X673500Y569807D02*
D03*
X657307Y501186D02*
D03*
X654500Y486993D02*
D03*
X673900Y463100D02*
D03*
X657307Y441693D02*
D03*
X656307Y416000D02*
D03*
X673700Y404607D02*
D03*
X674000Y294500D02*
D03*
X657807Y332693D02*
D03*
X655000Y319500D02*
D03*
X657307Y274693D02*
D03*
X656500Y249500D02*
D03*
X673000Y236000D02*
D03*
X690800Y278700D02*
D03*
X695000D02*
D03*
X699000D02*
D03*
Y282700D02*
D03*
X695000D02*
D03*
X691000D02*
D03*
X690800Y337200D02*
D03*
X695000D02*
D03*
X699000D02*
D03*
Y341200D02*
D03*
X695000D02*
D03*
X691000D02*
D03*
X690813Y670700D02*
D03*
X695013D02*
D03*
X699013D02*
D03*
Y674700D02*
D03*
X695013D02*
D03*
X691013D02*
D03*
X685800Y607000D02*
D03*
X690000D02*
D03*
X694000D02*
D03*
Y611000D02*
D03*
X690000D02*
D03*
X686000D02*
D03*
X690800Y505500D02*
D03*
X695000D02*
D03*
X699000D02*
D03*
Y509500D02*
D03*
X695000D02*
D03*
X691000D02*
D03*
X690000Y446000D02*
D03*
X694000D02*
D03*
X698000D02*
D03*
Y442000D02*
D03*
X694000D02*
D03*
X689800D02*
D03*
X658419Y490060D02*
D03*
Y654960D02*
D03*
X666900Y622000D02*
D03*
X658100Y591900D02*
D03*
X657980Y588359D02*
D03*
X667000Y563500D02*
D03*
X667400Y456900D02*
D03*
X657900Y426000D02*
D03*
X657880Y422559D02*
D03*
X667200Y398400D02*
D03*
X658200Y259000D02*
D03*
X658100Y255500D02*
D03*
X659199Y317900D02*
D03*
X667100Y288400D02*
D03*
X666400Y229800D02*
D03*
X657650Y671500D02*
D03*
X657000Y619800D02*
D03*
X657400Y561300D02*
D03*
X637400Y583400D02*
D03*
X657500Y613100D02*
D03*
X671700Y559600D02*
D03*
X657600Y280000D02*
D03*
Y506800D02*
D03*
X657800Y454700D02*
D03*
X657600Y447000D02*
D03*
X637000Y417600D02*
D03*
X671600Y394100D02*
D03*
X657500Y396200D02*
D03*
X658100Y338000D02*
D03*
X657000Y286100D02*
D03*
X637000Y250600D02*
D03*
X671600Y226000D02*
D03*
X656600Y227600D02*
D03*
X203420Y411000D02*
D03*
X413500Y313000D02*
D03*
Y307000D02*
D03*
Y301000D02*
D03*
Y295000D02*
D03*
X427500Y313000D02*
D03*
Y307000D02*
D03*
Y301000D02*
D03*
Y295000D02*
D03*
X420500D02*
D03*
Y301000D02*
D03*
Y307000D02*
D03*
Y313000D02*
D03*
Y318400D02*
D03*
X420650Y358750D02*
D03*
X420500Y361450D02*
D03*
Y364000D02*
D03*
X571500Y530300D02*
D03*
X575400Y357500D02*
D03*
X552000Y495500D02*
D03*
Y501500D02*
D03*
Y507000D02*
D03*
X546000D02*
D03*
Y501500D02*
D03*
X511200Y474700D02*
D03*
X526400Y440700D02*
D03*
X511900Y488500D02*
D03*
X520200Y474700D02*
D03*
Y480700D02*
D03*
Y486700D02*
D03*
Y492700D02*
D03*
Y498700D02*
D03*
Y468700D02*
D03*
Y462700D02*
D03*
Y456700D02*
D03*
X526200D02*
D03*
Y462700D02*
D03*
Y468700D02*
D03*
Y498700D02*
D03*
Y492700D02*
D03*
Y486700D02*
D03*
Y480700D02*
D03*
Y474700D02*
D03*
X552200Y463200D02*
D03*
Y457200D02*
D03*
Y451200D02*
D03*
Y445200D02*
D03*
X546200D02*
D03*
Y451200D02*
D03*
Y457200D02*
D03*
Y463200D02*
D03*
X538200Y443700D02*
D03*
Y437700D02*
D03*
X532200D02*
D03*
Y443700D02*
D03*
X546200Y468200D02*
D03*
X552200D02*
D03*
X550000Y326000D02*
D03*
Y331500D02*
D03*
X556000D02*
D03*
Y326000D02*
D03*
Y320000D02*
D03*
X554000Y296000D02*
D03*
X548000D02*
D03*
X564000Y479000D02*
D03*
Y483750D02*
D03*
X537000Y507000D02*
D03*
Y502250D02*
D03*
X537050Y512050D02*
D03*
X564000Y489000D02*
D03*
X284300Y709700D02*
D03*
X280700Y701900D02*
D03*
X284200Y701919D02*
D03*
Y705100D02*
D03*
X296500Y689500D02*
D03*
X300000Y693000D02*
D03*
X296500D02*
D03*
X565000Y512300D02*
D03*
Y516000D02*
D03*
Y520000D02*
D03*
X538500Y328500D02*
D03*
Y333250D02*
D03*
X564900Y307400D02*
D03*
X195500Y409928D02*
D03*
X190500D02*
D03*
X677800Y666000D02*
D03*
X677879Y671500D02*
D03*
X664021Y649500D02*
D03*
X677700Y607300D02*
D03*
X677729Y613100D02*
D03*
X663928Y591000D02*
D03*
X637400Y603629D02*
D03*
X646400Y603600D02*
D03*
X677900Y501500D02*
D03*
X677829Y506800D02*
D03*
X664028Y484300D02*
D03*
X677900Y441800D02*
D03*
X637000Y437600D02*
D03*
X646300D02*
D03*
X664028Y425200D02*
D03*
X646260Y270940D02*
D03*
X637000Y270829D02*
D03*
X665900Y316000D02*
D03*
X665300Y257500D02*
D03*
X677900Y274200D02*
D03*
X677860Y280031D02*
D03*
X252000Y369000D02*
D03*
X287000D02*
D03*
X405500Y350000D02*
D03*
Y356000D02*
D03*
Y362000D02*
D03*
X333500Y496000D02*
D03*
Y344000D02*
D03*
X565000Y345000D02*
D03*
Y341000D02*
D03*
Y337000D02*
D03*
X534000Y267000D02*
D03*
Y261000D02*
D03*
X540000D02*
D03*
Y267000D02*
D03*
X548000Y291000D02*
D03*
Y285000D02*
D03*
Y279000D02*
D03*
Y273000D02*
D03*
X554000D02*
D03*
Y279000D02*
D03*
Y285000D02*
D03*
Y291000D02*
D03*
X528000Y298000D02*
D03*
Y304000D02*
D03*
Y310000D02*
D03*
Y316000D02*
D03*
Y322000D02*
D03*
Y292000D02*
D03*
Y286000D02*
D03*
Y280000D02*
D03*
X522000D02*
D03*
Y286000D02*
D03*
Y292000D02*
D03*
Y322000D02*
D03*
Y316000D02*
D03*
Y310000D02*
D03*
Y304000D02*
D03*
Y298000D02*
D03*
X513700Y311800D02*
D03*
X528200Y264000D02*
D03*
X513000Y298000D02*
D03*
X538500Y338000D02*
D03*
X565000Y311000D02*
D03*
Y314500D02*
D03*
X262700Y683000D02*
D03*
Y678400D02*
D03*
Y673800D02*
D03*
X267900Y650600D02*
D03*
X267600Y654200D02*
D03*
X256700Y647800D02*
D03*
X166000Y553000D02*
D03*
Y628000D02*
D03*
X162000Y553000D02*
D03*
Y627921D02*
D03*
X146390Y654646D02*
D03*
Y659370D02*
D03*
Y664094D02*
D03*
Y668819D02*
D03*
Y673543D02*
D03*
Y678268D02*
D03*
Y682992D02*
D03*
Y687717D02*
D03*
Y692441D02*
D03*
Y697165D02*
D03*
Y701890D02*
D03*
Y706614D02*
D03*
Y711339D02*
D03*
X149831D02*
D03*
Y706614D02*
D03*
Y701890D02*
D03*
Y697165D02*
D03*
Y692441D02*
D03*
Y687717D02*
D03*
Y682992D02*
D03*
Y678268D02*
D03*
Y664094D02*
D03*
Y659370D02*
D03*
Y654646D02*
D03*
Y649921D02*
D03*
X146390D02*
D03*
X150000Y643500D02*
D03*
X146500D02*
D03*
X283689Y635748D02*
D03*
X283500Y640500D02*
D03*
X284200Y654300D02*
D03*
X283400Y692400D02*
D03*
X299000Y572800D02*
D03*
X294700Y720300D02*
D03*
X298000Y738000D02*
D03*
X310000Y714000D02*
D03*
X361000Y566000D02*
D03*
X365000D02*
D03*
Y570000D02*
D03*
X360752D02*
D03*
X328685Y410685D02*
D03*
Y480685D02*
D03*
X91598Y472598D02*
D03*
X131500Y435500D02*
D03*
X154800Y451800D02*
D03*
X154865Y466465D02*
D03*
X134000Y471000D02*
D03*
X137000Y448000D02*
D03*
X109000Y441500D02*
D03*
X110500Y449000D02*
D03*
X257000Y706000D02*
D03*
X264800Y709700D02*
D03*
X102500Y634000D02*
D03*
Y645800D02*
D03*
X293500Y713000D02*
D03*
X282000Y645000D02*
D03*
Y669000D02*
D03*
Y657000D02*
D03*
X271900Y659600D02*
D03*
X293600Y703400D02*
D03*
Y709800D02*
D03*
Y706600D02*
D03*
X270669Y665669D02*
D03*
X254100Y649900D02*
D03*
X268500Y659600D02*
D03*
X160500Y436500D02*
D03*
X168300Y465100D02*
D03*
X162700Y461600D02*
D03*
X160500Y468000D02*
D03*
X168500Y437000D02*
D03*
X138000Y471000D02*
D03*
X209000Y479500D02*
D03*
X269000Y495000D02*
D03*
X189500Y495500D02*
D03*
X279095Y381405D02*
D03*
X244000Y381500D02*
D03*
X283000Y403500D02*
D03*
Y381500D02*
D03*
X248000D02*
D03*
X280500Y435000D02*
D03*
X234258Y411343D02*
D03*
M02*
