G04*
G04 #@! TF.GenerationSoftware,Altium Limited,Altium Designer,26.1.1 (7)*
G04*
G04 Layer_Physical_Order=3*
G04 Layer_Color=32768*
%FSLAX25Y25*%
%MOIN*%
G70*
G04*
G04 #@! TF.SameCoordinates,3E101659-1531-44DD-BC6F-E1116C570119*
G04*
G04*
G04 #@! TF.FilePolarity,Negative*
G04*
G01*
G75*
%ADD128C,0.04000*%
%ADD150C,0.07400*%
%ADD151C,0.14630*%
%ADD152C,0.08331*%
G04:AMPARAMS|DCode=153|XSize=103.307mil|YSize=103.307mil|CornerRadius=0mil|HoleSize=0mil|Usage=FLASHONLY|Rotation=0.000|XOffset=0mil|YOffset=0mil|HoleType=Round|Shape=Relief|Width=10mil|Gap=10mil|Entries=4|*
%AMTHD153*
7,0,0,0.10331,0.08331,0.01000,45*
%
%ADD153THD153*%
G04:AMPARAMS|DCode=154|XSize=100mil|YSize=100mil|CornerRadius=0mil|HoleSize=0mil|Usage=FLASHONLY|Rotation=0.000|XOffset=0mil|YOffset=0mil|HoleType=Round|Shape=Relief|Width=10mil|Gap=10mil|Entries=4|*
%AMTHD154*
7,0,0,0.10000,0.08000,0.01000,45*
%
%ADD154THD154*%
%ADD155C,0.08000*%
%ADD156C,0.10299*%
%ADD157C,0.09906*%
G04:AMPARAMS|DCode=158|XSize=239.134mil|YSize=239.134mil|CornerRadius=0mil|HoleSize=0mil|Usage=FLASHONLY|Rotation=0.000|XOffset=0mil|YOffset=0mil|HoleType=Round|Shape=Relief|Width=10mil|Gap=10mil|Entries=4|*
%AMTHD158*
7,0,0,0.23913,0.21913,0.01000,45*
%
%ADD158THD158*%
%ADD159C,0.21913*%
%ADD160C,0.06800*%
G04:AMPARAMS|DCode=161|XSize=94mil|YSize=94mil|CornerRadius=0mil|HoleSize=0mil|Usage=FLASHONLY|Rotation=0.000|XOffset=0mil|YOffset=0mil|HoleType=Round|Shape=Relief|Width=10mil|Gap=10mil|Entries=4|*
%AMTHD161*
7,0,0,0.09400,0.07400,0.01000,45*
%
%ADD161THD161*%
%ADD162C,0.07937*%
G04:AMPARAMS|DCode=163|XSize=99.37mil|YSize=99.37mil|CornerRadius=0mil|HoleSize=0mil|Usage=FLASHONLY|Rotation=0.000|XOffset=0mil|YOffset=0mil|HoleType=Round|Shape=Relief|Width=10mil|Gap=10mil|Entries=4|*
%AMTHD163*
7,0,0,0.09937,0.07937,0.01000,45*
%
%ADD163THD163*%
G04:AMPARAMS|DCode=164|XSize=67.874mil|YSize=67.874mil|CornerRadius=0mil|HoleSize=0mil|Usage=FLASHONLY|Rotation=0.000|XOffset=0mil|YOffset=0mil|HoleType=Round|Shape=Relief|Width=10mil|Gap=10mil|Entries=4|*
%AMTHD164*
7,0,0,0.06787,0.04787,0.01000,45*
%
%ADD164THD164*%
%AMTHOVALD165*
21,1,0.03150,0.08362,0,0,360.0*
1,1,0.08362,-0.01575,0.00000*
1,1,0.08362,0.01575,0.00000*
21,0,0.03150,0.06362,0,0,360.0*
1,0,0.06362,-0.01575,0.00000*
1,0,0.06362,0.01575,0.00000*
4,0,4,-0.01221,-0.00354,-0.04178,-0.03310,-0.04885,-0.02603,-0.01928,0.00354,-0.01221,-0.00354,0.0*
4,0,4,0.01928,-0.00354,0.04885,0.02603,0.04178,0.03310,0.01221,0.00354,0.01928,-0.00354,0.0*
4,0,4,-0.01928,-0.00354,-0.04885,0.02603,-0.04178,0.03310,-0.01221,0.00354,-0.01928,-0.00354,0.0*
4,0,4,0.01221,-0.00354,0.04178,-0.03310,0.04885,-0.02603,0.01928,0.00354,0.01221,-0.00354,0.0*
%
%ADD165THOVALD165*%

%AMTHOVALD166*
21,1,0.04724,0.08362,0,0,360.0*
1,1,0.08362,-0.02362,0.00000*
1,1,0.08362,0.02362,0.00000*
21,0,0.04724,0.06362,0,0,360.0*
1,0,0.06362,-0.02362,0.00000*
1,0,0.06362,0.02362,0.00000*
4,0,4,-0.02009,-0.00354,-0.04965,-0.03310,-0.05672,-0.02603,-0.02716,0.00354,-0.02009,-0.00354,0.0*
4,0,4,0.02716,-0.00354,0.05672,0.02603,0.04965,0.03310,0.02009,0.00354,0.02716,-0.00354,0.0*
4,0,4,-0.02716,-0.00354,-0.05672,0.02603,-0.04965,0.03310,-0.02009,0.00354,-0.02716,-0.00354,0.0*
4,0,4,0.02009,-0.00354,0.04965,-0.03310,0.05672,-0.02603,0.02716,0.00354,0.02009,-0.00354,0.0*
%
%ADD166THOVALD166*%

G04:AMPARAMS|DCode=167|XSize=88mil|YSize=88mil|CornerRadius=0mil|HoleSize=0mil|Usage=FLASHONLY|Rotation=0.000|XOffset=0mil|YOffset=0mil|HoleType=Round|Shape=Relief|Width=10mil|Gap=10mil|Entries=4|*
%AMTHD167*
7,0,0,0.08800,0.06800,0.01000,45*
%
%ADD167THD167*%
%ADD168C,0.05200*%
D128*
X60000Y170000D02*
Y778000D01*
Y170000D02*
X814000D01*
Y778000D01*
X60000D02*
X814000D01*
D150*
X714500Y373300D02*
D03*
X714000Y538000D02*
D03*
X714315Y204500D02*
D03*
D151*
X280000Y570000D02*
D03*
Y758976D02*
D03*
X150079Y570000D02*
D03*
Y758976D02*
D03*
D152*
X794000Y762000D02*
D03*
Y752000D02*
D03*
X784000Y762000D02*
D03*
X794000Y714000D02*
D03*
Y704000D02*
D03*
X784000Y714000D02*
D03*
D153*
Y752000D02*
D03*
Y704000D02*
D03*
D154*
X355000Y570000D02*
D03*
X345000D02*
D03*
D155*
X355000Y580000D02*
D03*
X345000D02*
D03*
X355000Y590000D02*
D03*
X345000D02*
D03*
X355000Y600000D02*
D03*
X345000D02*
D03*
X355000Y610000D02*
D03*
X345000D02*
D03*
X355000Y620000D02*
D03*
X345000D02*
D03*
X355000Y630000D02*
D03*
X345000D02*
D03*
X355000Y640000D02*
D03*
X345000D02*
D03*
X355000Y650000D02*
D03*
X345000D02*
D03*
X355000Y660000D02*
D03*
X345000D02*
D03*
X355000Y670000D02*
D03*
X345000D02*
D03*
X355000Y680000D02*
D03*
X345000D02*
D03*
X355000Y690000D02*
D03*
X345000D02*
D03*
X355000Y700000D02*
D03*
X345000D02*
D03*
X355000Y710000D02*
D03*
X345000D02*
D03*
X355000Y720000D02*
D03*
X345000D02*
D03*
X355000Y730000D02*
D03*
X345000D02*
D03*
X355000Y740000D02*
D03*
X345000D02*
D03*
X355000Y750000D02*
D03*
X345000D02*
D03*
X355000Y760000D02*
D03*
X345000D02*
D03*
D156*
X778000Y232000D02*
D03*
Y262000D02*
D03*
Y400000D02*
D03*
Y430000D02*
D03*
X777500Y599500D02*
D03*
Y629500D02*
D03*
Y297500D02*
D03*
Y327500D02*
D03*
X778000Y466000D02*
D03*
Y496000D02*
D03*
D157*
X664024Y703500D02*
D03*
X753000D02*
D03*
X664524Y752000D02*
D03*
X753500D02*
D03*
D158*
X508827Y193000D02*
D03*
D159*
X537173D02*
D03*
D160*
X464000Y347000D02*
D03*
Y352000D02*
D03*
Y357000D02*
D03*
X293000Y470000D02*
D03*
Y475000D02*
D03*
X154000Y545000D02*
D03*
X123000Y571000D02*
D03*
Y566000D02*
D03*
X357000Y554000D02*
D03*
X352000D02*
D03*
D161*
X734185Y373300D02*
D03*
X733685Y538000D02*
D03*
X734000Y204500D02*
D03*
D162*
X322933Y391000D02*
D03*
Y400843D02*
D03*
Y381157D02*
D03*
Y371315D02*
D03*
Y441315D02*
D03*
Y451158D02*
D03*
Y470843D02*
D03*
Y461000D02*
D03*
D163*
Y410685D02*
D03*
Y480685D02*
D03*
D164*
X231756Y446488D02*
D03*
Y440976D02*
D03*
Y452000D02*
D03*
X237268Y440976D02*
D03*
Y446488D02*
D03*
Y452000D02*
D03*
X229000Y443732D02*
D03*
Y449244D02*
D03*
X234512Y443732D02*
D03*
Y449244D02*
D03*
X240024Y443732D02*
D03*
Y449244D02*
D03*
D165*
X83220Y442992D02*
D03*
Y477008D02*
D03*
Y622992D02*
D03*
Y657008D02*
D03*
D166*
X67472Y442992D02*
D03*
Y477008D02*
D03*
Y622992D02*
D03*
Y657008D02*
D03*
D167*
X149000Y545000D02*
D03*
D168*
X631000Y213500D02*
D03*
X623402Y212902D02*
D03*
X631000Y219000D02*
D03*
X623500D02*
D03*
Y224500D02*
D03*
X631000D02*
D03*
X638500D02*
D03*
Y219000D02*
D03*
Y213500D02*
D03*
Y230000D02*
D03*
X623500D02*
D03*
X631000D02*
D03*
X724000Y278000D02*
D03*
X730000D02*
D03*
X736000D02*
D03*
X742000D02*
D03*
Y282000D02*
D03*
X736000D02*
D03*
X730000D02*
D03*
X724000D02*
D03*
Y286000D02*
D03*
X730000D02*
D03*
X736000D02*
D03*
X742000D02*
D03*
Y454000D02*
D03*
X736000D02*
D03*
X730000D02*
D03*
X724000D02*
D03*
Y450000D02*
D03*
X730000D02*
D03*
X736000D02*
D03*
X742000D02*
D03*
Y446000D02*
D03*
X736000D02*
D03*
X730000D02*
D03*
X724000D02*
D03*
X742000Y620000D02*
D03*
X736000D02*
D03*
X730000D02*
D03*
X724000D02*
D03*
Y616000D02*
D03*
X730000D02*
D03*
X736000D02*
D03*
X742000D02*
D03*
Y612000D02*
D03*
X736000D02*
D03*
X730000D02*
D03*
X724000D02*
D03*
X752000Y614000D02*
D03*
X746000D02*
D03*
Y618000D02*
D03*
X752000D02*
D03*
Y448000D02*
D03*
X746000D02*
D03*
Y452000D02*
D03*
X752000D02*
D03*
Y280000D02*
D03*
X746000D02*
D03*
Y284000D02*
D03*
X752000D02*
D03*
X656500Y205000D02*
D03*
X649000D02*
D03*
X664000D02*
D03*
X679500D02*
D03*
X672000D02*
D03*
X687000D02*
D03*
X701500D02*
D03*
X709000D02*
D03*
X694000D02*
D03*
X656500Y210000D02*
D03*
X664000D02*
D03*
X649000D02*
D03*
X679500D02*
D03*
X687000D02*
D03*
X672000D02*
D03*
X679500Y200000D02*
D03*
X687000D02*
D03*
X672000D02*
D03*
X656500D02*
D03*
X664000D02*
D03*
X649000D02*
D03*
X701500Y210000D02*
D03*
X709000D02*
D03*
X694000D02*
D03*
X701500Y200000D02*
D03*
X709000D02*
D03*
X694000D02*
D03*
X690000Y373000D02*
D03*
Y367000D02*
D03*
Y361000D02*
D03*
Y355000D02*
D03*
X694000D02*
D03*
Y361000D02*
D03*
Y367000D02*
D03*
Y373000D02*
D03*
X698000D02*
D03*
Y367000D02*
D03*
Y361000D02*
D03*
Y355000D02*
D03*
X687000Y541000D02*
D03*
Y535000D02*
D03*
Y529000D02*
D03*
Y523000D02*
D03*
X691000D02*
D03*
Y529000D02*
D03*
Y535000D02*
D03*
Y541000D02*
D03*
X695000D02*
D03*
Y535000D02*
D03*
Y529000D02*
D03*
Y523000D02*
D03*
X699000D02*
D03*
Y529000D02*
D03*
Y535000D02*
D03*
Y541000D02*
D03*
X702000Y355000D02*
D03*
Y361000D02*
D03*
Y367000D02*
D03*
Y373000D02*
D03*
X289500Y450200D02*
D03*
X289700Y444800D02*
D03*
X219000Y262000D02*
D03*
X243721Y493142D02*
D03*
X214000Y270000D02*
D03*
Y503500D02*
D03*
Y479500D02*
D03*
X313500Y503500D02*
D03*
X299211Y277811D02*
D03*
X217000Y365700D02*
D03*
X283811Y262063D02*
D03*
X283757Y285633D02*
D03*
X266685Y459894D02*
D03*
X274978Y292415D02*
D03*
X283811Y277811D02*
D03*
X284000Y270000D02*
D03*
X174000Y284000D02*
D03*
Y280000D02*
D03*
X259100Y650000D02*
D03*
X234214Y407032D02*
D03*
X266791Y455000D02*
D03*
X110000Y457000D02*
D03*
Y461000D02*
D03*
X270500Y656500D02*
D03*
X270900Y648900D02*
D03*
X271100Y652600D02*
D03*
X267400Y675200D02*
D03*
X267200Y678900D02*
D03*
X267000Y682900D02*
D03*
X267200Y686400D02*
D03*
X270500Y697000D02*
D03*
Y693800D02*
D03*
X695100Y644500D02*
D03*
X698900D02*
D03*
X702700D02*
D03*
X706929D02*
D03*
X149000Y474000D02*
D03*
X121500Y454000D02*
D03*
X677829Y447000D02*
D03*
X677900Y332400D02*
D03*
Y338492D02*
D03*
X594000Y520000D02*
D03*
Y516000D02*
D03*
Y512000D02*
D03*
X598500D02*
D03*
Y516000D02*
D03*
Y520000D02*
D03*
X603000D02*
D03*
Y516000D02*
D03*
Y512000D02*
D03*
X601000Y337000D02*
D03*
Y341000D02*
D03*
Y345000D02*
D03*
X596500D02*
D03*
Y341000D02*
D03*
Y337000D02*
D03*
X592000D02*
D03*
Y341000D02*
D03*
Y345000D02*
D03*
X264500Y702000D02*
D03*
X261110Y701890D02*
D03*
X93200Y460000D02*
D03*
X97000D02*
D03*
X734000Y244500D02*
D03*
X738000Y260500D02*
D03*
X730000Y268500D02*
D03*
X738000Y252500D02*
D03*
X730000Y260500D02*
D03*
X738000Y236500D02*
D03*
X730000Y252500D02*
D03*
X738000Y244500D02*
D03*
X742000Y252500D02*
D03*
X730000Y236500D02*
D03*
X734000Y268500D02*
D03*
X742000Y260500D02*
D03*
X734000Y236500D02*
D03*
X738000Y268500D02*
D03*
X742000D02*
D03*
X734000Y252500D02*
D03*
X742000Y244500D02*
D03*
X730000D02*
D03*
X734000Y260500D02*
D03*
X742000Y236500D02*
D03*
X738000Y295000D02*
D03*
X742000D02*
D03*
X734000Y311000D02*
D03*
X730000Y327000D02*
D03*
X734000Y303000D02*
D03*
X730000Y319000D02*
D03*
X738000D02*
D03*
X734000Y327000D02*
D03*
X738000D02*
D03*
X730000Y295000D02*
D03*
X738000Y311000D02*
D03*
X734000Y295000D02*
D03*
Y319000D02*
D03*
X738000Y303000D02*
D03*
X730000D02*
D03*
X742000Y327000D02*
D03*
Y303000D02*
D03*
X730000Y311000D02*
D03*
X742000Y319000D02*
D03*
Y311000D02*
D03*
X729500Y437500D02*
D03*
X737500Y421500D02*
D03*
X733500Y437500D02*
D03*
X741500Y413500D02*
D03*
X733500D02*
D03*
X737500D02*
D03*
X729500Y405500D02*
D03*
X733500D02*
D03*
X741500D02*
D03*
X729500Y429500D02*
D03*
X741500Y437500D02*
D03*
Y429500D02*
D03*
Y421500D02*
D03*
X737500Y405500D02*
D03*
X729500Y413500D02*
D03*
X737500Y429500D02*
D03*
Y437500D02*
D03*
X729500Y421500D02*
D03*
X733500Y429500D02*
D03*
Y421500D02*
D03*
X734000Y464000D02*
D03*
X738000Y480000D02*
D03*
X730000Y488000D02*
D03*
X742000Y496000D02*
D03*
X734000Y472000D02*
D03*
X738000Y464000D02*
D03*
X742000Y472000D02*
D03*
Y488000D02*
D03*
X734000Y480000D02*
D03*
X730000Y472000D02*
D03*
Y496000D02*
D03*
X738000Y488000D02*
D03*
X742000Y464000D02*
D03*
X738000Y496000D02*
D03*
Y472000D02*
D03*
X730000Y464000D02*
D03*
X734000Y496000D02*
D03*
X730000Y480000D02*
D03*
X742000D02*
D03*
X734000Y488000D02*
D03*
X730000Y578000D02*
D03*
X738000Y602000D02*
D03*
X734000Y578000D02*
D03*
X738000Y594000D02*
D03*
X730000Y570000D02*
D03*
X738000Y586000D02*
D03*
Y570000D02*
D03*
X730000Y602000D02*
D03*
X734000Y570000D02*
D03*
X742000Y578000D02*
D03*
X730000Y586000D02*
D03*
X734000Y594000D02*
D03*
X742000Y602000D02*
D03*
X734000Y586000D02*
D03*
X742000Y570000D02*
D03*
Y594000D02*
D03*
Y586000D02*
D03*
X734000Y602000D02*
D03*
X730000Y594000D02*
D03*
X738000Y578000D02*
D03*
X742000Y645000D02*
D03*
X734000Y629000D02*
D03*
X742000D02*
D03*
X738000Y661000D02*
D03*
X730000Y645000D02*
D03*
X738000D02*
D03*
X730000Y629000D02*
D03*
X742000Y661000D02*
D03*
X734000Y637000D02*
D03*
X730000D02*
D03*
X742000Y653000D02*
D03*
X734000Y645000D02*
D03*
X730000Y661000D02*
D03*
X738000Y629000D02*
D03*
X734000Y661000D02*
D03*
X730000Y653000D02*
D03*
X738000Y637000D02*
D03*
X734000Y653000D02*
D03*
X742000Y637000D02*
D03*
X738000Y653000D02*
D03*
X231900Y332500D02*
D03*
X228000D02*
D03*
X224186Y332512D02*
D03*
X649007Y662807D02*
D03*
Y658293D02*
D03*
X647000Y610000D02*
D03*
X648000Y576000D02*
D03*
X648807Y497800D02*
D03*
Y493186D02*
D03*
X649307Y329307D02*
D03*
Y325693D02*
D03*
X649000Y276000D02*
D03*
X648000Y244000D02*
D03*
X649455Y441819D02*
D03*
X650114Y412114D02*
D03*
X203420Y411000D02*
D03*
X564000Y479000D02*
D03*
Y483750D02*
D03*
X537000Y507000D02*
D03*
Y502250D02*
D03*
X537050Y512050D02*
D03*
X564000Y489000D02*
D03*
X284300Y709700D02*
D03*
X280700Y701900D02*
D03*
X284200Y701919D02*
D03*
Y705100D02*
D03*
X296500Y689500D02*
D03*
X300000Y693000D02*
D03*
X296500D02*
D03*
X565000Y512300D02*
D03*
Y516000D02*
D03*
Y520000D02*
D03*
X538500Y328500D02*
D03*
Y333250D02*
D03*
X564900Y307400D02*
D03*
X195500Y409928D02*
D03*
X190500D02*
D03*
X677800Y666000D02*
D03*
X677879Y671500D02*
D03*
X664021Y649500D02*
D03*
X677700Y607300D02*
D03*
X677729Y613100D02*
D03*
X663928Y591000D02*
D03*
X637400Y603629D02*
D03*
X646400Y603600D02*
D03*
X677900Y501500D02*
D03*
X677829Y506800D02*
D03*
X664028Y484300D02*
D03*
X677900Y441800D02*
D03*
X637000Y437600D02*
D03*
X646300D02*
D03*
X664028Y425200D02*
D03*
X646260Y270940D02*
D03*
X637000Y270829D02*
D03*
X665900Y316000D02*
D03*
X665300Y257500D02*
D03*
X677900Y274200D02*
D03*
X677860Y280031D02*
D03*
X252000Y369000D02*
D03*
X287000D02*
D03*
X405500Y350000D02*
D03*
Y356000D02*
D03*
Y362000D02*
D03*
X333500Y496000D02*
D03*
Y344000D02*
D03*
X565000Y345000D02*
D03*
Y341000D02*
D03*
Y337000D02*
D03*
X538500Y338000D02*
D03*
X565000Y311000D02*
D03*
Y314500D02*
D03*
X162000Y553000D02*
D03*
Y627921D02*
D03*
X294700Y720300D02*
D03*
X257000Y706000D02*
D03*
X264800Y709700D02*
D03*
X102500Y634000D02*
D03*
Y645800D02*
D03*
X293500Y713000D02*
D03*
X282000Y645000D02*
D03*
Y669000D02*
D03*
Y657000D02*
D03*
X271900Y659600D02*
D03*
X293600Y703400D02*
D03*
Y709800D02*
D03*
Y706600D02*
D03*
X270669Y665669D02*
D03*
X254100Y649900D02*
D03*
X268500Y659600D02*
D03*
X160500Y436500D02*
D03*
X168300Y465100D02*
D03*
X162700Y461600D02*
D03*
X160500Y468000D02*
D03*
X168500Y437000D02*
D03*
X138000Y471000D02*
D03*
X209000Y479500D02*
D03*
X269000Y495000D02*
D03*
X189500Y495500D02*
D03*
X279095Y381405D02*
D03*
X244000Y381500D02*
D03*
X283000Y403500D02*
D03*
Y381500D02*
D03*
X248000D02*
D03*
X280500Y435000D02*
D03*
X234258Y411343D02*
D03*
M02*
