G04*
G04 #@! TF.GenerationSoftware,Altium Limited,Altium Designer,26.1.1 (7)*
G04*
G04 Layer_Physical_Order=1*
G04 Layer_Color=255*
%FSLAX25Y25*%
%MOIN*%
G70*
G04*
G04 #@! TF.SameCoordinates,3E101659-1531-44DD-BC6F-E1116C570119*
G04*
G04*
G04 #@! TF.FilePolarity,Positive*
G04*
G01*
G75*
%ADD10C,0.01000*%
%ADD13C,0.00600*%
%ADD14C,0.00500*%
%ADD15C,0.01500*%
%ADD20R,0.05200X0.05900*%
%ADD21R,0.14600X0.03000*%
%ADD22R,0.03700X0.03000*%
%ADD23R,0.08661X0.04724*%
%ADD24R,0.02200X0.01200*%
G04:AMPARAMS|DCode=25|XSize=14.96mil|YSize=15.75mil|CornerRadius=3.74mil|HoleSize=0mil|Usage=FLASHONLY|Rotation=90.000|XOffset=0mil|YOffset=0mil|HoleType=Round|Shape=RoundedRectangle|*
%AMROUNDEDRECTD25*
21,1,0.01496,0.00827,0,0,90.0*
21,1,0.00748,0.01575,0,0,90.0*
1,1,0.00748,0.00413,0.00374*
1,1,0.00748,0.00413,-0.00374*
1,1,0.00748,-0.00413,-0.00374*
1,1,0.00748,-0.00413,0.00374*
%
%ADD25ROUNDEDRECTD25*%
G04:AMPARAMS|DCode=26|XSize=12.99mil|YSize=15.75mil|CornerRadius=3.25mil|HoleSize=0mil|Usage=FLASHONLY|Rotation=90.000|XOffset=0mil|YOffset=0mil|HoleType=Round|Shape=RoundedRectangle|*
%AMROUNDEDRECTD26*
21,1,0.01299,0.00925,0,0,90.0*
21,1,0.00650,0.01575,0,0,90.0*
1,1,0.00650,0.00463,0.00325*
1,1,0.00650,0.00463,-0.00325*
1,1,0.00650,-0.00463,-0.00325*
1,1,0.00650,-0.00463,0.00325*
%
%ADD26ROUNDEDRECTD26*%
%ADD27R,0.11024X0.04331*%
%ADD28R,0.10236X0.04331*%
%ADD29R,0.02126X0.02362*%
%ADD30R,0.03819X0.03937*%
G04:AMPARAMS|DCode=31|XSize=43.31mil|YSize=58.27mil|CornerRadius=5.41mil|HoleSize=0mil|Usage=FLASHONLY|Rotation=90.000|XOffset=0mil|YOffset=0mil|HoleType=Round|Shape=RoundedRectangle|*
%AMROUNDEDRECTD31*
21,1,0.04331,0.04744,0,0,90.0*
21,1,0.03248,0.05827,0,0,90.0*
1,1,0.01083,0.02372,0.01624*
1,1,0.01083,0.02372,-0.01624*
1,1,0.01083,-0.02372,-0.01624*
1,1,0.01083,-0.02372,0.01624*
%
%ADD31ROUNDEDRECTD31*%
G04:AMPARAMS|DCode=32|XSize=23.62mil|YSize=21.26mil|CornerRadius=5.63mil|HoleSize=0mil|Usage=FLASHONLY|Rotation=180.000|XOffset=0mil|YOffset=0mil|HoleType=Round|Shape=RoundedRectangle|*
%AMROUNDEDRECTD32*
21,1,0.02362,0.00999,0,0,180.0*
21,1,0.01235,0.02126,0,0,180.0*
1,1,0.01127,-0.00618,0.00500*
1,1,0.01127,0.00618,0.00500*
1,1,0.01127,0.00618,-0.00500*
1,1,0.01127,-0.00618,-0.00500*
%
%ADD32ROUNDEDRECTD32*%
%ADD33R,0.02362X0.02126*%
G04:AMPARAMS|DCode=34|XSize=14.96mil|YSize=15.75mil|CornerRadius=3.74mil|HoleSize=0mil|Usage=FLASHONLY|Rotation=180.000|XOffset=0mil|YOffset=0mil|HoleType=Round|Shape=RoundedRectangle|*
%AMROUNDEDRECTD34*
21,1,0.01496,0.00827,0,0,180.0*
21,1,0.00748,0.01575,0,0,180.0*
1,1,0.00748,-0.00374,0.00413*
1,1,0.00748,0.00374,0.00413*
1,1,0.00748,0.00374,-0.00413*
1,1,0.00748,-0.00374,-0.00413*
%
%ADD34ROUNDEDRECTD34*%
G04:AMPARAMS|DCode=35|XSize=12.99mil|YSize=15.75mil|CornerRadius=3.25mil|HoleSize=0mil|Usage=FLASHONLY|Rotation=180.000|XOffset=0mil|YOffset=0mil|HoleType=Round|Shape=RoundedRectangle|*
%AMROUNDEDRECTD35*
21,1,0.01299,0.00925,0,0,180.0*
21,1,0.00650,0.01575,0,0,180.0*
1,1,0.00650,-0.00325,0.00463*
1,1,0.00650,0.00325,0.00463*
1,1,0.00650,0.00325,-0.00463*
1,1,0.00650,-0.00325,-0.00463*
%
%ADD35ROUNDEDRECTD35*%
G04:AMPARAMS|DCode=36|XSize=35.43mil|YSize=68.9mil|CornerRadius=1.95mil|HoleSize=0mil|Usage=FLASHONLY|Rotation=0.000|XOffset=0mil|YOffset=0mil|HoleType=Round|Shape=RoundedRectangle|*
%AMROUNDEDRECTD36*
21,1,0.03543,0.06500,0,0,0.0*
21,1,0.03154,0.06890,0,0,0.0*
1,1,0.00390,0.01577,-0.03250*
1,1,0.00390,-0.01577,-0.03250*
1,1,0.00390,-0.01577,0.03250*
1,1,0.00390,0.01577,0.03250*
%
%ADD36ROUNDEDRECTD36*%
G04:AMPARAMS|DCode=37|XSize=125.98mil|YSize=68.9mil|CornerRadius=2.07mil|HoleSize=0mil|Usage=FLASHONLY|Rotation=0.000|XOffset=0mil|YOffset=0mil|HoleType=Round|Shape=RoundedRectangle|*
%AMROUNDEDRECTD37*
21,1,0.12598,0.06476,0,0,0.0*
21,1,0.12185,0.06890,0,0,0.0*
1,1,0.00413,0.06093,-0.03238*
1,1,0.00413,-0.06093,-0.03238*
1,1,0.00413,-0.06093,0.03238*
1,1,0.00413,0.06093,0.03238*
%
%ADD37ROUNDEDRECTD37*%
%ADD38R,0.25197X0.22835*%
G04:AMPARAMS|DCode=39|XSize=47.64mil|YSize=23.23mil|CornerRadius=5.81mil|HoleSize=0mil|Usage=FLASHONLY|Rotation=90.000|XOffset=0mil|YOffset=0mil|HoleType=Round|Shape=RoundedRectangle|*
%AMROUNDEDRECTD39*
21,1,0.04764,0.01161,0,0,90.0*
21,1,0.03602,0.02323,0,0,90.0*
1,1,0.01161,0.00581,0.01801*
1,1,0.01161,0.00581,-0.01801*
1,1,0.01161,-0.00581,-0.01801*
1,1,0.01161,-0.00581,0.01801*
%
%ADD39ROUNDEDRECTD39*%
G04:AMPARAMS|DCode=40|XSize=47.64mil|YSize=23.23mil|CornerRadius=5.81mil|HoleSize=0mil|Usage=FLASHONLY|Rotation=0.000|XOffset=0mil|YOffset=0mil|HoleType=Round|Shape=RoundedRectangle|*
%AMROUNDEDRECTD40*
21,1,0.04764,0.01161,0,0,0.0*
21,1,0.03602,0.02323,0,0,0.0*
1,1,0.01161,0.01801,-0.00581*
1,1,0.01161,-0.01801,-0.00581*
1,1,0.01161,-0.01801,0.00581*
1,1,0.01161,0.01801,0.00581*
%
%ADD40ROUNDEDRECTD40*%
%ADD41R,0.05900X0.05200*%
%ADD42R,0.05433X0.03622*%
%ADD43R,0.32500X0.40400*%
%ADD44R,0.03000X0.03700*%
G04:AMPARAMS|DCode=45|XSize=43.31mil|YSize=58.27mil|CornerRadius=5.41mil|HoleSize=0mil|Usage=FLASHONLY|Rotation=0.000|XOffset=0mil|YOffset=0mil|HoleType=Round|Shape=RoundedRectangle|*
%AMROUNDEDRECTD45*
21,1,0.04331,0.04744,0,0,0.0*
21,1,0.03248,0.05827,0,0,0.0*
1,1,0.01083,0.01624,-0.02372*
1,1,0.01083,-0.01624,-0.02372*
1,1,0.01083,-0.01624,0.02372*
1,1,0.01083,0.01624,0.02372*
%
%ADD45ROUNDEDRECTD45*%
%ADD46R,0.08600X0.08800*%
%ADD47R,0.07480X0.20079*%
G04:AMPARAMS|DCode=49|XSize=23.62mil|YSize=21.26mil|CornerRadius=5.63mil|HoleSize=0mil|Usage=FLASHONLY|Rotation=90.000|XOffset=0mil|YOffset=0mil|HoleType=Round|Shape=RoundedRectangle|*
%AMROUNDEDRECTD49*
21,1,0.02362,0.00999,0,0,90.0*
21,1,0.01235,0.02126,0,0,90.0*
1,1,0.01127,0.00500,0.00618*
1,1,0.01127,0.00500,-0.00618*
1,1,0.01127,-0.00500,-0.00618*
1,1,0.01127,-0.00500,0.00618*
%
%ADD49ROUNDEDRECTD49*%
%ADD50R,0.01246X0.01575*%
%ADD51R,0.02600X0.06100*%
%ADD52R,0.03543X0.03543*%
%ADD53R,0.03543X0.05906*%
%ADD54R,0.05906X0.03543*%
%ADD55R,0.05118X0.06102*%
%ADD56R,0.02362X0.02756*%
%ADD57R,0.05343X0.02253*%
G04:AMPARAMS|DCode=58|XSize=53.43mil|YSize=22.53mil|CornerRadius=11.26mil|HoleSize=0mil|Usage=FLASHONLY|Rotation=0.000|XOffset=0mil|YOffset=0mil|HoleType=Round|Shape=RoundedRectangle|*
%AMROUNDEDRECTD58*
21,1,0.05343,0.00000,0,0,0.0*
21,1,0.03091,0.02253,0,0,0.0*
1,1,0.02253,0.01545,0.00000*
1,1,0.02253,-0.01545,0.00000*
1,1,0.02253,-0.01545,0.00000*
1,1,0.02253,0.01545,0.00000*
%
%ADD58ROUNDEDRECTD58*%
%ADD59R,0.04528X0.01181*%
%ADD60R,0.04528X0.02362*%
G04:AMPARAMS|DCode=61|XSize=9.55mil|YSize=33.06mil|CornerRadius=4.77mil|HoleSize=0mil|Usage=FLASHONLY|Rotation=270.000|XOffset=0mil|YOffset=0mil|HoleType=Round|Shape=RoundedRectangle|*
%AMROUNDEDRECTD61*
21,1,0.00955,0.02351,0,0,270.0*
21,1,0.00000,0.03306,0,0,270.0*
1,1,0.00955,-0.01176,0.00000*
1,1,0.00955,-0.01176,0.00000*
1,1,0.00955,0.01176,0.00000*
1,1,0.00955,0.01176,0.00000*
%
%ADD61ROUNDEDRECTD61*%
G04:AMPARAMS|DCode=62|XSize=33.06mil|YSize=9.55mil|CornerRadius=4.77mil|HoleSize=0mil|Usage=FLASHONLY|Rotation=270.000|XOffset=0mil|YOffset=0mil|HoleType=Round|Shape=RoundedRectangle|*
%AMROUNDEDRECTD62*
21,1,0.03306,0.00000,0,0,270.0*
21,1,0.02351,0.00955,0,0,270.0*
1,1,0.00955,0.00000,-0.01176*
1,1,0.00955,0.00000,0.01176*
1,1,0.00955,0.00000,0.01176*
1,1,0.00955,0.00000,-0.01176*
%
%ADD62ROUNDEDRECTD62*%
%ADD63R,0.00955X0.03306*%
%ADD64R,0.02362X0.01378*%
%ADD65R,0.01378X0.02362*%
%ADD66R,0.02756X0.02362*%
G04:AMPARAMS|DCode=67|XSize=18.11mil|YSize=7.87mil|CornerRadius=0.98mil|HoleSize=0mil|Usage=FLASHONLY|Rotation=0.000|XOffset=0mil|YOffset=0mil|HoleType=Round|Shape=RoundedRectangle|*
%AMROUNDEDRECTD67*
21,1,0.01811,0.00591,0,0,0.0*
21,1,0.01614,0.00787,0,0,0.0*
1,1,0.00197,0.00807,-0.00295*
1,1,0.00197,-0.00807,-0.00295*
1,1,0.00197,-0.00807,0.00295*
1,1,0.00197,0.00807,0.00295*
%
%ADD67ROUNDEDRECTD67*%
%ADD68R,0.05100X0.06100*%
%ADD96R,0.08071X0.08071*%
%ADD101C,0.05400*%
G04:AMPARAMS|DCode=117|XSize=39.37mil|YSize=70.87mil|CornerRadius=19.68mil|HoleSize=0mil|Usage=FLASHONLY|Rotation=270.000|XOffset=0mil|YOffset=0mil|HoleType=Round|Shape=RoundedRectangle|*
%AMROUNDEDRECTD117*
21,1,0.03937,0.03150,0,0,270.0*
21,1,0.00000,0.07087,0,0,270.0*
1,1,0.03937,-0.01575,0.00000*
1,1,0.03937,-0.01575,0.00000*
1,1,0.03937,0.01575,0.00000*
1,1,0.03937,0.01575,0.00000*
%
%ADD117ROUNDEDRECTD117*%
G04:AMPARAMS|DCode=118|XSize=39.37mil|YSize=86.61mil|CornerRadius=19.68mil|HoleSize=0mil|Usage=FLASHONLY|Rotation=270.000|XOffset=0mil|YOffset=0mil|HoleType=Round|Shape=RoundedRectangle|*
%AMROUNDEDRECTD118*
21,1,0.03937,0.04724,0,0,270.0*
21,1,0.00000,0.08661,0,0,270.0*
1,1,0.03937,-0.02362,0.00000*
1,1,0.03937,-0.02362,0.00000*
1,1,0.03937,0.02362,0.00000*
1,1,0.03937,0.02362,0.00000*
%
%ADD118ROUNDEDRECTD118*%
%ADD120R,0.02756X0.00787*%
%ADD121R,0.02200X0.06200*%
%ADD122R,0.05100X0.07500*%
%ADD123C,0.02000*%
%ADD124C,0.05000*%
%ADD125C,0.08000*%
%ADD126C,0.10000*%
%ADD127C,0.03000*%
%ADD128C,0.04000*%
%ADD129C,0.00603*%
%ADD130C,0.20000*%
%ADD131C,0.02500*%
%ADD132C,0.10630*%
%ADD133C,0.04331*%
%ADD134C,0.06496*%
%ADD135R,0.06496X0.06496*%
%ADD136C,0.06000*%
%ADD137R,0.06000X0.06000*%
%ADD138R,0.09449X0.09449*%
%ADD139C,0.09449*%
%ADD140C,0.08858*%
%ADD141C,0.23622*%
%ADD142R,0.23622X0.23622*%
%ADD143C,0.04000*%
%ADD144R,0.04000X0.04000*%
%ADD145C,0.05937*%
%ADD146R,0.05937X0.05937*%
%ADD147C,0.01575*%
%ADD148R,0.04000X0.04000*%
%ADD149C,0.02400*%
G36*
X581500Y515287D02*
X581483D01*
Y511713D01*
X581500D01*
Y501500D01*
X567700D01*
Y523500D01*
X570991D01*
X571500Y523399D01*
X572009Y523500D01*
X581500D01*
Y515287D01*
D02*
G37*
G36*
X398500Y531500D02*
X493700D01*
X501900Y539700D01*
X574300D01*
X585000Y529000D01*
Y512500D01*
X582600D01*
Y513108D01*
X582678Y513500D01*
X582600Y513892D01*
Y526100D01*
X573402Y535298D01*
X503541D01*
X499743Y531500D01*
Y435500D01*
X491000D01*
Y512000D01*
X393500D01*
X355000Y550500D01*
Y557000D01*
X373000D01*
X398500Y531500D01*
D02*
G37*
G36*
X566500Y501500D02*
X563500D01*
Y504329D01*
X563554Y504600D01*
X563500Y504871D01*
Y521500D01*
X566500D01*
Y501500D01*
D02*
G37*
G36*
X562451Y508549D02*
Y504600D01*
X562493Y504391D01*
X562480Y504329D01*
Y501500D01*
X560000D01*
Y502500D01*
X545000Y517500D01*
X542000D01*
Y523500D01*
X547500D01*
X562451Y508549D01*
D02*
G37*
G36*
X540000Y500500D02*
X534000D01*
Y511000D01*
X508500D01*
Y531000D01*
X540000D01*
Y500500D01*
D02*
G37*
G36*
X810000Y488095D02*
X809538Y487904D01*
X795841Y501601D01*
X795510Y501822D01*
X795119Y501900D01*
X787720D01*
X787676Y501913D01*
X786500Y502029D01*
X768750D01*
X767574Y501913D01*
X767530Y501900D01*
X712000D01*
X711610Y501822D01*
X711279Y501601D01*
X711058Y501271D01*
X710980Y500880D01*
Y482830D01*
X693745D01*
Y486800D01*
Y491800D01*
X677145D01*
Y491385D01*
X675646D01*
X675382Y491780D01*
X674859Y492130D01*
X674242Y492252D01*
X670640D01*
X670023Y492130D01*
X669500Y491780D01*
X669151Y491257D01*
X669028Y490640D01*
Y489479D01*
X669151Y488862D01*
X669500Y488340D01*
X670023Y487990D01*
X670640Y487867D01*
X674242D01*
X674859Y487990D01*
X675382Y488340D01*
X675646Y488734D01*
X677145D01*
Y485829D01*
X675856D01*
Y486481D01*
X668344D01*
Y485829D01*
X665610D01*
X665274Y486165D01*
X664466Y486500D01*
X663591D01*
X662782Y486165D01*
X662163Y485546D01*
X661828Y484738D01*
Y483862D01*
X662163Y483054D01*
X662782Y482435D01*
X663591Y482100D01*
X664466D01*
X665274Y482435D01*
X665610Y482771D01*
X668344D01*
Y482119D01*
X675856D01*
Y482771D01*
X677145D01*
Y482020D01*
X677058Y481890D01*
X676980Y481500D01*
Y476802D01*
X677058Y476412D01*
X677113Y476329D01*
X676991Y475829D01*
X673140D01*
X672555Y475713D01*
X672059Y475381D01*
X668048Y471371D01*
X663684D01*
Y470079D01*
X661750D01*
Y472150D01*
X653850D01*
Y464950D01*
X661750D01*
Y467021D01*
X663684D01*
Y465749D01*
X671116D01*
Y469771D01*
X671219Y469839D01*
X671719Y469572D01*
Y467230D01*
X676081D01*
Y467764D01*
X677145D01*
Y466520D01*
X677058Y466390D01*
X676980Y466000D01*
Y458000D01*
X677058Y457610D01*
X677279Y457279D01*
X677610Y457058D01*
X678000Y456980D01*
X691578Y456980D01*
X706279Y442279D01*
X706610Y442058D01*
X707000Y441980D01*
X711137D01*
Y440508D01*
X711058Y440390D01*
X710980Y440000D01*
Y424375D01*
X693745D01*
Y428300D01*
Y433300D01*
X677145D01*
Y432085D01*
X675646D01*
X675382Y432480D01*
X674859Y432830D01*
X674242Y432952D01*
X670640D01*
X670023Y432830D01*
X669500Y432480D01*
X669151Y431957D01*
X669028Y431341D01*
Y430179D01*
X669151Y429562D01*
X669500Y429039D01*
X670023Y428690D01*
X670640Y428568D01*
X674242D01*
X674859Y428690D01*
X675382Y429039D01*
X675646Y429434D01*
X677145D01*
Y426729D01*
X675856D01*
Y427381D01*
X668344D01*
Y426729D01*
X665610D01*
X665274Y427065D01*
X664466Y427400D01*
X663591D01*
X662782Y427065D01*
X662163Y426446D01*
X661828Y425638D01*
Y424762D01*
X662163Y423954D01*
X662782Y423335D01*
X663591Y423000D01*
X664466D01*
X665274Y423335D01*
X665610Y423671D01*
X668344D01*
Y423019D01*
X675856D01*
Y423671D01*
X676764D01*
X677068Y423300D01*
Y418657D01*
X677145Y418270D01*
Y417329D01*
X672940D01*
X672355Y417213D01*
X671859Y416881D01*
X667848Y412871D01*
X663483D01*
Y411579D01*
X661450D01*
Y413650D01*
X653550D01*
Y406450D01*
X661450D01*
Y408521D01*
X663483D01*
Y407249D01*
X670917D01*
Y411271D01*
X671019Y411339D01*
X671519Y411072D01*
Y408737D01*
X675881D01*
Y409271D01*
X677145D01*
Y403300D01*
X680480D01*
Y394659D01*
X680407Y394100D01*
X680480Y393541D01*
Y353000D01*
X680558Y352610D01*
X680779Y352279D01*
X681110Y352058D01*
X681500Y351980D01*
X720000D01*
X720390Y352058D01*
X720721Y352279D01*
X720942Y352610D01*
X721020Y353000D01*
Y383000D01*
X720942Y383390D01*
X720721Y383721D01*
X720390Y383942D01*
X720000Y384020D01*
X709422D01*
X695020Y398422D01*
Y408000D01*
X694942Y408390D01*
X694721Y408721D01*
X694390Y408942D01*
X694000Y409020D01*
X693745D01*
Y413300D01*
Y417270D01*
X710980D01*
Y400000D01*
X711058Y399610D01*
X711279Y399279D01*
X711610Y399058D01*
X712000Y398980D01*
X758000D01*
X758390Y399058D01*
X758721Y399279D01*
X758942Y399610D01*
X759020Y400000D01*
Y410980D01*
X774000D01*
X774390Y411058D01*
X774721Y411279D01*
X788721Y425279D01*
X788942Y425610D01*
X789020Y426000D01*
Y474000D01*
X788942Y474390D01*
X788721Y474721D01*
X788390Y474942D01*
X788000Y475020D01*
X768000D01*
X767610Y474942D01*
X767279Y474721D01*
X767058Y474390D01*
X766980Y474000D01*
Y446422D01*
X761578Y441020D01*
X753735D01*
X752914Y441360D01*
X752706Y441387D01*
X752536Y441914D01*
X752606Y441980D01*
X755000D01*
X755390Y442058D01*
X755721Y442279D01*
X755942Y442610D01*
X756020Y443000D01*
Y457000D01*
X755942Y457390D01*
X755721Y457721D01*
X755390Y457942D01*
X755000Y458020D01*
X746104D01*
X745637Y458100D01*
Y458980D01*
X750265D01*
X751086Y458640D01*
X752000Y458520D01*
X752914Y458640D01*
X753735Y458980D01*
X760000D01*
X760390Y459058D01*
X760721Y459279D01*
X760942Y459610D01*
X761020Y460000D01*
Y475578D01*
X768422Y482980D01*
X787578D01*
X790980Y479578D01*
Y420422D01*
X779578Y409020D01*
X772000D01*
X771610Y408942D01*
X771279Y408721D01*
X771058Y408390D01*
X770980Y408000D01*
Y394000D01*
X771058Y393610D01*
X771279Y393279D01*
X771610Y393058D01*
X772000Y392980D01*
X788000D01*
X788390Y393058D01*
X788721Y393279D01*
X809538Y414096D01*
X810000Y413905D01*
Y320095D01*
X809538Y319904D01*
X796189Y333253D01*
X795858Y333474D01*
X795468Y333552D01*
X752593D01*
X752545Y333542D01*
X752540Y333543D01*
X752500Y333540D01*
X752460Y333543D01*
X752455Y333542D01*
X752407Y333552D01*
X712000D01*
X711610Y333474D01*
X711279Y333253D01*
X711058Y332922D01*
X710980Y332532D01*
Y314530D01*
X693745D01*
Y318500D01*
Y323500D01*
X677145D01*
Y323085D01*
X676146D01*
X675882Y323480D01*
X675359Y323830D01*
X674742Y323952D01*
X671140D01*
X670523Y323830D01*
X670000Y323480D01*
X669651Y322957D01*
X669528Y322340D01*
Y321179D01*
X669651Y320562D01*
X670000Y320040D01*
X670523Y319690D01*
X671140Y319567D01*
X674742D01*
X675359Y319690D01*
X675882Y320040D01*
X676146Y320434D01*
X677145D01*
Y317529D01*
X676256D01*
Y318181D01*
X668744D01*
Y317529D01*
X667482D01*
X667146Y317865D01*
X666338Y318200D01*
X665462D01*
X664654Y317865D01*
X664035Y317246D01*
X663700Y316438D01*
Y315562D01*
X664035Y314754D01*
X664654Y314135D01*
X665462Y313800D01*
X666338D01*
X667146Y314135D01*
X667482Y314471D01*
X668744D01*
Y313819D01*
X676256D01*
Y314471D01*
X676988D01*
X677112Y313971D01*
X677058Y313890D01*
X676980Y313500D01*
Y308802D01*
X677058Y308412D01*
X677145Y308282D01*
Y307529D01*
X673040D01*
X672455Y307413D01*
X671959Y307081D01*
X667748Y302871D01*
X663383D01*
Y301479D01*
X660950D01*
Y303550D01*
X653050D01*
Y296350D01*
X660950D01*
Y298421D01*
X663383D01*
Y297249D01*
X670817D01*
Y301613D01*
X671357Y302154D01*
X671819Y301963D01*
Y298630D01*
X676181D01*
Y299164D01*
X677145D01*
Y298520D01*
X677058Y298390D01*
X676980Y298000D01*
Y291000D01*
X677058Y290610D01*
X677279Y290279D01*
X677610Y290058D01*
X678000Y289980D01*
X693578D01*
X710279Y273279D01*
X710610Y273058D01*
X711000Y272980D01*
X711012D01*
X711118Y272480D01*
X711058Y272390D01*
X710980Y272000D01*
Y256030D01*
X693745D01*
Y260000D01*
Y265000D01*
X677145D01*
Y264645D01*
X675605D01*
X675341Y265040D01*
X674818Y265389D01*
X674201Y265512D01*
X670599D01*
X669982Y265389D01*
X669459Y265040D01*
X669110Y264517D01*
X668987Y263900D01*
Y262739D01*
X669110Y262122D01*
X669459Y261599D01*
X669982Y261250D01*
X670599Y261127D01*
X674201D01*
X674818Y261250D01*
X675341Y261599D01*
X675605Y261994D01*
X677145D01*
Y259029D01*
X675756D01*
Y259681D01*
X668244D01*
Y259029D01*
X666882D01*
X666546Y259365D01*
X665738Y259700D01*
X664862D01*
X664054Y259365D01*
X663435Y258746D01*
X663100Y257938D01*
Y257062D01*
X663435Y256254D01*
X664054Y255635D01*
X664862Y255300D01*
X665738D01*
X666546Y255635D01*
X666882Y255971D01*
X668244D01*
Y255319D01*
X675756D01*
Y255971D01*
X677145D01*
Y254964D01*
X677110Y254791D01*
Y250093D01*
X677145Y249920D01*
Y249029D01*
X672440D01*
X671855Y248913D01*
X671359Y248581D01*
X667048Y244271D01*
X662683D01*
Y242979D01*
X660550D01*
Y245050D01*
X652650D01*
Y237850D01*
X660550D01*
Y239921D01*
X662683D01*
Y238649D01*
X670117D01*
Y242841D01*
X670319Y242996D01*
X670819Y242750D01*
Y240130D01*
X675181D01*
Y240664D01*
X677145D01*
Y235000D01*
X680980D01*
Y228275D01*
X680579Y227305D01*
X680407Y226000D01*
X680579Y224695D01*
X680980Y223725D01*
Y222020D01*
X649020D01*
Y231900D01*
X649000Y231998D01*
Y232099D01*
X648983Y232182D01*
X648945Y232275D01*
X648942Y232290D01*
X648934Y232302D01*
X648831Y232550D01*
X648550Y232831D01*
X648302Y232934D01*
X648290Y232942D01*
X648275Y232945D01*
X648182Y232983D01*
X648099Y233000D01*
X647998D01*
X647900Y233020D01*
X619100D01*
X619002Y233000D01*
X618901Y233000D01*
X618814Y232983D01*
X618722Y232944D01*
X618623Y232925D01*
X618540Y232869D01*
X618447Y232830D01*
X618376Y232759D01*
X618292Y232704D01*
X618236Y232620D01*
X618165Y232549D01*
X618127Y232456D01*
X618071Y232373D01*
X618058Y232341D01*
X618058Y232341D01*
X618058Y232341D01*
X618038Y232242D01*
X618013Y232182D01*
X617520Y232197D01*
X617520Y232197D01*
Y659078D01*
X650422Y691980D01*
X677000D01*
X677390Y692058D01*
X677721Y692279D01*
X677942Y692610D01*
X678020Y693000D01*
Y767000D01*
X677942Y767390D01*
X677721Y767721D01*
X677390Y767942D01*
X677000Y768020D01*
X639000D01*
X638610Y767942D01*
X638279Y767721D01*
X586779Y716221D01*
X586558Y715890D01*
X586480Y715500D01*
Y529246D01*
X585980Y529197D01*
X585942Y529390D01*
X585721Y529721D01*
X575021Y540421D01*
X574690Y540642D01*
X574300Y540720D01*
X501900D01*
X501510Y540642D01*
X501179Y540421D01*
X493278Y532520D01*
X398922D01*
X373721Y557721D01*
X373390Y557942D01*
X373000Y558020D01*
X355000D01*
X354610Y557942D01*
X354279Y557721D01*
X354058Y557390D01*
X353980Y557000D01*
Y556898D01*
X353480Y556609D01*
X353158Y556796D01*
X352395Y557000D01*
X351605D01*
X350842Y556796D01*
X350158Y556401D01*
X349599Y555842D01*
X349204Y555158D01*
X349000Y554395D01*
Y553605D01*
X349204Y552842D01*
X349599Y552158D01*
X350158Y551599D01*
X350842Y551204D01*
X351605Y551000D01*
X352395D01*
X353158Y551204D01*
X353480Y551391D01*
X353980Y551102D01*
Y550500D01*
X354058Y550110D01*
X354279Y549779D01*
X392779Y511279D01*
X393110Y511058D01*
X393500Y510980D01*
X489980D01*
Y435500D01*
X490058Y435110D01*
X490279Y434779D01*
X490610Y434558D01*
X491000Y434480D01*
X499743D01*
X500134Y434558D01*
X500464Y434779D01*
X500679Y435100D01*
X501400D01*
Y445900D01*
X500763D01*
Y531078D01*
X503964Y534278D01*
X572980D01*
X581577Y525681D01*
Y524583D01*
X581500Y524520D01*
X572009D01*
X571910Y524500D01*
X571810D01*
X571500Y524438D01*
X571190Y524500D01*
X571090D01*
X570991Y524520D01*
X567700D01*
X567310Y524442D01*
X566979Y524221D01*
X566758Y523890D01*
X566680Y523500D01*
Y522668D01*
X566500Y522520D01*
X563500D01*
X563110Y522442D01*
X562779Y522221D01*
X562558Y521890D01*
X562480Y521500D01*
Y512448D01*
X562451Y512300D01*
Y510644D01*
X561989Y510453D01*
X548550Y523892D01*
Y524450D01*
X547850D01*
X547500Y524520D01*
X542000D01*
X541650Y524450D01*
X541350D01*
X541020Y524813D01*
Y531000D01*
X540942Y531390D01*
X540721Y531721D01*
X540390Y531942D01*
X540000Y532020D01*
X517008D01*
Y532039D01*
X507528D01*
Y531237D01*
X507480Y531000D01*
Y511000D01*
X507528Y510763D01*
Y509961D01*
X517008D01*
Y509980D01*
X532980D01*
Y500500D01*
X533058Y500110D01*
X533279Y499779D01*
X533610Y499558D01*
X534000Y499480D01*
X540000D01*
X540390Y499558D01*
X540721Y499779D01*
X540942Y500110D01*
X541020Y500500D01*
Y516187D01*
X541350Y516550D01*
X541650D01*
X542000Y516480D01*
X544578D01*
X558980Y502078D01*
Y501500D01*
X559058Y501110D01*
X559160Y500957D01*
Y500500D01*
X559902D01*
X560000Y500480D01*
X562480D01*
X562579Y500500D01*
X563402D01*
X563500Y500480D01*
X566500D01*
X566599Y500500D01*
X567351D01*
X567557Y500002D01*
X567557Y499999D01*
X567058Y499500D01*
X566198D01*
X566100Y499520D01*
X563500D01*
X563402Y499500D01*
X562900D01*
Y499302D01*
X562779Y499221D01*
X562558Y498890D01*
X562480Y498500D01*
Y495548D01*
X562451Y495400D01*
Y491793D01*
X561779Y491121D01*
X561558Y490790D01*
X561480Y490400D01*
Y489148D01*
X561451Y489000D01*
X561480Y488852D01*
Y477000D01*
X561558Y476610D01*
X561779Y476279D01*
X562110Y476058D01*
X562500Y475980D01*
X566100D01*
X566191Y475906D01*
Y472200D01*
X565867Y471983D01*
X565526Y471473D01*
X565407Y470872D01*
Y469931D01*
X565193Y469414D01*
X565072Y468500D01*
Y456000D01*
Y454598D01*
X565193Y453684D01*
X565545Y452833D01*
X566106Y452101D01*
X566480Y451727D01*
Y451000D01*
X566558Y450610D01*
X566779Y450279D01*
X583279Y433779D01*
X586980Y430078D01*
Y358169D01*
X586480Y357962D01*
X577221Y367221D01*
X576890Y367442D01*
X576500Y367520D01*
X504000D01*
X503610Y367442D01*
X503279Y367221D01*
X492898Y356839D01*
X492792D01*
Y356734D01*
X486078Y350020D01*
X467020D01*
Y351952D01*
X467026Y352000D01*
X467020Y352048D01*
Y354000D01*
X467000Y354099D01*
Y360000D01*
X461000D01*
Y355026D01*
X433520D01*
Y360500D01*
X433442Y360890D01*
X433221Y361221D01*
X432890Y361442D01*
X432500Y361520D01*
X426500D01*
X426110Y361442D01*
X425779Y361221D01*
X425558Y360890D01*
X425480Y360500D01*
Y359689D01*
X425338Y359475D01*
X425144Y358500D01*
X425338Y357524D01*
X425480Y357311D01*
Y347000D01*
X425558Y346610D01*
X425779Y346279D01*
X426110Y346058D01*
X426500Y345980D01*
X432500D01*
X432890Y346058D01*
X433221Y346279D01*
X433442Y346610D01*
X433520Y347000D01*
Y348974D01*
X460480D01*
Y346581D01*
X460470Y346500D01*
X460480Y346419D01*
Y341500D01*
X460558Y341110D01*
X460779Y340779D01*
X461110Y340558D01*
X461500Y340480D01*
X489078D01*
X491980Y337578D01*
Y259500D01*
X492058Y259110D01*
X492279Y258779D01*
X492400Y258698D01*
Y258600D01*
X492547D01*
X492610Y258558D01*
X493000Y258480D01*
X502000D01*
X502390Y258558D01*
X502453Y258600D01*
X503000D01*
Y259401D01*
X503020Y259500D01*
Y355078D01*
X507922Y359980D01*
X575778Y359980D01*
X583180Y352578D01*
X583180Y339518D01*
X582680Y339020D01*
X578922D01*
X578020Y339922D01*
Y350500D01*
X577942Y350890D01*
X577721Y351221D01*
X577581Y351314D01*
Y351570D01*
X573219D01*
Y351464D01*
X573110Y351442D01*
X572779Y351221D01*
X572558Y350890D01*
X572480Y350500D01*
Y339422D01*
X567981Y334924D01*
X567520Y335115D01*
Y347000D01*
X567442Y347390D01*
X567221Y347721D01*
X566890Y347942D01*
X566500Y348020D01*
X563800D01*
X563410Y347942D01*
X563079Y347721D01*
X562858Y347390D01*
X562780Y347000D01*
Y343315D01*
X562319Y343124D01*
X555221Y350221D01*
X554890Y350442D01*
X554500Y350520D01*
X543000D01*
X542610Y350442D01*
X542250Y350237D01*
X541890Y350442D01*
X541500Y350520D01*
X519020D01*
Y356000D01*
X518942Y356390D01*
X518808Y356591D01*
Y356839D01*
X518544D01*
X518390Y356942D01*
X518000Y357020D01*
X510000D01*
X509610Y356942D01*
X509456Y356839D01*
X509328D01*
Y356753D01*
X509279Y356721D01*
X509058Y356390D01*
X508980Y356000D01*
Y335000D01*
X509058Y334610D01*
X509279Y334279D01*
X509610Y334058D01*
X510000Y333980D01*
X517500D01*
X534980Y333980D01*
Y327000D01*
X535058Y326610D01*
X535279Y326279D01*
X535610Y326058D01*
X536000Y325980D01*
X541500D01*
X541890Y326058D01*
X542221Y326279D01*
X542442Y326610D01*
X542520Y327000D01*
Y340566D01*
X543000Y340980D01*
X556578D01*
X558480Y339078D01*
Y326500D01*
X558558Y326110D01*
X558779Y325779D01*
X559110Y325558D01*
X559160Y325548D01*
Y325500D01*
X559402D01*
X559500Y325480D01*
X562500D01*
X562599Y325500D01*
X563352D01*
X563402Y325000D01*
X563110Y324942D01*
X562779Y324721D01*
X562558Y324390D01*
X562480Y324000D01*
Y305000D01*
X562558Y304610D01*
X562779Y304279D01*
X563110Y304058D01*
X563500Y303980D01*
X566191D01*
Y296904D01*
X566072Y296000D01*
Y281100D01*
X566192Y280186D01*
X566407Y279669D01*
Y278728D01*
X566480Y278358D01*
Y251922D01*
X521779Y207221D01*
X521558Y206890D01*
X521480Y206500D01*
Y176500D01*
X521558Y176110D01*
X521779Y175779D01*
X522110Y175558D01*
X522402Y175500D01*
X522352Y175000D01*
X65000D01*
Y775000D01*
X810000D01*
Y488095D01*
D02*
G37*
G36*
X566100Y477000D02*
X562500D01*
Y490400D01*
X563500Y491400D01*
Y498500D01*
X566100D01*
Y477000D01*
D02*
G37*
G36*
X712000Y457000D02*
X755000D01*
Y443000D01*
X707000D01*
X692000Y458000D01*
X678000Y458000D01*
Y466000D01*
X703000D01*
X712000Y457000D01*
D02*
G37*
G36*
X788000Y426000D02*
X774000Y412000D01*
X758000D01*
Y400000D01*
X712000D01*
Y418657D01*
X678087D01*
Y423300D01*
X693745D01*
Y423355D01*
X712000D01*
Y440000D01*
X762000D01*
X768000Y446000D01*
Y474000D01*
X788000D01*
Y426000D01*
D02*
G37*
G36*
X810000Y486000D02*
Y416000D01*
X788000Y394000D01*
X772000D01*
Y408000D01*
X780000D01*
X792000Y420000D01*
Y480000D01*
X788000Y484000D01*
X768000D01*
X760000Y476000D01*
Y460000D01*
X712000D01*
Y476802D01*
X678000D01*
Y481500D01*
X712000D01*
Y500880D01*
X795119D01*
X810000Y486000D01*
D02*
G37*
G36*
X694000Y398000D02*
X709000Y383000D01*
X720000D01*
Y353000D01*
X681500D01*
Y408000D01*
X694000D01*
Y398000D01*
D02*
G37*
G36*
X432500Y354000D02*
X466000D01*
Y350020D01*
X464581D01*
X464500Y350030D01*
X464000D01*
X463771Y350000D01*
X432500D01*
Y347000D01*
X426500D01*
Y357991D01*
X426601Y358500D01*
X426500Y359009D01*
Y360500D01*
X432500D01*
Y354000D01*
D02*
G37*
G36*
X586000Y357000D02*
Y335809D01*
X584719D01*
X584314Y336309D01*
X584372Y336600D01*
X584236Y337283D01*
X584210Y337321D01*
Y338387D01*
X584200D01*
X584200Y353000D01*
X576200Y361000D01*
X507500Y361000D01*
X502000Y355500D01*
Y259500D01*
X493000D01*
Y338000D01*
X489500Y341500D01*
X461500D01*
Y348974D01*
X464000D01*
X464197Y349000D01*
X486500D01*
X504000Y366500D01*
X576500D01*
X586000Y357000D01*
D02*
G37*
G36*
X810000Y318000D02*
Y248000D01*
X788000Y226000D01*
X772000D01*
Y236000D01*
X790000Y254000D01*
Y312000D01*
X784000Y318000D01*
X768000D01*
X760000Y310000D01*
Y292000D01*
X712000D01*
Y308802D01*
X678000D01*
Y313500D01*
X712000D01*
Y332532D01*
X752407D01*
X752500Y332520D01*
X752593Y332532D01*
X795468D01*
X810000Y318000D01*
D02*
G37*
G36*
X518000Y349500D02*
X541500D01*
Y327000D01*
X536000D01*
Y335000D01*
X517500Y335000D01*
X510000D01*
Y356000D01*
X518000D01*
Y349500D01*
D02*
G37*
G36*
X577000Y339500D02*
X578500Y338000D01*
X583177D01*
Y335500D01*
X576500D01*
X570000Y329000D01*
Y326500D01*
X567520D01*
Y333020D01*
X573500Y339000D01*
Y350500D01*
X577000D01*
Y339500D01*
D02*
G37*
G36*
X566500Y326500D02*
X563800D01*
Y347000D01*
X566500D01*
Y326500D01*
D02*
G37*
G36*
X562500Y341500D02*
Y326500D01*
X559500D01*
Y339500D01*
X557000Y342000D01*
X543000D01*
Y349500D01*
X554500D01*
X562500Y341500D01*
D02*
G37*
G36*
X566200Y320444D02*
X566191Y320400D01*
Y305000D01*
X563500D01*
Y324000D01*
X566200D01*
Y320444D01*
D02*
G37*
G36*
X711000Y289000D02*
X755000D01*
Y274000D01*
X711000Y274000D01*
X694000Y291000D01*
X678000D01*
Y298000D01*
X702000D01*
X711000Y289000D01*
D02*
G37*
G36*
X786000Y256000D02*
X762000Y232000D01*
X712000D01*
Y250093D01*
X678130D01*
Y254791D01*
X712000D01*
Y272000D01*
X766000D01*
Y308000D01*
X786000D01*
Y256000D01*
D02*
G37*
G36*
X788980Y311578D02*
Y254422D01*
X772283Y237724D01*
X772276D01*
Y237718D01*
X771279Y236721D01*
X771058Y236390D01*
X770980Y236000D01*
Y226000D01*
X771058Y225610D01*
X771279Y225279D01*
X771610Y225058D01*
X772000Y224980D01*
X788000D01*
X788390Y225058D01*
X788721Y225279D01*
X809538Y246096D01*
X810000Y245905D01*
Y198245D01*
X720020D01*
X720020Y211900D01*
X720000Y211998D01*
X720000Y212099D01*
X719981Y212191D01*
X719943Y212284D01*
X719942Y212290D01*
X719939Y212295D01*
X719872Y212455D01*
X719871Y212461D01*
X719868Y212466D01*
X719829Y212559D01*
X719777Y212637D01*
X719706Y212708D01*
X719650Y212792D01*
X702020Y230422D01*
Y238900D01*
X702000Y238998D01*
Y239099D01*
X701983Y239182D01*
X701945Y239275D01*
X701942Y239290D01*
X701934Y239302D01*
X701831Y239550D01*
X701550Y239831D01*
X701302Y239934D01*
X701290Y239942D01*
X701275Y239945D01*
X701182Y239983D01*
X701098Y240000D01*
X700998D01*
X700900Y240020D01*
X693745D01*
Y245000D01*
Y248970D01*
X710980D01*
Y232000D01*
X711058Y231610D01*
X711137Y231492D01*
Y231300D01*
X711265D01*
X711279Y231279D01*
X711610Y231058D01*
X712000Y230980D01*
X762000D01*
X762390Y231058D01*
X762721Y231279D01*
X786721Y255279D01*
X786942Y255610D01*
X787020Y256000D01*
Y308000D01*
X786942Y308390D01*
X786721Y308721D01*
X786390Y308942D01*
X786000Y309020D01*
X766000D01*
X765610Y308942D01*
X765279Y308721D01*
X765058Y308390D01*
X764980Y308000D01*
Y273020D01*
X756149D01*
X755882Y273520D01*
X755942Y273610D01*
X756020Y274000D01*
Y277469D01*
X756030Y277550D01*
Y285450D01*
X756020Y285531D01*
Y289000D01*
X755942Y289390D01*
X755721Y289721D01*
X755390Y289942D01*
X755000Y290020D01*
X754589D01*
X754298Y290465D01*
X754300Y290520D01*
X754901Y290980D01*
X760000D01*
X760390Y291058D01*
X760721Y291279D01*
X760942Y291610D01*
X761020Y292000D01*
Y309578D01*
X768422Y316980D01*
X783578D01*
X788980Y311578D01*
D02*
G37*
G36*
X700983Y238983D02*
X701000Y238900D01*
Y230422D01*
Y230000D01*
X718929Y212071D01*
X718982Y211992D01*
X719000Y211900D01*
X719000Y197225D01*
X810005D01*
Y175005D01*
X810000Y175000D01*
X643000D01*
Y201000D01*
X635981D01*
X635780Y201134D01*
X635000Y201289D01*
X634220Y201134D01*
X634019Y201000D01*
X628000D01*
Y200014D01*
X627992Y200000D01*
X619000D01*
Y231951D01*
X619013Y231983D01*
X619100Y232000D01*
X647900D01*
X647983Y231983D01*
X648000Y231900D01*
Y222020D01*
Y221000D01*
X682000D01*
Y239000D01*
X700900D01*
X700983Y238983D01*
D02*
G37*
G36*
X641980Y175000D02*
X616648D01*
X616599Y175500D01*
X616890Y175558D01*
X617221Y175779D01*
X617442Y176110D01*
X617520Y176500D01*
Y198611D01*
X618020Y198855D01*
X618071Y198815D01*
Y198614D01*
X618399D01*
X619138Y197713D01*
X620052Y196963D01*
X621094Y196406D01*
X622225Y196063D01*
X623402Y195947D01*
X624578Y196063D01*
X625709Y196406D01*
X626751Y196963D01*
X627665Y197713D01*
X628404Y198614D01*
X628732D01*
Y199221D01*
X628894Y199523D01*
X628899Y199533D01*
X628899Y199533D01*
X628972Y199669D01*
X629045Y199911D01*
X632900D01*
Y197650D01*
X632961D01*
Y186063D01*
X628732D01*
Y187386D01*
X618071D01*
Y180661D01*
X628732D01*
Y181984D01*
X632819D01*
Y181930D01*
X637181D01*
Y186056D01*
X637039D01*
Y197650D01*
X637100D01*
Y199980D01*
X641980D01*
Y175000D01*
D02*
G37*
G36*
X677000Y693000D02*
X650000D01*
X616500Y659500D01*
Y176500D01*
X522500D01*
Y206500D01*
X567500Y251500D01*
Y323500D01*
X569000Y325000D01*
X585500D01*
X588000Y327500D01*
Y430500D01*
X584000Y434500D01*
X567500Y451000D01*
Y489754D01*
X567549Y490000D01*
Y495400D01*
X567500Y495646D01*
Y498500D01*
X569000Y500000D01*
X583000D01*
X587500Y504500D01*
Y715500D01*
X639000Y767000D01*
X677000D01*
Y693000D01*
D02*
G37*
%LPC*%
G36*
X790000Y769020D02*
X746000D01*
X745610Y768942D01*
X745279Y768721D01*
X745058Y768390D01*
X744980Y768000D01*
Y746000D01*
X745058Y745610D01*
X745279Y745279D01*
X745610Y745058D01*
X746000Y744980D01*
X772000D01*
X772390Y745058D01*
X772721Y745279D01*
X772942Y745610D01*
X773020Y746000D01*
Y755971D01*
X784000D01*
X784633Y756033D01*
X790000D01*
X790390Y756111D01*
X790721Y756332D01*
X790942Y756663D01*
X791020Y757053D01*
Y759831D01*
X791297Y759971D01*
X791520Y760004D01*
X792056Y759467D01*
X792778Y759050D01*
X793583Y758835D01*
X794417D01*
X795222Y759050D01*
X795944Y759467D01*
X796533Y760056D01*
X796950Y760778D01*
X797165Y761583D01*
Y762417D01*
X796950Y763222D01*
X796533Y763944D01*
X795944Y764533D01*
X795222Y764950D01*
X794417Y765165D01*
X793583D01*
X792778Y764950D01*
X792056Y764533D01*
X791520Y763996D01*
X791297Y764029D01*
X791020Y764169D01*
Y768000D01*
X790942Y768390D01*
X790721Y768721D01*
X790390Y768942D01*
X790000Y769020D01*
D02*
G37*
G36*
X355527Y764000D02*
X354473D01*
X353456Y763727D01*
X352544Y763201D01*
X351799Y762456D01*
X351273Y761544D01*
X351000Y760527D01*
Y759473D01*
X351273Y758456D01*
X351799Y757544D01*
X352544Y756799D01*
X353456Y756273D01*
X354473Y756000D01*
X355527D01*
X356544Y756273D01*
X357456Y756799D01*
X358201Y757544D01*
X358727Y758456D01*
X359000Y759473D01*
Y760527D01*
X358727Y761544D01*
X358201Y762456D01*
X357456Y763201D01*
X356544Y763727D01*
X355527Y764000D01*
D02*
G37*
G36*
X349000D02*
X341000D01*
Y756000D01*
X349000D01*
Y764000D01*
D02*
G37*
G36*
X280622Y765291D02*
X279378D01*
X278158Y765049D01*
X277009Y764573D01*
X275974Y763881D01*
X275095Y763002D01*
X274404Y761968D01*
X273928Y760818D01*
X273685Y759598D01*
Y758354D01*
X273928Y757134D01*
X274404Y755985D01*
X275095Y754951D01*
X275974Y754071D01*
X277009Y753380D01*
X278158Y752904D01*
X279378Y752661D01*
X280622D01*
X281842Y752904D01*
X282991Y753380D01*
X284026Y754071D01*
X284905Y754951D01*
X285596Y755985D01*
X286072Y757134D01*
X286315Y758354D01*
Y759598D01*
X286072Y760818D01*
X285596Y761968D01*
X284905Y763002D01*
X284026Y763881D01*
X282991Y764573D01*
X281842Y765049D01*
X280622Y765291D01*
D02*
G37*
G36*
X150701D02*
X149457D01*
X148237Y765049D01*
X147088Y764573D01*
X146053Y763881D01*
X145174Y763002D01*
X144483Y761968D01*
X144007Y760818D01*
X143764Y759598D01*
Y758354D01*
X144007Y757134D01*
X144483Y755985D01*
X145174Y754951D01*
X146053Y754071D01*
X147088Y753380D01*
X148237Y752904D01*
X149457Y752661D01*
X150701D01*
X151921Y752904D01*
X153070Y753380D01*
X154104Y754071D01*
X154984Y754951D01*
X155675Y755985D01*
X156151Y757134D01*
X156394Y758354D01*
Y759598D01*
X156151Y760818D01*
X155675Y761968D01*
X154984Y763002D01*
X154104Y763881D01*
X153070Y764573D01*
X151921Y765049D01*
X150701Y765291D01*
D02*
G37*
G36*
X794417Y755165D02*
X793583D01*
X792778Y754950D01*
X792056Y754533D01*
X791467Y753944D01*
X791050Y753222D01*
X790835Y752417D01*
Y751583D01*
X791050Y750778D01*
X791467Y750056D01*
X792056Y749467D01*
X792778Y749050D01*
X793583Y748835D01*
X794417D01*
X795222Y749050D01*
X795944Y749467D01*
X796533Y750056D01*
X796950Y750778D01*
X797165Y751583D01*
Y752417D01*
X796950Y753222D01*
X796533Y753944D01*
X795944Y754533D01*
X795222Y754950D01*
X794417Y755165D01*
D02*
G37*
G36*
X355527Y754000D02*
X354473D01*
X353456Y753727D01*
X352544Y753201D01*
X351799Y752456D01*
X351273Y751544D01*
X351000Y750527D01*
Y749473D01*
X351273Y748456D01*
X351799Y747544D01*
X352544Y746799D01*
X353456Y746273D01*
X354473Y746000D01*
X355527D01*
X356544Y746273D01*
X357456Y746799D01*
X358201Y747544D01*
X358727Y748456D01*
X359000Y749473D01*
Y750527D01*
X358727Y751544D01*
X358201Y752456D01*
X357456Y753201D01*
X356544Y753727D01*
X355527Y754000D01*
D02*
G37*
G36*
X345527D02*
X344473D01*
X343456Y753727D01*
X342544Y753201D01*
X341799Y752456D01*
X341273Y751544D01*
X341000Y750527D01*
Y749473D01*
X341273Y748456D01*
X341386Y748260D01*
X324063Y730937D01*
X323775Y730507D01*
X323675Y730000D01*
Y709549D01*
X293719Y679593D01*
X290409D01*
Y681098D01*
X290409Y681236D01*
Y681598D01*
X290409Y681736D01*
Y685823D01*
X290409Y685961D01*
Y686323D01*
X290409Y686461D01*
Y690547D01*
X290409Y690685D01*
Y691047D01*
X290409Y691195D01*
X290871Y691387D01*
X294979Y687279D01*
X295310Y687058D01*
X295700Y686980D01*
X298200D01*
X298590Y687058D01*
X298921Y687279D01*
X304721Y693079D01*
X304942Y693410D01*
X305020Y693800D01*
Y705700D01*
X304950Y706050D01*
Y706650D01*
X304350D01*
X304000Y706720D01*
X298100D01*
X297750Y706650D01*
X297050D01*
Y701620D01*
X295584D01*
X295393Y702081D01*
X295465Y702154D01*
X295800Y702962D01*
Y703838D01*
X295465Y704646D01*
X295111Y705000D01*
X295465Y705354D01*
X295800Y706162D01*
Y707038D01*
X295465Y707846D01*
X295111Y708200D01*
X295465Y708554D01*
X295800Y709362D01*
Y710238D01*
X295465Y711046D01*
X295061Y711450D01*
X295365Y711754D01*
X295700Y712562D01*
Y713438D01*
X295365Y714246D01*
X294746Y714865D01*
X293938Y715200D01*
X293062D01*
X292254Y714865D01*
X291635Y714246D01*
X291632Y714239D01*
X290409D01*
Y714307D01*
X285653D01*
Y712062D01*
X285154Y711728D01*
X284738Y711900D01*
X283862D01*
X283054Y711565D01*
X282435Y710946D01*
X282326Y710682D01*
X281825Y710781D01*
Y714500D01*
X281825Y714500D01*
X281725Y715007D01*
X281437Y715437D01*
X257788Y739087D01*
X257358Y739374D01*
X256850Y739475D01*
X114520D01*
Y741500D01*
X114442Y741890D01*
X114221Y742221D01*
X113890Y742442D01*
X113500Y742520D01*
X107500D01*
X107110Y742442D01*
X106779Y742221D01*
X106558Y741890D01*
X106480Y741500D01*
Y703000D01*
X106558Y702610D01*
X106779Y702279D01*
X107110Y702058D01*
X107500Y701980D01*
X113500D01*
X113890Y702058D01*
X114221Y702279D01*
X114442Y702610D01*
X114520Y703000D01*
Y736824D01*
X256301D01*
X278343Y714782D01*
X278111Y714307D01*
X277855Y714307D01*
X273528D01*
Y711657D01*
X273528Y711520D01*
X273514Y711025D01*
X266586D01*
X266046Y711565D01*
X265238Y711900D01*
X264362D01*
X263554Y711565D01*
X262935Y710946D01*
X262600Y710138D01*
Y709262D01*
X262935Y708454D01*
X263554Y707835D01*
X263577Y707826D01*
X263477Y707326D01*
X258786D01*
X258246Y707865D01*
X257438Y708200D01*
X256562D01*
X255754Y707865D01*
X255135Y707246D01*
X254800Y706438D01*
Y705562D01*
X255135Y704754D01*
X255754Y704135D01*
X256562Y703800D01*
X257438D01*
X258246Y704135D01*
X258786Y704674D01*
X264001D01*
X264062Y704200D01*
X263254Y703865D01*
X262885Y703496D01*
X262615D01*
X262356Y703755D01*
X261548Y704090D01*
X260673D01*
X259864Y703755D01*
X259605Y703496D01*
X259500D01*
X259110Y703418D01*
X258779Y703197D01*
X258558Y702867D01*
X258480Y702477D01*
Y700166D01*
X258558Y699776D01*
X258779Y699445D01*
X259110Y699224D01*
X259500Y699146D01*
X268828Y699146D01*
X269035Y698646D01*
X268635Y698246D01*
X268300Y697438D01*
Y696562D01*
X268635Y695754D01*
X268989Y695400D01*
X268635Y695046D01*
X268300Y694238D01*
Y693362D01*
X268635Y692554D01*
X269254Y691935D01*
X270062Y691600D01*
X270938D01*
X271746Y691935D01*
X272365Y692554D01*
X272700Y693362D01*
Y694238D01*
X272665Y694321D01*
X273066Y694721D01*
X273528Y694530D01*
Y692760D01*
X273528Y692622D01*
Y692260D01*
X273528Y692122D01*
Y689472D01*
Y686461D01*
X273528Y686323D01*
Y685961D01*
X273528Y685823D01*
Y682500D01*
X273066Y682309D01*
X269400Y685975D01*
Y686838D01*
X269065Y687646D01*
X268446Y688265D01*
X267638Y688600D01*
X266762D01*
X265954Y688265D01*
X265335Y687646D01*
X265000Y686838D01*
Y685962D01*
X265335Y685154D01*
X265739Y684750D01*
X265135Y684146D01*
X264800Y683338D01*
Y682462D01*
X265135Y681654D01*
X265662Y681127D01*
X265752Y681015D01*
X265703Y680515D01*
X265335Y680146D01*
X265000Y679338D01*
Y678462D01*
X265335Y677654D01*
X265709Y677280D01*
X265720Y676632D01*
X265535Y676446D01*
X265200Y675638D01*
Y674762D01*
X265535Y673954D01*
X266154Y673335D01*
X266257Y673292D01*
X266341Y672716D01*
X248157Y654531D01*
X247870Y654101D01*
X247769Y653594D01*
Y650936D01*
Y495312D01*
X247269Y494981D01*
X246967Y495041D01*
X246219D01*
X245683Y494934D01*
X245413Y494754D01*
X245220D01*
X244967Y495007D01*
X244158Y495342D01*
X243283D01*
X242475Y495007D01*
X241856Y494388D01*
X241521Y493580D01*
Y492704D01*
X241856Y491896D01*
X242456Y491295D01*
X242451Y491199D01*
X242331Y490795D01*
X215444D01*
Y501832D01*
X215865Y502254D01*
X216200Y503062D01*
Y503938D01*
X215865Y504746D01*
X215246Y505365D01*
X214438Y505700D01*
X213562D01*
X212754Y505365D01*
X212135Y504746D01*
X211800Y503938D01*
Y503062D01*
X212135Y502254D01*
X212754Y501635D01*
X212793Y501619D01*
Y490795D01*
X206347D01*
Y482890D01*
X207793D01*
Y481381D01*
X207754Y481365D01*
X207135Y480746D01*
X206800Y479938D01*
Y479062D01*
X207135Y478254D01*
X207754Y477635D01*
X208562Y477300D01*
X209438D01*
X210246Y477635D01*
X210865Y478254D01*
X211200Y479062D01*
Y479938D01*
X210865Y480746D01*
X210444Y481168D01*
Y482890D01*
X212793D01*
Y481381D01*
X212754Y481365D01*
X212135Y480746D01*
X211800Y479938D01*
Y479062D01*
X212135Y478254D01*
X212754Y477635D01*
X213562Y477300D01*
X214438D01*
X215246Y477635D01*
X215865Y478254D01*
X216200Y479062D01*
Y479938D01*
X215865Y480746D01*
X215444Y481168D01*
Y482890D01*
X217793D01*
Y475667D01*
X204951Y462825D01*
X175764D01*
Y463681D01*
X170635D01*
X170301Y464181D01*
X170500Y464662D01*
Y465538D01*
X170239Y466169D01*
X170445Y466720D01*
X170633Y466757D01*
X171336Y467227D01*
X171806Y467930D01*
X171971Y468760D01*
X171806Y469590D01*
X171336Y470293D01*
X170633Y470763D01*
X169803Y470928D01*
X166712D01*
X165883Y470763D01*
X165180Y470293D01*
X164709Y469590D01*
X164568Y468878D01*
X163163Y467473D01*
X162700Y467717D01*
Y468438D01*
X162365Y469246D01*
X161826Y469786D01*
Y471736D01*
X162681D01*
Y475559D01*
X163181Y475744D01*
X163663Y475263D01*
X164093Y474975D01*
X164586Y474877D01*
Y474114D01*
X171929D01*
Y478366D01*
X164586D01*
X164586Y478366D01*
Y478366D01*
X164099Y478427D01*
X163599Y478526D01*
X162681D01*
Y479264D01*
X158319D01*
Y475138D01*
Y471736D01*
X159175D01*
Y469786D01*
X158635Y469246D01*
X158300Y468438D01*
Y467674D01*
X153919Y463294D01*
X144961D01*
X144570Y463745D01*
X144601Y463980D01*
X150000D01*
X150390Y464058D01*
X150721Y464279D01*
X150942Y464610D01*
X151020Y465000D01*
Y473127D01*
X151200Y473562D01*
Y474438D01*
X151020Y474873D01*
Y475500D01*
X150942Y475890D01*
X150721Y476221D01*
X150390Y476442D01*
X150000Y476520D01*
X147500D01*
X147110Y476442D01*
X146779Y476221D01*
X146558Y475890D01*
X146480Y475500D01*
Y468521D01*
X142997Y468517D01*
X142802Y468478D01*
X142608Y468440D01*
X142607Y468440D01*
X142607Y468439D01*
X142442Y468329D01*
X142277Y468219D01*
X139876Y465818D01*
X139414Y466010D01*
Y469303D01*
X139865Y469754D01*
X140200Y470562D01*
Y471438D01*
X139865Y472246D01*
X139246Y472865D01*
X138438Y473200D01*
X137562D01*
X136754Y472865D01*
X136135Y472246D01*
X135800Y471438D01*
Y470562D01*
X135577Y470145D01*
X135392Y470109D01*
X134903Y469782D01*
X134577Y469293D01*
X134462Y468717D01*
Y466366D01*
X134577Y465789D01*
X134903Y465301D01*
X135392Y464974D01*
X135968Y464859D01*
X136392Y464944D01*
X136460Y464888D01*
Y464888D01*
X138669D01*
X138949Y464388D01*
X138859Y463937D01*
X138974Y463361D01*
X139023Y463288D01*
X139058Y463110D01*
X139205Y462890D01*
X138974Y462545D01*
X138859Y461969D01*
X138974Y461392D01*
X139247Y460984D01*
X138974Y460576D01*
X138859Y460000D01*
X138974Y459424D01*
X139247Y459016D01*
X138974Y458608D01*
X138859Y458032D01*
X138974Y457455D01*
X139247Y457047D01*
X138974Y456639D01*
X138859Y456063D01*
X138974Y455487D01*
X139145Y455231D01*
X139176Y455185D01*
X138815Y454824D01*
X138769Y454855D01*
X138513Y455026D01*
X137937Y455141D01*
X137361Y455026D01*
X136953Y454753D01*
X136545Y455026D01*
X135968Y455141D01*
X135392Y455026D01*
X134903Y454699D01*
X134577Y454211D01*
X134462Y453634D01*
Y451283D01*
X134577Y450707D01*
X134903Y450218D01*
X135392Y449891D01*
X135968Y449777D01*
X136545Y449891D01*
X136953Y450164D01*
X137361Y449891D01*
X137937Y449777D01*
X138513Y449891D01*
X139002Y450218D01*
X139329Y450707D01*
X139443Y451283D01*
Y453634D01*
X139329Y454211D01*
X139158Y454466D01*
X139127Y454513D01*
X139487Y454873D01*
X139534Y454842D01*
X139789Y454671D01*
X140012Y454627D01*
Y452959D01*
X140128Y452373D01*
X140460Y451877D01*
X141619Y450719D01*
X142115Y450387D01*
X142700Y450271D01*
X146737D01*
Y449619D01*
X147270D01*
Y448781D01*
X146736D01*
Y444419D01*
X148382D01*
X148573Y443957D01*
X147455Y442838D01*
X145545D01*
X145390Y442942D01*
X145000Y443020D01*
X143681D01*
Y446264D01*
X139319D01*
Y445730D01*
X138305D01*
X138245Y445820D01*
X137728Y446165D01*
X137118Y446286D01*
X135882D01*
X135272Y446165D01*
X134755Y445820D01*
X134690Y445722D01*
X133561D01*
Y448531D01*
Y452459D01*
X133538Y452575D01*
Y453634D01*
X133423Y454211D01*
X133097Y454699D01*
X132608Y455026D01*
X132032Y455141D01*
X131455Y455026D01*
X131047Y454753D01*
X130639Y455026D01*
X130063Y455141D01*
X129599Y455048D01*
X129488Y455083D01*
X129280Y455226D01*
X129120Y455382D01*
Y455958D01*
X129141Y456063D01*
X129120Y456168D01*
Y456511D01*
X129042Y456901D01*
X128849Y457190D01*
X129026Y457455D01*
X129141Y458032D01*
X129026Y458608D01*
X128753Y459016D01*
X129026Y459424D01*
X129141Y460000D01*
X129026Y460576D01*
X128753Y460984D01*
X129026Y461392D01*
X129141Y461969D01*
X129026Y462545D01*
X128753Y462953D01*
X129026Y463361D01*
X129141Y463937D01*
X129026Y464513D01*
X128855Y464769D01*
X128824Y464815D01*
X129185Y465176D01*
X129231Y465145D01*
X129487Y464974D01*
X130063Y464859D01*
X130639Y464974D01*
X131047Y465247D01*
X131455Y464974D01*
X132032Y464859D01*
X132608Y464974D01*
X133097Y465301D01*
X133423Y465789D01*
X133538Y466366D01*
Y468717D01*
X133423Y469293D01*
X133097Y469782D01*
X132608Y470109D01*
X132032Y470223D01*
X131455Y470109D01*
X131047Y469836D01*
X130639Y470109D01*
X130063Y470223D01*
X129487Y470109D01*
X128998Y469782D01*
X128671Y469293D01*
X128557Y468717D01*
Y466366D01*
X128671Y465789D01*
X128842Y465534D01*
X128873Y465487D01*
X128513Y465127D01*
X128466Y465158D01*
X128211Y465329D01*
X127634Y465443D01*
X125283D01*
X124707Y465329D01*
X124218Y465002D01*
X123891Y464513D01*
X123777Y463937D01*
X123891Y463361D01*
X124164Y462953D01*
X123891Y462545D01*
X123777Y461969D01*
X123805Y461827D01*
X123395Y461327D01*
X118764D01*
Y463681D01*
X111236D01*
Y463319D01*
X110820Y463041D01*
X110438Y463200D01*
X109562D01*
X108754Y462865D01*
X108135Y462246D01*
X107800Y461438D01*
Y460562D01*
X108135Y459754D01*
X108562Y459327D01*
X108698Y459000D01*
X108562Y458673D01*
X108135Y458246D01*
X107800Y457438D01*
Y456562D01*
X108135Y455754D01*
X108754Y455135D01*
X109562Y454800D01*
X110438D01*
X110820Y454959D01*
X111236Y454681D01*
Y454319D01*
X117224D01*
X117415Y453857D01*
X114779Y451221D01*
X114558Y450890D01*
X114480Y450500D01*
Y441500D01*
X114558Y441110D01*
X114736Y440843D01*
Y440819D01*
X114752D01*
X114779Y440779D01*
X115110Y440558D01*
X115500Y440480D01*
X118109D01*
X118499Y440558D01*
X118830Y440779D01*
X118857Y440819D01*
X122264D01*
Y441675D01*
X123400D01*
X123907Y441775D01*
X124337Y442063D01*
X130040Y447766D01*
X130502Y447574D01*
Y446211D01*
X130272Y446165D01*
X129755Y445820D01*
X129410Y445302D01*
X129288Y444693D01*
Y443693D01*
X129410Y443083D01*
X129755Y442566D01*
X130272Y442221D01*
X130882Y442099D01*
X132118D01*
X132728Y442221D01*
X133245Y442566D01*
X133310Y442663D01*
X134690D01*
X134755Y442566D01*
X135272Y442221D01*
X135882Y442099D01*
X137118D01*
X137728Y442221D01*
X138241Y442563D01*
X138253Y442566D01*
X138718Y442559D01*
X139012Y442160D01*
X138980Y442000D01*
Y435922D01*
X135578Y432520D01*
X112422D01*
X105020Y439922D01*
Y443000D01*
X104942Y443390D01*
X104721Y443721D01*
X104390Y443942D01*
X104000Y444020D01*
X99273D01*
X99264Y444068D01*
X98822Y444730D01*
X93940Y449611D01*
X94132Y450073D01*
X101419D01*
Y449236D01*
X105781D01*
Y453362D01*
X101419D01*
Y452727D01*
X93550D01*
X92228Y454049D01*
X91798Y454336D01*
X91290Y454437D01*
X88748D01*
Y455720D01*
X92819D01*
Y455391D01*
X97181D01*
Y457800D01*
X97438D01*
X98246Y458135D01*
X98865Y458754D01*
X99200Y459562D01*
Y460438D01*
X98865Y461246D01*
X98246Y461865D01*
X97438Y462200D01*
X97181D01*
Y464609D01*
X93193D01*
X92986Y465109D01*
X96250Y468373D01*
X101319D01*
Y466837D01*
X105681D01*
Y470963D01*
X103022D01*
X102700Y471027D01*
X95700D01*
X95192Y470926D01*
X94762Y470638D01*
X90372Y466248D01*
X88748D01*
Y471630D01*
X82221D01*
Y471488D01*
X80949D01*
X80168Y471333D01*
X79507Y470891D01*
X76558Y467942D01*
X76116Y467280D01*
X75961Y466500D01*
Y454000D01*
X76116Y453220D01*
X76558Y452558D01*
X80007Y449109D01*
X80668Y448667D01*
X81449Y448512D01*
X82221D01*
Y448370D01*
X88748D01*
Y448512D01*
X89272D01*
X95340Y442443D01*
Y441400D01*
X95490Y440648D01*
Y439266D01*
X95480Y439219D01*
Y436000D01*
X95558Y435610D01*
X95779Y435279D01*
X202779Y328279D01*
X203110Y328058D01*
X203500Y327980D01*
X234500D01*
X234890Y328058D01*
X235221Y328279D01*
X235442Y328610D01*
X235520Y329000D01*
Y336000D01*
X235442Y336390D01*
X235221Y336721D01*
X234890Y336942D01*
X234500Y337020D01*
X208922D01*
X120176Y425766D01*
Y426980D01*
X145000D01*
X145390Y427058D01*
X145721Y427279D01*
X145942Y427610D01*
X146020Y428000D01*
Y438760D01*
X148299D01*
X149080Y438915D01*
X149741Y439357D01*
X153643Y443259D01*
X154085Y443920D01*
X154184Y444419D01*
X154264D01*
Y448781D01*
X150329D01*
Y449619D01*
X150863D01*
Y453981D01*
X146737D01*
Y453329D01*
X143333D01*
X143071Y453592D01*
Y454627D01*
X143293Y454671D01*
X143782Y454998D01*
X144109Y455487D01*
X144223Y456063D01*
X144195Y456206D01*
X144605Y456706D01*
X161419D01*
X163063Y455063D01*
X163493Y454775D01*
X164000Y454674D01*
X168236D01*
Y453819D01*
X175764D01*
Y454674D01*
X206000D01*
X206507Y454775D01*
X206937Y455063D01*
X225055Y473181D01*
X225343Y473611D01*
X225444Y474118D01*
Y482890D01*
X269680D01*
X270087Y482665D01*
X270087Y482390D01*
Y477122D01*
Y472122D01*
Y467122D01*
Y461219D01*
X268471D01*
X267931Y461759D01*
X267123Y462094D01*
X266247D01*
X265439Y461759D01*
X264820Y461140D01*
X264485Y460331D01*
Y459456D01*
X264820Y458647D01*
X265439Y458029D01*
X266247Y457694D01*
X266338D01*
X266354Y457200D01*
X265545Y456865D01*
X264926Y456246D01*
X264591Y455438D01*
Y454562D01*
X264926Y453754D01*
X265545Y453135D01*
X266354Y452800D01*
X267229D01*
X268038Y453135D01*
X268577Y453675D01*
X270087D01*
Y452122D01*
Y447122D01*
Y442122D01*
Y437122D01*
Y432122D01*
Y427122D01*
Y422398D01*
X270087Y422122D01*
X269680Y421898D01*
X206347D01*
Y413992D01*
X208270D01*
Y413181D01*
X207736D01*
Y412529D01*
X205002D01*
X204667Y412865D01*
X203858Y413200D01*
X202983D01*
X202174Y412865D01*
X201555Y412246D01*
X201220Y411438D01*
Y410562D01*
X201555Y409754D01*
X202174Y409135D01*
X202983Y408800D01*
X203858D01*
X204667Y409135D01*
X205002Y409471D01*
X207736D01*
Y408819D01*
X211875D01*
Y408250D01*
X204801Y401176D01*
X179417D01*
Y403902D01*
X177184D01*
Y427098D01*
X179417D01*
Y435201D01*
X177068D01*
Y442832D01*
X177288D01*
X178117Y442997D01*
X178821Y443467D01*
X179290Y444170D01*
X179455Y445000D01*
X179290Y445830D01*
X178821Y446533D01*
X178117Y447003D01*
X177288Y447168D01*
X174197D01*
X173368Y447003D01*
X172664Y446533D01*
X172194Y445830D01*
X172029Y445000D01*
X172194Y444170D01*
X172664Y443467D01*
X173368Y442997D01*
X174197Y442832D01*
X174417D01*
Y435201D01*
X172299D01*
Y427098D01*
X174533D01*
Y403902D01*
X172299D01*
Y395799D01*
X173271D01*
X173463Y395337D01*
X172351Y394226D01*
X170400D01*
X170120Y394645D01*
X169603Y394990D01*
X168992Y395112D01*
X167993D01*
X167383Y394990D01*
X166866Y394645D01*
X166521Y394128D01*
X166399Y393518D01*
Y392282D01*
X166521Y391672D01*
X166866Y391155D01*
X167383Y390810D01*
X167993Y390688D01*
X168992D01*
X169603Y390810D01*
X170120Y391155D01*
X170400Y391575D01*
X172900D01*
X173407Y391675D01*
X173837Y391963D01*
X176795Y394921D01*
X177083Y395351D01*
X177172Y395799D01*
X179417D01*
Y398525D01*
X205350D01*
X205858Y398626D01*
X206288Y398913D01*
X214138Y406764D01*
X214425Y407194D01*
X214526Y407701D01*
Y408819D01*
X215264D01*
Y413181D01*
X214526D01*
Y413992D01*
X217793D01*
Y401787D01*
X208157Y392152D01*
X207870Y391722D01*
X207769Y391214D01*
Y379460D01*
X206795D01*
Y371360D01*
X215439D01*
Y367250D01*
X215135Y366946D01*
X214800Y366138D01*
Y365262D01*
X215135Y364454D01*
X215754Y363835D01*
X216562Y363500D01*
X217438D01*
X218246Y363835D01*
X218865Y364454D01*
X219200Y365262D01*
Y366138D01*
X218865Y366946D01*
X218498Y367313D01*
Y371360D01*
X219268D01*
Y379460D01*
X214357D01*
Y390134D01*
X225055Y400832D01*
X225343Y401262D01*
X225444Y401769D01*
Y413992D01*
X227793D01*
Y412128D01*
X227893Y411621D01*
X228181Y411191D01*
X232014Y407358D01*
Y406595D01*
X232349Y405786D01*
X232968Y405167D01*
X233776Y404832D01*
X234652D01*
X235460Y405167D01*
X236079Y405786D01*
X236414Y406595D01*
Y407470D01*
X236079Y408279D01*
X235460Y408897D01*
X235385Y408928D01*
Y409429D01*
X235504Y409478D01*
X236123Y410097D01*
X236458Y410905D01*
Y411781D01*
X236123Y412589D01*
X235504Y413208D01*
X235444Y413233D01*
Y413992D01*
X237793D01*
Y398882D01*
X237894Y398375D01*
X238181Y397945D01*
X252563Y383563D01*
X252993Y383275D01*
X253500Y383174D01*
X277099D01*
X277290Y382713D01*
X277229Y382652D01*
X276894Y381843D01*
Y380968D01*
X277229Y380159D01*
X277429Y379960D01*
X277221Y379460D01*
X276795D01*
Y371360D01*
X285439D01*
Y370550D01*
X285135Y370246D01*
X284800Y369438D01*
Y368562D01*
X285135Y367754D01*
X285754Y367135D01*
X286562Y366800D01*
X287438D01*
X288246Y367135D01*
X288865Y367754D01*
X289200Y368562D01*
Y369438D01*
X288865Y370246D01*
X288498Y370613D01*
Y371360D01*
X289268D01*
Y379460D01*
X284779D01*
X284572Y379960D01*
X284865Y380254D01*
X285200Y381062D01*
Y381938D01*
X284895Y382675D01*
X285090Y383174D01*
X309199D01*
X318965Y373409D01*
Y367347D01*
X326902D01*
Y375284D01*
X320839D01*
X310685Y385437D01*
X310255Y385725D01*
X309748Y385825D01*
X254049D01*
X240444Y399431D01*
Y413992D01*
X242793D01*
Y404382D01*
X242894Y403875D01*
X243181Y403445D01*
X257563Y389063D01*
X257993Y388775D01*
X258500Y388674D01*
X313542D01*
X319342Y382874D01*
X319235Y382689D01*
X318965Y381680D01*
Y380635D01*
X319235Y379626D01*
X319758Y378721D01*
X320496Y377982D01*
X321401Y377459D01*
X322411Y377189D01*
X323456D01*
X324465Y377459D01*
X325370Y377982D01*
X326109Y378721D01*
X326631Y379626D01*
X326902Y380635D01*
Y381680D01*
X326631Y382689D01*
X326109Y383594D01*
X325370Y384333D01*
X324465Y384856D01*
X323456Y385126D01*
X322411D01*
X321401Y384856D01*
X321216Y384749D01*
X315028Y390937D01*
X314598Y391225D01*
X314090Y391325D01*
X259049D01*
X245444Y404931D01*
Y413992D01*
X247793D01*
Y408882D01*
X247894Y408375D01*
X248181Y407945D01*
X261563Y394563D01*
X261993Y394275D01*
X262500Y394175D01*
X317884D01*
X319342Y392717D01*
X319235Y392532D01*
X318965Y391523D01*
Y390477D01*
X319235Y389468D01*
X319758Y388563D01*
X320496Y387824D01*
X321401Y387302D01*
X322411Y387032D01*
X323456D01*
X324465Y387302D01*
X325370Y387824D01*
X326109Y388563D01*
X326631Y389468D01*
X326902Y390477D01*
Y391523D01*
X326631Y392532D01*
X326109Y393437D01*
X325370Y394176D01*
X324465Y394698D01*
X323456Y394969D01*
X322411D01*
X321401Y394698D01*
X321216Y394591D01*
X319370Y396437D01*
X318940Y396725D01*
X318433Y396826D01*
X263049D01*
X250444Y409431D01*
Y413992D01*
X252793D01*
Y412882D01*
X252893Y412375D01*
X253181Y411945D01*
X265220Y399905D01*
X265650Y399618D01*
X266158Y399517D01*
X319180D01*
X319235Y399311D01*
X319758Y398406D01*
X320496Y397667D01*
X321401Y397145D01*
X322411Y396874D01*
X323456D01*
X324465Y397145D01*
X325370Y397667D01*
X326109Y398406D01*
X326631Y399311D01*
X326902Y400320D01*
Y401365D01*
X326631Y402374D01*
X326109Y403279D01*
X325370Y404018D01*
X324465Y404541D01*
X323456Y404811D01*
X322411D01*
X321401Y404541D01*
X320496Y404018D01*
X319758Y403279D01*
X319235Y402374D01*
X319180Y402168D01*
X285371D01*
X285037Y402668D01*
X285200Y403062D01*
Y403938D01*
X284865Y404746D01*
X284246Y405365D01*
X283438Y405700D01*
X282562D01*
X281754Y405365D01*
X281214Y404825D01*
X270549D01*
X261844Y413530D01*
X262036Y413992D01*
X271890D01*
Y421622D01*
X271890Y421898D01*
X272297Y422122D01*
X277992D01*
Y423568D01*
X296669D01*
X297177Y423669D01*
X297606Y423956D01*
X318465Y444814D01*
X318965Y444607D01*
Y437347D01*
X326902D01*
Y445284D01*
X319641D01*
X319434Y445784D01*
X321216Y447566D01*
X321401Y447459D01*
X322411Y447189D01*
X323456D01*
X324465Y447459D01*
X325370Y447982D01*
X326109Y448721D01*
X326631Y449626D01*
X326902Y450635D01*
Y451680D01*
X326631Y452689D01*
X326109Y453594D01*
X325370Y454333D01*
X324465Y454855D01*
X323456Y455126D01*
X322411D01*
X321401Y454855D01*
X320496Y454333D01*
X319758Y453594D01*
X319235Y452689D01*
X318965Y451680D01*
Y450635D01*
X319235Y449626D01*
X319342Y449441D01*
X296120Y426219D01*
X277992D01*
Y432122D01*
Y433674D01*
X278714D01*
X279254Y433135D01*
X280062Y432800D01*
X280938D01*
X281746Y433135D01*
X282365Y433754D01*
X282700Y434562D01*
Y435438D01*
X282365Y436246D01*
X281746Y436865D01*
X280938Y437200D01*
X280062D01*
X279254Y436865D01*
X278714Y436326D01*
X277992D01*
Y438568D01*
X291984D01*
X292492Y438669D01*
X292921Y438956D01*
X321216Y467251D01*
X321401Y467144D01*
X322411Y466874D01*
X323456D01*
X324465Y467144D01*
X325370Y467667D01*
X326109Y468406D01*
X326631Y469311D01*
X326902Y470320D01*
Y471365D01*
X326631Y472374D01*
X326109Y473279D01*
X325370Y474018D01*
X324465Y474541D01*
X323456Y474811D01*
X322411D01*
X321401Y474541D01*
X320496Y474018D01*
X319758Y473279D01*
X319235Y472374D01*
X318965Y471365D01*
Y470320D01*
X319235Y469311D01*
X319342Y469126D01*
X291435Y441219D01*
X277992D01*
Y443568D01*
X278836D01*
Y442619D01*
X286364D01*
Y443474D01*
X287914D01*
X288454Y442935D01*
X289262Y442600D01*
X290138D01*
X290946Y442935D01*
X291565Y443554D01*
X291900Y444362D01*
Y445238D01*
X291565Y446046D01*
X290946Y446665D01*
X290138Y447000D01*
X289262D01*
X288454Y446665D01*
X287914Y446126D01*
X286364D01*
Y446981D01*
X278836D01*
Y446219D01*
X277992D01*
Y448568D01*
X278836D01*
Y448019D01*
X286364D01*
Y448875D01*
X287714D01*
X288254Y448335D01*
X289062Y448000D01*
X289938D01*
X290746Y448335D01*
X291365Y448954D01*
X291700Y449762D01*
Y450638D01*
X291365Y451446D01*
X290746Y452065D01*
X289938Y452400D01*
X289062D01*
X288254Y452065D01*
X287714Y451525D01*
X286364D01*
Y452381D01*
X278836D01*
Y451219D01*
X277992D01*
Y457122D01*
Y462122D01*
Y467122D01*
Y468568D01*
X290000D01*
Y467000D01*
X296000D01*
Y473000D01*
X295887D01*
X295598Y473500D01*
X295796Y473842D01*
X296000Y474605D01*
Y475395D01*
X295796Y476158D01*
X295401Y476842D01*
X294842Y477401D01*
X294158Y477796D01*
X293395Y478000D01*
X292605D01*
X291842Y477796D01*
X291158Y477401D01*
X290599Y476842D01*
X290301Y476326D01*
X277992D01*
Y482665D01*
X272297D01*
X271890Y482890D01*
X271890Y483165D01*
Y490795D01*
X270325D01*
Y493214D01*
X270865Y493754D01*
X271200Y494562D01*
Y495438D01*
X270865Y496246D01*
X270246Y496865D01*
X269438Y497200D01*
X268562D01*
X267754Y496865D01*
X267135Y496246D01*
X266800Y495438D01*
Y494562D01*
X267135Y493754D01*
X267674Y493214D01*
Y490795D01*
X265425D01*
Y635936D01*
X266281D01*
Y639338D01*
Y643464D01*
X265425D01*
Y662551D01*
X268007Y665133D01*
X268570Y664988D01*
X268804Y664423D01*
X269423Y663804D01*
X269918Y663599D01*
X270035Y663010D01*
X268826Y661800D01*
X268062D01*
X267254Y661465D01*
X266635Y660846D01*
X266300Y660038D01*
Y659162D01*
X266635Y658354D01*
X267254Y657735D01*
X267967Y657440D01*
X268268Y657093D01*
X268327Y657003D01*
X268300Y656938D01*
Y656062D01*
X268635Y655254D01*
X269254Y654635D01*
X269382Y654582D01*
X269480Y654091D01*
X269235Y653846D01*
X268900Y653038D01*
Y652162D01*
X269235Y651354D01*
X269420Y651168D01*
X269409Y650520D01*
X269035Y650146D01*
X268700Y649338D01*
Y648462D01*
X269035Y647654D01*
X269654Y647035D01*
X270462Y646700D01*
X271118D01*
X271325Y646200D01*
X271063Y645937D01*
X270775Y645507D01*
X270674Y645000D01*
Y642866D01*
Y551000D01*
X270775Y550493D01*
X271063Y550063D01*
X271795Y549331D01*
Y543360D01*
X276395D01*
Y551460D01*
X273414D01*
X273325Y551549D01*
Y568623D01*
X273826Y568672D01*
X273928Y568158D01*
X274404Y567009D01*
X275095Y565974D01*
X275974Y565095D01*
X277009Y564404D01*
X278158Y563928D01*
X279378Y563685D01*
X280622D01*
X281842Y563928D01*
X282991Y564404D01*
X284026Y565095D01*
X284905Y565974D01*
X285596Y567009D01*
X286072Y568158D01*
X286315Y569378D01*
Y570622D01*
X286072Y571842D01*
X285596Y572991D01*
X284905Y574026D01*
X284026Y574905D01*
X282991Y575596D01*
X281842Y576072D01*
X280622Y576315D01*
X279378D01*
X278158Y576072D01*
X277009Y575596D01*
X275974Y574905D01*
X275095Y574026D01*
X274404Y572991D01*
X273928Y571842D01*
X273826Y571328D01*
X273325Y571377D01*
Y635513D01*
X273528Y635929D01*
X273826Y635929D01*
X278284D01*
Y640154D01*
X278284Y640291D01*
Y640654D01*
X278284Y640791D01*
Y645016D01*
X278284Y645016D01*
Y645378D01*
X278284D01*
X278284Y645516D01*
Y651135D01*
X278764Y651361D01*
X280675Y649451D01*
Y646786D01*
X280135Y646246D01*
X279800Y645438D01*
Y644562D01*
X280135Y643754D01*
X280754Y643135D01*
X281562Y642800D01*
X282438D01*
X283246Y643135D01*
X283865Y643754D01*
X284200Y644562D01*
Y645438D01*
X283865Y646246D01*
X283326Y646786D01*
Y650000D01*
X283225Y650507D01*
X282937Y650937D01*
X279937Y653937D01*
X279507Y654225D01*
X279000Y654325D01*
X278284D01*
Y656470D01*
X279838D01*
X280135Y655754D01*
X280754Y655135D01*
X281562Y654800D01*
X282438D01*
X283246Y655135D01*
X283865Y655754D01*
X284200Y656562D01*
Y657438D01*
X283865Y658246D01*
X283246Y658865D01*
X282438Y659200D01*
X281562D01*
X281317Y659098D01*
X281205Y659121D01*
X278451D01*
X278284Y659551D01*
X278284Y659551D01*
X278284D01*
X278284Y659551D01*
Y662701D01*
Y667063D01*
X278284D01*
Y667425D01*
X278284D01*
Y669068D01*
X279800D01*
Y668562D01*
X280135Y667754D01*
X280754Y667135D01*
X281562Y666800D01*
X282438D01*
X283246Y667135D01*
X283865Y667754D01*
X284200Y668562D01*
Y669438D01*
X283865Y670246D01*
X283246Y670865D01*
X282438Y671200D01*
X281675D01*
X281544Y671331D01*
X281114Y671618D01*
X280606Y671719D01*
X278284D01*
Y674937D01*
X278284D01*
Y675299D01*
X278284D01*
Y676874D01*
Y681098D01*
X278284Y681236D01*
X278284D01*
Y681598D01*
X278284D01*
Y685823D01*
X278284Y685961D01*
Y686323D01*
X278284Y686461D01*
Y692122D01*
X278284Y692260D01*
Y692622D01*
X278284Y692760D01*
Y694100D01*
X278676Y694178D01*
X279172Y694509D01*
X280082Y695419D01*
X280413Y695915D01*
X280529Y696500D01*
Y698500D01*
X280529Y698500D01*
Y698875D01*
X280580Y699017D01*
X280964Y699351D01*
X284119D01*
X284171Y699341D01*
X285580D01*
Y695412D01*
X285653Y695044D01*
Y691185D01*
X285653Y691047D01*
Y690685D01*
X285653Y690547D01*
Y686461D01*
X285653Y686323D01*
Y685961D01*
X285653Y685823D01*
Y681736D01*
X285653Y681598D01*
Y681236D01*
X285653Y681098D01*
Y677012D01*
X285653Y676874D01*
Y676512D01*
X285653Y676374D01*
Y673724D01*
Y669138D01*
X285653Y669000D01*
Y668638D01*
X285653Y668500D01*
Y665850D01*
Y661264D01*
X285653Y661126D01*
Y660764D01*
X285653Y660626D01*
Y657976D01*
Y653390D01*
X285653Y653252D01*
Y652890D01*
X285653Y652752D01*
Y650102D01*
Y645516D01*
X285653Y645378D01*
Y645016D01*
X285653Y644878D01*
Y640791D01*
X285653Y640654D01*
Y640291D01*
X285653Y640154D01*
Y635929D01*
X290409D01*
Y640154D01*
X290409Y640291D01*
Y640654D01*
X290409Y640791D01*
Y644878D01*
X290409Y645016D01*
Y645378D01*
X290409Y645516D01*
Y648009D01*
X290909Y648216D01*
X292674Y646451D01*
Y563549D01*
X281031Y551906D01*
X280744Y551476D01*
X280741Y551460D01*
X279668D01*
Y543360D01*
X288206D01*
Y544861D01*
X312410D01*
X313386Y545055D01*
X314213Y545608D01*
X344605Y576000D01*
X345527D01*
X346544Y576273D01*
X347456Y576799D01*
X348201Y577544D01*
X348727Y578456D01*
X349000Y579473D01*
Y580527D01*
X348727Y581544D01*
X348201Y582456D01*
X347456Y583201D01*
X346544Y583727D01*
X345527Y584000D01*
X344473D01*
X343456Y583727D01*
X342544Y583201D01*
X341799Y582456D01*
X341273Y581544D01*
X341000Y580527D01*
Y579605D01*
X311354Y549959D01*
X288206D01*
Y551460D01*
X284988D01*
X284797Y551922D01*
X294937Y562063D01*
X295225Y562493D01*
X295325Y563000D01*
Y645947D01*
X295787Y646138D01*
X297674Y644251D01*
Y593756D01*
X296819D01*
Y589630D01*
Y586244D01*
X297674D01*
Y582051D01*
X296622D01*
Y577689D01*
X301378D01*
Y582051D01*
X300325D01*
Y586244D01*
X301181D01*
Y589630D01*
Y593756D01*
X300325D01*
Y644800D01*
X300225Y645307D01*
X299937Y645737D01*
X293241Y652433D01*
X292811Y652721D01*
X292304Y652821D01*
X292307Y653320D01*
X339805D01*
X341386Y651740D01*
X341273Y651544D01*
X341000Y650527D01*
Y649473D01*
X341273Y648456D01*
X341799Y647544D01*
X342544Y646799D01*
X343456Y646273D01*
X344473Y646000D01*
X345527D01*
X346544Y646273D01*
X347456Y646799D01*
X348201Y647544D01*
X348727Y648456D01*
X349000Y649473D01*
Y650527D01*
X348727Y651544D01*
X348201Y652456D01*
X347456Y653201D01*
X346544Y653727D01*
X345527Y654000D01*
X344473D01*
X343456Y653727D01*
X343260Y653614D01*
X341374Y655500D01*
X342626Y656752D01*
X343456Y656273D01*
X344473Y656000D01*
X345527D01*
X346544Y656273D01*
X347456Y656799D01*
X348201Y657544D01*
X348727Y658456D01*
X349000Y659473D01*
Y660527D01*
X348727Y661544D01*
X348201Y662456D01*
X347456Y663201D01*
X346544Y663727D01*
X345527Y664000D01*
X344473D01*
X343456Y663727D01*
X342544Y663201D01*
X341799Y662456D01*
X341273Y661544D01*
X341000Y660527D01*
Y659473D01*
X341127Y659001D01*
X339671Y657546D01*
X335074D01*
X334882Y658008D01*
X343260Y666386D01*
X343456Y666273D01*
X344473Y666000D01*
X345527D01*
X346544Y666273D01*
X347456Y666799D01*
X348201Y667544D01*
X348727Y668456D01*
X349000Y669473D01*
Y670527D01*
X348727Y671544D01*
X348201Y672456D01*
X347456Y673201D01*
X346544Y673727D01*
X345527Y674000D01*
X344473D01*
X343456Y673727D01*
X342544Y673201D01*
X341799Y672456D01*
X341273Y671544D01*
X341000Y670527D01*
Y669473D01*
X341273Y668456D01*
X341386Y668260D01*
X332246Y659121D01*
X326648D01*
X326457Y659583D01*
X343260Y676386D01*
X343456Y676273D01*
X344473Y676000D01*
X345527D01*
X346544Y676273D01*
X347456Y676799D01*
X348201Y677544D01*
X348727Y678456D01*
X349000Y679473D01*
Y680527D01*
X348727Y681544D01*
X348201Y682456D01*
X347456Y683201D01*
X346544Y683727D01*
X345527Y684000D01*
X344473D01*
X343456Y683727D01*
X342544Y683201D01*
X341799Y682456D01*
X341273Y681544D01*
X341000Y680527D01*
Y679473D01*
X341273Y678456D01*
X341386Y678260D01*
X323821Y660696D01*
X290577D01*
X290409Y661126D01*
X290409Y661264D01*
Y662769D01*
X319094D01*
X319602Y662870D01*
X320032Y663157D01*
X343260Y686386D01*
X343456Y686273D01*
X344473Y686000D01*
X345527D01*
X346544Y686273D01*
X347456Y686799D01*
X348201Y687544D01*
X348727Y688456D01*
X349000Y689473D01*
Y690527D01*
X348727Y691544D01*
X348201Y692456D01*
X347456Y693201D01*
X346544Y693727D01*
X345527Y694000D01*
X344473D01*
X343456Y693727D01*
X342544Y693201D01*
X341799Y692456D01*
X341273Y691544D01*
X341000Y690527D01*
Y689473D01*
X341273Y688456D01*
X341386Y688260D01*
X318546Y665420D01*
X312247D01*
X312244Y665919D01*
X312751Y666019D01*
X313181Y666307D01*
X343260Y696386D01*
X343456Y696273D01*
X344473Y696000D01*
X345527D01*
X346544Y696273D01*
X347456Y696799D01*
X348201Y697544D01*
X348727Y698456D01*
X349000Y699473D01*
Y700527D01*
X348727Y701544D01*
X348201Y702456D01*
X347456Y703201D01*
X346544Y703727D01*
X345527Y704000D01*
X344473D01*
X343456Y703727D01*
X342544Y703201D01*
X341799Y702456D01*
X341273Y701544D01*
X341000Y700527D01*
Y699473D01*
X341273Y698456D01*
X341386Y698260D01*
X311695Y668570D01*
X306397D01*
X306394Y669068D01*
X306901Y669169D01*
X307331Y669456D01*
X344001Y706127D01*
X344473Y706000D01*
X345527D01*
X346544Y706273D01*
X347456Y706799D01*
X348201Y707544D01*
X348727Y708456D01*
X349000Y709473D01*
Y710527D01*
X348727Y711544D01*
X348201Y712456D01*
X347456Y713201D01*
X346544Y713727D01*
X345527Y714000D01*
X344473D01*
X343456Y713727D01*
X342544Y713201D01*
X341799Y712456D01*
X341273Y711544D01*
X341000Y710527D01*
Y709473D01*
X341273Y708456D01*
X341752Y707626D01*
X305845Y671719D01*
X305247D01*
X305056Y672181D01*
X337937Y705063D01*
X338225Y705493D01*
X338326Y706000D01*
Y713451D01*
X342109Y717234D01*
X342544Y716799D01*
X343456Y716273D01*
X344473Y716000D01*
X345527D01*
X346544Y716273D01*
X347456Y716799D01*
X348201Y717544D01*
X348727Y718456D01*
X349000Y719473D01*
Y720527D01*
X348727Y721544D01*
X348201Y722456D01*
X347456Y723201D01*
X346544Y723727D01*
X345527Y724000D01*
X344473D01*
X343456Y723727D01*
X342544Y723201D01*
X341799Y722456D01*
X341273Y721544D01*
X341000Y720527D01*
Y719874D01*
X336063Y714937D01*
X335775Y714507D01*
X335675Y714000D01*
Y706549D01*
X302419Y673294D01*
X301822D01*
X301630Y673756D01*
X333937Y706063D01*
X334225Y706493D01*
X334326Y707000D01*
Y718451D01*
X342626Y726752D01*
X343456Y726273D01*
X344473Y726000D01*
X345527D01*
X346544Y726273D01*
X347456Y726799D01*
X348201Y727544D01*
X348727Y728456D01*
X349000Y729473D01*
Y730527D01*
X348727Y731544D01*
X348201Y732456D01*
X347456Y733201D01*
X346544Y733727D01*
X345527Y734000D01*
X344473D01*
X343456Y733727D01*
X342544Y733201D01*
X341799Y732456D01*
X341273Y731544D01*
X341000Y730527D01*
Y729473D01*
X341127Y729001D01*
X332063Y719937D01*
X331775Y719507D01*
X331675Y719000D01*
Y707549D01*
X298994Y674869D01*
X298397D01*
X298205Y675331D01*
X329937Y707063D01*
X330225Y707493D01*
X330326Y708000D01*
Y723451D01*
X343260Y736386D01*
X343456Y736273D01*
X344473Y736000D01*
X345527D01*
X346544Y736273D01*
X347456Y736799D01*
X348201Y737544D01*
X348727Y738456D01*
X349000Y739473D01*
Y740527D01*
X348727Y741544D01*
X348201Y742456D01*
X347456Y743201D01*
X346544Y743727D01*
X345527Y744000D01*
X344473D01*
X343456Y743727D01*
X342544Y743201D01*
X341799Y742456D01*
X341273Y741544D01*
X341000Y740527D01*
Y739473D01*
X341273Y738456D01*
X341386Y738260D01*
X328063Y724937D01*
X327775Y724507D01*
X327675Y724000D01*
Y708549D01*
X295569Y676444D01*
X294271D01*
X294268Y676942D01*
X294775Y677043D01*
X295205Y677330D01*
X325937Y708063D01*
X326225Y708493D01*
X326325Y709000D01*
Y729451D01*
X343260Y746386D01*
X343456Y746273D01*
X344473Y746000D01*
X345527D01*
X346544Y746273D01*
X347456Y746799D01*
X348201Y747544D01*
X348727Y748456D01*
X349000Y749473D01*
Y750527D01*
X348727Y751544D01*
X348201Y752456D01*
X347456Y753201D01*
X346544Y753727D01*
X345527Y754000D01*
D02*
G37*
G36*
X355527Y744000D02*
X354473D01*
X353456Y743727D01*
X352544Y743201D01*
X351799Y742456D01*
X351273Y741544D01*
X351000Y740527D01*
Y739473D01*
X351273Y738456D01*
X351799Y737544D01*
X352544Y736799D01*
X353456Y736273D01*
X354473Y736000D01*
X355527D01*
X356544Y736273D01*
X357456Y736799D01*
X358201Y737544D01*
X358727Y738456D01*
X359000Y739473D01*
Y740527D01*
X358727Y741544D01*
X358201Y742456D01*
X357456Y743201D01*
X356544Y743727D01*
X355527Y744000D01*
D02*
G37*
G36*
Y734000D02*
X354473D01*
X353456Y733727D01*
X352544Y733201D01*
X351799Y732456D01*
X351273Y731544D01*
X351000Y730527D01*
Y729473D01*
X351273Y728456D01*
X351799Y727544D01*
X352544Y726799D01*
X353456Y726273D01*
X354473Y726000D01*
X355527D01*
X356544Y726273D01*
X357456Y726799D01*
X358201Y727544D01*
X358727Y728456D01*
X359000Y729473D01*
Y730527D01*
X358727Y731544D01*
X358201Y732456D01*
X357456Y733201D01*
X356544Y733727D01*
X355527Y734000D01*
D02*
G37*
G36*
X300378Y733311D02*
X295622D01*
Y728949D01*
X296471D01*
Y725756D01*
X295819D01*
Y722759D01*
X295319Y722425D01*
X295138Y722500D01*
X294262D01*
X293454Y722165D01*
X292835Y721546D01*
X292500Y720738D01*
Y719862D01*
X292835Y719054D01*
X293454Y718435D01*
X294262Y718100D01*
X295138D01*
X295691Y718329D01*
X295819Y718244D01*
Y718244D01*
X300181D01*
Y721630D01*
Y725756D01*
X299529D01*
Y728949D01*
X300378D01*
Y733311D01*
D02*
G37*
G36*
X355527Y724000D02*
X354473D01*
X353456Y723727D01*
X352544Y723201D01*
X351799Y722456D01*
X351273Y721544D01*
X351000Y720527D01*
Y719473D01*
X351273Y718456D01*
X351799Y717544D01*
X352544Y716799D01*
X353456Y716273D01*
X354473Y716000D01*
X355527D01*
X356544Y716273D01*
X357456Y716799D01*
X358201Y717544D01*
X358727Y718456D01*
X359000Y719473D01*
Y720527D01*
X358727Y721544D01*
X358201Y722456D01*
X357456Y723201D01*
X356544Y723727D01*
X355527Y724000D01*
D02*
G37*
G36*
X790000Y721020D02*
X746000D01*
X745610Y720942D01*
X745279Y720721D01*
X745058Y720390D01*
X744980Y720000D01*
Y698000D01*
X745058Y697610D01*
X745279Y697279D01*
X745610Y697058D01*
X746000Y696980D01*
X772000D01*
X772390Y697058D01*
X772721Y697279D01*
X772942Y697610D01*
X773020Y698000D01*
Y707971D01*
X784000D01*
X784633Y708033D01*
X790000D01*
X790390Y708111D01*
X790721Y708332D01*
X790942Y708663D01*
X791020Y709053D01*
Y711832D01*
X791297Y711971D01*
X791520Y712004D01*
X792056Y711467D01*
X792778Y711050D01*
X793583Y710835D01*
X794417D01*
X795222Y711050D01*
X795944Y711467D01*
X796533Y712056D01*
X796950Y712778D01*
X797165Y713583D01*
Y714417D01*
X796950Y715222D01*
X796533Y715944D01*
X795944Y716533D01*
X795222Y716950D01*
X794417Y717165D01*
X793583D01*
X792778Y716950D01*
X792056Y716533D01*
X791520Y715996D01*
X791297Y716029D01*
X791020Y716168D01*
Y720000D01*
X790942Y720390D01*
X790721Y720721D01*
X790390Y720942D01*
X790000Y721020D01*
D02*
G37*
G36*
X355527Y714000D02*
X354473D01*
X353456Y713727D01*
X352544Y713201D01*
X351799Y712456D01*
X351273Y711544D01*
X351000Y710527D01*
Y709473D01*
X351273Y708456D01*
X351799Y707544D01*
X352544Y706799D01*
X353456Y706273D01*
X354473Y706000D01*
X355527D01*
X356544Y706273D01*
X357456Y706799D01*
X358201Y707544D01*
X358727Y708456D01*
X359000Y709473D01*
Y710527D01*
X358727Y711544D01*
X358201Y712456D01*
X357456Y713201D01*
X356544Y713727D01*
X355527Y714000D01*
D02*
G37*
G36*
X95500Y742520D02*
X77500D01*
X77110Y742442D01*
X76779Y742221D01*
X76558Y741890D01*
X76480Y741500D01*
Y735000D01*
X76558Y734610D01*
X76779Y734279D01*
X77110Y734058D01*
X77500Y733980D01*
X88480D01*
Y703000D01*
X88558Y702610D01*
X88779Y702279D01*
X89110Y702058D01*
X89500Y701980D01*
X95500D01*
X95890Y702058D01*
X96221Y702279D01*
X96442Y702610D01*
X96520Y703000D01*
Y741500D01*
X96442Y741890D01*
X96292Y742115D01*
Y742200D01*
X96235D01*
X96221Y742221D01*
X95890Y742442D01*
X95500Y742520D01*
D02*
G37*
G36*
X794417Y707165D02*
X793583D01*
X792778Y706950D01*
X792056Y706533D01*
X791467Y705944D01*
X791050Y705222D01*
X790835Y704417D01*
Y703583D01*
X791050Y702778D01*
X791467Y702056D01*
X792056Y701467D01*
X792778Y701050D01*
X793583Y700835D01*
X794417D01*
X795222Y701050D01*
X795944Y701467D01*
X796533Y702056D01*
X796950Y702778D01*
X797165Y703583D01*
Y704417D01*
X796950Y705222D01*
X796533Y705944D01*
X795944Y706533D01*
X795222Y706950D01*
X794417Y707165D01*
D02*
G37*
G36*
X355527Y704000D02*
X354473D01*
X353456Y703727D01*
X352544Y703201D01*
X351799Y702456D01*
X351273Y701544D01*
X351000Y700527D01*
Y699473D01*
X351273Y698456D01*
X351799Y697544D01*
X352544Y696799D01*
X353456Y696273D01*
X354473Y696000D01*
X355527D01*
X356544Y696273D01*
X357456Y696799D01*
X358201Y697544D01*
X358727Y698456D01*
X359000Y699473D01*
Y700527D01*
X358727Y701544D01*
X358201Y702456D01*
X357456Y703201D01*
X356544Y703727D01*
X355527Y704000D01*
D02*
G37*
G36*
Y694000D02*
X354473D01*
X353456Y693727D01*
X352544Y693201D01*
X351799Y692456D01*
X351273Y691544D01*
X351000Y690527D01*
Y689473D01*
X351273Y688456D01*
X351799Y687544D01*
X352544Y686799D01*
X353456Y686273D01*
X354473Y686000D01*
X355527D01*
X356544Y686273D01*
X357456Y686799D01*
X358201Y687544D01*
X358727Y688456D01*
X359000Y689473D01*
Y690527D01*
X358727Y691544D01*
X358201Y692456D01*
X357456Y693201D01*
X356544Y693727D01*
X355527Y694000D01*
D02*
G37*
G36*
Y684000D02*
X354473D01*
X353456Y683727D01*
X352544Y683201D01*
X351799Y682456D01*
X351273Y681544D01*
X351000Y680527D01*
Y679473D01*
X351273Y678456D01*
X351799Y677544D01*
X352544Y676799D01*
X353456Y676273D01*
X354473Y676000D01*
X355527D01*
X356544Y676273D01*
X357456Y676799D01*
X358201Y677544D01*
X358727Y678456D01*
X359000Y679473D01*
Y680527D01*
X358727Y681544D01*
X358201Y682456D01*
X357456Y683201D01*
X356544Y683727D01*
X355527Y684000D01*
D02*
G37*
G36*
X675100Y675450D02*
X667900D01*
Y667550D01*
X675100D01*
Y669971D01*
X676297D01*
X676632Y669635D01*
X677441Y669300D01*
X678316D01*
X679125Y669635D01*
X679744Y670254D01*
X680079Y671062D01*
Y671938D01*
X679744Y672746D01*
X679125Y673365D01*
X678316Y673700D01*
X677441D01*
X676632Y673365D01*
X676297Y673029D01*
X675100D01*
Y675450D01*
D02*
G37*
G36*
X355527Y674000D02*
X354473D01*
X353456Y673727D01*
X352544Y673201D01*
X351799Y672456D01*
X351273Y671544D01*
X351000Y670527D01*
Y669473D01*
X351273Y668456D01*
X351799Y667544D01*
X352544Y666799D01*
X353456Y666273D01*
X354473Y666000D01*
X355527D01*
X356544Y666273D01*
X357456Y666799D01*
X358201Y667544D01*
X358727Y668456D01*
X359000Y669473D01*
Y670527D01*
X358727Y671544D01*
X358201Y672456D01*
X357456Y673201D01*
X356544Y673727D01*
X355527Y674000D01*
D02*
G37*
G36*
X678238Y668200D02*
X677362D01*
X676554Y667865D01*
X675935Y667246D01*
X675600Y666438D01*
Y665963D01*
X674265Y664628D01*
X674242Y664633D01*
X670640D01*
X670023Y664510D01*
X669500Y664160D01*
X669151Y663638D01*
X669028Y663021D01*
Y661860D01*
X669151Y661243D01*
X669500Y660720D01*
X670023Y660370D01*
X670640Y660248D01*
X674242D01*
X674859Y660370D01*
X675382Y660720D01*
X675731Y661243D01*
X675854Y661860D01*
Y661891D01*
X677763Y663800D01*
X678238D01*
X679046Y664135D01*
X679665Y664754D01*
X680000Y665562D01*
Y666438D01*
X679665Y667246D01*
X679046Y667865D01*
X678238Y668200D01*
D02*
G37*
G36*
X649445Y665007D02*
X648569D01*
X647761Y664672D01*
X647142Y664053D01*
X646807Y663245D01*
Y662369D01*
X647142Y661561D01*
X647761Y660942D01*
X648054Y660821D01*
Y660279D01*
X647761Y660158D01*
X647142Y659539D01*
X646807Y658731D01*
Y657855D01*
X647142Y657047D01*
X647761Y656428D01*
X648569Y656093D01*
X649445D01*
X650253Y656428D01*
X650793Y656967D01*
X652519D01*
Y656230D01*
X656881D01*
Y657374D01*
X659354D01*
X659618Y656980D01*
X660141Y656630D01*
X660758Y656508D01*
X664360D01*
X664977Y656630D01*
X665500Y656980D01*
X665849Y657503D01*
X665972Y658119D01*
Y659281D01*
X665849Y659898D01*
X665500Y660420D01*
Y660720D01*
X665849Y661243D01*
X665972Y661860D01*
Y663021D01*
X665849Y663638D01*
X665500Y664160D01*
X664977Y664510D01*
X664360Y664633D01*
X660758D01*
X660141Y664510D01*
X659618Y664160D01*
X659354Y663766D01*
X656881D01*
Y664870D01*
X652519D01*
Y664133D01*
X650793D01*
X650253Y664672D01*
X649445Y665007D01*
D02*
G37*
G36*
X355527Y664000D02*
X354473D01*
X353456Y663727D01*
X352544Y663201D01*
X351799Y662456D01*
X351273Y661544D01*
X351000Y660527D01*
Y659473D01*
X351273Y658456D01*
X351799Y657544D01*
X352544Y656799D01*
X353456Y656273D01*
X354473Y656000D01*
X355527D01*
X356544Y656273D01*
X357456Y656799D01*
X358201Y657544D01*
X358727Y658456D01*
X359000Y659473D01*
Y660527D01*
X358727Y661544D01*
X358201Y662456D01*
X357456Y663201D01*
X356544Y663727D01*
X355527Y664000D01*
D02*
G37*
G36*
X782000Y667020D02*
X712000D01*
X711610Y666942D01*
X711279Y666721D01*
X711058Y666390D01*
X710980Y666000D01*
Y647746D01*
X693758D01*
Y652000D01*
Y657000D01*
X677158D01*
Y656285D01*
X675646D01*
X675382Y656680D01*
X674859Y657029D01*
X674242Y657152D01*
X670640D01*
X670023Y657029D01*
X669500Y656680D01*
X669151Y656157D01*
X669028Y655541D01*
Y654379D01*
X669151Y653762D01*
X669500Y653239D01*
X670023Y652890D01*
X670640Y652768D01*
X674242D01*
X674859Y652890D01*
X675382Y653239D01*
X675646Y653634D01*
X677158D01*
Y651029D01*
X675849D01*
Y651681D01*
X668337D01*
Y651029D01*
X665603D01*
X665268Y651365D01*
X664459Y651700D01*
X663584D01*
X662775Y651365D01*
X662156Y650746D01*
X661821Y649938D01*
Y649062D01*
X662156Y648254D01*
X662775Y647635D01*
X663584Y647300D01*
X664459D01*
X665268Y647635D01*
X665603Y647971D01*
X668337D01*
Y647319D01*
X675849D01*
Y647971D01*
X677158D01*
Y647156D01*
X677132Y647116D01*
X677054Y646726D01*
Y642028D01*
X677132Y641638D01*
X677158Y641599D01*
Y641029D01*
X672740D01*
X672155Y640913D01*
X671659Y640581D01*
X667548Y636471D01*
X663183D01*
Y635179D01*
X660950D01*
Y637250D01*
X653050D01*
Y630050D01*
X660950D01*
Y632121D01*
X663183D01*
Y630849D01*
X670616D01*
Y635214D01*
X670957Y635554D01*
X671419Y635363D01*
Y632437D01*
X675781D01*
Y632971D01*
X677158D01*
Y631540D01*
X677058Y631390D01*
X676980Y631000D01*
Y625000D01*
X677058Y624610D01*
X677279Y624279D01*
X677610Y624058D01*
X678000Y623980D01*
X688578D01*
X705279Y607279D01*
X705610Y607058D01*
X706000Y606980D01*
X711012D01*
X711118Y606480D01*
X711058Y606390D01*
X710980Y606000D01*
Y589530D01*
X693745D01*
Y593500D01*
Y598500D01*
X677145D01*
Y597885D01*
X675546D01*
X675282Y598280D01*
X674759Y598630D01*
X674142Y598752D01*
X670540D01*
X669923Y598630D01*
X669400Y598280D01*
X669051Y597757D01*
X668928Y597141D01*
Y595979D01*
X669051Y595362D01*
X669400Y594839D01*
X669923Y594490D01*
X670540Y594368D01*
X674142D01*
X674759Y594490D01*
X675282Y594839D01*
X675546Y595234D01*
X677145D01*
Y592529D01*
X675756D01*
Y593181D01*
X668244D01*
Y592529D01*
X665510D01*
X665174Y592865D01*
X664366Y593200D01*
X663491D01*
X662682Y592865D01*
X662063Y592246D01*
X661728Y591438D01*
Y590562D01*
X662063Y589754D01*
X662682Y589135D01*
X663491Y588800D01*
X664366D01*
X665174Y589135D01*
X665510Y589471D01*
X668244D01*
Y588819D01*
X675756D01*
Y589471D01*
X676988D01*
X677112Y588971D01*
X677058Y588890D01*
X676980Y588500D01*
Y583802D01*
X677058Y583412D01*
X677145Y583282D01*
Y582529D01*
X672840D01*
X672255Y582413D01*
X671759Y582081D01*
X667648Y577971D01*
X663283D01*
Y576679D01*
X661350D01*
Y578750D01*
X653450D01*
Y571550D01*
X661350D01*
Y573621D01*
X663283D01*
Y572349D01*
X670716D01*
Y576371D01*
X670819Y576439D01*
X671319Y576172D01*
Y573937D01*
X675681D01*
Y574471D01*
X677145D01*
Y573520D01*
X677058Y573390D01*
X676980Y573000D01*
Y569000D01*
X677058Y568610D01*
X677279Y568279D01*
X677610Y568058D01*
X678000Y567980D01*
X680980D01*
Y561634D01*
X680679Y560905D01*
X680507Y559600D01*
X680679Y558295D01*
X680980Y557566D01*
Y520000D01*
X681058Y519610D01*
X681279Y519279D01*
X681610Y519058D01*
X682000Y518980D01*
X719000D01*
X719390Y519058D01*
X719721Y519279D01*
X719942Y519610D01*
X720020Y520000D01*
Y542000D01*
X719942Y542390D01*
X719721Y542721D01*
X719390Y542942D01*
X719000Y543020D01*
X714179D01*
X714000Y543043D01*
X711399D01*
X696020Y558422D01*
Y573000D01*
X695942Y573390D01*
X695721Y573721D01*
X695390Y573942D01*
X695000Y574020D01*
X693745D01*
Y578500D01*
Y582470D01*
X710980D01*
Y566000D01*
X711058Y565610D01*
X711137Y565492D01*
Y564800D01*
X745637D01*
Y564980D01*
X782000D01*
X782390Y565058D01*
X782721Y565279D01*
X782942Y565610D01*
X783020Y566000D01*
Y593776D01*
X783224D01*
Y597702D01*
X783413Y598324D01*
X783529Y599500D01*
X783413Y600676D01*
X783224Y601299D01*
Y605224D01*
X783020D01*
Y606000D01*
X782942Y606390D01*
X782721Y606721D01*
X782390Y606942D01*
X782000Y607020D01*
X756149D01*
X755882Y607520D01*
X755942Y607610D01*
X756020Y608000D01*
Y622000D01*
X755942Y622390D01*
X755882Y622480D01*
X756149Y622980D01*
X782000D01*
X782390Y623058D01*
X782721Y623279D01*
X782942Y623610D01*
X783020Y624000D01*
Y627098D01*
X783070Y627193D01*
X783413Y628324D01*
X783529Y629500D01*
X783413Y630676D01*
X783070Y631807D01*
X783020Y631902D01*
Y666000D01*
X782942Y666390D01*
X782721Y666721D01*
X782390Y666942D01*
X782000Y667020D01*
D02*
G37*
G36*
X355527Y654000D02*
X354473D01*
X353456Y653727D01*
X352544Y653201D01*
X351799Y652456D01*
X351273Y651544D01*
X351000Y650527D01*
Y649473D01*
X351273Y648456D01*
X351799Y647544D01*
X352544Y646799D01*
X353456Y646273D01*
X354473Y646000D01*
X355527D01*
X356544Y646273D01*
X357456Y646799D01*
X358201Y647544D01*
X358727Y648456D01*
X359000Y649473D01*
Y650527D01*
X358727Y651544D01*
X358201Y652456D01*
X357456Y653201D01*
X356544Y653727D01*
X355527Y654000D01*
D02*
G37*
G36*
X156551Y714307D02*
X151795D01*
Y711657D01*
X151795Y711520D01*
Y711158D01*
X151795Y711020D01*
Y706933D01*
X151795Y706795D01*
Y706433D01*
X151795Y706295D01*
Y702209D01*
X151795Y702071D01*
Y701709D01*
X151795Y701571D01*
Y697484D01*
X151795Y697346D01*
Y696984D01*
X151795Y696846D01*
Y692760D01*
X151795Y692622D01*
Y692260D01*
X151795Y692122D01*
Y688035D01*
X151795Y687898D01*
Y687535D01*
X151795Y687398D01*
Y683311D01*
X151795Y683173D01*
Y682811D01*
X151795Y682673D01*
Y678587D01*
X151795Y678449D01*
Y678087D01*
X151795Y677949D01*
Y673724D01*
Y669000D01*
Y664413D01*
X151795Y664276D01*
Y663913D01*
X151795Y663776D01*
Y659689D01*
X151795Y659551D01*
Y659189D01*
X151795Y659051D01*
Y654965D01*
X151795Y654827D01*
Y654465D01*
X151795Y654327D01*
Y650240D01*
X151795Y650102D01*
Y649740D01*
X151795Y649602D01*
Y645516D01*
X151795Y645378D01*
Y645016D01*
X151795Y644878D01*
Y640791D01*
X151795Y640654D01*
Y640291D01*
X151795Y640154D01*
Y637504D01*
Y634354D01*
X153692D01*
X159800Y628247D01*
Y627484D01*
X160135Y626675D01*
X160754Y626056D01*
X161562Y625721D01*
X162438D01*
X163246Y626056D01*
X163865Y626675D01*
X164200Y627484D01*
Y628359D01*
X163865Y629168D01*
X163246Y629786D01*
X162438Y630121D01*
X161674D01*
X156551Y635245D01*
Y635996D01*
X171546D01*
X173270Y634272D01*
Y627131D01*
X170869Y624730D01*
X132429D01*
X115519Y641640D01*
X115089Y641927D01*
X114581Y642029D01*
X102804D01*
X102789Y642102D01*
X102546Y642465D01*
X102183Y642708D01*
X101754Y642793D01*
X101409D01*
X100527Y643675D01*
X100520Y643683D01*
X100698Y644217D01*
X100935Y644254D01*
X101254Y643935D01*
X102062Y643600D01*
X102938D01*
X103746Y643935D01*
X104365Y644554D01*
X104700Y645362D01*
Y646238D01*
X104365Y647046D01*
X103746Y647665D01*
X102938Y648000D01*
X102062D01*
X101254Y647665D01*
X100681Y647092D01*
X100466Y647121D01*
X100181Y647246D01*
Y647409D01*
X95819D01*
Y647046D01*
X95221D01*
X94713Y646945D01*
X94283Y646658D01*
X93872Y646247D01*
X88748D01*
Y651630D01*
X82221D01*
Y651488D01*
X81449D01*
X80668Y651333D01*
X80007Y650891D01*
X75558Y646442D01*
X75116Y645780D01*
X74961Y645000D01*
Y634500D01*
X75116Y633720D01*
X75558Y633058D01*
X79507Y629109D01*
X79507Y629109D01*
X80168Y628667D01*
X80949Y628512D01*
X82221D01*
Y628370D01*
X88748D01*
Y628370D01*
X89230Y628328D01*
X97254Y620304D01*
Y618391D01*
X97199Y618118D01*
Y616882D01*
X97254Y616609D01*
Y612391D01*
X97199Y612118D01*
Y610882D01*
X97254Y610609D01*
Y605567D01*
X97240Y605500D01*
Y588221D01*
X97280Y588019D01*
Y585700D01*
X97358Y585310D01*
X97579Y584979D01*
X114279Y568279D01*
X114610Y568058D01*
X115000Y567980D01*
X120102D01*
X120391Y567480D01*
X120204Y567158D01*
X120000Y566395D01*
Y565605D01*
X120204Y564842D01*
X120599Y564158D01*
X121158Y563599D01*
X121842Y563204D01*
X122605Y563000D01*
X123395D01*
X124158Y563204D01*
X124842Y563599D01*
X125401Y564158D01*
X125796Y564842D01*
X126000Y565605D01*
Y566395D01*
X125796Y567158D01*
X125609Y567480D01*
X125898Y567980D01*
X126000D01*
X126390Y568058D01*
X126721Y568279D01*
X126942Y568610D01*
X127020Y569000D01*
Y573000D01*
X126942Y573390D01*
X126721Y573721D01*
X126390Y573942D01*
X126000Y574020D01*
X117922D01*
X103420Y588522D01*
Y621600D01*
X103342Y621990D01*
X103121Y622321D01*
X94142Y631300D01*
X94316Y631833D01*
X94580Y631886D01*
X95010Y632173D01*
X95319Y632482D01*
X95819Y632291D01*
Y632291D01*
X100181D01*
Y632654D01*
X100735D01*
X101254Y632135D01*
X102062Y631800D01*
X102938D01*
X103746Y632135D01*
X104365Y632754D01*
X104700Y633562D01*
Y634438D01*
X104365Y635246D01*
X103746Y635865D01*
X102938Y636200D01*
X102062D01*
X101254Y635865D01*
X100919Y635531D01*
X100862Y635512D01*
X100321Y635613D01*
X100222Y635805D01*
X100315Y636113D01*
X101409Y637207D01*
X101754D01*
X102183Y637292D01*
X102546Y637535D01*
X102789Y637898D01*
X102804Y637971D01*
X113450D01*
X130360Y621062D01*
X130791Y620774D01*
X131298Y620673D01*
X172000D01*
X172508Y620774D01*
X172938Y621062D01*
X176938Y625062D01*
X177226Y625492D01*
X177327Y626000D01*
Y635403D01*
X177226Y635911D01*
X176938Y636341D01*
X173444Y639836D01*
X173013Y640124D01*
X172505Y640225D01*
X156723D01*
X156551Y640654D01*
X156551Y640791D01*
Y644878D01*
X156551Y645016D01*
Y645378D01*
X156551Y645516D01*
Y649602D01*
X156551Y649740D01*
Y650102D01*
X156551Y650240D01*
Y654327D01*
X156551Y654465D01*
Y654827D01*
X156551Y654965D01*
Y659051D01*
X156551Y659189D01*
Y659551D01*
X156551Y659689D01*
Y663776D01*
X156551Y663913D01*
Y664276D01*
X156551Y664413D01*
Y669000D01*
Y673724D01*
Y677949D01*
X156551Y678087D01*
Y678449D01*
X156551Y678587D01*
Y682673D01*
X156551Y682811D01*
Y683173D01*
X156551Y683311D01*
Y687398D01*
X156551Y687535D01*
Y687898D01*
X156551Y688035D01*
Y692122D01*
X156551Y692260D01*
Y692622D01*
X156551Y692760D01*
Y696846D01*
X156551Y696984D01*
Y697346D01*
X156551Y697484D01*
Y701571D01*
X156551Y701709D01*
Y702071D01*
X156551Y702209D01*
Y706295D01*
X156551Y706433D01*
Y706795D01*
X156551Y706933D01*
Y711020D01*
X156551Y711158D01*
Y711520D01*
X156551Y711657D01*
Y714307D01*
D02*
G37*
G36*
X355527Y644000D02*
X354473D01*
X353456Y643727D01*
X352544Y643201D01*
X351799Y642456D01*
X351273Y641544D01*
X351000Y640527D01*
Y639473D01*
X351273Y638456D01*
X351799Y637544D01*
X352544Y636799D01*
X353456Y636273D01*
X354473Y636000D01*
X355527D01*
X356544Y636273D01*
X357456Y636799D01*
X358201Y637544D01*
X358727Y638456D01*
X359000Y639473D01*
Y640527D01*
X358727Y641544D01*
X358201Y642456D01*
X357456Y643201D01*
X356544Y643727D01*
X355527Y644000D01*
D02*
G37*
G36*
X345527D02*
X344473D01*
X343456Y643727D01*
X342544Y643201D01*
X341799Y642456D01*
X341273Y641544D01*
X341000Y640527D01*
Y639473D01*
X341273Y638456D01*
X341799Y637544D01*
X342544Y636799D01*
X343456Y636273D01*
X344473Y636000D01*
X345527D01*
X346544Y636273D01*
X347456Y636799D01*
X348201Y637544D01*
X348727Y638456D01*
X349000Y639473D01*
Y640527D01*
X348727Y641544D01*
X348201Y642456D01*
X347456Y643201D01*
X346544Y643727D01*
X345527Y644000D01*
D02*
G37*
G36*
X144425Y714307D02*
X139669D01*
Y711657D01*
X139669Y711520D01*
Y711158D01*
X139669Y711020D01*
Y706933D01*
X139669Y706795D01*
Y706433D01*
X139669Y706295D01*
Y702209D01*
X139669Y702071D01*
Y701709D01*
X139669Y701571D01*
Y697484D01*
X139669Y697346D01*
Y696984D01*
X139669Y696846D01*
Y692760D01*
X139669Y692622D01*
Y692260D01*
X139669Y692122D01*
Y688035D01*
X139669Y687898D01*
Y687535D01*
X139669Y687398D01*
Y683311D01*
X139669Y683173D01*
Y682811D01*
X139669Y682673D01*
Y678587D01*
X139669Y678449D01*
Y678087D01*
X139669Y677949D01*
Y673862D01*
X139669Y673724D01*
Y673362D01*
X139669Y673224D01*
Y669138D01*
X139669Y669000D01*
Y668638D01*
X139669Y668500D01*
Y664413D01*
X139669Y664276D01*
Y663913D01*
X139669Y663776D01*
Y659689D01*
X139669Y659551D01*
Y659189D01*
X139669Y659051D01*
Y654965D01*
X139669Y654827D01*
Y654465D01*
X139669Y654327D01*
Y650240D01*
X139669Y650102D01*
Y649740D01*
X139669Y649602D01*
Y645516D01*
X139669Y645378D01*
Y645016D01*
X139669Y644878D01*
Y640791D01*
X139669Y640654D01*
Y640291D01*
X139669Y640154D01*
Y637504D01*
Y634354D01*
X144425D01*
Y635929D01*
Y640154D01*
X144425Y640291D01*
Y640654D01*
X144425Y640791D01*
Y644878D01*
X144425Y645016D01*
Y645378D01*
X144425Y645516D01*
Y649602D01*
X144425Y649740D01*
Y650102D01*
X144425Y650240D01*
Y654327D01*
X144425Y654465D01*
Y654827D01*
X144425Y654965D01*
Y659051D01*
X144425Y659189D01*
Y659551D01*
X144425Y659689D01*
Y663776D01*
X144425Y663913D01*
Y664276D01*
X144425Y664413D01*
Y668500D01*
X144425Y668638D01*
Y669000D01*
X144425Y669138D01*
Y673224D01*
X144425Y673362D01*
Y673724D01*
X144425Y673862D01*
Y677949D01*
X144425Y678087D01*
Y678449D01*
X144425Y678587D01*
Y682673D01*
X144425Y682811D01*
Y683173D01*
X144425Y683311D01*
Y687398D01*
X144425Y687535D01*
Y687898D01*
X144425Y688035D01*
Y692122D01*
X144425Y692260D01*
Y692622D01*
X144425Y692760D01*
Y696846D01*
X144425Y696984D01*
Y697346D01*
X144425Y697484D01*
Y701571D01*
X144425Y701709D01*
Y702071D01*
X144425Y702209D01*
Y706295D01*
X144425Y706433D01*
Y706795D01*
X144425Y706933D01*
Y711020D01*
X144425Y711158D01*
Y711520D01*
X144425Y711657D01*
Y714307D01*
D02*
G37*
G36*
X355527Y634000D02*
X354473D01*
X353456Y633727D01*
X352544Y633201D01*
X351799Y632456D01*
X351273Y631544D01*
X351000Y630527D01*
Y629473D01*
X351273Y628456D01*
X351799Y627544D01*
X352544Y626799D01*
X353456Y626273D01*
X354473Y626000D01*
X355527D01*
X356544Y626273D01*
X357456Y626799D01*
X358201Y627544D01*
X358727Y628456D01*
X359000Y629473D01*
Y630527D01*
X358727Y631544D01*
X358201Y632456D01*
X357456Y633201D01*
X356544Y633727D01*
X355527Y634000D01*
D02*
G37*
G36*
X345527D02*
X344473D01*
X343456Y633727D01*
X342544Y633201D01*
X341799Y632456D01*
X341273Y631544D01*
X341000Y630527D01*
Y629473D01*
X341273Y628456D01*
X341799Y627544D01*
X342544Y626799D01*
X343456Y626273D01*
X344473Y626000D01*
X345527D01*
X346544Y626273D01*
X347456Y626799D01*
X348201Y627544D01*
X348727Y628456D01*
X349000Y629473D01*
Y630527D01*
X348727Y631544D01*
X348201Y632456D01*
X347456Y633201D01*
X346544Y633727D01*
X345527Y634000D01*
D02*
G37*
G36*
X355527Y624000D02*
X354473D01*
X353456Y623727D01*
X352544Y623201D01*
X351799Y622456D01*
X351273Y621544D01*
X351000Y620527D01*
Y619473D01*
X351273Y618456D01*
X351799Y617544D01*
X352544Y616799D01*
X353456Y616273D01*
X354473Y616000D01*
X355527D01*
X356544Y616273D01*
X357456Y616799D01*
X358201Y617544D01*
X358727Y618456D01*
X359000Y619473D01*
Y620527D01*
X358727Y621544D01*
X358201Y622456D01*
X357456Y623201D01*
X356544Y623727D01*
X355527Y624000D01*
D02*
G37*
G36*
X345527D02*
X344473D01*
X343456Y623727D01*
X342544Y623201D01*
X341799Y622456D01*
X341273Y621544D01*
X341000Y620527D01*
Y619473D01*
X341273Y618456D01*
X341799Y617544D01*
X342544Y616799D01*
X343456Y616273D01*
X344473Y616000D01*
X345527D01*
X346544Y616273D01*
X347456Y616799D01*
X348201Y617544D01*
X348727Y618456D01*
X349000Y619473D01*
Y620527D01*
X348727Y621544D01*
X348201Y622456D01*
X347456Y623201D01*
X346544Y623727D01*
X345527Y624000D01*
D02*
G37*
G36*
X674950Y617050D02*
X667750D01*
Y609150D01*
X674950D01*
Y611571D01*
X676147D01*
X676482Y611235D01*
X677291Y610900D01*
X678166D01*
X678975Y611235D01*
X679594Y611854D01*
X679929Y612662D01*
Y613538D01*
X679594Y614346D01*
X678975Y614965D01*
X678166Y615300D01*
X677291D01*
X676482Y614965D01*
X676147Y614629D01*
X674950D01*
Y617050D01*
D02*
G37*
G36*
X678138Y609500D02*
X677262D01*
X676454Y609165D01*
X675835Y608546D01*
X675500Y607738D01*
Y607263D01*
X674415Y606178D01*
X674142Y606233D01*
X670540D01*
X669923Y606110D01*
X669400Y605760D01*
X669051Y605238D01*
X668928Y604621D01*
Y603460D01*
X669051Y602843D01*
X669400Y602320D01*
X669923Y601970D01*
X670540Y601848D01*
X674142D01*
X674759Y601970D01*
X675282Y602320D01*
X675631Y602843D01*
X675687Y603124D01*
X677663Y605100D01*
X678138D01*
X678946Y605435D01*
X679565Y606054D01*
X679900Y606862D01*
Y607738D01*
X679565Y608546D01*
X678946Y609165D01*
X678138Y609500D01*
D02*
G37*
G36*
X355527Y614000D02*
X354473D01*
X353456Y613727D01*
X352544Y613201D01*
X351799Y612456D01*
X351273Y611544D01*
X351000Y610527D01*
Y609473D01*
X351273Y608456D01*
X351799Y607544D01*
X352544Y606799D01*
X353456Y606273D01*
X354473Y606000D01*
X355527D01*
X356544Y606273D01*
X357456Y606799D01*
X358201Y607544D01*
X358727Y608456D01*
X359000Y609473D01*
Y610527D01*
X358727Y611544D01*
X358201Y612456D01*
X357456Y613201D01*
X356544Y613727D01*
X355527Y614000D01*
D02*
G37*
G36*
X345527D02*
X344473D01*
X343456Y613727D01*
X342544Y613201D01*
X341799Y612456D01*
X341273Y611544D01*
X341000Y610527D01*
Y609473D01*
X341273Y608456D01*
X341799Y607544D01*
X342544Y606799D01*
X343456Y606273D01*
X344473Y606000D01*
X345527D01*
X346544Y606273D01*
X347456Y606799D01*
X348201Y607544D01*
X348727Y608456D01*
X349000Y609473D01*
Y610527D01*
X348727Y611544D01*
X348201Y612456D01*
X347456Y613201D01*
X346544Y613727D01*
X345527Y614000D01*
D02*
G37*
G36*
X647438Y612200D02*
X646562D01*
X645754Y611865D01*
X645135Y611246D01*
X644800Y610438D01*
Y609562D01*
X645135Y608754D01*
X645754Y608135D01*
X646562Y607800D01*
X647326D01*
X652056Y603070D01*
X652419Y602827D01*
Y601944D01*
X652419D01*
X652512Y601444D01*
X652120Y601182D01*
X651770Y600659D01*
X651648Y600042D01*
Y596440D01*
X651770Y595823D01*
X652120Y595300D01*
X652643Y594951D01*
X653260Y594828D01*
X654421D01*
X655038Y594951D01*
X655560Y595300D01*
X655910Y595823D01*
X656033Y596440D01*
Y596915D01*
X656441D01*
X656948Y597016D01*
X657378Y597304D01*
X658827Y598753D01*
X659436Y598702D01*
X659518Y598580D01*
X660041Y598230D01*
X660658Y598108D01*
X664260D01*
X664877Y598230D01*
X665400Y598580D01*
X665749Y599102D01*
X665872Y599719D01*
Y600881D01*
X665749Y601498D01*
X665400Y602020D01*
Y602320D01*
X665749Y602843D01*
X665872Y603460D01*
Y604621D01*
X665749Y605238D01*
X665400Y605760D01*
X664877Y606110D01*
X664260Y606233D01*
X660658D01*
X660041Y606110D01*
X659518Y605760D01*
X659232Y605333D01*
X656781D01*
Y606070D01*
X652804D01*
X649200Y609675D01*
Y610438D01*
X648865Y611246D01*
X648246Y611865D01*
X647438Y612200D01*
D02*
G37*
G36*
X355527Y604000D02*
X354473D01*
X353456Y603727D01*
X352544Y603201D01*
X351799Y602456D01*
X351273Y601544D01*
X351000Y600527D01*
Y599473D01*
X351273Y598456D01*
X351799Y597544D01*
X352544Y596799D01*
X353456Y596273D01*
X354473Y596000D01*
X355527D01*
X356544Y596273D01*
X357456Y596799D01*
X358201Y597544D01*
X358727Y598456D01*
X359000Y599473D01*
Y600527D01*
X358727Y601544D01*
X358201Y602456D01*
X357456Y603201D01*
X356544Y603727D01*
X355527Y604000D01*
D02*
G37*
G36*
X345527D02*
X344473D01*
X343456Y603727D01*
X342544Y603201D01*
X341799Y602456D01*
X341273Y601544D01*
X341000Y600527D01*
Y599473D01*
X341273Y598456D01*
X341799Y597544D01*
X342544Y596799D01*
X343456Y596273D01*
X344473Y596000D01*
X345527D01*
X346544Y596273D01*
X347456Y596799D01*
X348201Y597544D01*
X348727Y598456D01*
X349000Y599473D01*
Y600527D01*
X348727Y601544D01*
X348201Y602456D01*
X347456Y603201D01*
X346544Y603727D01*
X345527Y604000D01*
D02*
G37*
G36*
X646838Y605800D02*
X645962D01*
X645154Y605465D01*
X644535Y604846D01*
X644200Y604038D01*
Y603162D01*
X644535Y602354D01*
X644831Y602058D01*
Y601309D01*
X644639Y601182D01*
X644290Y600659D01*
X644168Y600042D01*
Y596440D01*
X644290Y595823D01*
X644639Y595300D01*
X645162Y594951D01*
X645779Y594828D01*
X646941D01*
X647557Y594951D01*
X648080Y595300D01*
X648429Y595823D01*
X648552Y596440D01*
Y600042D01*
X648429Y600659D01*
X648080Y601182D01*
X647889Y601309D01*
Y601978D01*
X648265Y602354D01*
X648600Y603162D01*
Y604038D01*
X648265Y604846D01*
X647646Y605465D01*
X646838Y605800D01*
D02*
G37*
G36*
X637838Y605829D02*
X636962D01*
X636154Y605494D01*
X635535Y604875D01*
X635200Y604066D01*
Y603191D01*
X635535Y602383D01*
X635871Y602047D01*
Y600850D01*
X633450D01*
Y593650D01*
X641350D01*
Y600850D01*
X638929D01*
Y602047D01*
X639265Y602383D01*
X639600Y603191D01*
Y604066D01*
X639265Y604875D01*
X638646Y605494D01*
X637838Y605829D01*
D02*
G37*
G36*
X650681Y591772D02*
X649519D01*
X648903Y591649D01*
X648380Y591300D01*
X648080D01*
X647557Y591649D01*
X646941Y591772D01*
X645779D01*
X645162Y591649D01*
X644639Y591300D01*
X644290Y590777D01*
X644168Y590160D01*
Y586558D01*
X644290Y585941D01*
X644639Y585418D01*
X645162Y585069D01*
X645779Y584946D01*
X646941D01*
X647557Y585069D01*
X648080Y585418D01*
X648380D01*
X648884Y585081D01*
X648892Y585043D01*
X648786Y584581D01*
X648251D01*
Y580219D01*
X648989D01*
Y578863D01*
X648325Y578200D01*
X647562D01*
X646754Y577865D01*
X646135Y577246D01*
X645800Y576438D01*
Y575562D01*
X646135Y574754D01*
X646754Y574135D01*
X647562Y573800D01*
X648438D01*
X649246Y574135D01*
X649865Y574754D01*
X650200Y575562D01*
Y576326D01*
X651251Y577377D01*
X651539Y577807D01*
X651640Y578314D01*
Y580219D01*
X652377D01*
Y584581D01*
X651640D01*
Y585297D01*
X651820Y585418D01*
X652170Y585941D01*
X652292Y586558D01*
Y590160D01*
X652170Y590777D01*
X651820Y591300D01*
X651298Y591649D01*
X650681Y591772D01*
D02*
G37*
G36*
X355527Y594000D02*
X354473D01*
X353456Y593727D01*
X352544Y593201D01*
X351799Y592456D01*
X351273Y591544D01*
X351000Y590527D01*
Y589473D01*
X351273Y588456D01*
X351799Y587544D01*
X352544Y586799D01*
X353456Y586273D01*
X354473Y586000D01*
X355527D01*
X356544Y586273D01*
X357456Y586799D01*
X358201Y587544D01*
X358727Y588456D01*
X359000Y589473D01*
Y590527D01*
X358727Y591544D01*
X358201Y592456D01*
X357456Y593201D01*
X356544Y593727D01*
X355527Y594000D01*
D02*
G37*
G36*
X345527D02*
X344473D01*
X343456Y593727D01*
X342544Y593201D01*
X341799Y592456D01*
X341273Y591544D01*
X341000Y590527D01*
Y589473D01*
X341273Y588456D01*
X341799Y587544D01*
X342544Y586799D01*
X343456Y586273D01*
X344473Y586000D01*
X345527D01*
X346544Y586273D01*
X347456Y586799D01*
X348201Y587544D01*
X348727Y588456D01*
X349000Y589473D01*
Y590527D01*
X348727Y591544D01*
X348201Y592456D01*
X347456Y593201D01*
X346544Y593727D01*
X345527Y594000D01*
D02*
G37*
G36*
X355527Y584000D02*
X354473D01*
X353456Y583727D01*
X352544Y583201D01*
X351799Y582456D01*
X351273Y581544D01*
X351000Y580527D01*
Y579473D01*
X351273Y578456D01*
X351799Y577544D01*
X352544Y576799D01*
X353456Y576273D01*
X354473Y576000D01*
X355527D01*
X356544Y576273D01*
X357456Y576799D01*
X358201Y577544D01*
X358727Y578456D01*
X359000Y579473D01*
Y580527D01*
X358727Y581544D01*
X358201Y582456D01*
X357456Y583201D01*
X356544Y583727D01*
X355527Y584000D01*
D02*
G37*
G36*
X150701Y576315D02*
X149457D01*
X148237Y576072D01*
X147088Y575596D01*
X146053Y574905D01*
X145174Y574026D01*
X144483Y572991D01*
X144007Y571842D01*
X143764Y570622D01*
Y569378D01*
X144007Y568158D01*
X144483Y567009D01*
X145174Y565974D01*
X146053Y565095D01*
X147088Y564404D01*
X148237Y563928D01*
X149457Y563685D01*
X150701D01*
X151921Y563928D01*
X153070Y564404D01*
X154104Y565095D01*
X154984Y565974D01*
X155675Y567009D01*
X156151Y568158D01*
X156394Y569378D01*
Y570622D01*
X156151Y571842D01*
X155675Y572991D01*
X154984Y574026D01*
X154104Y574905D01*
X153070Y575596D01*
X151921Y576072D01*
X150701Y576315D01*
D02*
G37*
G36*
X162438Y555200D02*
X161562D01*
X160754Y554865D01*
X160135Y554246D01*
X159800Y553438D01*
Y552706D01*
X154946Y547852D01*
X154395Y548000D01*
X153605D01*
X152842Y547796D01*
X152158Y547401D01*
X151599Y546842D01*
X151204Y546158D01*
X151000Y545395D01*
Y544605D01*
X151204Y543842D01*
X151599Y543158D01*
X152158Y542599D01*
X152842Y542204D01*
X153605Y542000D01*
X154395D01*
X155158Y542204D01*
X155842Y542599D01*
X156401Y543158D01*
X156796Y543842D01*
X157000Y544605D01*
Y545395D01*
X156839Y545996D01*
X161643Y550800D01*
X162438D01*
X163246Y551135D01*
X163865Y551754D01*
X164200Y552562D01*
Y553438D01*
X163865Y554246D01*
X163246Y554865D01*
X162438Y555200D01*
D02*
G37*
G36*
X324421Y505878D02*
X316319D01*
Y504825D01*
X315286D01*
X314746Y505365D01*
X313938Y505700D01*
X313062D01*
X312254Y505365D01*
X311635Y504746D01*
X311300Y503938D01*
Y503062D01*
X311635Y502254D01*
X312254Y501635D01*
X313062Y501300D01*
X313938D01*
X314746Y501635D01*
X315286Y502175D01*
X316319D01*
Y501122D01*
X324421D01*
Y501971D01*
X327936D01*
Y501319D01*
X331871D01*
Y497483D01*
X331635Y497246D01*
X331300Y496438D01*
Y495562D01*
X331635Y494754D01*
X332254Y494135D01*
X333062Y493800D01*
X333938D01*
X334746Y494135D01*
X335365Y494754D01*
X335700Y495562D01*
Y496438D01*
X335365Y497246D01*
X334930Y497681D01*
Y501319D01*
X335464D01*
Y505681D01*
X327936D01*
Y505029D01*
X324421D01*
Y505878D01*
D02*
G37*
G36*
X675050Y510750D02*
X667850D01*
Y502850D01*
X675050D01*
Y505271D01*
X676247D01*
X676582Y504935D01*
X677391Y504600D01*
X678266D01*
X679075Y504935D01*
X679694Y505554D01*
X680029Y506362D01*
Y507238D01*
X679694Y508046D01*
X679075Y508665D01*
X678266Y509000D01*
X677391D01*
X676582Y508665D01*
X676247Y508329D01*
X675050D01*
Y510750D01*
D02*
G37*
G36*
X678338Y503700D02*
X677462D01*
X676654Y503365D01*
X676035Y502746D01*
X675700Y501938D01*
Y501463D01*
X673970Y499732D01*
X670640D01*
X670023Y499610D01*
X669500Y499261D01*
X669151Y498738D01*
X669028Y498121D01*
Y496959D01*
X669151Y496343D01*
X669500Y495820D01*
X670023Y495471D01*
X670640Y495348D01*
X674242D01*
X674859Y495471D01*
X675382Y495820D01*
X675731Y496343D01*
X675854Y496959D01*
Y497291D01*
X677863Y499300D01*
X678338D01*
X679146Y499635D01*
X679765Y500254D01*
X680100Y501062D01*
Y501938D01*
X679765Y502746D01*
X679146Y503365D01*
X678338Y503700D01*
D02*
G37*
G36*
X649245Y500000D02*
X648370D01*
X647561Y499665D01*
X646942Y499046D01*
X646607Y498238D01*
Y497362D01*
X646942Y496554D01*
X647561Y495935D01*
X647975Y495763D01*
Y495222D01*
X647561Y495051D01*
X646942Y494432D01*
X646607Y493623D01*
Y492748D01*
X646942Y491940D01*
X647561Y491321D01*
X648370Y490986D01*
X649245D01*
X650053Y491321D01*
X650593Y491860D01*
X652319D01*
Y491123D01*
X656681D01*
Y492525D01*
X659320D01*
X659618Y492080D01*
X660141Y491730D01*
X660758Y491608D01*
X664360D01*
X664977Y491730D01*
X665500Y492080D01*
X665849Y492602D01*
X665972Y493219D01*
Y494381D01*
X665849Y494998D01*
X665500Y495520D01*
Y495820D01*
X665849Y496343D01*
X665972Y496959D01*
Y498121D01*
X665849Y498738D01*
X665500Y499261D01*
X664977Y499610D01*
X664360Y499732D01*
X660758D01*
X660141Y499610D01*
X659618Y499261D01*
X659320Y498815D01*
X656681D01*
Y499863D01*
X652319D01*
Y499125D01*
X650593D01*
X650053Y499665D01*
X649245Y500000D01*
D02*
G37*
G36*
X169300Y527012D02*
X168300D01*
X167690Y526890D01*
X167173Y526545D01*
X166828Y526028D01*
X166706Y525418D01*
Y524182D01*
X166828Y523572D01*
X167173Y523055D01*
X167690Y522710D01*
X168300Y522588D01*
X169300D01*
X169910Y522710D01*
X170427Y523055D01*
X170707Y523475D01*
X172151D01*
X173313Y522312D01*
X173122Y521850D01*
X172441D01*
Y513748D01*
X174674D01*
Y490551D01*
X172441D01*
Y482449D01*
X174417D01*
Y474668D01*
X174197D01*
X173368Y474503D01*
X172664Y474033D01*
X172194Y473330D01*
X172029Y472500D01*
X172194Y471670D01*
X172664Y470967D01*
X173368Y470497D01*
X174197Y470332D01*
X177288D01*
X178117Y470497D01*
X178821Y470967D01*
X179290Y471670D01*
X179455Y472500D01*
X179290Y473330D01*
X178821Y474033D01*
X178117Y474503D01*
X177288Y474668D01*
X177068D01*
Y482449D01*
X179559D01*
Y484474D01*
X187319D01*
Y483736D01*
X191681D01*
Y487138D01*
Y491264D01*
X190825D01*
Y493714D01*
X191365Y494254D01*
X191700Y495062D01*
Y495938D01*
X191365Y496746D01*
X190746Y497365D01*
X189938Y497700D01*
X189062D01*
X188254Y497365D01*
X187635Y496746D01*
X187300Y495938D01*
Y495062D01*
X187635Y494254D01*
X188174Y493714D01*
Y491264D01*
X187319D01*
Y487125D01*
X179559D01*
Y490551D01*
X177325D01*
Y513748D01*
X179559D01*
Y521850D01*
X177256D01*
X177225Y522007D01*
X176937Y522437D01*
X173637Y525737D01*
X173207Y526025D01*
X172700Y526125D01*
X170707D01*
X170427Y526545D01*
X169910Y526890D01*
X169300Y527012D01*
D02*
G37*
G36*
X323456Y464968D02*
X322411D01*
X321401Y464698D01*
X320496Y464176D01*
X319758Y463437D01*
X319235Y462532D01*
X318965Y461522D01*
Y460477D01*
X319235Y459468D01*
X319758Y458563D01*
X320496Y457824D01*
X321401Y457302D01*
X322411Y457031D01*
X323456D01*
X324465Y457302D01*
X325370Y457824D01*
X326109Y458563D01*
X326631Y459468D01*
X326902Y460477D01*
Y461522D01*
X326631Y462532D01*
X326109Y463437D01*
X325370Y464176D01*
X324465Y464698D01*
X323456Y464968D01*
D02*
G37*
G36*
X171929Y450866D02*
X164586D01*
Y446614D01*
X166432D01*
X166639Y446114D01*
X165552Y445026D01*
X162681D01*
Y445764D01*
X158319D01*
Y441638D01*
Y438236D01*
X158472D01*
X158663Y437774D01*
X158635Y437746D01*
X158300Y436938D01*
Y436062D01*
X158635Y435254D01*
X159254Y434635D01*
X160062Y434300D01*
X160938D01*
X161746Y434635D01*
X162365Y435254D01*
X162700Y436062D01*
Y436938D01*
X162365Y437746D01*
X162337Y437774D01*
X162528Y438236D01*
X162681D01*
Y442375D01*
X164345D01*
X164667Y441875D01*
X164544Y441260D01*
X164709Y440430D01*
X165180Y439727D01*
X165883Y439257D01*
X166712Y439092D01*
X166774D01*
X166981Y438592D01*
X166635Y438246D01*
X166300Y437438D01*
Y436562D01*
X166635Y435754D01*
X167254Y435135D01*
X168062Y434800D01*
X168938D01*
X169746Y435135D01*
X170365Y435754D01*
X170700Y436562D01*
Y437438D01*
X170365Y438246D01*
X169992Y438620D01*
X170134Y439158D01*
X170633Y439257D01*
X171336Y439727D01*
X171806Y440430D01*
X171971Y441260D01*
X171806Y442090D01*
X171336Y442793D01*
X170633Y443263D01*
X169803Y443428D01*
X168356D01*
X168164Y443890D01*
X169195Y444920D01*
X169482Y445350D01*
X169583Y445858D01*
Y446614D01*
X171929D01*
Y450866D01*
D02*
G37*
G36*
X675050Y450950D02*
X667850D01*
Y443050D01*
X675050D01*
Y445471D01*
X676247D01*
X676582Y445135D01*
X677391Y444800D01*
X678266D01*
X679075Y445135D01*
X679694Y445754D01*
X680029Y446562D01*
Y447438D01*
X679694Y448246D01*
X679075Y448865D01*
X678266Y449200D01*
X677391D01*
X676582Y448865D01*
X676247Y448529D01*
X675050D01*
Y450950D01*
D02*
G37*
G36*
X678338Y444000D02*
X677462D01*
X676654Y443665D01*
X676035Y443046D01*
X675700Y442238D01*
Y441763D01*
X674348Y440411D01*
X674242Y440433D01*
X670640D01*
X670023Y440310D01*
X669500Y439960D01*
X669151Y439438D01*
X669028Y438821D01*
Y437660D01*
X669151Y437043D01*
X669500Y436520D01*
X670023Y436170D01*
X670640Y436048D01*
X674242D01*
X674859Y436170D01*
X675382Y436520D01*
X675731Y437043D01*
X675837Y437574D01*
X677863Y439600D01*
X678338D01*
X679146Y439935D01*
X679765Y440554D01*
X680100Y441362D01*
Y442238D01*
X679765Y443046D01*
X679146Y443665D01*
X678338Y444000D01*
D02*
G37*
G36*
X649893Y444019D02*
X649017D01*
X648209Y443684D01*
X647590Y443065D01*
X647255Y442256D01*
Y441381D01*
X647590Y440572D01*
X648209Y439953D01*
X649017Y439618D01*
X649780D01*
X652029Y437370D01*
X652319Y437176D01*
Y436244D01*
X652559D01*
X652608Y435744D01*
X652543Y435731D01*
X652020Y435382D01*
X651671Y434859D01*
X651548Y434242D01*
Y430640D01*
X651671Y430023D01*
X652020Y429500D01*
X652543Y429151D01*
X653160Y429028D01*
X654321D01*
X654938Y429151D01*
X655461Y429500D01*
X655810Y430023D01*
X655933Y430640D01*
Y431115D01*
X656641D01*
X657148Y431216D01*
X657578Y431504D01*
X658983Y432909D01*
X659562Y432864D01*
X659618Y432780D01*
X660141Y432430D01*
X660758Y432308D01*
X664360D01*
X664977Y432430D01*
X665500Y432780D01*
X665849Y433302D01*
X665972Y433919D01*
Y435081D01*
X665849Y435698D01*
X665500Y436220D01*
Y436520D01*
X665849Y437043D01*
X665972Y437660D01*
Y438821D01*
X665849Y439438D01*
X665500Y439960D01*
X664977Y440310D01*
X664360Y440433D01*
X660758D01*
X660141Y440310D01*
X659618Y439960D01*
X659399Y439633D01*
X656681D01*
Y440370D01*
X652778D01*
X651655Y441493D01*
Y442256D01*
X651320Y443065D01*
X650701Y443684D01*
X649893Y444019D01*
D02*
G37*
G36*
X646738Y439800D02*
X645862D01*
X645054Y439465D01*
X644435Y438846D01*
X644100Y438038D01*
Y437162D01*
X644435Y436354D01*
X644731Y436058D01*
Y435509D01*
X644539Y435382D01*
X644190Y434859D01*
X644067Y434242D01*
Y430640D01*
X644190Y430023D01*
X644539Y429500D01*
X645062Y429151D01*
X645679Y429028D01*
X646840D01*
X647457Y429151D01*
X647980Y429500D01*
X648329Y430023D01*
X648452Y430640D01*
Y434242D01*
X648329Y434859D01*
X647980Y435382D01*
X647818Y435490D01*
X647791Y435980D01*
X648165Y436354D01*
X648500Y437162D01*
Y438038D01*
X648165Y438846D01*
X647546Y439465D01*
X646738Y439800D01*
D02*
G37*
G36*
X637438D02*
X636562D01*
X635754Y439465D01*
X635135Y438846D01*
X634800Y438038D01*
Y437162D01*
X635135Y436354D01*
X635471Y436018D01*
Y435050D01*
X633050D01*
Y427850D01*
X640950D01*
Y435050D01*
X638529D01*
Y436018D01*
X638865Y436354D01*
X639200Y437162D01*
Y438038D01*
X638865Y438846D01*
X638246Y439465D01*
X637438Y439800D01*
D02*
G37*
G36*
X650581Y425972D02*
X649419D01*
X648803Y425849D01*
X648280Y425500D01*
X647980D01*
X647457Y425849D01*
X646840Y425972D01*
X645679D01*
X645062Y425849D01*
X644539Y425500D01*
X644190Y424977D01*
X644067Y424360D01*
Y420758D01*
X644190Y420141D01*
X644539Y419618D01*
X645062Y419269D01*
X645679Y419146D01*
X646840D01*
X647457Y419269D01*
X647980Y419618D01*
X648488Y419479D01*
X648789Y419278D01*
Y418181D01*
X648051D01*
Y413819D01*
X648054D01*
X648232Y413319D01*
X647914Y412552D01*
Y411677D01*
X648249Y410868D01*
X648868Y410249D01*
X649677Y409914D01*
X650552D01*
X651360Y410249D01*
X651979Y410868D01*
X652314Y411677D01*
Y412552D01*
X651996Y413319D01*
X652174Y413819D01*
X652177D01*
Y418181D01*
X651440D01*
Y419431D01*
X651720Y419618D01*
X652070Y420141D01*
X652192Y420758D01*
Y424360D01*
X652070Y424977D01*
X651720Y425500D01*
X651197Y425849D01*
X650581Y425972D01*
D02*
G37*
G36*
X196118Y418401D02*
X194882D01*
X194272Y418279D01*
X193755Y417934D01*
X193410Y417417D01*
X193288Y416807D01*
Y415807D01*
X193410Y415198D01*
X193755Y414680D01*
X193971Y414536D01*
Y411510D01*
X193635Y411174D01*
X193300Y410366D01*
Y409491D01*
X193635Y408682D01*
X194254Y408063D01*
X195062Y407728D01*
X195938D01*
X196746Y408063D01*
X197365Y408682D01*
X197700Y409491D01*
Y410366D01*
X197365Y411174D01*
X197029Y411510D01*
Y414536D01*
X197245Y414680D01*
X197590Y415198D01*
X197712Y415807D01*
Y416807D01*
X197590Y417417D01*
X197245Y417934D01*
X196728Y418279D01*
X196118Y418401D01*
D02*
G37*
G36*
X191118D02*
X189882D01*
X189272Y418279D01*
X188755Y417934D01*
X188410Y417417D01*
X188288Y416807D01*
Y415807D01*
X188410Y415198D01*
X188755Y414680D01*
X188971Y414536D01*
Y411510D01*
X188635Y411174D01*
X188300Y410366D01*
Y409491D01*
X188635Y408682D01*
X189254Y408063D01*
X190062Y407728D01*
X190938D01*
X191746Y408063D01*
X192365Y408682D01*
X192700Y409491D01*
Y410366D01*
X192365Y411174D01*
X192029Y411510D01*
Y414536D01*
X192245Y414680D01*
X192590Y415198D01*
X192712Y415807D01*
Y416807D01*
X192590Y417417D01*
X192245Y417934D01*
X191728Y418279D01*
X191118Y418401D01*
D02*
G37*
G36*
X248438Y383700D02*
X247562D01*
X246754Y383365D01*
X246327Y382938D01*
X246000Y382802D01*
X245673Y382938D01*
X245246Y383365D01*
X244438Y383700D01*
X243562D01*
X242754Y383365D01*
X242135Y382746D01*
X241800Y381938D01*
Y381062D01*
X242135Y380254D01*
X242428Y379960D01*
X242221Y379460D01*
X241794D01*
Y371360D01*
X250439D01*
Y370550D01*
X250135Y370246D01*
X249800Y369438D01*
Y368562D01*
X250135Y367754D01*
X250754Y367135D01*
X251562Y366800D01*
X252438D01*
X253246Y367135D01*
X253865Y367754D01*
X254200Y368562D01*
Y369438D01*
X253865Y370246D01*
X253498Y370613D01*
Y371360D01*
X254269D01*
Y379460D01*
X249779D01*
X249571Y379960D01*
X249865Y380254D01*
X250200Y381062D01*
Y381938D01*
X249865Y382746D01*
X249246Y383365D01*
X248438Y383700D01*
D02*
G37*
G36*
X412800Y367020D02*
X402500D01*
X402110Y366942D01*
X401779Y366721D01*
X401558Y366390D01*
X401480Y366000D01*
Y347000D01*
X401558Y346610D01*
X401779Y346279D01*
X402110Y346058D01*
X402500Y345980D01*
X412800D01*
X413190Y346058D01*
X413521Y346279D01*
X413727Y346587D01*
X413883Y346692D01*
X414147Y347087D01*
X414240Y347553D01*
Y354053D01*
X414147Y354519D01*
X413883Y354915D01*
X413856Y354933D01*
Y359000D01*
Y364000D01*
X413686Y364855D01*
X413691Y364880D01*
X413742Y364956D01*
X413762Y365055D01*
X413800Y365148D01*
Y365248D01*
X413820Y365347D01*
Y366000D01*
X413742Y366390D01*
X413521Y366721D01*
X413190Y366942D01*
X412800Y367020D01*
D02*
G37*
G36*
X323681Y350378D02*
X319319D01*
Y345622D01*
X323681D01*
Y346674D01*
X327937D01*
Y345819D01*
X331501D01*
X331708Y345319D01*
X331635Y345246D01*
X331300Y344438D01*
Y343562D01*
X331635Y342754D01*
X332254Y342135D01*
X333062Y341800D01*
X333938D01*
X334746Y342135D01*
X335365Y342754D01*
X335700Y343562D01*
Y344438D01*
X335365Y345246D01*
X335292Y345319D01*
X335465Y345819D01*
X335465D01*
Y350181D01*
X327937D01*
Y349325D01*
X323681D01*
Y350378D01*
D02*
G37*
G36*
X675550Y341950D02*
X668350D01*
Y334050D01*
X675550D01*
Y336471D01*
X677031D01*
X677462Y336292D01*
X678338D01*
X679146Y336627D01*
X679765Y337245D01*
X680100Y338054D01*
Y338929D01*
X679765Y339738D01*
X679146Y340357D01*
X678338Y340692D01*
X677462D01*
X676654Y340357D01*
X676050Y339753D01*
X675969Y339756D01*
X675550Y339874D01*
Y341950D01*
D02*
G37*
G36*
X678338Y334600D02*
X677462D01*
X676654Y334265D01*
X676035Y333646D01*
X675700Y332838D01*
Y331962D01*
X675817Y331680D01*
X675412Y331275D01*
X675359Y331310D01*
X674742Y331433D01*
X671140D01*
X670523Y331310D01*
X670000Y330960D01*
X669651Y330438D01*
X669528Y329821D01*
Y328660D01*
X669651Y328043D01*
X670000Y327520D01*
X670523Y327170D01*
X671140Y327048D01*
X674742D01*
X675359Y327170D01*
X675882Y327520D01*
X676081Y327818D01*
X676125Y327827D01*
X676622Y328159D01*
X678893Y330430D01*
X679146Y330535D01*
X679765Y331154D01*
X680100Y331962D01*
Y332838D01*
X679765Y333646D01*
X679146Y334265D01*
X678338Y334600D01*
D02*
G37*
G36*
X649745Y331507D02*
X648870D01*
X648061Y331172D01*
X647442Y330553D01*
X647107Y329745D01*
Y328870D01*
X647442Y328061D01*
X648003Y327500D01*
X647442Y326939D01*
X647107Y326131D01*
Y325255D01*
X647442Y324447D01*
X648061Y323828D01*
X648870Y323493D01*
X649745D01*
X650553Y323828D01*
X651093Y324367D01*
X652819D01*
Y323630D01*
X657181D01*
Y324174D01*
X659854D01*
X660118Y323780D01*
X660641Y323430D01*
X661258Y323308D01*
X664860D01*
X665477Y323430D01*
X666000Y323780D01*
X666349Y324303D01*
X666472Y324919D01*
Y326081D01*
X666349Y326697D01*
X666000Y327220D01*
Y327520D01*
X666349Y328043D01*
X666472Y328660D01*
Y329821D01*
X666349Y330438D01*
X666000Y330960D01*
X665477Y331310D01*
X664860Y331433D01*
X661258D01*
X660641Y331310D01*
X660118Y330960D01*
X659899Y330633D01*
X657181D01*
Y331370D01*
X652819D01*
Y330633D01*
X651093D01*
X650553Y331172D01*
X649745Y331507D01*
D02*
G37*
G36*
X277000Y295520D02*
X273000D01*
X272610Y295442D01*
X272279Y295221D01*
X272058Y294890D01*
X271980Y294500D01*
Y288850D01*
X260197D01*
Y282520D01*
X272433D01*
Y284321D01*
X273629D01*
X273999Y284073D01*
X274516Y283971D01*
X275441D01*
X275958Y284073D01*
X276308Y284308D01*
X281971D01*
X282511Y283768D01*
X283319Y283433D01*
X284195D01*
X285003Y283768D01*
X285622Y284387D01*
X285957Y285195D01*
Y286071D01*
X285622Y286879D01*
X285003Y287498D01*
X284195Y287833D01*
X283319D01*
X282511Y287498D01*
X281971Y286959D01*
X278397D01*
X278011Y287458D01*
X278020Y287500D01*
Y294500D01*
X277942Y294890D01*
X277721Y295221D01*
X277390Y295442D01*
X277000Y295520D01*
D02*
G37*
G36*
X675050Y283950D02*
X667850D01*
Y276050D01*
X675050D01*
Y278471D01*
X676310D01*
X676614Y278166D01*
X677423Y277832D01*
X678298D01*
X679106Y278166D01*
X679725Y278785D01*
X680060Y279594D01*
Y280469D01*
X679725Y281278D01*
X679106Y281897D01*
X678298Y282231D01*
X677423D01*
X676614Y281897D01*
X676247Y281529D01*
X675050D01*
Y283950D01*
D02*
G37*
G36*
X272433Y280976D02*
X260197D01*
Y274646D01*
X272433D01*
Y276486D01*
X282025D01*
X282565Y275946D01*
X283373Y275611D01*
X284249D01*
X285057Y275946D01*
X285597Y276486D01*
X297425D01*
X297965Y275946D01*
X298773Y275611D01*
X299649D01*
X300457Y275946D01*
X301076Y276565D01*
X301411Y277373D01*
Y278249D01*
X301076Y279057D01*
X300457Y279676D01*
X299649Y280011D01*
X298773D01*
X297965Y279676D01*
X297425Y279136D01*
X285597D01*
X285057Y279676D01*
X284249Y280011D01*
X283373D01*
X282565Y279676D01*
X282025Y279136D01*
X272433D01*
Y280976D01*
D02*
G37*
G36*
X180000Y287020D02*
X172000D01*
X171610Y286942D01*
X171279Y286721D01*
X171058Y286390D01*
X170980Y286000D01*
Y276356D01*
X171058Y275966D01*
X171279Y275635D01*
X171610Y275414D01*
X172000Y275337D01*
X175765D01*
X176201Y275250D01*
X178761D01*
X178886Y275063D01*
X179396Y274723D01*
X179997Y274603D01*
X184741D01*
X185343Y274723D01*
X185853Y275063D01*
X185977Y275250D01*
X186978D01*
Y274863D01*
X192797D01*
Y275148D01*
X195981D01*
X196000Y275144D01*
X199567D01*
Y274646D01*
X211803D01*
Y275337D01*
X212000D01*
X212390Y275414D01*
X212721Y275635D01*
X212942Y275966D01*
X213020Y276356D01*
Y282000D01*
X212942Y282390D01*
X212721Y282721D01*
X212390Y282942D01*
X212000Y283020D01*
X181020D01*
Y286000D01*
X180942Y286390D01*
X180721Y286721D01*
X180390Y286942D01*
X180000Y287020D01*
D02*
G37*
G36*
X678338Y276400D02*
X677462D01*
X676654Y276065D01*
X676035Y275446D01*
X675700Y274638D01*
Y273762D01*
X675846Y273409D01*
X675111Y272674D01*
X674818Y272870D01*
X674201Y272992D01*
X670599D01*
X669982Y272870D01*
X669459Y272520D01*
X669110Y271997D01*
X668987Y271381D01*
Y270219D01*
X669110Y269602D01*
X669459Y269080D01*
X669982Y268730D01*
X670599Y268608D01*
X674201D01*
X674818Y268730D01*
X675341Y269080D01*
X675479Y269286D01*
X675985Y269387D01*
X676481Y269719D01*
X678981Y272219D01*
X679026Y272285D01*
X679146Y272335D01*
X679765Y272954D01*
X680100Y273762D01*
Y274638D01*
X679765Y275446D01*
X679146Y276065D01*
X678338Y276400D01*
D02*
G37*
G36*
X272433Y273102D02*
X260197D01*
Y266772D01*
X272433D01*
Y267403D01*
X272637Y267819D01*
X280165D01*
Y268674D01*
X282214D01*
X282754Y268135D01*
X283562Y267800D01*
X284438D01*
X285246Y268135D01*
X285865Y268754D01*
X286200Y269562D01*
Y270438D01*
X285865Y271246D01*
X285246Y271865D01*
X284438Y272200D01*
X283562D01*
X282754Y271865D01*
X282214Y271325D01*
X280165D01*
Y272181D01*
X272637D01*
X272433Y272597D01*
Y273102D01*
D02*
G37*
G36*
X211803D02*
X199567D01*
Y266772D01*
X211803D01*
Y268549D01*
X212303Y268586D01*
X212754Y268135D01*
X213562Y267800D01*
X214438D01*
X215246Y268135D01*
X215865Y268754D01*
X216200Y269562D01*
Y270438D01*
X215865Y271246D01*
X215246Y271865D01*
X214438Y272200D01*
X213562D01*
X212754Y271865D01*
X212303Y271414D01*
X211803Y271621D01*
Y273102D01*
D02*
G37*
G36*
X649438Y278200D02*
X648562D01*
X647754Y277865D01*
X647135Y277246D01*
X646800Y276438D01*
Y275562D01*
X647135Y274754D01*
X647754Y274135D01*
X648562Y273800D01*
X649326D01*
X652319Y270807D01*
Y269244D01*
X652559D01*
X652608Y268744D01*
X652543Y268731D01*
X652020Y268382D01*
X651671Y267859D01*
X651548Y267242D01*
Y263640D01*
X651671Y263023D01*
X652020Y262500D01*
X652543Y262151D01*
X653160Y262028D01*
X654321D01*
X654938Y262151D01*
X655461Y262500D01*
X655810Y263023D01*
X655933Y263640D01*
Y264116D01*
X656941D01*
X657448Y264216D01*
X657878Y264504D01*
X658887Y265512D01*
X659496Y265461D01*
X659577Y265339D01*
X660100Y264990D01*
X660717Y264867D01*
X664319D01*
X664936Y264990D01*
X665459Y265339D01*
X665808Y265862D01*
X665931Y266479D01*
Y267640D01*
X665808Y268257D01*
X665459Y268780D01*
Y269080D01*
X665808Y269602D01*
X665931Y270219D01*
Y271381D01*
X665808Y271997D01*
X665459Y272520D01*
X664936Y272870D01*
X664319Y272992D01*
X660717D01*
X660100Y272870D01*
X659577Y272520D01*
X659313Y272126D01*
X656681D01*
Y273370D01*
X653504D01*
X651200Y275675D01*
Y276438D01*
X650865Y277246D01*
X650246Y277865D01*
X649438Y278200D01*
D02*
G37*
G36*
X646698Y273140D02*
X645822D01*
X645014Y272805D01*
X644395Y272186D01*
X644060Y271378D01*
Y270503D01*
X644395Y269694D01*
X644731Y269358D01*
Y268509D01*
X644539Y268382D01*
X644190Y267859D01*
X644067Y267242D01*
Y263640D01*
X644190Y263023D01*
X644539Y262500D01*
X645062Y262151D01*
X645679Y262028D01*
X646840D01*
X647457Y262151D01*
X647980Y262500D01*
X648329Y263023D01*
X648452Y263640D01*
Y267242D01*
X648329Y267859D01*
X647980Y268382D01*
X647789Y268509D01*
Y269358D01*
X648125Y269694D01*
X648460Y270503D01*
Y271378D01*
X648125Y272186D01*
X647506Y272805D01*
X646698Y273140D01*
D02*
G37*
G36*
X637438Y273029D02*
X636562D01*
X635754Y272694D01*
X635135Y272075D01*
X634800Y271266D01*
Y270391D01*
X635135Y269583D01*
X635471Y269247D01*
Y268050D01*
X633050D01*
Y260850D01*
X640950D01*
Y268050D01*
X638529D01*
Y269247D01*
X638865Y269583D01*
X639200Y270391D01*
Y271266D01*
X638865Y272075D01*
X638246Y272694D01*
X637438Y273029D01*
D02*
G37*
G36*
X272433Y265228D02*
X260197D01*
Y258898D01*
X272433D01*
Y260737D01*
X282025D01*
X282565Y260198D01*
X283373Y259863D01*
X284249D01*
X285057Y260198D01*
X285676Y260817D01*
X286011Y261625D01*
Y262501D01*
X285676Y263309D01*
X285057Y263928D01*
X284249Y264263D01*
X283373D01*
X282565Y263928D01*
X282025Y263388D01*
X272433D01*
Y265228D01*
D02*
G37*
G36*
X211803D02*
X199567D01*
Y258898D01*
X211803D01*
Y260737D01*
X217151D01*
X217754Y260135D01*
X218562Y259800D01*
X219438D01*
X220246Y260135D01*
X220865Y260754D01*
X221200Y261562D01*
Y262438D01*
X220865Y263246D01*
X220246Y263865D01*
X219438Y264200D01*
X218562D01*
X217754Y263865D01*
X217277Y263388D01*
X211803D01*
Y265228D01*
D02*
G37*
G36*
X650581Y258972D02*
X649419D01*
X648803Y258849D01*
X648280Y258500D01*
X647980D01*
X647457Y258849D01*
X646840Y258972D01*
X645679D01*
X645062Y258849D01*
X644539Y258500D01*
X644190Y257977D01*
X644067Y257360D01*
Y253758D01*
X644190Y253141D01*
X644539Y252618D01*
X645062Y252269D01*
X645679Y252146D01*
X646840D01*
X647457Y252269D01*
X647980Y252618D01*
X648280D01*
X648803Y252269D01*
X648982Y252233D01*
Y251681D01*
X648244D01*
Y247319D01*
X648892D01*
X648944Y246819D01*
X648325Y246200D01*
X647562D01*
X646754Y245865D01*
X646135Y245246D01*
X645800Y244438D01*
Y243562D01*
X646135Y242754D01*
X646754Y242135D01*
X647562Y241800D01*
X648438D01*
X649246Y242135D01*
X649865Y242754D01*
X650200Y243562D01*
Y244325D01*
X651244Y245370D01*
X651532Y245800D01*
X651633Y246307D01*
Y247319D01*
X652370D01*
Y251681D01*
X651633D01*
Y252560D01*
X651720Y252618D01*
X652070Y253141D01*
X652192Y253758D01*
Y257360D01*
X652070Y257977D01*
X651720Y258500D01*
X651197Y258849D01*
X650581Y258972D01*
D02*
G37*
G36*
X272433Y257354D02*
X260197D01*
Y251024D01*
X272433D01*
Y257354D01*
D02*
G37*
G36*
X211803D02*
X199567D01*
Y251024D01*
X211803D01*
Y257354D01*
D02*
G37*
G36*
X272433Y249480D02*
X260197D01*
Y243150D01*
X272433D01*
Y249480D01*
D02*
G37*
G36*
X211803D02*
X199567D01*
Y243150D01*
X211803D01*
Y249480D01*
D02*
G37*
G36*
Y241606D02*
X199567D01*
Y235276D01*
X211803D01*
Y241606D01*
D02*
G37*
%LPD*%
G36*
X790000Y757053D02*
X772000Y757053D01*
Y746000D01*
X746000D01*
Y768000D01*
X790000D01*
Y757053D01*
D02*
G37*
G36*
X113500Y703000D02*
X107500D01*
Y741500D01*
X113500D01*
Y703000D01*
D02*
G37*
G36*
X273528Y702071D02*
X277500D01*
Y700473D01*
Y700166D01*
X259500Y700166D01*
Y702477D01*
X273528D01*
Y702071D01*
D02*
G37*
G36*
X285653Y705221D02*
Y703646D01*
X285704D01*
Y703643D01*
X290000Y703643D01*
X290000Y700600D01*
X298100D01*
Y705700D01*
X304000D01*
Y693800D01*
X298200Y688000D01*
X295700D01*
X290409Y693291D01*
Y695409D01*
X290392D01*
Y695412D01*
X286600D01*
Y700400D01*
X279800D01*
Y703400D01*
X282700D01*
Y706600D01*
X285653D01*
Y705221D01*
D02*
G37*
G36*
X269819Y670144D02*
X269312Y670044D01*
X268882Y669756D01*
X263163Y664037D01*
X262875Y663607D01*
X262774Y663100D01*
Y643464D01*
X261919D01*
Y639338D01*
Y635936D01*
X262774D01*
Y490795D01*
X260525D01*
Y635936D01*
X261381D01*
Y639338D01*
Y643464D01*
X260525D01*
Y648314D01*
X260965Y648754D01*
X261300Y649562D01*
Y650438D01*
X260965Y651246D01*
X260346Y651865D01*
X259538Y652200D01*
X258662D01*
X257854Y651865D01*
X257235Y651246D01*
X256900Y650438D01*
Y649562D01*
X257235Y648754D01*
X257854Y648135D01*
X257874Y648126D01*
Y643464D01*
X257019D01*
Y639338D01*
Y635936D01*
X257874D01*
Y490795D01*
X256681D01*
X256281Y491036D01*
Y494438D01*
Y498564D01*
X255426D01*
Y648114D01*
X255965Y648654D01*
X256300Y649462D01*
Y650338D01*
X255965Y651146D01*
X255346Y651765D01*
X254538Y652100D01*
X253662D01*
X252854Y651765D01*
X252235Y651146D01*
X251900Y650338D01*
Y649462D01*
X252235Y648654D01*
X252775Y648114D01*
Y498564D01*
X251919D01*
Y494438D01*
Y491036D01*
X251519Y490795D01*
X250444D01*
Y491913D01*
X250667Y492247D01*
X250770Y492764D01*
Y493689D01*
X250667Y494206D01*
X250420Y494576D01*
Y650936D01*
Y653045D01*
X268018Y670643D01*
X269816D01*
X269819Y670144D01*
D02*
G37*
G36*
X150000Y465000D02*
X143500D01*
Y463500D01*
X140000D01*
Y464500D01*
X142998Y467498D01*
X147500Y467503D01*
Y475500D01*
X150000D01*
Y465000D01*
D02*
G37*
G36*
X128100Y455200D02*
X118109Y445209D01*
Y441500D01*
X115500D01*
Y450500D01*
X121511Y456511D01*
X128100D01*
Y455200D01*
D02*
G37*
G36*
X104000Y439500D02*
X112000Y431500D01*
X136000D01*
X140000Y435500D01*
Y442000D01*
X145000D01*
Y428000D01*
X119156D01*
Y425344D01*
X208500Y336000D01*
X234500D01*
Y329000D01*
X203500D01*
X96500Y436000D01*
Y439219D01*
X96509D01*
Y443000D01*
X104000D01*
Y439500D01*
D02*
G37*
G36*
X790000Y709053D02*
X772000Y709053D01*
Y698000D01*
X746000D01*
Y720000D01*
X790000D01*
Y709053D01*
D02*
G37*
G36*
X95500Y703000D02*
X89500D01*
Y735000D01*
X77500D01*
Y741500D01*
X95500D01*
Y703000D01*
D02*
G37*
G36*
X782000Y624000D02*
X714000D01*
X712000Y626000D01*
Y642028D01*
X678074D01*
Y646726D01*
X712000D01*
Y666000D01*
X782000D01*
Y624000D01*
D02*
G37*
G36*
X712405Y622000D02*
X755000D01*
Y608000D01*
X706000D01*
X689000Y625000D01*
X678000D01*
Y631000D01*
X703405D01*
X712405Y622000D01*
D02*
G37*
G36*
X782000Y566000D02*
X712000D01*
Y583802D01*
X678000D01*
Y588500D01*
X712000D01*
Y606000D01*
X782000D01*
Y566000D01*
D02*
G37*
G36*
X695000Y558000D02*
X711000Y542000D01*
X719000D01*
Y520000D01*
X682000D01*
Y569000D01*
X678000D01*
Y573000D01*
X695000D01*
Y558000D01*
D02*
G37*
G36*
X99020Y641428D02*
Y641083D01*
X99106Y640654D01*
X99348Y640291D01*
Y639709D01*
X99106Y639346D01*
X99020Y638917D01*
Y638572D01*
X98823Y638374D01*
X92978D01*
X90188Y641164D01*
X90380Y641626D01*
X98823D01*
X99020Y641428D01*
D02*
G37*
G36*
X102400Y621600D02*
Y588100D01*
X117500Y573000D01*
X126000D01*
Y569000D01*
X115000D01*
X98300Y585700D01*
X98300Y603319D01*
X98409D01*
Y607681D01*
X98300D01*
Y620700D01*
X89431Y629569D01*
Y631600D01*
X92400D01*
X102400Y621600D01*
D02*
G37*
G36*
X412800Y365347D02*
X412721Y365228D01*
X412599Y364618D01*
Y363382D01*
X412721Y362772D01*
X412800Y362653D01*
Y360347D01*
X412721Y360228D01*
X412599Y359618D01*
Y358382D01*
X412721Y357772D01*
X412800Y357653D01*
Y347000D01*
X402500D01*
Y366000D01*
X412800D01*
Y365347D01*
D02*
G37*
G36*
X277000Y287500D02*
X273000D01*
Y294500D01*
X277000D01*
Y287500D01*
D02*
G37*
G36*
X180000Y282000D02*
X212000D01*
Y276356D01*
X196841D01*
X196618Y276401D01*
X195382D01*
X195159Y276356D01*
X172000D01*
Y286000D01*
X180000D01*
Y282000D01*
D02*
G37*
D10*
X243721Y493142D02*
X243803Y493224D01*
X246591D01*
X246593Y493226D01*
X216968Y365732D02*
Y375410D01*
Y365732D02*
X217000Y365700D01*
X220905Y377606D02*
X225500Y382200D01*
X220905Y375410D02*
Y377606D01*
X226024Y365253D02*
Y370560D01*
X274999Y285667D02*
X275033Y285633D01*
X274978Y285646D02*
X274999Y285667D01*
X274978Y288147D02*
Y292415D01*
Y288147D02*
X274978Y288147D01*
X266315Y285685D02*
X266354Y285646D01*
X159000Y525000D02*
X159200Y524800D01*
X165414D01*
X126459Y456063D02*
X126500Y456022D01*
Y454700D02*
Y456022D01*
X116693Y449000D02*
X120800D01*
X126500Y454700D01*
X148807Y473807D02*
X149000Y474000D01*
X148807Y466500D02*
Y473807D01*
X121500Y454000D02*
X123563Y456063D01*
X126459D01*
X671450Y447000D02*
X677829D01*
X675540Y329240D02*
X677900Y331600D01*
Y332400D01*
X671950Y338000D02*
X677408D01*
X677900Y338492D01*
X261110Y701890D02*
X275905D01*
X261000Y702000D02*
X261110Y701890D01*
X279000Y698500D02*
Y698973D01*
X278091Y695590D02*
X279000Y696500D01*
X277739Y700234D02*
X279000Y698973D01*
X279000Y696500D02*
Y698500D01*
X279000Y698500D02*
X279000Y698500D01*
X275905Y700234D02*
Y700315D01*
Y700234D02*
X277739D01*
X275905Y695590D02*
X278091D01*
X275905Y700315D02*
Y701890D01*
X93000Y640000D02*
X96853D01*
X98000Y648279D02*
X101279D01*
X103000Y650000D01*
X100580Y631421D02*
X103000Y629000D01*
X98000Y631421D02*
X100580D01*
X90600Y617500D02*
X95907D01*
X90600Y611500D02*
X95907D01*
X91413Y605500D02*
X96720D01*
X81000Y724743D02*
Y730050D01*
X278031Y542103D02*
Y547410D01*
X291024Y537253D02*
Y542560D01*
X268976Y537253D02*
Y542560D01*
X152976Y517799D02*
X158283D01*
X152976Y486500D02*
X158283D01*
X204118Y486842D02*
Y492150D01*
X255906Y375410D02*
X261213D01*
X290905D02*
Y380717D01*
X296024Y365253D02*
Y370560D01*
X273976Y365253D02*
Y370560D01*
X261024Y365253D02*
Y370560D01*
X238976Y365253D02*
Y370560D01*
X203976Y365253D02*
Y370560D01*
X152835Y399850D02*
X158142D01*
X152835Y431150D02*
X158142D01*
X312000Y350000D02*
X314000Y348000D01*
X317760D01*
X158283Y486500D02*
Y517799D01*
X204093Y419693D02*
X204100Y419700D01*
X195500Y419693D02*
X204093D01*
X165107Y387893D02*
Y392900D01*
X190500Y419693D02*
Y424600D01*
X195500Y419693D02*
Y424700D01*
X136500Y435500D02*
Y440807D01*
X91900Y441400D02*
X94820D01*
X583106Y513500D02*
Y528394D01*
X584800Y336600D02*
Y355200D01*
X666390Y241450D02*
X666400Y241460D01*
X656600Y241450D02*
X666390D01*
X672440Y247500D02*
X685445D01*
X666400Y241460D02*
X672440Y247500D01*
X673000Y242193D02*
X685138D01*
X675400Y270800D02*
X677900Y273300D01*
Y274200D01*
X672400Y270800D02*
X675400D01*
X673693Y257500D02*
X685445D01*
X674193Y316000D02*
X685445D01*
X666990Y299950D02*
X667100Y300060D01*
X657000Y299950D02*
X666990D01*
X673040Y306000D02*
X685445D01*
X667100Y300060D02*
X673040Y306000D01*
X685138Y300693D02*
X685445Y301000D01*
X674000Y300693D02*
X685138D01*
X672940Y415800D02*
X685445D01*
X667200Y410060D02*
X672940Y415800D01*
X667190Y410050D02*
X667200Y410060D01*
X657500Y410050D02*
X667190D01*
X673700Y410800D02*
X685445D01*
X684845Y425200D02*
X685445Y425800D01*
X673793Y425200D02*
X684845D01*
X667390Y468550D02*
X667400Y468560D01*
X657800Y468550D02*
X667390D01*
X673140Y474300D02*
X685445D01*
X667400Y468560D02*
X673140Y474300D01*
X685438Y469293D02*
X685445Y469300D01*
X673900Y469293D02*
X685438D01*
X673793Y484300D02*
X685445D01*
X666990Y575150D02*
X667000Y575160D01*
X657400Y575150D02*
X666990D01*
X672840Y581000D02*
X685445D01*
X667000Y575160D02*
X672840Y581000D01*
X673500Y576000D02*
X685445D01*
X673693Y591000D02*
X685445D01*
X684885Y596560D02*
X685445Y596000D01*
X662192Y662807D02*
X662559Y662440D01*
X684998Y654960D02*
X685458Y654500D01*
X673786Y649500D02*
X685458D01*
X666900Y633660D02*
X672740Y639500D01*
X685458D01*
X666890Y633650D02*
X666900Y633660D01*
X657000Y633650D02*
X666890D01*
X673600Y634500D02*
X685458D01*
X203420Y411000D02*
X209799D01*
X288032Y701890D02*
Y703465D01*
Y700315D02*
Y701890D01*
Y698740D02*
Y700315D01*
Y697165D02*
Y698740D01*
Y695590D02*
Y697165D01*
X209118Y417945D02*
X209799Y417264D01*
Y411000D02*
Y417264D01*
X195500Y409928D02*
Y416307D01*
X190500Y409928D02*
Y416307D01*
X674240Y662440D02*
X677800Y666000D01*
X672441Y662440D02*
X674240D01*
X671500Y671500D02*
X677879D01*
X664021Y649500D02*
X670400D01*
X674440Y604040D02*
X677700Y607300D01*
X672341Y604040D02*
X674440D01*
X671350Y613100D02*
X677729D01*
X663928Y591000D02*
X670307D01*
X646360Y603560D02*
X646400Y603600D01*
X646360Y598241D02*
Y603560D01*
X637400Y597250D02*
Y603629D01*
X672941Y329240D02*
X675540D01*
X672441Y438240D02*
X674340D01*
X677900Y441800D01*
X673940Y497540D02*
X677900Y501500D01*
X672441Y497540D02*
X673940D01*
X671450Y506800D02*
X677829D01*
X664028Y484300D02*
X670407D01*
X637000Y431450D02*
Y437600D01*
X646260Y437560D02*
X646300Y437600D01*
X646260Y432441D02*
Y437560D01*
X664028Y425200D02*
X670407D01*
X665900Y316000D02*
X670807D01*
X665300Y257500D02*
X670307D01*
X646260Y265441D02*
Y270940D01*
X637000Y264450D02*
Y270829D01*
X671450Y280000D02*
X677829D01*
X251969Y369032D02*
Y375410D01*
X286968Y369032D02*
X287000Y369000D01*
X286968Y369032D02*
Y375410D01*
X410642Y350000D02*
X411445Y350803D01*
X333401Y496099D02*
Y503500D01*
Y496099D02*
X333500Y496000D01*
Y344000D02*
Y347902D01*
X333402Y348000D02*
X333500Y347902D01*
X322240Y503500D02*
X329999D01*
X294700Y720300D02*
X294707Y720307D01*
X298000D01*
Y723693D02*
Y731130D01*
X322933Y410685D02*
X328685D01*
X322933Y480685D02*
X328685D01*
X237268Y446488D02*
X240024D01*
X234512Y443732D02*
Y446488D01*
X229000Y440976D02*
Y443732D01*
Y446488D02*
X231756D01*
Y440976D02*
X234512D01*
X237268D02*
X240024D01*
X237268Y452000D02*
X240024D01*
X231756D02*
X234512D01*
X229000Y449244D02*
Y452000D01*
X158142Y395858D02*
Y399850D01*
X161100Y392900D02*
X165107D01*
X158142Y395858D02*
X161100Y392900D01*
X131500Y435500D02*
Y440807D01*
X152202Y451800D02*
X154800D01*
X154865Y466465D02*
Y466500D01*
X152193D02*
X154865D01*
X134000Y467541D02*
Y471000D01*
X132032Y444724D02*
Y448531D01*
X131500Y444193D02*
X132032Y444724D01*
Y448531D02*
Y452459D01*
X135500Y448000D02*
X137000D01*
X134000Y449500D02*
X135500Y448000D01*
X134000Y449500D02*
Y452459D01*
X190500Y419693D02*
X195500D01*
X158142Y399850D02*
Y431150D01*
X143000Y466500D02*
X148807D01*
X141541Y465041D02*
X143000Y466500D01*
X141541Y463937D02*
Y465041D01*
X116693Y449000D02*
X116799Y448894D01*
Y443000D02*
Y448894D01*
X136500Y444193D02*
X136508Y444201D01*
X141500D01*
X131500Y444193D02*
X136500D01*
X148799Y451799D02*
X148800Y451800D01*
X148799Y446600D02*
Y451799D01*
X142700Y451800D02*
X148800D01*
X141541Y452959D02*
X142700Y451800D01*
X141541Y452959D02*
Y456063D01*
D13*
X280805Y444894D02*
X280899Y444800D01*
X274039Y444894D02*
X280805D01*
X284301Y444800D02*
X289700D01*
X284301Y450200D02*
X289500D01*
X280593Y449894D02*
X280899Y450200D01*
X274039Y449894D02*
X280593D01*
X266315Y269937D02*
X266378Y270000D01*
X274700D01*
X154173Y635748D02*
X162000Y627921D01*
X205685Y262063D02*
X218937D01*
X219000Y262000D01*
X154000Y545032D02*
X161968Y553000D01*
X249094Y653594D02*
X267469Y671969D01*
X249094Y650936D02*
Y653594D01*
Y493226D02*
Y650936D01*
X249118Y486842D02*
Y493180D01*
X294268Y678268D02*
X325000Y709000D01*
Y730000D01*
X345000Y750000D01*
X329000Y708000D02*
Y724000D01*
X296118Y675118D02*
X329000Y708000D01*
Y724000D02*
X345000Y740000D01*
X299543Y673543D02*
X333000Y707000D01*
Y719000D02*
X344000Y730000D01*
X333000Y707000D02*
Y719000D01*
X337000Y714000D02*
X343000Y720000D01*
X302969Y671969D02*
X337000Y706000D01*
Y714000D01*
X288032Y670394D02*
X306394D01*
X345000Y709000D02*
Y710000D01*
X306394Y670394D02*
X345000Y709000D01*
X344000Y730000D02*
X345000D01*
X340220Y656220D02*
X344000Y660000D01*
X288032Y656220D02*
X340220D01*
X344000Y660000D02*
X345000D01*
X288032Y659370D02*
X324370D01*
X345000Y680000D01*
X288032Y664094D02*
X319094D01*
X345000Y690000D01*
X312244Y667244D02*
X345000Y700000D01*
X288032Y667244D02*
X312244D01*
X288032Y678268D02*
X294268D01*
X288032Y675118D02*
X296118D01*
X288032Y673543D02*
X299543D01*
X288032Y671969D02*
X302969D01*
X343000Y720000D02*
X345000D01*
X205685Y269937D02*
X213937D01*
X214000Y270000D01*
X214118Y486842D02*
Y503382D01*
Y479618D02*
Y486842D01*
X313500Y503500D02*
X318500D01*
X214000D02*
X214118Y503382D01*
X214000Y479500D02*
X214118Y479618D01*
X283811Y277811D02*
X299211D01*
X266315Y262063D02*
X283811D01*
X275033Y285633D02*
X283757D01*
X266685Y459894D02*
X274039D01*
X266354Y285646D02*
X274978D01*
X266315Y277811D02*
X283811D01*
X278102Y270000D02*
X284000D01*
X264100Y486861D02*
X264118Y486842D01*
X264100Y486861D02*
Y637999D01*
Y663100D02*
X269819Y668819D01*
X264100Y641401D02*
Y663100D01*
X259118Y486842D02*
X259200Y486924D01*
Y637999D01*
X259100Y650000D02*
X259200Y649900D01*
Y641401D02*
Y649900D01*
X270669Y665669D02*
X275905D01*
X254100Y496501D02*
Y649900D01*
X268500Y659600D02*
X272994Y664094D01*
X275905D01*
X269819Y668819D02*
X275905D01*
X229118Y412128D02*
Y417945D01*
Y412128D02*
X234214Y407032D01*
X274039Y454894D02*
X274146Y455000D01*
X266791D02*
X274146D01*
X278841Y692441D02*
X279600Y693200D01*
X275905Y692441D02*
X278841D01*
X279500Y689100D02*
X280400Y688200D01*
Y683400D02*
Y688200D01*
X278417Y681417D02*
X280400Y683400D01*
X283300Y688700D02*
X283400Y688600D01*
Y683300D02*
Y688600D01*
Y687600D02*
Y688600D01*
X277642Y686142D02*
X278942Y687442D01*
X275905Y686142D02*
X277642D01*
X278942Y687442D02*
Y688542D01*
X279500Y689100D01*
X275905Y635748D02*
X279552D01*
X279600Y635700D01*
X278303Y645197D02*
X280000Y643500D01*
Y640600D02*
Y643500D01*
X279872Y640472D02*
X280000Y640600D01*
X275905Y640472D02*
X279872D01*
X286219Y668819D02*
X288032D01*
X283700Y666300D02*
X286219Y668819D01*
X279800Y666100D02*
Y666500D01*
X279056Y667244D02*
X279800Y666500D01*
X279700Y661100D02*
Y662400D01*
X275905Y659370D02*
X277970D01*
X279700Y661100D01*
X283700Y662300D02*
X284700D01*
X286055Y660945D01*
X270500Y656500D02*
X270779Y656220D01*
X275905D01*
X270900Y648900D02*
X271921Y649921D01*
X275905D01*
X272400Y653900D02*
X273146Y654646D01*
X275905D01*
X271100Y652600D02*
X272400Y653900D01*
X269826Y680074D02*
X271200Y678700D01*
X269400Y680500D02*
X269826Y680074D01*
X267000Y682900D02*
X269400Y680500D01*
X269407Y676693D02*
X270777D01*
X268600Y677500D02*
X269407Y676693D01*
X268500Y674100D02*
X269057Y673543D01*
X270626D01*
X267469Y671969D02*
X275905D01*
X270626Y673543D02*
X275905D01*
X267400Y675200D02*
X268500Y674100D01*
X267200Y678900D02*
X268600Y677500D01*
X270777Y676693D02*
X275905D01*
X271632Y678268D02*
X275905D01*
X271200Y678700D02*
X271632Y678268D01*
X267200Y686300D02*
X273657Y679843D01*
X267200Y686300D02*
Y686400D01*
X273657Y679843D02*
X275905D01*
X151472Y640473D02*
X154173D01*
X150000Y639000D02*
X151472Y640473D01*
X142047D02*
X145027D01*
X146500Y639000D01*
X270500Y697000D02*
X272240Y698740D01*
X275905D01*
X273635Y697165D02*
X275905D01*
X273165Y696696D02*
X273635Y697165D01*
X272600Y696130D02*
X273165Y696696D01*
X270500Y693800D02*
Y694500D01*
X271370Y694900D02*
X271370D01*
X272600Y696130D01*
X270500Y694500D02*
X270581Y694581D01*
X271051D01*
X271370Y694900D01*
X120201Y443000D02*
X123400D01*
X130063Y449663D02*
Y452459D01*
X123400Y443000D02*
X130063Y449663D01*
X270000Y714000D02*
X272661Y711339D01*
X275905D01*
X103600Y454701D02*
X106099D01*
X108200Y452600D01*
X103500Y465498D02*
X107720D01*
X99221Y454521D02*
X99300Y454600D01*
X95000Y454521D02*
X99221D01*
X95000Y465480D02*
X97180D01*
X99200Y467500D01*
X94421Y644921D02*
X95221Y645720D01*
X85484Y644921D02*
X94421D01*
X655067Y662440D02*
X662559D01*
X649007Y662807D02*
X654700D01*
X649007Y658293D02*
X654700D01*
X647000Y610000D02*
X652993Y604007D01*
X654600D01*
X648000Y576000D02*
X650314Y578314D01*
Y582400D01*
X648807Y497800D02*
X654500D01*
X648807Y493186D02*
X654500D01*
X649307Y329307D02*
X655000D01*
X649307Y325693D02*
X655000D01*
X649000Y276000D02*
X653693Y271307D01*
X654500D01*
X648000Y244000D02*
X650307Y246307D01*
Y249500D01*
X649455Y441819D02*
X652966Y438307D01*
X654500D01*
X650114Y412114D02*
Y416000D01*
X685138Y242193D02*
X685445Y242500D01*
X684625Y263320D02*
X685445Y262500D01*
X672400Y263320D02*
X684625D01*
X658560Y267060D02*
X662518D01*
X656941Y265441D02*
X658560Y267060D01*
X653740Y265441D02*
X656941D01*
X655007Y270800D02*
X662518D01*
X654500Y271307D02*
X655007Y270800D01*
X650000Y255559D02*
X650307Y255252D01*
Y249500D02*
Y255252D01*
X654780Y325500D02*
X663059D01*
X662992Y329307D02*
X663059Y329240D01*
X655000Y329307D02*
X662992D01*
X684685Y321760D02*
X685445Y321000D01*
X672941Y321760D02*
X684685D01*
X653840Y598241D02*
X656441D01*
X658500Y600300D02*
X662459D01*
X656441Y598241D02*
X658500Y600300D01*
X653740Y432441D02*
X656641D01*
X658600Y434400D02*
X662459D01*
X656641Y432441D02*
X658600Y434400D01*
X650000Y422559D02*
X650114Y422445D01*
Y416000D02*
Y422445D01*
X662492Y438307D02*
X662559Y438240D01*
X654500Y438307D02*
X662492D01*
X662459Y434400D02*
X662559Y434500D01*
X685405Y430760D02*
X685445Y430800D01*
X672441Y430760D02*
X685405D01*
X684685Y490060D02*
X685445Y489300D01*
X672441Y490060D02*
X684685D01*
X654700Y662807D02*
X655067Y662440D01*
X655107Y658700D02*
X662559D01*
X654700Y658293D02*
X655107Y658700D01*
X650100Y588359D02*
X650314Y588145D01*
Y582400D02*
Y588145D01*
X662426Y604007D02*
X662459Y604040D01*
X654600Y604007D02*
X662426D01*
X672341Y596560D02*
X684885D01*
X672441Y654960D02*
X684998D01*
X284300Y709700D02*
X284364Y709764D01*
X288032D01*
X321500Y348000D02*
X330000D01*
X286055Y660945D02*
X288032D01*
X142047Y654646D02*
X146390D01*
X142047Y659370D02*
X146390D01*
X142047Y664094D02*
X146390D01*
X142047Y668819D02*
X146390D01*
X142047Y673543D02*
X146390D01*
X142047Y678268D02*
X146390D01*
X142047Y682992D02*
X146390D01*
X142047Y687717D02*
X146390D01*
X142047Y692441D02*
X146390D01*
X142047Y697165D02*
X146390D01*
X142047Y701890D02*
X146390D01*
X142047Y706614D02*
X146390D01*
X142047Y711339D02*
X146390D01*
X149831D02*
X154173D01*
X149831Y706614D02*
X154173D01*
X149831Y701890D02*
X154173D01*
X149831Y697165D02*
X154173D01*
X149831Y692441D02*
X154173D01*
X149831Y687717D02*
X154173D01*
X149831Y682992D02*
X154173D01*
X149831Y678268D02*
X154173D01*
X149831Y664094D02*
X154173D01*
X149831Y659370D02*
X154173D01*
X149831Y654646D02*
X154173D01*
X149831Y649921D02*
X154173D01*
X142047D02*
X146390D01*
X150000Y643500D02*
X151697Y645197D01*
X154173D01*
X144803D02*
X146500Y643500D01*
X142047Y645197D02*
X144803D01*
X283689Y635748D02*
X288032D01*
X278303Y645197D02*
X279000Y645894D01*
Y651000D01*
X278504Y651496D02*
X279000Y651000D01*
X275905Y651496D02*
X278504D01*
X283500Y640500D02*
X283528Y640472D01*
X288032D01*
X283500Y640500D02*
Y643000D01*
X285697Y645197D01*
X288032D01*
X275905D02*
X278303D01*
X294000Y563000D02*
Y647000D01*
X281968Y547410D02*
Y550969D01*
X294000Y563000D01*
X288032Y649921D02*
X291079D01*
X294000Y647000D01*
X272000Y551000D02*
Y642866D01*
X274095Y547410D02*
Y548906D01*
X272000Y551000D02*
X274095Y548906D01*
X272000Y642866D02*
Y645000D01*
X273772Y646772D01*
X275905D01*
X284200Y654300D02*
X285429Y653071D01*
X288032D01*
X275905Y667244D02*
X279056D01*
X283400Y679400D02*
Y683300D01*
Y679400D02*
X286107Y676693D01*
X288032D01*
X280400Y677400D02*
Y683400D01*
X278118Y675118D02*
X280400Y677400D01*
X275905Y675118D02*
X278118D01*
X275905Y681417D02*
X278417D01*
X283400Y683300D02*
X285283Y681417D01*
X288032D01*
X284858Y686142D02*
X288032D01*
X283400Y687600D02*
X284858Y686142D01*
X283400Y692200D02*
Y692400D01*
Y692200D02*
X284734Y690866D01*
X288032D01*
X299000Y579870D02*
Y588307D01*
Y591693D02*
Y644800D01*
X292304Y651496D02*
X299000Y644800D01*
X288032Y651496D02*
X292304D01*
X106193Y441500D02*
X109000D01*
X110500Y449000D02*
X113307D01*
X268000Y706000D02*
X270189Y708189D01*
X257000Y706000D02*
X268000D01*
X270189Y708189D02*
X275905D01*
X275842Y709700D02*
X275905Y709764D01*
X264800Y709700D02*
X275842D01*
X102480Y633980D02*
X102500Y634000D01*
X98000Y633980D02*
X102480D01*
X102420Y645720D02*
X102500Y645800D01*
X98000Y645720D02*
X102420D01*
X94072Y633110D02*
X94942Y633980D01*
X98000D01*
X85484Y633110D02*
X94072D01*
X95221Y645720D02*
X98000D01*
X92542Y737950D02*
X92742Y738150D01*
X81000Y737950D02*
X92542D01*
X92742Y706850D02*
Y738150D01*
X110458Y706850D02*
Y738150D01*
X256850D01*
X280500Y714500D01*
Y708000D02*
Y714500D01*
X279114Y706614D02*
X280500Y708000D01*
X275905Y706614D02*
X279114D01*
X332795Y657795D02*
X345000Y670000D01*
X288032Y657795D02*
X332795D01*
X340354Y654646D02*
X345000Y650000D01*
X288032Y654646D02*
X340354D01*
X293413Y712913D02*
X293500Y713000D01*
X288032Y712913D02*
X293413D01*
X282000Y645000D02*
Y650000D01*
X279000Y653000D02*
X282000Y650000D01*
X275976Y653000D02*
X279000D01*
X275905Y670394D02*
X280606D01*
X282000Y669000D01*
X275905Y657795D02*
X281205D01*
X282000Y657000D01*
X271900Y659600D02*
X273245Y660945D01*
X275905Y653071D02*
X275976Y653000D01*
X273245Y660945D02*
X275905D01*
X291961Y705039D02*
X293600Y703400D01*
X291989Y708189D02*
X293600Y709800D01*
X288032Y708189D02*
X291989D01*
X293586Y706614D02*
X293600Y706600D01*
X288032Y706614D02*
X293586D01*
X288032Y705039D02*
X291961D01*
X166101Y443701D02*
X168258Y445858D01*
Y448740D01*
X160500Y443701D02*
X166101D01*
X168218Y476200D02*
X168258Y476240D01*
X164600Y476200D02*
X168218D01*
X163599Y477201D02*
X164600Y476200D01*
X160500Y477201D02*
X163599D01*
X160500Y436500D02*
Y440299D01*
X168258Y465142D02*
X168300Y465100D01*
X168258Y465142D02*
Y468760D01*
X157564Y460000D02*
X166324Y468760D01*
X168258D01*
X141541Y460000D02*
X157564D01*
X162800Y461500D02*
X170299D01*
X162700Y461600D02*
X162800Y461500D01*
X168500Y437000D02*
Y441017D01*
X168258Y441260D02*
X168500Y441017D01*
X160500Y468000D02*
Y473799D01*
X154469Y461969D02*
X160500Y468000D01*
X141541Y461969D02*
X154469D01*
X164000Y456000D02*
X170299D01*
X161969Y458032D02*
X164000Y456000D01*
X141541Y458032D02*
X161969D01*
X137937Y470937D02*
X138000Y471000D01*
X137937Y467541D02*
Y470937D01*
X205500Y461500D02*
X219118Y475118D01*
Y486842D01*
X173701Y461500D02*
X205500D01*
X206000Y456000D02*
X224118Y474118D01*
Y486842D01*
X173701Y456000D02*
X206000D01*
X259118Y414382D02*
X270000Y403500D01*
X283000D01*
X259118Y414382D02*
Y417945D01*
X209000Y479500D02*
X209118Y479618D01*
Y486842D01*
X269000Y486961D02*
Y495000D01*
Y486961D02*
X269118Y486842D01*
X189500Y489201D02*
Y495500D01*
X172700Y524800D02*
X176000Y521500D01*
X168800Y524800D02*
X172700D01*
X176000Y486500D02*
Y521500D01*
Y486500D02*
X176701Y485799D01*
X189500D01*
X175742Y486242D02*
X176000Y486500D01*
X175742Y472500D02*
Y486242D01*
Y431266D02*
X175858Y431150D01*
X175742Y431266D02*
Y445000D01*
X175858Y399850D02*
Y431150D01*
X168493Y392900D02*
X172900D01*
X175858Y395858D01*
Y399850D01*
X213201Y411000D02*
Y417028D01*
X205350Y399850D02*
X213201Y407701D01*
Y411000D01*
X175858Y399850D02*
X205350D01*
X213201Y417028D02*
X214118Y417945D01*
X279095Y375410D02*
Y381405D01*
X244000Y381500D02*
X244094Y381405D01*
Y375410D02*
Y381405D01*
X244118Y404382D02*
X258500Y390000D01*
X314090D02*
X322933Y381157D01*
X258500Y390000D02*
X314090D01*
X249118Y408882D02*
X262500Y395500D01*
X318433D01*
X322933Y391000D01*
X266158Y400843D02*
X322933D01*
X254118Y412882D02*
X266158Y400843D01*
X239118Y398882D02*
X253500Y384500D01*
X309748D02*
X322933Y371315D01*
X253500Y384500D02*
X309748D01*
X283000Y381500D02*
X283032Y381469D01*
Y375410D02*
Y381469D01*
X248000Y381500D02*
X248031Y381469D01*
Y375410D02*
Y381469D01*
X274146Y435000D02*
X280500D01*
X274039Y434894D02*
X274146Y435000D01*
X292894Y469894D02*
X293000Y470000D01*
X274039Y469894D02*
X292894D01*
X274146Y475000D02*
X293000D01*
X274039Y474894D02*
X274146Y475000D01*
X234118Y411483D02*
X234258Y411343D01*
X234118Y411483D02*
Y417945D01*
X291984Y439894D02*
X322933Y470843D01*
X274039Y439894D02*
X291984D01*
X296669Y424894D02*
X322933Y451158D01*
X274039Y424894D02*
X296669D01*
X254118Y412882D02*
Y417945D01*
X249118Y408882D02*
Y417945D01*
X244118Y404382D02*
Y417945D01*
X239118Y398882D02*
Y417945D01*
X213032Y375410D02*
Y390683D01*
X224118Y401769D01*
Y417945D01*
X209095Y375410D02*
Y391214D01*
X219118Y401238D01*
Y417945D01*
D14*
X254100Y493099D02*
X254118Y493081D01*
Y486842D02*
Y493081D01*
X654760Y497540D02*
X662559D01*
X654500Y497800D02*
X654760Y497540D01*
X655114Y493800D02*
X662559D01*
X654500Y493186D02*
X655114Y493800D01*
D15*
X568740Y504600D02*
X577640Y513500D01*
X580894D01*
X575740Y336600D02*
X582587D01*
D20*
X685450Y394100D02*
D03*
Y226000D02*
D03*
X685550Y559600D02*
D03*
X671450Y506800D02*
D03*
X663550D02*
D03*
X677550Y394100D02*
D03*
X671450Y280000D02*
D03*
X663550D02*
D03*
X671950Y338000D02*
D03*
X664050D02*
D03*
X677550Y226000D02*
D03*
X538550Y346000D02*
D03*
X546450D02*
D03*
X537050Y520500D02*
D03*
X544950D02*
D03*
X663550Y447000D02*
D03*
X671450D02*
D03*
X663450Y613100D02*
D03*
X671350D02*
D03*
X663600Y671500D02*
D03*
X671500D02*
D03*
X677650Y559600D02*
D03*
D21*
X685445Y296000D02*
D03*
Y237500D02*
D03*
Y405800D02*
D03*
Y464300D02*
D03*
X685458Y629500D02*
D03*
X685445Y571000D02*
D03*
Y301000D02*
D03*
Y306000D02*
D03*
Y311000D02*
D03*
Y316000D02*
D03*
Y321000D02*
D03*
Y326000D02*
D03*
Y242500D02*
D03*
Y247500D02*
D03*
Y252500D02*
D03*
Y257500D02*
D03*
Y262500D02*
D03*
Y267500D02*
D03*
Y410800D02*
D03*
Y415800D02*
D03*
Y420800D02*
D03*
Y425800D02*
D03*
Y430800D02*
D03*
Y435800D02*
D03*
Y469300D02*
D03*
Y474300D02*
D03*
Y479300D02*
D03*
Y484300D02*
D03*
Y489300D02*
D03*
Y494300D02*
D03*
X685458Y634500D02*
D03*
Y639500D02*
D03*
Y644500D02*
D03*
Y649500D02*
D03*
Y654500D02*
D03*
Y659500D02*
D03*
X685445Y576000D02*
D03*
Y581000D02*
D03*
Y586000D02*
D03*
Y591000D02*
D03*
Y596000D02*
D03*
Y601000D02*
D03*
D22*
X752500Y285450D02*
D03*
Y277550D02*
D03*
X752000Y446050D02*
D03*
Y453950D02*
D03*
X751700Y611250D02*
D03*
Y619150D02*
D03*
X752000Y403550D02*
D03*
Y395450D02*
D03*
X752500Y327950D02*
D03*
Y336050D02*
D03*
Y293550D02*
D03*
Y269450D02*
D03*
Y235050D02*
D03*
Y226950D02*
D03*
X752000Y437950D02*
D03*
Y462050D02*
D03*
Y496450D02*
D03*
Y504550D02*
D03*
X751700Y560650D02*
D03*
Y568750D02*
D03*
Y669750D02*
D03*
Y661650D02*
D03*
Y603150D02*
D03*
Y627250D02*
D03*
D23*
X623402Y201976D02*
D03*
Y184024D02*
D03*
D24*
X635000Y201950D02*
D03*
Y199250D02*
D03*
D25*
X274978Y288147D02*
D03*
D26*
Y285646D02*
D03*
D27*
X206079Y293559D02*
D03*
D28*
X205685Y285685D02*
D03*
Y277811D02*
D03*
Y269937D02*
D03*
Y262063D02*
D03*
Y254189D02*
D03*
Y246315D02*
D03*
Y238441D02*
D03*
X266315D02*
D03*
Y246315D02*
D03*
Y254189D02*
D03*
Y262063D02*
D03*
Y269937D02*
D03*
Y277811D02*
D03*
Y285685D02*
D03*
Y293559D02*
D03*
D29*
X278102Y270000D02*
D03*
X274700D02*
D03*
X280899Y444800D02*
D03*
X284301D02*
D03*
X280899Y450200D02*
D03*
X284301D02*
D03*
X674193Y316000D02*
D03*
X670807D02*
D03*
X673693Y257500D02*
D03*
X670307D02*
D03*
X650307Y249500D02*
D03*
X653693D02*
D03*
X673793Y484300D02*
D03*
X670407D02*
D03*
X650114Y416000D02*
D03*
X653500D02*
D03*
X673793Y425200D02*
D03*
X670407D02*
D03*
X116799Y443000D02*
D03*
X120201D02*
D03*
X209799Y411000D02*
D03*
X213201D02*
D03*
X333401Y503500D02*
D03*
X329999D02*
D03*
X333402Y348000D02*
D03*
X330000D02*
D03*
X173701Y456000D02*
D03*
X170299D02*
D03*
Y461500D02*
D03*
X173701D02*
D03*
X113299Y456500D02*
D03*
X116701D02*
D03*
X113299Y461500D02*
D03*
X116701D02*
D03*
X152201Y446600D02*
D03*
X148799D02*
D03*
X148800Y451800D02*
D03*
X152202D02*
D03*
X653700Y582400D02*
D03*
X650314D02*
D03*
X670307Y591000D02*
D03*
X673693D02*
D03*
X670400Y649500D02*
D03*
X673786D02*
D03*
D30*
X189887Y272044D02*
D03*
Y277832D02*
D03*
D31*
X182369Y270594D02*
D03*
Y277799D02*
D03*
D32*
X196000Y274307D02*
D03*
Y277693D02*
D03*
X136500Y444193D02*
D03*
Y440807D02*
D03*
X131500Y444193D02*
D03*
Y440807D02*
D03*
X195500Y419693D02*
D03*
Y416307D02*
D03*
X190500Y419693D02*
D03*
Y416307D02*
D03*
D33*
X254100Y496501D02*
D03*
Y493099D02*
D03*
X259200Y641401D02*
D03*
Y637999D02*
D03*
X264100Y641401D02*
D03*
Y637999D02*
D03*
X635000Y180607D02*
D03*
Y183993D02*
D03*
X654500Y497800D02*
D03*
Y501186D02*
D03*
X655000Y325693D02*
D03*
Y322307D02*
D03*
X674000Y300693D02*
D03*
Y297307D02*
D03*
X654500Y271307D02*
D03*
Y274693D02*
D03*
X673000Y242193D02*
D03*
Y238807D02*
D03*
X655000Y329307D02*
D03*
Y332693D02*
D03*
X571500Y522307D02*
D03*
Y525693D02*
D03*
X575400Y349507D02*
D03*
Y352893D02*
D03*
X673900Y469293D02*
D03*
Y465907D02*
D03*
X654500Y493186D02*
D03*
Y489800D02*
D03*
Y438307D02*
D03*
Y441693D02*
D03*
X673700Y410800D02*
D03*
Y407414D02*
D03*
X141500Y440799D02*
D03*
Y444201D02*
D03*
X189500Y485799D02*
D03*
Y489201D02*
D03*
X160500Y440299D02*
D03*
Y443701D02*
D03*
Y473799D02*
D03*
Y477201D02*
D03*
X103500Y468900D02*
D03*
Y465498D02*
D03*
X103600Y451299D02*
D03*
Y454701D02*
D03*
X654600Y607393D02*
D03*
Y604007D02*
D03*
X654700Y654907D02*
D03*
Y658293D02*
D03*
Y666193D02*
D03*
Y662807D02*
D03*
X673500Y572614D02*
D03*
Y576000D02*
D03*
X673600Y631114D02*
D03*
Y634500D02*
D03*
X299000Y591693D02*
D03*
Y588307D02*
D03*
X298000Y723693D02*
D03*
Y720307D02*
D03*
D34*
X246593Y493226D02*
D03*
D35*
X249094D02*
D03*
D36*
X429555Y350803D02*
D03*
X420500D02*
D03*
X411445D02*
D03*
D37*
X420500Y326197D02*
D03*
D38*
X598598Y193000D02*
D03*
D39*
X646360Y598241D02*
D03*
X653840D02*
D03*
Y588359D02*
D03*
X650100D02*
D03*
X646360D02*
D03*
X646260Y265441D02*
D03*
X653740D02*
D03*
Y255559D02*
D03*
X650000D02*
D03*
X646260D02*
D03*
Y432441D02*
D03*
X653740D02*
D03*
Y422559D02*
D03*
X650000D02*
D03*
X646260D02*
D03*
D40*
X672341Y604040D02*
D03*
Y596560D02*
D03*
X662459D02*
D03*
Y600300D02*
D03*
Y604040D02*
D03*
X672941Y329240D02*
D03*
Y321760D02*
D03*
X663059D02*
D03*
Y325500D02*
D03*
Y329240D02*
D03*
X672400Y270800D02*
D03*
Y263320D02*
D03*
X662518D02*
D03*
Y267060D02*
D03*
Y270800D02*
D03*
X672441Y497540D02*
D03*
Y490060D02*
D03*
X662559D02*
D03*
Y493800D02*
D03*
Y497540D02*
D03*
X672441Y438240D02*
D03*
Y430760D02*
D03*
X662559D02*
D03*
Y434500D02*
D03*
Y438240D02*
D03*
X672441Y662440D02*
D03*
Y654960D02*
D03*
X662559D02*
D03*
Y658700D02*
D03*
Y662440D02*
D03*
D41*
X657500Y410050D02*
D03*
Y402150D02*
D03*
X657000Y299950D02*
D03*
Y292050D02*
D03*
X637000Y264450D02*
D03*
Y256550D02*
D03*
X656600Y241450D02*
D03*
Y233550D02*
D03*
X657800Y468550D02*
D03*
Y460650D02*
D03*
X637000Y431450D02*
D03*
Y423550D02*
D03*
X637400Y589350D02*
D03*
Y597250D02*
D03*
X657400Y567250D02*
D03*
Y575150D02*
D03*
X657000Y625750D02*
D03*
Y633650D02*
D03*
X301000Y710950D02*
D03*
Y703050D02*
D03*
X81000Y730050D02*
D03*
Y737950D02*
D03*
D42*
X667100Y300060D02*
D03*
Y292540D02*
D03*
X666400Y241460D02*
D03*
Y233940D02*
D03*
X667400Y468560D02*
D03*
Y461040D02*
D03*
X667200Y410060D02*
D03*
Y402540D02*
D03*
X667000Y567640D02*
D03*
Y575160D02*
D03*
X666900Y626140D02*
D03*
Y633660D02*
D03*
D43*
X728387Y311000D02*
D03*
Y252500D02*
D03*
Y420800D02*
D03*
Y479300D02*
D03*
X728400Y644500D02*
D03*
X728387Y586000D02*
D03*
D44*
X504050Y488500D02*
D03*
X495950D02*
D03*
X504050Y474000D02*
D03*
X495950D02*
D03*
X505850Y311800D02*
D03*
X497750D02*
D03*
X505950Y298000D02*
D03*
X497850D02*
D03*
D45*
X568602Y468500D02*
D03*
X561398D02*
D03*
X568602Y456000D02*
D03*
X561398D02*
D03*
X569602Y281100D02*
D03*
X562398D02*
D03*
X569602Y296000D02*
D03*
X562398D02*
D03*
D46*
X513900Y440500D02*
D03*
X496100D02*
D03*
X515500Y264000D02*
D03*
X497700D02*
D03*
D47*
X514068Y345800D02*
D03*
X497532D02*
D03*
X512268Y521000D02*
D03*
X495732D02*
D03*
D49*
X427693Y358500D02*
D03*
X424307D02*
D03*
X411307Y359000D02*
D03*
X414693D02*
D03*
X411307Y364000D02*
D03*
X414693D02*
D03*
X165107Y392900D02*
D03*
X168493D02*
D03*
X165414Y524800D02*
D03*
X168800D02*
D03*
X106193Y441500D02*
D03*
X102807D02*
D03*
X152193Y466500D02*
D03*
X148807D02*
D03*
X113307Y449000D02*
D03*
X116693D02*
D03*
X95907Y617500D02*
D03*
X99293D02*
D03*
X95907Y611500D02*
D03*
X99293D02*
D03*
D50*
X584800Y336600D02*
D03*
X582587D02*
D03*
X583106Y513500D02*
D03*
X580894D02*
D03*
D51*
X290905Y375410D02*
D03*
X286968D02*
D03*
X283032D02*
D03*
X279095D02*
D03*
X255906D02*
D03*
X251969D02*
D03*
X248031D02*
D03*
X244094D02*
D03*
X220905D02*
D03*
X216968D02*
D03*
X213032D02*
D03*
X209095D02*
D03*
X285906Y547410D02*
D03*
X281968D02*
D03*
X278031D02*
D03*
X274095D02*
D03*
D52*
X234512Y446488D02*
D03*
Y440976D02*
D03*
Y452000D02*
D03*
X240024Y440976D02*
D03*
Y446488D02*
D03*
Y452000D02*
D03*
X229000Y440976D02*
D03*
Y446488D02*
D03*
Y452000D02*
D03*
D53*
X204118Y417945D02*
D03*
X209118D02*
D03*
X214118D02*
D03*
X219118D02*
D03*
X224118D02*
D03*
X229118D02*
D03*
X234118D02*
D03*
X239118D02*
D03*
X244118D02*
D03*
X249118D02*
D03*
X254118D02*
D03*
X259118D02*
D03*
X264118D02*
D03*
X269118D02*
D03*
Y486842D02*
D03*
X264118D02*
D03*
X259118D02*
D03*
X254118D02*
D03*
X249118D02*
D03*
X244118D02*
D03*
X239118D02*
D03*
X234118D02*
D03*
X229118D02*
D03*
X224118D02*
D03*
X219118D02*
D03*
X214118D02*
D03*
X209118D02*
D03*
X204118D02*
D03*
D54*
X274039Y424894D02*
D03*
Y429894D02*
D03*
Y434894D02*
D03*
Y439894D02*
D03*
Y444894D02*
D03*
Y449894D02*
D03*
Y454894D02*
D03*
Y459894D02*
D03*
Y464894D02*
D03*
Y469894D02*
D03*
Y474894D02*
D03*
Y479894D02*
D03*
D55*
X158142Y399850D02*
D03*
Y431150D02*
D03*
X175858Y399850D02*
D03*
Y431150D02*
D03*
X158283Y486500D02*
D03*
Y517799D02*
D03*
X176000Y486500D02*
D03*
Y517799D02*
D03*
D56*
X322240Y503500D02*
D03*
X318500D02*
D03*
X317760Y348000D02*
D03*
X321500D02*
D03*
D57*
X168258Y448740D02*
D03*
Y476240D02*
D03*
D58*
Y441260D02*
D03*
X175742Y445000D02*
D03*
X168258Y468760D02*
D03*
X175742Y472500D02*
D03*
D59*
X85484Y466890D02*
D03*
Y464921D02*
D03*
Y462953D02*
D03*
Y460984D02*
D03*
Y459016D02*
D03*
Y457047D02*
D03*
Y455079D02*
D03*
Y453110D02*
D03*
Y646890D02*
D03*
Y644921D02*
D03*
Y642953D02*
D03*
Y640984D02*
D03*
Y639016D02*
D03*
Y637047D02*
D03*
Y635079D02*
D03*
Y633110D02*
D03*
D60*
Y450551D02*
D03*
Y469449D02*
D03*
Y472598D02*
D03*
Y447402D02*
D03*
Y630551D02*
D03*
Y649449D02*
D03*
Y652598D02*
D03*
Y627402D02*
D03*
D61*
X141541Y463937D02*
D03*
Y461969D02*
D03*
Y460000D02*
D03*
Y458032D02*
D03*
Y456063D02*
D03*
X126459D02*
D03*
Y458032D02*
D03*
Y460000D02*
D03*
Y461969D02*
D03*
Y463937D02*
D03*
D62*
X137937Y452459D02*
D03*
X135968D02*
D03*
X134000D02*
D03*
X132032D02*
D03*
X130063D02*
D03*
Y467541D02*
D03*
X132032D02*
D03*
X134000D02*
D03*
X135968D02*
D03*
D63*
X137937D02*
D03*
D64*
X95000Y454521D02*
D03*
Y457080D02*
D03*
Y465480D02*
D03*
Y462921D02*
D03*
X98000Y648279D02*
D03*
Y645720D02*
D03*
Y631421D02*
D03*
Y633980D02*
D03*
D65*
X94820Y441400D02*
D03*
X97379D02*
D03*
X96720Y605500D02*
D03*
X99279D02*
D03*
D66*
X299000Y576130D02*
D03*
Y579870D02*
D03*
X298000Y731130D02*
D03*
Y734870D02*
D03*
D67*
X96853Y640000D02*
D03*
X100947Y641378D02*
D03*
Y638622D02*
D03*
D68*
X92742Y706850D02*
D03*
X110458D02*
D03*
Y738150D02*
D03*
X92742D02*
D03*
D96*
X134000Y460000D02*
D03*
D101*
X714500Y373300D02*
D03*
X714000Y538000D02*
D03*
X714315Y204500D02*
D03*
X734185Y373300D02*
D03*
X733685Y538000D02*
D03*
X734000Y204500D02*
D03*
D117*
X83220Y442992D02*
D03*
Y477008D02*
D03*
Y622992D02*
D03*
Y657008D02*
D03*
D118*
X67472Y442992D02*
D03*
Y477008D02*
D03*
Y622992D02*
D03*
Y657008D02*
D03*
D120*
X275905Y712913D02*
D03*
X288032D02*
D03*
X275905Y711339D02*
D03*
X288032D02*
D03*
X275905Y709764D02*
D03*
X288032D02*
D03*
X275905Y708189D02*
D03*
X288032D02*
D03*
X275905Y706614D02*
D03*
X288032D02*
D03*
X275905Y705039D02*
D03*
X288032D02*
D03*
X275905Y703465D02*
D03*
X288032D02*
D03*
X275905Y701890D02*
D03*
X288032D02*
D03*
X275905Y700315D02*
D03*
X288032D02*
D03*
X275905Y698740D02*
D03*
X288032D02*
D03*
X275905Y697165D02*
D03*
X288032D02*
D03*
X275905Y695590D02*
D03*
X288032D02*
D03*
X275905Y694016D02*
D03*
X288032D02*
D03*
X275905Y692441D02*
D03*
X288032D02*
D03*
X275905Y690866D02*
D03*
X288032D02*
D03*
X275905Y689291D02*
D03*
X288032D02*
D03*
X275905Y687716D02*
D03*
X288032D02*
D03*
X275905Y686142D02*
D03*
X288032D02*
D03*
X275905Y684567D02*
D03*
X288032D02*
D03*
X275905Y682992D02*
D03*
X288032D02*
D03*
X275905Y681417D02*
D03*
X288032D02*
D03*
X275905Y679843D02*
D03*
X288032D02*
D03*
X275905Y678268D02*
D03*
X288032D02*
D03*
X275905Y676693D02*
D03*
X288032D02*
D03*
X275905Y675118D02*
D03*
X288032D02*
D03*
X275905Y673543D02*
D03*
X288032D02*
D03*
X275905Y671969D02*
D03*
X288032D02*
D03*
X275905Y670394D02*
D03*
X288032D02*
D03*
X275905Y668819D02*
D03*
X288032D02*
D03*
X275905Y667244D02*
D03*
X288032D02*
D03*
X275905Y665669D02*
D03*
X288032D02*
D03*
X275905Y664094D02*
D03*
X288032D02*
D03*
X275905Y662520D02*
D03*
X288032D02*
D03*
X275905Y660945D02*
D03*
X288032D02*
D03*
X275905Y659370D02*
D03*
X288032D02*
D03*
X275905Y657795D02*
D03*
X288032D02*
D03*
X275905Y656220D02*
D03*
X288032D02*
D03*
X275905Y654646D02*
D03*
X288032D02*
D03*
X275905Y653071D02*
D03*
X288032D02*
D03*
X275905Y651496D02*
D03*
X288032D02*
D03*
X275905Y649921D02*
D03*
X288032D02*
D03*
X275905Y648347D02*
D03*
X288032D02*
D03*
X275905Y646772D02*
D03*
X288032D02*
D03*
X275905Y645197D02*
D03*
X288032D02*
D03*
X275905Y643622D02*
D03*
X288032D02*
D03*
X275905Y642047D02*
D03*
X288032D02*
D03*
X275905Y640472D02*
D03*
X288032D02*
D03*
X275905Y638898D02*
D03*
X288032D02*
D03*
X275905Y637323D02*
D03*
X288032D02*
D03*
X275905Y635748D02*
D03*
X288032D02*
D03*
X142047Y712913D02*
D03*
X154173D02*
D03*
X142047Y711339D02*
D03*
X154173D02*
D03*
X142047Y709764D02*
D03*
X154173D02*
D03*
X142047Y708189D02*
D03*
X154173D02*
D03*
X142047Y706614D02*
D03*
X154173D02*
D03*
X142047Y705039D02*
D03*
X154173D02*
D03*
X142047Y703465D02*
D03*
X154173D02*
D03*
X142047Y701890D02*
D03*
X154173D02*
D03*
X142047Y700315D02*
D03*
X154173D02*
D03*
X142047Y698740D02*
D03*
X154173D02*
D03*
X142047Y697165D02*
D03*
X154173D02*
D03*
X142047Y695591D02*
D03*
X154173D02*
D03*
X142047Y694016D02*
D03*
X154173D02*
D03*
X142047Y692441D02*
D03*
X154173D02*
D03*
X142047Y690866D02*
D03*
X154173D02*
D03*
X142047Y689291D02*
D03*
X154173D02*
D03*
X142047Y687717D02*
D03*
X154173D02*
D03*
X142047Y686142D02*
D03*
X154173D02*
D03*
X142047Y684567D02*
D03*
X154173D02*
D03*
X142047Y682992D02*
D03*
X154173D02*
D03*
X142047Y681417D02*
D03*
X154173D02*
D03*
X142047Y679843D02*
D03*
X154173D02*
D03*
X142047Y678268D02*
D03*
X154173D02*
D03*
X142047Y676693D02*
D03*
X154173D02*
D03*
X142047Y675118D02*
D03*
X154173D02*
D03*
X142047Y673543D02*
D03*
X154173D02*
D03*
X142047Y671969D02*
D03*
X154173D02*
D03*
X142047Y670394D02*
D03*
X154173D02*
D03*
X142047Y668819D02*
D03*
X154173D02*
D03*
X142047Y667244D02*
D03*
X154173D02*
D03*
X142047Y665669D02*
D03*
X154173D02*
D03*
X142047Y664094D02*
D03*
X154173D02*
D03*
X142047Y662520D02*
D03*
X154173D02*
D03*
X142047Y660945D02*
D03*
X154173D02*
D03*
X142047Y659370D02*
D03*
X154173D02*
D03*
X142047Y657795D02*
D03*
X154173D02*
D03*
X142047Y656220D02*
D03*
X154173D02*
D03*
X142047Y654646D02*
D03*
X154173D02*
D03*
X142047Y653071D02*
D03*
X154173D02*
D03*
X142047Y651496D02*
D03*
X154173D02*
D03*
X142047Y649921D02*
D03*
X154173D02*
D03*
X142047Y648347D02*
D03*
X154173D02*
D03*
X142047Y646772D02*
D03*
X154173D02*
D03*
X142047Y645197D02*
D03*
X154173D02*
D03*
X142047Y643622D02*
D03*
X154173D02*
D03*
X142047Y642047D02*
D03*
X154173D02*
D03*
X142047Y640473D02*
D03*
X154173D02*
D03*
X142047Y638898D02*
D03*
X154173D02*
D03*
X142047Y637323D02*
D03*
X154173D02*
D03*
X142047Y635748D02*
D03*
X154173D02*
D03*
D121*
X561260Y495400D02*
D03*
X565000D02*
D03*
X568740D02*
D03*
Y504600D02*
D03*
X565000D02*
D03*
X561260D02*
D03*
Y329600D02*
D03*
X565000D02*
D03*
X568740D02*
D03*
Y320400D02*
D03*
X565000D02*
D03*
X561260D02*
D03*
D122*
X296024Y365253D02*
D03*
X273976D02*
D03*
X261024D02*
D03*
X238976D02*
D03*
X226024D02*
D03*
X203976D02*
D03*
X291024Y537253D02*
D03*
X268976D02*
D03*
D123*
X623428Y201950D02*
X635000D01*
X196000Y268000D02*
Y274307D01*
X189887Y264112D02*
X190000Y264000D01*
X189887Y264112D02*
Y272044D01*
X182347Y263669D02*
Y270572D01*
X182369Y270594D01*
X78500Y627500D02*
X78598Y627402D01*
X85484D01*
X92902Y652598D02*
X93000Y652500D01*
X85484Y652598D02*
X92902D01*
X99279Y588221D02*
Y605500D01*
X99293Y605513D01*
Y611500D01*
Y617500D01*
Y622207D01*
X90949Y630551D02*
X99293Y622207D01*
X635000Y177000D02*
Y180607D01*
X102807Y435993D02*
Y441500D01*
X102707Y441400D02*
X102807Y441500D01*
X97379Y441400D02*
X102707D01*
X97379D02*
Y443288D01*
X85484Y450551D02*
X90116D01*
X97379Y443288D01*
X80300Y447400D02*
X80302Y447402D01*
X85484D01*
X152201Y444701D02*
Y446600D01*
X141500Y440799D02*
X148299D01*
X152201Y444701D01*
X109100Y429700D02*
X136400D01*
X141500Y434800D02*
Y440799D01*
X136400Y429700D02*
X141500Y434800D01*
X78000Y454000D02*
Y466500D01*
Y454000D02*
X81449Y450551D01*
X85484D01*
X80949Y469449D02*
X85484D01*
X78000Y466500D02*
X80949Y469449D01*
X503000Y537500D02*
X574000D01*
X495732Y530232D02*
X503000Y537500D01*
X574000D02*
X583106Y528394D01*
X497532Y345800D02*
Y355032D01*
X505000Y362500D02*
X577500D01*
X497532Y355032D02*
X505000Y362500D01*
X495732Y521000D02*
Y530232D01*
X577500Y362500D02*
X584800Y355200D01*
X654700Y666193D02*
X657507D01*
X654700Y652100D02*
Y654907D01*
X673600Y628307D02*
Y631114D01*
X654600Y607393D02*
X657407D01*
X653700Y582400D02*
X656507D01*
X673500Y569807D02*
Y572614D01*
X654500Y501186D02*
X657307D01*
X654500Y486993D02*
Y489800D01*
X673900Y463100D02*
Y465907D01*
X654500Y441693D02*
X657307D01*
X653500Y416000D02*
X656307D01*
X673700Y404607D02*
Y407414D01*
X674000Y294500D02*
Y297307D01*
X655000Y332693D02*
X657807D01*
X655000Y319500D02*
Y322307D01*
X654500Y274693D02*
X657307D01*
X653693Y249500D02*
X656500D01*
X673000Y236000D02*
Y238807D01*
X635000Y183993D02*
Y199250D01*
X623402Y184024D02*
X634969D01*
X635000Y183993D01*
X414693Y359000D02*
X420400D01*
X414693Y364000D02*
X420500D01*
X552100Y495400D02*
X561260D01*
X552000Y495500D02*
X552100Y495400D01*
X561098Y468200D02*
X561398Y468500D01*
X552200Y468200D02*
X561098D01*
X556000Y326000D02*
Y331500D01*
Y320000D02*
Y326000D01*
X116500Y571000D02*
X123000D01*
X99279Y588221D02*
X116500Y571000D01*
X85484Y630551D02*
X90949D01*
X77000Y645000D02*
X81449Y649449D01*
X77000Y634500D02*
Y645000D01*
Y634500D02*
X80949Y630551D01*
X81449Y649449D02*
X85484D01*
X80949Y630551D02*
X85484D01*
X568740Y504600D02*
Y519547D01*
X571500Y522307D01*
X568740Y296862D02*
X569602Y296000D01*
X556000Y320000D02*
X560860D01*
X548000Y296000D02*
X562398D01*
X560860Y320000D02*
X561260Y320400D01*
X565000Y314500D02*
Y320400D01*
X575400Y336260D02*
Y349507D01*
X575500Y336360D02*
X575740Y336600D01*
X568740Y329600D02*
X575500Y336360D01*
X299000Y572800D02*
Y576130D01*
X298000Y734870D02*
Y738000D01*
X306950Y710950D02*
X310000Y714000D01*
X301000Y710950D02*
X306950D01*
X85484Y472598D02*
X91598D01*
D124*
X685550Y559600D02*
Y570895D01*
X685445Y571000D02*
X685550Y570895D01*
X685450Y394100D02*
Y405795D01*
X685445Y405800D02*
X685450Y405795D01*
Y226000D02*
Y237495D01*
X685445Y237500D02*
X685450Y237495D01*
X685458Y629500D02*
X699800D01*
X752000Y446050D02*
Y448000D01*
X685445Y464300D02*
X699100D01*
X685445Y296000D02*
X698900D01*
X717400Y277500D01*
X699100Y464300D02*
X718000Y445400D01*
X751350D02*
X752000Y446050D01*
X699800Y629500D02*
X718300Y611000D01*
X752000Y448000D02*
Y452000D01*
Y453950D01*
X717400Y277500D02*
X736000D01*
X752450D01*
X718000Y445400D02*
X730000D01*
X746000D01*
X751350D01*
X752500Y277550D02*
Y285450D01*
X718300Y611000D02*
X751450D01*
X751700Y611250D02*
Y619150D01*
X685445Y252500D02*
X728387D01*
X685445Y311000D02*
X728387D01*
X685445Y420800D02*
X728387D01*
X685445Y586000D02*
X728387D01*
X685445Y479300D02*
X728387D01*
X685445Y606645D02*
X685800Y607000D01*
X685445Y601000D02*
Y606645D01*
Y437645D02*
X689800Y442000D01*
X685445Y435800D02*
Y437645D01*
X751700Y669750D02*
Y678500D01*
X752500Y336050D02*
Y344800D01*
X752000Y504550D02*
Y513300D01*
X733885Y538200D02*
X748000D01*
X752000D01*
X751700Y547500D02*
Y560650D01*
X748000Y373300D02*
X752000D01*
X734185D02*
X748000D01*
X752000Y382300D02*
Y395450D01*
X734000Y204500D02*
X752800D01*
X752500Y213800D02*
Y226950D01*
Y293550D02*
Y311000D01*
X752000Y462050D02*
Y479300D01*
Y496450D01*
X752500Y313500D02*
Y327950D01*
Y235050D02*
Y252500D01*
Y269450D01*
X752000Y403550D02*
Y420800D01*
Y437950D01*
X751700Y568750D02*
Y586300D01*
Y603150D01*
Y644800D02*
Y661650D01*
Y627250D02*
Y644800D01*
X109100Y429700D02*
X206288Y332512D01*
X224186D01*
X102807Y435993D02*
X109100Y429700D01*
X685445Y267500D02*
Y273345D01*
X690800Y278700D01*
X685445Y326000D02*
Y331845D01*
X690800Y337200D01*
X685458Y659500D02*
Y665345D01*
X690813Y670700D01*
X685445Y494300D02*
Y500145D01*
X690800Y505500D01*
X657650Y671500D02*
X663600D01*
X657000Y619800D02*
Y625750D01*
X657400Y561300D02*
Y567250D01*
X637400Y583400D02*
Y589350D01*
X657500Y613100D02*
X663450D01*
X671700Y559600D02*
X677650D01*
X657600Y280000D02*
X663550D01*
X657600Y506800D02*
X663550D01*
X657800Y454700D02*
Y460650D01*
X657600Y447000D02*
X663550D01*
X637000Y417600D02*
Y423550D01*
X671600Y394100D02*
X677550D01*
X657500Y396200D02*
Y402150D01*
X658100Y338000D02*
X664050D01*
X657000Y286100D02*
Y292050D01*
X637000Y250600D02*
Y256550D01*
X671600Y226000D02*
X677550D01*
X656600Y227600D02*
Y233550D01*
X579200Y444000D02*
X598597D01*
X568602Y454598D02*
X579200Y444000D01*
X595202Y255500D02*
X598598D01*
X569602Y281100D02*
X595202Y255500D01*
X420500Y318400D02*
Y326197D01*
X568602Y454598D02*
Y456000D01*
X504150Y474700D02*
X511200D01*
X504050Y488500D02*
X511900D01*
X537050Y512050D02*
Y520500D01*
X495950Y488500D02*
Y520782D01*
Y474000D02*
Y488500D01*
Y474000D02*
X496100Y473850D01*
Y440500D02*
Y473850D01*
X512268Y521000D02*
X512768Y520500D01*
X537050D01*
X568602Y456000D02*
Y468500D01*
X497700Y297850D02*
X497850Y298000D01*
X465200Y345800D02*
X465200Y345800D01*
X497532D01*
X569602Y281100D02*
Y296000D01*
X562398Y281100D02*
Y296000D01*
X505850Y311800D02*
X513700D01*
X505950Y298000D02*
X513000D01*
X464000Y346500D02*
X464500D01*
X538500Y338000D02*
X538550Y338050D01*
Y346000D01*
X514068Y345800D02*
X514268Y346000D01*
X538550D01*
X360752Y570000D02*
X365000D01*
X345000D02*
X355000D01*
X360752D01*
D125*
X706250Y373300D02*
X714500D01*
X707150Y538000D02*
X714000D01*
X685450Y226000D02*
X706950Y204500D01*
X685450Y394100D02*
X706250Y373300D01*
X685550Y559600D02*
X707150Y538000D01*
X706950Y204500D02*
X714315D01*
X513900Y440500D02*
X526200D01*
X497700Y264000D02*
Y297850D01*
X497750Y298100D02*
Y311800D01*
Y345582D01*
X516100Y264000D02*
X528200D01*
D126*
X623402Y201976D02*
Y212902D01*
X623500Y213000D01*
X753500Y752000D02*
X763500Y762000D01*
X784000D01*
X763500Y714000D02*
X784000D01*
X753000Y703500D02*
X763500Y714000D01*
X742000Y252500D02*
X752500D01*
X742000Y311000D02*
X750000D01*
X742000Y586300D02*
X751700D01*
X742000Y644800D02*
X751700D01*
X742000Y479300D02*
X752000D01*
X741500Y420800D02*
X752000D01*
X750000Y311000D02*
X766500Y327500D01*
X786500Y496000D02*
X799500Y483000D01*
Y417500D02*
Y483000D01*
X782000Y400000D02*
X799500Y417500D01*
X778000Y400000D02*
X782000D01*
X798500Y248500D02*
Y314000D01*
X778000Y232000D02*
X782000D01*
X798500Y248500D01*
X777500Y327500D02*
X785000D01*
X798500Y314000D01*
X766500Y327500D02*
X777500D01*
X752500Y252500D02*
X768500D01*
X778000Y262000D01*
X777500Y262500D02*
X778000Y262000D01*
X777500Y262500D02*
Y297500D01*
X778000Y496000D02*
X786500D01*
X752000Y479250D02*
X768750Y496000D01*
X778000D01*
X752000Y420800D02*
X768800D01*
X778000Y430000D01*
Y466000D01*
X751700Y586300D02*
X752000Y586000D01*
X764000D01*
X777500Y599500D01*
X751700Y644800D02*
X752000Y644500D01*
X762500D01*
X777500Y629500D01*
D127*
X266315Y293559D02*
Y302976D01*
X205685Y285685D02*
X206079Y286079D01*
Y293559D01*
X206081Y293561D02*
Y301209D01*
X266360Y238396D02*
X275777D01*
X266315Y238441D02*
X266360Y238396D01*
X174000Y280000D02*
X176201Y277799D01*
X182369D01*
X190022Y277697D02*
X195996D01*
X189855Y277799D02*
X189887Y277832D01*
X182369Y277799D02*
X189855D01*
X205567Y277693D02*
X205685Y277811D01*
X196000Y277693D02*
X205567D01*
X312410Y547410D02*
X345000Y580000D01*
X285906Y547410D02*
X312410D01*
X685458Y644500D02*
X728400D01*
X658419Y490060D02*
X662559D01*
X658419Y654960D02*
X662559D01*
X666900Y622000D02*
Y626140D01*
X662459Y596259D02*
Y596560D01*
X658100Y591900D02*
X662459Y596259D01*
X653840Y588359D02*
X657980D01*
X667000Y563500D02*
Y567640D01*
X667400Y456900D02*
Y461040D01*
X657900Y426000D02*
X662559Y430659D01*
Y430760D01*
X653740Y422559D02*
X657880D01*
X667200Y398400D02*
Y402540D01*
X658200Y259002D02*
X662518Y263320D01*
X658200Y259000D02*
Y259002D01*
X653740Y255559D02*
X658041D01*
X658100Y255500D01*
X659199Y317900D02*
X663059Y321760D01*
X667100Y288400D02*
Y292540D01*
X666400Y229800D02*
Y233940D01*
X561398Y456000D02*
Y468500D01*
X564000Y489000D02*
X565000Y490000D01*
Y495400D01*
X284171Y701890D02*
X288032D01*
X284171D02*
X284200Y701919D01*
X280700Y701900D02*
X284181D01*
X284200Y701919D01*
Y705100D01*
X300000Y693000D02*
X301000Y694000D01*
Y703050D01*
X568740Y468638D02*
Y495400D01*
X568602Y468500D02*
X568740Y468638D01*
X565000Y504600D02*
Y512300D01*
X568740Y296862D02*
Y320400D01*
X405500Y350000D02*
X410642D01*
X427693Y358500D02*
X429555Y356638D01*
Y350803D02*
Y356638D01*
X411307Y350941D02*
Y359000D01*
Y364000D01*
D128*
X430000Y352000D02*
X464000D01*
X357000Y554000D02*
X390000Y521000D01*
X495732D01*
D129*
X110000Y461000D02*
X112799D01*
X110000Y457000D02*
X112799D01*
X113299Y456500D01*
X112799Y461000D02*
X113299Y461500D01*
X103499Y451400D02*
X103600Y451299D01*
X93000Y451400D02*
X103499D01*
X91290Y453110D02*
X93000Y451400D01*
X85484Y453110D02*
X91290D01*
X102700Y469700D02*
X103500Y468900D01*
X95700Y469700D02*
X102700D01*
X90921Y464921D02*
X95700Y469700D01*
X85484Y464921D02*
X90921D01*
X93200Y460000D02*
X94968Y458232D01*
Y457047D02*
Y458232D01*
X96400Y460000D02*
X97000D01*
X95000Y461400D02*
X96400Y460000D01*
X95000Y461400D02*
Y462921D01*
X118201Y460000D02*
X126459D01*
X116701Y461500D02*
X118201Y460000D01*
X118232Y458032D02*
X126459D01*
X116701Y456500D02*
X118232Y458032D01*
X87763Y460984D02*
X91700Y457047D01*
X85484Y460984D02*
X87763D01*
X91700Y457047D02*
X94968D01*
X85484D02*
X91700D01*
X85484Y462953D02*
X94968D01*
X82984Y459016D02*
X85484D01*
X82000Y460000D02*
X82984Y459016D01*
X82000Y460000D02*
Y462000D01*
X82953Y462953D01*
X85484D01*
X131880Y623403D02*
X171419D01*
X174597Y626581D02*
Y634822D01*
X171419Y623403D02*
X174597Y626581D01*
X131298Y622000D02*
X172000D01*
X176000Y626000D02*
Y635403D01*
X172000Y622000D02*
X176000Y626000D01*
X172096Y637323D02*
X174597Y634822D01*
X172677Y638726D02*
X176000Y635403D01*
X154173Y637323D02*
X172096D01*
X154173Y638898D02*
X172505D01*
X172677Y638726D01*
X114000Y639298D02*
X131298Y622000D01*
X101624Y639298D02*
X114000D01*
X100947Y638622D02*
X101624Y639298D01*
X114581Y640701D02*
X131880Y623403D01*
X101624Y640701D02*
X114581D01*
X100947Y641378D02*
X101624Y640701D01*
X99372Y642953D02*
X100947Y641378D01*
X85484Y642953D02*
X99372D01*
X88491Y640984D02*
X92428Y637047D01*
X85484Y640984D02*
X88491D01*
X92428Y637047D02*
X99372D01*
X100947Y638622D01*
X85484Y637047D02*
X92428D01*
X85469Y639000D02*
X85484Y639016D01*
X82000Y639000D02*
X85469D01*
X81000Y640000D02*
X82000Y639000D01*
X81000Y640000D02*
Y642000D01*
X81953Y642953D01*
X85484D01*
D130*
X598598Y345000D02*
Y443998D01*
Y255500D02*
Y337000D01*
X598597Y512000D02*
Y690000D01*
Y512000D02*
Y512000D01*
Y512000D02*
X598597Y444000D01*
X660597Y752000D02*
X664524D01*
X598597Y690000D02*
X660597Y752000D01*
X664524Y704524D02*
Y752000D01*
X598598Y193000D02*
Y255500D01*
X537173Y193000D02*
X598598D01*
D131*
X420400Y359000D02*
X420900Y358500D01*
X424307D01*
X420400Y359000D02*
X420500Y358900D01*
Y364000D01*
Y350803D02*
Y358900D01*
X571500Y525693D02*
Y530300D01*
X575400Y352893D02*
Y357500D01*
X545360Y520500D02*
X561260Y504600D01*
X544950Y520500D02*
X545360D01*
X555500Y346000D02*
X561260Y340240D01*
X546450Y346000D02*
X555500D01*
X565000Y329600D02*
Y337000D01*
X561260Y329600D02*
Y340240D01*
D132*
X280000Y570000D02*
D03*
Y758976D02*
D03*
X150079Y570000D02*
D03*
Y758976D02*
D03*
D133*
X794000Y762000D02*
D03*
Y752000D02*
D03*
Y714000D02*
D03*
Y704000D02*
D03*
D134*
X784000Y762000D02*
D03*
Y714000D02*
D03*
D135*
Y752000D02*
D03*
Y704000D02*
D03*
D136*
X355000Y570000D02*
D03*
X345000D02*
D03*
X355000Y580000D02*
D03*
X345000D02*
D03*
X355000Y590000D02*
D03*
X345000D02*
D03*
X355000Y600000D02*
D03*
X345000D02*
D03*
X355000Y610000D02*
D03*
X345000D02*
D03*
X355000Y620000D02*
D03*
X345000D02*
D03*
X355000Y630000D02*
D03*
X345000D02*
D03*
X355000Y640000D02*
D03*
X345000D02*
D03*
X355000Y650000D02*
D03*
X345000D02*
D03*
X355000Y660000D02*
D03*
X345000D02*
D03*
X355000Y670000D02*
D03*
X345000D02*
D03*
X355000Y680000D02*
D03*
X345000D02*
D03*
X355000Y690000D02*
D03*
X345000D02*
D03*
X355000Y700000D02*
D03*
X345000D02*
D03*
X355000Y710000D02*
D03*
X345000D02*
D03*
X355000Y720000D02*
D03*
X345000D02*
D03*
X355000Y730000D02*
D03*
X345000D02*
D03*
X355000Y740000D02*
D03*
X345000D02*
D03*
X355000Y750000D02*
D03*
X345000D02*
D03*
X355000Y760000D02*
D03*
D137*
X345000D02*
D03*
D138*
X778000Y232000D02*
D03*
Y400000D02*
D03*
X777500Y599500D02*
D03*
Y297500D02*
D03*
X778000Y466000D02*
D03*
D139*
Y262000D02*
D03*
Y430000D02*
D03*
X777500Y629500D02*
D03*
Y327500D02*
D03*
X778000Y496000D02*
D03*
D140*
X664024Y703500D02*
D03*
X753000D02*
D03*
X664524Y752000D02*
D03*
X753500D02*
D03*
D141*
X508827Y193000D02*
D03*
D142*
X537173D02*
D03*
D143*
X464000Y347000D02*
D03*
Y352000D02*
D03*
X293000Y475000D02*
D03*
X154000Y545000D02*
D03*
X123000Y566000D02*
D03*
X352000Y554000D02*
D03*
D144*
X464000Y357000D02*
D03*
X293000Y470000D02*
D03*
X123000Y571000D02*
D03*
D145*
X322933Y391000D02*
D03*
Y400843D02*
D03*
Y381157D02*
D03*
Y410685D02*
D03*
Y480685D02*
D03*
Y451158D02*
D03*
Y470843D02*
D03*
Y461000D02*
D03*
D146*
Y371315D02*
D03*
Y441315D02*
D03*
D147*
X231756Y446488D02*
D03*
Y440976D02*
D03*
Y452000D02*
D03*
X237268Y440976D02*
D03*
Y446488D02*
D03*
Y452000D02*
D03*
X229000Y443732D02*
D03*
Y449244D02*
D03*
X234512Y443732D02*
D03*
Y449244D02*
D03*
X240024Y443732D02*
D03*
Y449244D02*
D03*
D148*
X149000Y545000D02*
D03*
X357000Y554000D02*
D03*
D149*
X267500Y507500D02*
D03*
Y517500D02*
D03*
Y527500D02*
D03*
Y550000D02*
D03*
Y560000D02*
D03*
Y572500D02*
D03*
Y582500D02*
D03*
Y600000D02*
D03*
Y610000D02*
D03*
Y620000D02*
D03*
Y630000D02*
D03*
X244747Y517371D02*
D03*
X244838Y532546D02*
D03*
X244929Y547720D02*
D03*
X244838Y562531D02*
D03*
X244993Y647550D02*
D03*
X260000Y670000D02*
D03*
X250000Y660000D02*
D03*
X245129Y641467D02*
D03*
X245000Y635000D02*
D03*
Y625000D02*
D03*
X245015Y506992D02*
D03*
X245000Y525000D02*
D03*
Y540000D02*
D03*
Y555000D02*
D03*
Y570000D02*
D03*
Y585000D02*
D03*
Y595000D02*
D03*
Y605000D02*
D03*
Y615000D02*
D03*
X631000Y213500D02*
D03*
X623402Y212902D02*
D03*
X631000Y219000D02*
D03*
X623500D02*
D03*
Y224500D02*
D03*
X631000D02*
D03*
X638500D02*
D03*
Y219000D02*
D03*
Y213500D02*
D03*
Y230000D02*
D03*
X623500D02*
D03*
X631000D02*
D03*
X724000Y278000D02*
D03*
X730000D02*
D03*
X736000D02*
D03*
X742000D02*
D03*
Y282000D02*
D03*
X736000D02*
D03*
X730000D02*
D03*
X724000D02*
D03*
Y286000D02*
D03*
X730000D02*
D03*
X736000D02*
D03*
X742000D02*
D03*
Y454000D02*
D03*
X736000D02*
D03*
X730000D02*
D03*
X724000D02*
D03*
Y450000D02*
D03*
X730000D02*
D03*
X736000D02*
D03*
X742000D02*
D03*
Y446000D02*
D03*
X736000D02*
D03*
X730000D02*
D03*
X724000D02*
D03*
X742000Y620000D02*
D03*
X736000D02*
D03*
X730000D02*
D03*
X724000D02*
D03*
Y616000D02*
D03*
X730000D02*
D03*
X736000D02*
D03*
X742000D02*
D03*
Y612000D02*
D03*
X736000D02*
D03*
X730000D02*
D03*
X724000D02*
D03*
X752000Y614000D02*
D03*
X746000D02*
D03*
Y618000D02*
D03*
X752000D02*
D03*
Y448000D02*
D03*
X746000D02*
D03*
Y452000D02*
D03*
X752000D02*
D03*
Y280000D02*
D03*
X746000D02*
D03*
Y284000D02*
D03*
X752000D02*
D03*
X656500Y205000D02*
D03*
X649000D02*
D03*
X664000D02*
D03*
X679500D02*
D03*
X672000D02*
D03*
X687000D02*
D03*
X701500D02*
D03*
X709000D02*
D03*
X694000D02*
D03*
X656500Y210000D02*
D03*
X664000D02*
D03*
X649000D02*
D03*
X679500D02*
D03*
X687000D02*
D03*
X672000D02*
D03*
X679500Y200000D02*
D03*
X687000D02*
D03*
X672000D02*
D03*
X656500D02*
D03*
X664000D02*
D03*
X649000D02*
D03*
X701500Y210000D02*
D03*
X709000D02*
D03*
X694000D02*
D03*
X701500Y200000D02*
D03*
X709000D02*
D03*
X694000D02*
D03*
X690000Y373000D02*
D03*
Y367000D02*
D03*
Y361000D02*
D03*
Y355000D02*
D03*
X694000D02*
D03*
Y361000D02*
D03*
Y367000D02*
D03*
Y373000D02*
D03*
X698000D02*
D03*
Y367000D02*
D03*
Y361000D02*
D03*
Y355000D02*
D03*
X687000Y541000D02*
D03*
Y535000D02*
D03*
Y529000D02*
D03*
Y523000D02*
D03*
X691000D02*
D03*
Y529000D02*
D03*
Y535000D02*
D03*
Y541000D02*
D03*
X695000D02*
D03*
Y535000D02*
D03*
Y529000D02*
D03*
Y523000D02*
D03*
X699000D02*
D03*
Y529000D02*
D03*
Y535000D02*
D03*
Y541000D02*
D03*
X702000Y355000D02*
D03*
Y361000D02*
D03*
Y367000D02*
D03*
Y373000D02*
D03*
X289500Y450200D02*
D03*
X289700Y444800D02*
D03*
X349999Y717884D02*
D03*
X349950Y707718D02*
D03*
X331650Y681358D02*
D03*
X445000Y245000D02*
D03*
X435000Y190000D02*
D03*
X85000Y210000D02*
D03*
X80000Y380000D02*
D03*
Y320000D02*
D03*
X85000Y260000D02*
D03*
X437416Y396070D02*
D03*
X512047Y386260D02*
D03*
X543653Y397682D02*
D03*
X485000Y540000D02*
D03*
X210000Y640000D02*
D03*
X170000Y660000D02*
D03*
X250000Y430000D02*
D03*
X155000Y360000D02*
D03*
X80000Y535000D02*
D03*
X215000Y525000D02*
D03*
X190000Y515000D02*
D03*
X425000Y480000D02*
D03*
X360000Y185000D02*
D03*
X370000Y235000D02*
D03*
X315000Y315000D02*
D03*
X320000Y250000D02*
D03*
X240000Y270000D02*
D03*
X235000Y310000D02*
D03*
X160000Y315000D02*
D03*
X155000Y260000D02*
D03*
X325000Y285000D02*
D03*
X219000Y262000D02*
D03*
X646500Y655000D02*
D03*
X243721Y493142D02*
D03*
X268779Y689971D02*
D03*
X266315Y302976D02*
D03*
X275777Y238396D02*
D03*
X206081Y301209D02*
D03*
X196000Y268000D02*
D03*
X189887Y264112D02*
D03*
X182347Y263669D02*
D03*
X214000Y270000D02*
D03*
Y503500D02*
D03*
Y479500D02*
D03*
X313500Y503500D02*
D03*
X299211Y277811D02*
D03*
X217000Y365700D02*
D03*
X225500Y382200D02*
D03*
X226024Y370560D02*
D03*
X283811Y262063D02*
D03*
X283757Y285633D02*
D03*
X266685Y459894D02*
D03*
X274978Y292415D02*
D03*
X283811Y277811D02*
D03*
X284000Y270000D02*
D03*
X174000Y284000D02*
D03*
Y280000D02*
D03*
X259100Y650000D02*
D03*
X234214Y407032D02*
D03*
X266791Y455000D02*
D03*
X266653Y695376D02*
D03*
X159000Y525000D02*
D03*
X110000Y457000D02*
D03*
Y461000D02*
D03*
X279600Y693200D02*
D03*
X283300Y688700D02*
D03*
X279500Y689100D02*
D03*
X279600Y635700D02*
D03*
X280000Y640600D02*
D03*
X283700Y666300D02*
D03*
X279800Y666100D02*
D03*
X283700Y662300D02*
D03*
X279700Y662400D02*
D03*
X270500Y656500D02*
D03*
X270900Y648900D02*
D03*
X271100Y652600D02*
D03*
X267400Y675200D02*
D03*
X267200Y678900D02*
D03*
X267000Y682900D02*
D03*
X267200Y686400D02*
D03*
X150000Y639000D02*
D03*
X146500D02*
D03*
X495000Y690000D02*
D03*
X507900Y750200D02*
D03*
X432500Y764800D02*
D03*
X540000Y600000D02*
D03*
X530000Y665000D02*
D03*
X490000Y625000D02*
D03*
X425000Y675000D02*
D03*
X445000Y730000D02*
D03*
X430000Y625000D02*
D03*
X564400Y766600D02*
D03*
X560000Y735000D02*
D03*
X381000Y750800D02*
D03*
X332200Y766000D02*
D03*
X302100D02*
D03*
X311500Y733700D02*
D03*
X330100Y750200D02*
D03*
X324538Y646187D02*
D03*
X318600Y643200D02*
D03*
X316900Y633300D02*
D03*
X377900Y681000D02*
D03*
X368100Y631100D02*
D03*
X411500Y543800D02*
D03*
X619300Y557700D02*
D03*
X584300Y557400D02*
D03*
X584100Y585500D02*
D03*
X584400Y608600D02*
D03*
X680100Y693500D02*
D03*
X680300Y718300D02*
D03*
X680700Y741000D02*
D03*
X681000Y766300D02*
D03*
X650700Y770400D02*
D03*
X618400Y753300D02*
D03*
X601300Y734700D02*
D03*
X583600Y706400D02*
D03*
X584500Y677500D02*
D03*
X650100Y685300D02*
D03*
X324000Y425800D02*
D03*
X284700Y462400D02*
D03*
X288000Y415100D02*
D03*
X255100Y388500D02*
D03*
X264200Y398600D02*
D03*
X584400Y364700D02*
D03*
X584700Y419900D02*
D03*
X584200Y396400D02*
D03*
X584600Y386000D02*
D03*
X584800Y376500D02*
D03*
X556700Y246800D02*
D03*
X542500Y233500D02*
D03*
X525600Y216900D02*
D03*
X511400Y213900D02*
D03*
X486600Y181600D02*
D03*
X507200Y230200D02*
D03*
X416900Y271300D02*
D03*
X450700Y300200D02*
D03*
X481800Y361500D02*
D03*
X386400Y361200D02*
D03*
X358000D02*
D03*
X351700Y460600D02*
D03*
X284400Y517300D02*
D03*
X320600Y531800D02*
D03*
X363800Y518400D02*
D03*
X387800Y485700D02*
D03*
X367400Y422600D02*
D03*
X543000Y424400D02*
D03*
X430200Y417900D02*
D03*
X477000Y423000D02*
D03*
X451600Y459200D02*
D03*
X474500Y481400D02*
D03*
X672200Y352000D02*
D03*
X665300Y417300D02*
D03*
X663100Y475600D02*
D03*
X628900Y506800D02*
D03*
X639800Y464500D02*
D03*
X626700Y440300D02*
D03*
X628300Y411400D02*
D03*
X645600Y392000D02*
D03*
X665700Y378900D02*
D03*
X629700Y371600D02*
D03*
X649100Y350700D02*
D03*
X625000Y325200D02*
D03*
X625200Y301300D02*
D03*
X624400Y276300D02*
D03*
X626400Y240300D02*
D03*
X639500Y180600D02*
D03*
X639600Y176900D02*
D03*
X623500Y191300D02*
D03*
X785700Y203500D02*
D03*
X802800Y339000D02*
D03*
X799700Y226900D02*
D03*
X765500Y228100D02*
D03*
X758900Y279700D02*
D03*
X774400Y311300D02*
D03*
X733800Y341200D02*
D03*
X783200Y350000D02*
D03*
X749900Y355700D02*
D03*
X783200Y374000D02*
D03*
X797000Y520000D02*
D03*
X770700Y557100D02*
D03*
X762500Y614500D02*
D03*
X801000Y394100D02*
D03*
X766600Y397800D02*
D03*
X758300Y448200D02*
D03*
X775100Y481000D02*
D03*
X775000Y530000D02*
D03*
X795000Y545000D02*
D03*
Y575000D02*
D03*
Y610000D02*
D03*
Y650000D02*
D03*
X770000Y690000D02*
D03*
Y735000D02*
D03*
X715000Y730000D02*
D03*
Y755000D02*
D03*
Y700000D02*
D03*
Y675000D02*
D03*
X625000Y595000D02*
D03*
X660000Y525000D02*
D03*
X635000Y530000D02*
D03*
X655000Y550000D02*
D03*
X630000Y560000D02*
D03*
X629121Y622527D02*
D03*
X510000Y570000D02*
D03*
X575000Y595000D02*
D03*
X555000Y555000D02*
D03*
X440000Y570000D02*
D03*
X390000Y715000D02*
D03*
X375000Y595000D02*
D03*
X280000Y615000D02*
D03*
X240000Y665000D02*
D03*
X270000Y740000D02*
D03*
X240000Y760000D02*
D03*
X220000Y715000D02*
D03*
X175000D02*
D03*
X180000Y755000D02*
D03*
X105000D02*
D03*
X80000Y680000D02*
D03*
X120000Y685000D02*
D03*
X195000D02*
D03*
X240000Y575000D02*
D03*
X235000Y540000D02*
D03*
X205000Y560000D02*
D03*
X240000Y630000D02*
D03*
X200000Y610000D02*
D03*
X150000D02*
D03*
X115000Y595000D02*
D03*
X95000Y555000D02*
D03*
X130000Y540000D02*
D03*
X95000Y510000D02*
D03*
X135000Y500000D02*
D03*
X190000Y475000D02*
D03*
Y445000D02*
D03*
X235000Y395000D02*
D03*
X285000Y495000D02*
D03*
X260000Y465000D02*
D03*
X235000D02*
D03*
X170000Y415000D02*
D03*
X145000Y420000D02*
D03*
X95000Y405000D02*
D03*
X375000Y310000D02*
D03*
X470000Y320000D02*
D03*
X465000Y275000D02*
D03*
X470000Y210000D02*
D03*
X410000Y225000D02*
D03*
X365000Y270000D02*
D03*
X325000Y220000D02*
D03*
X250000Y205000D02*
D03*
X175000Y210000D02*
D03*
X120000Y235000D02*
D03*
X115000Y305000D02*
D03*
X112067Y355192D02*
D03*
X78500Y627500D02*
D03*
X92902Y652598D02*
D03*
X270500Y697000D02*
D03*
Y693800D02*
D03*
X695100Y644500D02*
D03*
X698900D02*
D03*
X702700D02*
D03*
X706929D02*
D03*
X149000Y474000D02*
D03*
X121500Y454000D02*
D03*
X677829Y447000D02*
D03*
X677900Y332400D02*
D03*
Y338492D02*
D03*
X594000Y520000D02*
D03*
Y516000D02*
D03*
Y512000D02*
D03*
X598500D02*
D03*
Y516000D02*
D03*
Y520000D02*
D03*
X603000D02*
D03*
Y516000D02*
D03*
Y512000D02*
D03*
X635000Y177000D02*
D03*
X601000Y337000D02*
D03*
Y341000D02*
D03*
Y345000D02*
D03*
X596500D02*
D03*
Y341000D02*
D03*
Y337000D02*
D03*
X592000D02*
D03*
Y341000D02*
D03*
Y345000D02*
D03*
X270000Y714000D02*
D03*
X264500Y702000D02*
D03*
X261110Y701890D02*
D03*
X108200Y452600D02*
D03*
X107800Y465578D02*
D03*
X99300Y454600D02*
D03*
X99200Y467500D02*
D03*
X93200Y460000D02*
D03*
X97000D02*
D03*
X93000Y640000D02*
D03*
X103000Y650000D02*
D03*
Y629000D02*
D03*
X90600Y617500D02*
D03*
Y611500D02*
D03*
X91413Y605500D02*
D03*
X81000Y724743D02*
D03*
X278031Y542103D02*
D03*
X291024Y542560D02*
D03*
X268976D02*
D03*
X152976Y517799D02*
D03*
Y486500D02*
D03*
X204118Y492150D02*
D03*
X261213Y375410D02*
D03*
X290905Y380717D02*
D03*
X296024Y370560D02*
D03*
X273976D02*
D03*
X261024D02*
D03*
X238976D02*
D03*
X203976D02*
D03*
X152835Y399850D02*
D03*
Y431150D02*
D03*
X312000Y350000D02*
D03*
X132000Y458000D02*
D03*
X136000D02*
D03*
Y462000D02*
D03*
X132000D02*
D03*
X165107Y387893D02*
D03*
X195500Y424700D02*
D03*
X190500Y424600D02*
D03*
X136500Y435500D02*
D03*
X91900Y441400D02*
D03*
X757000Y344800D02*
D03*
Y340600D02*
D03*
X747900Y344700D02*
D03*
Y340400D02*
D03*
X747800Y546800D02*
D03*
Y542800D02*
D03*
X751800D02*
D03*
X755800D02*
D03*
Y546800D02*
D03*
X755900Y538100D02*
D03*
X748500Y213200D02*
D03*
Y209200D02*
D03*
X752500D02*
D03*
X756500D02*
D03*
Y213200D02*
D03*
X756600Y204500D02*
D03*
X756100Y373300D02*
D03*
X756000Y382000D02*
D03*
Y378000D02*
D03*
X752000D02*
D03*
X748000D02*
D03*
Y382000D02*
D03*
X756500Y513400D02*
D03*
Y509200D02*
D03*
X747400Y513300D02*
D03*
Y509000D02*
D03*
X747200Y674100D02*
D03*
Y678400D02*
D03*
X756300Y674300D02*
D03*
Y678500D02*
D03*
X751700D02*
D03*
Y674125D02*
D03*
X752500Y344800D02*
D03*
Y340425D02*
D03*
X752000Y508925D02*
D03*
Y513300D02*
D03*
X748000Y538200D02*
D03*
X751700Y547500D02*
D03*
X752000Y538200D02*
D03*
X751700Y551300D02*
D03*
X752000Y373300D02*
D03*
X748000D02*
D03*
X752000Y382300D02*
D03*
Y386100D02*
D03*
X752500Y217600D02*
D03*
X748800Y204500D02*
D03*
X752800D02*
D03*
X752500Y213800D02*
D03*
X734000Y244500D02*
D03*
X738000Y260500D02*
D03*
X730000Y268500D02*
D03*
X738000Y252500D02*
D03*
X730000Y260500D02*
D03*
X738000Y236500D02*
D03*
X730000Y252500D02*
D03*
X738000Y244500D02*
D03*
X742000Y252500D02*
D03*
X730000Y236500D02*
D03*
X734000Y268500D02*
D03*
X742000Y260500D02*
D03*
X734000Y236500D02*
D03*
X738000Y268500D02*
D03*
X742000D02*
D03*
X734000Y252500D02*
D03*
X742000Y244500D02*
D03*
X730000D02*
D03*
X734000Y260500D02*
D03*
X742000Y236500D02*
D03*
X738000Y295000D02*
D03*
X742000D02*
D03*
X734000Y311000D02*
D03*
X730000Y327000D02*
D03*
X734000Y303000D02*
D03*
X730000Y319000D02*
D03*
X738000D02*
D03*
X734000Y327000D02*
D03*
X738000D02*
D03*
X730000Y295000D02*
D03*
X738000Y311000D02*
D03*
X734000Y295000D02*
D03*
Y319000D02*
D03*
X738000Y303000D02*
D03*
X730000D02*
D03*
X742000Y327000D02*
D03*
Y303000D02*
D03*
X730000Y311000D02*
D03*
X742000Y319000D02*
D03*
Y311000D02*
D03*
X729500Y437500D02*
D03*
X737500Y421500D02*
D03*
X733500Y437500D02*
D03*
X741500Y413500D02*
D03*
X733500D02*
D03*
X737500D02*
D03*
X729500Y405500D02*
D03*
X733500D02*
D03*
X741500D02*
D03*
X729500Y429500D02*
D03*
X741500Y437500D02*
D03*
Y429500D02*
D03*
Y421500D02*
D03*
X737500Y405500D02*
D03*
X729500Y413500D02*
D03*
X737500Y429500D02*
D03*
Y437500D02*
D03*
X729500Y421500D02*
D03*
X733500Y429500D02*
D03*
Y421500D02*
D03*
X734000Y464000D02*
D03*
X738000Y480000D02*
D03*
X730000Y488000D02*
D03*
X742000Y496000D02*
D03*
X734000Y472000D02*
D03*
X738000Y464000D02*
D03*
X742000Y472000D02*
D03*
Y488000D02*
D03*
X734000Y480000D02*
D03*
X730000Y472000D02*
D03*
Y496000D02*
D03*
X738000Y488000D02*
D03*
X742000Y464000D02*
D03*
X738000Y496000D02*
D03*
Y472000D02*
D03*
X730000Y464000D02*
D03*
X734000Y496000D02*
D03*
X730000Y480000D02*
D03*
X742000D02*
D03*
X734000Y488000D02*
D03*
X730000Y578000D02*
D03*
X738000Y602000D02*
D03*
X734000Y578000D02*
D03*
X738000Y594000D02*
D03*
X730000Y570000D02*
D03*
X738000Y586000D02*
D03*
Y570000D02*
D03*
X730000Y602000D02*
D03*
X734000Y570000D02*
D03*
X742000Y578000D02*
D03*
X730000Y586000D02*
D03*
X734000Y594000D02*
D03*
X742000Y602000D02*
D03*
X734000Y586000D02*
D03*
X742000Y570000D02*
D03*
Y594000D02*
D03*
Y586000D02*
D03*
X734000Y602000D02*
D03*
X730000Y594000D02*
D03*
X738000Y578000D02*
D03*
X742000Y645000D02*
D03*
X734000Y629000D02*
D03*
X742000D02*
D03*
X738000Y661000D02*
D03*
X730000Y645000D02*
D03*
X738000D02*
D03*
X730000Y629000D02*
D03*
X742000Y661000D02*
D03*
X734000Y637000D02*
D03*
X730000D02*
D03*
X742000Y653000D02*
D03*
X734000Y645000D02*
D03*
X730000Y661000D02*
D03*
X738000Y629000D02*
D03*
X734000Y661000D02*
D03*
X730000Y653000D02*
D03*
X738000Y637000D02*
D03*
X734000Y653000D02*
D03*
X742000Y637000D02*
D03*
X738000Y653000D02*
D03*
X80300Y447400D02*
D03*
X231900Y332500D02*
D03*
X228000D02*
D03*
X224186Y332512D02*
D03*
X648000Y240500D02*
D03*
X645500Y276000D02*
D03*
X646500Y327500D02*
D03*
X652000Y409500D02*
D03*
X647000Y444000D02*
D03*
X649000Y489000D02*
D03*
Y502000D02*
D03*
X648000Y571500D02*
D03*
X642500Y610000D02*
D03*
X646500Y666000D02*
D03*
X649007Y662807D02*
D03*
Y658293D02*
D03*
X647000Y610000D02*
D03*
X648000Y576000D02*
D03*
X648807Y497800D02*
D03*
Y493186D02*
D03*
X649307Y329307D02*
D03*
Y325693D02*
D03*
X649000Y276000D02*
D03*
X648000Y244000D02*
D03*
X649455Y441819D02*
D03*
X650114Y412114D02*
D03*
X657507Y666193D02*
D03*
X654700Y652100D02*
D03*
X673600Y628307D02*
D03*
X657407Y607393D02*
D03*
X656507Y582400D02*
D03*
X673500Y569807D02*
D03*
X657307Y501186D02*
D03*
X654500Y486993D02*
D03*
X673900Y463100D02*
D03*
X657307Y441693D02*
D03*
X656307Y416000D02*
D03*
X673700Y404607D02*
D03*
X674000Y294500D02*
D03*
X657807Y332693D02*
D03*
X655000Y319500D02*
D03*
X657307Y274693D02*
D03*
X656500Y249500D02*
D03*
X673000Y236000D02*
D03*
X690800Y278700D02*
D03*
X695000D02*
D03*
X699000D02*
D03*
Y282700D02*
D03*
X695000D02*
D03*
X691000D02*
D03*
X690800Y337200D02*
D03*
X695000D02*
D03*
X699000D02*
D03*
Y341200D02*
D03*
X695000D02*
D03*
X691000D02*
D03*
X690813Y670700D02*
D03*
X695013D02*
D03*
X699013D02*
D03*
Y674700D02*
D03*
X695013D02*
D03*
X691013D02*
D03*
X685800Y607000D02*
D03*
X690000D02*
D03*
X694000D02*
D03*
Y611000D02*
D03*
X690000D02*
D03*
X686000D02*
D03*
X690800Y505500D02*
D03*
X695000D02*
D03*
X699000D02*
D03*
Y509500D02*
D03*
X695000D02*
D03*
X691000D02*
D03*
X690000Y446000D02*
D03*
X694000D02*
D03*
X698000D02*
D03*
Y442000D02*
D03*
X694000D02*
D03*
X689800D02*
D03*
X658419Y490060D02*
D03*
Y654960D02*
D03*
X666900Y622000D02*
D03*
X658100Y591900D02*
D03*
X657980Y588359D02*
D03*
X667000Y563500D02*
D03*
X667400Y456900D02*
D03*
X657900Y426000D02*
D03*
X657880Y422559D02*
D03*
X667200Y398400D02*
D03*
X658200Y259000D02*
D03*
X658100Y255500D02*
D03*
X659199Y317900D02*
D03*
X667100Y288400D02*
D03*
X666400Y229800D02*
D03*
X657650Y671500D02*
D03*
X657000Y619800D02*
D03*
X657400Y561300D02*
D03*
X637400Y583400D02*
D03*
X657500Y613100D02*
D03*
X671700Y559600D02*
D03*
X657600Y280000D02*
D03*
Y506800D02*
D03*
X657800Y454700D02*
D03*
X657600Y447000D02*
D03*
X637000Y417600D02*
D03*
X671600Y394100D02*
D03*
X657500Y396200D02*
D03*
X658100Y338000D02*
D03*
X657000Y286100D02*
D03*
X637000Y250600D02*
D03*
X671600Y226000D02*
D03*
X656600Y227600D02*
D03*
X203420Y411000D02*
D03*
X413500Y313000D02*
D03*
Y307000D02*
D03*
Y301000D02*
D03*
Y295000D02*
D03*
X427500Y313000D02*
D03*
Y307000D02*
D03*
Y301000D02*
D03*
Y295000D02*
D03*
X420500D02*
D03*
Y301000D02*
D03*
Y307000D02*
D03*
Y313000D02*
D03*
Y318400D02*
D03*
X420650Y358750D02*
D03*
X420500Y361450D02*
D03*
Y364000D02*
D03*
X571500Y530300D02*
D03*
X575400Y357500D02*
D03*
X552000Y495500D02*
D03*
Y501500D02*
D03*
Y507000D02*
D03*
X546000D02*
D03*
Y501500D02*
D03*
X511200Y474700D02*
D03*
X526400Y440700D02*
D03*
X511900Y488500D02*
D03*
X520200Y474700D02*
D03*
Y480700D02*
D03*
Y486700D02*
D03*
Y492700D02*
D03*
Y498700D02*
D03*
Y468700D02*
D03*
Y462700D02*
D03*
Y456700D02*
D03*
X526200D02*
D03*
Y462700D02*
D03*
Y468700D02*
D03*
Y498700D02*
D03*
Y492700D02*
D03*
Y486700D02*
D03*
Y480700D02*
D03*
Y474700D02*
D03*
X552200Y463200D02*
D03*
Y457200D02*
D03*
Y451200D02*
D03*
Y445200D02*
D03*
X546200D02*
D03*
Y451200D02*
D03*
Y457200D02*
D03*
Y463200D02*
D03*
X538200Y443700D02*
D03*
Y437700D02*
D03*
X532200D02*
D03*
Y443700D02*
D03*
X546200Y468200D02*
D03*
X552200D02*
D03*
X550000Y326000D02*
D03*
Y331500D02*
D03*
X556000D02*
D03*
Y326000D02*
D03*
Y320000D02*
D03*
X554000Y296000D02*
D03*
X548000D02*
D03*
X564000Y479000D02*
D03*
Y483750D02*
D03*
X537000Y507000D02*
D03*
Y502250D02*
D03*
X537050Y512050D02*
D03*
X564000Y489000D02*
D03*
X284300Y709700D02*
D03*
X280700Y701900D02*
D03*
X284200Y701919D02*
D03*
Y705100D02*
D03*
X296500Y689500D02*
D03*
X300000Y693000D02*
D03*
X296500D02*
D03*
X565000Y512300D02*
D03*
Y516000D02*
D03*
Y520000D02*
D03*
X538500Y328500D02*
D03*
Y333250D02*
D03*
X564900Y307400D02*
D03*
X195500Y409928D02*
D03*
X190500D02*
D03*
X677800Y666000D02*
D03*
X677879Y671500D02*
D03*
X664021Y649500D02*
D03*
X677700Y607300D02*
D03*
X677729Y613100D02*
D03*
X663928Y591000D02*
D03*
X637400Y603629D02*
D03*
X646400Y603600D02*
D03*
X677900Y501500D02*
D03*
X677829Y506800D02*
D03*
X664028Y484300D02*
D03*
X677900Y441800D02*
D03*
X637000Y437600D02*
D03*
X646300D02*
D03*
X664028Y425200D02*
D03*
X646260Y270940D02*
D03*
X637000Y270829D02*
D03*
X665900Y316000D02*
D03*
X665300Y257500D02*
D03*
X677900Y274200D02*
D03*
X677860Y280031D02*
D03*
X252000Y369000D02*
D03*
X287000D02*
D03*
X405500Y350000D02*
D03*
Y356000D02*
D03*
Y362000D02*
D03*
X333500Y496000D02*
D03*
Y344000D02*
D03*
X565000Y345000D02*
D03*
Y341000D02*
D03*
Y337000D02*
D03*
X534000Y267000D02*
D03*
Y261000D02*
D03*
X540000D02*
D03*
Y267000D02*
D03*
X548000Y291000D02*
D03*
Y285000D02*
D03*
Y279000D02*
D03*
Y273000D02*
D03*
X554000D02*
D03*
Y279000D02*
D03*
Y285000D02*
D03*
Y291000D02*
D03*
X528000Y298000D02*
D03*
Y304000D02*
D03*
Y310000D02*
D03*
Y316000D02*
D03*
Y322000D02*
D03*
Y292000D02*
D03*
Y286000D02*
D03*
Y280000D02*
D03*
X522000D02*
D03*
Y286000D02*
D03*
Y292000D02*
D03*
Y322000D02*
D03*
Y316000D02*
D03*
Y310000D02*
D03*
Y304000D02*
D03*
Y298000D02*
D03*
X513700Y311800D02*
D03*
X528200Y264000D02*
D03*
X513000Y298000D02*
D03*
X538500Y338000D02*
D03*
X565000Y311000D02*
D03*
Y314500D02*
D03*
X262700Y683000D02*
D03*
Y678400D02*
D03*
Y673800D02*
D03*
X267900Y650600D02*
D03*
X267600Y654200D02*
D03*
X256700Y647800D02*
D03*
X166000Y553000D02*
D03*
Y628000D02*
D03*
X162000Y553000D02*
D03*
Y627921D02*
D03*
X146390Y654646D02*
D03*
Y659370D02*
D03*
Y664094D02*
D03*
Y668819D02*
D03*
Y673543D02*
D03*
Y678268D02*
D03*
Y682992D02*
D03*
Y687717D02*
D03*
Y692441D02*
D03*
Y697165D02*
D03*
Y701890D02*
D03*
Y706614D02*
D03*
Y711339D02*
D03*
X149831D02*
D03*
Y706614D02*
D03*
Y701890D02*
D03*
Y697165D02*
D03*
Y692441D02*
D03*
Y687717D02*
D03*
Y682992D02*
D03*
Y678268D02*
D03*
Y664094D02*
D03*
Y659370D02*
D03*
Y654646D02*
D03*
Y649921D02*
D03*
X146390D02*
D03*
X150000Y643500D02*
D03*
X146500D02*
D03*
X283689Y635748D02*
D03*
X283500Y640500D02*
D03*
X284200Y654300D02*
D03*
X283400Y692400D02*
D03*
X299000Y572800D02*
D03*
X294700Y720300D02*
D03*
X298000Y738000D02*
D03*
X310000Y714000D02*
D03*
X361000Y566000D02*
D03*
X365000D02*
D03*
Y570000D02*
D03*
X360752D02*
D03*
X328685Y410685D02*
D03*
Y480685D02*
D03*
X91598Y472598D02*
D03*
X131500Y435500D02*
D03*
X154800Y451800D02*
D03*
X154865Y466465D02*
D03*
X134000Y471000D02*
D03*
X137000Y448000D02*
D03*
X109000Y441500D02*
D03*
X110500Y449000D02*
D03*
X257000Y706000D02*
D03*
X264800Y709700D02*
D03*
X102500Y634000D02*
D03*
Y645800D02*
D03*
X293500Y713000D02*
D03*
X282000Y645000D02*
D03*
Y669000D02*
D03*
Y657000D02*
D03*
X271900Y659600D02*
D03*
X293600Y703400D02*
D03*
Y709800D02*
D03*
Y706600D02*
D03*
X270669Y665669D02*
D03*
X254100Y649900D02*
D03*
X268500Y659600D02*
D03*
X160500Y436500D02*
D03*
X168300Y465100D02*
D03*
X162700Y461600D02*
D03*
X160500Y468000D02*
D03*
X168500Y437000D02*
D03*
X138000Y471000D02*
D03*
X209000Y479500D02*
D03*
X269000Y495000D02*
D03*
X189500Y495500D02*
D03*
X279095Y381405D02*
D03*
X244000Y381500D02*
D03*
X283000Y403500D02*
D03*
Y381500D02*
D03*
X248000D02*
D03*
X280500Y435000D02*
D03*
X234258Y411343D02*
D03*
M02*
