G04*
G04 #@! TF.GenerationSoftware,Altium Limited,Altium Designer,26.1.1 (7)*
G04*
G04 Layer_Color=8388736*
%FSLAX25Y25*%
%MOIN*%
G70*
G04*
G04 #@! TF.SameCoordinates,3E101659-1531-44DD-BC6F-E1116C570119*
G04*
G04*
G04 #@! TF.FilePolarity,Negative*
G04*
G01*
G75*
%ADD20R,0.05200X0.05900*%
%ADD21R,0.14600X0.03000*%
%ADD22R,0.03700X0.03000*%
%ADD23R,0.08661X0.04724*%
%ADD24R,0.02200X0.01200*%
%ADD38R,0.25197X0.22835*%
%ADD41R,0.05900X0.05200*%
%ADD43R,0.32500X0.40400*%
%ADD44R,0.03000X0.03700*%
%ADD46R,0.08600X0.08800*%
%ADD51R,0.02600X0.06100*%
%ADD55R,0.05118X0.06102*%
%ADD57R,0.05343X0.02253*%
G04:AMPARAMS|DCode=58|XSize=53.43mil|YSize=22.53mil|CornerRadius=11.26mil|HoleSize=0mil|Usage=FLASHONLY|Rotation=0.000|XOffset=0mil|YOffset=0mil|HoleType=Round|Shape=RoundedRectangle|*
%AMROUNDEDRECTD58*
21,1,0.05343,0.00000,0,0,0.0*
21,1,0.03091,0.02253,0,0,0.0*
1,1,0.02253,0.01545,0.00000*
1,1,0.02253,-0.01545,0.00000*
1,1,0.02253,-0.01545,0.00000*
1,1,0.02253,0.01545,0.00000*
%
%ADD58ROUNDEDRECTD58*%
%ADD59R,0.04528X0.01181*%
%ADD60R,0.04528X0.02362*%
G04:AMPARAMS|DCode=61|XSize=9.55mil|YSize=33.06mil|CornerRadius=4.77mil|HoleSize=0mil|Usage=FLASHONLY|Rotation=270.000|XOffset=0mil|YOffset=0mil|HoleType=Round|Shape=RoundedRectangle|*
%AMROUNDEDRECTD61*
21,1,0.00955,0.02351,0,0,270.0*
21,1,0.00000,0.03306,0,0,270.0*
1,1,0.00955,-0.01176,0.00000*
1,1,0.00955,-0.01176,0.00000*
1,1,0.00955,0.01176,0.00000*
1,1,0.00955,0.01176,0.00000*
%
%ADD61ROUNDEDRECTD61*%
G04:AMPARAMS|DCode=62|XSize=33.06mil|YSize=9.55mil|CornerRadius=4.77mil|HoleSize=0mil|Usage=FLASHONLY|Rotation=270.000|XOffset=0mil|YOffset=0mil|HoleType=Round|Shape=RoundedRectangle|*
%AMROUNDEDRECTD62*
21,1,0.03306,0.00000,0,0,270.0*
21,1,0.02351,0.00955,0,0,270.0*
1,1,0.00955,0.00000,-0.01176*
1,1,0.00955,0.00000,0.01176*
1,1,0.00955,0.00000,0.01176*
1,1,0.00955,0.00000,-0.01176*
%
%ADD62ROUNDEDRECTD62*%
%ADD63R,0.00955X0.03306*%
%ADD68R,0.05100X0.06100*%
%ADD69R,0.02000X0.01000*%
G04:AMPARAMS|DCode=70|XSize=18.96mil|YSize=19.75mil|CornerRadius=5.74mil|HoleSize=0mil|Usage=FLASHONLY|Rotation=90.000|XOffset=0mil|YOffset=0mil|HoleType=Round|Shape=RoundedRectangle|*
%AMROUNDEDRECTD70*
21,1,0.01896,0.00827,0,0,90.0*
21,1,0.00748,0.01975,0,0,90.0*
1,1,0.01148,0.00413,0.00374*
1,1,0.01148,0.00413,-0.00374*
1,1,0.01148,-0.00413,-0.00374*
1,1,0.01148,-0.00413,0.00374*
%
%ADD70ROUNDEDRECTD70*%
G04:AMPARAMS|DCode=71|XSize=16.99mil|YSize=19.75mil|CornerRadius=5.25mil|HoleSize=0mil|Usage=FLASHONLY|Rotation=90.000|XOffset=0mil|YOffset=0mil|HoleType=Round|Shape=RoundedRectangle|*
%AMROUNDEDRECTD71*
21,1,0.01699,0.00925,0,0,90.0*
21,1,0.00650,0.01975,0,0,90.0*
1,1,0.01050,0.00463,0.00325*
1,1,0.01050,0.00463,-0.00325*
1,1,0.01050,-0.00463,-0.00325*
1,1,0.01050,-0.00463,0.00325*
%
%ADD71ROUNDEDRECTD71*%
%ADD72R,0.11424X0.04731*%
%ADD73R,0.10636X0.04731*%
%ADD74R,0.02526X0.02762*%
%ADD75R,0.04219X0.04337*%
G04:AMPARAMS|DCode=76|XSize=47.31mil|YSize=62.27mil|CornerRadius=7.41mil|HoleSize=0mil|Usage=FLASHONLY|Rotation=90.000|XOffset=0mil|YOffset=0mil|HoleType=Round|Shape=RoundedRectangle|*
%AMROUNDEDRECTD76*
21,1,0.04731,0.04744,0,0,90.0*
21,1,0.03248,0.06227,0,0,90.0*
1,1,0.01483,0.02372,0.01624*
1,1,0.01483,0.02372,-0.01624*
1,1,0.01483,-0.02372,-0.01624*
1,1,0.01483,-0.02372,0.01624*
%
%ADD76ROUNDEDRECTD76*%
G04:AMPARAMS|DCode=77|XSize=27.62mil|YSize=25.26mil|CornerRadius=7.63mil|HoleSize=0mil|Usage=FLASHONLY|Rotation=180.000|XOffset=0mil|YOffset=0mil|HoleType=Round|Shape=RoundedRectangle|*
%AMROUNDEDRECTD77*
21,1,0.02762,0.00999,0,0,180.0*
21,1,0.01235,0.02526,0,0,180.0*
1,1,0.01527,-0.00618,0.00500*
1,1,0.01527,0.00618,0.00500*
1,1,0.01527,0.00618,-0.00500*
1,1,0.01527,-0.00618,-0.00500*
%
%ADD77ROUNDEDRECTD77*%
%ADD78R,0.02762X0.02526*%
G04:AMPARAMS|DCode=79|XSize=18.96mil|YSize=19.75mil|CornerRadius=5.74mil|HoleSize=0mil|Usage=FLASHONLY|Rotation=180.000|XOffset=0mil|YOffset=0mil|HoleType=Round|Shape=RoundedRectangle|*
%AMROUNDEDRECTD79*
21,1,0.01896,0.00827,0,0,180.0*
21,1,0.00748,0.01975,0,0,180.0*
1,1,0.01148,-0.00374,0.00413*
1,1,0.01148,0.00374,0.00413*
1,1,0.01148,0.00374,-0.00413*
1,1,0.01148,-0.00374,-0.00413*
%
%ADD79ROUNDEDRECTD79*%
G04:AMPARAMS|DCode=80|XSize=16.99mil|YSize=19.75mil|CornerRadius=5.25mil|HoleSize=0mil|Usage=FLASHONLY|Rotation=180.000|XOffset=0mil|YOffset=0mil|HoleType=Round|Shape=RoundedRectangle|*
%AMROUNDEDRECTD80*
21,1,0.01699,0.00925,0,0,180.0*
21,1,0.00650,0.01975,0,0,180.0*
1,1,0.01050,-0.00325,0.00463*
1,1,0.01050,0.00325,0.00463*
1,1,0.01050,0.00325,-0.00463*
1,1,0.01050,-0.00325,-0.00463*
%
%ADD80ROUNDEDRECTD80*%
G04:AMPARAMS|DCode=81|XSize=39.43mil|YSize=72.9mil|CornerRadius=3.95mil|HoleSize=0mil|Usage=FLASHONLY|Rotation=0.000|XOffset=0mil|YOffset=0mil|HoleType=Round|Shape=RoundedRectangle|*
%AMROUNDEDRECTD81*
21,1,0.03943,0.06500,0,0,0.0*
21,1,0.03154,0.07290,0,0,0.0*
1,1,0.00790,0.01577,-0.03250*
1,1,0.00790,-0.01577,-0.03250*
1,1,0.00790,-0.01577,0.03250*
1,1,0.00790,0.01577,0.03250*
%
%ADD81ROUNDEDRECTD81*%
G04:AMPARAMS|DCode=82|XSize=129.98mil|YSize=72.9mil|CornerRadius=4.07mil|HoleSize=0mil|Usage=FLASHONLY|Rotation=0.000|XOffset=0mil|YOffset=0mil|HoleType=Round|Shape=RoundedRectangle|*
%AMROUNDEDRECTD82*
21,1,0.12998,0.06476,0,0,0.0*
21,1,0.12185,0.07290,0,0,0.0*
1,1,0.00813,0.06093,-0.03238*
1,1,0.00813,-0.06093,-0.03238*
1,1,0.00813,-0.06093,0.03238*
1,1,0.00813,0.06093,0.03238*
%
%ADD82ROUNDEDRECTD82*%
%ADD83R,0.03156X0.01187*%
G04:AMPARAMS|DCode=84|XSize=51.64mil|YSize=27.23mil|CornerRadius=7.81mil|HoleSize=0mil|Usage=FLASHONLY|Rotation=90.000|XOffset=0mil|YOffset=0mil|HoleType=Round|Shape=RoundedRectangle|*
%AMROUNDEDRECTD84*
21,1,0.05164,0.01161,0,0,90.0*
21,1,0.03602,0.02723,0,0,90.0*
1,1,0.01561,0.00581,0.01801*
1,1,0.01561,0.00581,-0.01801*
1,1,0.01561,-0.00581,-0.01801*
1,1,0.01561,-0.00581,0.01801*
%
%ADD84ROUNDEDRECTD84*%
G04:AMPARAMS|DCode=85|XSize=51.64mil|YSize=27.23mil|CornerRadius=7.81mil|HoleSize=0mil|Usage=FLASHONLY|Rotation=0.000|XOffset=0mil|YOffset=0mil|HoleType=Round|Shape=RoundedRectangle|*
%AMROUNDEDRECTD85*
21,1,0.05164,0.01161,0,0,0.0*
21,1,0.03602,0.02723,0,0,0.0*
1,1,0.01561,0.01801,-0.00581*
1,1,0.01561,-0.01801,-0.00581*
1,1,0.01561,-0.01801,0.00581*
1,1,0.01561,0.01801,0.00581*
%
%ADD85ROUNDEDRECTD85*%
%ADD86R,0.05833X0.04022*%
G04:AMPARAMS|DCode=87|XSize=47.31mil|YSize=62.27mil|CornerRadius=7.41mil|HoleSize=0mil|Usage=FLASHONLY|Rotation=0.000|XOffset=0mil|YOffset=0mil|HoleType=Round|Shape=RoundedRectangle|*
%AMROUNDEDRECTD87*
21,1,0.04731,0.04744,0,0,0.0*
21,1,0.03248,0.06227,0,0,0.0*
1,1,0.01483,0.01624,-0.02372*
1,1,0.01483,-0.01624,-0.02372*
1,1,0.01483,-0.01624,0.02372*
1,1,0.01483,0.01624,0.02372*
%
%ADD87ROUNDEDRECTD87*%
%ADD88R,0.07880X0.20479*%
%ADD89R,0.02600X0.06600*%
G04:AMPARAMS|DCode=90|XSize=27.62mil|YSize=25.26mil|CornerRadius=7.63mil|HoleSize=0mil|Usage=FLASHONLY|Rotation=90.000|XOffset=0mil|YOffset=0mil|HoleType=Round|Shape=RoundedRectangle|*
%AMROUNDEDRECTD90*
21,1,0.02762,0.00999,0,0,90.0*
21,1,0.01235,0.02526,0,0,90.0*
1,1,0.01527,0.00500,0.00618*
1,1,0.01527,0.00500,-0.00618*
1,1,0.01527,-0.00500,-0.00618*
1,1,0.01527,-0.00500,0.00618*
%
%ADD90ROUNDEDRECTD90*%
%ADD91R,0.01646X0.01975*%
%ADD92R,0.03943X0.03943*%
%ADD93R,0.03943X0.06306*%
%ADD94R,0.06306X0.03943*%
%ADD95R,0.02762X0.03156*%
%ADD96R,0.08071X0.08071*%
%ADD97R,0.02762X0.01778*%
%ADD98R,0.01778X0.02762*%
%ADD99R,0.03156X0.02762*%
G04:AMPARAMS|DCode=100|XSize=22.11mil|YSize=11.87mil|CornerRadius=2.98mil|HoleSize=0mil|Usage=FLASHONLY|Rotation=0.000|XOffset=0mil|YOffset=0mil|HoleType=Round|Shape=RoundedRectangle|*
%AMROUNDEDRECTD100*
21,1,0.02211,0.00591,0,0,0.0*
21,1,0.01614,0.01187,0,0,0.0*
1,1,0.00597,0.00807,-0.00295*
1,1,0.00597,-0.00807,-0.00295*
1,1,0.00597,-0.00807,0.00295*
1,1,0.00597,0.00807,0.00295*
%
%ADD100ROUNDEDRECTD100*%
%ADD101C,0.05400*%
%ADD102C,0.24016*%
%ADD103C,0.04731*%
%ADD104C,0.06896*%
%ADD105R,0.06896X0.06896*%
%ADD106C,0.06400*%
%ADD107R,0.06400X0.06400*%
%ADD108R,0.09849X0.09849*%
%ADD109C,0.09849*%
%ADD110C,0.09258*%
%ADD111C,0.24022*%
%ADD112R,0.24022X0.24022*%
%ADD113C,0.04400*%
%ADD114R,0.04400X0.04400*%
%ADD115C,0.06337*%
%ADD116R,0.06337X0.06337*%
G04:AMPARAMS|DCode=117|XSize=39.37mil|YSize=70.87mil|CornerRadius=19.68mil|HoleSize=0mil|Usage=FLASHONLY|Rotation=270.000|XOffset=0mil|YOffset=0mil|HoleType=Round|Shape=RoundedRectangle|*
%AMROUNDEDRECTD117*
21,1,0.03937,0.03150,0,0,270.0*
21,1,0.00000,0.07087,0,0,270.0*
1,1,0.03937,-0.01575,0.00000*
1,1,0.03937,-0.01575,0.00000*
1,1,0.03937,0.01575,0.00000*
1,1,0.03937,0.01575,0.00000*
%
%ADD117ROUNDEDRECTD117*%
G04:AMPARAMS|DCode=118|XSize=39.37mil|YSize=86.61mil|CornerRadius=19.68mil|HoleSize=0mil|Usage=FLASHONLY|Rotation=270.000|XOffset=0mil|YOffset=0mil|HoleType=Round|Shape=RoundedRectangle|*
%AMROUNDEDRECTD118*
21,1,0.03937,0.04724,0,0,270.0*
21,1,0.00000,0.08661,0,0,270.0*
1,1,0.03937,-0.02362,0.00000*
1,1,0.03937,-0.02362,0.00000*
1,1,0.03937,0.02362,0.00000*
1,1,0.03937,0.02362,0.00000*
%
%ADD118ROUNDEDRECTD118*%
%ADD119R,0.04400X0.04400*%
D20*
X685450Y394100D02*
D03*
Y226000D02*
D03*
X685550Y559600D02*
D03*
X671450Y506800D02*
D03*
X663550D02*
D03*
X677550Y394100D02*
D03*
X671450Y280000D02*
D03*
X663550D02*
D03*
X671950Y338000D02*
D03*
X664050D02*
D03*
X677550Y226000D02*
D03*
X538550Y346000D02*
D03*
X546450D02*
D03*
X537050Y520500D02*
D03*
X544950D02*
D03*
X663550Y447000D02*
D03*
X671450D02*
D03*
X663450Y613100D02*
D03*
X671350D02*
D03*
X663600Y671500D02*
D03*
X671500D02*
D03*
X677650Y559600D02*
D03*
D21*
X685445Y296000D02*
D03*
Y237500D02*
D03*
Y405800D02*
D03*
Y464300D02*
D03*
X685458Y629500D02*
D03*
X685445Y571000D02*
D03*
Y301000D02*
D03*
Y306000D02*
D03*
Y311000D02*
D03*
Y316000D02*
D03*
Y321000D02*
D03*
Y326000D02*
D03*
Y242500D02*
D03*
Y247500D02*
D03*
Y252500D02*
D03*
Y257500D02*
D03*
Y262500D02*
D03*
Y267500D02*
D03*
Y410800D02*
D03*
Y415800D02*
D03*
Y420800D02*
D03*
Y425800D02*
D03*
Y430800D02*
D03*
Y435800D02*
D03*
Y469300D02*
D03*
Y474300D02*
D03*
Y479300D02*
D03*
Y484300D02*
D03*
Y489300D02*
D03*
Y494300D02*
D03*
X685458Y634500D02*
D03*
Y639500D02*
D03*
Y644500D02*
D03*
Y649500D02*
D03*
Y654500D02*
D03*
Y659500D02*
D03*
X685445Y576000D02*
D03*
Y581000D02*
D03*
Y586000D02*
D03*
Y591000D02*
D03*
Y596000D02*
D03*
Y601000D02*
D03*
D22*
X752500Y285450D02*
D03*
Y277550D02*
D03*
X752000Y446050D02*
D03*
Y453950D02*
D03*
X751700Y611250D02*
D03*
Y619150D02*
D03*
X752000Y403550D02*
D03*
Y395450D02*
D03*
X752500Y327950D02*
D03*
Y336050D02*
D03*
Y293550D02*
D03*
Y269450D02*
D03*
Y235050D02*
D03*
Y226950D02*
D03*
X752000Y437950D02*
D03*
Y462050D02*
D03*
Y496450D02*
D03*
Y504550D02*
D03*
X751700Y560650D02*
D03*
Y568750D02*
D03*
Y669750D02*
D03*
Y661650D02*
D03*
Y603150D02*
D03*
Y627250D02*
D03*
D23*
X623402Y201976D02*
D03*
Y184024D02*
D03*
D24*
X635000Y199250D02*
D03*
D38*
X598598Y193000D02*
D03*
D41*
X657500Y410050D02*
D03*
Y402150D02*
D03*
X657000Y299950D02*
D03*
Y292050D02*
D03*
X637000Y264450D02*
D03*
Y256550D02*
D03*
X656600Y241450D02*
D03*
Y233550D02*
D03*
X657800Y468550D02*
D03*
Y460650D02*
D03*
X637000Y431450D02*
D03*
Y423550D02*
D03*
X637400Y589350D02*
D03*
Y597250D02*
D03*
X657400Y567250D02*
D03*
Y575150D02*
D03*
X657000Y625750D02*
D03*
Y633650D02*
D03*
X301000Y710950D02*
D03*
Y703050D02*
D03*
X81000Y730050D02*
D03*
Y737950D02*
D03*
D43*
X728387Y311000D02*
D03*
Y252500D02*
D03*
Y420800D02*
D03*
Y479300D02*
D03*
X728400Y644500D02*
D03*
X728387Y586000D02*
D03*
D44*
X504050Y488500D02*
D03*
X495950D02*
D03*
X504050Y474000D02*
D03*
X495950D02*
D03*
X505850Y311800D02*
D03*
X497750D02*
D03*
X505950Y298000D02*
D03*
X497850D02*
D03*
D46*
X513900Y440500D02*
D03*
X496100D02*
D03*
X515500Y264000D02*
D03*
X497700D02*
D03*
D51*
X290905Y375410D02*
D03*
X286968D02*
D03*
X283032D02*
D03*
X279095D02*
D03*
X255906D02*
D03*
X251969D02*
D03*
X248031D02*
D03*
X244094D02*
D03*
X220905D02*
D03*
X216968D02*
D03*
X213032D02*
D03*
X209095D02*
D03*
X285906Y547410D02*
D03*
X281968D02*
D03*
X278031D02*
D03*
X274095D02*
D03*
D55*
X158142Y399850D02*
D03*
Y431150D02*
D03*
X175858Y399850D02*
D03*
Y431150D02*
D03*
X158283Y486500D02*
D03*
Y517799D02*
D03*
X176000Y486500D02*
D03*
Y517799D02*
D03*
D57*
X168258Y448740D02*
D03*
Y476240D02*
D03*
D58*
Y441260D02*
D03*
X175742Y445000D02*
D03*
X168258Y468760D02*
D03*
X175742Y472500D02*
D03*
D59*
X85484Y466890D02*
D03*
Y464921D02*
D03*
Y462953D02*
D03*
Y460984D02*
D03*
Y459016D02*
D03*
Y457047D02*
D03*
Y455079D02*
D03*
Y453110D02*
D03*
Y646890D02*
D03*
Y644921D02*
D03*
Y642953D02*
D03*
Y640984D02*
D03*
Y639016D02*
D03*
Y637047D02*
D03*
Y635079D02*
D03*
Y633110D02*
D03*
D60*
Y450551D02*
D03*
Y469449D02*
D03*
Y472598D02*
D03*
Y447402D02*
D03*
Y630551D02*
D03*
Y649449D02*
D03*
Y652598D02*
D03*
Y627402D02*
D03*
D61*
X141541Y463937D02*
D03*
Y461969D02*
D03*
Y460000D02*
D03*
Y458032D02*
D03*
Y456063D02*
D03*
X126459D02*
D03*
Y458032D02*
D03*
Y460000D02*
D03*
Y461969D02*
D03*
Y463937D02*
D03*
D62*
X137937Y452459D02*
D03*
X135968D02*
D03*
X134000D02*
D03*
X132032D02*
D03*
X130063D02*
D03*
Y467541D02*
D03*
X132032D02*
D03*
X134000D02*
D03*
X135968D02*
D03*
D63*
X137937D02*
D03*
D68*
X92742Y706850D02*
D03*
X110458D02*
D03*
Y738150D02*
D03*
X92742D02*
D03*
D69*
X635000Y201950D02*
D03*
D70*
X274978Y288147D02*
D03*
D71*
Y285646D02*
D03*
D72*
X206079Y293559D02*
D03*
D73*
X205685Y285685D02*
D03*
Y277811D02*
D03*
Y269937D02*
D03*
Y262063D02*
D03*
Y254189D02*
D03*
Y246315D02*
D03*
Y238441D02*
D03*
X266315D02*
D03*
Y246315D02*
D03*
Y254189D02*
D03*
Y262063D02*
D03*
Y269937D02*
D03*
Y277811D02*
D03*
Y285685D02*
D03*
Y293559D02*
D03*
D74*
X278102Y270000D02*
D03*
X274700D02*
D03*
X280899Y444800D02*
D03*
X284301D02*
D03*
X280899Y450200D02*
D03*
X284301D02*
D03*
X674193Y316000D02*
D03*
X670807D02*
D03*
X673693Y257500D02*
D03*
X670307D02*
D03*
X650307Y249500D02*
D03*
X653693D02*
D03*
X673793Y484300D02*
D03*
X670407D02*
D03*
X650114Y416000D02*
D03*
X653500D02*
D03*
X673793Y425200D02*
D03*
X670407D02*
D03*
X116799Y443000D02*
D03*
X120201D02*
D03*
X209799Y411000D02*
D03*
X213201D02*
D03*
X333401Y503500D02*
D03*
X329999D02*
D03*
X333402Y348000D02*
D03*
X330000D02*
D03*
X173701Y456000D02*
D03*
X170299D02*
D03*
Y461500D02*
D03*
X173701D02*
D03*
X113299Y456500D02*
D03*
X116701D02*
D03*
X113299Y461500D02*
D03*
X116701D02*
D03*
X152201Y446600D02*
D03*
X148799D02*
D03*
X148800Y451800D02*
D03*
X152202D02*
D03*
X653700Y582400D02*
D03*
X650314D02*
D03*
X670307Y591000D02*
D03*
X673693D02*
D03*
X670400Y649500D02*
D03*
X673786D02*
D03*
D75*
X189887Y272044D02*
D03*
Y277832D02*
D03*
D76*
X182369Y270594D02*
D03*
Y277799D02*
D03*
D77*
X196000Y274307D02*
D03*
Y277693D02*
D03*
X136500Y444193D02*
D03*
Y440807D02*
D03*
X131500Y444193D02*
D03*
Y440807D02*
D03*
X195500Y419693D02*
D03*
Y416307D02*
D03*
X190500Y419693D02*
D03*
Y416307D02*
D03*
D78*
X254100Y496501D02*
D03*
Y493099D02*
D03*
X259200Y641401D02*
D03*
Y637999D02*
D03*
X264100Y641401D02*
D03*
Y637999D02*
D03*
X635000Y180607D02*
D03*
Y183993D02*
D03*
X654500Y497800D02*
D03*
Y501186D02*
D03*
X655000Y325693D02*
D03*
Y322307D02*
D03*
X674000Y300693D02*
D03*
Y297307D02*
D03*
X654500Y271307D02*
D03*
Y274693D02*
D03*
X673000Y242193D02*
D03*
Y238807D02*
D03*
X655000Y329307D02*
D03*
Y332693D02*
D03*
X571500Y522307D02*
D03*
Y525693D02*
D03*
X575400Y349507D02*
D03*
Y352893D02*
D03*
X673900Y469293D02*
D03*
Y465907D02*
D03*
X654500Y493186D02*
D03*
Y489800D02*
D03*
Y438307D02*
D03*
Y441693D02*
D03*
X673700Y410800D02*
D03*
Y407414D02*
D03*
X141500Y440799D02*
D03*
Y444201D02*
D03*
X189500Y485799D02*
D03*
Y489201D02*
D03*
X160500Y440299D02*
D03*
Y443701D02*
D03*
Y473799D02*
D03*
Y477201D02*
D03*
X103500Y468900D02*
D03*
Y465498D02*
D03*
X103600Y451299D02*
D03*
Y454701D02*
D03*
X654600Y607393D02*
D03*
Y604007D02*
D03*
X654700Y654907D02*
D03*
Y658293D02*
D03*
Y666193D02*
D03*
Y662807D02*
D03*
X673500Y572614D02*
D03*
Y576000D02*
D03*
X673600Y631114D02*
D03*
Y634500D02*
D03*
X299000Y591693D02*
D03*
Y588307D02*
D03*
X298000Y723693D02*
D03*
Y720307D02*
D03*
D79*
X246593Y493226D02*
D03*
D80*
X249094D02*
D03*
D81*
X429555Y350803D02*
D03*
X420500D02*
D03*
X411445D02*
D03*
D82*
X420500Y326197D02*
D03*
D83*
X275905Y712913D02*
D03*
X288032D02*
D03*
X275905Y711339D02*
D03*
X288032D02*
D03*
X275905Y709764D02*
D03*
X288032D02*
D03*
X275905Y708189D02*
D03*
X288032D02*
D03*
X275905Y706614D02*
D03*
X288032D02*
D03*
X275905Y705039D02*
D03*
X288032D02*
D03*
X275905Y703465D02*
D03*
X288032D02*
D03*
X275905Y701890D02*
D03*
X288032D02*
D03*
X275905Y700315D02*
D03*
X288032D02*
D03*
X275905Y698740D02*
D03*
X288032D02*
D03*
X275905Y697165D02*
D03*
X288032D02*
D03*
X275905Y695590D02*
D03*
X288032D02*
D03*
X275905Y694016D02*
D03*
X288032D02*
D03*
X275905Y692441D02*
D03*
X288032D02*
D03*
X275905Y690866D02*
D03*
X288032D02*
D03*
X275905Y689291D02*
D03*
X288032D02*
D03*
X275905Y687716D02*
D03*
X288032D02*
D03*
X275905Y686142D02*
D03*
X288032D02*
D03*
X275905Y684567D02*
D03*
X288032D02*
D03*
X275905Y682992D02*
D03*
X288032D02*
D03*
X275905Y681417D02*
D03*
X288032D02*
D03*
X275905Y679843D02*
D03*
X288032D02*
D03*
X275905Y678268D02*
D03*
X288032D02*
D03*
X275905Y676693D02*
D03*
X288032D02*
D03*
X275905Y675118D02*
D03*
X288032D02*
D03*
X275905Y673543D02*
D03*
X288032D02*
D03*
X275905Y671969D02*
D03*
X288032D02*
D03*
X275905Y670394D02*
D03*
X288032D02*
D03*
X275905Y668819D02*
D03*
X288032D02*
D03*
X275905Y667244D02*
D03*
X288032D02*
D03*
X275905Y665669D02*
D03*
X288032D02*
D03*
X275905Y664094D02*
D03*
X288032D02*
D03*
X275905Y662520D02*
D03*
X288032D02*
D03*
X275905Y660945D02*
D03*
X288032D02*
D03*
X275905Y659370D02*
D03*
X288032D02*
D03*
X275905Y657795D02*
D03*
X288032D02*
D03*
X275905Y656220D02*
D03*
X288032D02*
D03*
X275905Y654646D02*
D03*
X288032D02*
D03*
X275905Y653071D02*
D03*
X288032D02*
D03*
X275905Y651496D02*
D03*
X288032D02*
D03*
X275905Y649921D02*
D03*
X288032D02*
D03*
X275905Y648347D02*
D03*
X288032D02*
D03*
X275905Y646772D02*
D03*
X288032D02*
D03*
X275905Y645197D02*
D03*
X288032D02*
D03*
X275905Y643622D02*
D03*
X288032D02*
D03*
X275905Y642047D02*
D03*
X288032D02*
D03*
X275905Y640472D02*
D03*
X288032D02*
D03*
X275905Y638898D02*
D03*
X288032D02*
D03*
X275905Y637323D02*
D03*
X288032D02*
D03*
X275905Y635748D02*
D03*
X288032D02*
D03*
X142047Y712913D02*
D03*
X154173D02*
D03*
X142047Y711339D02*
D03*
X154173D02*
D03*
X142047Y709764D02*
D03*
X154173D02*
D03*
X142047Y708189D02*
D03*
X154173D02*
D03*
X142047Y706614D02*
D03*
X154173D02*
D03*
X142047Y705039D02*
D03*
X154173D02*
D03*
X142047Y703465D02*
D03*
X154173D02*
D03*
X142047Y701890D02*
D03*
X154173D02*
D03*
X142047Y700315D02*
D03*
X154173D02*
D03*
X142047Y698740D02*
D03*
X154173D02*
D03*
X142047Y697165D02*
D03*
X154173D02*
D03*
X142047Y695591D02*
D03*
X154173D02*
D03*
X142047Y694016D02*
D03*
X154173D02*
D03*
X142047Y692441D02*
D03*
X154173D02*
D03*
X142047Y690866D02*
D03*
X154173D02*
D03*
X142047Y689291D02*
D03*
X154173D02*
D03*
X142047Y687717D02*
D03*
X154173D02*
D03*
X142047Y686142D02*
D03*
X154173D02*
D03*
X142047Y684567D02*
D03*
X154173D02*
D03*
X142047Y682992D02*
D03*
X154173D02*
D03*
X142047Y681417D02*
D03*
X154173D02*
D03*
X142047Y679843D02*
D03*
X154173D02*
D03*
X142047Y678268D02*
D03*
X154173D02*
D03*
X142047Y676693D02*
D03*
X154173D02*
D03*
X142047Y675118D02*
D03*
X154173D02*
D03*
X142047Y673543D02*
D03*
X154173D02*
D03*
X142047Y671969D02*
D03*
X154173D02*
D03*
X142047Y670394D02*
D03*
X154173D02*
D03*
X142047Y668819D02*
D03*
X154173D02*
D03*
X142047Y667244D02*
D03*
X154173D02*
D03*
X142047Y665669D02*
D03*
X154173D02*
D03*
X142047Y664094D02*
D03*
X154173D02*
D03*
X142047Y662520D02*
D03*
X154173D02*
D03*
X142047Y660945D02*
D03*
X154173D02*
D03*
X142047Y659370D02*
D03*
X154173D02*
D03*
X142047Y657795D02*
D03*
X154173D02*
D03*
X142047Y656220D02*
D03*
X154173D02*
D03*
X142047Y654646D02*
D03*
X154173D02*
D03*
X142047Y653071D02*
D03*
X154173D02*
D03*
X142047Y651496D02*
D03*
X154173D02*
D03*
X142047Y649921D02*
D03*
X154173D02*
D03*
X142047Y648347D02*
D03*
X154173D02*
D03*
X142047Y646772D02*
D03*
X154173D02*
D03*
X142047Y645197D02*
D03*
X154173D02*
D03*
X142047Y643622D02*
D03*
X154173D02*
D03*
X142047Y642047D02*
D03*
X154173D02*
D03*
X142047Y640473D02*
D03*
X154173D02*
D03*
X142047Y638898D02*
D03*
X154173D02*
D03*
X142047Y637323D02*
D03*
X154173D02*
D03*
X142047Y635748D02*
D03*
X154173D02*
D03*
D84*
X646360Y598241D02*
D03*
X653840D02*
D03*
Y588359D02*
D03*
X650100D02*
D03*
X646360D02*
D03*
X646260Y265441D02*
D03*
X653740D02*
D03*
Y255559D02*
D03*
X650000D02*
D03*
X646260D02*
D03*
Y432441D02*
D03*
X653740D02*
D03*
Y422559D02*
D03*
X650000D02*
D03*
X646260D02*
D03*
D85*
X672341Y604040D02*
D03*
Y596560D02*
D03*
X662459D02*
D03*
Y600300D02*
D03*
Y604040D02*
D03*
X672941Y329240D02*
D03*
Y321760D02*
D03*
X663059D02*
D03*
Y325500D02*
D03*
Y329240D02*
D03*
X672400Y270800D02*
D03*
Y263320D02*
D03*
X662518D02*
D03*
Y267060D02*
D03*
Y270800D02*
D03*
X672441Y497540D02*
D03*
Y490060D02*
D03*
X662559D02*
D03*
Y493800D02*
D03*
Y497540D02*
D03*
X672441Y438240D02*
D03*
Y430760D02*
D03*
X662559D02*
D03*
Y434500D02*
D03*
Y438240D02*
D03*
X672441Y662440D02*
D03*
Y654960D02*
D03*
X662559D02*
D03*
Y658700D02*
D03*
Y662440D02*
D03*
D86*
X667100Y300060D02*
D03*
Y292540D02*
D03*
X666400Y241460D02*
D03*
Y233940D02*
D03*
X667400Y468560D02*
D03*
Y461040D02*
D03*
X667200Y410060D02*
D03*
Y402540D02*
D03*
X667000Y567640D02*
D03*
Y575160D02*
D03*
X666900Y626140D02*
D03*
Y633660D02*
D03*
D87*
X568602Y468500D02*
D03*
X561398D02*
D03*
X568602Y456000D02*
D03*
X561398D02*
D03*
X569602Y281100D02*
D03*
X562398D02*
D03*
X569602Y296000D02*
D03*
X562398D02*
D03*
D88*
X514068Y345800D02*
D03*
X497532D02*
D03*
X512268Y521000D02*
D03*
X495732D02*
D03*
D89*
X561260Y495400D02*
D03*
X565000D02*
D03*
X568740D02*
D03*
Y504600D02*
D03*
X565000D02*
D03*
X561260D02*
D03*
Y329600D02*
D03*
X565000D02*
D03*
X568740D02*
D03*
Y320400D02*
D03*
X565000D02*
D03*
X561260D02*
D03*
D90*
X427693Y358500D02*
D03*
X424307D02*
D03*
X411307Y359000D02*
D03*
X414693D02*
D03*
X411307Y364000D02*
D03*
X414693D02*
D03*
X165107Y392900D02*
D03*
X168493D02*
D03*
X165414Y524800D02*
D03*
X168800D02*
D03*
X106193Y441500D02*
D03*
X102807D02*
D03*
X152193Y466500D02*
D03*
X148807D02*
D03*
X113307Y449000D02*
D03*
X116693D02*
D03*
X95907Y617500D02*
D03*
X99293D02*
D03*
X95907Y611500D02*
D03*
X99293D02*
D03*
D91*
X584800Y336600D02*
D03*
X582587D02*
D03*
X583106Y513500D02*
D03*
X580894D02*
D03*
D92*
X234512Y446488D02*
D03*
Y440976D02*
D03*
Y452000D02*
D03*
X240024Y440976D02*
D03*
Y446488D02*
D03*
Y452000D02*
D03*
X229000Y440976D02*
D03*
Y446488D02*
D03*
Y452000D02*
D03*
D93*
X204118Y417945D02*
D03*
X209118D02*
D03*
X214118D02*
D03*
X219118D02*
D03*
X224118D02*
D03*
X229118D02*
D03*
X234118D02*
D03*
X239118D02*
D03*
X244118D02*
D03*
X249118D02*
D03*
X254118D02*
D03*
X259118D02*
D03*
X264118D02*
D03*
X269118D02*
D03*
Y486842D02*
D03*
X264118D02*
D03*
X259118D02*
D03*
X254118D02*
D03*
X249118D02*
D03*
X244118D02*
D03*
X239118D02*
D03*
X234118D02*
D03*
X229118D02*
D03*
X224118D02*
D03*
X219118D02*
D03*
X214118D02*
D03*
X209118D02*
D03*
X204118D02*
D03*
D94*
X274039Y424894D02*
D03*
Y429894D02*
D03*
Y434894D02*
D03*
Y439894D02*
D03*
Y444894D02*
D03*
Y449894D02*
D03*
Y454894D02*
D03*
Y459894D02*
D03*
Y464894D02*
D03*
Y469894D02*
D03*
Y474894D02*
D03*
Y479894D02*
D03*
D95*
X322240Y503500D02*
D03*
X318500D02*
D03*
X317760Y348000D02*
D03*
X321500D02*
D03*
D96*
X134000Y460000D02*
D03*
D97*
X95000Y454521D02*
D03*
Y457080D02*
D03*
Y465480D02*
D03*
Y462921D02*
D03*
X98000Y648279D02*
D03*
Y645720D02*
D03*
Y631421D02*
D03*
Y633980D02*
D03*
D98*
X94820Y441400D02*
D03*
X97379D02*
D03*
X96720Y605500D02*
D03*
X99279D02*
D03*
D99*
X299000Y576130D02*
D03*
Y579870D02*
D03*
X298000Y731130D02*
D03*
Y734870D02*
D03*
D100*
X96853Y640000D02*
D03*
X100947Y641378D02*
D03*
Y638622D02*
D03*
D101*
X714500Y373300D02*
D03*
X714000Y538000D02*
D03*
X714315Y204500D02*
D03*
X734185Y373300D02*
D03*
X733685Y538000D02*
D03*
X734000Y204500D02*
D03*
D102*
X280000Y570000D02*
D03*
Y758976D02*
D03*
X150079Y570000D02*
D03*
Y758976D02*
D03*
D103*
X794000Y762000D02*
D03*
Y752000D02*
D03*
Y714000D02*
D03*
Y704000D02*
D03*
D104*
X784000Y762000D02*
D03*
Y714000D02*
D03*
D105*
Y752000D02*
D03*
Y704000D02*
D03*
D106*
X355000Y570000D02*
D03*
X345000D02*
D03*
X355000Y580000D02*
D03*
X345000D02*
D03*
X355000Y590000D02*
D03*
X345000D02*
D03*
X355000Y600000D02*
D03*
X345000D02*
D03*
X355000Y610000D02*
D03*
X345000D02*
D03*
X355000Y620000D02*
D03*
X345000D02*
D03*
X355000Y630000D02*
D03*
X345000D02*
D03*
X355000Y640000D02*
D03*
X345000D02*
D03*
X355000Y650000D02*
D03*
X345000D02*
D03*
X355000Y660000D02*
D03*
X345000D02*
D03*
X355000Y670000D02*
D03*
X345000D02*
D03*
X355000Y680000D02*
D03*
X345000D02*
D03*
X355000Y690000D02*
D03*
X345000D02*
D03*
X355000Y700000D02*
D03*
X345000D02*
D03*
X355000Y710000D02*
D03*
X345000D02*
D03*
X355000Y720000D02*
D03*
X345000D02*
D03*
X355000Y730000D02*
D03*
X345000D02*
D03*
X355000Y740000D02*
D03*
X345000D02*
D03*
X355000Y750000D02*
D03*
X345000D02*
D03*
X355000Y760000D02*
D03*
D107*
X345000D02*
D03*
D108*
X778000Y232000D02*
D03*
Y400000D02*
D03*
X777500Y599500D02*
D03*
Y297500D02*
D03*
X778000Y466000D02*
D03*
D109*
Y262000D02*
D03*
Y430000D02*
D03*
X777500Y629500D02*
D03*
Y327500D02*
D03*
X778000Y496000D02*
D03*
D110*
X664024Y703500D02*
D03*
X753000D02*
D03*
X664524Y752000D02*
D03*
X753500D02*
D03*
D111*
X508827Y193000D02*
D03*
D112*
X537173D02*
D03*
D113*
X464000Y347000D02*
D03*
Y352000D02*
D03*
X293000Y475000D02*
D03*
X154000Y545000D02*
D03*
X123000Y566000D02*
D03*
X352000Y554000D02*
D03*
D114*
X464000Y357000D02*
D03*
X293000Y470000D02*
D03*
X123000Y571000D02*
D03*
D115*
X322933Y391000D02*
D03*
Y400843D02*
D03*
Y381157D02*
D03*
Y410685D02*
D03*
Y480685D02*
D03*
Y451158D02*
D03*
Y470843D02*
D03*
Y461000D02*
D03*
D116*
Y371315D02*
D03*
Y441315D02*
D03*
D117*
X83220Y442992D02*
D03*
Y477008D02*
D03*
Y622992D02*
D03*
Y657008D02*
D03*
D118*
X67472Y442992D02*
D03*
Y477008D02*
D03*
Y622992D02*
D03*
Y657008D02*
D03*
D119*
X149000Y545000D02*
D03*
X357000Y554000D02*
D03*
M02*
