G04*
G04 #@! TF.GenerationSoftware,Altium Limited,Altium Designer,26.1.1 (7)*
G04*
G04 Layer_Color=65535*
%FSLAX25Y25*%
%MOIN*%
G70*
G04*
G04 #@! TF.SameCoordinates,3E101659-1531-44DD-BC6F-E1116C570119*
G04*
G04*
G04 #@! TF.FilePolarity,Positive*
G04*
G01*
G75*
%ADD10C,0.01000*%
%ADD11C,0.00787*%
%ADD12C,0.00984*%
%ADD13C,0.00600*%
%ADD14C,0.00500*%
%ADD15C,0.01500*%
%ADD16C,0.00300*%
%ADD17R,0.01500X0.05600*%
%ADD18R,0.05600X0.01500*%
G36*
X477955Y698957D02*
X477824Y699163D01*
X477637Y699500D01*
X477562Y699575D01*
X477524Y699725D01*
X477262Y700099D01*
X477225Y700249D01*
X476963Y700661D01*
X476813Y700923D01*
X476439Y701597D01*
X476251Y701896D01*
X476027Y702308D01*
X475952Y702383D01*
X475858Y702626D01*
X475708Y702851D01*
X475334Y703488D01*
X475259Y703675D01*
X475128Y703806D01*
X475053Y703993D01*
X474866Y704330D01*
X474679Y704630D01*
X474379Y705191D01*
X474304Y705266D01*
X474229Y705453D01*
X474117Y705641D01*
X473967Y705865D01*
X473818Y706127D01*
X473668Y706352D01*
X473612Y706558D01*
X473443Y706726D01*
X473331Y707026D01*
X473069Y707438D01*
X472882Y707775D01*
X472732Y708037D01*
X472582Y708261D01*
X472488Y708505D01*
X472432Y708561D01*
X472395Y708636D01*
X472320Y708711D01*
X472283Y708786D01*
X472058Y709198D01*
X471983Y709385D01*
X471945Y709460D01*
X471796Y709609D01*
X471721Y709797D01*
X471534Y710134D01*
X471384Y710396D01*
X471197Y710695D01*
X471103Y710939D01*
X470972Y711070D01*
X470673Y711631D01*
X470598Y711706D01*
X470373Y712118D01*
X469999Y712792D01*
X469774Y713204D01*
X469587Y713466D01*
X469362Y713878D01*
X469175Y714215D01*
X468950Y714627D01*
X468763Y714889D01*
X468651Y715151D01*
X468538Y715338D01*
X468389Y715600D01*
X468201Y715862D01*
X468164Y716012D01*
X467920Y716368D01*
X467846Y716555D01*
X467715Y716761D01*
X467640Y716836D01*
X467602Y716986D01*
X467527Y717060D01*
X467490Y717135D01*
X467190Y717697D01*
X467115Y717772D01*
X467078Y717847D01*
X466891Y718184D01*
X466779Y718371D01*
X466591Y718708D01*
X466329Y719195D01*
X466254Y719269D01*
X466179Y719457D01*
X466067Y719644D01*
X465992Y719794D01*
X466123Y719962D01*
X466273Y720000D01*
X467078Y719981D01*
X467246Y720000D01*
X467359Y719962D01*
X468856Y720000D01*
X494448Y719981D01*
X494804Y720000D01*
X494916Y719962D01*
X495141Y719925D01*
X495197Y719869D01*
X495291Y719625D01*
X495347Y719569D01*
X495384Y719494D01*
X495534Y719232D01*
X495721Y718895D01*
X495908Y718596D01*
X495946Y718521D01*
X496133Y718184D01*
X496283Y717959D01*
X496582Y717397D01*
X496732Y717135D01*
X496807Y717060D01*
X496882Y716873D01*
X496919Y716798D01*
X497069Y716574D01*
X497294Y716162D01*
X497481Y715862D01*
X497631Y715600D01*
X497818Y715263D01*
X497968Y715001D01*
X498080Y714814D01*
X498305Y714402D01*
X498567Y713990D01*
X498829Y713503D01*
X498979Y713241D01*
X499016Y713166D01*
X499166Y712904D01*
X499428Y712492D01*
X499466Y712418D01*
X499578Y712155D01*
X499615Y712081D01*
X499728Y711968D01*
X499765Y711893D01*
X500027Y711407D01*
X500139Y711219D01*
X500289Y710957D01*
X500364Y710882D01*
X500401Y710733D01*
X500589Y710470D01*
X500626Y710396D01*
X501076Y709572D01*
X501150Y709497D01*
X501244Y709254D01*
X501394Y709029D01*
X501450Y708973D01*
X501749Y708411D01*
X501824Y708336D01*
X501899Y708149D01*
X502049Y707925D01*
X502124Y707737D01*
X502199Y707662D01*
X502236Y707587D01*
X502536Y707026D01*
X502611Y706951D01*
X502704Y706708D01*
X502835Y706577D01*
X502929Y706333D01*
X503079Y706109D01*
X503247Y705790D01*
X503434Y705528D01*
X503472Y705378D01*
X503659Y705116D01*
X503959Y704555D01*
X504033Y704480D01*
X504221Y704143D01*
X504445Y703731D01*
X504820Y703057D01*
X504970Y702832D01*
X505194Y702421D01*
X505306Y702233D01*
X505456Y701971D01*
X505643Y701672D01*
X505793Y701410D01*
X506055Y700923D01*
X506168Y700810D01*
X506224Y700604D01*
X506280Y700548D01*
X506317Y700473D01*
X506505Y700137D01*
X506579Y700062D01*
X506617Y699987D01*
X506767Y699650D01*
X506804Y699575D01*
X506954Y699425D01*
X507029Y699238D01*
X507179Y698976D01*
X507366Y698639D01*
X507553Y698339D01*
X507647Y698096D01*
X507815Y697927D01*
X507853Y697778D01*
X508002Y697553D01*
X508227Y697141D01*
X508414Y696879D01*
X508452Y696729D01*
X508639Y696467D01*
X508676Y696317D01*
X508789Y696205D01*
X508826Y696130D01*
X509088Y695644D01*
X509238Y695419D01*
X509332Y695175D01*
X509425Y695082D01*
X509687Y694595D01*
X509837Y694370D01*
X509987Y694108D01*
X510211Y693696D01*
X510286Y693622D01*
X510380Y693378D01*
X510436Y693322D01*
X510698Y692835D01*
X510885Y692573D01*
X510979Y692330D01*
X511072Y692236D01*
X511110Y692124D01*
X511372Y691712D01*
X511634Y691225D01*
X511784Y691001D01*
X512046Y690514D01*
X512196Y690289D01*
X512458Y689803D01*
X512645Y689503D01*
X512795Y689166D01*
X512832Y689091D01*
X512907Y689016D01*
X512945Y688941D01*
X513020Y688866D01*
X513113Y688623D01*
X513300Y688323D01*
X513356Y688267D01*
X513731Y687593D01*
X513881Y687369D01*
X513956Y687182D01*
X514105Y686919D01*
X514330Y686545D01*
X514405Y686470D01*
X514442Y686320D01*
X514704Y685909D01*
X515154Y685085D01*
X515229Y685010D01*
X515753Y684036D01*
X515828Y683961D01*
X515921Y683718D01*
X516052Y683587D01*
X516090Y683437D01*
X516240Y683213D01*
X516277Y683138D01*
X516427Y682913D01*
X516801Y682239D01*
X516951Y682015D01*
X516988Y681902D01*
X517176Y681603D01*
X517213Y681528D01*
X517288Y681453D01*
X517625Y680816D01*
X517850Y680405D01*
X518037Y680067D01*
X518112Y679993D01*
X518374Y679506D01*
X518561Y679206D01*
X518636Y679019D01*
X518786Y678794D01*
X519010Y678383D01*
X519160Y678158D01*
X519198Y678008D01*
X519385Y677821D01*
X519441Y677615D01*
X519534Y677522D01*
X519572Y677447D01*
X519797Y677035D01*
X520096Y676473D01*
X520208Y676361D01*
X520246Y676211D01*
X520321Y676136D01*
X520358Y676061D01*
X520583Y675649D01*
X520770Y675387D01*
X520864Y675144D01*
X520957Y675013D01*
X521219Y674526D01*
X521294Y674451D01*
X521556Y673965D01*
X521743Y673628D01*
X521856Y673515D01*
X521912Y673309D01*
X521968Y673253D01*
X522006Y673178D01*
X522155Y672954D01*
X522380Y672542D01*
X522455Y672467D01*
X522530Y672280D01*
X522567Y672205D01*
X522717Y671980D01*
X522942Y671568D01*
X523129Y671231D01*
X523316Y670932D01*
X523616Y670370D01*
X523691Y670295D01*
X524027Y669659D01*
X524102Y669584D01*
X524290Y669247D01*
X524514Y668835D01*
X524627Y668648D01*
X524851Y668236D01*
X525038Y667899D01*
X525113Y667824D01*
X525301Y667487D01*
X525563Y667000D01*
X525750Y666701D01*
X525937Y666364D01*
X526162Y665952D01*
X526311Y665727D01*
X526686Y665016D01*
X526798Y664903D01*
X526836Y664754D01*
X527098Y664342D01*
X527322Y663930D01*
X527397Y663855D01*
X527435Y663705D01*
X527603Y663499D01*
X527697Y663256D01*
X527734Y663181D01*
X527809Y663106D01*
X527847Y663031D01*
X528071Y662619D01*
X528146Y662545D01*
X528184Y662470D01*
X528408Y662058D01*
X528483Y661983D01*
X528521Y661833D01*
X528895Y661234D01*
X529157Y660747D01*
X529307Y660523D01*
X529382Y660335D01*
X529531Y660073D01*
X529644Y659961D01*
X529719Y659774D01*
X530018Y659250D01*
X530093Y659175D01*
X530168Y658988D01*
X530205Y658913D01*
X530393Y658613D01*
X530842Y657790D01*
X530917Y657715D01*
X531067Y657452D01*
X531291Y657041D01*
X531441Y656778D01*
X531553Y656591D01*
X531703Y656329D01*
X531928Y655917D01*
X532078Y655655D01*
X532227Y655431D01*
X532452Y655019D01*
X532527Y654944D01*
X532602Y654757D01*
X532752Y654495D01*
X532939Y654195D01*
X533126Y653858D01*
X533351Y653446D01*
X533538Y653109D01*
X533613Y653034D01*
X533875Y652548D01*
X533950Y652473D01*
X534062Y652211D01*
X534174Y652023D01*
X534249Y651948D01*
X534287Y651799D01*
X534474Y651537D01*
X534511Y651462D01*
X534773Y650975D01*
X534848Y650900D01*
X534942Y650657D01*
X535316Y650058D01*
X535485Y649777D01*
X535522Y649627D01*
X535635Y649515D01*
X535709Y649328D01*
X535822Y649140D01*
X535897Y649065D01*
X535972Y648878D01*
X536009Y648803D01*
X536159Y648579D01*
X536421Y648092D01*
X536496Y648017D01*
X536589Y647774D01*
X536683Y647680D01*
X537245Y646669D01*
X537394Y646445D01*
X537656Y645958D01*
X537881Y645546D01*
X538068Y645246D01*
X538106Y645171D01*
X538256Y644947D01*
X538293Y644872D01*
X538518Y644460D01*
X538705Y644161D01*
X538967Y643674D01*
X539229Y643262D01*
X539266Y643112D01*
X539341Y643037D01*
X539379Y642962D01*
X539529Y642738D01*
X539678Y642476D01*
X539940Y641989D01*
X540015Y641914D01*
X540109Y641671D01*
X540259Y641446D01*
X540427Y641165D01*
X540465Y641053D01*
X540727Y640641D01*
X540764Y640566D01*
X540876Y640379D01*
X541101Y639967D01*
X541251Y639742D01*
X541288Y639593D01*
X541401Y639480D01*
X541476Y639293D01*
X541588Y639106D01*
X541700Y638994D01*
X541794Y638750D01*
X541962Y638469D01*
X542149Y638132D01*
X542299Y637908D01*
X542337Y637758D01*
X542412Y637683D01*
X542449Y637608D01*
X542599Y637384D01*
X542824Y636972D01*
X543011Y636635D01*
X543086Y636560D01*
X543160Y636373D01*
X543198Y636298D01*
X543385Y636036D01*
X543423Y635886D01*
X543497Y635811D01*
X543759Y635324D01*
X543947Y635062D01*
X544246Y634501D01*
X544471Y634089D01*
X544621Y633864D01*
X544658Y633789D01*
X544920Y633302D01*
X545164Y632947D01*
X545257Y632741D01*
X545707Y631954D01*
X545781Y631880D01*
X545856Y631692D01*
X546006Y631430D01*
X546231Y631018D01*
X546418Y630756D01*
X546512Y630513D01*
X546643Y630382D01*
X546736Y630138D01*
X546867Y630007D01*
X546942Y629820D01*
X547129Y629483D01*
X547279Y629259D01*
X547317Y629109D01*
X547466Y628959D01*
X547504Y628809D01*
X547747Y628454D01*
X547822Y628266D01*
X548009Y627967D01*
X548065Y627911D01*
X548178Y627611D01*
X548290Y627499D01*
X548552Y627012D01*
X548664Y626825D01*
X549039Y626151D01*
X549114Y626076D01*
X549207Y625833D01*
X549263Y625776D01*
X549301Y625702D01*
X549451Y625477D01*
X549488Y625402D01*
X549675Y625065D01*
X549750Y624990D01*
X549844Y624747D01*
X549900Y624691D01*
X550125Y624279D01*
X550312Y623979D01*
X550536Y623567D01*
X550686Y623305D01*
X550911Y622893D01*
X551061Y622669D01*
X551360Y622107D01*
X551547Y621845D01*
X551622Y621658D01*
X552072Y620871D01*
X552221Y620647D01*
X552296Y620460D01*
X552446Y620310D01*
X552502Y620104D01*
X552558Y620048D01*
X552596Y619973D01*
X552671Y619898D01*
X552970Y619336D01*
X553158Y618999D01*
X553270Y618887D01*
X553326Y618681D01*
X553476Y618457D01*
X553757Y617951D01*
X553981Y617539D01*
X554094Y617427D01*
X554187Y617183D01*
X554318Y616978D01*
X554468Y616753D01*
X554505Y616641D01*
X554693Y616341D01*
X554842Y616079D01*
X554917Y616004D01*
X555011Y615761D01*
X555104Y615630D01*
X555404Y615068D01*
X555516Y614956D01*
X555610Y614712D01*
X555704Y614581D01*
X555891Y614244D01*
X556040Y613982D01*
X556190Y613758D01*
X556490Y613196D01*
X556565Y613121D01*
X556602Y612971D01*
X556677Y612896D01*
X556939Y612410D01*
X557014Y612335D01*
X557089Y612148D01*
X557126Y612073D01*
X557239Y611810D01*
X557201Y611661D01*
X557145Y611605D01*
X528240Y611642D01*
X528165Y611717D01*
X528090Y611754D01*
X528034Y611810D01*
X527940Y612054D01*
X527734Y612335D01*
X527472Y612821D01*
X527247Y613233D01*
X527173Y613308D01*
X526948Y613720D01*
X526686Y614207D01*
X526611Y614282D01*
X526536Y614469D01*
X526424Y614656D01*
X526349Y614731D01*
X526255Y614974D01*
X526162Y615068D01*
X526124Y615143D01*
X525862Y615630D01*
X525787Y615704D01*
X525675Y615967D01*
X525637Y616042D01*
X525488Y616266D01*
X525263Y616678D01*
X525113Y616903D01*
X525076Y617015D01*
X524889Y617277D01*
X524814Y617464D01*
X524739Y617539D01*
X524439Y618101D01*
X524290Y618326D01*
X524065Y618737D01*
X523915Y618999D01*
X523728Y619336D01*
X523466Y619748D01*
X523129Y620385D01*
X523054Y620460D01*
X522960Y620703D01*
X522811Y620928D01*
X522586Y621302D01*
X522417Y621620D01*
X522193Y621957D01*
X522099Y622201D01*
X522006Y622294D01*
X521968Y622369D01*
X521743Y622781D01*
X521594Y623043D01*
X521500Y623249D01*
X521425Y623286D01*
X521369Y623343D01*
X521332Y623492D01*
X520882Y624279D01*
X520770Y624466D01*
X520620Y624728D01*
X520433Y625065D01*
X520208Y625477D01*
X520021Y625739D01*
X519984Y625814D01*
X519909Y626001D01*
X519871Y626076D01*
X519703Y626282D01*
X519628Y626469D01*
X519441Y626769D01*
X519272Y627087D01*
X519123Y627312D01*
X519029Y627555D01*
X518898Y627686D01*
X518804Y627929D01*
X518711Y628023D01*
X518673Y628098D01*
X518449Y628510D01*
X518261Y628772D01*
X518224Y628959D01*
X518149Y629034D01*
X518112Y629109D01*
X517850Y629521D01*
X517588Y630007D01*
X517438Y630232D01*
X517400Y630382D01*
X517288Y630494D01*
X517101Y630831D01*
X516839Y631318D01*
X516689Y631580D01*
X516502Y631917D01*
X516427Y631992D01*
X516333Y632235D01*
X516240Y632329D01*
X516202Y632404D01*
X515977Y632816D01*
X515828Y633040D01*
X515734Y633284D01*
X515603Y633415D01*
X515509Y633658D01*
X515378Y633789D01*
X515285Y634032D01*
X515154Y634238D01*
X515004Y634463D01*
X514667Y635100D01*
X514517Y635324D01*
X514068Y636148D01*
X513918Y636373D01*
X513881Y636522D01*
X513619Y636897D01*
X513394Y637309D01*
X513319Y637384D01*
X513282Y637533D01*
X513094Y637795D01*
X513057Y637945D01*
X512982Y638020D01*
X512945Y638095D01*
X512870Y638170D01*
X512570Y638731D01*
X512196Y639405D01*
X512009Y639668D01*
X511709Y640229D01*
X511559Y640491D01*
X511447Y640678D01*
X511222Y641090D01*
X511035Y641390D01*
X510960Y641577D01*
X510848Y641689D01*
X510399Y642551D01*
X510267Y642682D01*
X510043Y642644D01*
X509837Y642438D01*
X509818Y642382D01*
X509743Y642345D01*
X509537Y642139D01*
X509519Y642083D01*
X509444Y642045D01*
X509238Y641839D01*
X509200Y641764D01*
X509107Y641671D01*
X509032Y641633D01*
X508246Y640847D01*
X508189Y640828D01*
X508152Y640753D01*
X507778Y640379D01*
X507740Y640304D01*
X507609Y640210D01*
X507366Y639967D01*
X507328Y639892D01*
X507197Y639798D01*
X506823Y639424D01*
X506748Y639387D01*
X506654Y639256D01*
X506486Y639087D01*
X506411Y639050D01*
X506355Y638994D01*
X506317Y638919D01*
X505438Y638039D01*
X505363Y638001D01*
X505306Y637945D01*
X505269Y637870D01*
X504932Y637533D01*
X504895Y637458D01*
X504838Y637402D01*
X504764Y637365D01*
X503940Y636541D01*
X503865Y636504D01*
X503809Y636447D01*
X503771Y636373D01*
X503565Y636167D01*
X503509Y636148D01*
X503472Y636073D01*
X502648Y635249D01*
X502629Y635193D01*
X502555Y635156D01*
X502423Y635062D01*
X502386Y634987D01*
X502180Y634781D01*
X502105Y634744D01*
X502049Y634688D01*
X502011Y634613D01*
X501094Y633696D01*
X501019Y633658D01*
X500832Y633433D01*
X500757Y633358D01*
X500701Y633340D01*
X500664Y633265D01*
X500589Y633190D01*
X500551Y633115D01*
X500420Y633021D01*
X499597Y632198D01*
X499540Y632179D01*
X499503Y632104D01*
X499260Y631861D01*
X499185Y631823D01*
X498997Y631599D01*
X498211Y630812D01*
X498136Y630775D01*
X498043Y630644D01*
X497837Y630438D01*
X497781Y630419D01*
X497743Y630344D01*
X497649Y630213D01*
X497575Y630176D01*
X497125Y629727D01*
X497051Y629689D01*
X496957Y629558D01*
X496751Y629352D01*
X496676Y629315D01*
X496582Y629184D01*
X495871Y628472D01*
X495852Y628416D01*
X495777Y628379D01*
X495665Y628266D01*
X495609Y628248D01*
X495572Y628173D01*
X495328Y627929D01*
X495253Y627892D01*
X495066Y627667D01*
X494991Y627592D01*
X494916Y627555D01*
X494823Y627461D01*
X494785Y627387D01*
X493868Y626469D01*
X493812Y626450D01*
X493699Y626263D01*
X493643Y626207D01*
X493568Y626170D01*
X493362Y625964D01*
X493344Y625908D01*
X493269Y625870D01*
X493025Y625627D01*
X492988Y625552D01*
X492932Y625496D01*
X492857Y625458D01*
X491977Y624578D01*
X491940Y624503D01*
X491883Y624447D01*
X491809Y624410D01*
X491022Y623624D01*
X490947Y623586D01*
X490798Y623361D01*
X490723Y623324D01*
X490517Y623118D01*
X490479Y623043D01*
X490423Y622987D01*
X490348Y622950D01*
X489562Y622163D01*
X489487Y622126D01*
X489394Y621995D01*
X489057Y621658D01*
X489038Y621602D01*
X488963Y621564D01*
X488720Y621321D01*
X488682Y621246D01*
X488551Y621115D01*
X488476Y621077D01*
X488270Y620871D01*
X488233Y620797D01*
X488008Y620609D01*
X487765Y620366D01*
X487690Y620329D01*
X487596Y620198D01*
X487540Y620104D01*
X487465Y620066D01*
X486716Y619318D01*
X486642Y619280D01*
X486585Y619224D01*
X486548Y619149D01*
X486342Y618943D01*
X486267Y618906D01*
X486117Y618681D01*
X486042Y618606D01*
X485968Y618569D01*
X485256Y617857D01*
X485181Y617820D01*
X485032Y617595D01*
X484957Y617558D01*
X484751Y617352D01*
X484713Y617277D01*
X484582Y617183D01*
X483796Y616397D01*
X483740Y616378D01*
X483702Y616304D01*
X483459Y616060D01*
X483384Y616023D01*
X483290Y615892D01*
X483028Y615630D01*
X482991Y615555D01*
X482935Y615499D01*
X482860Y615461D01*
X482411Y615012D01*
X482336Y614974D01*
X482186Y614750D01*
X482111Y614712D01*
X482036Y614637D01*
X481980Y614619D01*
X481943Y614544D01*
X481868Y614469D01*
X481849Y614413D01*
X481774Y614375D01*
X481081Y613683D01*
X481063Y613626D01*
X480988Y613589D01*
X480913Y613514D01*
X480857Y613495D01*
X480819Y613420D01*
X480744Y613346D01*
X480726Y613289D01*
X480651Y613252D01*
X480576Y613177D01*
X480520Y613158D01*
X480482Y613084D01*
X480351Y612915D01*
X480276Y612878D01*
X479528Y612129D01*
X479453Y612091D01*
X479396Y612035D01*
X479359Y611960D01*
X479247Y611848D01*
X479228Y611792D01*
X479153Y611754D01*
X478966Y611642D01*
X478816Y611605D01*
X443433Y611642D01*
X443415Y611810D01*
X443583Y612054D01*
X443658Y612091D01*
X443864Y612297D01*
X443901Y612372D01*
X444032Y612503D01*
X444107Y612541D01*
X444781Y613215D01*
X444856Y613252D01*
X444912Y613308D01*
X444950Y613383D01*
X445904Y614338D01*
X445979Y614375D01*
X446129Y614600D01*
X446335Y614769D01*
X446466Y614937D01*
X446541Y614974D01*
X446747Y615180D01*
X446784Y615255D01*
X446841Y615311D01*
X446915Y615349D01*
X447458Y615892D01*
X447496Y615967D01*
X447552Y616023D01*
X447627Y616060D01*
X447758Y616191D01*
X447795Y616266D01*
X447926Y616397D01*
X448001Y616435D01*
X448095Y616491D01*
X448132Y616566D01*
X448919Y617352D01*
X448956Y617427D01*
X449012Y617483D01*
X449087Y617521D01*
X449218Y617614D01*
X449274Y617745D01*
X449349Y617782D01*
X450042Y618475D01*
X450079Y618550D01*
X450304Y618737D01*
X450379Y618812D01*
X450416Y618887D01*
X450641Y619037D01*
X450753Y619224D01*
X450809Y619280D01*
X450884Y619318D01*
X451802Y620235D01*
X451839Y620310D01*
X451895Y620366D01*
X451970Y620403D01*
X452139Y620572D01*
X452176Y620647D01*
X452307Y620741D01*
X453262Y621695D01*
X453299Y621770D01*
X453356Y621826D01*
X453430Y621864D01*
X453599Y622032D01*
X453618Y622088D01*
X453692Y622126D01*
X454685Y623118D01*
X454722Y623193D01*
X454778Y623249D01*
X454947Y623343D01*
X454984Y623418D01*
X455115Y623586D01*
X455190Y623624D01*
X455976Y624410D01*
X456051Y624447D01*
X456145Y624578D01*
X456445Y624878D01*
X456482Y624953D01*
X456538Y625009D01*
X456613Y625046D01*
X457605Y626039D01*
X457624Y626095D01*
X457699Y626132D01*
X457867Y626301D01*
X457905Y626375D01*
X457961Y626432D01*
X458036Y626469D01*
X458167Y626563D01*
X458204Y626638D01*
X459028Y627461D01*
X459047Y627518D01*
X459234Y627630D01*
X459290Y627686D01*
X459384Y627854D01*
X459459Y627892D01*
X459870Y628304D01*
X459945Y628341D01*
X460170Y628641D01*
X460245Y628678D01*
X460320Y628753D01*
X460376Y628772D01*
X460413Y628847D01*
X460619Y629053D01*
X460675Y629071D01*
X460713Y629146D01*
X460807Y629277D01*
X460881Y629315D01*
X460956Y629390D01*
X461031Y629427D01*
X461125Y629558D01*
X461874Y630307D01*
X461911Y630382D01*
X461967Y630438D01*
X462042Y630475D01*
X462136Y630532D01*
X462173Y630607D01*
X462267Y630737D01*
X462342Y630775D01*
X463465Y631898D01*
X463540Y631936D01*
X463690Y632160D01*
X463764Y632198D01*
X463933Y632329D01*
X463970Y632404D01*
X464757Y633190D01*
X464794Y633265D01*
X464925Y633358D01*
X465880Y634313D01*
X465899Y634369D01*
X465974Y634407D01*
X466348Y634781D01*
X466423Y634819D01*
X466573Y635043D01*
X466779Y635212D01*
X467771Y636204D01*
X467846Y636241D01*
X467995Y636466D01*
X468070Y636504D01*
X468314Y636747D01*
X468332Y636803D01*
X468407Y636841D01*
X468725Y637159D01*
X468763Y637234D01*
X468819Y637290D01*
X468894Y637327D01*
X469063Y637496D01*
X469100Y637571D01*
X469156Y637627D01*
X469231Y637664D01*
X469399Y637833D01*
X469437Y637908D01*
X469568Y638001D01*
X470073Y638507D01*
X470111Y638582D01*
X470242Y638713D01*
X470317Y638750D01*
X470485Y638919D01*
X470523Y638994D01*
X470616Y639087D01*
X470691Y639125D01*
X470822Y639256D01*
X470860Y639330D01*
X470916Y639387D01*
X470991Y639424D01*
X472208Y640641D01*
X472245Y640716D01*
X472376Y640847D01*
X472451Y640884D01*
X473237Y641671D01*
X473293Y641689D01*
X473331Y641764D01*
X473406Y641839D01*
X473443Y641914D01*
X473630Y642026D01*
X473668Y642101D01*
X473799Y642270D01*
X473874Y642307D01*
X474791Y643224D01*
X474829Y643299D01*
X474885Y643356D01*
X474960Y643393D01*
X475053Y643449D01*
X475091Y643524D01*
X475259Y643730D01*
X475334Y643767D01*
X476551Y644984D01*
X476588Y645059D01*
X476645Y645115D01*
X476719Y645153D01*
X477375Y645808D01*
X477393Y645864D01*
X477468Y645902D01*
X477843Y646276D01*
X477917Y646313D01*
X478067Y646538D01*
X478273Y646707D01*
X479303Y647736D01*
X479378Y647774D01*
X479509Y647980D01*
X479565Y648036D01*
X479640Y648073D01*
X480595Y649028D01*
X480613Y649084D01*
X480688Y649122D01*
X480857Y649290D01*
X480894Y649365D01*
X480988Y649459D01*
X481063Y649496D01*
X482186Y650619D01*
X482261Y650657D01*
X482392Y650863D01*
X482523Y650956D01*
X483440Y651874D01*
X483478Y651948D01*
X483702Y652098D01*
X483740Y652173D01*
X483833Y652304D01*
X483908Y652342D01*
X486155Y654588D01*
X486230Y654626D01*
X486286Y654682D01*
X486323Y654757D01*
X486492Y654925D01*
X486567Y654963D01*
X486698Y655168D01*
X486754Y655225D01*
X486829Y655262D01*
X487783Y656217D01*
X487802Y656273D01*
X487877Y656311D01*
X488083Y656516D01*
X488121Y656591D01*
X488252Y656685D01*
X488626Y657059D01*
X488701Y657097D01*
X488795Y657228D01*
X488869Y657303D01*
X488907Y657378D01*
X489038Y657471D01*
X489206Y657640D01*
X489244Y657715D01*
X489300Y657771D01*
X489375Y657808D01*
X489506Y657939D01*
X489543Y658014D01*
X489637Y658108D01*
X489712Y658145D01*
X490667Y659100D01*
X490685Y659156D01*
X490760Y659194D01*
X490891Y659287D01*
X490929Y659362D01*
X491060Y659530D01*
X491135Y659568D01*
X492389Y660822D01*
X492426Y660897D01*
X492483Y660953D01*
X492557Y660991D01*
X493512Y661945D01*
X493550Y662020D01*
X493606Y662077D01*
X493681Y662114D01*
X493774Y662208D01*
X493812Y662283D01*
X493943Y662414D01*
X494018Y662451D01*
X494972Y663406D01*
X494991Y663462D01*
X495066Y663499D01*
X495234Y663668D01*
X495272Y663743D01*
X495366Y663836D01*
X495440Y663874D01*
X496395Y664829D01*
X496433Y664903D01*
X496657Y665053D01*
X496695Y665128D01*
X496957Y665390D01*
X497032Y665577D01*
X496994Y665877D01*
X496807Y666139D01*
X496657Y666401D01*
X496358Y666963D01*
X496096Y667375D01*
X495834Y667861D01*
X495759Y667936D01*
X495721Y668086D01*
X495534Y668348D01*
X495309Y668760D01*
X495047Y669247D01*
X494935Y669359D01*
X494841Y669602D01*
X494785Y669659D01*
X494486Y670220D01*
X494411Y670295D01*
X494373Y670370D01*
X494149Y670782D01*
X493961Y671119D01*
X493812Y671344D01*
X493624Y671680D01*
X493325Y672205D01*
X493138Y672542D01*
X492988Y672766D01*
X492763Y673178D01*
X492651Y673365D01*
X492464Y673702D01*
X492239Y674114D01*
X491940Y674638D01*
X491865Y674713D01*
X491771Y674957D01*
X491640Y675088D01*
X491565Y675275D01*
X491528Y675350D01*
X491266Y675762D01*
X491191Y675949D01*
X490929Y676361D01*
X490667Y676848D01*
X490367Y677372D01*
X490142Y677746D01*
X489880Y678233D01*
X489805Y678308D01*
X489543Y678794D01*
X489281Y679206D01*
X488982Y679768D01*
X488720Y680255D01*
X488532Y680517D01*
X488439Y680760D01*
X488308Y680891D01*
X488270Y681041D01*
X488046Y681378D01*
X487783Y681865D01*
X487596Y682202D01*
X487521Y682277D01*
X487297Y682689D01*
X487184Y682876D01*
X486997Y683213D01*
X486885Y683400D01*
X486735Y683662D01*
X486473Y684149D01*
X486398Y684224D01*
X486136Y684710D01*
X485930Y685104D01*
X485874Y685122D01*
X485799Y685309D01*
X485649Y685571D01*
X485574Y685646D01*
X485275Y686208D01*
X485200Y686283D01*
X485163Y686433D01*
X484975Y686695D01*
X484882Y686938D01*
X484676Y687256D01*
X484526Y687481D01*
X484227Y688043D01*
X484002Y688455D01*
X483815Y688717D01*
X483478Y689353D01*
X483365Y689466D01*
X483272Y689709D01*
X483122Y689933D01*
X482841Y690439D01*
X482617Y690851D01*
X482542Y690926D01*
X482467Y691113D01*
X482317Y691338D01*
X482092Y691749D01*
X481793Y692274D01*
X481680Y692461D01*
X481643Y692536D01*
X481493Y692760D01*
X481231Y693247D01*
X481081Y693472D01*
X481044Y693622D01*
X480932Y693734D01*
X480669Y694221D01*
X480482Y694558D01*
X480295Y694820D01*
X480183Y695119D01*
X480108Y695194D01*
X479921Y695531D01*
X479771Y695756D01*
X479546Y696168D01*
X479471Y696243D01*
X479396Y696430D01*
X479359Y696542D01*
X479209Y696767D01*
X479060Y697029D01*
X478910Y697254D01*
X478648Y697740D01*
X478573Y697815D01*
X478479Y698059D01*
X478423Y698115D01*
X478161Y698601D01*
X478011Y698826D01*
X477974Y698938D01*
X477955Y698957D01*
D02*
G37*
D10*
X150079Y772756D02*
G03*
X136299Y758976I0J-13780D01*
G01*
Y570000D02*
G03*
X150079Y556220I13780J0D01*
G01*
X293779Y758976D02*
G03*
X280000Y772756I-13780J0D01*
G01*
Y556220D02*
G03*
X293779Y570000I0J13780D01*
G01*
X136299D02*
Y758976D01*
X142441Y715276D02*
Y719213D01*
Y629449D02*
Y633386D01*
X150079Y556220D02*
X280000D01*
X142441Y719213D02*
X153779D01*
Y715276D02*
Y719213D01*
X142441Y629449D02*
X153779D01*
Y633386D01*
X276299Y715276D02*
Y719213D01*
Y629449D02*
Y633386D01*
X150079Y772756D02*
X280000D01*
X276299Y719213D02*
X287323D01*
Y715276D02*
Y719213D01*
X276299Y629449D02*
X287323D01*
Y633386D01*
X293779Y570000D02*
Y758976D01*
X68666Y497197D02*
X66000D01*
Y493198D01*
X68666D01*
X66000Y495198D02*
X67333D01*
X72664Y496531D02*
X71998Y497197D01*
X70665D01*
X69999Y496531D01*
Y495864D01*
X70665Y495198D01*
X71998D01*
X72664Y494531D01*
Y493865D01*
X71998Y493198D01*
X70665D01*
X69999Y493865D01*
X73997Y493198D02*
Y497197D01*
X75997D01*
X76663Y496531D01*
Y495198D01*
X75997Y494531D01*
X73997D01*
X77996Y496531D02*
X78663Y497197D01*
X79996D01*
X80662Y496531D01*
Y495864D01*
X79996Y495198D01*
X79329D01*
X79996D01*
X80662Y494531D01*
Y493865D01*
X79996Y493198D01*
X78663D01*
X77996Y493865D01*
X84661Y493198D02*
X81995D01*
X84661Y495864D01*
Y496531D01*
X83994Y497197D01*
X82661D01*
X81995Y496531D01*
X66000Y489999D02*
Y486666D01*
X66666Y486000D01*
X67999D01*
X68666Y486666D01*
Y489999D01*
X72664Y489332D02*
X71998Y489999D01*
X70665D01*
X69999Y489332D01*
Y488666D01*
X70665Y487999D01*
X71998D01*
X72664Y487333D01*
Y486666D01*
X71998Y486000D01*
X70665D01*
X69999Y486666D01*
X73997Y489999D02*
Y486000D01*
X75997D01*
X76663Y486666D01*
Y487333D01*
X75997Y487999D01*
X73997D01*
X75997D01*
X76663Y488666D01*
Y489332D01*
X75997Y489999D01*
X73997D01*
X68666Y676531D02*
X67999Y677197D01*
X66666D01*
X66000Y676531D01*
Y673865D01*
X66666Y673198D01*
X67999D01*
X68666Y673865D01*
X69999Y673198D02*
Y677197D01*
X71332Y675864D01*
X72664Y677197D01*
Y673198D01*
X76663Y677197D02*
X73997D01*
Y675198D01*
X75330Y675864D01*
X75997D01*
X76663Y675198D01*
Y673865D01*
X75997Y673198D01*
X74664D01*
X73997Y673865D01*
X66000Y669999D02*
Y666666D01*
X66666Y666000D01*
X67999D01*
X68666Y666666D01*
Y669999D01*
X72664Y669332D02*
X71998Y669999D01*
X70665D01*
X69999Y669332D01*
Y668666D01*
X70665Y667999D01*
X71998D01*
X72664Y667333D01*
Y666666D01*
X71998Y666000D01*
X70665D01*
X69999Y666666D01*
X73997Y669999D02*
Y666000D01*
X75997D01*
X76663Y666666D01*
Y667333D01*
X75997Y667999D01*
X73997D01*
X75997D01*
X76663Y668666D01*
Y669332D01*
X75997Y669999D01*
X73997D01*
X88997Y200997D02*
X86998Y202996D01*
X82999D01*
X81000Y200997D01*
Y198997D01*
X82999Y196998D01*
X86998D01*
X88997Y194999D01*
Y192999D01*
X86998Y191000D01*
X82999D01*
X81000Y192999D01*
X98994Y202996D02*
X94995D01*
X92996Y200997D01*
Y192999D01*
X94995Y191000D01*
X98994D01*
X100994Y192999D01*
Y200997D01*
X98994Y202996D01*
X104992D02*
Y191000D01*
X112990D01*
X116988D02*
Y198997D01*
X120987Y202996D01*
X124986Y198997D01*
Y191000D01*
Y196998D01*
X116988D01*
X128984Y191000D02*
Y202996D01*
X134983D01*
X136982Y200997D01*
Y196998D01*
X134983Y194999D01*
X128984D01*
X132983D02*
X136982Y191000D01*
X152977D02*
Y202996D01*
X158975D01*
X160974Y200997D01*
Y196998D01*
X158975Y194999D01*
X152977D01*
X164973Y191000D02*
Y198997D01*
X168972Y202996D01*
X172970Y198997D01*
Y191000D01*
Y196998D01*
X164973D01*
X176969Y191000D02*
Y202996D01*
X184966Y191000D01*
Y202996D01*
X196962D02*
X188965D01*
Y191000D01*
X196962D01*
X188965Y196998D02*
X192964D01*
X200961Y202996D02*
Y191000D01*
X208959D01*
X232951Y200997D02*
X230951Y202996D01*
X226953D01*
X224953Y200997D01*
Y192999D01*
X226953Y191000D01*
X230951D01*
X232951Y192999D01*
X236950Y202996D02*
Y191000D01*
X244947D01*
X256943Y202996D02*
X248946D01*
Y191000D01*
X256943D01*
X248946Y196998D02*
X252944D01*
X260942Y191000D02*
Y198997D01*
X264941Y202996D01*
X268939Y198997D01*
Y191000D01*
Y196998D01*
X260942D01*
X272938Y191000D02*
Y202996D01*
X280935Y191000D01*
Y202996D01*
X284934D02*
X288933D01*
X286933D01*
Y191000D01*
X284934D01*
X288933D01*
X294931D02*
Y202996D01*
X302928Y191000D01*
Y202996D01*
X314924Y200997D02*
X312925Y202996D01*
X308926D01*
X306927Y200997D01*
Y192999D01*
X308926Y191000D01*
X312925D01*
X314924Y192999D01*
Y196998D01*
X310926D01*
X330919Y202996D02*
Y191000D01*
X336917D01*
X338917Y192999D01*
Y194999D01*
X336917Y196998D01*
X330919D01*
X336917D01*
X338917Y198997D01*
Y200997D01*
X336917Y202996D01*
X330919D01*
X348913D02*
X344915D01*
X342915Y200997D01*
Y192999D01*
X344915Y191000D01*
X348913D01*
X350913Y192999D01*
Y200997D01*
X348913Y202996D01*
X354911D02*
X362909D01*
X358910D01*
Y191000D01*
X378904D02*
Y202996D01*
X384902D01*
X386901Y200997D01*
Y196998D01*
X384902Y194999D01*
X378904D01*
X398897Y200997D02*
X396898Y202996D01*
X392899D01*
X390900Y200997D01*
Y192999D01*
X392899Y191000D01*
X396898D01*
X398897Y192999D01*
X402896Y202996D02*
Y191000D01*
X408894D01*
X410893Y192999D01*
Y194999D01*
X408894Y196998D01*
X402896D01*
X408894D01*
X410893Y198997D01*
Y200997D01*
X408894Y202996D01*
X402896D01*
X80000Y745666D02*
Y749665D01*
X81999D01*
X82666Y748999D01*
Y747666D01*
X81999Y746999D01*
X80000D01*
X83999Y749665D02*
Y745666D01*
X85332Y746999D01*
X86664Y745666D01*
Y749665D01*
X87997Y745666D02*
Y749665D01*
X89997D01*
X90663Y748999D01*
Y747666D01*
X89997Y746999D01*
X87997D01*
X89330D02*
X90663Y745666D01*
X91996Y745000D02*
X94662D01*
X95995Y749665D02*
Y745666D01*
X97994D01*
X98661Y746333D01*
Y746999D01*
X97994Y747666D01*
X95995D01*
X97994D01*
X98661Y748332D01*
Y748999D01*
X97994Y749665D01*
X95995D01*
X99994D02*
Y746333D01*
X100660Y745666D01*
X101993D01*
X102659Y746333D01*
Y749665D01*
X103992D02*
X106658D01*
X105325D01*
Y745666D01*
X107991Y745000D02*
X110657D01*
X114655Y748999D02*
X113989Y749665D01*
X112656D01*
X111990Y748999D01*
Y746333D01*
X112656Y745666D01*
X113989D01*
X114655Y746333D01*
X115988Y745666D02*
Y749665D01*
X117321Y748332D01*
X118654Y749665D01*
Y745666D01*
X122653Y749665D02*
X119987D01*
Y747666D01*
X121320Y748332D01*
X121986D01*
X122653Y747666D01*
Y746333D01*
X121986Y745666D01*
X120653D01*
X119987Y746333D01*
X407500Y320399D02*
X408166Y321065D01*
X409499D01*
X410166Y320399D01*
Y319732D01*
X409499Y319066D01*
X408833D01*
X409499D01*
X410166Y318399D01*
Y317733D01*
X409499Y317066D01*
X408166D01*
X407500Y317733D01*
X411499Y321065D02*
Y318399D01*
X412832Y317066D01*
X414164Y318399D01*
Y321065D01*
X415497Y320399D02*
X416164Y321065D01*
X417497D01*
X418163Y320399D01*
Y319732D01*
X417497Y319066D01*
X416830D01*
X417497D01*
X418163Y318399D01*
Y317733D01*
X417497Y317066D01*
X416164D01*
X415497Y317733D01*
X419496Y316400D02*
X422162D01*
X423495Y317066D02*
Y321065D01*
X425494D01*
X426161Y320399D01*
Y319066D01*
X425494Y318399D01*
X423495D01*
X424828D02*
X426161Y317066D01*
X430159Y321065D02*
X427493D01*
Y317066D01*
X430159D01*
X427493Y319066D02*
X428827D01*
X434158Y320399D02*
X433492Y321065D01*
X432159D01*
X431492Y320399D01*
Y317733D01*
X432159Y317066D01*
X433492D01*
X434158Y317733D01*
Y319066D01*
X432825D01*
X522666Y428999D02*
X521999Y429665D01*
X520666D01*
X520000Y428999D01*
Y426333D01*
X520666Y425666D01*
X521999D01*
X522666Y426333D01*
X523999Y425666D02*
Y429665D01*
X525332Y428332D01*
X526664Y429665D01*
Y425666D01*
X530663Y429665D02*
X527997D01*
Y427666D01*
X529330Y428332D01*
X529997D01*
X530663Y427666D01*
Y426333D01*
X529997Y425666D01*
X528664D01*
X527997Y426333D01*
X531996Y425000D02*
X534662D01*
X535995Y429665D02*
Y425666D01*
X537994D01*
X538661Y426333D01*
Y426999D01*
X537994Y427666D01*
X535995D01*
X537994D01*
X538661Y428332D01*
Y428999D01*
X537994Y429665D01*
X535995D01*
X539993D02*
Y426333D01*
X540660Y425666D01*
X541993D01*
X542659Y426333D01*
Y429665D01*
X546658Y428999D02*
X545992Y429665D01*
X544659D01*
X543992Y428999D01*
Y426333D01*
X544659Y425666D01*
X545992D01*
X546658Y426333D01*
X547991Y429665D02*
Y425666D01*
Y426999D01*
X550657Y429665D01*
X548657Y427666D01*
X550657Y425666D01*
X522666Y251665D02*
X520000D01*
Y247666D01*
X522666D01*
X520000Y249666D02*
X521333D01*
X526664Y250999D02*
X525998Y251665D01*
X524665D01*
X523999Y250999D01*
Y250332D01*
X524665Y249666D01*
X525998D01*
X526664Y248999D01*
Y248333D01*
X525998Y247666D01*
X524665D01*
X523999Y248333D01*
X527997Y247666D02*
Y251665D01*
X529997D01*
X530663Y250999D01*
Y249666D01*
X529997Y248999D01*
X527997D01*
X531996Y247000D02*
X534662D01*
X535995Y251665D02*
Y247666D01*
X537994D01*
X538661Y248333D01*
Y248999D01*
X537994Y249666D01*
X535995D01*
X537994D01*
X538661Y250332D01*
Y250999D01*
X537994Y251665D01*
X535995D01*
X539993D02*
Y248333D01*
X540660Y247666D01*
X541993D01*
X542659Y248333D01*
Y251665D01*
X546658Y250999D02*
X545992Y251665D01*
X544659D01*
X543992Y250999D01*
Y248333D01*
X544659Y247666D01*
X545992D01*
X546658Y248333D01*
X547991Y251665D02*
Y247666D01*
Y248999D01*
X550657Y251665D01*
X548657Y249666D01*
X550657Y247666D01*
X627000Y586000D02*
X623001D01*
X624334Y587333D01*
X623001Y588666D01*
X627000D01*
X623001Y591998D02*
Y590665D01*
X623668Y589999D01*
X626334D01*
X627000Y590665D01*
Y591998D01*
X626334Y592664D01*
X623668D01*
X623001Y591998D01*
Y593997D02*
Y596663D01*
Y595330D01*
X627000D01*
X623001Y599996D02*
Y598663D01*
X623668Y597996D01*
X626334D01*
X627000Y598663D01*
Y599996D01*
X626334Y600662D01*
X623668D01*
X623001Y599996D01*
X627000Y601995D02*
X623001D01*
Y603994D01*
X623668Y604661D01*
X625001D01*
X625667Y603994D01*
Y601995D01*
Y603328D02*
X627000Y604661D01*
X623001Y609992D02*
X627000D01*
Y611992D01*
X626334Y612658D01*
X623668D01*
X623001Y611992D01*
Y609992D01*
X627000Y613991D02*
X623001D01*
Y615990D01*
X623668Y616657D01*
X625001D01*
X625667Y615990D01*
Y613991D01*
Y615324D02*
X627000Y616657D01*
X623001Y617990D02*
Y619323D01*
Y618656D01*
X627000D01*
Y617990D01*
Y619323D01*
X623001Y621322D02*
X625667D01*
X627000Y622655D01*
X625667Y623988D01*
X623001D01*
Y627986D02*
Y625321D01*
X627000D01*
Y627986D01*
X625001Y625321D02*
Y626653D01*
X627000Y629319D02*
X623001D01*
Y631319D01*
X623668Y631985D01*
X625001D01*
X625667Y631319D01*
Y629319D01*
Y630652D02*
X627000Y631985D01*
X623668Y639983D02*
X623001Y639316D01*
Y637983D01*
X623668Y637317D01*
X626334D01*
X627000Y637983D01*
Y639316D01*
X626334Y639983D01*
X627000Y422000D02*
X623001D01*
X624334Y423333D01*
X623001Y424666D01*
X627000D01*
X623001Y427998D02*
Y426665D01*
X623668Y425999D01*
X626334D01*
X627000Y426665D01*
Y427998D01*
X626334Y428664D01*
X623668D01*
X623001Y427998D01*
Y429997D02*
Y432663D01*
Y431330D01*
X627000D01*
X623001Y435995D02*
Y434663D01*
X623668Y433996D01*
X626334D01*
X627000Y434663D01*
Y435995D01*
X626334Y436662D01*
X623668D01*
X623001Y435995D01*
X627000Y437995D02*
X623001D01*
Y439994D01*
X623668Y440661D01*
X625001D01*
X625667Y439994D01*
Y437995D01*
Y439328D02*
X627000Y440661D01*
X623001Y445992D02*
X627000D01*
Y447992D01*
X626334Y448658D01*
X623668D01*
X623001Y447992D01*
Y445992D01*
X627000Y449991D02*
X623001D01*
Y451990D01*
X623668Y452657D01*
X625001D01*
X625667Y451990D01*
Y449991D01*
Y451324D02*
X627000Y452657D01*
X623001Y453990D02*
Y455323D01*
Y454656D01*
X627000D01*
Y453990D01*
Y455323D01*
X623001Y457322D02*
X625667D01*
X627000Y458655D01*
X625667Y459988D01*
X623001D01*
Y463986D02*
Y461321D01*
X627000D01*
Y463986D01*
X625001Y461321D02*
Y462653D01*
X627000Y465319D02*
X623001D01*
Y467319D01*
X623668Y467985D01*
X625001D01*
X625667Y467319D01*
Y465319D01*
Y466652D02*
X627000Y467985D01*
X623001Y473317D02*
X627000D01*
Y475316D01*
X626334Y475983D01*
X625667D01*
X625001Y475316D01*
Y473317D01*
Y475316D01*
X624334Y475983D01*
X623668D01*
X623001Y475316D01*
Y473317D01*
X628000Y254000D02*
X624001D01*
X625334Y255333D01*
X624001Y256666D01*
X628000D01*
X624001Y259998D02*
Y258665D01*
X624668Y257999D01*
X627334D01*
X628000Y258665D01*
Y259998D01*
X627334Y260665D01*
X624668D01*
X624001Y259998D01*
Y261997D02*
Y264663D01*
Y263330D01*
X628000D01*
X624001Y267996D02*
Y266663D01*
X624668Y265996D01*
X627334D01*
X628000Y266663D01*
Y267996D01*
X627334Y268662D01*
X624668D01*
X624001Y267996D01*
X628000Y269995D02*
X624001D01*
Y271994D01*
X624668Y272661D01*
X626001D01*
X626667Y271994D01*
Y269995D01*
Y271328D02*
X628000Y272661D01*
X624001Y277992D02*
X628000D01*
Y279992D01*
X627334Y280658D01*
X624668D01*
X624001Y279992D01*
Y277992D01*
X628000Y281991D02*
X624001D01*
Y283990D01*
X624668Y284657D01*
X626001D01*
X626667Y283990D01*
Y281991D01*
Y283324D02*
X628000Y284657D01*
X624001Y285990D02*
Y287323D01*
Y286656D01*
X628000D01*
Y285990D01*
Y287323D01*
X624001Y289322D02*
X626667D01*
X628000Y290655D01*
X626667Y291988D01*
X624001D01*
Y295987D02*
Y293321D01*
X628000D01*
Y295987D01*
X626001Y293321D02*
Y294654D01*
X628000Y297319D02*
X624001D01*
Y299319D01*
X624668Y299985D01*
X626001D01*
X626667Y299319D01*
Y297319D01*
Y298652D02*
X628000Y299985D01*
Y305317D02*
X625334D01*
X624001Y306650D01*
X625334Y307983D01*
X628000D01*
X626001D01*
Y305317D01*
X603000Y702000D02*
Y705999D01*
X604333Y704666D01*
X605666Y705999D01*
Y702000D01*
X608998Y705999D02*
X607665D01*
X606999Y705332D01*
Y702666D01*
X607665Y702000D01*
X608998D01*
X609664Y702666D01*
Y705332D01*
X608998Y705999D01*
X610997D02*
X613663D01*
X612330D01*
Y702000D01*
X616995Y705999D02*
X615663D01*
X614996Y705332D01*
Y702666D01*
X615663Y702000D01*
X616995D01*
X617662Y702666D01*
Y705332D01*
X616995Y705999D01*
X618995Y702000D02*
Y705999D01*
X620994D01*
X621661Y705332D01*
Y703999D01*
X620994Y703333D01*
X618995D01*
X620328D02*
X621661Y702000D01*
X626992Y705999D02*
Y702000D01*
X628992D01*
X629658Y702666D01*
Y705332D01*
X628992Y705999D01*
X626992D01*
X630991Y702000D02*
Y705999D01*
X632990D01*
X633657Y705332D01*
Y703999D01*
X632990Y703333D01*
X630991D01*
X632324D02*
X633657Y702000D01*
X634990Y705999D02*
X636323D01*
X635656D01*
Y702000D01*
X634990D01*
X636323D01*
X638322Y705999D02*
Y703333D01*
X639655Y702000D01*
X640988Y703333D01*
Y705999D01*
X644986D02*
X642321D01*
Y702000D01*
X644986D01*
X642321Y703999D02*
X643653D01*
X646319Y702000D02*
Y705999D01*
X648319D01*
X648985Y705332D01*
Y703999D01*
X648319Y703333D01*
X646319D01*
X647652D02*
X648985Y702000D01*
X656983D02*
X654317D01*
X656983Y704666D01*
Y705332D01*
X656316Y705999D01*
X654983D01*
X654317Y705332D01*
X602000Y750000D02*
Y753999D01*
X603333Y752666D01*
X604666Y753999D01*
Y750000D01*
X607998Y753999D02*
X606665D01*
X605999Y753332D01*
Y750666D01*
X606665Y750000D01*
X607998D01*
X608665Y750666D01*
Y753332D01*
X607998Y753999D01*
X609997D02*
X612663D01*
X611330D01*
Y750000D01*
X615996Y753999D02*
X614663D01*
X613996Y753332D01*
Y750666D01*
X614663Y750000D01*
X615996D01*
X616662Y750666D01*
Y753332D01*
X615996Y753999D01*
X617995Y750000D02*
Y753999D01*
X619994D01*
X620661Y753332D01*
Y751999D01*
X619994Y751333D01*
X617995D01*
X619328D02*
X620661Y750000D01*
X625992Y753999D02*
Y750000D01*
X627992D01*
X628658Y750666D01*
Y753332D01*
X627992Y753999D01*
X625992D01*
X629991Y750000D02*
Y753999D01*
X631990D01*
X632657Y753332D01*
Y751999D01*
X631990Y751333D01*
X629991D01*
X631324D02*
X632657Y750000D01*
X633990Y753999D02*
X635323D01*
X634656D01*
Y750000D01*
X633990D01*
X635323D01*
X637322Y753999D02*
Y751333D01*
X638655Y750000D01*
X639988Y751333D01*
Y753999D01*
X643986D02*
X641321D01*
Y750000D01*
X643986D01*
X641321Y751999D02*
X642654D01*
X645319Y750000D02*
Y753999D01*
X647319D01*
X647985Y753332D01*
Y751999D01*
X647319Y751333D01*
X645319D01*
X646652D02*
X647985Y750000D01*
X653317D02*
X654650D01*
X653983D01*
Y753999D01*
X653317Y753332D01*
X505000Y215999D02*
X507666Y212000D01*
Y215999D02*
X505000Y212000D01*
X508999Y215999D02*
X511664D01*
X510332D01*
Y212000D01*
X515663Y215999D02*
X514330Y215332D01*
X512997Y213999D01*
Y212666D01*
X513664Y212000D01*
X514997D01*
X515663Y212666D01*
Y213333D01*
X514997Y213999D01*
X512997D01*
X516996Y215332D02*
X517663Y215999D01*
X518996D01*
X519662Y215332D01*
Y212666D01*
X518996Y212000D01*
X517663D01*
X516996Y212666D01*
Y215332D01*
X520995Y213999D02*
X523661D01*
X524994Y212000D02*
Y215999D01*
X526327Y214666D01*
X527659Y215999D01*
Y212000D01*
X446000Y351999D02*
X448666D01*
X447333Y353332D02*
Y350666D01*
X452665Y353999D02*
X449999D01*
Y351999D01*
X451332Y352666D01*
X451998D01*
X452665Y351999D01*
Y350666D01*
X451998Y350000D01*
X450665D01*
X449999Y350666D01*
X453997Y353999D02*
Y351333D01*
X455330Y350000D01*
X456663Y351333D01*
Y353999D01*
X424000Y374000D02*
Y377999D01*
X425999D01*
X426666Y377332D01*
Y375999D01*
X425999Y375333D01*
X424000D01*
X427999Y377999D02*
Y374000D01*
X429332Y375333D01*
X430664Y374000D01*
Y377999D01*
X431997Y374000D02*
Y377999D01*
X433997D01*
X434663Y377332D01*
Y375999D01*
X433997Y375333D01*
X431997D01*
X433330D02*
X434663Y374000D01*
X442661Y377332D02*
X441994Y377999D01*
X440661D01*
X439995Y377332D01*
Y374666D01*
X440661Y374000D01*
X441994D01*
X442661Y374666D01*
X445993Y377999D02*
X444660D01*
X443994Y377332D01*
Y374666D01*
X444660Y374000D01*
X445993D01*
X446659Y374666D01*
Y377332D01*
X445993Y377999D01*
X447992Y374000D02*
Y377999D01*
X450658Y374000D01*
Y377999D01*
X451991D02*
X454657D01*
X453324D01*
Y374000D01*
X455990D02*
Y377999D01*
X457989D01*
X458656Y377332D01*
Y375999D01*
X457989Y375333D01*
X455990D01*
X457323D02*
X458656Y374000D01*
X461988Y377999D02*
X460655D01*
X459988Y377332D01*
Y374666D01*
X460655Y374000D01*
X461988D01*
X462654Y374666D01*
Y377332D01*
X461988Y377999D01*
X463987D02*
Y374000D01*
X466653D01*
X474650Y377999D02*
X471984D01*
Y375999D01*
X473317D01*
X471984D01*
Y374000D01*
X477983Y377999D02*
X476650D01*
X475983Y377332D01*
Y374666D01*
X476650Y374000D01*
X477983D01*
X478649Y374666D01*
Y377332D01*
X477983Y377999D01*
X479982Y374000D02*
Y377999D01*
X481981D01*
X482648Y377332D01*
Y375999D01*
X481981Y375333D01*
X479982D01*
X481315D02*
X482648Y374000D01*
X490645Y377999D02*
X487979D01*
Y374000D01*
X490645D01*
X487979Y375999D02*
X489312D01*
X494644Y377332D02*
X493977Y377999D01*
X492645D01*
X491978Y377332D01*
Y376666D01*
X492645Y375999D01*
X493977D01*
X494644Y375333D01*
Y374666D01*
X493977Y374000D01*
X492645D01*
X491978Y374666D01*
X495977Y374000D02*
Y377999D01*
X497976D01*
X498643Y377332D01*
Y375999D01*
X497976Y375333D01*
X495977D01*
X499975Y377332D02*
X500642Y377999D01*
X501975D01*
X502641Y377332D01*
Y376666D01*
X501975Y375999D01*
X501308D01*
X501975D01*
X502641Y375333D01*
Y374666D01*
X501975Y374000D01*
X500642D01*
X499975Y374666D01*
X506640Y374000D02*
X503974D01*
X506640Y376666D01*
Y377332D01*
X505973Y377999D01*
X504641D01*
X503974Y377332D01*
X447000Y340665D02*
Y336666D01*
X448999D01*
X449666Y337333D01*
Y337999D01*
X448999Y338666D01*
X447000D01*
X448999D01*
X449666Y339332D01*
Y339999D01*
X448999Y340665D01*
X447000D01*
X450999D02*
Y337333D01*
X451665Y336666D01*
X452998D01*
X453664Y337333D01*
Y340665D01*
X457663Y339999D02*
X456997Y340665D01*
X455664D01*
X454997Y339999D01*
Y337333D01*
X455664Y336666D01*
X456997D01*
X457663Y337333D01*
X458996Y340665D02*
Y336666D01*
Y337999D01*
X461662Y340665D01*
X459663Y338666D01*
X461662Y336666D01*
X462995Y336000D02*
X465661D01*
X466994Y336666D02*
Y340665D01*
X468993D01*
X469659Y339999D01*
Y338666D01*
X468993Y337999D01*
X466994D01*
X470992Y340665D02*
Y336666D01*
X472325Y337999D01*
X473658Y336666D01*
Y340665D01*
X474991Y336666D02*
Y340665D01*
X476990D01*
X477657Y339999D01*
Y338666D01*
X476990Y337999D01*
X474991D01*
X476324D02*
X477657Y336666D01*
X451000Y367665D02*
Y364333D01*
X451666Y363666D01*
X452999D01*
X453666Y364333D01*
Y367665D01*
X457664Y366999D02*
X456998Y367665D01*
X455665D01*
X454999Y366999D01*
Y366332D01*
X455665Y365666D01*
X456998D01*
X457664Y364999D01*
Y364333D01*
X456998Y363666D01*
X455665D01*
X454999Y364333D01*
X458997Y367665D02*
Y363666D01*
X460997D01*
X461663Y364333D01*
Y364999D01*
X460997Y365666D01*
X458997D01*
X460997D01*
X461663Y366332D01*
Y366999D01*
X460997Y367665D01*
X458997D01*
X462996Y363000D02*
X465662D01*
X466995Y363666D02*
Y367665D01*
X468994D01*
X469661Y366999D01*
Y365666D01*
X468994Y364999D01*
X466995D01*
X470994Y367665D02*
Y363666D01*
X472327Y364999D01*
X473659Y363666D01*
Y367665D01*
X474992Y363666D02*
Y367665D01*
X476992D01*
X477658Y366999D01*
Y365666D01*
X476992Y364999D01*
X474992D01*
X476325D02*
X477658Y363666D01*
X364000Y551666D02*
Y555665D01*
X365999D01*
X366666Y554999D01*
Y553666D01*
X365999Y552999D01*
X364000D01*
X365333D02*
X366666Y551666D01*
X370665Y555665D02*
X367999D01*
Y551666D01*
X370665D01*
X367999Y553666D02*
X369332D01*
X374663Y554999D02*
X373997Y555665D01*
X372664D01*
X371997Y554999D01*
Y552333D01*
X372664Y551666D01*
X373997D01*
X374663Y552333D01*
Y553666D01*
X373330D01*
X379995Y551666D02*
Y555665D01*
X381994D01*
X382661Y554999D01*
Y553666D01*
X381994Y552999D01*
X379995D01*
X383994Y555665D02*
Y551666D01*
X385327Y552999D01*
X386659Y551666D01*
Y555665D01*
X387992Y551666D02*
Y555665D01*
X389992D01*
X390658Y554999D01*
Y553666D01*
X389992Y552999D01*
X387992D01*
X389325D02*
X390658Y551666D01*
X391991Y551000D02*
X394657D01*
X398656Y554999D02*
X397989Y555665D01*
X396656D01*
X395990Y554999D01*
Y552333D01*
X396656Y551666D01*
X397989D01*
X398656Y552333D01*
X399988Y551666D02*
Y555665D01*
X401321Y554332D01*
X402654Y555665D01*
Y551666D01*
X406653Y555665D02*
X403987D01*
Y553666D01*
X405320Y554332D01*
X405986D01*
X406653Y553666D01*
Y552333D01*
X405986Y551666D01*
X404654D01*
X403987Y552333D01*
X73000Y570665D02*
Y567333D01*
X73666Y566666D01*
X74999D01*
X75666Y567333D01*
Y570665D01*
X79664Y569999D02*
X78998Y570665D01*
X77665D01*
X76999Y569999D01*
Y569332D01*
X77665Y568666D01*
X78998D01*
X79664Y567999D01*
Y567333D01*
X78998Y566666D01*
X77665D01*
X76999Y567333D01*
X80997Y570665D02*
Y566666D01*
X82997D01*
X83663Y567333D01*
Y567999D01*
X82997Y568666D01*
X80997D01*
X82997D01*
X83663Y569332D01*
Y569999D01*
X82997Y570665D01*
X80997D01*
X88995Y566666D02*
Y570665D01*
X90994D01*
X91661Y569999D01*
Y568666D01*
X90994Y567999D01*
X88995D01*
X92994Y570665D02*
Y566666D01*
X94326Y567999D01*
X95659Y566666D01*
Y570665D01*
X96992Y566666D02*
Y570665D01*
X98992D01*
X99658Y569999D01*
Y568666D01*
X98992Y567999D01*
X96992D01*
X98325D02*
X99658Y566666D01*
X100991Y566000D02*
X103657D01*
X107656Y569999D02*
X106989Y570665D01*
X105656D01*
X104990Y569999D01*
Y567333D01*
X105656Y566666D01*
X106989D01*
X107656Y567333D01*
X108988Y566666D02*
Y570665D01*
X110321Y569332D01*
X111654Y570665D01*
Y566666D01*
X115653Y570665D02*
X112987D01*
Y568666D01*
X114320Y569332D01*
X114986D01*
X115653Y568666D01*
Y567333D01*
X114986Y566666D01*
X113654D01*
X112987Y567333D01*
X135000Y537999D02*
Y534000D01*
Y535999D01*
X137666D01*
Y537999D01*
Y534000D01*
X140998Y537999D02*
X139665D01*
X138999Y537332D01*
Y534666D01*
X139665Y534000D01*
X140998D01*
X141665Y534666D01*
Y537332D01*
X140998Y537999D01*
X145663Y537332D02*
X144997Y537999D01*
X143664D01*
X142997Y537332D01*
Y536666D01*
X143664Y535999D01*
X144997D01*
X145663Y535333D01*
Y534666D01*
X144997Y534000D01*
X143664D01*
X142997Y534666D01*
X146996Y537999D02*
X149662D01*
X148329D01*
Y534000D01*
X154994D02*
Y537999D01*
X156326Y536666D01*
X157659Y537999D01*
Y534000D01*
X160992Y537999D02*
X159659D01*
X158992Y537332D01*
Y534666D01*
X159659Y534000D01*
X160992D01*
X161658Y534666D01*
Y537332D01*
X160992Y537999D01*
X162991D02*
Y534000D01*
X164990D01*
X165657Y534666D01*
Y537332D01*
X164990Y537999D01*
X162991D01*
X169656D02*
X166990D01*
Y534000D01*
X169656D01*
X166990Y535999D02*
X168323D01*
X303001Y721666D02*
X302335Y720999D01*
Y719666D01*
X303001Y719000D01*
X305667D01*
X306333Y719666D01*
Y720999D01*
X305667Y721666D01*
X306333Y722999D02*
X302335D01*
X303668Y724332D01*
X302335Y725665D01*
X306333D01*
X302335Y729663D02*
Y726997D01*
X304334D01*
X303668Y728330D01*
Y728997D01*
X304334Y729663D01*
X305667D01*
X306333Y728997D01*
Y727664D01*
X305667Y726997D01*
X307000Y730996D02*
Y733662D01*
X306333Y734995D02*
X302335D01*
Y736994D01*
X303001Y737661D01*
X304334D01*
X305001Y736994D01*
Y734995D01*
X302335Y738994D02*
X306333D01*
X305001Y740326D01*
X306333Y741659D01*
X302335D01*
X306333Y742992D02*
X302335D01*
Y744992D01*
X303001Y745658D01*
X304334D01*
X305001Y744992D01*
Y742992D01*
Y744325D02*
X306333Y745658D01*
X305001Y567666D02*
X304335Y566999D01*
Y565666D01*
X305001Y565000D01*
X307667D01*
X308333Y565666D01*
Y566999D01*
X307667Y567666D01*
X308333Y568999D02*
X304335D01*
X305668Y570332D01*
X304335Y571664D01*
X308333D01*
X304335Y575663D02*
Y572997D01*
X306334D01*
X305668Y574330D01*
Y574997D01*
X306334Y575663D01*
X307667D01*
X308333Y574997D01*
Y573664D01*
X307667Y572997D01*
X309000Y576996D02*
Y579662D01*
X308333Y580995D02*
X305668D01*
X304335Y582328D01*
X305668Y583661D01*
X308333D01*
X306334D01*
Y580995D01*
X305001Y587659D02*
X304335Y586993D01*
Y585660D01*
X305001Y584994D01*
X307667D01*
X308333Y585660D01*
Y586993D01*
X307667Y587659D01*
X304335Y588992D02*
Y591658D01*
Y590325D01*
X308333D01*
X366494Y762309D02*
X363828D01*
Y758311D01*
X366494D01*
X363828Y760310D02*
X365161D01*
X370493Y762309D02*
X367827D01*
Y758311D01*
X370493D01*
X367827Y760310D02*
X369160D01*
X371826Y758311D02*
Y762309D01*
X373825D01*
X374492Y761643D01*
Y760310D01*
X373825Y759644D01*
X371826D01*
X375824Y758311D02*
Y762309D01*
X377824D01*
X378490Y761643D01*
Y760310D01*
X377824Y759644D01*
X375824D01*
X377157D02*
X378490Y758311D01*
X381823Y762309D02*
X380490D01*
X379823Y761643D01*
Y758977D01*
X380490Y758311D01*
X381823D01*
X382489Y758977D01*
Y761643D01*
X381823Y762309D01*
X383822Y758311D02*
Y762309D01*
X385155Y760977D01*
X386488Y762309D01*
Y758311D01*
X363828Y748311D02*
Y752309D01*
X365828D01*
X366494Y751643D01*
Y750310D01*
X365828Y749644D01*
X363828D01*
X367827Y748311D02*
Y752309D01*
X369160Y750977D01*
X370493Y752309D01*
Y748311D01*
X371826Y752309D02*
X373159D01*
X372492D01*
Y748311D01*
X371826D01*
X373159D01*
X377824Y751643D02*
X377157Y752309D01*
X375824D01*
X375158Y751643D01*
Y748977D01*
X375824Y748311D01*
X377157D01*
X377824Y748977D01*
X363828Y742309D02*
Y738311D01*
X365828D01*
X366494Y738977D01*
Y739644D01*
X365828Y740310D01*
X363828D01*
X365828D01*
X366494Y740976D01*
Y741643D01*
X365828Y742309D01*
X363828D01*
X369826D02*
X368494D01*
X367827Y741643D01*
Y738977D01*
X368494Y738311D01*
X369826D01*
X370493Y738977D01*
Y741643D01*
X369826Y742309D01*
X373825D02*
X372492D01*
X371826Y741643D01*
Y738977D01*
X372492Y738311D01*
X373825D01*
X374492Y738977D01*
Y741643D01*
X373825Y742309D01*
X375824D02*
X378490D01*
X377157D01*
Y738311D01*
X363828Y731976D02*
Y727977D01*
X365828D01*
X366494Y728644D01*
Y729310D01*
X365828Y729977D01*
X363828D01*
X365828D01*
X366494Y730643D01*
Y731309D01*
X365828Y731976D01*
X363828D01*
X367827D02*
X370493D01*
X369160D01*
Y727977D01*
X371826Y727311D02*
X374492D01*
X375824Y731976D02*
Y727977D01*
X377824D01*
X378490Y728644D01*
Y731309D01*
X377824Y731976D01*
X375824D01*
X379823Y727977D02*
X381156D01*
X380490D01*
Y730643D01*
X379823D01*
X383155Y727977D02*
X385155D01*
X385821Y728644D01*
X385155Y729310D01*
X383822D01*
X383155Y729977D01*
X383822Y730643D01*
X385821D01*
X363828Y722976D02*
Y718977D01*
X365161Y720310D01*
X366494Y718977D01*
Y722976D01*
X367827Y718977D02*
X369160D01*
X368494D01*
Y721643D01*
X367827D01*
X373825Y722976D02*
X371159D01*
Y720976D01*
X372492D01*
X371159D01*
Y718977D01*
X375158D02*
X376491D01*
X375824D01*
Y721643D01*
X375158D01*
X378490Y718311D02*
X381156D01*
X382489Y722976D02*
Y718977D01*
X384488D01*
X385155Y719644D01*
Y722309D01*
X384488Y722976D01*
X382489D01*
X386488Y718977D02*
X387821D01*
X387154D01*
Y721643D01*
X386488D01*
X389820Y718977D02*
X391819D01*
X392486Y719644D01*
X391819Y720310D01*
X390486D01*
X389820Y720976D01*
X390486Y721643D01*
X392486D01*
X366494Y701643D02*
X365828Y702309D01*
X364495D01*
X363828Y701643D01*
Y700977D01*
X364495Y700310D01*
X365828D01*
X366494Y699644D01*
Y698977D01*
X365828Y698311D01*
X364495D01*
X363828Y698977D01*
X367827Y702309D02*
Y698311D01*
X369826D01*
X370493Y698977D01*
Y701643D01*
X369826Y702309D01*
X367827D01*
X371826Y698311D02*
Y700977D01*
X373159Y702309D01*
X374492Y700977D01*
Y698311D01*
Y700310D01*
X371826D01*
X375824Y701643D02*
X376491Y702309D01*
X377824D01*
X378490Y701643D01*
Y698977D01*
X377824Y698311D01*
X376491D01*
X375824Y698977D01*
Y701643D01*
X366494Y691643D02*
X365828Y692309D01*
X364495D01*
X363828Y691643D01*
Y690976D01*
X364495Y690310D01*
X365828D01*
X366494Y689644D01*
Y688977D01*
X365828Y688311D01*
X364495D01*
X363828Y688977D01*
X370493Y691643D02*
X369826Y692309D01*
X368494D01*
X367827Y691643D01*
Y688977D01*
X368494Y688311D01*
X369826D01*
X370493Y688977D01*
X371826Y692309D02*
Y688311D01*
X374492D01*
X375824Y691643D02*
X376491Y692309D01*
X377824D01*
X378490Y691643D01*
Y688977D01*
X377824Y688311D01*
X376491D01*
X375824Y688977D01*
Y691643D01*
X366494Y681643D02*
X365828Y682309D01*
X364495D01*
X363828Y681643D01*
Y678977D01*
X364495Y678311D01*
X365828D01*
X366494Y678977D01*
Y680310D01*
X365161D01*
X367827Y678311D02*
Y682309D01*
X369826D01*
X370493Y681643D01*
Y680310D01*
X369826Y679644D01*
X367827D01*
X371826Y682309D02*
X373159D01*
X372492D01*
Y678311D01*
X371826D01*
X373159D01*
X377157Y682309D02*
X375824D01*
X375158Y681643D01*
Y678977D01*
X375824Y678311D01*
X377157D01*
X377824Y678977D01*
Y681643D01*
X377157Y682309D01*
X381823Y678311D02*
X379157D01*
X381823Y680976D01*
Y681643D01*
X381156Y682309D01*
X379823D01*
X379157Y681643D01*
X366494Y671643D02*
X365828Y672309D01*
X364495D01*
X363828Y671643D01*
Y668977D01*
X364495Y668311D01*
X365828D01*
X366494Y668977D01*
Y670310D01*
X365161D01*
X367827Y668311D02*
Y672309D01*
X369826D01*
X370493Y671643D01*
Y670310D01*
X369826Y669644D01*
X367827D01*
X371826Y672309D02*
X373159D01*
X372492D01*
Y668311D01*
X371826D01*
X373159D01*
X377157Y672309D02*
X375824D01*
X375158Y671643D01*
Y668977D01*
X375824Y668311D01*
X377157D01*
X377824Y668977D01*
Y671643D01*
X377157Y672309D01*
X379157Y671643D02*
X379823Y672309D01*
X381156D01*
X381823Y671643D01*
Y670976D01*
X381156Y670310D01*
X380490D01*
X381156D01*
X381823Y669644D01*
Y668977D01*
X381156Y668311D01*
X379823D01*
X379157Y668977D01*
X366494Y661643D02*
X365828Y662309D01*
X364495D01*
X363828Y661643D01*
Y658977D01*
X364495Y658311D01*
X365828D01*
X366494Y658977D01*
Y660310D01*
X365161D01*
X367827Y658311D02*
Y662309D01*
X369826D01*
X370493Y661643D01*
Y660310D01*
X369826Y659644D01*
X367827D01*
X371826Y662309D02*
X373159D01*
X372492D01*
Y658311D01*
X371826D01*
X373159D01*
X377157Y662309D02*
X375824D01*
X375158Y661643D01*
Y658977D01*
X375824Y658311D01*
X377157D01*
X377824Y658977D01*
Y661643D01*
X377157Y662309D01*
X381156Y658311D02*
Y662309D01*
X379157Y660310D01*
X381823D01*
X366494Y651643D02*
X365828Y652309D01*
X364495D01*
X363828Y651643D01*
Y648977D01*
X364495Y648311D01*
X365828D01*
X366494Y648977D01*
Y650310D01*
X365161D01*
X367827Y648311D02*
Y652309D01*
X369826D01*
X370493Y651643D01*
Y650310D01*
X369826Y649644D01*
X367827D01*
X371826Y652309D02*
X373159D01*
X372492D01*
Y648311D01*
X371826D01*
X373159D01*
X377157Y652309D02*
X375824D01*
X375158Y651643D01*
Y648977D01*
X375824Y648311D01*
X377157D01*
X377824Y648977D01*
Y651643D01*
X377157Y652309D01*
X379157Y648311D02*
X380490D01*
X379823D01*
Y652309D01*
X379157Y651643D01*
X382489Y652309D02*
X385155D01*
Y651643D01*
X382489Y648977D01*
Y648311D01*
X366494Y631643D02*
X365828Y632309D01*
X364495D01*
X363828Y631643D01*
Y628977D01*
X364495Y628311D01*
X365828D01*
X366494Y628977D01*
Y630310D01*
X365161D01*
X367827Y628311D02*
Y632309D01*
X369826D01*
X370493Y631643D01*
Y630310D01*
X369826Y629644D01*
X367827D01*
X371826Y632309D02*
X373159D01*
X372492D01*
Y628311D01*
X371826D01*
X373159D01*
X377157Y632309D02*
X375824D01*
X375158Y631643D01*
Y628977D01*
X375824Y628311D01*
X377157D01*
X377824Y628977D01*
Y631643D01*
X377157Y632309D01*
X381823Y628311D02*
X379157D01*
X381823Y630976D01*
Y631643D01*
X381156Y632309D01*
X379823D01*
X379157Y631643D01*
X385821Y628311D02*
X383155D01*
X385821Y630976D01*
Y631643D01*
X385155Y632309D01*
X383822D01*
X383155Y631643D01*
X366494Y621643D02*
X365828Y622309D01*
X364495D01*
X363828Y621643D01*
Y618977D01*
X364495Y618311D01*
X365828D01*
X366494Y618977D01*
Y620310D01*
X365161D01*
X367827Y618311D02*
Y622309D01*
X369826D01*
X370493Y621643D01*
Y620310D01*
X369826Y619644D01*
X367827D01*
X371826Y622309D02*
X373159D01*
X372492D01*
Y618311D01*
X371826D01*
X373159D01*
X377157Y622309D02*
X375824D01*
X375158Y621643D01*
Y618977D01*
X375824Y618311D01*
X377157D01*
X377824Y618977D01*
Y621643D01*
X377157Y622309D01*
X381823D02*
X379157D01*
Y620310D01*
X380490Y620976D01*
X381156D01*
X381823Y620310D01*
Y618977D01*
X381156Y618311D01*
X379823D01*
X379157Y618977D01*
X366494Y611643D02*
X365828Y612309D01*
X364495D01*
X363828Y611643D01*
Y608977D01*
X364495Y608311D01*
X365828D01*
X366494Y608977D01*
Y610310D01*
X365161D01*
X367827Y608311D02*
Y612309D01*
X369826D01*
X370493Y611643D01*
Y610310D01*
X369826Y609644D01*
X367827D01*
X371826Y612309D02*
X373159D01*
X372492D01*
Y608311D01*
X371826D01*
X373159D01*
X377157Y612309D02*
X375824D01*
X375158Y611643D01*
Y608977D01*
X375824Y608311D01*
X377157D01*
X377824Y608977D01*
Y611643D01*
X377157Y612309D01*
X381823D02*
X380490Y611643D01*
X379157Y610310D01*
Y608977D01*
X379823Y608311D01*
X381156D01*
X381823Y608977D01*
Y609644D01*
X381156Y610310D01*
X379157D01*
X366494Y601643D02*
X365828Y602309D01*
X364495D01*
X363828Y601643D01*
Y598977D01*
X364495Y598311D01*
X365828D01*
X366494Y598977D01*
Y600310D01*
X365161D01*
X367827Y598311D02*
Y602309D01*
X369826D01*
X370493Y601643D01*
Y600310D01*
X369826Y599644D01*
X367827D01*
X371826Y602309D02*
X373159D01*
X372492D01*
Y598311D01*
X371826D01*
X373159D01*
X377157Y602309D02*
X375824D01*
X375158Y601643D01*
Y598977D01*
X375824Y598311D01*
X377157D01*
X377824Y598977D01*
Y601643D01*
X377157Y602309D01*
X379157Y598311D02*
X380490D01*
X379823D01*
Y602309D01*
X379157Y601643D01*
X382489D02*
X383155Y602309D01*
X384488D01*
X385155Y601643D01*
Y600977D01*
X384488Y600310D01*
X383822D01*
X384488D01*
X385155Y599644D01*
Y598977D01*
X384488Y598311D01*
X383155D01*
X382489Y598977D01*
X366494Y591643D02*
X365828Y592309D01*
X364495D01*
X363828Y591643D01*
Y588977D01*
X364495Y588311D01*
X365828D01*
X366494Y588977D01*
Y590310D01*
X365161D01*
X367827Y588311D02*
Y592309D01*
X369826D01*
X370493Y591643D01*
Y590310D01*
X369826Y589644D01*
X367827D01*
X371826Y592309D02*
X373159D01*
X372492D01*
Y588311D01*
X371826D01*
X373159D01*
X377157Y592309D02*
X375824D01*
X375158Y591643D01*
Y588977D01*
X375824Y588311D01*
X377157D01*
X377824Y588977D01*
Y591643D01*
X377157Y592309D01*
X379157Y588311D02*
X380490D01*
X379823D01*
Y592309D01*
X379157Y591643D01*
X382489Y588977D02*
X383155Y588311D01*
X384488D01*
X385155Y588977D01*
Y591643D01*
X384488Y592309D01*
X383155D01*
X382489Y591643D01*
Y590976D01*
X383155Y590310D01*
X385155D01*
X366494Y581643D02*
X365828Y582309D01*
X364495D01*
X363828Y581643D01*
Y578977D01*
X364495Y578311D01*
X365828D01*
X366494Y578977D01*
Y580310D01*
X365161D01*
X367827Y578311D02*
Y582309D01*
X369826D01*
X370493Y581643D01*
Y580310D01*
X369826Y579644D01*
X367827D01*
X371826Y582309D02*
X373159D01*
X372492D01*
Y578311D01*
X371826D01*
X373159D01*
X377157Y582309D02*
X375824D01*
X375158Y581643D01*
Y578977D01*
X375824Y578311D01*
X377157D01*
X377824Y578977D01*
Y581643D01*
X377157Y582309D01*
X381823Y578311D02*
X379157D01*
X381823Y580976D01*
Y581643D01*
X381156Y582309D01*
X379823D01*
X379157Y581643D01*
X385821Y582309D02*
X384488Y581643D01*
X383155Y580310D01*
Y578977D01*
X383822Y578311D01*
X385155D01*
X385821Y578977D01*
Y579644D01*
X385155Y580310D01*
X383155D01*
X326594Y580381D02*
X329260D01*
X327927Y581714D02*
Y579048D01*
X333259Y582380D02*
X330593D01*
Y580381D01*
X331926Y581048D01*
X332592D01*
X333259Y580381D01*
Y579048D01*
X332592Y578382D01*
X331259D01*
X330593Y579048D01*
X334592Y582380D02*
Y579715D01*
X335924Y578382D01*
X337257Y579715D01*
Y582380D01*
X329831Y571643D02*
X329165Y572309D01*
X327832D01*
X327165Y571643D01*
Y568977D01*
X327832Y568311D01*
X329165D01*
X329831Y568977D01*
Y570310D01*
X328498D01*
X331164Y568311D02*
Y572309D01*
X333830Y568311D01*
Y572309D01*
X335163D02*
Y568311D01*
X337162D01*
X337828Y568977D01*
Y571643D01*
X337162Y572309D01*
X335163D01*
X366831Y571643D02*
X366164Y572309D01*
X364832D01*
X364165Y571643D01*
Y568977D01*
X364832Y568311D01*
X366164D01*
X366831Y568977D01*
Y570310D01*
X365498D01*
X368164Y568311D02*
Y572309D01*
X370830Y568311D01*
Y572309D01*
X372163D02*
Y568311D01*
X374162D01*
X374828Y568977D01*
Y571643D01*
X374162Y572309D01*
X372163D01*
X327165Y590310D02*
X329831D01*
X328498Y591643D02*
Y588977D01*
X333830Y592309D02*
X331164D01*
Y590310D01*
X332497Y590976D01*
X333163D01*
X333830Y590310D01*
Y588977D01*
X333163Y588311D01*
X331830D01*
X331164Y588977D01*
X335163Y592309D02*
Y589644D01*
X336495Y588311D01*
X337828Y589644D01*
Y592309D01*
X323166Y629310D02*
X325832D01*
X324499Y630643D02*
Y627977D01*
X327165Y630643D02*
X327832Y631309D01*
X329165D01*
X329831Y630643D01*
Y629977D01*
X329165Y629310D01*
X328498D01*
X329165D01*
X329831Y628644D01*
Y627977D01*
X329165Y627311D01*
X327832D01*
X327165Y627977D01*
X331164Y631309D02*
Y628644D01*
X332497Y627311D01*
X333830Y628644D01*
Y631309D01*
X335163Y630643D02*
X335829Y631309D01*
X337162D01*
X337828Y630643D01*
Y629977D01*
X337162Y629310D01*
X336495D01*
X337162D01*
X337828Y628644D01*
Y627977D01*
X337162Y627311D01*
X335829D01*
X335163Y627977D01*
X322166Y640310D02*
X324832D01*
X323499Y641643D02*
Y638977D01*
X326165Y641643D02*
X326832Y642309D01*
X328165D01*
X328831Y641643D01*
Y640976D01*
X328165Y640310D01*
X327498D01*
X328165D01*
X328831Y639644D01*
Y638977D01*
X328165Y638311D01*
X326832D01*
X326165Y638977D01*
X330164Y642309D02*
Y639644D01*
X331497Y638311D01*
X332830Y639644D01*
Y642309D01*
X334163Y641643D02*
X334829Y642309D01*
X336162D01*
X336828Y641643D01*
Y640976D01*
X336162Y640310D01*
X335495D01*
X336162D01*
X336828Y639644D01*
Y638977D01*
X336162Y638311D01*
X334829D01*
X334163Y638977D01*
X318834Y651643D02*
X318168Y652309D01*
X316835D01*
X316168Y651643D01*
Y648977D01*
X316835Y648311D01*
X318168D01*
X318834Y648977D01*
Y650310D01*
X317501D01*
X320167Y648311D02*
Y652309D01*
X322166D01*
X322833Y651643D01*
Y650310D01*
X322166Y649644D01*
X320167D01*
X324166Y652309D02*
X325499D01*
X324832D01*
Y648311D01*
X324166D01*
X325499D01*
X329497Y652309D02*
X328165D01*
X327498Y651643D01*
Y648977D01*
X328165Y648311D01*
X329497D01*
X330164Y648977D01*
Y651643D01*
X329497Y652309D01*
X334163Y648311D02*
X331497D01*
X334163Y650977D01*
Y651643D01*
X333496Y652309D01*
X332163D01*
X331497Y651643D01*
X335495Y648311D02*
X336828D01*
X336162D01*
Y652309D01*
X335495Y651643D01*
X317501Y661643D02*
X316835Y662309D01*
X315502D01*
X314836Y661643D01*
Y658977D01*
X315502Y658311D01*
X316835D01*
X317501Y658977D01*
Y660310D01*
X316168D01*
X318834Y658311D02*
Y662309D01*
X320833D01*
X321500Y661643D01*
Y660310D01*
X320833Y659644D01*
X318834D01*
X322833Y662309D02*
X324166D01*
X323499D01*
Y658311D01*
X322833D01*
X324166D01*
X328165Y662309D02*
X326832D01*
X326165Y661643D01*
Y658977D01*
X326832Y658311D01*
X328165D01*
X328831Y658977D01*
Y661643D01*
X328165Y662309D01*
X332830Y658311D02*
X330164D01*
X332830Y660977D01*
Y661643D01*
X332163Y662309D01*
X330830D01*
X330164Y661643D01*
X334163D02*
X334829Y662309D01*
X336162D01*
X336828Y661643D01*
Y658977D01*
X336162Y658311D01*
X334829D01*
X334163Y658977D01*
Y661643D01*
X318168Y671643D02*
X317501Y672309D01*
X316168D01*
X315502Y671643D01*
Y668977D01*
X316168Y668311D01*
X317501D01*
X318168Y668977D01*
Y670310D01*
X316835D01*
X319501Y668311D02*
Y672309D01*
X321500D01*
X322166Y671643D01*
Y670310D01*
X321500Y669644D01*
X319501D01*
X323499Y672309D02*
X324832D01*
X324166D01*
Y668311D01*
X323499D01*
X324832D01*
X328831Y672309D02*
X327498D01*
X326832Y671643D01*
Y668977D01*
X327498Y668311D01*
X328831D01*
X329497Y668977D01*
Y671643D01*
X328831Y672309D01*
X330830Y668311D02*
X332163D01*
X331497D01*
Y672309D01*
X330830Y671643D01*
X336828Y672309D02*
X335495Y671643D01*
X334163Y670310D01*
Y668977D01*
X334829Y668311D01*
X336162D01*
X336828Y668977D01*
Y669644D01*
X336162Y670310D01*
X334163D01*
X318168Y681643D02*
X317501Y682309D01*
X316168D01*
X315502Y681643D01*
Y678977D01*
X316168Y678311D01*
X317501D01*
X318168Y678977D01*
Y680310D01*
X316835D01*
X319501Y678311D02*
Y682309D01*
X321500D01*
X322166Y681643D01*
Y680310D01*
X321500Y679644D01*
X319501D01*
X323499Y682309D02*
X324832D01*
X324166D01*
Y678311D01*
X323499D01*
X324832D01*
X328831Y682309D02*
X327498D01*
X326832Y681643D01*
Y678977D01*
X327498Y678311D01*
X328831D01*
X329497Y678977D01*
Y681643D01*
X328831Y682309D01*
X330830Y678311D02*
X332163D01*
X331497D01*
Y682309D01*
X330830Y681643D01*
X336828Y678311D02*
X334163D01*
X336828Y680976D01*
Y681643D01*
X336162Y682309D01*
X334829D01*
X334163Y681643D01*
X321500Y691643D02*
X320833Y692309D01*
X319501D01*
X318834Y691643D01*
Y688977D01*
X319501Y688311D01*
X320833D01*
X321500Y688977D01*
Y690310D01*
X320167D01*
X322833Y688311D02*
Y692309D01*
X324832D01*
X325499Y691643D01*
Y690310D01*
X324832Y689644D01*
X322833D01*
X326832Y692309D02*
X328165D01*
X327498D01*
Y688311D01*
X326832D01*
X328165D01*
X332163Y692309D02*
X330830D01*
X330164Y691643D01*
Y688977D01*
X330830Y688311D01*
X332163D01*
X332830Y688977D01*
Y691643D01*
X332163Y692309D01*
X334163D02*
X336828D01*
Y691643D01*
X334163Y688977D01*
Y688311D01*
X317501Y701643D02*
X316835Y702309D01*
X315502D01*
X314836Y701643D01*
Y698977D01*
X315502Y698311D01*
X316835D01*
X317501Y698977D01*
Y700310D01*
X316168D01*
X318834Y698311D02*
Y702309D01*
X320833D01*
X321500Y701643D01*
Y700310D01*
X320833Y699644D01*
X318834D01*
X322833Y702309D02*
X324166D01*
X323499D01*
Y698311D01*
X322833D01*
X324166D01*
X328165Y702309D02*
X326832D01*
X326165Y701643D01*
Y698977D01*
X326832Y698311D01*
X328165D01*
X328831Y698977D01*
Y701643D01*
X328165Y702309D01*
X332830Y698311D02*
X330164D01*
X332830Y700977D01*
Y701643D01*
X332163Y702309D01*
X330830D01*
X330164Y701643D01*
X336828Y702309D02*
X334163D01*
Y700310D01*
X335495Y700977D01*
X336162D01*
X336828Y700310D01*
Y698977D01*
X336162Y698311D01*
X334829D01*
X334163Y698977D01*
X317501Y711643D02*
X316835Y712309D01*
X315502D01*
X314836Y711643D01*
Y708977D01*
X315502Y708311D01*
X316835D01*
X317501Y708977D01*
Y710310D01*
X316168D01*
X318834Y708311D02*
Y712309D01*
X320833D01*
X321500Y711643D01*
Y710310D01*
X320833Y709644D01*
X318834D01*
X322833Y712309D02*
X324166D01*
X323499D01*
Y708311D01*
X322833D01*
X324166D01*
X328165Y712309D02*
X326832D01*
X326165Y711643D01*
Y708977D01*
X326832Y708311D01*
X328165D01*
X328831Y708977D01*
Y711643D01*
X328165Y712309D01*
X332830Y708311D02*
X330164D01*
X332830Y710977D01*
Y711643D01*
X332163Y712309D01*
X330830D01*
X330164Y711643D01*
X336162Y708311D02*
Y712309D01*
X334163Y710310D01*
X336828D01*
X317501Y721643D02*
X316835Y722309D01*
X315502D01*
X314836Y721643D01*
Y718977D01*
X315502Y718311D01*
X316835D01*
X317501Y718977D01*
Y720310D01*
X316168D01*
X318834Y718311D02*
Y722309D01*
X320833D01*
X321500Y721643D01*
Y720310D01*
X320833Y719644D01*
X318834D01*
X322833Y722309D02*
X324166D01*
X323499D01*
Y718311D01*
X322833D01*
X324166D01*
X328165Y722309D02*
X326832D01*
X326165Y721643D01*
Y718977D01*
X326832Y718311D01*
X328165D01*
X328831Y718977D01*
Y721643D01*
X328165Y722309D01*
X332830Y718311D02*
X330164D01*
X332830Y720976D01*
Y721643D01*
X332163Y722309D01*
X330830D01*
X330164Y721643D01*
X334163D02*
X334829Y722309D01*
X336162D01*
X336828Y721643D01*
Y720976D01*
X336162Y720310D01*
X335495D01*
X336162D01*
X336828Y719644D01*
Y718977D01*
X336162Y718311D01*
X334829D01*
X334163Y718977D01*
X318168Y731643D02*
X317501Y732309D01*
X316168D01*
X315502Y731643D01*
Y728977D01*
X316168Y728311D01*
X317501D01*
X318168Y728977D01*
Y730310D01*
X316835D01*
X319501Y728311D02*
Y732309D01*
X321500D01*
X322166Y731643D01*
Y730310D01*
X321500Y729644D01*
X319501D01*
X323499Y732309D02*
X324832D01*
X324166D01*
Y728311D01*
X323499D01*
X324832D01*
X328831Y732309D02*
X327498D01*
X326832Y731643D01*
Y728977D01*
X327498Y728311D01*
X328831D01*
X329497Y728977D01*
Y731643D01*
X328831Y732309D01*
X330830Y728311D02*
X332163D01*
X331497D01*
Y732309D01*
X330830Y731643D01*
X334163D02*
X334829Y732309D01*
X336162D01*
X336828Y731643D01*
Y730976D01*
X336162Y730310D01*
X336828Y729644D01*
Y728977D01*
X336162Y728311D01*
X334829D01*
X334163Y728977D01*
Y729644D01*
X334829Y730310D01*
X334163Y730976D01*
Y731643D01*
X334829Y730310D02*
X336162D01*
X318168Y741643D02*
X317501Y742309D01*
X316168D01*
X315502Y741643D01*
Y738977D01*
X316168Y738311D01*
X317501D01*
X318168Y738977D01*
Y740310D01*
X316835D01*
X319501Y738311D02*
Y742309D01*
X321500D01*
X322166Y741643D01*
Y740310D01*
X321500Y739644D01*
X319501D01*
X323499Y742309D02*
X324832D01*
X324166D01*
Y738311D01*
X323499D01*
X324832D01*
X328831Y742309D02*
X327498D01*
X326832Y741643D01*
Y738977D01*
X327498Y738311D01*
X328831D01*
X329497Y738977D01*
Y741643D01*
X328831Y742309D01*
X330830Y738311D02*
X332163D01*
X331497D01*
Y742309D01*
X330830Y741643D01*
X336828Y742309D02*
X334163D01*
Y740310D01*
X335495Y740976D01*
X336162D01*
X336828Y740310D01*
Y738977D01*
X336162Y738311D01*
X334829D01*
X334163Y738977D01*
X318168Y751643D02*
X317501Y752309D01*
X316168D01*
X315502Y751643D01*
Y748977D01*
X316168Y748311D01*
X317501D01*
X318168Y748977D01*
Y750310D01*
X316835D01*
X319501Y748311D02*
Y752309D01*
X321500D01*
X322166Y751643D01*
Y750310D01*
X321500Y749644D01*
X319501D01*
X323499Y752309D02*
X324832D01*
X324166D01*
Y748311D01*
X323499D01*
X324832D01*
X328831Y752309D02*
X327498D01*
X326832Y751643D01*
Y748977D01*
X327498Y748311D01*
X328831D01*
X329497Y748977D01*
Y751643D01*
X328831Y752309D01*
X330830Y748311D02*
X332163D01*
X331497D01*
Y752309D01*
X330830Y751643D01*
X336162Y748311D02*
Y752309D01*
X334163Y750310D01*
X336828D01*
X269666Y530665D02*
X267000D01*
Y528666D01*
X268333D01*
X267000D01*
Y526666D01*
X270999D02*
Y529332D01*
X272332Y530665D01*
X273664Y529332D01*
Y526666D01*
Y528666D01*
X270999D01*
X274997Y526666D02*
Y530665D01*
X277663Y526666D01*
Y530665D01*
X278996Y526000D02*
X281662D01*
X285661Y530665D02*
X284328D01*
X284994D01*
Y527333D01*
X284328Y526666D01*
X283661D01*
X282995Y527333D01*
X289659Y529999D02*
X288993Y530665D01*
X287660D01*
X286994Y529999D01*
Y529332D01*
X287660Y528666D01*
X288993D01*
X289659Y527999D01*
Y527333D01*
X288993Y526666D01*
X287660D01*
X286994Y527333D01*
X290992Y530665D02*
X293658D01*
X292325D01*
Y526666D01*
X311685Y338334D02*
Y342333D01*
X313685D01*
X314351Y341667D01*
Y340334D01*
X313685Y339667D01*
X311685D01*
X315684Y342333D02*
Y338334D01*
X317017Y339667D01*
X318350Y338334D01*
Y342333D01*
X319683Y338334D02*
Y342333D01*
X321682D01*
X322348Y341667D01*
Y340334D01*
X321682Y339667D01*
X319683D01*
X321015D02*
X322348Y338334D01*
X323681Y337668D02*
X326347D01*
X327680Y342333D02*
Y338334D01*
X330346D01*
X334345Y342333D02*
X331679D01*
Y338334D01*
X334345D01*
X331679Y340334D02*
X333012D01*
X335677Y342333D02*
Y338334D01*
X337677D01*
X338343Y339001D01*
Y341667D01*
X337677Y342333D01*
X335677D01*
X310000Y513665D02*
Y510333D01*
X310666Y509666D01*
X311999D01*
X312666Y510333D01*
Y513665D01*
X316665Y512999D02*
X315998Y513665D01*
X314665D01*
X313999Y512999D01*
Y512332D01*
X314665Y511666D01*
X315998D01*
X316665Y510999D01*
Y510333D01*
X315998Y509666D01*
X314665D01*
X313999Y510333D01*
X320663Y513665D02*
X317997D01*
Y509666D01*
X320663D01*
X317997Y511666D02*
X319330D01*
X321996Y509666D02*
Y513665D01*
X323995D01*
X324662Y512999D01*
Y511666D01*
X323995Y510999D01*
X321996D01*
X323329D02*
X324662Y509666D01*
X325995Y509000D02*
X328661D01*
X329994Y513665D02*
Y509666D01*
X332659D01*
X336658Y513665D02*
X333992D01*
Y509666D01*
X336658D01*
X333992Y511666D02*
X335325D01*
X337991Y513665D02*
Y509666D01*
X339990D01*
X340657Y510333D01*
Y512999D01*
X339990Y513665D01*
X337991D01*
X150000Y406000D02*
X146001D01*
Y407999D01*
X146668Y408666D01*
X148001D01*
X148667Y407999D01*
Y406000D01*
Y407333D02*
X150000Y408666D01*
X146001Y412665D02*
Y409999D01*
X150000D01*
Y412665D01*
X148001Y409999D02*
Y411332D01*
X146668Y416663D02*
X146001Y415997D01*
Y414664D01*
X146668Y413997D01*
X147334D01*
X148001Y414664D01*
Y415997D01*
X148667Y416663D01*
X149334D01*
X150000Y415997D01*
Y414664D01*
X149334Y413997D01*
X146001Y420662D02*
Y417996D01*
X150000D01*
Y420662D01*
X148001Y417996D02*
Y419329D01*
X146001Y421995D02*
Y424661D01*
Y423328D01*
X150000D01*
X147001Y495000D02*
X151000D01*
Y496999D01*
X150333Y497666D01*
X149667D01*
X149001Y496999D01*
Y495000D01*
Y496999D01*
X148334Y497666D01*
X147668D01*
X147001Y496999D01*
Y495000D01*
Y500998D02*
Y499665D01*
X147668Y498999D01*
X150333D01*
X151000Y499665D01*
Y500998D01*
X150333Y501664D01*
X147668D01*
X147001Y500998D01*
Y504997D02*
Y503664D01*
X147668Y502997D01*
X150333D01*
X151000Y503664D01*
Y504997D01*
X150333Y505663D01*
X147668D01*
X147001Y504997D01*
Y506996D02*
Y509662D01*
Y508329D01*
X151000D01*
X212666Y504599D02*
X210000D01*
Y500600D01*
X212666D01*
X210000Y502599D02*
X211333D01*
X216665Y503932D02*
X215998Y504599D01*
X214665D01*
X213999Y503932D01*
Y503266D01*
X214665Y502599D01*
X215998D01*
X216665Y501933D01*
Y501266D01*
X215998Y500600D01*
X214665D01*
X213999Y501266D01*
X217997Y500600D02*
Y504599D01*
X219997D01*
X220663Y503932D01*
Y502599D01*
X219997Y501933D01*
X217997D01*
X221996Y503932D02*
X222663Y504599D01*
X223995D01*
X224662Y503932D01*
Y503266D01*
X223995Y502599D01*
X223329D01*
X223995D01*
X224662Y501933D01*
Y501266D01*
X223995Y500600D01*
X222663D01*
X221996Y501266D01*
X228661Y500600D02*
X225995D01*
X228661Y503266D01*
Y503932D01*
X227994Y504599D01*
X226661D01*
X225995Y503932D01*
X229994Y502599D02*
X232659D01*
X236658Y503932D02*
X235992Y504599D01*
X234659D01*
X233992Y503932D01*
Y503266D01*
X234659Y502599D01*
X235992D01*
X236658Y501933D01*
Y501266D01*
X235992Y500600D01*
X234659D01*
X233992Y501266D01*
X237991Y503932D02*
X238657Y504599D01*
X239990D01*
X240657Y503932D01*
Y503266D01*
X239990Y502599D01*
X239324D01*
X239990D01*
X240657Y501933D01*
Y501266D01*
X239990Y500600D01*
X238657D01*
X237991Y501266D01*
X241990Y502599D02*
X244655D01*
X245988Y500600D02*
Y504599D01*
X248654Y500600D01*
Y504599D01*
X249987Y500600D02*
X251320D01*
X250654D01*
Y504599D01*
X249987Y503932D01*
X255985Y504599D02*
X254652Y503932D01*
X253319Y502599D01*
Y501266D01*
X253986Y500600D01*
X255319D01*
X255985Y501266D01*
Y501933D01*
X255319Y502599D01*
X253319D01*
X257318Y500600D02*
Y504599D01*
X259317D01*
X259984Y503932D01*
Y502599D01*
X259317Y501933D01*
X257318D01*
X258651D02*
X259984Y500600D01*
X261317Y503932D02*
X261983Y504599D01*
X263316D01*
X263983Y503932D01*
Y503266D01*
X263316Y502599D01*
X263983Y501933D01*
Y501266D01*
X263316Y500600D01*
X261983D01*
X261317Y501266D01*
Y501933D01*
X261983Y502599D01*
X261317Y503266D01*
Y503932D01*
X261983Y502599D02*
X263316D01*
X291666Y484332D02*
X290999Y484999D01*
X289666D01*
X289000Y484332D01*
Y481666D01*
X289666Y481000D01*
X290999D01*
X291666Y481666D01*
Y482999D01*
X290333D01*
X292999Y481000D02*
Y484999D01*
X294998D01*
X295665Y484332D01*
Y482999D01*
X294998Y482333D01*
X292999D01*
X296997Y484999D02*
X298330D01*
X297664D01*
Y481000D01*
X296997D01*
X298330D01*
X302329Y484999D02*
X300996D01*
X300330Y484332D01*
Y481666D01*
X300996Y481000D01*
X302329D01*
X302995Y481666D01*
Y484332D01*
X302329Y484999D01*
X306328Y481000D02*
Y484999D01*
X304328Y482999D01*
X306994D01*
X308327Y484332D02*
X308994Y484999D01*
X310327D01*
X310993Y484332D01*
Y483666D01*
X310327Y482999D01*
X310993Y482333D01*
Y481666D01*
X310327Y481000D01*
X308994D01*
X308327Y481666D01*
Y482333D01*
X308994Y482999D01*
X308327Y483666D01*
Y484332D01*
X308994Y482999D02*
X310327D01*
X291666Y463332D02*
X290999Y463999D01*
X289666D01*
X289000Y463332D01*
Y460666D01*
X289666Y460000D01*
X290999D01*
X291666Y460666D01*
Y461999D01*
X290333D01*
X292999Y460000D02*
Y463999D01*
X294998D01*
X295665Y463332D01*
Y461999D01*
X294998Y461333D01*
X292999D01*
X296997Y463999D02*
X298330D01*
X297664D01*
Y460000D01*
X296997D01*
X298330D01*
X302329Y463999D02*
X300996D01*
X300330Y463332D01*
Y460666D01*
X300996Y460000D01*
X302329D01*
X302995Y460666D01*
Y463332D01*
X302329Y463999D01*
X306328Y460000D02*
Y463999D01*
X304328Y461999D01*
X306994D01*
X308327Y463999D02*
X310993D01*
Y463332D01*
X308327Y460666D01*
Y460000D01*
X188666Y549332D02*
X187999Y549999D01*
X186667D01*
X186000Y549332D01*
Y546666D01*
X186667Y546000D01*
X187999D01*
X188666Y546666D01*
X191998Y549999D02*
X190665D01*
X189999Y549332D01*
Y546666D01*
X190665Y546000D01*
X191998D01*
X192665Y546666D01*
Y549332D01*
X191998Y549999D01*
X193997Y546000D02*
Y549999D01*
X195330Y548666D01*
X196663Y549999D01*
Y546000D01*
X197996D02*
Y549999D01*
X199996D01*
X200662Y549332D01*
Y547999D01*
X199996Y547333D01*
X197996D01*
X201995Y549999D02*
Y546666D01*
X202661Y546000D01*
X203994D01*
X204661Y546666D01*
Y549999D01*
X205994D02*
X208659D01*
X207327D01*
Y546000D01*
X212658Y549999D02*
X209992D01*
Y546000D01*
X212658D01*
X209992Y547999D02*
X211325D01*
X217990Y546000D02*
Y549999D01*
X219323Y548666D01*
X220655Y549999D01*
Y546000D01*
X223988Y549999D02*
X222655D01*
X221988Y549332D01*
Y546666D01*
X222655Y546000D01*
X223988D01*
X224654Y546666D01*
Y549332D01*
X223988Y549999D01*
X225987D02*
Y546000D01*
X227987D01*
X228653Y546666D01*
Y549332D01*
X227987Y549999D01*
X225987D01*
X229986D02*
Y546666D01*
X230652Y546000D01*
X231985D01*
X232652Y546666D01*
Y549999D01*
X233984D02*
Y546000D01*
X236650D01*
X240649Y549999D02*
X237983D01*
Y546000D01*
X240649D01*
X237983Y547999D02*
X239316D01*
X248646Y549999D02*
X245981D01*
Y547999D01*
X247313Y548666D01*
X247980D01*
X248646Y547999D01*
Y546666D01*
X247980Y546000D01*
X246647D01*
X245981Y546666D01*
X203000Y226999D02*
Y223000D01*
X205666D01*
X207665D02*
X208998D01*
X209665Y223666D01*
Y224999D01*
X208998Y225666D01*
X207665D01*
X206999Y224999D01*
Y223666D01*
X207665Y223000D01*
X210997D02*
Y226999D01*
X212997D01*
X213663Y226332D01*
Y224999D01*
X212997Y224333D01*
X210997D01*
X212330D02*
X213663Y223000D01*
X215663Y225666D02*
X216996D01*
X217662Y224999D01*
Y223000D01*
X215663D01*
X214996Y223666D01*
X215663Y224333D01*
X217662D01*
X222994Y223000D02*
Y226999D01*
X224326Y225666D01*
X225659Y226999D01*
Y223000D01*
X227659D02*
X228992D01*
X229658Y223666D01*
Y224999D01*
X228992Y225666D01*
X227659D01*
X226992Y224999D01*
Y223666D01*
X227659Y223000D01*
X233657Y226999D02*
Y223000D01*
X231657D01*
X230991Y223666D01*
Y224999D01*
X231657Y225666D01*
X233657D01*
X234990D02*
Y223666D01*
X235656Y223000D01*
X237655D01*
Y225666D01*
X238988Y223000D02*
X240321D01*
X239655D01*
Y226999D01*
X238988D01*
X244320Y223000D02*
X242987D01*
X242321Y223666D01*
Y224999D01*
X242987Y225666D01*
X244320D01*
X244987Y224999D01*
Y224333D01*
X242321D01*
X250318Y223000D02*
Y226999D01*
X252317D01*
X252984Y226332D01*
Y224999D01*
X252317Y224333D01*
X250318D01*
X251651D02*
X252984Y223000D01*
X254983Y225666D02*
X256316D01*
X256983Y224999D01*
Y223000D01*
X254983D01*
X254317Y223666D01*
X254983Y224333D01*
X256983D01*
X258315Y224999D02*
X260981D01*
X262314Y226332D02*
X262981Y226999D01*
X264314D01*
X264980Y226332D01*
Y223666D01*
X264314Y223000D01*
X262981D01*
X262314Y223666D01*
Y226332D01*
X268979Y223000D02*
X266313D01*
X268979Y225666D01*
Y226332D01*
X268312Y226999D01*
X266979D01*
X266313Y226332D01*
X276000Y359999D02*
X278666D01*
X277333D01*
Y356000D01*
X281998Y359999D02*
X280665D01*
X279999Y359332D01*
Y356666D01*
X280665Y356000D01*
X281998D01*
X282664Y356666D01*
Y359332D01*
X281998Y359999D01*
X286663D02*
X283997D01*
Y357999D01*
X285330D01*
X283997D01*
Y356000D01*
X294661D02*
X291995D01*
X294661Y358666D01*
Y359332D01*
X293994Y359999D01*
X292661D01*
X291995Y359332D01*
X241000Y359999D02*
X243666D01*
X242333D01*
Y356000D01*
X246998Y359999D02*
X245665D01*
X244999Y359332D01*
Y356666D01*
X245665Y356000D01*
X246998D01*
X247664Y356666D01*
Y359332D01*
X246998Y359999D01*
X251663D02*
X248997D01*
Y357999D01*
X250330D01*
X248997D01*
Y356000D01*
X256995D02*
X258328D01*
X257661D01*
Y359999D01*
X256995Y359332D01*
X211000Y359999D02*
X212333D01*
X211666D01*
Y356000D01*
X211000D01*
X212333D01*
X214332D02*
Y359999D01*
X215665Y358666D01*
X216998Y359999D01*
Y356000D01*
X218331Y359999D02*
Y356666D01*
X218997Y356000D01*
X220330D01*
X220997Y356666D01*
Y359999D01*
X343694Y433590D02*
X339695D01*
X341028Y434923D01*
X339695Y436255D01*
X343694D01*
X339695Y439588D02*
Y438255D01*
X340361Y437588D01*
X343027D01*
X343694Y438255D01*
Y439588D01*
X343027Y440254D01*
X340361D01*
X339695Y439588D01*
Y441587D02*
Y444253D01*
Y442920D01*
X343694D01*
X339695Y447585D02*
Y446252D01*
X340361Y445586D01*
X343027D01*
X343694Y446252D01*
Y447585D01*
X343027Y448252D01*
X340361D01*
X339695Y447585D01*
X343694Y449584D02*
X339695D01*
Y451584D01*
X340361Y452250D01*
X341694D01*
X342361Y451584D01*
Y449584D01*
Y450917D02*
X343694Y452250D01*
X339695Y457582D02*
X343694D01*
Y459581D01*
X343027Y460248D01*
X340361D01*
X339695Y459581D01*
Y457582D01*
X343694Y461581D02*
X339695D01*
Y463580D01*
X340361Y464246D01*
X341694D01*
X342361Y463580D01*
Y461581D01*
Y462914D02*
X343694Y464246D01*
X339695Y465579D02*
Y466912D01*
Y466246D01*
X343694D01*
Y465579D01*
Y466912D01*
X339695Y468912D02*
X342361D01*
X343694Y470245D01*
X342361Y471577D01*
X339695D01*
Y475576D02*
Y472910D01*
X343694D01*
Y475576D01*
X341694Y472910D02*
Y474243D01*
X343694Y476909D02*
X339695D01*
Y478908D01*
X340361Y479575D01*
X341694D01*
X342361Y478908D01*
Y476909D01*
Y478242D02*
X343694Y479575D01*
Y487572D02*
Y484906D01*
X341028Y487572D01*
X340361D01*
X339695Y486906D01*
Y485573D01*
X340361Y484906D01*
X344000Y366000D02*
X340001D01*
X341334Y367333D01*
X340001Y368666D01*
X344000D01*
X340001Y371998D02*
Y370665D01*
X340668Y369999D01*
X343334D01*
X344000Y370665D01*
Y371998D01*
X343334Y372664D01*
X340668D01*
X340001Y371998D01*
Y373997D02*
Y376663D01*
Y375330D01*
X344000D01*
X340001Y379995D02*
Y378663D01*
X340668Y377996D01*
X343334D01*
X344000Y378663D01*
Y379995D01*
X343334Y380662D01*
X340668D01*
X340001Y379995D01*
X344000Y381995D02*
X340001D01*
Y383994D01*
X340668Y384661D01*
X342001D01*
X342667Y383994D01*
Y381995D01*
Y383328D02*
X344000Y384661D01*
X340001Y389992D02*
X344000D01*
Y391992D01*
X343334Y392658D01*
X340668D01*
X340001Y391992D01*
Y389992D01*
X344000Y393991D02*
X340001D01*
Y395990D01*
X340668Y396657D01*
X342001D01*
X342667Y395990D01*
Y393991D01*
Y395324D02*
X344000Y396657D01*
X340001Y397990D02*
Y399323D01*
Y398656D01*
X344000D01*
Y397990D01*
Y399323D01*
X340001Y401322D02*
X342667D01*
X344000Y402655D01*
X342667Y403988D01*
X340001D01*
Y407986D02*
Y405321D01*
X344000D01*
Y407986D01*
X342001Y405321D02*
Y406654D01*
X344000Y409319D02*
X340001D01*
Y411319D01*
X340668Y411985D01*
X342001D01*
X342667Y411319D01*
Y409319D01*
Y410652D02*
X344000Y411985D01*
Y417317D02*
Y418650D01*
Y417983D01*
X340001D01*
X340668Y417317D01*
D11*
X198693Y293559D02*
G03*
X198693Y293559I-394J0D01*
G01*
X784394Y744126D02*
G03*
X784394Y744126I-394J0D01*
G01*
Y696126D02*
G03*
X784394Y696126I-394J0D01*
G01*
X345394Y767283D02*
G03*
X345394Y767283I-394J0D01*
G01*
X292126Y632598D02*
G03*
X292126Y632598I-394J0D01*
G01*
X158268Y632598D02*
G03*
X158268Y632598I-394J0D01*
G01*
X755953Y232000D02*
G03*
X755953Y232000I-394J0D01*
G01*
Y400000D02*
G03*
X755953Y400000I-394J0D01*
G01*
X755453Y599500D02*
G03*
X755453Y599500I-394J0D01*
G01*
Y297500D02*
G03*
X755453Y297500I-394J0D01*
G01*
X755953Y466000D02*
G03*
X755953Y466000I-394J0D01*
G01*
X646360Y583812D02*
G03*
X646360Y583812I-394J0D01*
G01*
X658306Y604434D02*
G03*
X658306Y604434I-394J0D01*
G01*
X658906Y329634D02*
G03*
X658906Y329634I-394J0D01*
G01*
X646260Y251012D02*
G03*
X646260Y251012I-394J0D01*
G01*
X658365Y271194D02*
G03*
X658365Y271194I-394J0D01*
G01*
X658405Y497934D02*
G03*
X658405Y497934I-394J0D01*
G01*
Y438634D02*
G03*
X658405Y438634I-394J0D01*
G01*
X646260Y418012D02*
G03*
X646260Y418012I-394J0D01*
G01*
X658405Y662834D02*
G03*
X658405Y662834I-394J0D01*
G01*
X340000Y765000D02*
X360000D01*
X340000Y565000D02*
Y765000D01*
Y565000D02*
X360000D01*
Y765000D01*
X407311Y346177D02*
X433689D01*
X407311Y330823D02*
X433689D01*
Y346177D01*
X407311Y330823D02*
Y346177D01*
X629504Y180008D02*
Y205992D01*
X584228D02*
X629504D01*
X584228Y180008D02*
Y205992D01*
Y180008D02*
X629504D01*
X660480Y684996D02*
X756543D01*
X660480Y722004D02*
X756543D01*
Y707831D02*
Y722004D01*
Y684996D02*
Y699169D01*
X660480Y707831D02*
Y722004D01*
Y684996D02*
Y699169D01*
X660980Y733496D02*
X757043D01*
X660980Y770504D02*
X757043D01*
Y756331D02*
Y770504D01*
Y733496D02*
Y747669D01*
X660980Y756331D02*
Y770504D01*
Y733496D02*
Y747669D01*
X162177Y427311D02*
X171823D01*
X155189Y404378D02*
Y426622D01*
X162177Y403689D02*
X171823D01*
X178811Y404378D02*
Y426622D01*
X162319Y513961D02*
X171965D01*
X155331Y491028D02*
Y513272D01*
X162319Y490339D02*
X171965D01*
X178953Y491028D02*
Y513272D01*
X172000Y439291D02*
X174559D01*
Y442146D01*
X172000Y450709D02*
X174559D01*
Y447854D02*
Y450709D01*
X172000Y466791D02*
X174559D01*
Y469646D01*
X172000Y478209D02*
X174559D01*
Y475354D02*
Y478209D01*
X73280Y477992D02*
X78201D01*
X58811D02*
X61665D01*
X58811Y442008D02*
Y477992D01*
X73280Y442008D02*
X78201D01*
X58811D02*
X61665D01*
X139906Y467874D02*
X141874D01*
Y465906D02*
Y467874D01*
X126126D02*
X128094D01*
X126126Y465906D02*
Y467874D01*
X139906Y452126D02*
X141874D01*
Y454095D01*
X126126Y452126D02*
X128094D01*
X126126D02*
Y454095D01*
X73280Y657992D02*
X78201D01*
X58811D02*
X61665D01*
X58811Y622008D02*
Y657992D01*
X73280Y622008D02*
X78201D01*
X58811D02*
X61665D01*
D12*
X433984Y350803D02*
G03*
X433984Y350803I-492J0D01*
G01*
X632358Y184024D02*
G03*
X632358Y184024I-492J0D01*
G01*
X176350Y436366D02*
G03*
X176350Y436366I-492J0D01*
G01*
X176492Y523016D02*
G03*
X176492Y523016I-492J0D01*
G01*
X90504Y472579D02*
G03*
X90504Y472579I-492J0D01*
G01*
X138429Y471360D02*
G03*
X138429Y471360I-492J0D01*
G01*
X90504Y652579D02*
G03*
X90504Y652579I-492J0D01*
G01*
D13*
X745493Y373300D02*
G03*
X745493Y373300I-21150J0D01*
G01*
X744992Y538000D02*
G03*
X744992Y538000I-21150J0D01*
G01*
X745307Y204500D02*
G03*
X745307Y204500I-21150J0D01*
G01*
X272661Y267835D02*
Y272165D01*
Y267835D02*
X280141D01*
Y272165D01*
X272661D02*
X280141D01*
X193900Y272300D02*
X198100D01*
Y279700D01*
X193900D02*
X198100D01*
X193900Y272300D02*
Y279700D01*
X251935Y491060D02*
X256265D01*
Y498540D01*
X251935D02*
X256265D01*
X251935Y491060D02*
Y498540D01*
X286340Y442635D02*
Y446965D01*
X278860D02*
X286340D01*
X278860Y442635D02*
Y446965D01*
Y442635D02*
X286340D01*
Y448035D02*
Y452365D01*
X278860D02*
X286340D01*
X278860Y448035D02*
Y452365D01*
Y448035D02*
X286340D01*
X257035Y635960D02*
X261365D01*
Y643440D01*
X257035D02*
X261365D01*
X257035Y635960D02*
Y643440D01*
X261935Y635960D02*
X266265D01*
Y643440D01*
X261935D02*
X266265D01*
X261935Y635960D02*
Y643440D01*
X749750Y398197D02*
Y400803D01*
X754250Y398197D02*
Y400803D01*
X700900Y331600D02*
X710890D01*
X700900Y290400D02*
X710890D01*
X700900D02*
Y331600D01*
X694145Y294600D02*
X699000D01*
X694145Y299600D02*
X699000D01*
X694145Y304600D02*
X699000D01*
X694145Y309600D02*
X699000D01*
X694145Y314600D02*
X699000D01*
X694145Y319600D02*
X699000D01*
X694145Y324600D02*
X699000D01*
X694145Y297400D02*
X699000D01*
X694145Y302400D02*
X699000D01*
X694145Y307400D02*
X699000D01*
X694145Y312400D02*
X699000D01*
X694145Y317400D02*
X699000D01*
X694145Y322400D02*
X699000D01*
X694145Y327400D02*
X699000D01*
X700900Y273100D02*
X710890D01*
X700900Y231900D02*
X710890D01*
X700900D02*
Y273100D01*
X694145Y236100D02*
X699000D01*
X694145Y241100D02*
X699000D01*
X694145Y246100D02*
X699000D01*
X694145Y251100D02*
X699000D01*
X694145Y256100D02*
X699000D01*
X694145Y261100D02*
X699000D01*
X694145Y266100D02*
X699000D01*
X694145Y238900D02*
X699000D01*
X694145Y243900D02*
X699000D01*
X694145Y248900D02*
X699000D01*
X694145Y253900D02*
X699000D01*
X694145Y258900D02*
X699000D01*
X694145Y263900D02*
X699000D01*
X694145Y268900D02*
X699000D01*
X754750Y330697D02*
Y333303D01*
X750250Y330697D02*
Y333303D01*
Y288197D02*
Y290803D01*
X754750Y288197D02*
Y290803D01*
Y272197D02*
Y274803D01*
X750250Y272197D02*
Y274803D01*
Y229697D02*
Y232303D01*
X754750Y229697D02*
Y232303D01*
X468250Y343000D02*
Y361000D01*
X459750Y343000D02*
Y361000D01*
Y343000D02*
X468250D01*
X459750Y361000D02*
X468250D01*
X498697Y490750D02*
X501303D01*
X498697Y486250D02*
X501303D01*
X498697Y476250D02*
X501303D01*
X498697Y471750D02*
X501303D01*
X514850Y446210D02*
Y448750D01*
X495150Y432250D02*
Y434790D01*
Y446210D02*
Y448750D01*
X514850D01*
Y432250D02*
Y434790D01*
X495150Y432250D02*
X514850D01*
X559000Y496550D02*
Y503450D01*
X571000Y496550D02*
Y503450D01*
X516450Y269710D02*
Y272250D01*
X496750Y255750D02*
Y258290D01*
Y269710D02*
Y272250D01*
X516450D01*
Y255750D02*
Y258290D01*
X496750Y255750D02*
X516450D01*
X500497Y314050D02*
X503103D01*
X500497Y309550D02*
X503103D01*
X422300Y360600D02*
X429700D01*
Y356400D02*
Y360600D01*
X422300Y356400D02*
X429700D01*
X422300D02*
Y360600D01*
X409300Y356900D02*
X416700D01*
X409300D02*
Y361100D01*
X416700D01*
Y356900D02*
Y361100D01*
X571000Y321550D02*
Y328450D01*
X559000Y321550D02*
Y328450D01*
X409300Y361900D02*
X416700D01*
X409300D02*
Y366100D01*
X416700D01*
Y361900D02*
Y366100D01*
X500597Y300250D02*
X503203D01*
X500597Y295750D02*
X503203D01*
X697692Y373300D02*
X702693D01*
X700192Y370800D02*
Y375800D01*
X697192Y538000D02*
X702192D01*
X699692Y535500D02*
Y540500D01*
X697507Y204500D02*
X702507D01*
X700007Y202000D02*
Y207000D01*
X700900Y441400D02*
X710890D01*
X700900Y400200D02*
X710890D01*
X700900D02*
Y441400D01*
X694145Y404400D02*
X699000D01*
X694145Y409400D02*
X699000D01*
X694145Y414400D02*
X699000D01*
X694145Y419400D02*
X699000D01*
X694145Y424400D02*
X699000D01*
X694145Y429400D02*
X699000D01*
X694145Y434400D02*
X699000D01*
X694145Y407200D02*
X699000D01*
X694145Y412200D02*
X699000D01*
X694145Y417200D02*
X699000D01*
X694145Y422200D02*
X699000D01*
X694145Y427200D02*
X699000D01*
X694145Y432200D02*
X699000D01*
X694145Y437200D02*
X699000D01*
X700900Y499900D02*
X710890D01*
X700900Y458700D02*
X710890D01*
X700900D02*
Y499900D01*
X694145Y462900D02*
X699000D01*
X694145Y467900D02*
X699000D01*
X694145Y472900D02*
X699000D01*
X694145Y477900D02*
X699000D01*
X694145Y482900D02*
X699000D01*
X694145Y487900D02*
X699000D01*
X694145Y492900D02*
X699000D01*
X694145Y465700D02*
X699000D01*
X694145Y470700D02*
X699000D01*
X694145Y475700D02*
X699000D01*
X694145Y480700D02*
X699000D01*
X694145Y485700D02*
X699000D01*
X694145Y490700D02*
X699000D01*
X694145Y495700D02*
X699000D01*
X754250Y440697D02*
Y443303D01*
X749750Y440697D02*
Y443303D01*
Y456697D02*
Y459303D01*
X754250Y456697D02*
Y459303D01*
Y499197D02*
Y501803D01*
X749750Y499197D02*
Y501803D01*
X700913Y665100D02*
X710903D01*
X700913Y623900D02*
X710903D01*
X700913D02*
Y665100D01*
X694158Y628100D02*
X699013D01*
X694158Y633100D02*
X699013D01*
X694158Y638100D02*
X699013D01*
X694158Y643100D02*
X699013D01*
X694158Y648100D02*
X699013D01*
X694158Y653100D02*
X699013D01*
X694158Y658100D02*
X699013D01*
X694158Y630900D02*
X699013D01*
X694158Y635900D02*
X699013D01*
X694158Y640900D02*
X699013D01*
X694158Y645900D02*
X699013D01*
X694158Y650900D02*
X699013D01*
X694158Y655900D02*
X699013D01*
X694158Y660900D02*
X699013D01*
X700900Y606600D02*
X710890D01*
X700900Y565400D02*
X710890D01*
X700900D02*
Y606600D01*
X694145Y569600D02*
X699000D01*
X694145Y574600D02*
X699000D01*
X694145Y579600D02*
X699000D01*
X694145Y584600D02*
X699000D01*
X694145Y589600D02*
X699000D01*
X694145Y594600D02*
X699000D01*
X694145Y599600D02*
X699000D01*
X694145Y572400D02*
X699000D01*
X694145Y577400D02*
X699000D01*
X694145Y582400D02*
X699000D01*
X694145Y587400D02*
X699000D01*
X694145Y592400D02*
X699000D01*
X694145Y597400D02*
X699000D01*
X694145Y602400D02*
X699000D01*
X139335Y438760D02*
Y446240D01*
X143665D01*
Y438760D02*
Y446240D01*
X139335Y438760D02*
X143665D01*
X114760Y445165D02*
X122240D01*
Y440835D02*
Y445165D01*
X114760Y440835D02*
X122240D01*
X114760D02*
Y445165D01*
X134400Y438800D02*
Y446200D01*
X138600D01*
Y438800D02*
Y446200D01*
X134400Y438800D02*
X138600D01*
X129400D02*
Y446200D01*
X133600D01*
Y438800D02*
Y446200D01*
X129400Y438800D02*
X133600D01*
X288750Y466000D02*
X297250D01*
X288750D02*
Y479000D01*
X297250D01*
Y466000D02*
Y479000D01*
X293515Y374200D02*
X297300D01*
X272700Y370313D02*
Y374200D01*
X277836Y361800D02*
X292164D01*
X297300Y370313D02*
Y374200D01*
X272700D02*
X276484D01*
X258516D02*
X262300D01*
X237700Y370313D02*
Y374200D01*
X242836Y361800D02*
X257164D01*
X262300Y370313D02*
Y374200D01*
X237700D02*
X241484D01*
X223516D02*
X227300D01*
X202700Y370313D02*
Y374200D01*
X207836Y361800D02*
X222164D01*
X227300Y370313D02*
Y374200D01*
X202700D02*
X206485D01*
X215240Y408835D02*
Y413165D01*
X207760D02*
X215240D01*
X207760Y408835D02*
Y413165D01*
Y408835D02*
X215240D01*
X327960Y501335D02*
Y505665D01*
Y501335D02*
X335440D01*
Y505665D01*
X327960D02*
X335440D01*
X327961Y345835D02*
Y350165D01*
Y345835D02*
X335441D01*
Y350165D01*
X327961D02*
X335441D01*
X193400Y421700D02*
X197600D01*
X193400Y414300D02*
Y421700D01*
Y414300D02*
X197600D01*
Y421700D01*
X188400D02*
X192600D01*
X188400Y414300D02*
Y421700D01*
Y414300D02*
X192600D01*
Y421700D01*
X163100Y390800D02*
Y395000D01*
Y390800D02*
X170500D01*
Y395000D01*
X163100D02*
X170500D01*
X315270Y506000D02*
X324670D01*
Y501000D02*
Y506000D01*
X315270Y501000D02*
X324670D01*
X315270D02*
Y506000D01*
X168260Y453835D02*
Y458165D01*
Y453835D02*
X175740D01*
Y458165D01*
X168260D02*
X175740D01*
Y459335D02*
Y463665D01*
X168260D02*
X175740D01*
X168260Y459335D02*
Y463665D01*
Y459335D02*
X175740D01*
X314530Y345500D02*
Y350500D01*
Y345500D02*
X323930D01*
Y350500D01*
X314530D02*
X323930D01*
X187335Y491240D02*
X191665D01*
X187335Y483760D02*
Y491240D01*
Y483760D02*
X191665D01*
Y491240D01*
X163407Y522700D02*
Y526900D01*
Y522700D02*
X170807D01*
Y526900D01*
X163407D02*
X170807D01*
X158335Y445740D02*
X162665D01*
X158335Y438260D02*
Y445740D01*
Y438260D02*
X162665D01*
Y445740D01*
X158335Y479240D02*
X162665D01*
X158335Y471760D02*
Y479240D01*
Y471760D02*
X162665D01*
Y479240D01*
X108200Y439400D02*
Y443600D01*
X100800D02*
X108200D01*
X100800Y439400D02*
Y443600D01*
Y439400D02*
X108200D01*
X118740Y454335D02*
Y458665D01*
X111260D02*
X118740D01*
X111260Y454335D02*
Y458665D01*
Y454335D02*
X118740D01*
Y459335D02*
Y463665D01*
X111260D02*
X118740D01*
X111260Y459335D02*
Y463665D01*
Y459335D02*
X118740D01*
X146760Y444435D02*
Y448765D01*
Y444435D02*
X154240D01*
Y448765D01*
X146760D02*
X154240D01*
X101335Y463459D02*
X105665D01*
Y470939D01*
X101335D02*
X105665D01*
X101335Y463459D02*
Y470939D01*
X101435Y456740D02*
X105765D01*
X101435Y449260D02*
Y456740D01*
Y449260D02*
X105765D01*
Y456740D01*
X154200Y464400D02*
Y468600D01*
X146800D02*
X154200D01*
X146800Y464400D02*
Y468600D01*
Y464400D02*
X154200D01*
X111300Y446900D02*
Y451100D01*
Y446900D02*
X118700D01*
Y451100D01*
X111300D02*
X118700D01*
X92700Y452700D02*
Y458900D01*
X97300D01*
Y452700D02*
Y458900D01*
X92700Y452700D02*
X97300D01*
Y461100D02*
Y467300D01*
X92700Y461100D02*
X97300D01*
X92700D02*
Y467300D01*
X97300D01*
X93000Y443700D02*
X99200D01*
Y439100D02*
Y443700D01*
X93000Y439100D02*
X99200D01*
X93000D02*
Y443700D01*
X154241Y449635D02*
Y453965D01*
X146761D02*
X154241D01*
X146761Y449635D02*
Y453965D01*
Y449635D02*
X154241D01*
X753950Y563397D02*
Y566003D01*
X749450Y563397D02*
Y566003D01*
Y664397D02*
Y667003D01*
X753950Y664397D02*
Y667003D01*
X749450Y605897D02*
Y608503D01*
X753950Y605897D02*
Y608503D01*
Y621897D02*
Y624503D01*
X749450Y621897D02*
Y624503D01*
X145000Y540750D02*
Y549250D01*
X158000D01*
Y540750D02*
Y549250D01*
X145000Y540750D02*
X158000D01*
X288515Y546200D02*
X292300D01*
X267700Y542313D02*
Y546200D01*
X272836Y533800D02*
X287164D01*
X292300Y542313D02*
Y546200D01*
X267700D02*
X271484D01*
X93900Y615400D02*
Y619600D01*
Y615400D02*
X101300D01*
Y619600D01*
X93900D02*
X101300D01*
X93900Y609400D02*
Y613600D01*
Y609400D02*
X101300D01*
Y613600D01*
X93900D02*
X101300D01*
X301500Y573700D02*
Y583100D01*
X296500Y573700D02*
X301500D01*
X296500D02*
Y583100D01*
X301500D01*
X94900Y607800D02*
X101100D01*
Y603200D02*
Y607800D01*
X94900Y603200D02*
X101100D01*
X94900D02*
Y607800D01*
X100300Y643900D02*
Y650100D01*
X95700Y643900D02*
X100300D01*
X95700D02*
Y650100D01*
X100300D01*
X95700Y629600D02*
Y635800D01*
X100300D01*
Y629600D02*
Y635800D01*
X95700Y629600D02*
X100300D01*
X113900Y710860D02*
Y734140D01*
X96567Y734800D02*
X106633D01*
X89300Y710860D02*
Y734140D01*
X96567Y710200D02*
X106633D01*
X295500Y727900D02*
X300500D01*
Y737300D01*
X295500D02*
X300500D01*
X295500Y727900D02*
Y737300D01*
X118750Y575000D02*
X127250D01*
Y562000D02*
Y575000D01*
X118750Y562000D02*
X127250D01*
X118750D02*
Y575000D01*
X361000Y549750D02*
Y558250D01*
X348000Y549750D02*
X361000D01*
X348000D02*
Y558250D01*
X361000D01*
D14*
X272951Y285666D02*
Y288028D01*
X277006Y285666D02*
Y288028D01*
X204504Y299465D02*
X267496D01*
X204504Y232535D02*
X267496D01*
X179909Y274019D02*
Y274374D01*
X184830Y274019D02*
Y274374D01*
X246712Y491199D02*
X249075D01*
X246712Y495254D02*
X249075D01*
X796205Y765425D02*
Y767906D01*
Y755425D02*
Y758575D01*
Y746095D02*
Y748575D01*
X771795Y746095D02*
X796205D01*
X771795D02*
Y767906D01*
X796205D01*
Y717425D02*
Y719906D01*
Y707425D02*
Y710575D01*
Y698095D02*
Y700575D01*
X771795Y698095D02*
X796205D01*
X771795D02*
Y719906D01*
X796205D01*
X276299Y629843D02*
Y634094D01*
X287638Y629843D02*
Y634094D01*
X276299Y629843D02*
X287638D01*
X276299Y714567D02*
Y718819D01*
X287638D01*
Y714567D02*
Y718819D01*
X142441Y629843D02*
Y634094D01*
X153779Y629843D02*
Y634094D01*
X142441Y629843D02*
X153779D01*
X142441Y714567D02*
Y718819D01*
X153779D01*
Y714567D02*
Y718819D01*
X759496Y217000D02*
X809102D01*
X759496Y277000D02*
X809102D01*
X759496Y217000D02*
Y277000D01*
X809102Y217000D02*
Y277000D01*
X759496Y385000D02*
X809102D01*
X759496Y445000D02*
X809102D01*
X759496Y385000D02*
Y445000D01*
X809102Y385000D02*
Y445000D01*
X758996Y584500D02*
X808602D01*
X758996Y644500D02*
X808602D01*
X758996Y584500D02*
Y644500D01*
X808602Y584500D02*
Y644500D01*
X758996Y282500D02*
X808602D01*
X758996Y342500D02*
X808602D01*
X758996Y282500D02*
Y342500D01*
X808602Y282500D02*
Y342500D01*
X759496Y451000D02*
X809102D01*
X759496Y511000D02*
X809102D01*
X759496Y451000D02*
Y511000D01*
X809102Y451000D02*
Y511000D01*
X655809Y592001D02*
Y594599D01*
X648781Y596450D02*
X651419D01*
X644391Y592001D02*
Y594599D01*
X666101Y594591D02*
X668699D01*
X670550Y598981D02*
Y601619D01*
X666101Y606009D02*
X668699D01*
X669777Y295631D02*
Y296969D01*
X664423Y295631D02*
Y296969D01*
X666701Y319791D02*
X669299D01*
X671150Y324181D02*
Y326819D01*
X666701Y331209D02*
X669299D01*
X655709Y259201D02*
Y261799D01*
X648681Y263650D02*
X651319D01*
X644291Y259201D02*
Y261799D01*
X666160Y261351D02*
X668758D01*
X670609Y265741D02*
Y268379D01*
X666160Y272768D02*
X668758D01*
X669077Y237031D02*
Y238369D01*
X663723Y237031D02*
Y238369D01*
X485598Y193000D02*
X489535D01*
X492488Y199299D02*
X503512Y208945D01*
X492488Y186701D02*
X503512Y177055D01*
X558433Y191032D02*
Y194968D01*
X556465Y193000D02*
X560402D01*
X553512Y177055D02*
Y208945D01*
X503512D02*
X553512D01*
X492488Y186701D02*
Y199299D01*
X503512Y177055D02*
X553512D01*
X564823Y466039D02*
X565177D01*
X564823Y470961D02*
X565177D01*
X564823Y453539D02*
X565177D01*
X564823Y458461D02*
X565177D01*
X493989Y333989D02*
X517611D01*
X493989Y357611D02*
X517611D01*
X493989Y333989D02*
Y334501D01*
Y357099D02*
Y357611D01*
X517611Y333989D02*
Y334501D01*
Y357099D02*
Y357611D01*
X492189Y509189D02*
X515811D01*
X492189Y532811D02*
X515811D01*
X492189Y509189D02*
Y509701D01*
Y532299D02*
Y532811D01*
X515811Y509189D02*
Y509701D01*
Y532299D02*
Y532811D01*
X565823Y278639D02*
X566177D01*
X565823Y283561D02*
X566177D01*
X565823Y293539D02*
X566177D01*
X565823Y298461D02*
X566177D01*
X670077Y464131D02*
Y465469D01*
X664723Y464131D02*
Y465469D01*
X666201Y488091D02*
X668799D01*
X670650Y492481D02*
Y495119D01*
X666201Y499509D02*
X668799D01*
X666201Y428791D02*
X668799D01*
X670650Y433181D02*
Y435819D01*
X666201Y440209D02*
X668799D01*
X655709Y426201D02*
Y428799D01*
X648681Y430650D02*
X651319D01*
X644291Y426201D02*
Y428799D01*
X669877Y405631D02*
Y406969D01*
X664523Y405631D02*
Y406969D01*
X666201Y652991D02*
X668799D01*
X670650Y657381D02*
Y660019D01*
X666201Y664409D02*
X668799D01*
X336319Y361669D02*
Y420331D01*
X313681Y361669D02*
X336319D01*
X313681D02*
Y420331D01*
X336319D01*
X199433Y487827D02*
X201087D01*
X272150D02*
X275024D01*
Y416961D02*
Y421862D01*
Y482925D02*
Y487827D01*
X199433Y416961D02*
X201087D01*
X272150D02*
X275024D01*
X199433D02*
Y487827D01*
X313681Y490331D02*
X336319D01*
X313681Y431669D02*
Y490331D01*
Y431669D02*
X336319D01*
Y490331D01*
X664323Y570731D02*
Y572069D01*
X669677Y570731D02*
Y572069D01*
X664223Y629231D02*
Y630569D01*
X669577Y629231D02*
Y630569D01*
X97325Y638031D02*
Y638346D01*
Y641653D02*
Y641968D01*
X98782D01*
X97325Y638031D02*
X98782D01*
X584500Y209500D02*
Y211499D01*
X585500D01*
X585833Y211166D01*
Y210500D01*
X585500Y210166D01*
X584500D01*
X585166D02*
X585833Y209500D01*
X587832Y211499D02*
X586499D01*
Y209500D01*
X587832D01*
X586499Y210500D02*
X587166D01*
X588499Y211499D02*
Y210166D01*
X589165Y209500D01*
X589832Y210166D01*
Y211499D01*
X592497Y209500D02*
Y211499D01*
X593497D01*
X593830Y211166D01*
Y210500D01*
X593497Y210166D01*
X592497D01*
X595496Y211499D02*
X594830D01*
X594497Y211166D01*
Y209833D01*
X594830Y209500D01*
X595496D01*
X595830Y209833D01*
Y211166D01*
X595496Y211499D01*
X596496D02*
Y209500D01*
X597829D01*
X598495D02*
Y210833D01*
X599162Y211499D01*
X599828Y210833D01*
Y209500D01*
Y210500D01*
X598495D01*
X600495Y209500D02*
Y211499D01*
X601495D01*
X601828Y211166D01*
Y210500D01*
X601495Y210166D01*
X600495D01*
X601161D02*
X601828Y209500D01*
X602494Y211499D02*
X603161D01*
X602827D01*
Y209500D01*
X602494D01*
X603161D01*
X604160Y211499D02*
X605493D01*
X604827D01*
Y209500D01*
X606160Y211499D02*
Y211166D01*
X606826Y210500D01*
X607492Y211166D01*
Y211499D01*
X606826Y210500D02*
Y209500D01*
X610158D02*
Y211499D01*
X611158D01*
X611491Y211166D01*
Y210500D01*
X611158Y210166D01*
X610158D01*
X612158Y209500D02*
Y211499D01*
X613157D01*
X613491Y211166D01*
Y210500D01*
X613157Y210166D01*
X612158D01*
X612824D02*
X613491Y209500D01*
X615157Y211499D02*
X614490D01*
X614157Y211166D01*
Y209833D01*
X614490Y209500D01*
X615157D01*
X615490Y209833D01*
Y211166D01*
X615157Y211499D01*
X616156D02*
X617489D01*
X616823D01*
Y209500D01*
X619489Y211499D02*
X618156D01*
Y209500D01*
X619489D01*
X618156Y210500D02*
X618822D01*
X621488Y211166D02*
X621155Y211499D01*
X620488D01*
X620155Y211166D01*
Y209833D01*
X620488Y209500D01*
X621155D01*
X621488Y209833D01*
X622154Y211499D02*
X623487D01*
X622821D01*
Y209500D01*
X624154Y211499D02*
X624820D01*
X624487D01*
Y209500D01*
X624154D01*
X624820D01*
X626820Y211499D02*
X626153D01*
X625820Y211166D01*
Y209833D01*
X626153Y209500D01*
X626820D01*
X627153Y209833D01*
Y211166D01*
X626820Y211499D01*
X627819Y209500D02*
Y211499D01*
X629152Y209500D01*
Y211499D01*
D15*
X409832Y590500D02*
X406500Y593832D01*
Y597164D01*
X409832Y600497D01*
X421495Y598831D02*
X419829Y600497D01*
X416497D01*
X414831Y598831D01*
Y592166D01*
X416497Y590500D01*
X419829D01*
X421495Y592166D01*
X424827Y590500D02*
X428160Y593832D01*
Y597164D01*
X424827Y600497D01*
X449819Y590500D02*
X443155D01*
X449819Y597164D01*
Y598831D01*
X448153Y600497D01*
X444821D01*
X443155Y598831D01*
X453152D02*
X454818Y600497D01*
X458150D01*
X459816Y598831D01*
Y592166D01*
X458150Y590500D01*
X454818D01*
X453152Y592166D01*
Y598831D01*
X469813Y590500D02*
X463148D01*
X469813Y597164D01*
Y598831D01*
X468147Y600497D01*
X464815D01*
X463148Y598831D01*
X479810Y600497D02*
X473145D01*
Y595498D01*
X476477Y597164D01*
X478144D01*
X479810Y595498D01*
Y592166D01*
X478144Y590500D01*
X474811D01*
X473145Y592166D01*
X493139Y600497D02*
X499803D01*
X496471D01*
Y590500D01*
X509800Y600497D02*
X503135D01*
Y590500D01*
X509800D01*
X503135Y595498D02*
X506468D01*
X513132Y590500D02*
Y597164D01*
X516465Y600497D01*
X519797Y597164D01*
Y590500D01*
Y595498D01*
X513132D01*
X523129Y590500D02*
Y600497D01*
X526461Y597164D01*
X529794Y600497D01*
Y590500D01*
X543122Y600497D02*
Y590500D01*
X549787D01*
X553119D02*
Y597164D01*
X556452Y600497D01*
X559784Y597164D01*
Y590500D01*
Y595498D01*
X553119D01*
X563116Y590500D02*
Y600497D01*
X566448Y597164D01*
X569781Y600497D01*
Y590500D01*
X573113Y600497D02*
Y590500D01*
X578111D01*
X579777Y592166D01*
Y593832D01*
X578111Y595498D01*
X573113D01*
X578111D01*
X579777Y597164D01*
Y598831D01*
X578111Y600497D01*
X573113D01*
X583110D02*
Y590500D01*
X588108D01*
X589774Y592166D01*
Y598831D01*
X588108Y600497D01*
X583110D01*
X593106Y590500D02*
Y597164D01*
X596439Y600497D01*
X599771Y597164D01*
Y590500D01*
Y595498D01*
X593106D01*
D16*
X687110Y332250D02*
X683778Y328918D01*
Y332250D02*
X687110Y328918D01*
X685444Y332250D02*
Y328918D01*
X683778Y330584D02*
X687110D01*
Y273750D02*
X683778Y270418D01*
Y273750D02*
X687110Y270418D01*
X685444Y273750D02*
Y270418D01*
X683778Y272084D02*
X687110D01*
Y442050D02*
X683778Y438718D01*
Y442050D02*
X687110Y438718D01*
X685444Y442050D02*
Y438718D01*
X683778Y440384D02*
X687110D01*
Y500550D02*
X683778Y497218D01*
Y500550D02*
X687110Y497218D01*
X685444Y500550D02*
Y497218D01*
X683778Y498884D02*
X687110D01*
X687123Y665750D02*
X683791Y662418D01*
Y665750D02*
X687123Y662418D01*
X685457Y665750D02*
Y662418D01*
X683791Y664084D02*
X687123D01*
X687110Y607250D02*
X683778Y603918D01*
Y607250D02*
X687110Y603918D01*
X685444Y607250D02*
Y603918D01*
X683778Y605584D02*
X687110D01*
D17*
X315620Y503500D02*
D03*
X314880Y348000D02*
D03*
D18*
X299000Y582750D02*
D03*
X298000Y728250D02*
D03*
M02*
