G04*
G04 #@! TF.GenerationSoftware,Altium Limited,Altium Designer,26.1.1 (7)*
G04*
G04 Layer_Physical_Order=4*
G04 Layer_Color=16711680*
%FSLAX25Y25*%
%MOIN*%
G70*
G04*
G04 #@! TF.SameCoordinates,3E101659-1531-44DD-BC6F-E1116C570119*
G04*
G04*
G04 #@! TF.FilePolarity,Positive*
G04*
G01*
G75*
%ADD13C,0.00600*%
%ADD101C,0.05400*%
G04:AMPARAMS|DCode=117|XSize=39.37mil|YSize=70.87mil|CornerRadius=19.68mil|HoleSize=0mil|Usage=FLASHONLY|Rotation=270.000|XOffset=0mil|YOffset=0mil|HoleType=Round|Shape=RoundedRectangle|*
%AMROUNDEDRECTD117*
21,1,0.03937,0.03150,0,0,270.0*
21,1,0.00000,0.07087,0,0,270.0*
1,1,0.03937,-0.01575,0.00000*
1,1,0.03937,-0.01575,0.00000*
1,1,0.03937,0.01575,0.00000*
1,1,0.03937,0.01575,0.00000*
%
%ADD117ROUNDEDRECTD117*%
G04:AMPARAMS|DCode=118|XSize=39.37mil|YSize=86.61mil|CornerRadius=19.68mil|HoleSize=0mil|Usage=FLASHONLY|Rotation=270.000|XOffset=0mil|YOffset=0mil|HoleType=Round|Shape=RoundedRectangle|*
%AMROUNDEDRECTD118*
21,1,0.03937,0.04724,0,0,270.0*
21,1,0.00000,0.08661,0,0,270.0*
1,1,0.03937,-0.02362,0.00000*
1,1,0.03937,-0.02362,0.00000*
1,1,0.03937,0.02362,0.00000*
1,1,0.03937,0.02362,0.00000*
%
%ADD118ROUNDEDRECTD118*%
%ADD124C,0.05000*%
%ADD129C,0.00603*%
%ADD130C,0.20000*%
%ADD132C,0.10630*%
%ADD133C,0.04331*%
%ADD134C,0.06496*%
%ADD135R,0.06496X0.06496*%
%ADD136C,0.06000*%
%ADD137R,0.06000X0.06000*%
%ADD138R,0.09449X0.09449*%
%ADD139C,0.09449*%
%ADD140C,0.08858*%
%ADD141C,0.23622*%
%ADD142R,0.23622X0.23622*%
%ADD143C,0.04000*%
%ADD144R,0.04000X0.04000*%
%ADD145C,0.05937*%
%ADD146R,0.05937X0.05937*%
%ADD147C,0.01575*%
%ADD148R,0.04000X0.04000*%
%ADD149C,0.02400*%
G36*
X810000Y413155D02*
X788948Y394000D01*
X773042D01*
Y405042D01*
X790000Y422000D01*
X790000Y484000D01*
X754000D01*
Y460000D01*
X728000D01*
Y502000D01*
X810000D01*
Y413155D01*
D02*
G37*
G36*
Y250000D02*
X786000Y226000D01*
X773121D01*
Y236303D01*
X792000Y255183D01*
Y314000D01*
X756000D01*
Y292000D01*
X728000D01*
Y333055D01*
X810000D01*
Y250000D01*
D02*
G37*
G36*
Y503020D02*
X728000D01*
X727610Y502942D01*
X727279Y502721D01*
X727058Y502390D01*
X726980Y502000D01*
Y460000D01*
X727058Y459610D01*
X727279Y459279D01*
X727610Y459058D01*
X728000Y458980D01*
X754000D01*
X754390Y459058D01*
X754721Y459279D01*
X754942Y459610D01*
X755020Y460000D01*
Y482980D01*
X788980D01*
X788980Y422422D01*
X772321Y405763D01*
X772295Y405724D01*
X772276D01*
Y405695D01*
X772100Y405432D01*
X772022Y405042D01*
Y394000D01*
X772100Y393610D01*
X772321Y393279D01*
X772652Y393058D01*
X773042Y392980D01*
X788948D01*
X789120Y393015D01*
X789293Y393041D01*
X789314Y393053D01*
X789338Y393058D01*
X789484Y393155D01*
X789634Y393246D01*
X809543Y411360D01*
X810000Y411158D01*
Y334075D01*
X728000D01*
X727610Y333997D01*
X727279Y333776D01*
X727058Y333445D01*
X726980Y333055D01*
Y292000D01*
X727058Y291610D01*
X727279Y291279D01*
X727610Y291058D01*
X728000Y290980D01*
X756000D01*
X756390Y291058D01*
X756721Y291279D01*
X756942Y291610D01*
X757020Y292000D01*
Y312980D01*
X790980D01*
Y255605D01*
X773100Y237724D01*
X772276D01*
Y236839D01*
X772179Y236694D01*
X772101Y236303D01*
Y226000D01*
X772179Y225610D01*
X772400Y225279D01*
X772730Y225058D01*
X773121Y224980D01*
X786000D01*
X786390Y225058D01*
X786721Y225279D01*
X809538Y248096D01*
X810000Y247905D01*
Y175000D01*
X65000D01*
Y775000D01*
X810000D01*
Y503020D01*
D02*
G37*
%LPC*%
G36*
X790000Y769020D02*
X746000D01*
X745610Y768942D01*
X745279Y768721D01*
X745058Y768390D01*
X744980Y768000D01*
Y746000D01*
X745058Y745610D01*
X745279Y745279D01*
X745610Y745058D01*
X746000Y744980D01*
X772000D01*
X772390Y745058D01*
X772721Y745279D01*
X772942Y745610D01*
X773020Y746000D01*
Y756033D01*
X790000Y756033D01*
X790390Y756111D01*
X790721Y756332D01*
X790942Y756663D01*
X791020Y757053D01*
Y759831D01*
X791297Y759971D01*
X791520Y760004D01*
X792056Y759467D01*
X792778Y759050D01*
X793583Y758835D01*
X794417D01*
X795222Y759050D01*
X795944Y759467D01*
X796533Y760056D01*
X796950Y760778D01*
X797165Y761583D01*
Y762417D01*
X796950Y763222D01*
X796533Y763944D01*
X795944Y764533D01*
X795222Y764950D01*
X794417Y765165D01*
X793583D01*
X792778Y764950D01*
X792056Y764533D01*
X791520Y763996D01*
X791297Y764029D01*
X791020Y764169D01*
Y768000D01*
X790942Y768390D01*
X790721Y768721D01*
X790390Y768942D01*
X790000Y769020D01*
D02*
G37*
G36*
X355527Y764000D02*
X354473D01*
X353456Y763727D01*
X352544Y763201D01*
X351799Y762456D01*
X351273Y761544D01*
X351000Y760527D01*
Y759473D01*
X351273Y758456D01*
X351386Y758260D01*
X349500Y756375D01*
X349000Y756582D01*
Y764000D01*
X341000D01*
Y756004D01*
X321679D01*
X321679Y756004D01*
X321172Y755903D01*
X320742Y755616D01*
X267162Y702036D01*
X266700Y702228D01*
Y702438D01*
X266365Y703246D01*
X265746Y703865D01*
X264938Y704200D01*
X264062D01*
X263254Y703865D01*
X262750Y703361D01*
X262356Y703755D01*
X261706Y704024D01*
X261526Y704552D01*
X264475Y707500D01*
X265238D01*
X266046Y707835D01*
X266665Y708454D01*
X267000Y709262D01*
Y710138D01*
X266665Y710946D01*
X266046Y711565D01*
X265238Y711900D01*
X264362D01*
X263554Y711565D01*
X262935Y710946D01*
X262600Y710138D01*
Y709375D01*
X259662Y706436D01*
X259128Y706610D01*
X258865Y707246D01*
X258246Y707865D01*
X257438Y708200D01*
X256562D01*
X255754Y707865D01*
X255214Y707326D01*
X253000D01*
X252493Y707225D01*
X252063Y706937D01*
X192251Y647125D01*
X104286D01*
X103746Y647665D01*
X102938Y648000D01*
X102062D01*
X101254Y647665D01*
X100635Y647046D01*
X100300Y646238D01*
Y645362D01*
X100635Y644554D01*
X101254Y643935D01*
X102062Y643600D01*
X102938D01*
X103746Y643935D01*
X104286Y644475D01*
X192800D01*
X193307Y644575D01*
X193737Y644863D01*
X253549Y704674D01*
X255214D01*
X255754Y704135D01*
X256390Y703871D01*
X256564Y703338D01*
X188551Y635325D01*
X104286D01*
X103746Y635865D01*
X102938Y636200D01*
X102062D01*
X101254Y635865D01*
X100635Y635246D01*
X100300Y634438D01*
Y633562D01*
X100635Y632754D01*
X101254Y632135D01*
X102062Y631800D01*
X102938D01*
X103746Y632135D01*
X104286Y632675D01*
X189100D01*
X189607Y632775D01*
X190037Y633063D01*
X258448Y701474D01*
X258976Y701294D01*
X259245Y700644D01*
X259864Y700025D01*
X260673Y699690D01*
X261548D01*
X262356Y700025D01*
X262860Y700528D01*
X263254Y700135D01*
X264062Y699800D01*
X264272D01*
X264464Y699338D01*
X244063Y678937D01*
X243775Y678507D01*
X243674Y678000D01*
Y653000D01*
X243775Y652493D01*
X244063Y652063D01*
X253063Y643063D01*
X253493Y642775D01*
X254000Y642674D01*
X266000D01*
X266507Y642775D01*
X266937Y643063D01*
X270574Y646700D01*
X271338D01*
X272146Y647035D01*
X272765Y647654D01*
X273100Y648462D01*
Y649338D01*
X272765Y650146D01*
X272580Y650332D01*
X272591Y650980D01*
X272965Y651354D01*
X273098Y651675D01*
X277451D01*
X281464Y647662D01*
X281319Y647099D01*
X280754Y646865D01*
X280135Y646246D01*
X279800Y645438D01*
Y644562D01*
X280135Y643754D01*
X280754Y643135D01*
X281562Y642800D01*
X282326D01*
X341063Y584063D01*
X341493Y583775D01*
X342000Y583674D01*
X342417D01*
X342505Y583347D01*
X342518Y583175D01*
X341799Y582456D01*
X341273Y581544D01*
X341000Y580527D01*
Y579473D01*
X341273Y578456D01*
X341799Y577544D01*
X342544Y576799D01*
X343456Y576273D01*
X344473Y576000D01*
X345527D01*
X346544Y576273D01*
X347456Y576799D01*
X348201Y577544D01*
X348727Y578456D01*
X349000Y579473D01*
Y580527D01*
X348727Y581544D01*
X348201Y582456D01*
X347482Y583175D01*
X347495Y583347D01*
X347583Y583674D01*
X350451D01*
X351752Y582374D01*
X351273Y581544D01*
X351000Y580527D01*
Y579473D01*
X351273Y578456D01*
X351799Y577544D01*
X352544Y576799D01*
X353456Y576273D01*
X354473Y576000D01*
X355527D01*
X356544Y576273D01*
X357456Y576799D01*
X358201Y577544D01*
X358727Y578456D01*
X359000Y579473D01*
Y580527D01*
X358727Y581544D01*
X358201Y582456D01*
X357456Y583201D01*
X356544Y583727D01*
X355527Y584000D01*
X354473D01*
X354001Y583873D01*
X351937Y585937D01*
X351507Y586225D01*
X351000Y586326D01*
X347583D01*
X347495Y586654D01*
X347482Y586826D01*
X348201Y587544D01*
X348727Y588456D01*
X349000Y589473D01*
Y590527D01*
X348727Y591544D01*
X348201Y592456D01*
X347482Y593175D01*
X347495Y593347D01*
X347583Y593675D01*
X349451D01*
X351386Y591740D01*
X351273Y591544D01*
X351000Y590527D01*
Y589473D01*
X351273Y588456D01*
X351799Y587544D01*
X352544Y586799D01*
X353456Y586273D01*
X354473Y586000D01*
X355527D01*
X356544Y586273D01*
X357456Y586799D01*
X358201Y587544D01*
X358727Y588456D01*
X359000Y589473D01*
Y590527D01*
X358727Y591544D01*
X358201Y592456D01*
X357456Y593201D01*
X356544Y593727D01*
X355527Y594000D01*
X354473D01*
X353456Y593727D01*
X353260Y593614D01*
X350937Y595937D01*
X350507Y596225D01*
X350000Y596325D01*
X347583D01*
X347495Y596654D01*
X347482Y596826D01*
X348201Y597544D01*
X348727Y598456D01*
X349000Y599473D01*
Y600527D01*
X348727Y601544D01*
X348201Y602456D01*
X347482Y603174D01*
X347495Y603346D01*
X347583Y603675D01*
X349451D01*
X351386Y601740D01*
X351273Y601544D01*
X351000Y600527D01*
Y599473D01*
X351273Y598456D01*
X351799Y597544D01*
X352544Y596799D01*
X353456Y596273D01*
X354473Y596000D01*
X355527D01*
X356544Y596273D01*
X357456Y596799D01*
X358201Y597544D01*
X358727Y598456D01*
X359000Y599473D01*
Y600527D01*
X358727Y601544D01*
X358201Y602456D01*
X357456Y603201D01*
X356544Y603727D01*
X355527Y604000D01*
X354473D01*
X353456Y603727D01*
X353260Y603614D01*
X350937Y605937D01*
X350507Y606225D01*
X350000Y606325D01*
X347583D01*
X347495Y606653D01*
X347482Y606825D01*
X348201Y607544D01*
X348727Y608456D01*
X349000Y609473D01*
Y610527D01*
X348727Y611544D01*
X348201Y612456D01*
X347482Y613174D01*
X347495Y613346D01*
X347583Y613674D01*
X349451D01*
X351386Y611740D01*
X351273Y611544D01*
X351000Y610527D01*
Y609473D01*
X351273Y608456D01*
X351799Y607544D01*
X352544Y606799D01*
X353456Y606273D01*
X354473Y606000D01*
X355527D01*
X356544Y606273D01*
X357456Y606799D01*
X358201Y607544D01*
X358727Y608456D01*
X359000Y609473D01*
Y610527D01*
X358727Y611544D01*
X358201Y612456D01*
X357456Y613201D01*
X356544Y613727D01*
X355527Y614000D01*
X354473D01*
X353456Y613727D01*
X353260Y613614D01*
X350937Y615937D01*
X350507Y616225D01*
X350000Y616326D01*
X347583D01*
X347495Y616653D01*
X347482Y616825D01*
X348201Y617544D01*
X348727Y618456D01*
X349000Y619473D01*
Y620527D01*
X348727Y621544D01*
X348201Y622456D01*
X347482Y623174D01*
X347495Y623347D01*
X347583Y623674D01*
X349451D01*
X351386Y621740D01*
X351273Y621544D01*
X351000Y620527D01*
Y619473D01*
X351273Y618456D01*
X351799Y617544D01*
X352544Y616799D01*
X353456Y616273D01*
X354473Y616000D01*
X355527D01*
X356544Y616273D01*
X357456Y616799D01*
X358201Y617544D01*
X358727Y618456D01*
X359000Y619473D01*
Y620527D01*
X358727Y621544D01*
X358201Y622456D01*
X357456Y623201D01*
X356544Y623727D01*
X355527Y624000D01*
X354473D01*
X353456Y623727D01*
X353260Y623614D01*
X350937Y625937D01*
X350507Y626225D01*
X350000Y626326D01*
X347583D01*
X347495Y626653D01*
X347482Y626826D01*
X348201Y627544D01*
X348727Y628456D01*
X349000Y629473D01*
Y630527D01*
X348727Y631544D01*
X348201Y632456D01*
X347482Y633175D01*
X347495Y633347D01*
X347583Y633674D01*
X349451D01*
X351386Y631740D01*
X351273Y631544D01*
X351000Y630527D01*
Y629473D01*
X351273Y628456D01*
X351799Y627544D01*
X352544Y626799D01*
X353456Y626273D01*
X354473Y626000D01*
X355527D01*
X356544Y626273D01*
X357456Y626799D01*
X358201Y627544D01*
X358727Y628456D01*
X359000Y629473D01*
Y630527D01*
X358727Y631544D01*
X358201Y632456D01*
X357456Y633201D01*
X356544Y633727D01*
X355527Y634000D01*
X354473D01*
X353456Y633727D01*
X353260Y633614D01*
X350937Y635937D01*
X350507Y636225D01*
X350000Y636326D01*
X347583D01*
X347495Y636654D01*
X347482Y636826D01*
X348201Y637544D01*
X348727Y638456D01*
X349000Y639473D01*
Y640527D01*
X348727Y641544D01*
X348201Y642456D01*
X347456Y643201D01*
X346544Y643727D01*
X345527Y644000D01*
X344473D01*
X343456Y643727D01*
X342544Y643201D01*
X341799Y642456D01*
X341273Y641544D01*
X341000Y640527D01*
Y639473D01*
X341273Y638456D01*
X341799Y637544D01*
X342518Y636826D01*
X342505Y636654D01*
X342417Y636326D01*
X340549D01*
X306937Y669937D01*
X306507Y670225D01*
X306000Y670326D01*
X283786D01*
X283246Y670865D01*
X282438Y671200D01*
X281562D01*
X280754Y670865D01*
X280135Y670246D01*
X279800Y669438D01*
Y668562D01*
X280135Y667754D01*
X280754Y667135D01*
X281562Y666800D01*
X282438D01*
X283246Y667135D01*
X283786Y667674D01*
X305451D01*
X339063Y634063D01*
X339493Y633775D01*
X340000Y633674D01*
X342417D01*
X342505Y633347D01*
X342518Y633175D01*
X341799Y632456D01*
X341273Y631544D01*
X341000Y630527D01*
Y629473D01*
X341273Y628456D01*
X341519Y628029D01*
X341119Y627722D01*
X308304Y660537D01*
X307874Y660825D01*
X307366Y660925D01*
X273686D01*
X273146Y661465D01*
X272338Y661800D01*
X271462D01*
X270654Y661465D01*
X270200Y661011D01*
X269746Y661465D01*
X268938Y661800D01*
X268582D01*
X268374Y662300D01*
X269745Y663671D01*
X270232Y663469D01*
X271107D01*
X271916Y663804D01*
X272534Y664423D01*
X272869Y665232D01*
Y666107D01*
X272534Y666916D01*
X271916Y667534D01*
X271107Y667869D01*
X270232D01*
X269423Y667534D01*
X268804Y666916D01*
X268495Y666170D01*
X254426Y652100D01*
X253662D01*
X252854Y651765D01*
X252235Y651146D01*
X251900Y650338D01*
Y649462D01*
X252235Y648654D01*
X252854Y648035D01*
X253662Y647700D01*
X254538D01*
X255346Y648035D01*
X255965Y648654D01*
X256300Y649462D01*
Y649826D01*
X256400Y649893D01*
X256900Y649625D01*
Y649562D01*
X257235Y648754D01*
X257854Y648135D01*
X258662Y647800D01*
X259538D01*
X260346Y648135D01*
X260965Y648754D01*
X261300Y649562D01*
Y650325D01*
X267800Y656825D01*
X268300Y656618D01*
Y656062D01*
X268635Y655254D01*
X269254Y654635D01*
X269382Y654582D01*
X269480Y654091D01*
X269235Y653846D01*
X268900Y653038D01*
Y652162D01*
X269235Y651354D01*
X269420Y651168D01*
X269409Y650520D01*
X269035Y650146D01*
X268700Y649338D01*
Y648574D01*
X265451Y645326D01*
X254549D01*
X246325Y653549D01*
Y677451D01*
X322228Y753354D01*
X341989D01*
X342197Y752853D01*
X341799Y752456D01*
X341273Y751544D01*
X341000Y750527D01*
Y749473D01*
X341273Y748456D01*
X341799Y747544D01*
X342518Y746826D01*
X342505Y746654D01*
X342417Y746325D01*
X337000D01*
X336493Y746225D01*
X336063Y745937D01*
X304451Y714326D01*
X295286D01*
X294746Y714865D01*
X293938Y715200D01*
X293062D01*
X292254Y714865D01*
X291635Y714246D01*
X291300Y713438D01*
Y712562D01*
X291635Y711754D01*
X292039Y711350D01*
X291735Y711046D01*
X291400Y710238D01*
Y709362D01*
X291735Y708554D01*
X292089Y708200D01*
X291735Y707846D01*
X291400Y707038D01*
Y706162D01*
X291735Y705354D01*
X292089Y705000D01*
X291735Y704646D01*
X291400Y703838D01*
Y702962D01*
X291735Y702154D01*
X292354Y701535D01*
X293162Y701200D01*
X294038D01*
X294846Y701535D01*
X295386Y702074D01*
X318400D01*
X318907Y702175D01*
X319337Y702463D01*
X330549Y713674D01*
X342417D01*
X342505Y713346D01*
X342518Y713174D01*
X341799Y712456D01*
X341273Y711544D01*
X341000Y710527D01*
Y709473D01*
X341273Y708456D01*
X341799Y707544D01*
X342518Y706825D01*
X342505Y706653D01*
X342417Y706325D01*
X327000D01*
X326493Y706225D01*
X326063Y705937D01*
X320451Y700325D01*
X286371D01*
X286128Y700826D01*
X286400Y701481D01*
Y702356D01*
X286065Y703165D01*
X285721Y703510D01*
X286065Y703854D01*
X286400Y704662D01*
Y705538D01*
X286065Y706346D01*
X285446Y706965D01*
X285100Y707109D01*
Y707650D01*
X285546Y707835D01*
X286165Y708454D01*
X286500Y709262D01*
Y710138D01*
X286474Y710200D01*
X294374Y718100D01*
X295138D01*
X295946Y718435D01*
X296565Y719054D01*
X296900Y719862D01*
Y720738D01*
X296565Y721546D01*
X295946Y722165D01*
X295138Y722500D01*
X294262D01*
X293454Y722165D01*
X292835Y721546D01*
X292500Y720738D01*
Y719975D01*
X284425Y711900D01*
X283862D01*
X283054Y711565D01*
X282435Y710946D01*
X282100Y710138D01*
Y709262D01*
X282435Y708454D01*
X283054Y707835D01*
X283401Y707691D01*
Y707150D01*
X282954Y706965D01*
X282335Y706346D01*
X282000Y705538D01*
Y704662D01*
X282210Y704156D01*
X282206Y704150D01*
X281806Y703823D01*
X281138Y704100D01*
X280262D01*
X279454Y703765D01*
X278835Y703146D01*
X278500Y702338D01*
Y701462D01*
X278764Y700826D01*
X278510Y700325D01*
X272500D01*
X271993Y700225D01*
X271563Y699937D01*
X270826Y699200D01*
X270062D01*
X269254Y698865D01*
X268635Y698246D01*
X268300Y697438D01*
Y696562D01*
X268635Y695754D01*
X268989Y695400D01*
X268635Y695046D01*
X268300Y694238D01*
Y693362D01*
X268635Y692554D01*
X269254Y691935D01*
X270062Y691600D01*
X270938D01*
X271746Y691935D01*
X272365Y692554D01*
X272700Y693362D01*
Y694126D01*
X272749Y694174D01*
X294155D01*
X294433Y693759D01*
X294300Y693438D01*
Y692562D01*
X294635Y691754D01*
X295139Y691250D01*
X294635Y690746D01*
X294300Y689938D01*
Y689062D01*
X294635Y688254D01*
X295254Y687635D01*
X296062Y687300D01*
X296938D01*
X297746Y687635D01*
X298365Y688254D01*
X298700Y689062D01*
Y689938D01*
X298365Y690746D01*
X297861Y691250D01*
X298250Y691639D01*
X298754Y691135D01*
X299562Y690800D01*
X300438D01*
X301246Y691135D01*
X301865Y691754D01*
X302200Y692562D01*
Y693438D01*
X302067Y693759D01*
X302345Y694174D01*
X343280D01*
X343325Y694060D01*
X343365Y693675D01*
X342544Y693201D01*
X341799Y692456D01*
X341273Y691544D01*
X341000Y690527D01*
Y689473D01*
X341273Y688456D01*
X341799Y687544D01*
X342518Y686826D01*
X342505Y686654D01*
X342417Y686326D01*
X269400D01*
Y686838D01*
X269065Y687646D01*
X268446Y688265D01*
X267638Y688600D01*
X266762D01*
X265954Y688265D01*
X265335Y687646D01*
X265000Y686838D01*
Y685962D01*
X265335Y685154D01*
X265739Y684750D01*
X265135Y684146D01*
X264800Y683338D01*
Y682462D01*
X265135Y681654D01*
X265662Y681127D01*
X265752Y681015D01*
X265703Y680515D01*
X265335Y680146D01*
X265000Y679338D01*
Y678462D01*
X265335Y677654D01*
X265709Y677280D01*
X265720Y676632D01*
X265535Y676446D01*
X265200Y675638D01*
Y674762D01*
X265535Y673954D01*
X266154Y673335D01*
X266962Y673000D01*
X267838D01*
X268646Y673335D01*
X269265Y673954D01*
X269315Y674075D01*
X309051D01*
X329063Y654063D01*
X329493Y653775D01*
X330000Y653675D01*
X342417D01*
X342505Y653346D01*
X342518Y653174D01*
X341799Y652456D01*
X341273Y651544D01*
X341000Y650527D01*
Y649473D01*
X341273Y648456D01*
X341799Y647544D01*
X342544Y646799D01*
X343456Y646273D01*
X344473Y646000D01*
X345527D01*
X346544Y646273D01*
X347456Y646799D01*
X348201Y647544D01*
X348727Y648456D01*
X349000Y649473D01*
Y650527D01*
X348727Y651544D01*
X348201Y652456D01*
X347482Y653174D01*
X347495Y653346D01*
X347583Y653675D01*
X349451D01*
X351386Y651740D01*
X351273Y651544D01*
X351000Y650527D01*
Y649473D01*
X351273Y648456D01*
X351799Y647544D01*
X352544Y646799D01*
X353456Y646273D01*
X354473Y646000D01*
X355527D01*
X356544Y646273D01*
X357456Y646799D01*
X358201Y647544D01*
X358727Y648456D01*
X359000Y649473D01*
Y650527D01*
X358727Y651544D01*
X358201Y652456D01*
X357456Y653201D01*
X356544Y653727D01*
X355527Y654000D01*
X354473D01*
X353456Y653727D01*
X353260Y653614D01*
X350937Y655937D01*
X350507Y656225D01*
X350000Y656325D01*
X347583D01*
X347495Y656653D01*
X347482Y656825D01*
X348201Y657544D01*
X348727Y658456D01*
X349000Y659473D01*
Y660527D01*
X348727Y661544D01*
X348201Y662456D01*
X347482Y663174D01*
X347495Y663346D01*
X347583Y663674D01*
X349451D01*
X351386Y661740D01*
X351273Y661544D01*
X351000Y660527D01*
Y659473D01*
X351273Y658456D01*
X351799Y657544D01*
X352544Y656799D01*
X353456Y656273D01*
X354473Y656000D01*
X355527D01*
X356544Y656273D01*
X357456Y656799D01*
X358201Y657544D01*
X358727Y658456D01*
X359000Y659473D01*
Y660527D01*
X358727Y661544D01*
X358201Y662456D01*
X357456Y663201D01*
X356544Y663727D01*
X355527Y664000D01*
X354473D01*
X353456Y663727D01*
X353260Y663614D01*
X350937Y665937D01*
X350507Y666225D01*
X350000Y666326D01*
X347583D01*
X347495Y666653D01*
X347482Y666825D01*
X348201Y667544D01*
X348727Y668456D01*
X349000Y669473D01*
Y670527D01*
X348727Y671544D01*
X348201Y672456D01*
X347482Y673174D01*
X347495Y673347D01*
X347583Y673674D01*
X349451D01*
X351386Y671740D01*
X351273Y671544D01*
X351000Y670527D01*
Y669473D01*
X351273Y668456D01*
X351799Y667544D01*
X352544Y666799D01*
X353456Y666273D01*
X354473Y666000D01*
X355527D01*
X356544Y666273D01*
X357456Y666799D01*
X358201Y667544D01*
X358727Y668456D01*
X359000Y669473D01*
Y670527D01*
X358727Y671544D01*
X358201Y672456D01*
X357456Y673201D01*
X356544Y673727D01*
X355527Y674000D01*
X354473D01*
X353456Y673727D01*
X353260Y673614D01*
X350937Y675937D01*
X350507Y676225D01*
X350000Y676326D01*
X347583D01*
X347495Y676653D01*
X347482Y676826D01*
X348201Y677544D01*
X348727Y678456D01*
X349000Y679473D01*
Y680527D01*
X348727Y681544D01*
X348201Y682456D01*
X347482Y683175D01*
X347495Y683347D01*
X347583Y683674D01*
X349451D01*
X351386Y681740D01*
X351273Y681544D01*
X351000Y680527D01*
Y679473D01*
X351273Y678456D01*
X351799Y677544D01*
X352544Y676799D01*
X353456Y676273D01*
X354473Y676000D01*
X355527D01*
X356544Y676273D01*
X357456Y676799D01*
X358201Y677544D01*
X358727Y678456D01*
X359000Y679473D01*
Y680527D01*
X358727Y681544D01*
X358201Y682456D01*
X357456Y683201D01*
X356544Y683727D01*
X355527Y684000D01*
X354473D01*
X353456Y683727D01*
X353260Y683614D01*
X350937Y685937D01*
X350507Y686225D01*
X350000Y686326D01*
X347583D01*
X347495Y686654D01*
X347482Y686826D01*
X348201Y687544D01*
X348727Y688456D01*
X349000Y689473D01*
Y690527D01*
X348727Y691544D01*
X348201Y692456D01*
X347456Y693201D01*
X346636Y693675D01*
X346675Y694060D01*
X346720Y694174D01*
X348951D01*
X351386Y691740D01*
X351273Y691544D01*
X351000Y690527D01*
Y689473D01*
X351273Y688456D01*
X351799Y687544D01*
X352544Y686799D01*
X353456Y686273D01*
X354473Y686000D01*
X355527D01*
X356544Y686273D01*
X357456Y686799D01*
X358201Y687544D01*
X358727Y688456D01*
X359000Y689473D01*
Y690527D01*
X358727Y691544D01*
X358201Y692456D01*
X357456Y693201D01*
X356544Y693727D01*
X355527Y694000D01*
X354473D01*
X353456Y693727D01*
X353260Y693614D01*
X350437Y696437D01*
X350007Y696725D01*
X349500Y696826D01*
X348136D01*
X347944Y697287D01*
X348201Y697544D01*
X348727Y698456D01*
X349000Y699473D01*
Y700527D01*
X348727Y701544D01*
X348201Y702456D01*
X347482Y703174D01*
X347495Y703346D01*
X347583Y703675D01*
X349451D01*
X351386Y701740D01*
X351273Y701544D01*
X351000Y700527D01*
Y699473D01*
X351273Y698456D01*
X351799Y697544D01*
X352544Y696799D01*
X353456Y696273D01*
X354473Y696000D01*
X355527D01*
X356544Y696273D01*
X357456Y696799D01*
X358201Y697544D01*
X358727Y698456D01*
X359000Y699473D01*
Y700527D01*
X358727Y701544D01*
X358201Y702456D01*
X357456Y703201D01*
X356544Y703727D01*
X355527Y704000D01*
X354473D01*
X353456Y703727D01*
X353260Y703614D01*
X350937Y705937D01*
X350507Y706225D01*
X350000Y706325D01*
X347583D01*
X347495Y706653D01*
X347482Y706825D01*
X348201Y707544D01*
X348727Y708456D01*
X349000Y709473D01*
Y710527D01*
X348727Y711544D01*
X348201Y712456D01*
X347482Y713174D01*
X347495Y713346D01*
X347583Y713674D01*
X350900D01*
X351407Y713775D01*
X351837Y714063D01*
X353922Y716148D01*
X354473Y716000D01*
X355527D01*
X356544Y716273D01*
X357456Y716799D01*
X358201Y717544D01*
X358727Y718456D01*
X359000Y719473D01*
Y720527D01*
X358727Y721544D01*
X358201Y722456D01*
X357456Y723201D01*
X356544Y723727D01*
X355527Y724000D01*
X354473D01*
X353456Y723727D01*
X352544Y723201D01*
X351799Y722456D01*
X351273Y721544D01*
X351000Y720527D01*
Y719473D01*
X351273Y718456D01*
X351715Y717690D01*
X350351Y716326D01*
X347583D01*
X347495Y716653D01*
X347482Y716825D01*
X348201Y717544D01*
X348727Y718456D01*
X349000Y719473D01*
Y720527D01*
X348727Y721544D01*
X348201Y722456D01*
X347482Y723174D01*
X347495Y723347D01*
X347583Y723674D01*
X350500D01*
X351007Y723775D01*
X351437Y724063D01*
X353607Y726232D01*
X354473Y726000D01*
X355527D01*
X356544Y726273D01*
X357456Y726799D01*
X358201Y727544D01*
X358727Y728456D01*
X359000Y729473D01*
Y730527D01*
X358727Y731544D01*
X358201Y732456D01*
X357456Y733201D01*
X356544Y733727D01*
X355527Y734000D01*
X354473D01*
X353456Y733727D01*
X352544Y733201D01*
X351799Y732456D01*
X351273Y731544D01*
X351000Y730527D01*
Y729473D01*
X351273Y728456D01*
X351569Y727943D01*
X349951Y726326D01*
X347583D01*
X347495Y726653D01*
X347482Y726826D01*
X348201Y727544D01*
X348727Y728456D01*
X349000Y729473D01*
Y730527D01*
X348727Y731544D01*
X348201Y732456D01*
X347482Y733175D01*
X347495Y733347D01*
X347583Y733674D01*
X350100D01*
X350607Y733775D01*
X351037Y734063D01*
X353324Y736349D01*
X353456Y736273D01*
X354473Y736000D01*
X355527D01*
X356544Y736273D01*
X357456Y736799D01*
X358201Y737544D01*
X358727Y738456D01*
X359000Y739473D01*
Y740527D01*
X358727Y741544D01*
X358201Y742456D01*
X357456Y743201D01*
X356544Y743727D01*
X355527Y744000D01*
X354473D01*
X353456Y743727D01*
X352544Y743201D01*
X351799Y742456D01*
X351273Y741544D01*
X351000Y740527D01*
Y739473D01*
X351273Y738456D01*
X351422Y738197D01*
X349551Y736326D01*
X347583D01*
X347495Y736654D01*
X347482Y736826D01*
X348201Y737544D01*
X348727Y738456D01*
X349000Y739473D01*
Y740527D01*
X348727Y741544D01*
X348201Y742456D01*
X347482Y743175D01*
X347495Y743347D01*
X347583Y743675D01*
X350000D01*
X350507Y743775D01*
X350937Y744063D01*
X353260Y746386D01*
X353456Y746273D01*
X354473Y746000D01*
X355527D01*
X356544Y746273D01*
X357456Y746799D01*
X358201Y747544D01*
X358727Y748456D01*
X359000Y749473D01*
Y750527D01*
X358727Y751544D01*
X358201Y752456D01*
X357456Y753201D01*
X356544Y753727D01*
X355527Y754000D01*
X354473D01*
X353456Y753727D01*
X352544Y753201D01*
X351799Y752456D01*
X351273Y751544D01*
X351000Y750527D01*
Y749473D01*
X351273Y748456D01*
X351386Y748260D01*
X349451Y746325D01*
X347583D01*
X347495Y746654D01*
X347482Y746826D01*
X348201Y747544D01*
X348727Y748456D01*
X349000Y749473D01*
Y750527D01*
X348727Y751544D01*
X348201Y752456D01*
X347803Y752853D01*
X348010Y753354D01*
X349679D01*
X350186Y753454D01*
X350616Y753742D01*
X353260Y756386D01*
X353456Y756273D01*
X354473Y756000D01*
X355527D01*
X356544Y756273D01*
X357456Y756799D01*
X358201Y757544D01*
X358727Y758456D01*
X359000Y759473D01*
Y760527D01*
X358727Y761544D01*
X358201Y762456D01*
X357456Y763201D01*
X356544Y763727D01*
X355527Y764000D01*
D02*
G37*
G36*
X280622Y765291D02*
X279378D01*
X278158Y765049D01*
X277009Y764573D01*
X275974Y763881D01*
X275095Y763002D01*
X274404Y761968D01*
X273928Y760818D01*
X273685Y759598D01*
Y758354D01*
X273928Y757134D01*
X274404Y755985D01*
X275095Y754951D01*
X275974Y754071D01*
X277009Y753380D01*
X278158Y752904D01*
X279378Y752661D01*
X280622D01*
X281842Y752904D01*
X282991Y753380D01*
X284026Y754071D01*
X284905Y754951D01*
X285596Y755985D01*
X286072Y757134D01*
X286315Y758354D01*
Y759598D01*
X286072Y760818D01*
X285596Y761968D01*
X284905Y763002D01*
X284026Y763881D01*
X282991Y764573D01*
X281842Y765049D01*
X280622Y765291D01*
D02*
G37*
G36*
X150701D02*
X149457D01*
X148237Y765049D01*
X147088Y764573D01*
X146053Y763881D01*
X145174Y763002D01*
X144483Y761968D01*
X144007Y760818D01*
X143764Y759598D01*
Y758354D01*
X144007Y757134D01*
X144483Y755985D01*
X145174Y754951D01*
X146053Y754071D01*
X147088Y753380D01*
X148237Y752904D01*
X149457Y752661D01*
X150701D01*
X151921Y752904D01*
X153070Y753380D01*
X154104Y754071D01*
X154984Y754951D01*
X155675Y755985D01*
X156151Y757134D01*
X156394Y758354D01*
Y759598D01*
X156151Y760818D01*
X155675Y761968D01*
X154984Y763002D01*
X154104Y763881D01*
X153070Y764573D01*
X151921Y765049D01*
X150701Y765291D01*
D02*
G37*
G36*
X794417Y755165D02*
X793583D01*
X792778Y754950D01*
X792056Y754533D01*
X791467Y753944D01*
X791050Y753222D01*
X790835Y752417D01*
Y751583D01*
X791050Y750778D01*
X791467Y750056D01*
X792056Y749467D01*
X792778Y749050D01*
X793583Y748835D01*
X794417D01*
X795222Y749050D01*
X795944Y749467D01*
X796533Y750056D01*
X796950Y750778D01*
X797165Y751583D01*
Y752417D01*
X796950Y753222D01*
X796533Y753944D01*
X795944Y754533D01*
X795222Y754950D01*
X794417Y755165D01*
D02*
G37*
G36*
X665238Y757429D02*
X663809D01*
X662428Y757059D01*
X661190Y756344D01*
X660179Y755334D01*
X659465Y754096D01*
X659094Y752715D01*
Y751285D01*
X659465Y749904D01*
X660179Y748666D01*
X661190Y747656D01*
X662428Y746941D01*
X663809Y746571D01*
X665238D01*
X666619Y746941D01*
X667857Y747656D01*
X668868Y748666D01*
X669583Y749904D01*
X669953Y751285D01*
Y752715D01*
X669583Y754096D01*
X668868Y755334D01*
X667857Y756344D01*
X666619Y757059D01*
X665238Y757429D01*
D02*
G37*
G36*
X790000Y721020D02*
X746000D01*
X745610Y720942D01*
X745279Y720721D01*
X745058Y720390D01*
X744980Y720000D01*
Y698000D01*
X745058Y697610D01*
X745279Y697279D01*
X745610Y697058D01*
X746000Y696980D01*
X772000D01*
X772390Y697058D01*
X772721Y697279D01*
X772942Y697610D01*
X773020Y698000D01*
Y708033D01*
X790000Y708033D01*
X790390Y708111D01*
X790721Y708332D01*
X790942Y708663D01*
X791020Y709053D01*
Y711832D01*
X791297Y711971D01*
X791520Y712004D01*
X792056Y711467D01*
X792778Y711050D01*
X793583Y710835D01*
X794417D01*
X795222Y711050D01*
X795944Y711467D01*
X796533Y712056D01*
X796950Y712778D01*
X797165Y713583D01*
Y714417D01*
X796950Y715222D01*
X796533Y715944D01*
X795944Y716533D01*
X795222Y716950D01*
X794417Y717165D01*
X793583D01*
X792778Y716950D01*
X792056Y716533D01*
X791520Y715996D01*
X791297Y716029D01*
X791020Y716168D01*
Y720000D01*
X790942Y720390D01*
X790721Y720721D01*
X790390Y720942D01*
X790000Y721020D01*
D02*
G37*
G36*
X355527Y714000D02*
X354473D01*
X353456Y713727D01*
X352544Y713201D01*
X351799Y712456D01*
X351273Y711544D01*
X351000Y710527D01*
Y709473D01*
X351273Y708456D01*
X351799Y707544D01*
X352544Y706799D01*
X353456Y706273D01*
X354473Y706000D01*
X355527D01*
X356544Y706273D01*
X357456Y706799D01*
X358201Y707544D01*
X358727Y708456D01*
X359000Y709473D01*
Y710527D01*
X358727Y711544D01*
X358201Y712456D01*
X357456Y713201D01*
X356544Y713727D01*
X355527Y714000D01*
D02*
G37*
G36*
X794417Y707165D02*
X793583D01*
X792778Y706950D01*
X792056Y706533D01*
X791467Y705944D01*
X791050Y705222D01*
X790835Y704417D01*
Y703583D01*
X791050Y702778D01*
X791467Y702056D01*
X792056Y701467D01*
X792778Y701050D01*
X793583Y700835D01*
X794417D01*
X795222Y701050D01*
X795944Y701467D01*
X796533Y702056D01*
X796950Y702778D01*
X797165Y703583D01*
Y704417D01*
X796950Y705222D01*
X796533Y705944D01*
X795944Y706533D01*
X795222Y706950D01*
X794417Y707165D01*
D02*
G37*
G36*
X664738Y708929D02*
X663309D01*
X661928Y708559D01*
X660690Y707844D01*
X659679Y706834D01*
X658964Y705596D01*
X658595Y704215D01*
Y702785D01*
X658964Y701404D01*
X659679Y700166D01*
X660690Y699156D01*
X661928Y698441D01*
X663309Y698071D01*
X664738D01*
X666119Y698441D01*
X667357Y699156D01*
X668368Y700166D01*
X669083Y701404D01*
X669453Y702785D01*
Y704215D01*
X669083Y705596D01*
X668368Y706834D01*
X667357Y707844D01*
X666119Y708559D01*
X664738Y708929D01*
D02*
G37*
G36*
X678316Y673700D02*
X677441D01*
X676632Y673365D01*
X676014Y672746D01*
X675679Y671938D01*
Y671062D01*
X676014Y670254D01*
X676632Y669635D01*
X677441Y669300D01*
X678316D01*
X679125Y669635D01*
X679744Y670254D01*
X680079Y671062D01*
Y671938D01*
X679744Y672746D01*
X679125Y673365D01*
X678316Y673700D01*
D02*
G37*
G36*
X678238Y668200D02*
X677362D01*
X676554Y667865D01*
X675935Y667246D01*
X675600Y666438D01*
Y665562D01*
X675935Y664754D01*
X676554Y664135D01*
X677362Y663800D01*
X678238D01*
X679046Y664135D01*
X679665Y664754D01*
X680000Y665562D01*
Y666438D01*
X679665Y667246D01*
X679046Y667865D01*
X678238Y668200D01*
D02*
G37*
G36*
X664459Y651700D02*
X663584D01*
X662775Y651365D01*
X662156Y650746D01*
X661821Y649938D01*
Y649062D01*
X662156Y648254D01*
X662775Y647635D01*
X663584Y647300D01*
X664459D01*
X665268Y647635D01*
X665886Y648254D01*
X666221Y649062D01*
Y649938D01*
X665886Y650746D01*
X665268Y651365D01*
X664459Y651700D01*
D02*
G37*
G36*
X355527Y644000D02*
X354473D01*
X353456Y643727D01*
X352544Y643201D01*
X351799Y642456D01*
X351273Y641544D01*
X351000Y640527D01*
Y639473D01*
X351273Y638456D01*
X351799Y637544D01*
X352544Y636799D01*
X353456Y636273D01*
X354473Y636000D01*
X355527D01*
X356544Y636273D01*
X357456Y636799D01*
X358201Y637544D01*
X358727Y638456D01*
X359000Y639473D01*
Y640527D01*
X358727Y641544D01*
X358201Y642456D01*
X357456Y643201D01*
X356544Y643727D01*
X355527Y644000D01*
D02*
G37*
G36*
X784000Y665020D02*
X694000D01*
X693610Y664942D01*
X693279Y664721D01*
X693058Y664390D01*
X692980Y664000D01*
Y645132D01*
X692900Y644938D01*
Y644062D01*
X692980Y643868D01*
Y628000D01*
X693058Y627610D01*
X693279Y627279D01*
X693610Y627058D01*
X694000Y626980D01*
X729127D01*
X729562Y626800D01*
X730438D01*
X730873Y626980D01*
X733127D01*
X733562Y626800D01*
X734438D01*
X734873Y626980D01*
X737127D01*
X737562Y626800D01*
X738438D01*
X738873Y626980D01*
X741127D01*
X741562Y626800D01*
X742438D01*
X742873Y626980D01*
X758980D01*
Y622000D01*
X759058Y621610D01*
X759279Y621279D01*
X759610Y621058D01*
X760000Y620980D01*
X784000D01*
X784390Y621058D01*
X784721Y621279D01*
X784942Y621610D01*
X785020Y622000D01*
Y664000D01*
X784942Y664390D01*
X784721Y664721D01*
X784390Y664942D01*
X784000Y665020D01*
D02*
G37*
G36*
X678166Y615300D02*
X677291D01*
X676482Y614965D01*
X675864Y614346D01*
X675529Y613538D01*
Y612662D01*
X675864Y611854D01*
X676482Y611235D01*
X677291Y610900D01*
X678166D01*
X678975Y611235D01*
X679594Y611854D01*
X679929Y612662D01*
Y613538D01*
X679594Y614346D01*
X678975Y614965D01*
X678166Y615300D01*
D02*
G37*
G36*
X649445Y665007D02*
X648569D01*
X647761Y664672D01*
X647221Y664133D01*
X633694D01*
X633186Y664032D01*
X632756Y663744D01*
X421495Y452483D01*
X326686D01*
X326631Y452689D01*
X326109Y453594D01*
X325370Y454333D01*
X324465Y454855D01*
X323456Y455126D01*
X322411D01*
X321401Y454855D01*
X320496Y454333D01*
X319758Y453594D01*
X319235Y452689D01*
X318965Y451680D01*
Y450635D01*
X319235Y449626D01*
X319758Y448721D01*
X320496Y447982D01*
X321401Y447459D01*
X322411Y447189D01*
X323456D01*
X324465Y447459D01*
X325370Y447982D01*
X326109Y448721D01*
X326631Y449626D01*
X326686Y449832D01*
X422044D01*
X422551Y449933D01*
X422981Y450220D01*
X634243Y661482D01*
X647221D01*
X647761Y660942D01*
X648054Y660821D01*
Y660279D01*
X647761Y660158D01*
X647142Y659539D01*
X647102Y659442D01*
X643117D01*
X642609Y659341D01*
X642179Y659054D01*
X560063Y576937D01*
X425766Y442640D01*
X326902D01*
Y445284D01*
X318965D01*
Y439221D01*
X288101Y408358D01*
X236000D01*
X235460Y408897D01*
X235385Y408928D01*
Y409429D01*
X235504Y409478D01*
X236044Y410017D01*
X273276D01*
X273783Y410118D01*
X274213Y410406D01*
X321216Y457409D01*
X321401Y457302D01*
X322411Y457031D01*
X323456D01*
X324465Y457302D01*
X325370Y457824D01*
X326109Y458563D01*
X326631Y459468D01*
X326902Y460477D01*
Y461522D01*
X326631Y462532D01*
X326109Y463437D01*
X325370Y464176D01*
X324465Y464698D01*
X323456Y464968D01*
X322411D01*
X321401Y464698D01*
X320496Y464176D01*
X319758Y463437D01*
X319235Y462532D01*
X318965Y461522D01*
Y460477D01*
X319235Y459468D01*
X319342Y459283D01*
X272727Y412668D01*
X236044D01*
X235504Y413208D01*
X234696Y413543D01*
X233821D01*
X233012Y413208D01*
X232825Y413022D01*
X232326Y413229D01*
Y419951D01*
X246049Y433674D01*
X278714D01*
X279254Y433135D01*
X280062Y432800D01*
X280938D01*
X281746Y433135D01*
X282365Y433754D01*
X282700Y434562D01*
Y435438D01*
X282365Y436246D01*
X281746Y436865D01*
X280938Y437200D01*
X280062D01*
X279254Y436865D01*
X278714Y436326D01*
X245500D01*
X244993Y436225D01*
X244563Y435937D01*
X230063Y421437D01*
X229825Y421082D01*
X229506Y421102D01*
X229326Y421165D01*
Y423051D01*
X249797Y443523D01*
X287866D01*
X288454Y442935D01*
X289262Y442600D01*
X290138D01*
X290946Y442935D01*
X291565Y443554D01*
X291900Y444362D01*
Y445238D01*
X291565Y446046D01*
X290946Y446665D01*
X290138Y447000D01*
X289262D01*
X288454Y446665D01*
X287963Y446174D01*
X249248D01*
X248741Y446073D01*
X248311Y445786D01*
X227063Y424537D01*
X226775Y424107D01*
X226675Y423600D01*
Y378000D01*
X226775Y377493D01*
X227063Y377063D01*
X297886Y306240D01*
Y279597D01*
X297346Y279057D01*
X297011Y278249D01*
Y277373D01*
X297346Y276565D01*
X297965Y275946D01*
X298773Y275611D01*
X299649D01*
X300457Y275946D01*
X301076Y276565D01*
X301411Y277373D01*
Y278249D01*
X301076Y279057D01*
X300536Y279597D01*
Y306789D01*
X300436Y307296D01*
X300148Y307726D01*
X229326Y378549D01*
Y387835D01*
X229506Y387898D01*
X229825Y387918D01*
X230063Y387563D01*
X240063Y377563D01*
X240493Y377275D01*
X241000Y377174D01*
X276189D01*
X276696Y377275D01*
X277126Y377563D01*
X278769Y379205D01*
X279532D01*
X280341Y379540D01*
X280768Y379968D01*
X280995Y380145D01*
X281421Y379968D01*
X281754Y379635D01*
X282562Y379300D01*
X283438D01*
X284246Y379635D01*
X284865Y380254D01*
X285200Y381062D01*
Y381938D01*
X284865Y382746D01*
X284326Y383286D01*
Y392500D01*
Y401714D01*
X284865Y402254D01*
X285200Y403062D01*
Y403938D01*
X284865Y404746D01*
X284404Y405207D01*
X284612Y405707D01*
X288650D01*
X289158Y405808D01*
X289588Y406095D01*
X320839Y437347D01*
X326902D01*
Y439990D01*
X426315D01*
X426822Y440090D01*
X427252Y440378D01*
X561549Y574675D01*
X646214D01*
X646754Y574135D01*
X647562Y573800D01*
X648438D01*
X649246Y574135D01*
X649865Y574754D01*
X650200Y575562D01*
Y576438D01*
X649865Y577246D01*
X649246Y577865D01*
X648438Y578200D01*
X647562D01*
X646754Y577865D01*
X646214Y577325D01*
X564853D01*
X564662Y577787D01*
X643666Y656791D01*
X647398D01*
X647761Y656428D01*
X648569Y656093D01*
X649445D01*
X650175Y656395D01*
X650674Y656196D01*
Y615549D01*
X647326Y612200D01*
X646562D01*
X645754Y611865D01*
X645135Y611246D01*
X644800Y610438D01*
Y609562D01*
X645135Y608754D01*
X645754Y608135D01*
X646562Y607800D01*
X647438D01*
X648246Y608135D01*
X648865Y608754D01*
X649200Y609562D01*
Y610325D01*
X652937Y614063D01*
X653225Y614493D01*
X653326Y615000D01*
Y659814D01*
X653225Y660321D01*
X652937Y660751D01*
X651207Y662482D01*
Y663245D01*
X650872Y664053D01*
X650253Y664672D01*
X649445Y665007D01*
D02*
G37*
G36*
X755000Y625020D02*
X685000D01*
X684610Y624942D01*
X684279Y624721D01*
X684058Y624390D01*
X683980Y624000D01*
Y613417D01*
X684000Y613318D01*
Y613218D01*
X684038Y613125D01*
X684058Y613027D01*
X684114Y612943D01*
X684152Y612851D01*
X684223Y612780D01*
X684279Y612696D01*
X684363Y612640D01*
X684434Y612569D01*
X684849Y612291D01*
X684942Y612253D01*
X685026Y612197D01*
X685124Y612178D01*
X685217Y612139D01*
X685317D01*
X685416Y612120D01*
X685514Y612139D01*
X685615D01*
X685707Y612178D01*
X685721Y612180D01*
X686235D01*
X686669Y612001D01*
X686952Y611717D01*
X687117Y611607D01*
X687282Y611496D01*
X687609Y611361D01*
X687610Y611361D01*
X687611Y611360D01*
X687806Y611321D01*
X687999Y611283D01*
X688000Y611283D01*
X688001Y611283D01*
X688194Y611321D01*
X688389Y611360D01*
X688390Y611361D01*
X688391Y611361D01*
X688718Y611496D01*
X688883Y611607D01*
X689048Y611717D01*
X689331Y612001D01*
X689765Y612180D01*
X690235D01*
X690669Y612001D01*
X690952Y611717D01*
X691117Y611607D01*
X691282Y611496D01*
X691609Y611361D01*
X691610Y611361D01*
X691611Y611360D01*
X691806Y611321D01*
X691999Y611283D01*
X692000Y611283D01*
X692001Y611283D01*
X692194Y611321D01*
X692389Y611360D01*
X692390Y611361D01*
X692391Y611361D01*
X692718Y611496D01*
X692883Y611607D01*
X693048Y611717D01*
X693331Y612001D01*
X693765Y612180D01*
X694235D01*
X694669Y612001D01*
X695001Y611669D01*
X695180Y611235D01*
Y610765D01*
X695001Y610331D01*
X694717Y610048D01*
X694607Y609883D01*
X694496Y609718D01*
X694361Y609391D01*
X694360Y609390D01*
X694360Y609389D01*
X694321Y609194D01*
X694283Y609001D01*
X694283Y609000D01*
X694283Y608999D01*
X694321Y608806D01*
X694360Y608611D01*
X694360Y608610D01*
X694361Y608609D01*
X694496Y608282D01*
X694607Y608117D01*
X694717Y607952D01*
X695001Y607669D01*
X695180Y607235D01*
Y606765D01*
X695001Y606331D01*
X694669Y605999D01*
X694235Y605820D01*
X693765D01*
X693331Y605999D01*
X693048Y606283D01*
X692883Y606393D01*
X692718Y606504D01*
X692391Y606639D01*
X692390Y606639D01*
X692389Y606640D01*
X692194Y606679D01*
X692001Y606717D01*
X692000Y606717D01*
X691999Y606717D01*
X691806Y606679D01*
X691611Y606640D01*
X691610Y606639D01*
X691609Y606639D01*
X691282Y606504D01*
X691117Y606393D01*
X690952Y606283D01*
X690669Y605999D01*
X690235Y605820D01*
X689765D01*
X689331Y605999D01*
X688906Y606424D01*
X688781Y606508D01*
X688665Y606603D01*
X688617Y606618D01*
X688576Y606645D01*
X688428Y606675D01*
X688284Y606718D01*
X687998Y606746D01*
X687900Y606736D01*
X687802Y606746D01*
X687516Y606718D01*
X687372Y606675D01*
X687224Y606645D01*
X687183Y606618D01*
X687135Y606603D01*
X687019Y606508D01*
X686894Y606424D01*
X686469Y605999D01*
X686035Y605820D01*
X685362D01*
X685264Y605800D01*
X685163D01*
X685071Y605762D01*
X684972Y605742D01*
X684889Y605686D01*
X684796Y605648D01*
X684434Y605406D01*
X684363Y605335D01*
X684279Y605279D01*
X684223Y605195D01*
X684152Y605124D01*
X684114Y605031D01*
X684058Y604948D01*
X684038Y604849D01*
X684000Y604757D01*
Y604656D01*
X683980Y604558D01*
Y234020D01*
X620000D01*
X619610Y233942D01*
X619279Y233721D01*
X619058Y233390D01*
X618980Y233000D01*
Y194000D01*
X619058Y193610D01*
X619279Y193279D01*
X619610Y193058D01*
X620000Y192980D01*
X725000D01*
X725390Y193058D01*
X725721Y193279D01*
X725942Y193610D01*
X726020Y194000D01*
Y274980D01*
X755000D01*
X755390Y275058D01*
X755721Y275279D01*
X755942Y275610D01*
X756020Y276000D01*
Y289000D01*
X755942Y289390D01*
X755721Y289721D01*
X755390Y289942D01*
X755000Y290020D01*
X726020D01*
Y442980D01*
X754000D01*
X754390Y443058D01*
X754721Y443279D01*
X754942Y443610D01*
X755020Y444000D01*
Y457000D01*
X754942Y457390D01*
X754721Y457721D01*
X754390Y457942D01*
X754000Y458020D01*
X726020D01*
Y608980D01*
X755000D01*
X755390Y609058D01*
X755721Y609279D01*
X755942Y609610D01*
X756020Y610000D01*
Y624000D01*
X755942Y624390D01*
X755721Y624721D01*
X755390Y624942D01*
X755000Y625020D01*
D02*
G37*
G36*
X678138Y609500D02*
X677262D01*
X676454Y609165D01*
X675835Y608546D01*
X675500Y607738D01*
Y606862D01*
X675835Y606054D01*
X676454Y605435D01*
X677262Y605100D01*
X678138D01*
X678946Y605435D01*
X679565Y606054D01*
X679900Y606862D01*
Y607738D01*
X679565Y608546D01*
X678946Y609165D01*
X678138Y609500D01*
D02*
G37*
G36*
X637838Y605829D02*
X636962D01*
X636154Y605494D01*
X635535Y604875D01*
X635200Y604066D01*
Y603191D01*
X635535Y602383D01*
X636154Y601764D01*
X636962Y601429D01*
X637838D01*
X638646Y601764D01*
X639265Y602383D01*
X639600Y603191D01*
Y604066D01*
X639265Y604875D01*
X638646Y605494D01*
X637838Y605829D01*
D02*
G37*
G36*
X646838Y605800D02*
X645962D01*
X645154Y605465D01*
X644535Y604846D01*
X644200Y604038D01*
Y603162D01*
X644535Y602354D01*
X645154Y601735D01*
X645962Y601400D01*
X646838D01*
X647646Y601735D01*
X648265Y602354D01*
X648600Y603162D01*
Y604038D01*
X648265Y604846D01*
X647646Y605465D01*
X646838Y605800D01*
D02*
G37*
G36*
X664366Y593200D02*
X663491D01*
X662682Y592865D01*
X662063Y592246D01*
X661728Y591438D01*
Y590562D01*
X662063Y589754D01*
X662682Y589135D01*
X663491Y588800D01*
X664366D01*
X665174Y589135D01*
X665793Y589754D01*
X666128Y590562D01*
Y591438D01*
X665793Y592246D01*
X665174Y592865D01*
X664366Y593200D01*
D02*
G37*
G36*
X783224Y605224D02*
X771776D01*
Y605020D01*
X728000D01*
X727610Y604942D01*
X727279Y604721D01*
X727058Y604390D01*
X726980Y604000D01*
Y566000D01*
X727058Y565610D01*
X727279Y565279D01*
X727610Y565058D01*
X728000Y564980D01*
X782000D01*
X782390Y565058D01*
X782721Y565279D01*
X782942Y565610D01*
X783020Y566000D01*
Y593776D01*
X783224D01*
Y605224D01*
D02*
G37*
G36*
X280622Y576315D02*
X279378D01*
X278158Y576072D01*
X277009Y575596D01*
X275974Y574905D01*
X275095Y574026D01*
X274404Y572991D01*
X273928Y571842D01*
X273685Y570622D01*
Y569378D01*
X273928Y568158D01*
X274404Y567009D01*
X275095Y565974D01*
X275974Y565095D01*
X277009Y564404D01*
X278158Y563928D01*
X279378Y563685D01*
X280622D01*
X281842Y563928D01*
X282991Y564404D01*
X284026Y565095D01*
X284905Y565974D01*
X285596Y567009D01*
X286072Y568158D01*
X286315Y569378D01*
Y570622D01*
X286072Y571842D01*
X285596Y572991D01*
X284905Y574026D01*
X284026Y574905D01*
X282991Y575596D01*
X281842Y576072D01*
X280622Y576315D01*
D02*
G37*
G36*
X150701D02*
X149457D01*
X148237Y576072D01*
X147088Y575596D01*
X146053Y574905D01*
X145174Y574026D01*
X144483Y572991D01*
X144007Y571842D01*
X143764Y570622D01*
Y569378D01*
X144007Y568158D01*
X144483Y567009D01*
X145174Y565974D01*
X146053Y565095D01*
X147088Y564404D01*
X148237Y563928D01*
X149457Y563685D01*
X150701D01*
X151921Y563928D01*
X153070Y564404D01*
X154104Y565095D01*
X154984Y565974D01*
X155675Y567009D01*
X156151Y568158D01*
X156394Y569378D01*
Y570622D01*
X156151Y571842D01*
X155675Y572991D01*
X154984Y574026D01*
X154104Y574905D01*
X153070Y575596D01*
X151921Y576072D01*
X150701Y576315D01*
D02*
G37*
G36*
X126000Y574000D02*
X120000D01*
Y568000D01*
X120113D01*
X120402Y567500D01*
X120204Y567158D01*
X120000Y566395D01*
Y565605D01*
X120204Y564842D01*
X120599Y564158D01*
X121158Y563599D01*
X121842Y563204D01*
X122605Y563000D01*
X123395D01*
X124158Y563204D01*
X124842Y563599D01*
X125401Y564158D01*
X125796Y564842D01*
X126000Y565605D01*
Y566395D01*
X125796Y567158D01*
X125598Y567500D01*
X125887Y568000D01*
X126000D01*
Y574000D01*
D02*
G37*
G36*
X360000Y557000D02*
X354000D01*
Y556887D01*
X353500Y556598D01*
X353158Y556796D01*
X352395Y557000D01*
X351605D01*
X350842Y556796D01*
X350158Y556401D01*
X349599Y555842D01*
X349204Y555158D01*
X349000Y554395D01*
Y553605D01*
X349204Y552842D01*
X349599Y552158D01*
X350158Y551599D01*
X350842Y551204D01*
X351605Y551000D01*
X352395D01*
X353158Y551204D01*
X353500Y551402D01*
X354000Y551113D01*
Y551000D01*
X360000D01*
Y557000D01*
D02*
G37*
G36*
X162438Y630121D02*
X161562D01*
X160754Y629786D01*
X160135Y629168D01*
X159800Y628359D01*
Y627484D01*
X160135Y626675D01*
X160675Y626135D01*
Y554786D01*
X160135Y554246D01*
X159800Y553438D01*
Y552562D01*
X160135Y551754D01*
X160754Y551135D01*
X161562Y550800D01*
X162438D01*
X163246Y551135D01*
X163865Y551754D01*
X164200Y552562D01*
Y553438D01*
X163865Y554246D01*
X163326Y554786D01*
Y626135D01*
X163865Y626675D01*
X164200Y627484D01*
Y628359D01*
X163865Y629168D01*
X163246Y629786D01*
X162438Y630121D01*
D02*
G37*
G36*
X154395Y548000D02*
X153605D01*
X152842Y547796D01*
X152158Y547401D01*
X151599Y546842D01*
X151204Y546158D01*
X151000Y545395D01*
Y544605D01*
X151204Y543842D01*
X151599Y543158D01*
X152158Y542599D01*
X152842Y542204D01*
X153605Y542000D01*
X154395D01*
X155158Y542204D01*
X155842Y542599D01*
X156401Y543158D01*
X156796Y543842D01*
X157000Y544605D01*
Y545395D01*
X156796Y546158D01*
X156401Y546842D01*
X155842Y547401D01*
X155158Y547796D01*
X154395Y548000D01*
D02*
G37*
G36*
X603438Y522200D02*
X602562D01*
X601754Y521865D01*
X601135Y521246D01*
X601021Y520970D01*
X600479D01*
X600365Y521246D01*
X599746Y521865D01*
X598938Y522200D01*
X598062D01*
X597254Y521865D01*
X596635Y521246D01*
X596521Y520970D01*
X595979D01*
X595865Y521246D01*
X595246Y521865D01*
X594438Y522200D01*
X593562D01*
X592754Y521865D01*
X592135Y521246D01*
X591800Y520438D01*
Y519562D01*
X592135Y518754D01*
X592562Y518327D01*
X592698Y518000D01*
X592562Y517673D01*
X592135Y517246D01*
X591800Y516438D01*
Y515562D01*
X592135Y514754D01*
X592562Y514327D01*
X592698Y514000D01*
X592562Y513673D01*
X592135Y513246D01*
X591800Y512438D01*
Y511562D01*
X592135Y510754D01*
X592754Y510135D01*
X593562Y509800D01*
X594438D01*
X595246Y510135D01*
X595865Y510754D01*
X595979Y511030D01*
X596521D01*
X596635Y510754D01*
X597254Y510135D01*
X598062Y509800D01*
X598938D01*
X599746Y510135D01*
X600365Y510754D01*
X600479Y511030D01*
X601021D01*
X601135Y510754D01*
X601754Y510135D01*
X602562Y509800D01*
X603438D01*
X604246Y510135D01*
X604865Y510754D01*
X605200Y511562D01*
Y512438D01*
X604865Y513246D01*
X604438Y513673D01*
X604302Y514000D01*
X604438Y514327D01*
X604865Y514754D01*
X605200Y515562D01*
Y516438D01*
X604865Y517246D01*
X604438Y517673D01*
X604302Y518000D01*
X604438Y518327D01*
X604865Y518754D01*
X605200Y519562D01*
Y520438D01*
X604865Y521246D01*
X604246Y521865D01*
X603438Y522200D01*
D02*
G37*
G36*
X565438D02*
X564562D01*
X563754Y521865D01*
X563135Y521246D01*
X562800Y520438D01*
Y519562D01*
X563135Y518754D01*
X563562Y518327D01*
X563698Y518000D01*
X563562Y517673D01*
X563135Y517246D01*
X562800Y516438D01*
Y515562D01*
X563135Y514754D01*
X563739Y514150D01*
X563135Y513546D01*
X562800Y512738D01*
Y511862D01*
X563135Y511054D01*
X563754Y510435D01*
X564562Y510100D01*
X565438D01*
X566246Y510435D01*
X566865Y511054D01*
X567200Y511862D01*
Y512738D01*
X566865Y513546D01*
X566261Y514150D01*
X566865Y514754D01*
X567200Y515562D01*
Y516438D01*
X566865Y517246D01*
X566438Y517673D01*
X566302Y518000D01*
X566438Y518327D01*
X566865Y518754D01*
X567200Y519562D01*
Y520438D01*
X566865Y521246D01*
X566246Y521865D01*
X565438Y522200D01*
D02*
G37*
G36*
X537488Y514250D02*
X536612D01*
X535804Y513915D01*
X535185Y513296D01*
X534850Y512488D01*
Y511612D01*
X535185Y510804D01*
X535804Y510185D01*
X536612Y509850D01*
X537488D01*
X538296Y510185D01*
X538915Y510804D01*
X539250Y511612D01*
Y512488D01*
X538915Y513296D01*
X538296Y513915D01*
X537488Y514250D01*
D02*
G37*
G36*
X313938Y505700D02*
X313062D01*
X312254Y505365D01*
X311714Y504825D01*
X215786D01*
X215246Y505365D01*
X214438Y505700D01*
X213562D01*
X212754Y505365D01*
X212135Y504746D01*
X211800Y503938D01*
Y503062D01*
X212135Y502254D01*
X212754Y501635D01*
X213562Y501300D01*
X214438D01*
X215246Y501635D01*
X215786Y502175D01*
X311714D01*
X312254Y501635D01*
X313062Y501300D01*
X313938D01*
X314746Y501635D01*
X315365Y502254D01*
X315700Y503062D01*
Y503938D01*
X315365Y504746D01*
X314746Y505365D01*
X313938Y505700D01*
D02*
G37*
G36*
X678266Y509000D02*
X677391D01*
X676582Y508665D01*
X675964Y508046D01*
X675629Y507238D01*
Y506362D01*
X675964Y505554D01*
X676582Y504935D01*
X677391Y504600D01*
X678266D01*
X679075Y504935D01*
X679694Y505554D01*
X680029Y506362D01*
Y507238D01*
X679694Y508046D01*
X679075Y508665D01*
X678266Y509000D01*
D02*
G37*
G36*
X537438Y509200D02*
X536562D01*
X535754Y508865D01*
X535135Y508246D01*
X534800Y507438D01*
Y506562D01*
X535135Y505754D01*
X535754Y505135D01*
X536332Y504896D01*
Y504354D01*
X535754Y504115D01*
X535135Y503496D01*
X534800Y502688D01*
Y501812D01*
X535135Y501004D01*
X535754Y500385D01*
X536562Y500050D01*
X537438D01*
X538246Y500385D01*
X538865Y501004D01*
X539200Y501812D01*
Y502688D01*
X538865Y503496D01*
X538246Y504115D01*
X537668Y504354D01*
Y504896D01*
X538246Y505135D01*
X538865Y505754D01*
X539200Y506562D01*
Y507438D01*
X538865Y508246D01*
X538246Y508865D01*
X537438Y509200D01*
D02*
G37*
G36*
X678338Y503700D02*
X677462D01*
X676654Y503365D01*
X676035Y502746D01*
X675700Y501938D01*
Y501062D01*
X676035Y500254D01*
X676654Y499635D01*
X677462Y499300D01*
X678338D01*
X679146Y499635D01*
X679765Y500254D01*
X680100Y501062D01*
Y501938D01*
X679765Y502746D01*
X679146Y503365D01*
X678338Y503700D01*
D02*
G37*
G36*
X333938Y498200D02*
X333062D01*
X332254Y497865D01*
X331635Y497246D01*
X331300Y496438D01*
Y495562D01*
X331635Y494754D01*
X332254Y494135D01*
X333062Y493800D01*
X333938D01*
X334746Y494135D01*
X335365Y494754D01*
X335700Y495562D01*
Y496438D01*
X335365Y497246D01*
X334746Y497865D01*
X333938Y498200D01*
D02*
G37*
G36*
X266704Y498622D02*
X191296D01*
X190789Y498521D01*
X190359Y498234D01*
X189825Y497700D01*
X189062D01*
X188254Y497365D01*
X187635Y496746D01*
X187300Y495938D01*
Y495062D01*
X187635Y494254D01*
X188254Y493635D01*
X189062Y493300D01*
X189938D01*
X190746Y493635D01*
X191365Y494254D01*
X191700Y495062D01*
Y495825D01*
X191846Y495971D01*
X266155D01*
X266800Y495326D01*
Y494562D01*
X267135Y493754D01*
X267754Y493135D01*
X268562Y492800D01*
X269438D01*
X270246Y493135D01*
X270865Y493754D01*
X271200Y494562D01*
Y495438D01*
X270865Y496246D01*
X270246Y496865D01*
X269438Y497200D01*
X268674D01*
X267641Y498234D01*
X267211Y498521D01*
X266704Y498622D01*
D02*
G37*
G36*
X244158Y495342D02*
X243283D01*
X242475Y495007D01*
X241856Y494388D01*
X241521Y493580D01*
Y492704D01*
X241856Y491896D01*
X242475Y491277D01*
X243283Y490942D01*
X244158D01*
X244967Y491277D01*
X245586Y491896D01*
X245921Y492704D01*
Y493580D01*
X245586Y494388D01*
X244967Y495007D01*
X244158Y495342D01*
D02*
G37*
G36*
X564438Y491200D02*
X563562D01*
X562754Y490865D01*
X562135Y490246D01*
X561800Y489438D01*
Y488562D01*
X562135Y487754D01*
X562754Y487135D01*
X563562Y486800D01*
X564438D01*
X565246Y487135D01*
X565865Y487754D01*
X566200Y488562D01*
Y489438D01*
X565865Y490246D01*
X565246Y490865D01*
X564438Y491200D01*
D02*
G37*
G36*
X664466Y486500D02*
X663591D01*
X662782Y486165D01*
X662163Y485546D01*
X661828Y484738D01*
Y483862D01*
X662163Y483054D01*
X662782Y482435D01*
X663591Y482100D01*
X664466D01*
X665274Y482435D01*
X665893Y483054D01*
X666228Y483862D01*
Y484738D01*
X665893Y485546D01*
X665274Y486165D01*
X664466Y486500D01*
D02*
G37*
G36*
X564438Y485950D02*
X563562D01*
X562754Y485615D01*
X562135Y484996D01*
X561800Y484188D01*
Y483312D01*
X562135Y482504D01*
X562754Y481885D01*
X563332Y481646D01*
Y481104D01*
X562754Y480865D01*
X562135Y480246D01*
X561800Y479438D01*
Y478562D01*
X562135Y477754D01*
X562754Y477135D01*
X563562Y476800D01*
X564438D01*
X565246Y477135D01*
X565865Y477754D01*
X566200Y478562D01*
Y479438D01*
X565865Y480246D01*
X565246Y480865D01*
X564668Y481104D01*
Y481646D01*
X565246Y481885D01*
X565865Y482504D01*
X566200Y483312D01*
Y484188D01*
X565865Y484996D01*
X565246Y485615D01*
X564438Y485950D01*
D02*
G37*
G36*
X149438Y476200D02*
X148562D01*
X147754Y475865D01*
X147135Y475246D01*
X146800Y474438D01*
Y473562D01*
X147105Y472825D01*
X146910Y472326D01*
X139786D01*
X139246Y472865D01*
X138438Y473200D01*
X137562D01*
X136754Y472865D01*
X136135Y472246D01*
X135800Y471438D01*
Y470562D01*
X136135Y469754D01*
X136754Y469135D01*
X137562Y468800D01*
X138438D01*
X139246Y469135D01*
X139786Y469674D01*
X152751D01*
X160500Y461926D01*
Y461162D01*
X160835Y460354D01*
X161454Y459735D01*
X162262Y459400D01*
X163138D01*
X163946Y459735D01*
X164565Y460354D01*
X164858Y461061D01*
X165362Y461264D01*
X167174Y459451D01*
Y438786D01*
X166635Y438246D01*
X166300Y437438D01*
Y436562D01*
X166635Y435754D01*
X167254Y435135D01*
X168062Y434800D01*
X168001Y434326D01*
X164549D01*
X162700Y436174D01*
Y436938D01*
X162365Y437746D01*
X161746Y438365D01*
X160938Y438700D01*
X160062D01*
X159254Y438365D01*
X158635Y437746D01*
X158300Y436938D01*
Y436062D01*
X158635Y435254D01*
X159254Y434635D01*
X160062Y434300D01*
X160826D01*
X163063Y432063D01*
X163493Y431775D01*
X164000Y431674D01*
X170500D01*
X171007Y431775D01*
X171437Y432063D01*
X174937Y435563D01*
X175225Y435993D01*
X175326Y436500D01*
Y459400D01*
X175225Y459907D01*
X174937Y460337D01*
X170500Y464775D01*
Y465538D01*
X170165Y466346D01*
X169546Y466965D01*
X168738Y467300D01*
X167862D01*
X167054Y466965D01*
X166435Y466346D01*
X166100Y465538D01*
Y464982D01*
X165600Y464775D01*
X162700Y467674D01*
Y468438D01*
X162365Y469246D01*
X161746Y469865D01*
X160938Y470200D01*
X160062D01*
X159254Y469865D01*
X158635Y469246D01*
X158342Y468539D01*
X157838Y468336D01*
X154237Y471937D01*
X153807Y472225D01*
X153300Y472326D01*
X151090D01*
X150895Y472825D01*
X151200Y473562D01*
Y474438D01*
X150865Y475246D01*
X150246Y475865D01*
X149438Y476200D01*
D02*
G37*
G36*
X293395Y478000D02*
X292605D01*
X291842Y477796D01*
X291158Y477401D01*
X290599Y476842D01*
X290204Y476158D01*
X290000Y475395D01*
Y474605D01*
X290204Y473842D01*
X290402Y473500D01*
X290113Y473000D01*
X290000D01*
Y467000D01*
X296000D01*
Y473000D01*
X295887D01*
X295598Y473500D01*
X295796Y473842D01*
X296000Y474605D01*
Y475395D01*
X295796Y476158D01*
X295401Y476842D01*
X294842Y477401D01*
X294158Y477796D01*
X293395Y478000D01*
D02*
G37*
G36*
X323456Y474811D02*
X322411D01*
X321401Y474541D01*
X320496Y474018D01*
X319758Y473279D01*
X319235Y472374D01*
X318965Y471365D01*
Y470320D01*
X319235Y469311D01*
X319758Y468406D01*
X320496Y467667D01*
X321401Y467144D01*
X322411Y466874D01*
X323456D01*
X324465Y467144D01*
X325370Y467667D01*
X326109Y468406D01*
X326631Y469311D01*
X326902Y470320D01*
Y471365D01*
X326631Y472374D01*
X326109Y473279D01*
X325370Y474018D01*
X324465Y474541D01*
X323456Y474811D01*
D02*
G37*
G36*
X98581Y466730D02*
X96220D01*
X95713Y466629D01*
X95282Y466341D01*
X93460Y464520D01*
X93173Y464089D01*
X93072Y463581D01*
Y462200D01*
X92762D01*
X91954Y461865D01*
X91335Y461246D01*
X91000Y460438D01*
Y459562D01*
X91335Y458754D01*
X91954Y458135D01*
X92762Y457800D01*
X93638D01*
X94446Y458135D01*
X94773Y458462D01*
X95100Y458726D01*
X95427Y458462D01*
X95754Y458135D01*
X96562Y457800D01*
X97438D01*
X98246Y458135D01*
X98865Y458754D01*
X99200Y459562D01*
Y460438D01*
X98865Y461246D01*
X98246Y461865D01*
X97994Y461970D01*
X97766Y462605D01*
X97802Y462673D01*
X97977D01*
X98000Y462669D01*
X100471D01*
X101270Y461869D01*
Y460120D01*
X101371Y459613D01*
X101659Y459182D01*
X103481Y457360D01*
X103911Y457072D01*
X104419Y456972D01*
X107800D01*
Y456562D01*
X108135Y455754D01*
X108754Y455135D01*
X109562Y454800D01*
X110438D01*
X111246Y455135D01*
X111865Y455754D01*
X112200Y456562D01*
Y457438D01*
X111865Y458246D01*
X111438Y458673D01*
X111302Y459000D01*
X111438Y459327D01*
X111865Y459754D01*
X112200Y460562D01*
Y461438D01*
X111865Y462246D01*
X111246Y462865D01*
X110438Y463200D01*
X109562D01*
X108754Y462865D01*
X108135Y462246D01*
X107800Y461438D01*
Y461028D01*
X105550D01*
X105327Y461251D01*
Y463000D01*
X105226Y463508D01*
X104938Y463938D01*
X102540Y466337D01*
X102109Y466624D01*
X101602Y466725D01*
X98604D01*
X98581Y466730D01*
D02*
G37*
G36*
X214438Y481700D02*
X213562D01*
X212754Y481365D01*
X212135Y480746D01*
X211800Y479938D01*
Y479062D01*
X212135Y478254D01*
X212674Y477714D01*
Y278000D01*
X212775Y277493D01*
X213063Y277063D01*
X217674Y272451D01*
Y263786D01*
X217135Y263246D01*
X216800Y262438D01*
Y261562D01*
X217135Y260754D01*
X217754Y260135D01*
X218562Y259800D01*
X219438D01*
X220246Y260135D01*
X220865Y260754D01*
X221200Y261562D01*
Y262438D01*
X220865Y263246D01*
X220325Y263786D01*
Y273000D01*
X220225Y273507D01*
X219937Y273937D01*
X215325Y278549D01*
Y363610D01*
X215826Y363805D01*
X216562Y363500D01*
X217438D01*
X218246Y363835D01*
X218865Y364454D01*
X219200Y365262D01*
Y365618D01*
X219700Y365826D01*
X282432Y303094D01*
Y287419D01*
X281892Y286879D01*
X281557Y286071D01*
Y285195D01*
X281892Y284387D01*
X282511Y283768D01*
X283319Y283433D01*
X284195D01*
X285003Y283768D01*
X285622Y284387D01*
X285957Y285195D01*
Y286071D01*
X285622Y286879D01*
X285082Y287419D01*
Y303643D01*
X284981Y304150D01*
X284694Y304580D01*
X218625Y370649D01*
Y372435D01*
X218806Y372498D01*
X219126Y372518D01*
X219363Y372163D01*
X288175Y303351D01*
Y276049D01*
X284326Y272200D01*
X283562D01*
X282754Y271865D01*
X282135Y271246D01*
X281800Y270438D01*
Y269562D01*
X282135Y268754D01*
X282754Y268135D01*
X283562Y267800D01*
X284438D01*
X285246Y268135D01*
X285865Y268754D01*
X286200Y269562D01*
Y270325D01*
X290437Y274563D01*
X290725Y274993D01*
X290826Y275500D01*
Y303900D01*
X290725Y304407D01*
X290437Y304837D01*
X221625Y373649D01*
Y376167D01*
X222126Y376319D01*
X222163Y376263D01*
X292974Y305451D01*
Y273101D01*
X284137Y264263D01*
X283373D01*
X282565Y263928D01*
X281946Y263309D01*
X281611Y262501D01*
Y261625D01*
X281946Y260817D01*
X282565Y260198D01*
X283373Y259863D01*
X284249D01*
X285057Y260198D01*
X285676Y260817D01*
X286011Y261625D01*
Y262388D01*
X295237Y271615D01*
X295525Y272045D01*
X295625Y272552D01*
Y306000D01*
X295525Y306507D01*
X295237Y306937D01*
X224426Y377749D01*
Y422851D01*
X250449Y448875D01*
X287714D01*
X288254Y448335D01*
X289062Y448000D01*
X289938D01*
X290746Y448335D01*
X291365Y448954D01*
X291700Y449762D01*
Y450638D01*
X291365Y451446D01*
X290746Y452065D01*
X289938Y452400D01*
X289062D01*
X288254Y452065D01*
X287714Y451525D01*
X249900D01*
X249393Y451425D01*
X248963Y451137D01*
X222163Y424337D01*
X222126Y424282D01*
X221625Y424433D01*
Y444051D01*
X231249Y453675D01*
X265005D01*
X265545Y453135D01*
X266354Y452800D01*
X267229D01*
X268038Y453135D01*
X268656Y453754D01*
X268991Y454562D01*
Y455438D01*
X268656Y456246D01*
X268038Y456865D01*
X267229Y457200D01*
X267138D01*
X267123Y457694D01*
X267931Y458029D01*
X268550Y458647D01*
X268885Y459456D01*
Y460331D01*
X268550Y461140D01*
X267931Y461759D01*
X267123Y462094D01*
X266247D01*
X265439Y461759D01*
X264899Y461219D01*
X230794D01*
X230287Y461118D01*
X229856Y460831D01*
X216363Y447337D01*
X216075Y446907D01*
X215974Y446400D01*
Y370100D01*
X216075Y369593D01*
X216363Y369163D01*
X217126Y368400D01*
X216918Y367900D01*
X216562D01*
X215826Y367595D01*
X215325Y367790D01*
Y477714D01*
X215865Y478254D01*
X216200Y479062D01*
Y479938D01*
X215865Y480746D01*
X215246Y481365D01*
X214438Y481700D01*
D02*
G37*
G36*
X121938Y456200D02*
X121062D01*
X120254Y455865D01*
X119635Y455246D01*
X119300Y454438D01*
Y453562D01*
X119635Y452754D01*
X120254Y452135D01*
X121062Y451800D01*
X121938D01*
X122746Y452135D01*
X123365Y452754D01*
X123700Y453562D01*
Y454438D01*
X123365Y455246D01*
X122746Y455865D01*
X121938Y456200D01*
D02*
G37*
G36*
X678266Y449200D02*
X677391D01*
X676582Y448865D01*
X675964Y448246D01*
X675629Y447438D01*
Y446562D01*
X675964Y445754D01*
X676582Y445135D01*
X677391Y444800D01*
X678266D01*
X679075Y445135D01*
X679694Y445754D01*
X680029Y446562D01*
Y447438D01*
X679694Y448246D01*
X679075Y448865D01*
X678266Y449200D01*
D02*
G37*
G36*
X649245Y500000D02*
X648370D01*
X647561Y499665D01*
X647021Y499125D01*
X636300D01*
X635793Y499025D01*
X635363Y498737D01*
X538794Y402168D01*
X326686D01*
X326631Y402374D01*
X326109Y403279D01*
X325370Y404018D01*
X324465Y404541D01*
X323456Y404811D01*
X322411D01*
X321401Y404541D01*
X320496Y404018D01*
X319758Y403279D01*
X319235Y402374D01*
X318965Y401365D01*
Y400320D01*
X319235Y399311D01*
X319758Y398406D01*
X320496Y397667D01*
X321401Y397145D01*
X322411Y396874D01*
X323456D01*
X324465Y397145D01*
X325370Y397667D01*
X326109Y398406D01*
X326631Y399311D01*
X326686Y399517D01*
X539342D01*
X539850Y399618D01*
X540280Y399905D01*
X636849Y496475D01*
X647021D01*
X647561Y495935D01*
X647975Y495763D01*
Y495222D01*
X647561Y495051D01*
X646942Y494432D01*
X646607Y493623D01*
Y492860D01*
X546072Y392325D01*
X326686D01*
X326631Y392532D01*
X326109Y393437D01*
X325370Y394176D01*
X324465Y394698D01*
X323456Y394969D01*
X322411D01*
X321401Y394698D01*
X320496Y394176D01*
X319758Y393437D01*
X319235Y392532D01*
X318965Y391523D01*
Y390477D01*
X319235Y389468D01*
X319758Y388563D01*
X320496Y387824D01*
X321401Y387302D01*
X322411Y387032D01*
X323456D01*
X324465Y387302D01*
X325370Y387824D01*
X326109Y388563D01*
X326631Y389468D01*
X326686Y389674D01*
X629000D01*
X629507Y389775D01*
X629937Y390063D01*
X649789Y409914D01*
X650552D01*
X651360Y410249D01*
X651979Y410868D01*
X652314Y411677D01*
Y412552D01*
X651979Y413360D01*
X651360Y413979D01*
X650552Y414314D01*
X649677D01*
X648868Y413979D01*
X648249Y413360D01*
X647914Y412552D01*
Y411789D01*
X628451Y392325D01*
X550475D01*
X550283Y392787D01*
X648482Y490986D01*
X649245D01*
X650053Y491321D01*
X650175Y491442D01*
X650674Y491235D01*
Y444913D01*
X649780Y444019D01*
X649017D01*
X648209Y443684D01*
X647590Y443065D01*
X647255Y442256D01*
Y441381D01*
X647590Y440572D01*
X648209Y439953D01*
X649017Y439618D01*
X649893D01*
X650701Y439953D01*
X651320Y440572D01*
X651655Y441381D01*
Y442144D01*
X652937Y443426D01*
X653225Y443856D01*
X653326Y444364D01*
Y494500D01*
X653225Y495007D01*
X652937Y495437D01*
X651007Y497367D01*
Y498238D01*
X650672Y499046D01*
X650053Y499665D01*
X649245Y500000D01*
D02*
G37*
G36*
X678338Y444000D02*
X677462D01*
X676654Y443665D01*
X676035Y443046D01*
X675700Y442238D01*
Y441362D01*
X676035Y440554D01*
X676654Y439935D01*
X677462Y439600D01*
X678338D01*
X679146Y439935D01*
X679765Y440554D01*
X680100Y441362D01*
Y442238D01*
X679765Y443046D01*
X679146Y443665D01*
X678338Y444000D01*
D02*
G37*
G36*
X646738Y439800D02*
X645862D01*
X645054Y439465D01*
X644435Y438846D01*
X644100Y438038D01*
Y437162D01*
X644435Y436354D01*
X645054Y435735D01*
X645862Y435400D01*
X646738D01*
X647546Y435735D01*
X648165Y436354D01*
X648500Y437162D01*
Y438038D01*
X648165Y438846D01*
X647546Y439465D01*
X646738Y439800D01*
D02*
G37*
G36*
X637438D02*
X636562D01*
X635754Y439465D01*
X635135Y438846D01*
X634800Y438038D01*
Y437162D01*
X635135Y436354D01*
X635754Y435735D01*
X636562Y435400D01*
X637438D01*
X638246Y435735D01*
X638865Y436354D01*
X639200Y437162D01*
Y438038D01*
X638865Y438846D01*
X638246Y439465D01*
X637438Y439800D01*
D02*
G37*
G36*
X664466Y427400D02*
X663591D01*
X662782Y427065D01*
X662163Y426446D01*
X661828Y425638D01*
Y424762D01*
X662163Y423954D01*
X662782Y423335D01*
X663591Y423000D01*
X664466D01*
X665274Y423335D01*
X665893Y423954D01*
X666228Y424762D01*
Y425638D01*
X665893Y426446D01*
X665274Y427065D01*
X664466Y427400D01*
D02*
G37*
G36*
X203858Y413200D02*
X202983D01*
X202174Y412865D01*
X201555Y412246D01*
X201220Y411438D01*
Y410562D01*
X201555Y409754D01*
X202174Y409135D01*
X202983Y408800D01*
X203858D01*
X204667Y409135D01*
X205286Y409754D01*
X205621Y410562D01*
Y411438D01*
X205286Y412246D01*
X204667Y412865D01*
X203858Y413200D01*
D02*
G37*
G36*
X195938Y412128D02*
X195062D01*
X194254Y411793D01*
X193635Y411174D01*
X193300Y410366D01*
Y409491D01*
X193635Y408682D01*
X194254Y408063D01*
X195062Y407728D01*
X195938D01*
X196746Y408063D01*
X197365Y408682D01*
X197700Y409491D01*
Y410366D01*
X197365Y411174D01*
X196746Y411793D01*
X195938Y412128D01*
D02*
G37*
G36*
X190938D02*
X190062D01*
X189254Y411793D01*
X188635Y411174D01*
X188300Y410366D01*
Y409491D01*
X188635Y408682D01*
X189254Y408063D01*
X190062Y407728D01*
X190938D01*
X191746Y408063D01*
X192365Y408682D01*
X192700Y409491D01*
Y410366D01*
X192365Y411174D01*
X191746Y411793D01*
X190938Y412128D01*
D02*
G37*
G36*
X784000Y479020D02*
X762000D01*
X761610Y478942D01*
X761279Y478721D01*
X761058Y478390D01*
X760980Y478000D01*
X760980Y441020D01*
X728000D01*
X727610Y440942D01*
X727279Y440721D01*
X727058Y440390D01*
X726980Y440000D01*
Y402000D01*
X727058Y401610D01*
X727279Y401279D01*
X727610Y401058D01*
X728000Y400980D01*
X762000D01*
X762390Y401058D01*
X762721Y401279D01*
X784721Y423279D01*
X784942Y423610D01*
X785020Y424000D01*
Y478000D01*
X784942Y478390D01*
X784721Y478721D01*
X784390Y478942D01*
X784000Y479020D01*
D02*
G37*
G36*
X287438Y371200D02*
X286562D01*
X285754Y370865D01*
X285135Y370246D01*
X284800Y369438D01*
Y368562D01*
X285135Y367754D01*
X285754Y367135D01*
X286562Y366800D01*
X287438D01*
X288246Y367135D01*
X288865Y367754D01*
X289200Y368562D01*
Y369438D01*
X288865Y370246D01*
X288246Y370865D01*
X287438Y371200D01*
D02*
G37*
G36*
X252438D02*
X251562D01*
X250754Y370865D01*
X250135Y370246D01*
X249800Y369438D01*
Y368562D01*
X250135Y367754D01*
X250754Y367135D01*
X251562Y366800D01*
X252438D01*
X253246Y367135D01*
X253865Y367754D01*
X254200Y368562D01*
Y369438D01*
X253865Y370246D01*
X253246Y370865D01*
X252438Y371200D01*
D02*
G37*
G36*
X405938Y364200D02*
X405062D01*
X404254Y363865D01*
X403635Y363246D01*
X403300Y362438D01*
Y361562D01*
X403635Y360754D01*
X404254Y360135D01*
X405062Y359800D01*
X405938D01*
X406746Y360135D01*
X407365Y360754D01*
X407700Y361562D01*
Y362438D01*
X407365Y363246D01*
X406746Y363865D01*
X405938Y364200D01*
D02*
G37*
G36*
Y358200D02*
X405062D01*
X404254Y357865D01*
X403635Y357246D01*
X403300Y356438D01*
Y355562D01*
X403635Y354754D01*
X404254Y354135D01*
X405062Y353800D01*
X405938D01*
X406746Y354135D01*
X407365Y354754D01*
X407700Y355562D01*
Y356438D01*
X407365Y357246D01*
X406746Y357865D01*
X405938Y358200D01*
D02*
G37*
G36*
Y352200D02*
X405062D01*
X404254Y351865D01*
X403635Y351246D01*
X403300Y350438D01*
Y349562D01*
X403635Y348754D01*
X404254Y348135D01*
X405062Y347800D01*
X405938D01*
X406746Y348135D01*
X407365Y348754D01*
X407700Y349562D01*
Y350438D01*
X407365Y351246D01*
X406746Y351865D01*
X405938Y352200D01*
D02*
G37*
G36*
X601438Y347200D02*
X600562D01*
X599754Y346865D01*
X599135Y346246D01*
X599021Y345970D01*
X598479D01*
X598365Y346246D01*
X597746Y346865D01*
X596938Y347200D01*
X596062D01*
X595254Y346865D01*
X594635Y346246D01*
X594521Y345970D01*
X593979D01*
X593865Y346246D01*
X593246Y346865D01*
X592438Y347200D01*
X591562D01*
X590754Y346865D01*
X590135Y346246D01*
X589800Y345438D01*
Y344562D01*
X590135Y343754D01*
X590562Y343327D01*
X590698Y343000D01*
X590562Y342673D01*
X590135Y342246D01*
X589800Y341438D01*
Y340562D01*
X590135Y339754D01*
X590562Y339327D01*
X590698Y339000D01*
X590562Y338673D01*
X590135Y338246D01*
X589800Y337438D01*
Y336562D01*
X590135Y335754D01*
X590754Y335135D01*
X591562Y334800D01*
X592438D01*
X593246Y335135D01*
X593865Y335754D01*
X593979Y336030D01*
X594521D01*
X594635Y335754D01*
X595254Y335135D01*
X596062Y334800D01*
X596938D01*
X597746Y335135D01*
X598365Y335754D01*
X598479Y336030D01*
X599021D01*
X599135Y335754D01*
X599754Y335135D01*
X600562Y334800D01*
X601438D01*
X602246Y335135D01*
X602865Y335754D01*
X603200Y336562D01*
Y337438D01*
X602865Y338246D01*
X602438Y338673D01*
X602302Y339000D01*
X602438Y339327D01*
X602865Y339754D01*
X603200Y340562D01*
Y341438D01*
X602865Y342246D01*
X602438Y342673D01*
X602302Y343000D01*
X602438Y343327D01*
X602865Y343754D01*
X603200Y344562D01*
Y345438D01*
X602865Y346246D01*
X602246Y346865D01*
X601438Y347200D01*
D02*
G37*
G36*
X467000Y360000D02*
X461000D01*
Y354000D01*
X461113D01*
X461402Y353500D01*
X461204Y353158D01*
X461000Y352395D01*
Y351605D01*
X461204Y350842D01*
X461599Y350158D01*
X461918Y349839D01*
X462104Y349500D01*
X461918Y349161D01*
X461599Y348842D01*
X461204Y348158D01*
X461000Y347395D01*
Y346605D01*
X461204Y345842D01*
X461599Y345158D01*
X462158Y344599D01*
X462842Y344204D01*
X463605Y344000D01*
X464395D01*
X465158Y344204D01*
X465842Y344599D01*
X466401Y345158D01*
X466796Y345842D01*
X467000Y346605D01*
Y347395D01*
X466796Y348158D01*
X466401Y348842D01*
X466082Y349161D01*
X465896Y349500D01*
X466082Y349839D01*
X466401Y350158D01*
X466796Y350842D01*
X467000Y351605D01*
Y352395D01*
X466796Y353158D01*
X466598Y353500D01*
X466887Y354000D01*
X467000D01*
Y360000D01*
D02*
G37*
G36*
X333938Y346200D02*
X333062D01*
X332254Y345865D01*
X331635Y345246D01*
X331300Y344438D01*
Y343562D01*
X331635Y342754D01*
X332254Y342135D01*
X333062Y341800D01*
X333938D01*
X334746Y342135D01*
X335365Y342754D01*
X335700Y343562D01*
Y344438D01*
X335365Y345246D01*
X334746Y345865D01*
X333938Y346200D01*
D02*
G37*
G36*
X678338Y340692D02*
X677462D01*
X676654Y340357D01*
X676035Y339738D01*
X675700Y338929D01*
Y338054D01*
X676035Y337245D01*
X676654Y336627D01*
X677462Y336292D01*
X678338D01*
X679146Y336627D01*
X679765Y337245D01*
X680100Y338054D01*
Y338929D01*
X679765Y339738D01*
X679146Y340357D01*
X678338Y340692D01*
D02*
G37*
G36*
X565438Y347200D02*
X564562D01*
X563754Y346865D01*
X563135Y346246D01*
X562800Y345438D01*
Y344562D01*
X563135Y343754D01*
X563562Y343327D01*
X563698Y343000D01*
X563562Y342673D01*
X563135Y342246D01*
X562800Y341438D01*
Y340562D01*
X563135Y339754D01*
X563562Y339327D01*
X563698Y339000D01*
X563562Y338673D01*
X563135Y338246D01*
X562800Y337438D01*
Y336562D01*
X563135Y335754D01*
X563754Y335135D01*
X564562Y334800D01*
X565438D01*
X566246Y335135D01*
X566865Y335754D01*
X567200Y336562D01*
Y337438D01*
X566865Y338246D01*
X566438Y338673D01*
X566302Y339000D01*
X566438Y339327D01*
X566865Y339754D01*
X567200Y340562D01*
Y341438D01*
X566865Y342246D01*
X566438Y342673D01*
X566302Y343000D01*
X566438Y343327D01*
X566865Y343754D01*
X567200Y344562D01*
Y345438D01*
X566865Y346246D01*
X566246Y346865D01*
X565438Y347200D01*
D02*
G37*
G36*
X224623Y334712D02*
X223748D01*
X222939Y334377D01*
X222321Y333758D01*
X221986Y332949D01*
Y332074D01*
X222321Y331266D01*
X222939Y330647D01*
X223748Y330312D01*
X224623D01*
X225432Y330647D01*
X225760Y330975D01*
X226099Y331227D01*
X226414Y330975D01*
X226754Y330635D01*
X227562Y330300D01*
X228438D01*
X229246Y330635D01*
X229623Y331012D01*
X229950Y331204D01*
X230277Y331012D01*
X230654Y330635D01*
X231462Y330300D01*
X232338D01*
X233146Y330635D01*
X233765Y331254D01*
X234100Y332062D01*
Y332938D01*
X233765Y333746D01*
X233146Y334365D01*
X232338Y334700D01*
X231462D01*
X230654Y334365D01*
X230277Y333988D01*
X229950Y333796D01*
X229623Y333988D01*
X229246Y334365D01*
X228438Y334700D01*
X227562D01*
X226754Y334365D01*
X226425Y334037D01*
X226087Y333785D01*
X225772Y334037D01*
X225432Y334377D01*
X224623Y334712D01*
D02*
G37*
G36*
X678338Y334600D02*
X677462D01*
X676654Y334265D01*
X676035Y333646D01*
X675700Y332838D01*
Y331962D01*
X676035Y331154D01*
X676654Y330535D01*
X677462Y330200D01*
X678338D01*
X679146Y330535D01*
X679765Y331154D01*
X680100Y331962D01*
Y332838D01*
X679765Y333646D01*
X679146Y334265D01*
X678338Y334600D01*
D02*
G37*
G36*
X538938Y340200D02*
X538062D01*
X537254Y339865D01*
X536635Y339246D01*
X536300Y338438D01*
Y337562D01*
X536635Y336754D01*
X537254Y336135D01*
X537832Y335896D01*
Y335354D01*
X537254Y335115D01*
X536635Y334496D01*
X536300Y333688D01*
Y332812D01*
X536635Y332004D01*
X537254Y331385D01*
X537832Y331146D01*
Y330604D01*
X537254Y330365D01*
X536635Y329746D01*
X536300Y328938D01*
Y328062D01*
X536635Y327254D01*
X537254Y326635D01*
X538062Y326300D01*
X538938D01*
X539746Y326635D01*
X540365Y327254D01*
X540700Y328062D01*
Y328938D01*
X540365Y329746D01*
X539746Y330365D01*
X539168Y330604D01*
Y331146D01*
X539746Y331385D01*
X540365Y332004D01*
X540700Y332812D01*
Y333688D01*
X540365Y334496D01*
X539746Y335115D01*
X539168Y335354D01*
Y335896D01*
X539746Y336135D01*
X540365Y336754D01*
X540700Y337562D01*
Y338438D01*
X540365Y339246D01*
X539746Y339865D01*
X538938Y340200D01*
D02*
G37*
G36*
X323456Y385126D02*
X322411D01*
X321401Y384856D01*
X320496Y384333D01*
X319758Y383594D01*
X319235Y382689D01*
X318965Y381680D01*
Y380635D01*
X319235Y379626D01*
X319758Y378721D01*
X320496Y377982D01*
X321401Y377459D01*
X322411Y377189D01*
X323456D01*
X324465Y377459D01*
X325370Y377982D01*
X326109Y378721D01*
X326631Y379626D01*
X326686Y379832D01*
X596908D01*
X647107Y329633D01*
Y328870D01*
X647442Y328061D01*
X648003Y327500D01*
X647442Y326939D01*
X647107Y326131D01*
Y325367D01*
X642000Y320260D01*
X590008Y372252D01*
X589578Y372539D01*
X589071Y372640D01*
X326902D01*
Y375284D01*
X318965D01*
Y367347D01*
X326902D01*
Y369989D01*
X588522D01*
X640674Y317837D01*
Y250000D01*
X640775Y249493D01*
X641063Y249063D01*
X645800Y244325D01*
Y243562D01*
X646135Y242754D01*
X646754Y242135D01*
X647562Y241800D01*
X648438D01*
X649246Y242135D01*
X649865Y242754D01*
X650200Y243562D01*
Y244438D01*
X649865Y245246D01*
X649246Y245865D01*
X648438Y246200D01*
X647675D01*
X643326Y250549D01*
Y317837D01*
X648982Y323493D01*
X649745D01*
X650553Y323828D01*
X650674Y323949D01*
X651174Y323742D01*
Y280049D01*
X649326Y278200D01*
X648562D01*
X647754Y277865D01*
X647135Y277246D01*
X646800Y276438D01*
Y275562D01*
X647135Y274754D01*
X647754Y274135D01*
X648562Y273800D01*
X649438D01*
X650246Y274135D01*
X650865Y274754D01*
X651200Y275562D01*
Y276325D01*
X653437Y278563D01*
X653725Y278993D01*
X653826Y279500D01*
Y326114D01*
X653725Y326621D01*
X653437Y327051D01*
X651507Y328982D01*
Y329745D01*
X651172Y330553D01*
X650553Y331172D01*
X649745Y331507D01*
X648982D01*
X598394Y382095D01*
X597964Y382382D01*
X597457Y382483D01*
X326686D01*
X326631Y382689D01*
X326109Y383594D01*
X325370Y384333D01*
X324465Y384856D01*
X323456Y385126D01*
D02*
G37*
G36*
X666338Y318200D02*
X665462D01*
X664654Y317865D01*
X664035Y317246D01*
X663700Y316438D01*
Y315562D01*
X664035Y314754D01*
X664654Y314135D01*
X665462Y313800D01*
X666338D01*
X667146Y314135D01*
X667765Y314754D01*
X668100Y315562D01*
Y316438D01*
X667765Y317246D01*
X667146Y317865D01*
X666338Y318200D01*
D02*
G37*
G36*
X565438Y316700D02*
X564562D01*
X563754Y316365D01*
X563135Y315746D01*
X562800Y314938D01*
Y314062D01*
X563135Y313254D01*
X563639Y312750D01*
X563135Y312246D01*
X562800Y311438D01*
Y310562D01*
X563135Y309754D01*
X563639Y309250D01*
X563035Y308646D01*
X562700Y307838D01*
Y306962D01*
X563035Y306154D01*
X563654Y305535D01*
X564462Y305200D01*
X565338D01*
X566146Y305535D01*
X566765Y306154D01*
X567100Y306962D01*
Y307838D01*
X566765Y308646D01*
X566261Y309150D01*
X566865Y309754D01*
X567200Y310562D01*
Y311438D01*
X566865Y312246D01*
X566361Y312750D01*
X566865Y313254D01*
X567200Y314062D01*
Y314938D01*
X566865Y315746D01*
X566246Y316365D01*
X565438Y316700D01*
D02*
G37*
G36*
X275415Y294615D02*
X274540D01*
X273732Y294280D01*
X273113Y293661D01*
X272778Y292853D01*
Y291977D01*
X273113Y291169D01*
X273732Y290550D01*
X274540Y290215D01*
X275415D01*
X276224Y290550D01*
X276843Y291169D01*
X277178Y291977D01*
Y292853D01*
X276843Y293661D01*
X276224Y294280D01*
X275415Y294615D01*
D02*
G37*
G36*
X678298Y282231D02*
X677423D01*
X676614Y281897D01*
X675995Y281278D01*
X675660Y280469D01*
Y279594D01*
X675995Y278785D01*
X676614Y278166D01*
X677423Y277832D01*
X678298D01*
X679106Y278166D01*
X679725Y278785D01*
X680060Y279594D01*
Y280469D01*
X679725Y281278D01*
X679106Y281897D01*
X678298Y282231D01*
D02*
G37*
G36*
X174438Y286200D02*
X173562D01*
X172754Y285865D01*
X172135Y285246D01*
X171800Y284438D01*
Y283562D01*
X172135Y282754D01*
X172562Y282327D01*
X172698Y282000D01*
X172562Y281673D01*
X172135Y281246D01*
X171800Y280438D01*
Y279562D01*
X172135Y278754D01*
X172754Y278135D01*
X173562Y277800D01*
X174438D01*
X175246Y278135D01*
X175865Y278754D01*
X176200Y279562D01*
Y280438D01*
X175865Y281246D01*
X175438Y281673D01*
X175302Y282000D01*
X175438Y282327D01*
X175865Y282754D01*
X176200Y283562D01*
Y284438D01*
X175865Y285246D01*
X175246Y285865D01*
X174438Y286200D01*
D02*
G37*
G36*
X284249Y280011D02*
X283373D01*
X282565Y279676D01*
X281946Y279057D01*
X281611Y278249D01*
Y277373D01*
X281946Y276565D01*
X282565Y275946D01*
X283373Y275611D01*
X284249D01*
X285057Y275946D01*
X285676Y276565D01*
X286011Y277373D01*
Y278249D01*
X285676Y279057D01*
X285057Y279676D01*
X284249Y280011D01*
D02*
G37*
G36*
X678338Y276400D02*
X677462D01*
X676654Y276065D01*
X676035Y275446D01*
X675700Y274638D01*
Y273762D01*
X676035Y272954D01*
X676654Y272335D01*
X677462Y272000D01*
X678338D01*
X679146Y272335D01*
X679765Y272954D01*
X680100Y273762D01*
Y274638D01*
X679765Y275446D01*
X679146Y276065D01*
X678338Y276400D01*
D02*
G37*
G36*
X646698Y273140D02*
X645822D01*
X645014Y272805D01*
X644395Y272186D01*
X644060Y271378D01*
Y270503D01*
X644395Y269694D01*
X645014Y269075D01*
X645822Y268740D01*
X646698D01*
X647506Y269075D01*
X648125Y269694D01*
X648460Y270503D01*
Y271378D01*
X648125Y272186D01*
X647506Y272805D01*
X646698Y273140D01*
D02*
G37*
G36*
X637438Y273029D02*
X636562D01*
X635754Y272694D01*
X635135Y272075D01*
X634800Y271266D01*
Y270391D01*
X635135Y269583D01*
X635754Y268964D01*
X636562Y268629D01*
X637438D01*
X638246Y268964D01*
X638865Y269583D01*
X639200Y270391D01*
Y271266D01*
X638865Y272075D01*
X638246Y272694D01*
X637438Y273029D01*
D02*
G37*
G36*
X209438Y481700D02*
X208562D01*
X207754Y481365D01*
X207135Y480746D01*
X206800Y479938D01*
Y479062D01*
X207135Y478254D01*
X207675Y477714D01*
Y275000D01*
X207775Y274493D01*
X208063Y274063D01*
X211800Y270325D01*
Y269562D01*
X212135Y268754D01*
X212754Y268135D01*
X213562Y267800D01*
X214438D01*
X215246Y268135D01*
X215865Y268754D01*
X216200Y269562D01*
Y270438D01*
X215865Y271246D01*
X215246Y271865D01*
X214438Y272200D01*
X213674D01*
X210326Y275549D01*
Y477714D01*
X210865Y478254D01*
X211200Y479062D01*
Y479938D01*
X210865Y480746D01*
X210246Y481365D01*
X209438Y481700D01*
D02*
G37*
G36*
X665738Y259700D02*
X664862D01*
X664054Y259365D01*
X663435Y258746D01*
X663100Y257938D01*
Y257062D01*
X663435Y256254D01*
X664054Y255635D01*
X664862Y255300D01*
X665738D01*
X666546Y255635D01*
X667165Y256254D01*
X667500Y257062D01*
Y257938D01*
X667165Y258746D01*
X666546Y259365D01*
X665738Y259700D01*
D02*
G37*
G36*
X786000Y307020D02*
X763102D01*
X762712Y306942D01*
X762382Y306721D01*
X762160Y306390D01*
X762083Y306000D01*
X762083Y271020D01*
X728000D01*
X727610Y270942D01*
X727279Y270721D01*
X727058Y270390D01*
X726980Y270000D01*
Y234000D01*
X727058Y233610D01*
X727279Y233279D01*
X727610Y233058D01*
X728000Y232980D01*
X762000D01*
X762390Y233058D01*
X762721Y233279D01*
X786721Y257279D01*
X786942Y257610D01*
X787020Y258000D01*
Y306000D01*
X786942Y306390D01*
X786721Y306721D01*
X786390Y306942D01*
X786000Y307020D01*
D02*
G37*
G36*
X549984Y205811D02*
X524362D01*
Y180189D01*
X549984D01*
Y205811D01*
D02*
G37*
%LPD*%
G36*
X790000Y757053D02*
X772000Y757053D01*
Y746000D01*
X746000D01*
Y768000D01*
X790000D01*
Y757053D01*
D02*
G37*
G36*
X342505Y743347D02*
X342518Y743175D01*
X341799Y742456D01*
X341273Y741544D01*
X341000Y740527D01*
Y739473D01*
X341273Y738456D01*
X341799Y737544D01*
X342518Y736826D01*
X342505Y736654D01*
X342417Y736326D01*
X335500D01*
X334993Y736225D01*
X334563Y735937D01*
X309751Y711126D01*
X295858D01*
X295825Y711174D01*
X296092Y711674D01*
X305000D01*
X305507Y711775D01*
X305937Y712063D01*
X337549Y743675D01*
X342417D01*
X342505Y743347D01*
D02*
G37*
G36*
Y683347D02*
X342518Y683175D01*
X341799Y682456D01*
X341273Y681544D01*
X341000Y680527D01*
Y679473D01*
X341273Y678456D01*
X341799Y677544D01*
X342518Y676826D01*
X342505Y676653D01*
X342417Y676326D01*
X330549D01*
X323662Y683213D01*
X323853Y683674D01*
X342417D01*
X342505Y683347D01*
D02*
G37*
G36*
X341029Y624063D02*
X341459Y623775D01*
X341966Y623674D01*
X342417D01*
X342505Y623347D01*
X342518Y623174D01*
X341799Y622456D01*
X341273Y621544D01*
X341000Y620527D01*
Y619473D01*
X341273Y618456D01*
X341799Y617544D01*
X342518Y616825D01*
X342505Y616653D01*
X342417Y616326D01*
X340549D01*
X299100Y657774D01*
X299307Y658275D01*
X306817D01*
X341029Y624063D01*
D02*
G37*
G36*
X339063Y614063D02*
X339493Y613775D01*
X340000Y613674D01*
X342417D01*
X342505Y613346D01*
X342518Y613174D01*
X341799Y612456D01*
X341273Y611544D01*
X341000Y610527D01*
Y609473D01*
X341273Y608456D01*
X341799Y607544D01*
X342518Y606825D01*
X342505Y606653D01*
X342417Y606325D01*
X330549D01*
X282536Y654338D01*
X282681Y654901D01*
X283246Y655135D01*
X283786Y655675D01*
X297451D01*
X339063Y614063D01*
D02*
G37*
G36*
X790000Y709053D02*
X772000Y709053D01*
Y698000D01*
X746000D01*
Y720000D01*
X790000D01*
Y709053D01*
D02*
G37*
G36*
X784000Y622000D02*
X760000D01*
Y628000D01*
X694000D01*
Y664000D01*
X784000D01*
Y622000D01*
D02*
G37*
G36*
X281596Y405207D02*
X281135Y404746D01*
X280800Y403938D01*
Y403062D01*
X281135Y402254D01*
X281675Y401714D01*
Y393049D01*
X271451Y382825D01*
X249786D01*
X249246Y383365D01*
X248438Y383700D01*
X247562D01*
X246754Y383365D01*
X246327Y382938D01*
X246000Y382802D01*
X245673Y382938D01*
X245246Y383365D01*
X244438Y383700D01*
X243562D01*
X242754Y383365D01*
X242135Y382746D01*
X241800Y381938D01*
Y381174D01*
X241000Y380375D01*
X232326Y389049D01*
Y405102D01*
X232825Y405310D01*
X232968Y405167D01*
X233776Y404832D01*
X234652D01*
X235460Y405167D01*
X236000Y405707D01*
X281388D01*
X281596Y405207D01*
D02*
G37*
G36*
X755000Y610000D02*
X725000D01*
Y457000D01*
X754000D01*
Y444000D01*
X725000D01*
Y290000D01*
Y289000D01*
X755000D01*
Y276000D01*
X725000D01*
Y194000D01*
X620000D01*
Y233000D01*
X685000D01*
Y604558D01*
X685362Y604800D01*
X686238D01*
X687046Y605135D01*
X687615Y605703D01*
X687900Y605731D01*
X688185Y605703D01*
X688754Y605135D01*
X689562Y604800D01*
X690438D01*
X691246Y605135D01*
X691673Y605562D01*
X692000Y605698D01*
X692327Y605562D01*
X692754Y605135D01*
X693562Y604800D01*
X694438D01*
X695246Y605135D01*
X695865Y605754D01*
X696200Y606562D01*
Y607438D01*
X695865Y608246D01*
X695438Y608673D01*
X695302Y609000D01*
X695438Y609327D01*
X695865Y609754D01*
X696200Y610562D01*
Y611438D01*
X695865Y612246D01*
X695246Y612865D01*
X694438Y613200D01*
X693562D01*
X692754Y612865D01*
X692327Y612438D01*
X692000Y612302D01*
X691673Y612438D01*
X691246Y612865D01*
X690438Y613200D01*
X689562D01*
X688754Y612865D01*
X688327Y612438D01*
X688000Y612302D01*
X687673Y612438D01*
X687246Y612865D01*
X686438Y613200D01*
X685562D01*
X685416Y613139D01*
X685000Y613417D01*
Y624000D01*
X755000D01*
Y610000D01*
D02*
G37*
%LPC*%
G36*
X699438Y511700D02*
X698562D01*
X697754Y511365D01*
X697327Y510938D01*
X697000Y510802D01*
X696673Y510938D01*
X696246Y511365D01*
X695438Y511700D01*
X694562D01*
X693754Y511365D01*
X693327Y510938D01*
X693000Y510802D01*
X692673Y510938D01*
X692246Y511365D01*
X691438Y511700D01*
X690562D01*
X689754Y511365D01*
X689135Y510746D01*
X688800Y509938D01*
Y509062D01*
X689135Y508254D01*
X689503Y507885D01*
X689552Y507385D01*
X689462Y507273D01*
X688935Y506746D01*
X688600Y505938D01*
Y505062D01*
X688935Y504254D01*
X689554Y503635D01*
X690362Y503300D01*
X691238D01*
X692046Y503635D01*
X692615Y504203D01*
X692900Y504231D01*
X693185Y504203D01*
X693754Y503635D01*
X694562Y503300D01*
X695438D01*
X696246Y503635D01*
X696673Y504062D01*
X697000Y504198D01*
X697327Y504062D01*
X697754Y503635D01*
X698562Y503300D01*
X699438D01*
X700246Y503635D01*
X700865Y504254D01*
X701200Y505062D01*
Y505938D01*
X700865Y506746D01*
X700438Y507173D01*
X700302Y507500D01*
X700438Y507827D01*
X700865Y508254D01*
X701200Y509062D01*
Y509938D01*
X700865Y510746D01*
X700246Y511365D01*
X699438Y511700D01*
D02*
G37*
G36*
X698438Y448200D02*
X697562D01*
X696754Y447865D01*
X696327Y447438D01*
X696000Y447302D01*
X695673Y447438D01*
X695246Y447865D01*
X694438Y448200D01*
X693562D01*
X692754Y447865D01*
X692327Y447438D01*
X692000Y447302D01*
X691673Y447438D01*
X691246Y447865D01*
X690438Y448200D01*
X689562D01*
X688754Y447865D01*
X688135Y447246D01*
X687800Y446438D01*
Y445562D01*
X688135Y444754D01*
X688503Y444385D01*
X688552Y443885D01*
X688462Y443773D01*
X687935Y443246D01*
X687600Y442438D01*
Y441562D01*
X687935Y440754D01*
X688554Y440135D01*
X689362Y439800D01*
X690238D01*
X691046Y440135D01*
X691615Y440703D01*
X691900Y440731D01*
X692185Y440703D01*
X692754Y440135D01*
X693562Y439800D01*
X694438D01*
X695246Y440135D01*
X695673Y440562D01*
X696000Y440698D01*
X696327Y440562D01*
X696754Y440135D01*
X697562Y439800D01*
X698438D01*
X699246Y440135D01*
X699865Y440754D01*
X700200Y441562D01*
Y442438D01*
X699865Y443246D01*
X699438Y443673D01*
X699302Y444000D01*
X699438Y444327D01*
X699865Y444754D01*
X700200Y445562D01*
Y446438D01*
X699865Y447246D01*
X699246Y447865D01*
X698438Y448200D01*
D02*
G37*
G36*
X699438Y343400D02*
X698562D01*
X697754Y343065D01*
X697327Y342638D01*
X697000Y342502D01*
X696673Y342638D01*
X696246Y343065D01*
X695438Y343400D01*
X694562D01*
X693754Y343065D01*
X693327Y342638D01*
X693000Y342502D01*
X692673Y342638D01*
X692246Y343065D01*
X691438Y343400D01*
X690562D01*
X689754Y343065D01*
X689135Y342446D01*
X688800Y341638D01*
Y340762D01*
X689135Y339954D01*
X689503Y339585D01*
X689552Y339085D01*
X689462Y338973D01*
X688935Y338446D01*
X688600Y337638D01*
Y336762D01*
X688935Y335954D01*
X689554Y335335D01*
X690362Y335000D01*
X691238D01*
X692046Y335335D01*
X692615Y335903D01*
X692900Y335931D01*
X693185Y335903D01*
X693754Y335335D01*
X694562Y335000D01*
X695438D01*
X696246Y335335D01*
X696673Y335762D01*
X697000Y335898D01*
X697327Y335762D01*
X697754Y335335D01*
X698562Y335000D01*
X699438D01*
X700246Y335335D01*
X700865Y335954D01*
X701200Y336762D01*
Y337638D01*
X700865Y338446D01*
X700438Y338873D01*
X700302Y339200D01*
X700438Y339527D01*
X700865Y339954D01*
X701200Y340762D01*
Y341638D01*
X700865Y342446D01*
X700246Y343065D01*
X699438Y343400D01*
D02*
G37*
G36*
Y284900D02*
X698562D01*
X697754Y284565D01*
X697327Y284138D01*
X697000Y284002D01*
X696673Y284138D01*
X696246Y284565D01*
X695438Y284900D01*
X694562D01*
X693754Y284565D01*
X693327Y284138D01*
X693000Y284002D01*
X692673Y284138D01*
X692246Y284565D01*
X691438Y284900D01*
X690562D01*
X689754Y284565D01*
X689135Y283946D01*
X688800Y283138D01*
Y282262D01*
X689135Y281454D01*
X689503Y281085D01*
X689552Y280585D01*
X689462Y280473D01*
X688935Y279946D01*
X688600Y279138D01*
Y278262D01*
X688935Y277454D01*
X689554Y276835D01*
X690362Y276500D01*
X691238D01*
X692046Y276835D01*
X692615Y277403D01*
X692900Y277431D01*
X693185Y277403D01*
X693754Y276835D01*
X694562Y276500D01*
X695438D01*
X696246Y276835D01*
X696673Y277262D01*
X697000Y277398D01*
X697327Y277262D01*
X697754Y276835D01*
X698562Y276500D01*
X699438D01*
X700246Y276835D01*
X700865Y277454D01*
X701200Y278262D01*
Y279138D01*
X700865Y279946D01*
X700438Y280373D01*
X700302Y280700D01*
X700438Y281027D01*
X700865Y281454D01*
X701200Y282262D01*
Y283138D01*
X700865Y283946D01*
X700246Y284565D01*
X699438Y284900D01*
D02*
G37*
G36*
X666838Y232000D02*
X665962D01*
X665154Y231665D01*
X664535Y231046D01*
X664200Y230238D01*
Y229362D01*
X664535Y228554D01*
X665154Y227935D01*
X665962Y227600D01*
X666838D01*
X667646Y227935D01*
X668265Y228554D01*
X668600Y229362D01*
Y230238D01*
X668265Y231046D01*
X667646Y231665D01*
X666838Y232000D01*
D02*
G37*
G36*
X657038Y229800D02*
X656162D01*
X655354Y229465D01*
X654735Y228846D01*
X654400Y228038D01*
Y227162D01*
X654735Y226354D01*
X655354Y225735D01*
X656162Y225400D01*
X657038D01*
X657846Y225735D01*
X658465Y226354D01*
X658800Y227162D01*
Y228038D01*
X658465Y228846D01*
X657846Y229465D01*
X657038Y229800D01*
D02*
G37*
G36*
X672038Y228200D02*
X671162D01*
X670354Y227865D01*
X669735Y227246D01*
X669400Y226438D01*
Y225562D01*
X669735Y224754D01*
X670354Y224135D01*
X671162Y223800D01*
X672038D01*
X672846Y224135D01*
X673465Y224754D01*
X673800Y225562D01*
Y226438D01*
X673465Y227246D01*
X672846Y227865D01*
X672038Y228200D01*
D02*
G37*
%LPD*%
G36*
X699669Y510501D02*
X700001Y510169D01*
X700180Y509735D01*
Y509265D01*
X700001Y508831D01*
X699717Y508548D01*
X699607Y508383D01*
X699496Y508218D01*
X699496Y508217D01*
D01*
D01*
X699361Y507891D01*
X699361Y507890D01*
X699360Y507889D01*
X699321Y507694D01*
X699283Y507501D01*
X699283Y507500D01*
X699283Y507499D01*
X699321Y507306D01*
X699360Y507111D01*
X699361Y507110D01*
X699361Y507109D01*
X699496Y506783D01*
D01*
D01*
X699496Y506782D01*
X699607Y506617D01*
X699717Y506452D01*
X700001Y506169D01*
X700180Y505735D01*
Y505265D01*
X700001Y504831D01*
X699669Y504499D01*
X699235Y504320D01*
X698765D01*
X698331Y504499D01*
X698048Y504783D01*
X697883Y504893D01*
X697718Y505004D01*
X697717Y505004D01*
D01*
D01*
X697391Y505139D01*
X697390Y505139D01*
X697389Y505140D01*
X697194Y505179D01*
X697001Y505217D01*
X697000Y505217D01*
X696999Y505217D01*
X696806Y505179D01*
X696611Y505140D01*
X696610Y505139D01*
X696609Y505139D01*
X696283Y505004D01*
D01*
D01*
X696282Y505004D01*
X696117Y504893D01*
X695952Y504783D01*
X695669Y504499D01*
X695235Y504320D01*
X694765D01*
X694331Y504499D01*
X693906Y504924D01*
X693781Y505008D01*
X693665Y505103D01*
X693617Y505118D01*
X693576Y505145D01*
X693428Y505175D01*
X693284Y505218D01*
X692998Y505246D01*
X692900Y505236D01*
X692802Y505246D01*
X692516Y505218D01*
X692372Y505175D01*
X692224Y505145D01*
X692183Y505118D01*
X692135Y505103D01*
X692019Y505008D01*
X691894Y504924D01*
X691469Y504499D01*
X691035Y504320D01*
X690565D01*
X690131Y504499D01*
X689799Y504831D01*
X689620Y505265D01*
Y505735D01*
X689799Y506169D01*
X690183Y506552D01*
X690213Y506598D01*
X690256Y506633D01*
X690345Y506744D01*
X690435Y506916D01*
X690527Y507087D01*
X690528Y507092D01*
X690530Y507097D01*
X690547Y507290D01*
X690567Y507483D01*
X690518Y507984D01*
X690475Y508128D01*
X690445Y508276D01*
X690418Y508317D01*
X690403Y508365D01*
X690308Y508481D01*
X690224Y508606D01*
X689999Y508831D01*
X689820Y509265D01*
Y509735D01*
X689999Y510169D01*
X690331Y510501D01*
X690765Y510680D01*
X691235D01*
X691669Y510501D01*
X691952Y510217D01*
X692117Y510107D01*
X692282Y509996D01*
X692283Y509996D01*
D01*
D01*
X692609Y509861D01*
X692610Y509861D01*
X692611Y509860D01*
X692806Y509821D01*
X692999Y509783D01*
X693000Y509783D01*
X693001Y509783D01*
X693194Y509821D01*
X693389Y509860D01*
X693390Y509861D01*
X693391Y509861D01*
X693717Y509996D01*
D01*
D01*
X693718Y509996D01*
X693883Y510107D01*
X694048Y510217D01*
X694331Y510501D01*
X694765Y510680D01*
X695235D01*
X695669Y510501D01*
X695952Y510217D01*
X696117Y510107D01*
X696282Y509996D01*
X696283Y509996D01*
D01*
D01*
X696609Y509861D01*
X696610Y509861D01*
X696611Y509860D01*
X696806Y509821D01*
X696999Y509783D01*
X697000Y509783D01*
X697001Y509783D01*
X697194Y509821D01*
X697389Y509860D01*
X697390Y509861D01*
X697391Y509861D01*
X697717Y509996D01*
D01*
D01*
X697718Y509996D01*
X697883Y510107D01*
X698048Y510217D01*
X698331Y510501D01*
X698765Y510680D01*
X699235D01*
X699669Y510501D01*
D02*
G37*
G36*
X698669Y447001D02*
X699001Y446669D01*
X699180Y446235D01*
Y445765D01*
X699001Y445331D01*
X698717Y445048D01*
X698607Y444883D01*
X698496Y444718D01*
X698496Y444717D01*
D01*
D01*
X698361Y444391D01*
X698360Y444390D01*
X698360Y444389D01*
X698321Y444194D01*
X698283Y444001D01*
X698283Y444000D01*
X698283Y443999D01*
X698321Y443806D01*
X698360Y443611D01*
X698360Y443610D01*
X698361Y443609D01*
X698496Y443283D01*
D01*
D01*
X698496Y443282D01*
X698607Y443117D01*
X698717Y442952D01*
X699001Y442669D01*
X699180Y442235D01*
Y441765D01*
X699001Y441331D01*
X698669Y440999D01*
X698235Y440820D01*
X697765D01*
X697331Y440999D01*
X697048Y441283D01*
X696883Y441393D01*
X696718Y441504D01*
X696717Y441504D01*
D01*
D01*
X696391Y441639D01*
X696390Y441640D01*
X696389Y441640D01*
X696194Y441679D01*
X696001Y441717D01*
X696000Y441717D01*
X695999Y441717D01*
X695806Y441679D01*
X695611Y441640D01*
X695610Y441640D01*
X695609Y441639D01*
X695283Y441504D01*
D01*
D01*
X695282Y441504D01*
X695117Y441393D01*
X694952Y441283D01*
X694669Y440999D01*
X694235Y440820D01*
X693765D01*
X693331Y440999D01*
X692906Y441424D01*
X692781Y441508D01*
X692665Y441603D01*
X692617Y441618D01*
X692576Y441645D01*
X692428Y441675D01*
X692284Y441718D01*
X691998Y441746D01*
X691900Y441736D01*
X691802Y441746D01*
X691516Y441718D01*
X691372Y441675D01*
X691224Y441645D01*
X691183Y441618D01*
X691135Y441603D01*
X691019Y441508D01*
X690894Y441424D01*
X690469Y440999D01*
X690035Y440820D01*
X689565D01*
X689131Y440999D01*
X688799Y441331D01*
X688620Y441765D01*
Y442235D01*
X688799Y442669D01*
X689183Y443052D01*
X689214Y443098D01*
X689256Y443133D01*
X689345Y443245D01*
X689435Y443416D01*
X689527Y443587D01*
X689528Y443592D01*
X689530Y443597D01*
X689547Y443790D01*
X689567Y443983D01*
X689518Y444484D01*
X689475Y444628D01*
X689445Y444776D01*
X689418Y444817D01*
X689403Y444865D01*
X689308Y444981D01*
X689224Y445106D01*
X688999Y445331D01*
X688820Y445765D01*
Y446235D01*
X688999Y446669D01*
X689331Y447001D01*
X689765Y447180D01*
X690235D01*
X690669Y447001D01*
X690952Y446717D01*
X691117Y446607D01*
X691282Y446496D01*
X691283Y446496D01*
D01*
D01*
X691609Y446361D01*
X691610Y446360D01*
X691611Y446360D01*
X691806Y446321D01*
X691999Y446283D01*
X692000Y446283D01*
X692001Y446283D01*
X692194Y446321D01*
X692389Y446360D01*
X692390Y446360D01*
X692391Y446361D01*
X692717Y446496D01*
D01*
D01*
X692718Y446496D01*
X692883Y446607D01*
X693048Y446717D01*
X693331Y447001D01*
X693765Y447180D01*
X694235D01*
X694669Y447001D01*
X694952Y446717D01*
X695117Y446607D01*
X695282Y446496D01*
X695283Y446496D01*
D01*
D01*
X695609Y446361D01*
X695610Y446360D01*
X695611Y446360D01*
X695806Y446321D01*
X695999Y446283D01*
X696000Y446283D01*
X696001Y446283D01*
X696194Y446321D01*
X696389Y446360D01*
X696390Y446360D01*
X696391Y446361D01*
X696717Y446496D01*
D01*
D01*
X696718Y446496D01*
X696883Y446607D01*
X697048Y446717D01*
X697331Y447001D01*
X697765Y447180D01*
X698235D01*
X698669Y447001D01*
D02*
G37*
G36*
X699669Y342201D02*
X700001Y341869D01*
X700180Y341435D01*
Y340965D01*
X700001Y340531D01*
X699717Y340248D01*
X699607Y340083D01*
X699496Y339918D01*
X699496Y339917D01*
D01*
D01*
X699361Y339591D01*
X699361Y339590D01*
X699360Y339589D01*
X699321Y339394D01*
X699283Y339201D01*
X699283Y339200D01*
X699283Y339199D01*
X699321Y339006D01*
X699360Y338811D01*
X699361Y338810D01*
X699361Y338809D01*
X699496Y338483D01*
D01*
D01*
X699496Y338482D01*
X699607Y338317D01*
X699717Y338152D01*
X700001Y337869D01*
X700180Y337435D01*
Y336965D01*
X700001Y336531D01*
X699669Y336199D01*
X699235Y336020D01*
X698765D01*
X698331Y336199D01*
X698048Y336483D01*
X697883Y336593D01*
X697718Y336704D01*
X697717Y336704D01*
D01*
D01*
X697391Y336839D01*
X697390Y336840D01*
X697389Y336840D01*
X697194Y336879D01*
X697001Y336917D01*
X697000Y336917D01*
X696999Y336917D01*
X696806Y336879D01*
X696611Y336840D01*
X696610Y336840D01*
X696609Y336839D01*
X696283Y336704D01*
D01*
D01*
X696282Y336704D01*
X696117Y336593D01*
X695952Y336483D01*
X695669Y336199D01*
X695235Y336020D01*
X694765D01*
X694331Y336199D01*
X693906Y336624D01*
X693781Y336708D01*
X693665Y336803D01*
X693617Y336818D01*
X693576Y336845D01*
X693428Y336875D01*
X693284Y336918D01*
X692998Y336946D01*
X692900Y336936D01*
X692802Y336946D01*
X692516Y336918D01*
X692372Y336875D01*
X692224Y336845D01*
X692183Y336818D01*
X692135Y336803D01*
X692019Y336708D01*
X691894Y336624D01*
X691469Y336199D01*
X691035Y336020D01*
X690565D01*
X690131Y336199D01*
X689799Y336531D01*
X689620Y336965D01*
Y337435D01*
X689799Y337869D01*
X690183Y338252D01*
X690213Y338298D01*
X690256Y338333D01*
X690345Y338444D01*
X690435Y338616D01*
X690527Y338787D01*
X690528Y338792D01*
X690530Y338797D01*
X690547Y338990D01*
X690567Y339183D01*
X690518Y339684D01*
X690475Y339828D01*
X690445Y339976D01*
X690418Y340017D01*
X690403Y340065D01*
X690308Y340181D01*
X690224Y340306D01*
X689999Y340531D01*
X689820Y340965D01*
Y341435D01*
X689999Y341869D01*
X690331Y342201D01*
X690765Y342380D01*
X691235D01*
X691669Y342201D01*
X691952Y341917D01*
X692117Y341807D01*
X692282Y341696D01*
X692283Y341696D01*
D01*
D01*
X692609Y341561D01*
X692610Y341560D01*
X692611Y341560D01*
X692806Y341521D01*
X692999Y341483D01*
X693000Y341483D01*
X693001Y341483D01*
X693194Y341521D01*
X693389Y341560D01*
X693390Y341560D01*
X693391Y341561D01*
X693717Y341696D01*
D01*
D01*
X693718Y341696D01*
X693883Y341807D01*
X694048Y341917D01*
X694331Y342201D01*
X694765Y342380D01*
X695235D01*
X695669Y342201D01*
X695952Y341917D01*
X696117Y341807D01*
X696282Y341696D01*
X696283Y341696D01*
D01*
D01*
X696609Y341561D01*
X696610Y341560D01*
X696611Y341560D01*
X696806Y341521D01*
X696999Y341483D01*
X697000Y341483D01*
X697001Y341483D01*
X697194Y341521D01*
X697389Y341560D01*
X697390Y341560D01*
X697391Y341561D01*
X697717Y341696D01*
D01*
D01*
X697718Y341696D01*
X697883Y341807D01*
X698048Y341917D01*
X698331Y342201D01*
X698765Y342380D01*
X699235D01*
X699669Y342201D01*
D02*
G37*
G36*
Y283701D02*
X700001Y283369D01*
X700180Y282935D01*
Y282465D01*
X700001Y282031D01*
X699717Y281748D01*
X699607Y281583D01*
X699496Y281418D01*
X699496Y281417D01*
D01*
D01*
X699361Y281091D01*
X699361Y281090D01*
X699360Y281089D01*
X699321Y280894D01*
X699283Y280701D01*
X699283Y280700D01*
X699283Y280699D01*
X699321Y280506D01*
X699360Y280311D01*
X699361Y280310D01*
X699361Y280309D01*
X699496Y279983D01*
D01*
D01*
X699496Y279982D01*
X699607Y279817D01*
X699717Y279652D01*
X700001Y279369D01*
X700180Y278935D01*
Y278465D01*
X700001Y278031D01*
X699669Y277699D01*
X699235Y277520D01*
X698765D01*
X698331Y277699D01*
X698048Y277983D01*
X697883Y278093D01*
X697718Y278204D01*
X697717Y278204D01*
D01*
D01*
X697391Y278339D01*
X697390Y278340D01*
X697389Y278340D01*
X697194Y278379D01*
X697001Y278417D01*
X697000Y278417D01*
X696999Y278417D01*
X696806Y278379D01*
X696611Y278340D01*
X696610Y278340D01*
X696609Y278339D01*
X696283Y278204D01*
D01*
D01*
X696282Y278204D01*
X696117Y278093D01*
X695952Y277983D01*
X695669Y277699D01*
X695235Y277520D01*
X694765D01*
X694331Y277699D01*
X693906Y278124D01*
X693781Y278208D01*
X693665Y278303D01*
X693617Y278318D01*
X693576Y278345D01*
X693428Y278375D01*
X693284Y278418D01*
X692998Y278446D01*
X692900Y278436D01*
X692802Y278446D01*
X692516Y278418D01*
X692372Y278375D01*
X692224Y278345D01*
X692183Y278318D01*
X692135Y278303D01*
X692019Y278208D01*
X691894Y278124D01*
X691469Y277699D01*
X691035Y277520D01*
X690565D01*
X690131Y277699D01*
X689799Y278031D01*
X689620Y278465D01*
Y278935D01*
X689799Y279369D01*
X690183Y279752D01*
X690213Y279798D01*
X690256Y279833D01*
X690345Y279944D01*
X690435Y280116D01*
X690527Y280287D01*
X690528Y280292D01*
X690530Y280297D01*
X690547Y280490D01*
X690567Y280683D01*
X690518Y281184D01*
X690475Y281328D01*
X690445Y281476D01*
X690418Y281517D01*
X690403Y281565D01*
X690308Y281681D01*
X690224Y281806D01*
X689999Y282031D01*
X689820Y282465D01*
Y282935D01*
X689999Y283369D01*
X690331Y283701D01*
X690765Y283880D01*
X691235D01*
X691669Y283701D01*
X691952Y283417D01*
X692117Y283307D01*
X692282Y283196D01*
X692283Y283196D01*
D01*
D01*
X692609Y283061D01*
X692610Y283060D01*
X692611Y283060D01*
X692806Y283021D01*
X692999Y282983D01*
X693000Y282983D01*
X693001Y282983D01*
X693194Y283021D01*
X693389Y283060D01*
X693390Y283060D01*
X693391Y283061D01*
X693717Y283196D01*
D01*
D01*
X693718Y283196D01*
X693883Y283307D01*
X694048Y283417D01*
X694331Y283701D01*
X694765Y283880D01*
X695235D01*
X695669Y283701D01*
X695952Y283417D01*
X696117Y283307D01*
X696282Y283196D01*
X696283Y283196D01*
D01*
D01*
X696609Y283061D01*
X696610Y283060D01*
X696611Y283060D01*
X696806Y283021D01*
X696999Y282983D01*
X697000Y282983D01*
X697001Y282983D01*
X697194Y283021D01*
X697389Y283060D01*
X697390Y283060D01*
X697391Y283061D01*
X697717Y283196D01*
D01*
D01*
X697718Y283196D01*
X697883Y283307D01*
X698048Y283417D01*
X698331Y283701D01*
X698765Y283880D01*
X699235D01*
X699669Y283701D01*
D02*
G37*
G36*
X782000Y566000D02*
X728000D01*
Y604000D01*
X782000D01*
Y566000D01*
D02*
G37*
G36*
X784000Y424000D02*
X762000Y402000D01*
X728000D01*
Y440000D01*
X762000D01*
X762000Y478000D01*
X784000D01*
Y424000D01*
D02*
G37*
G36*
X786000Y258000D02*
X762000Y234000D01*
X728000D01*
Y270000D01*
X763102D01*
X763102Y306000D01*
X786000D01*
Y258000D01*
D02*
G37*
D13*
X272000Y381500D02*
X283000Y392500D01*
Y403500D01*
X248000Y381500D02*
X272000D01*
X283000D02*
Y392500D01*
X249900Y450200D02*
X289500D01*
X249248Y444848D02*
X289652D01*
X289700Y444800D01*
X228000Y423600D02*
X249248Y444848D01*
X219000Y262000D02*
Y273000D01*
X241000Y378500D02*
X244000Y381500D01*
X231000Y388500D02*
X241000Y378500D01*
X276189D01*
X189500Y495500D02*
X191296Y497296D01*
X266704D02*
X269000Y495000D01*
X191296Y497296D02*
X266704D01*
X633694Y662807D02*
X649007D01*
X322933Y451158D02*
X422044D01*
X633694Y662807D01*
X426315Y441315D02*
X561000Y576000D01*
X322933Y441315D02*
X426315D01*
X561000Y576000D02*
X643117Y658117D01*
X648831D02*
X649007Y658293D01*
X643117Y658117D02*
X648831D01*
X561000Y576000D02*
X648000D01*
X245000Y653000D02*
X254000Y644000D01*
X245000Y678000D02*
X321679Y754679D01*
X245000Y653000D02*
Y678000D01*
X284300Y709700D02*
Y709900D01*
X294700Y720300D01*
X267200Y686400D02*
X268600Y685000D01*
X350000D01*
X355000Y680000D01*
X330000Y675000D02*
X343000D01*
X322100Y682900D02*
X330000Y675000D01*
X267000Y682900D02*
X322100D01*
X267200Y678900D02*
X316100D01*
X330000Y665000D02*
X342000D01*
X316100Y678900D02*
X330000Y665000D01*
Y655000D02*
X350000D01*
X309600Y675400D02*
X330000Y655000D01*
X267600Y675400D02*
X309600D01*
X282000Y669000D02*
X306000D01*
X340000Y635000D01*
X350000D01*
X282000Y657000D02*
X298000D01*
X340000Y615000D02*
X350000D01*
X298000Y657000D02*
X340000Y615000D01*
X270500Y697000D02*
X272500Y699000D01*
X321000D02*
X327000Y705000D01*
X272500Y699000D02*
X321000D01*
X214000Y278000D02*
X219000Y273000D01*
X214000Y278000D02*
Y479500D01*
X209000Y275000D02*
X214000Y270000D01*
X209000Y275000D02*
Y479500D01*
X214000Y503500D02*
X313500D01*
X230700Y455000D02*
X266791D01*
X220300Y444600D02*
X230700Y455000D01*
X223100Y377200D02*
Y423400D01*
X294300Y272552D02*
Y306000D01*
X223100Y377200D02*
X294300Y306000D01*
X289500Y275500D02*
Y303900D01*
X220300Y373100D02*
Y444600D01*
Y373100D02*
X289500Y303900D01*
X283811Y262063D02*
X294300Y272552D01*
X299211Y277811D02*
Y306789D01*
X228000Y378000D02*
X299211Y306789D01*
X284000Y270000D02*
X289500Y275500D01*
X217300Y370100D02*
Y446400D01*
Y370100D02*
X283757Y303643D01*
Y285633D02*
Y303643D01*
X217300Y446400D02*
X230794Y459894D01*
X223100Y423400D02*
X249900Y450200D01*
X228000Y378000D02*
Y423600D01*
X230794Y459894D02*
X266685D01*
X269869Y665669D02*
X270669D01*
X254100Y649900D02*
X269869Y665669D01*
X268500Y659400D02*
Y659600D01*
X259100Y650000D02*
X268500Y659400D01*
X231000Y420500D02*
X245500Y435000D01*
X231000Y388500D02*
Y420500D01*
X234214Y407032D02*
X288650D01*
X322933Y441315D01*
X273276Y411343D02*
X322933Y461000D01*
X234258Y411343D02*
X273276D01*
X307366Y659600D02*
X341966Y625000D01*
X271900Y659600D02*
X307366D01*
X278500Y656500D02*
X330000Y605000D01*
X270500Y656500D02*
X278500D01*
X266000Y644000D02*
X270900Y648900D01*
X254000Y644000D02*
X266000D01*
X271500Y653000D02*
X278000D01*
X271100Y652600D02*
X271500Y653000D01*
X267400Y675200D02*
X267600Y675400D01*
X270500Y693800D02*
X272200Y695500D01*
X349500D01*
X647000Y610000D02*
X652000Y615000D01*
Y659814D01*
X649007Y662807D02*
X652000Y659814D01*
X322933Y371315D02*
X589071D01*
X642000Y318386D01*
X597457Y381157D02*
X649307Y329307D01*
X322933Y381157D02*
X597457D01*
X642000Y318386D02*
X649307Y325693D01*
X636300Y497800D02*
X648807D01*
X539342Y400843D02*
X636300Y497800D01*
X322933Y400843D02*
X539342D01*
X322933Y391000D02*
X546621D01*
X648807Y493186D01*
X546621Y391000D02*
X629000D01*
X650114Y412114D01*
X649455Y441819D02*
X652000Y444364D01*
Y494500D01*
X648807Y497693D02*
X652000Y494500D01*
X648807Y497693D02*
Y497800D01*
X642000Y250000D02*
Y318386D01*
Y250000D02*
X648000Y244000D01*
X649307Y329307D02*
X652500Y326114D01*
X649000Y276000D02*
X652500Y279500D01*
Y326114D01*
X293600Y706600D02*
X314600D01*
X333000Y725000D02*
X350500D01*
X314600Y706600D02*
X333000Y725000D01*
X318400Y703400D02*
X330000Y715000D01*
X293600Y703400D02*
X318400D01*
X330000Y715000D02*
X350900D01*
X327000Y705000D02*
X350000D01*
X162000Y553000D02*
Y627921D01*
X253000Y706000D02*
X257000D01*
X192800Y645800D02*
X253000Y706000D01*
X102500Y645800D02*
X192800D01*
X189100Y634000D02*
X264800Y709700D01*
X102500Y634000D02*
X189100D01*
X293600Y709800D02*
X310300D01*
X335500Y735000D02*
X350100D01*
X310300Y709800D02*
X335500Y735000D01*
X293500Y713000D02*
X305000D01*
X337000Y745000D02*
X350000D01*
X305000Y713000D02*
X337000Y745000D01*
X350000D02*
X355000Y750000D01*
X321679Y754679D02*
X349679D01*
X355000Y760000D01*
X330000Y605000D02*
X350000D01*
X282000Y645000D02*
X342000Y585000D01*
X351000D01*
X278000Y653000D02*
X336000Y595000D01*
X350000D01*
X355000Y580000D02*
Y581000D01*
X351000Y585000D02*
X355000Y581000D01*
X350000Y595000D02*
X355000Y590000D01*
X350000Y605000D02*
X355000Y600000D01*
X350000Y615000D02*
X355000Y610000D01*
X341966Y625000D02*
X350000D01*
X355000Y620000D01*
X350000Y635000D02*
X355000Y630000D01*
X350000Y655000D02*
X355000Y650000D01*
X350000Y665000D02*
X355000Y660000D01*
X342000Y665000D02*
X350000D01*
X343000Y675000D02*
X350000D01*
X355000Y670000D01*
X349500Y695500D02*
X355000Y690000D01*
X350000Y705000D02*
X355000Y700000D01*
X350500Y725000D02*
X355000Y729500D01*
X350100Y735000D02*
X355000Y739900D01*
X350900Y715000D02*
X355000Y719100D01*
Y720000D01*
Y729500D02*
Y730000D01*
Y739900D02*
Y740000D01*
X174000Y436500D02*
Y459400D01*
X170500Y433000D02*
X174000Y436500D01*
X164000Y433000D02*
X170500D01*
X160500Y436500D02*
X164000Y433000D01*
X168300Y465100D02*
X174000Y459400D01*
X138000Y471000D02*
X153300D01*
X162700Y461600D01*
X162954Y465546D02*
X168500Y460000D01*
Y437000D02*
Y460000D01*
X160500Y468000D02*
X162954Y465546D01*
X245500Y435000D02*
X280500D01*
X276189Y378500D02*
X279095Y381405D01*
D101*
X714500Y373300D02*
D03*
X714000Y538000D02*
D03*
X714315Y204500D02*
D03*
X734185Y373300D02*
D03*
X733685Y538000D02*
D03*
X734000Y204500D02*
D03*
D117*
X83220Y442992D02*
D03*
Y477008D02*
D03*
Y622992D02*
D03*
Y657008D02*
D03*
D118*
X67472Y442992D02*
D03*
Y477008D02*
D03*
Y622992D02*
D03*
Y657008D02*
D03*
D124*
X702000Y367000D02*
X708200D01*
X714315Y373115D01*
X699000Y535000D02*
X711000D01*
X714000Y538000D01*
D129*
X108702Y459701D02*
X109283Y460283D01*
X105000Y459701D02*
X108702D01*
X104000Y460702D02*
X105000Y459701D01*
X109283Y460283D02*
X110000Y461000D01*
X98586Y465399D02*
X101602D01*
X104419Y458298D02*
X108702D01*
X110000Y457000D01*
X96220Y465403D02*
X98581D01*
X98586Y465399D01*
X104000Y460702D02*
Y463000D01*
X102597Y460120D02*
Y462419D01*
X101602Y465399D02*
X104000Y463000D01*
X101020Y463996D02*
X102597Y462419D01*
X98000Y463996D02*
X101020D01*
X102597Y460120D02*
X104419Y458298D01*
X94398Y463581D02*
X96220Y465403D01*
X94398Y461199D02*
Y463581D01*
X93200Y460000D02*
X94398Y461199D01*
X98000Y463996D02*
Y464000D01*
X96802D02*
X98000D01*
X95802Y463000D02*
X96802Y464000D01*
X95802Y461199D02*
Y463000D01*
Y461199D02*
X97000Y460000D01*
D130*
X714000Y538000D02*
X714500Y537500D01*
X638500Y213500D02*
X647500Y204500D01*
X656500D01*
X672000D01*
X694000D01*
X714315D01*
Y286000D01*
Y373115D01*
X714500Y373300D02*
Y454000D01*
Y537500D01*
D132*
X280000Y570000D02*
D03*
Y758976D02*
D03*
X150079Y570000D02*
D03*
Y758976D02*
D03*
D133*
X794000Y762000D02*
D03*
Y752000D02*
D03*
Y714000D02*
D03*
Y704000D02*
D03*
D134*
X784000Y762000D02*
D03*
Y714000D02*
D03*
D135*
Y752000D02*
D03*
Y704000D02*
D03*
D136*
X355000Y570000D02*
D03*
X345000D02*
D03*
X355000Y580000D02*
D03*
X345000D02*
D03*
X355000Y590000D02*
D03*
X345000D02*
D03*
X355000Y600000D02*
D03*
X345000D02*
D03*
X355000Y610000D02*
D03*
X345000D02*
D03*
X355000Y620000D02*
D03*
X345000D02*
D03*
X355000Y630000D02*
D03*
X345000D02*
D03*
X355000Y640000D02*
D03*
X345000D02*
D03*
X355000Y650000D02*
D03*
X345000D02*
D03*
X355000Y660000D02*
D03*
X345000D02*
D03*
X355000Y670000D02*
D03*
X345000D02*
D03*
X355000Y680000D02*
D03*
X345000D02*
D03*
X355000Y690000D02*
D03*
X345000D02*
D03*
X355000Y700000D02*
D03*
X345000D02*
D03*
X355000Y710000D02*
D03*
X345000D02*
D03*
X355000Y720000D02*
D03*
X345000D02*
D03*
X355000Y730000D02*
D03*
X345000D02*
D03*
X355000Y740000D02*
D03*
X345000D02*
D03*
X355000Y750000D02*
D03*
X345000D02*
D03*
X355000Y760000D02*
D03*
D137*
X345000D02*
D03*
D138*
X778000Y232000D02*
D03*
Y400000D02*
D03*
X777500Y599500D02*
D03*
Y297500D02*
D03*
X778000Y466000D02*
D03*
D139*
Y262000D02*
D03*
Y430000D02*
D03*
X777500Y629500D02*
D03*
Y327500D02*
D03*
X778000Y496000D02*
D03*
D140*
X664024Y703500D02*
D03*
X753000D02*
D03*
X664524Y752000D02*
D03*
X753500D02*
D03*
D141*
X508827Y193000D02*
D03*
D142*
X537173D02*
D03*
D143*
X464000Y347000D02*
D03*
Y352000D02*
D03*
X293000Y475000D02*
D03*
X154000Y545000D02*
D03*
X123000Y566000D02*
D03*
X352000Y554000D02*
D03*
D144*
X464000Y357000D02*
D03*
X293000Y470000D02*
D03*
X123000Y571000D02*
D03*
D145*
X322933Y391000D02*
D03*
Y400843D02*
D03*
Y381157D02*
D03*
Y410685D02*
D03*
Y480685D02*
D03*
Y451158D02*
D03*
Y470843D02*
D03*
Y461000D02*
D03*
D146*
Y371315D02*
D03*
Y441315D02*
D03*
D147*
X231756Y446488D02*
D03*
Y440976D02*
D03*
Y452000D02*
D03*
X237268Y440976D02*
D03*
Y446488D02*
D03*
Y452000D02*
D03*
X229000Y443732D02*
D03*
Y449244D02*
D03*
X234512Y443732D02*
D03*
Y449244D02*
D03*
X240024Y443732D02*
D03*
Y449244D02*
D03*
D148*
X149000Y545000D02*
D03*
X357000Y554000D02*
D03*
D149*
X267500Y507500D02*
D03*
Y517500D02*
D03*
Y527500D02*
D03*
Y550000D02*
D03*
Y560000D02*
D03*
Y572500D02*
D03*
Y582500D02*
D03*
Y600000D02*
D03*
Y610000D02*
D03*
Y620000D02*
D03*
Y630000D02*
D03*
X244747Y517371D02*
D03*
X244838Y532546D02*
D03*
X244929Y547720D02*
D03*
X244838Y562531D02*
D03*
X244993Y647550D02*
D03*
X260000Y670000D02*
D03*
X250000Y660000D02*
D03*
X245129Y641467D02*
D03*
X245000Y635000D02*
D03*
Y625000D02*
D03*
X245015Y506992D02*
D03*
X245000Y525000D02*
D03*
Y540000D02*
D03*
Y555000D02*
D03*
Y570000D02*
D03*
Y585000D02*
D03*
Y595000D02*
D03*
Y605000D02*
D03*
Y615000D02*
D03*
X631000Y213500D02*
D03*
X623402Y212902D02*
D03*
X631000Y219000D02*
D03*
X623500D02*
D03*
Y224500D02*
D03*
X631000D02*
D03*
X638500D02*
D03*
Y219000D02*
D03*
Y213500D02*
D03*
Y230000D02*
D03*
X623500D02*
D03*
X631000D02*
D03*
X724000Y278000D02*
D03*
X730000D02*
D03*
X736000D02*
D03*
X742000D02*
D03*
Y282000D02*
D03*
X736000D02*
D03*
X730000D02*
D03*
X724000D02*
D03*
Y286000D02*
D03*
X730000D02*
D03*
X736000D02*
D03*
X742000D02*
D03*
Y454000D02*
D03*
X736000D02*
D03*
X730000D02*
D03*
X724000D02*
D03*
Y450000D02*
D03*
X730000D02*
D03*
X736000D02*
D03*
X742000D02*
D03*
Y446000D02*
D03*
X736000D02*
D03*
X730000D02*
D03*
X724000D02*
D03*
X742000Y620000D02*
D03*
X736000D02*
D03*
X730000D02*
D03*
X724000D02*
D03*
Y616000D02*
D03*
X730000D02*
D03*
X736000D02*
D03*
X742000D02*
D03*
Y612000D02*
D03*
X736000D02*
D03*
X730000D02*
D03*
X724000D02*
D03*
X752000Y614000D02*
D03*
X746000D02*
D03*
Y618000D02*
D03*
X752000D02*
D03*
Y448000D02*
D03*
X746000D02*
D03*
Y452000D02*
D03*
X752000D02*
D03*
Y280000D02*
D03*
X746000D02*
D03*
Y284000D02*
D03*
X752000D02*
D03*
X656500Y205000D02*
D03*
X649000D02*
D03*
X664000D02*
D03*
X679500D02*
D03*
X672000D02*
D03*
X687000D02*
D03*
X701500D02*
D03*
X709000D02*
D03*
X694000D02*
D03*
X656500Y210000D02*
D03*
X664000D02*
D03*
X649000D02*
D03*
X679500D02*
D03*
X687000D02*
D03*
X672000D02*
D03*
X679500Y200000D02*
D03*
X687000D02*
D03*
X672000D02*
D03*
X656500D02*
D03*
X664000D02*
D03*
X649000D02*
D03*
X701500Y210000D02*
D03*
X709000D02*
D03*
X694000D02*
D03*
X701500Y200000D02*
D03*
X709000D02*
D03*
X694000D02*
D03*
X690000Y373000D02*
D03*
Y367000D02*
D03*
Y361000D02*
D03*
Y355000D02*
D03*
X694000D02*
D03*
Y361000D02*
D03*
Y367000D02*
D03*
Y373000D02*
D03*
X698000D02*
D03*
Y367000D02*
D03*
Y361000D02*
D03*
Y355000D02*
D03*
X687000Y541000D02*
D03*
Y535000D02*
D03*
Y529000D02*
D03*
Y523000D02*
D03*
X691000D02*
D03*
Y529000D02*
D03*
Y535000D02*
D03*
Y541000D02*
D03*
X695000D02*
D03*
Y535000D02*
D03*
Y529000D02*
D03*
Y523000D02*
D03*
X699000D02*
D03*
Y529000D02*
D03*
Y535000D02*
D03*
Y541000D02*
D03*
X702000Y355000D02*
D03*
Y361000D02*
D03*
Y367000D02*
D03*
Y373000D02*
D03*
X289500Y450200D02*
D03*
X289700Y444800D02*
D03*
X349999Y717884D02*
D03*
X349950Y707718D02*
D03*
X331650Y681358D02*
D03*
X445000Y245000D02*
D03*
X435000Y190000D02*
D03*
X85000Y210000D02*
D03*
X80000Y380000D02*
D03*
Y320000D02*
D03*
X85000Y260000D02*
D03*
X437416Y396070D02*
D03*
X512047Y386260D02*
D03*
X543653Y397682D02*
D03*
X485000Y540000D02*
D03*
X210000Y640000D02*
D03*
X170000Y660000D02*
D03*
X250000Y430000D02*
D03*
X155000Y360000D02*
D03*
X80000Y535000D02*
D03*
X215000Y525000D02*
D03*
X190000Y515000D02*
D03*
X425000Y480000D02*
D03*
X360000Y185000D02*
D03*
X370000Y235000D02*
D03*
X315000Y315000D02*
D03*
X320000Y250000D02*
D03*
X240000Y270000D02*
D03*
X235000Y310000D02*
D03*
X160000Y315000D02*
D03*
X155000Y260000D02*
D03*
X325000Y285000D02*
D03*
X219000Y262000D02*
D03*
X646500Y655000D02*
D03*
X243721Y493142D02*
D03*
X268779Y689971D02*
D03*
X266315Y302976D02*
D03*
X275777Y238396D02*
D03*
X206081Y301209D02*
D03*
X196000Y268000D02*
D03*
X189887Y264112D02*
D03*
X182347Y263669D02*
D03*
X214000Y270000D02*
D03*
Y503500D02*
D03*
Y479500D02*
D03*
X313500Y503500D02*
D03*
X299211Y277811D02*
D03*
X217000Y365700D02*
D03*
X225500Y382200D02*
D03*
X226024Y370560D02*
D03*
X283811Y262063D02*
D03*
X283757Y285633D02*
D03*
X266685Y459894D02*
D03*
X274978Y292415D02*
D03*
X283811Y277811D02*
D03*
X284000Y270000D02*
D03*
X174000Y284000D02*
D03*
Y280000D02*
D03*
X259100Y650000D02*
D03*
X234214Y407032D02*
D03*
X266791Y455000D02*
D03*
X266653Y695376D02*
D03*
X159000Y525000D02*
D03*
X110000Y457000D02*
D03*
Y461000D02*
D03*
X279600Y693200D02*
D03*
X283300Y688700D02*
D03*
X279500Y689100D02*
D03*
X279600Y635700D02*
D03*
X280000Y640600D02*
D03*
X283700Y666300D02*
D03*
X279800Y666100D02*
D03*
X283700Y662300D02*
D03*
X279700Y662400D02*
D03*
X270500Y656500D02*
D03*
X270900Y648900D02*
D03*
X271100Y652600D02*
D03*
X267400Y675200D02*
D03*
X267200Y678900D02*
D03*
X267000Y682900D02*
D03*
X267200Y686400D02*
D03*
X150000Y639000D02*
D03*
X146500D02*
D03*
X495000Y690000D02*
D03*
X507900Y750200D02*
D03*
X432500Y764800D02*
D03*
X540000Y600000D02*
D03*
X530000Y665000D02*
D03*
X490000Y625000D02*
D03*
X425000Y675000D02*
D03*
X445000Y730000D02*
D03*
X430000Y625000D02*
D03*
X564400Y766600D02*
D03*
X560000Y735000D02*
D03*
X381000Y750800D02*
D03*
X332200Y766000D02*
D03*
X302100D02*
D03*
X311500Y733700D02*
D03*
X330100Y750200D02*
D03*
X324538Y646187D02*
D03*
X318600Y643200D02*
D03*
X316900Y633300D02*
D03*
X377900Y681000D02*
D03*
X368100Y631100D02*
D03*
X411500Y543800D02*
D03*
X619300Y557700D02*
D03*
X584300Y557400D02*
D03*
X584100Y585500D02*
D03*
X584400Y608600D02*
D03*
X680100Y693500D02*
D03*
X680300Y718300D02*
D03*
X680700Y741000D02*
D03*
X681000Y766300D02*
D03*
X650700Y770400D02*
D03*
X618400Y753300D02*
D03*
X601300Y734700D02*
D03*
X583600Y706400D02*
D03*
X584500Y677500D02*
D03*
X650100Y685300D02*
D03*
X324000Y425800D02*
D03*
X284700Y462400D02*
D03*
X288000Y415100D02*
D03*
X255100Y388500D02*
D03*
X264200Y398600D02*
D03*
X584400Y364700D02*
D03*
X584700Y419900D02*
D03*
X584200Y396400D02*
D03*
X584600Y386000D02*
D03*
X584800Y376500D02*
D03*
X556700Y246800D02*
D03*
X542500Y233500D02*
D03*
X525600Y216900D02*
D03*
X511400Y213900D02*
D03*
X486600Y181600D02*
D03*
X507200Y230200D02*
D03*
X416900Y271300D02*
D03*
X450700Y300200D02*
D03*
X481800Y361500D02*
D03*
X386400Y361200D02*
D03*
X358000D02*
D03*
X351700Y460600D02*
D03*
X284400Y517300D02*
D03*
X320600Y531800D02*
D03*
X363800Y518400D02*
D03*
X387800Y485700D02*
D03*
X367400Y422600D02*
D03*
X543000Y424400D02*
D03*
X430200Y417900D02*
D03*
X477000Y423000D02*
D03*
X451600Y459200D02*
D03*
X474500Y481400D02*
D03*
X672200Y352000D02*
D03*
X665300Y417300D02*
D03*
X663100Y475600D02*
D03*
X628900Y506800D02*
D03*
X639800Y464500D02*
D03*
X626700Y440300D02*
D03*
X628300Y411400D02*
D03*
X645600Y392000D02*
D03*
X665700Y378900D02*
D03*
X629700Y371600D02*
D03*
X649100Y350700D02*
D03*
X625000Y325200D02*
D03*
X625200Y301300D02*
D03*
X624400Y276300D02*
D03*
X626400Y240300D02*
D03*
X639500Y180600D02*
D03*
X639600Y176900D02*
D03*
X623500Y191300D02*
D03*
X785700Y203500D02*
D03*
X802800Y339000D02*
D03*
X799700Y226900D02*
D03*
X765500Y228100D02*
D03*
X758900Y279700D02*
D03*
X774400Y311300D02*
D03*
X733800Y341200D02*
D03*
X783200Y350000D02*
D03*
X749900Y355700D02*
D03*
X783200Y374000D02*
D03*
X797000Y520000D02*
D03*
X770700Y557100D02*
D03*
X762500Y614500D02*
D03*
X801000Y394100D02*
D03*
X766600Y397800D02*
D03*
X758300Y448200D02*
D03*
X775100Y481000D02*
D03*
X775000Y530000D02*
D03*
X795000Y545000D02*
D03*
Y575000D02*
D03*
Y610000D02*
D03*
Y650000D02*
D03*
X770000Y690000D02*
D03*
Y735000D02*
D03*
X715000Y730000D02*
D03*
Y755000D02*
D03*
Y700000D02*
D03*
Y675000D02*
D03*
X625000Y595000D02*
D03*
X660000Y525000D02*
D03*
X635000Y530000D02*
D03*
X655000Y550000D02*
D03*
X630000Y560000D02*
D03*
X629121Y622527D02*
D03*
X510000Y570000D02*
D03*
X575000Y595000D02*
D03*
X555000Y555000D02*
D03*
X440000Y570000D02*
D03*
X390000Y715000D02*
D03*
X375000Y595000D02*
D03*
X280000Y615000D02*
D03*
X240000Y665000D02*
D03*
X270000Y740000D02*
D03*
X240000Y760000D02*
D03*
X220000Y715000D02*
D03*
X175000D02*
D03*
X180000Y755000D02*
D03*
X105000D02*
D03*
X80000Y680000D02*
D03*
X120000Y685000D02*
D03*
X195000D02*
D03*
X240000Y575000D02*
D03*
X235000Y540000D02*
D03*
X205000Y560000D02*
D03*
X240000Y630000D02*
D03*
X200000Y610000D02*
D03*
X150000D02*
D03*
X115000Y595000D02*
D03*
X95000Y555000D02*
D03*
X130000Y540000D02*
D03*
X95000Y510000D02*
D03*
X135000Y500000D02*
D03*
X190000Y475000D02*
D03*
Y445000D02*
D03*
X235000Y395000D02*
D03*
X285000Y495000D02*
D03*
X260000Y465000D02*
D03*
X235000D02*
D03*
X170000Y415000D02*
D03*
X145000Y420000D02*
D03*
X95000Y405000D02*
D03*
X375000Y310000D02*
D03*
X470000Y320000D02*
D03*
X465000Y275000D02*
D03*
X470000Y210000D02*
D03*
X410000Y225000D02*
D03*
X365000Y270000D02*
D03*
X325000Y220000D02*
D03*
X250000Y205000D02*
D03*
X175000Y210000D02*
D03*
X120000Y235000D02*
D03*
X115000Y305000D02*
D03*
X112067Y355192D02*
D03*
X78500Y627500D02*
D03*
X92902Y652598D02*
D03*
X270500Y697000D02*
D03*
Y693800D02*
D03*
X695100Y644500D02*
D03*
X698900D02*
D03*
X702700D02*
D03*
X706929D02*
D03*
X149000Y474000D02*
D03*
X121500Y454000D02*
D03*
X677829Y447000D02*
D03*
X677900Y332400D02*
D03*
Y338492D02*
D03*
X594000Y520000D02*
D03*
Y516000D02*
D03*
Y512000D02*
D03*
X598500D02*
D03*
Y516000D02*
D03*
Y520000D02*
D03*
X603000D02*
D03*
Y516000D02*
D03*
Y512000D02*
D03*
X635000Y177000D02*
D03*
X601000Y337000D02*
D03*
Y341000D02*
D03*
Y345000D02*
D03*
X596500D02*
D03*
Y341000D02*
D03*
Y337000D02*
D03*
X592000D02*
D03*
Y341000D02*
D03*
Y345000D02*
D03*
X270000Y714000D02*
D03*
X264500Y702000D02*
D03*
X261110Y701890D02*
D03*
X108200Y452600D02*
D03*
X107800Y465578D02*
D03*
X99300Y454600D02*
D03*
X99200Y467500D02*
D03*
X93200Y460000D02*
D03*
X97000D02*
D03*
X93000Y640000D02*
D03*
X103000Y650000D02*
D03*
Y629000D02*
D03*
X90600Y617500D02*
D03*
Y611500D02*
D03*
X91413Y605500D02*
D03*
X81000Y724743D02*
D03*
X278031Y542103D02*
D03*
X291024Y542560D02*
D03*
X268976D02*
D03*
X152976Y517799D02*
D03*
Y486500D02*
D03*
X204118Y492150D02*
D03*
X261213Y375410D02*
D03*
X290905Y380717D02*
D03*
X296024Y370560D02*
D03*
X273976D02*
D03*
X261024D02*
D03*
X238976D02*
D03*
X203976D02*
D03*
X152835Y399850D02*
D03*
Y431150D02*
D03*
X312000Y350000D02*
D03*
X132000Y458000D02*
D03*
X136000D02*
D03*
Y462000D02*
D03*
X132000D02*
D03*
X165107Y387893D02*
D03*
X195500Y424700D02*
D03*
X190500Y424600D02*
D03*
X136500Y435500D02*
D03*
X91900Y441400D02*
D03*
X757000Y344800D02*
D03*
Y340600D02*
D03*
X747900Y344700D02*
D03*
Y340400D02*
D03*
X747800Y546800D02*
D03*
Y542800D02*
D03*
X751800D02*
D03*
X755800D02*
D03*
Y546800D02*
D03*
X755900Y538100D02*
D03*
X748500Y213200D02*
D03*
Y209200D02*
D03*
X752500D02*
D03*
X756500D02*
D03*
Y213200D02*
D03*
X756600Y204500D02*
D03*
X756100Y373300D02*
D03*
X756000Y382000D02*
D03*
Y378000D02*
D03*
X752000D02*
D03*
X748000D02*
D03*
Y382000D02*
D03*
X756500Y513400D02*
D03*
Y509200D02*
D03*
X747400Y513300D02*
D03*
Y509000D02*
D03*
X747200Y674100D02*
D03*
Y678400D02*
D03*
X756300Y674300D02*
D03*
Y678500D02*
D03*
X751700D02*
D03*
Y674125D02*
D03*
X752500Y344800D02*
D03*
Y340425D02*
D03*
X752000Y508925D02*
D03*
Y513300D02*
D03*
X748000Y538200D02*
D03*
X751700Y547500D02*
D03*
X752000Y538200D02*
D03*
X751700Y551300D02*
D03*
X752000Y373300D02*
D03*
X748000D02*
D03*
X752000Y382300D02*
D03*
Y386100D02*
D03*
X752500Y217600D02*
D03*
X748800Y204500D02*
D03*
X752800D02*
D03*
X752500Y213800D02*
D03*
X734000Y244500D02*
D03*
X738000Y260500D02*
D03*
X730000Y268500D02*
D03*
X738000Y252500D02*
D03*
X730000Y260500D02*
D03*
X738000Y236500D02*
D03*
X730000Y252500D02*
D03*
X738000Y244500D02*
D03*
X742000Y252500D02*
D03*
X730000Y236500D02*
D03*
X734000Y268500D02*
D03*
X742000Y260500D02*
D03*
X734000Y236500D02*
D03*
X738000Y268500D02*
D03*
X742000D02*
D03*
X734000Y252500D02*
D03*
X742000Y244500D02*
D03*
X730000D02*
D03*
X734000Y260500D02*
D03*
X742000Y236500D02*
D03*
X738000Y295000D02*
D03*
X742000D02*
D03*
X734000Y311000D02*
D03*
X730000Y327000D02*
D03*
X734000Y303000D02*
D03*
X730000Y319000D02*
D03*
X738000D02*
D03*
X734000Y327000D02*
D03*
X738000D02*
D03*
X730000Y295000D02*
D03*
X738000Y311000D02*
D03*
X734000Y295000D02*
D03*
Y319000D02*
D03*
X738000Y303000D02*
D03*
X730000D02*
D03*
X742000Y327000D02*
D03*
Y303000D02*
D03*
X730000Y311000D02*
D03*
X742000Y319000D02*
D03*
Y311000D02*
D03*
X729500Y437500D02*
D03*
X737500Y421500D02*
D03*
X733500Y437500D02*
D03*
X741500Y413500D02*
D03*
X733500D02*
D03*
X737500D02*
D03*
X729500Y405500D02*
D03*
X733500D02*
D03*
X741500D02*
D03*
X729500Y429500D02*
D03*
X741500Y437500D02*
D03*
Y429500D02*
D03*
Y421500D02*
D03*
X737500Y405500D02*
D03*
X729500Y413500D02*
D03*
X737500Y429500D02*
D03*
Y437500D02*
D03*
X729500Y421500D02*
D03*
X733500Y429500D02*
D03*
Y421500D02*
D03*
X734000Y464000D02*
D03*
X738000Y480000D02*
D03*
X730000Y488000D02*
D03*
X742000Y496000D02*
D03*
X734000Y472000D02*
D03*
X738000Y464000D02*
D03*
X742000Y472000D02*
D03*
Y488000D02*
D03*
X734000Y480000D02*
D03*
X730000Y472000D02*
D03*
Y496000D02*
D03*
X738000Y488000D02*
D03*
X742000Y464000D02*
D03*
X738000Y496000D02*
D03*
Y472000D02*
D03*
X730000Y464000D02*
D03*
X734000Y496000D02*
D03*
X730000Y480000D02*
D03*
X742000D02*
D03*
X734000Y488000D02*
D03*
X730000Y578000D02*
D03*
X738000Y602000D02*
D03*
X734000Y578000D02*
D03*
X738000Y594000D02*
D03*
X730000Y570000D02*
D03*
X738000Y586000D02*
D03*
Y570000D02*
D03*
X730000Y602000D02*
D03*
X734000Y570000D02*
D03*
X742000Y578000D02*
D03*
X730000Y586000D02*
D03*
X734000Y594000D02*
D03*
X742000Y602000D02*
D03*
X734000Y586000D02*
D03*
X742000Y570000D02*
D03*
Y594000D02*
D03*
Y586000D02*
D03*
X734000Y602000D02*
D03*
X730000Y594000D02*
D03*
X738000Y578000D02*
D03*
X742000Y645000D02*
D03*
X734000Y629000D02*
D03*
X742000D02*
D03*
X738000Y661000D02*
D03*
X730000Y645000D02*
D03*
X738000D02*
D03*
X730000Y629000D02*
D03*
X742000Y661000D02*
D03*
X734000Y637000D02*
D03*
X730000D02*
D03*
X742000Y653000D02*
D03*
X734000Y645000D02*
D03*
X730000Y661000D02*
D03*
X738000Y629000D02*
D03*
X734000Y661000D02*
D03*
X730000Y653000D02*
D03*
X738000Y637000D02*
D03*
X734000Y653000D02*
D03*
X742000Y637000D02*
D03*
X738000Y653000D02*
D03*
X80300Y447400D02*
D03*
X231900Y332500D02*
D03*
X228000D02*
D03*
X224186Y332512D02*
D03*
X648000Y240500D02*
D03*
X645500Y276000D02*
D03*
X646500Y327500D02*
D03*
X652000Y409500D02*
D03*
X647000Y444000D02*
D03*
X649000Y489000D02*
D03*
Y502000D02*
D03*
X648000Y571500D02*
D03*
X642500Y610000D02*
D03*
X646500Y666000D02*
D03*
X649007Y662807D02*
D03*
Y658293D02*
D03*
X647000Y610000D02*
D03*
X648000Y576000D02*
D03*
X648807Y497800D02*
D03*
Y493186D02*
D03*
X649307Y329307D02*
D03*
Y325693D02*
D03*
X649000Y276000D02*
D03*
X648000Y244000D02*
D03*
X649455Y441819D02*
D03*
X650114Y412114D02*
D03*
X657507Y666193D02*
D03*
X654700Y652100D02*
D03*
X673600Y628307D02*
D03*
X657407Y607393D02*
D03*
X656507Y582400D02*
D03*
X673500Y569807D02*
D03*
X657307Y501186D02*
D03*
X654500Y486993D02*
D03*
X673900Y463100D02*
D03*
X657307Y441693D02*
D03*
X656307Y416000D02*
D03*
X673700Y404607D02*
D03*
X674000Y294500D02*
D03*
X657807Y332693D02*
D03*
X655000Y319500D02*
D03*
X657307Y274693D02*
D03*
X656500Y249500D02*
D03*
X673000Y236000D02*
D03*
X690800Y278700D02*
D03*
X695000D02*
D03*
X699000D02*
D03*
Y282700D02*
D03*
X695000D02*
D03*
X691000D02*
D03*
X690800Y337200D02*
D03*
X695000D02*
D03*
X699000D02*
D03*
Y341200D02*
D03*
X695000D02*
D03*
X691000D02*
D03*
X690813Y670700D02*
D03*
X695013D02*
D03*
X699013D02*
D03*
Y674700D02*
D03*
X695013D02*
D03*
X691013D02*
D03*
X685800Y607000D02*
D03*
X690000D02*
D03*
X694000D02*
D03*
Y611000D02*
D03*
X690000D02*
D03*
X686000D02*
D03*
X690800Y505500D02*
D03*
X695000D02*
D03*
X699000D02*
D03*
Y509500D02*
D03*
X695000D02*
D03*
X691000D02*
D03*
X690000Y446000D02*
D03*
X694000D02*
D03*
X698000D02*
D03*
Y442000D02*
D03*
X694000D02*
D03*
X689800D02*
D03*
X658419Y490060D02*
D03*
Y654960D02*
D03*
X666900Y622000D02*
D03*
X658100Y591900D02*
D03*
X657980Y588359D02*
D03*
X667000Y563500D02*
D03*
X667400Y456900D02*
D03*
X657900Y426000D02*
D03*
X657880Y422559D02*
D03*
X667200Y398400D02*
D03*
X658200Y259000D02*
D03*
X658100Y255500D02*
D03*
X659199Y317900D02*
D03*
X667100Y288400D02*
D03*
X666400Y229800D02*
D03*
X657650Y671500D02*
D03*
X657000Y619800D02*
D03*
X657400Y561300D02*
D03*
X637400Y583400D02*
D03*
X657500Y613100D02*
D03*
X671700Y559600D02*
D03*
X657600Y280000D02*
D03*
Y506800D02*
D03*
X657800Y454700D02*
D03*
X657600Y447000D02*
D03*
X637000Y417600D02*
D03*
X671600Y394100D02*
D03*
X657500Y396200D02*
D03*
X658100Y338000D02*
D03*
X657000Y286100D02*
D03*
X637000Y250600D02*
D03*
X671600Y226000D02*
D03*
X656600Y227600D02*
D03*
X203420Y411000D02*
D03*
X413500Y313000D02*
D03*
Y307000D02*
D03*
Y301000D02*
D03*
Y295000D02*
D03*
X427500Y313000D02*
D03*
Y307000D02*
D03*
Y301000D02*
D03*
Y295000D02*
D03*
X420500D02*
D03*
Y301000D02*
D03*
Y307000D02*
D03*
Y313000D02*
D03*
Y318400D02*
D03*
X420650Y358750D02*
D03*
X420500Y361450D02*
D03*
Y364000D02*
D03*
X571500Y530300D02*
D03*
X575400Y357500D02*
D03*
X552000Y495500D02*
D03*
Y501500D02*
D03*
Y507000D02*
D03*
X546000D02*
D03*
Y501500D02*
D03*
X511200Y474700D02*
D03*
X526400Y440700D02*
D03*
X511900Y488500D02*
D03*
X520200Y474700D02*
D03*
Y480700D02*
D03*
Y486700D02*
D03*
Y492700D02*
D03*
Y498700D02*
D03*
Y468700D02*
D03*
Y462700D02*
D03*
Y456700D02*
D03*
X526200D02*
D03*
Y462700D02*
D03*
Y468700D02*
D03*
Y498700D02*
D03*
Y492700D02*
D03*
Y486700D02*
D03*
Y480700D02*
D03*
Y474700D02*
D03*
X552200Y463200D02*
D03*
Y457200D02*
D03*
Y451200D02*
D03*
Y445200D02*
D03*
X546200D02*
D03*
Y451200D02*
D03*
Y457200D02*
D03*
Y463200D02*
D03*
X538200Y443700D02*
D03*
Y437700D02*
D03*
X532200D02*
D03*
Y443700D02*
D03*
X546200Y468200D02*
D03*
X552200D02*
D03*
X550000Y326000D02*
D03*
Y331500D02*
D03*
X556000D02*
D03*
Y326000D02*
D03*
Y320000D02*
D03*
X554000Y296000D02*
D03*
X548000D02*
D03*
X564000Y479000D02*
D03*
Y483750D02*
D03*
X537000Y507000D02*
D03*
Y502250D02*
D03*
X537050Y512050D02*
D03*
X564000Y489000D02*
D03*
X284300Y709700D02*
D03*
X280700Y701900D02*
D03*
X284200Y701919D02*
D03*
Y705100D02*
D03*
X296500Y689500D02*
D03*
X300000Y693000D02*
D03*
X296500D02*
D03*
X565000Y512300D02*
D03*
Y516000D02*
D03*
Y520000D02*
D03*
X538500Y328500D02*
D03*
Y333250D02*
D03*
X564900Y307400D02*
D03*
X195500Y409928D02*
D03*
X190500D02*
D03*
X677800Y666000D02*
D03*
X677879Y671500D02*
D03*
X664021Y649500D02*
D03*
X677700Y607300D02*
D03*
X677729Y613100D02*
D03*
X663928Y591000D02*
D03*
X637400Y603629D02*
D03*
X646400Y603600D02*
D03*
X677900Y501500D02*
D03*
X677829Y506800D02*
D03*
X664028Y484300D02*
D03*
X677900Y441800D02*
D03*
X637000Y437600D02*
D03*
X646300D02*
D03*
X664028Y425200D02*
D03*
X646260Y270940D02*
D03*
X637000Y270829D02*
D03*
X665900Y316000D02*
D03*
X665300Y257500D02*
D03*
X677900Y274200D02*
D03*
X677860Y280031D02*
D03*
X252000Y369000D02*
D03*
X287000D02*
D03*
X405500Y350000D02*
D03*
Y356000D02*
D03*
Y362000D02*
D03*
X333500Y496000D02*
D03*
Y344000D02*
D03*
X565000Y345000D02*
D03*
Y341000D02*
D03*
Y337000D02*
D03*
X534000Y267000D02*
D03*
Y261000D02*
D03*
X540000D02*
D03*
Y267000D02*
D03*
X548000Y291000D02*
D03*
Y285000D02*
D03*
Y279000D02*
D03*
Y273000D02*
D03*
X554000D02*
D03*
Y279000D02*
D03*
Y285000D02*
D03*
Y291000D02*
D03*
X528000Y298000D02*
D03*
Y304000D02*
D03*
Y310000D02*
D03*
Y316000D02*
D03*
Y322000D02*
D03*
Y292000D02*
D03*
Y286000D02*
D03*
Y280000D02*
D03*
X522000D02*
D03*
Y286000D02*
D03*
Y292000D02*
D03*
Y322000D02*
D03*
Y316000D02*
D03*
Y310000D02*
D03*
Y304000D02*
D03*
Y298000D02*
D03*
X513700Y311800D02*
D03*
X528200Y264000D02*
D03*
X513000Y298000D02*
D03*
X538500Y338000D02*
D03*
X565000Y311000D02*
D03*
Y314500D02*
D03*
X262700Y683000D02*
D03*
Y678400D02*
D03*
Y673800D02*
D03*
X267900Y650600D02*
D03*
X267600Y654200D02*
D03*
X256700Y647800D02*
D03*
X166000Y553000D02*
D03*
Y628000D02*
D03*
X162000Y553000D02*
D03*
Y627921D02*
D03*
X146390Y654646D02*
D03*
Y659370D02*
D03*
Y664094D02*
D03*
Y668819D02*
D03*
Y673543D02*
D03*
Y678268D02*
D03*
Y682992D02*
D03*
Y687717D02*
D03*
Y692441D02*
D03*
Y697165D02*
D03*
Y701890D02*
D03*
Y706614D02*
D03*
Y711339D02*
D03*
X149831D02*
D03*
Y706614D02*
D03*
Y701890D02*
D03*
Y697165D02*
D03*
Y692441D02*
D03*
Y687717D02*
D03*
Y682992D02*
D03*
Y678268D02*
D03*
Y664094D02*
D03*
Y659370D02*
D03*
Y654646D02*
D03*
Y649921D02*
D03*
X146390D02*
D03*
X150000Y643500D02*
D03*
X146500D02*
D03*
X283689Y635748D02*
D03*
X283500Y640500D02*
D03*
X284200Y654300D02*
D03*
X283400Y692400D02*
D03*
X299000Y572800D02*
D03*
X294700Y720300D02*
D03*
X298000Y738000D02*
D03*
X310000Y714000D02*
D03*
X361000Y566000D02*
D03*
X365000D02*
D03*
Y570000D02*
D03*
X360752D02*
D03*
X328685Y410685D02*
D03*
Y480685D02*
D03*
X91598Y472598D02*
D03*
X131500Y435500D02*
D03*
X154800Y451800D02*
D03*
X154865Y466465D02*
D03*
X134000Y471000D02*
D03*
X137000Y448000D02*
D03*
X109000Y441500D02*
D03*
X110500Y449000D02*
D03*
X257000Y706000D02*
D03*
X264800Y709700D02*
D03*
X102500Y634000D02*
D03*
Y645800D02*
D03*
X293500Y713000D02*
D03*
X282000Y645000D02*
D03*
Y669000D02*
D03*
Y657000D02*
D03*
X271900Y659600D02*
D03*
X293600Y703400D02*
D03*
Y709800D02*
D03*
Y706600D02*
D03*
X270669Y665669D02*
D03*
X254100Y649900D02*
D03*
X268500Y659600D02*
D03*
X160500Y436500D02*
D03*
X168300Y465100D02*
D03*
X162700Y461600D02*
D03*
X160500Y468000D02*
D03*
X168500Y437000D02*
D03*
X138000Y471000D02*
D03*
X209000Y479500D02*
D03*
X269000Y495000D02*
D03*
X189500Y495500D02*
D03*
X279095Y381405D02*
D03*
X244000Y381500D02*
D03*
X283000Y403500D02*
D03*
Y381500D02*
D03*
X248000D02*
D03*
X280500Y435000D02*
D03*
X234258Y411343D02*
D03*
M02*
