M48
;Layer_Color=9474304
;FILE_FORMAT=4:4
METRIC,LZ
;TYPE=PLATED
T01F00S00C0.2000
T02F00S00C0.3048
T04F00S00C0.7112
T05F00S00C0.8636
T06F00S00C1.0000
T07F00S00C1.0160
T08F00S00C1.1000
T09F00S00C1.5000
T10F00S00C1.6000
T11F00S00C2.7000
T12F00S00C4.5500
;TYPE=NON_PLATED
T13F00S00C1.1000
%
T01
X0058166Y0112708
X0058866Y0112008
X0059566Y0112708
X0058866Y0113408
X0059566Y0114108
X0058866Y0114808
X0060266
Y0113408
Y0112008
X0060966Y0112708
Y0114108
X0058166
T02
X01995678Y0051689
X02031238Y00576326
X0194437Y00579374
X0191135Y00552704
Y00543052
X0190119Y00541528
Y00531368
X0191135
X0192151
Y00541528
X01921764Y0051943
X01912112
X01901952
X0188468Y0060071
X0187452
X0186436
X018542
Y0062103
X0186436
X0187452
X0188468
Y0064135
X0187452
X0186436
X018542
Y0066167
X0186436
X0187452
X0188468
Y0068199
X0187452
X0186436
X018542
Y0070612
Y0071628
Y0072644
X0183896
Y0071628
Y0070612
X0186944
Y0071628
Y0072644
X0188468
Y0071628
Y0070612
X0189484Y007112
Y0072136
X0191008
Y007112
X01927606Y00710438
X0188468Y007493
X0187452
X0186436
X018542
Y0076962
X0186436
X0187452
X0188468
Y0078994
X0187452
X0186436
X018542
X01966976Y00790702
X0177546Y00718058
Y00707898
X017653
Y00718058
X0175514
X01754632Y00707898
X01721765Y0071128
X01721866Y00696468
X0166956Y0069772
X01670304Y007112
X0166878Y00726694
X01694434Y00732536
X0171196Y0074803
X0164846Y0070104
X0163957
X016415Y00688188
X0161798Y00687905
Y00636524
X0164592Y0061976
Y0061087
X0166751Y0063373
X01671574Y0064897
X01671828Y0065786
X01689862Y0065405
X01692656Y00583692
X01705864Y0057404
X0170942Y0059944
X01667764Y00578104
X0166751Y005334
Y005207
Y00508
X0168656
Y005207
Y005334
X0170688
Y005207
Y00508
X0172593
Y005207
Y005334
X0174498
Y005207
Y00508
X0176276
Y005207
Y005334
X0178181
Y005207
Y00508
X0180086
Y005207
Y005334
X0164846
Y005207
Y00508
X0162179Y0054229
Y0055626
Y0057023
Y005842
X0160274
Y0057023
Y0055626
Y0054229
X01591056Y00610362
X01588008Y00765302
X016129Y0044958
X01624584Y00449326
X0162433Y00458724
X0158369Y00485902
X0158344Y0054077
X0158369Y0055626
Y0057023
Y005842
X01585976Y00701802
X0140716Y0070866
X0139192
Y007239
Y0073914
Y0075184
X0140716
Y0073914
Y007239
Y0069342
X0139192
X013716Y0067818
X0135636
Y0066294
X013716
X01341628Y0067056
X0134112Y007112
Y0072644
Y0074168
Y0075692
Y0077216
Y007874
X0132588
Y0077216
Y0075692
Y0074168
Y0072644
Y007112
X0130302Y0075692
X01304798Y00791972
X014351Y0078994
X01434846Y00780796
X01414018Y00626872
X0137795Y0059309
X01335024Y00550926
X01298956Y00543306
X01288288Y00584708
X011938Y005334
X01235964Y00461264
X011049Y004826
X010414Y005715
X009398Y005969
X009271Y006858
X009525Y007874
X0105029Y0077978
Y0076454
Y007493
X0106807
Y0076454
Y0077978
X0108585
Y0076454
Y007493
X01144778Y00762508
X011811Y006985
X011303Y006223
X01058926Y00689102
X008255Y007239
X008128Y00635
X008255Y005588
X009144Y004699
X00635Y005207
X00700473Y00605526
X0072088Y0066564
X0072136Y006858
X0072088Y0070564
X00720743Y00725508
X00698444Y00742734
X0067644Y00769559
X005969Y007874
X00523445Y00765072
X0054356Y006858
X0055626Y0066548
X006096Y006858
X0049784Y0068072
X00482314Y00670846
X00463162Y00669719
X0044196Y007112
Y0072136
X004445Y005334
X00759996Y0070564
X003937Y006604
X003048Y005969
X002159Y005334
Y006604
X002921Y007747
X002032Y008128
Y009652
X002413Y010287
X00233426Y01121156
X0027686Y0112141
X0028067Y0114046
X00274828Y01149604
X002794Y0116078
Y0117094
X00273812Y01182568
X00251968Y0118745
X0024638Y011684
X00236728
X00252222Y01154684
X0030861Y0115316
X0033528Y0116332
X0034544
Y0117348
X0033528
X0034798Y0113792
X0034671Y0110617
X0033401
X003882Y0109512
X003683Y010668
X003882Y0101562
X003937Y009144
X0028465Y00902187
X00203962Y01136396
X00393192Y01147572
X00393357Y01184821
X0040767Y0118872
X00413258Y01172464
X00427482Y01181354
X0042799Y0110998
X0040767Y0110871
X004318Y010541
X0048387Y01041218
X0049657
X00516688Y0104394
X0049657Y01078738
X0048387Y01078484
X004826Y011303
X005969Y011811
X006604
X0067738Y0116813
X0067765Y011557
X00723138Y01174496
X0073533Y01143508
X00735838Y01129792
X0071247Y011049
X0073152Y01054354
X0071882Y0102489
Y0096901
X007089Y0096877
X007389Y00967022
X007519Y00941222
X0072898Y0093726
X006959Y00941222
X00663
X0066348Y00953542
X0064008Y0093726
X00607Y00941222
X005741
X0057277Y00970788
X0061976Y0096901
X0062992
X00647954Y0098679
X00671068Y01012444
X005969Y010033
X00594903Y01033862
X00595016Y01044811
X00635Y010922
X0055118Y00928878
X005181Y00941222
X00419372Y00985248
X004064Y008001
X00569432Y0084458
X0057912Y0084455
X00589026
X0079248Y00889
X0084709Y0087376
X0090932Y00917448
X00981456
X0102997Y0091948
Y0090424
Y00889
X01068451Y00911225
X0106807Y00918083
Y0092456
Y00808736
Y0079502
X0105029
X0108585
X01111035Y01006018
X01092708Y01061466
X01147064Y01166368
X00893318Y01169924
X00933196Y01073404
X0082296Y01081532
X0083486Y0104314
X008001Y008001
X011938Y008128
X01223772Y0091821
X01300601Y00981101
X01380879Y01010113
X0137922Y01077976
X01367028Y01111758
Y01126998
X01351788
Y01111758
X01337056Y01119378
X01336548Y01160018
X01321308
Y01175258
Y01190498
X01336548
Y01175258
X01387348Y01176528
Y01189228
X01402588
Y01176528
Y01161288
Y01146048
Y01130808
X01387348
Y01146048
Y01161288
X01485138Y01066546
X01483868Y01006856
X01484884Y0098044
X01485392Y0095631
X01484376Y00926338
X01461516Y0090805
X014351Y008763
Y0086614
Y0085598
X0141224Y0084201
Y0082804
X01397
Y0084201
X0136779Y00846455
Y0083439
Y0085852
X0134112Y0081788
Y0080264
X0132588
Y0081788
X0141224Y008128
X014351Y0079883
X0150368Y0085598
Y0086614
Y008763
X0151511
Y0086614
Y0085598
X0152654
Y0086614
Y008763
X0121158Y0107442
X01595882Y01044956
X0161798Y01060704
X0165129Y0104677
X0165608Y0104013
X0166702Y0105664
X01671016Y010733
X01671066Y0108204
X01686632Y01080008
X01689862Y01059942
X01694688Y01011936
X01705864Y01001014
X01711198Y01027702
X0167005Y01006348
X01639824Y0099568
X01690878Y00962406
X017526Y0094742
X0176276
X0177292
X0178308
Y0093218
X0177292
X0176276
X017526
Y0091694
X0176276
X0177292
X0178308
Y009017
X0177292
X0176276
X017526
X0175514Y00866648
X017653
Y00856488
X0177546
Y00866648
X01754632Y00856488
X01721866Y00859769
Y00844296
X0167083Y0084504
X01671574Y0085852
X0164924Y0083644
Y0082726
X0164211Y0083185
X016637Y0081153
X01674366Y00807466
X01691386Y0080264
X01707388Y0089408
X01648714Y00890778
X01599438Y00943864
X015875Y00826008
X018542Y0083058
X0186436
X0187452
X0188468
Y0081026
X0187452
X0186436
X018542
X01863852Y00866648
X01899666Y00864616
Y00875538
X0191135Y00875792
Y00864679
X0192278Y00865124
Y00875792
X01904746Y00903478
X0189992Y00948182
X0191008
X01920494
X0192024Y0096012
Y0097028
X0191008Y00971042
Y00980694
Y0096012
X0189992
Y0097028
X0188341Y0102997
X0187325
X0186309
X0185293
Y0105029
X0186309
X0187325
X0188341
Y0107061
X0187325
X0186309
X0185293
Y0109093
X0186309
X0187325
X0188341
Y0111125
X0187325
X0186309
X0185293
X018542Y0113284
Y01143
Y0115316
X0186944
Y01143
Y0113284
X0188468
Y01143
Y0115316
X0189484Y0114808
Y0113792
X0191008
Y0114808
X01926082Y01138428
X0188468Y0117856
X0187452
X0186436
X018542
X0183896Y0115316
Y01143
Y0113284
X0177292
X0176276
X017526
X01752092Y0112268
X0176276
X0177292
X01721866Y01122172
X01721685Y0113538
X01711706Y01176274
X01695196Y01160526
X01670812Y01154938
X01670304Y0113538
X0166956Y011219
X01649615Y01122219
X0164338Y0112776
X01641602Y01111504
X0161798
X01591818Y01118362
X01625092Y0117983
X01947164Y01010412
X0203454Y01001014
X01989328Y0094996
Y00889
X02039112Y0086106
X0202438Y013208
X020193Y013843
Y014605
Y015494
X0193675Y0156083
X0191008Y0155956
Y0156972
X0189484
Y0155956
X0188468Y0156464
Y015748
X0186944
Y0156464
Y0155448
X0188468
Y0152908
X0187452
X0186436
X018542
Y0150876
X0186436
X0187452
X0188468
Y0148844
X0187452
X0186436
X018542
Y0146812
X0186436
X0187452
X0188468
Y014478
X0187452
X0186436
X018542
X01909318Y01400302
Y0139065
X01899412Y01388872
Y01378712
X01909572
X01919732
Y01388872
X01919986Y01366774
X0191008Y01367028
X0189992
X01898396Y01303782
Y0129286
X0191008Y0129267
Y01303782
X0192151Y01304036
Y01293368
X0188468Y0125984
X0187452
X0186436
X018542
Y0123952
X0186436
X0187452
X0188468
Y012192
X0187452
X0186436
X018542
Y0119888
X0186436
X0187452
X0188468
X01968754Y0122174
X019685Y013462
X01957578Y01415034
X0177546Y0137414
X017653
X0175514
X0174498
Y013589
X0175514
X017653
X0177546
Y0134366
X017653
X0175514
X0174498
Y0132842
X0175514
X017653
X0177546
Y0129413
Y0128397
X017653
Y0129413
X0175514
X01754632Y0128397
X01721685Y01287272
X01721866Y0127381
X0166956Y01273012
X01670304Y01287272
X0164846Y0127508
X0164797Y01264412
Y01252692
X0164846Y0124206
X0166243Y01236962
X01672384Y01244752
X01686632Y01230122
X01684274Y01208024
X016764Y013335
X016129Y013462
X01597406Y01287272
X016002Y014224
X01669796Y01425702
X0169418Y0143129
X01706118Y01421384
X0171069Y0144731
X0164592Y0145161
Y0146304
X01667528Y01479296
X0167127Y01494432
X01671574Y01503426
X01686378Y0150114
X01669814Y01542778
X0167005Y01557274
X0166878Y01574292
X01693926Y0157988
X01721431Y01557274
X01721358Y01542542
X01741932Y0154178
X017526
X0176276
Y0155194
X017526
X0174244
X0183896Y0155448
Y0156464
Y015748
X018542
Y0156464
Y0155448
X0164338Y015494
X0163195
X01641856Y01533144
X01618996Y01533217
Y01481836
X015875Y015113
X01597968Y01581217
X016637Y01397
X01573022Y01416558
X01484122Y01415796
X01483614Y0148717
X014605Y015113
X01484376Y01545844
X013716Y01524
X012954Y014478
X012319Y013716
X0120523Y01222756
X01298448Y01205738
X01321308
Y01220978
Y01236218
Y01251458
Y01266698
X01336548
Y01251458
Y01236218
Y01220978
Y01205738
X01300226Y0124079
X0136398Y01275715
Y0128778
X01364107Y01300607
X0138684Y0128778
Y0127381
X0140208
Y0128778
Y0125857
X0143256Y0124206
Y01228725
Y0121666
X014351Y01301242
Y0131064
Y013208
X0145161Y01346962
X0150876Y013208
Y0131064
Y0130048
X0152019
Y0131064
Y013208
X0153162
Y0131064
Y0130048
X014097Y014097
X011176Y014478
X0104521Y01381252
X009271Y0143764
X0091694
X0091631Y014478
X009271
X009525Y015113
X00924052Y01316736
X0084709Y0125984
X0083486Y0122094
X0079629Y0127889
X00814324Y01350772
X00985012Y01233678
X010795Y012192
X007239Y012573
X0068326
X0067945Y0128905
Y0131445
Y0133985
X006832Y01378102
X0067945Y01397
Y014224
Y0145415
Y0147955
Y01524
Y015494
Y015748
X007112Y015621
X006223
Y015367
Y015113
Y014859
Y014478
X00621889Y0142883
X006223Y014097
X00622119Y01391209
X006223Y013716
X00621889Y01352666
X006223Y013335
X00621658Y01314122
X00622339Y01287759
X0061905Y01252581
X0054356Y0127889
X0051846Y0125006
X0053086Y0121793
X0054356
X004826Y012065
X0048133Y0125857
X004826Y013081
X005461Y013335
X005969Y013716
X006096Y014605
X005207Y014224
X0042164Y0140462
X0041148
X0040386Y013335
X00508Y015494
X0075946Y01454912
X007392Y01378102
X007062Y01376942
X00722376Y01313942
X0038856Y0131521
Y0123571
X0037846Y0120396
X0035052Y0119634
X0034036
X003429Y0127
X003302Y013716
X002413Y014097
X002032Y013589
X002413Y012954
X0023266Y012004
X0023219Y0153797
X00230124Y0155321
Y0156845
X002921Y015113
X00381Y015494
Y0162306
X0037211
Y0163449
X00381
X0038057Y016508
X0037183
Y016628
X0038057
Y016748
X0037183
Y016868
X0038057
X0037183Y016988
Y017108
Y017228
X0038057
Y017348
X0037183
Y017468
X0038057
Y017588
X0037183
Y017708
X0038057
Y017828
X0037183
Y017948
X0038057
Y018068
X0037183
X003048Y017399
X002032Y017272
X0023597Y016576
X0023622Y016256
X0026035Y01640332
X0026162Y01651
X0026035Y0161036
X0026162Y0159766
X0019939Y0159385
X0020574Y01840847
X002667Y019177
X004572
X004445Y018161
X005588
X0065278Y0179324
X0066322Y017828
X0067183Y0178308
X00672592Y01802638
X006858Y0181356
X0068707Y0177038
Y01762252
X00677298Y01766254
X006827Y01752526
X00678688Y01743456
X0067818Y01734566
X00678688Y01724406
X00679196Y01715008
X00667258Y01711452
Y01723136
Y0173482
X006604Y017018
X006875Y016908
X00690626Y01675384
X0068199
X0068707Y0166751
X00688594Y01657604
X00688086Y01648206
X00680466Y01652524
X00679704Y01661668
X00658114Y01651
X00652018Y01645412
X00645414Y01650746
X00622284Y01644778
X00622627Y01629327
X006223Y016129
Y015875
X006096Y016002
X0067945
X00710184Y01614678
X0072057Y016148
X0072009Y0162687
X007112Y01627124
X0071628Y016383
X00721868Y01661922
X0071628Y0166878
X00720598Y01682242
Y01692402
X00710692Y01691894
X00710438Y01682496
X0071628Y0169926
X00719582Y01749298
X00719836Y01758696
X00710184Y01760728
X0070993Y01750314
X00712978Y01782826
X00721868Y01782874
Y01790954
X00722122Y01802638
X00745744Y01802892
Y01794764
Y01786636
X0074549Y0181102
X00748538Y01829562
X0075692Y0187452
X0079121Y01863598
X007874Y0181356
X00762Y0176022
X0075311
Y0175133
X00635Y016764
X006096Y016891
X005334Y016256
X0042164Y0159512
X0041148Y0159492
X004318Y016764
X004953Y017399
X006096Y019304
X006858Y018796
X00767334Y0194564
X00843788
X00838454Y01905508
X0096774Y01907032
X009906Y018161
X00888997Y01823424
X00888872Y01797604
X00842392Y0173065
X00824327Y01641315
X00809244Y01633728
X00804926Y01608582
X00934974Y01602994
X00959866Y0172974
X010795Y017145
X010922Y015875
X011303Y018542
X0109855Y01942592
X01290066Y01905508
X014224Y018669
X01433576Y01947164
X01570736Y01913382
X01527302Y01866138
X01482344Y01794256
X0148463Y0172085
X013462Y016891
X012573Y017526
X012446Y015875
X0164211Y016637
X01648478Y01672064
Y0168353
X0164211Y0169164
X01670068Y0169213
X01670431Y0170561
X01672384Y01663598
X01662938Y01656334
X01686614Y0164973
X01721612Y0169164
X01721812Y0170561
X01754665Y01703578
X01765333
X01775493
Y01713738
X01765333
X01755173
X018161Y017145
Y01778
Y018542
Y019177
X0172974Y01946402
X01728978Y0188214
X01727962Y01824482
X01727454Y0176149
X01651254Y01740662
X01710944Y015959
X01765554Y0163703
X01775206
X01784858
X017956
X018542Y016383
X0186436
X0187452
X0188468
Y0165862
X0187452
X0186436
X018542
Y0167894
X0186436
X0187452
X0188468
X01897888Y01712214
Y01723136
X01909318Y0172339
Y01712278
X01921002Y01712722
Y0172339
X019558Y017526
Y018669
X0188468Y0161798
X0187452
X0186436
X018542
Y0159766
X0186436
X0187452
X0188468
X01652778Y01956816
X020193Y01651
T04
X0117856Y0088138
Y0089408
Y0090678
X0090678Y0140716
X0089408
X0074422Y012065
Y011938
X0039116Y013843
X0037846
X0031242Y0143764
Y0145034
T05
X0181436Y0051943
X0186436
X0186483Y00948182
X0181483
X0181356Y0136652
X0186356
T06
X0082025Y0094314
Y0096814
Y0099314
Y0101814
Y0104314
Y0112094
Y0114594
Y0117094
Y0119594
Y0122094
T07
X008763Y014478
X009017
Y014732
X008763
Y014986
X009017
Y01524
X008763
Y015494
X009017
Y015748
X008763
Y016002
X009017
Y016256
X008763
Y01651
X009017
Y016764
X008763
Y017018
X009017
Y017272
X008763
Y017526
X009017
Y01778
X008763
Y018034
X009017
Y018288
X008763
Y018542
X009017
Y018796
X008763
Y01905
X009017
Y019304
X008763
T08
X0199136Y0178816
Y0181356
Y0191008
Y0193548
T09
X0168662Y0178689
X0168789Y0191008
X0191389
X0191262Y0178689
T10
X0197612Y0058928
Y0066548
X0197485Y0075565
Y0083185
X0197612Y01016
Y010922
Y0118364
Y0125984
X0197485Y0152273
Y0159893
T11
X007112Y014478
X003812
Y019278
X007112
T12
X0129242Y0049022
X0136442
T13
X0201676Y0178816
Y0181356
Y0191008
Y0193548
M30
